<svg width="146" height="32" viewBox="0 0 146 32" fill="none" xmlns="http://www.w3.org/2000/svg">
<g clip-path="url(#clip0_5582_13910)">
<path d="M88.9771 12.6341C87.7631 12.6341 86.6577 13.0252 85.8366 13.6567V12.8745H84.399V21.8182H85.8366V19.0645C86.6577 19.6961 87.7599 20.0871 88.9771 20.0871C91.501 20.0871 93.5521 18.417 93.5521 16.3622C93.5521 14.3074 91.501 12.6341 88.9771 12.6341ZM88.9771 18.6446C87.2455 18.6446 85.8366 17.6188 85.8366 16.3622C85.8366 15.1056 87.2455 14.0798 88.9771 14.0798C90.7087 14.0798 92.1144 15.1056 92.1144 16.3622C92.1144 17.6188 90.7087 18.6446 88.9771 18.6446Z" fill="#484848"/>
<path d="M77.9072 12.6341C76.6932 12.6341 75.5878 13.0252 74.7667 13.6567V12.8745H73.329V21.8182H74.7667V19.0645C75.5878 19.6961 76.69 20.0871 77.9072 20.0871C80.4311 20.0871 82.4821 18.417 82.4821 16.3622C82.4821 14.3074 80.4311 12.6341 77.9072 12.6341ZM77.9072 18.6446C76.1756 18.6446 74.7667 17.6188 74.7667 16.3622C74.7667 15.1056 76.1756 14.0798 77.9072 14.0798C79.6387 14.0798 81.0445 15.1056 81.0445 16.3622C81.0445 17.6188 79.6387 18.6446 77.9072 18.6446Z" fill="#484848"/>
<path d="M142.889 15.5288H140.832C140.158 15.5288 139.688 15.1409 139.688 14.7947C139.688 14.4453 140.158 14.0574 140.832 14.0574H144.736V12.6341H140.832C139.416 12.6341 138.266 13.6022 138.266 14.7947C138.266 15.984 139.416 16.9521 140.832 16.9521H142.889C143.567 16.9521 144.036 17.3399 144.036 17.6861C144.036 18.0323 143.567 18.4202 142.889 18.4202H138.749V19.8467H142.889C144.305 19.8467 145.458 18.8786 145.458 17.6861C145.455 16.4969 144.305 15.5288 142.889 15.5288Z" fill="#484848"/>
<path d="M114.152 20.0872C111.628 20.0872 109.574 18.417 109.574 16.3622C109.574 14.3075 111.628 12.6373 114.152 12.6373C116.676 12.6373 118.727 14.3075 118.727 16.3622C118.727 18.417 116.676 20.0872 114.152 20.0872ZM114.152 14.0766C112.42 14.0766 111.012 15.1024 111.012 16.359C111.012 17.6156 112.42 18.6414 114.152 18.6414C115.884 18.6414 117.289 17.6156 117.289 16.359C117.289 15.1024 115.884 14.0766 114.152 14.0766Z" fill="#484848"/>
<path d="M107.82 10.9031H106.382V19.8467H107.82V10.9031Z" fill="#484848"/>
<path d="M126.759 18.2247C126.244 18.4875 125.621 18.6446 124.944 18.6446C123.212 18.6446 121.804 17.6188 121.804 16.3622C121.804 15.1056 123.212 14.0798 124.944 14.0798C125.621 14.0798 126.244 14.2369 126.759 14.503V14.4998L128.139 13.6984C127.315 13.0412 126.187 12.6341 124.944 12.6341C122.42 12.6341 120.366 14.3042 120.366 16.359C120.366 18.4138 122.42 20.0839 124.944 20.0839C126.187 20.0839 127.315 19.6768 128.139 19.0197L126.759 18.2247Z" fill="#484848"/>
<path d="M104.625 16.3622C104.625 14.3074 102.571 12.6373 100.05 12.6373C98.8363 12.6373 97.7309 13.0284 96.9098 13.6599V10.9031H95.4722V19.8467H96.9098V19.0646C97.7309 19.6961 98.8331 20.0871 100.05 20.0871C102.571 20.0871 104.625 18.417 104.625 16.3622ZM103.188 16.3622C103.188 17.622 101.779 18.6446 100.05 18.6446C98.3187 18.6446 96.9098 17.6188 96.9098 16.3622C96.9098 15.1056 98.3187 14.0798 100.05 14.0798C101.779 14.0766 103.188 15.1024 103.188 16.3622Z" fill="#484848"/>
<path d="M136.774 12.8745H134.742L132.519 15.1024L131.5 16.1218L131.254 16.3686V10.9031H129.816V19.8467H131.254V18.4106L132.519 17.1444L135.212 19.8467H137.244L133.535 16.1218L136.774 12.8745Z" fill="#484848"/>
<path d="M66.636 13.5253L69.786 19.8467H71.4505L66.636 10.1818L61.8182 19.8467H63.4827L66.636 13.5253Z" fill="#484848"/>
</g>
<g clip-path="url(#clip1_5582_13910)">
<path d="M31.008 0L25.248 3.328V11.36L33.312 16L25.248 20.672V28.704L31.008 32.032L51.776 20.032V12L31.008 0ZM26.528 10.624V4.8L33.824 9.024H33.856L39.648 12.352L34.624 15.264L26.528 10.624ZM30.368 30.144L26.528 27.936V22.144L30.368 24.352V30.144ZM27.168 21.024L42.176 12.352L27.168 3.712L31.008 1.504L49.856 12.384L31.008 23.264L27.168 21.024ZM50.496 19.264L31.648 30.144V24.352L50.496 13.472V19.264Z" fill="#484848"/>
<path d="M26.528 11.36V3.328L20.768 0L0 12V20.032L20.768 32L26.528 28.672V20.64L18.464 16L26.528 11.36ZM20.128 30.144L1.28 19.264V13.472L20.128 24.352V30.144ZM25.248 27.936L21.408 30.144V24.352L25.248 22.144V27.936ZM20.768 23.232L1.92 12.352L20.768 1.472L24.608 3.68L9.6 12.352L24.608 21.024L20.768 23.232ZM12.16 12.352L17.952 9.024H17.984L25.216 4.832L25.248 4.8V10.592L17.184 15.264L12.16 12.352Z" fill="#484848"/>
</g>
<defs>
<clipPath id="clip0_5582_13910">
<rect width="83.6364" height="11.6364" fill="white" transform="translate(61.8182 10.1818)"/>
</clipPath>
<clipPath id="clip1_5582_13910">
<rect width="51.776" height="32" fill="white"/>
</clipPath>
</defs>
</svg>
