<svg width="115" height="16" viewBox="0 0 115 16" fill="none" xmlns="http://www.w3.org/2000/svg">
<path d="M37.3438 3.37183C35.6745 3.37183 34.1546 3.90957 33.0256 4.77789V3.7024H31.0488V15.9999H33.0256V12.2137C34.1546 13.082 35.6701 13.6198 37.3438 13.6198C40.8141 13.6198 43.6343 11.3233 43.6343 8.498C43.6343 5.67265 40.8141 3.37183 37.3438 3.37183ZM37.3438 11.6363C34.9628 11.6363 33.0256 10.2258 33.0256 8.498C33.0256 6.77017 34.9628 5.3597 37.3438 5.3597C39.7247 5.3597 41.6575 6.77017 41.6575 8.498C41.6575 10.2258 39.7247 11.6363 37.3438 11.6363Z" fill="#1D1D1B"/>
<path d="M22.1231 3.37183C20.4538 3.37183 18.9339 3.90957 17.8049 4.77789V3.7024H15.8281V15.9999H17.8049V12.2137C18.9339 13.082 20.4494 13.6198 22.1231 13.6198C25.5934 13.6198 28.4136 11.3233 28.4136 8.498C28.4136 5.67265 25.5934 3.37183 22.1231 3.37183ZM22.1231 11.6363C19.7421 11.6363 17.8049 10.2258 17.8049 8.498C17.8049 6.77017 19.7421 5.3597 22.1231 5.3597C24.504 5.3597 26.4368 6.77017 26.4368 8.498C26.4368 10.2258 24.504 11.6363 22.1231 11.6363Z" fill="#1D1D1B"/>
<path d="M111.472 7.35199H108.643C107.716 7.35199 107.07 6.81866 107.07 6.34263C107.07 5.86218 107.716 5.32885 108.643 5.32885H114.011V3.37183H108.643C106.697 3.37183 105.115 4.70296 105.115 6.34263C105.115 7.97789 106.697 9.30902 108.643 9.30902H111.472C112.403 9.30902 113.049 9.84235 113.049 10.3184C113.049 10.7944 112.403 11.3277 111.472 11.3277H105.779V13.2892H111.472C113.418 13.2892 115.004 11.9581 115.004 10.3184C114.999 8.68312 113.418 7.35199 111.472 7.35199Z" fill="#1D1D1B"/>
<path d="M71.959 13.6197C68.4887 13.6197 65.6641 11.3233 65.6641 8.49798C65.6641 5.67264 68.4887 3.37622 71.959 3.37622C75.4293 3.37622 78.2495 5.67264 78.2495 8.49798C78.2495 11.3233 75.4293 13.6197 71.959 13.6197ZM71.959 5.35528C69.5781 5.35528 67.6408 6.76575 67.6408 8.49358C67.6408 10.2214 69.5781 11.6319 71.959 11.6319C74.3399 11.6319 76.2728 10.2214 76.2728 8.49358C76.2728 6.76575 74.3399 5.35528 71.959 5.35528Z" fill="#1D1D1B"/>
<path d="M63.2522 0.991699H61.2754V13.2892H63.2522V0.991699Z" fill="#1D1D1B"/>
<path d="M89.294 11.0589C88.5867 11.4203 87.7301 11.6363 86.7988 11.6363C84.4179 11.6363 82.4807 10.2258 82.4807 8.498C82.4807 6.77017 84.4179 5.35971 86.7988 5.35971C87.7301 5.35971 88.5867 5.57568 89.294 5.94152V5.93712L91.1917 4.83519C90.0583 3.93161 88.5077 3.37183 86.7988 3.37183C83.3285 3.37183 80.5039 5.66825 80.5039 8.49359C80.5039 11.3189 83.3285 13.6154 86.7988 13.6154C88.5077 13.6154 90.0583 13.0556 91.1917 12.152L89.294 11.0589Z" fill="#1D1D1B"/>
<path d="M58.8589 8.49804C58.8589 5.67269 56.0343 3.37627 52.5684 3.37627C50.8991 3.37627 49.3792 3.91401 48.2502 4.78233V0.991699H46.2734V13.2892H48.2502V12.2137C49.3792 13.0821 50.8947 13.6198 52.5684 13.6198C56.0343 13.6198 58.8589 11.3234 58.8589 8.49804ZM56.8821 8.49804C56.8821 10.2303 54.9449 11.6363 52.5684 11.6363C50.1875 11.6363 48.2502 10.2259 48.2502 8.49804C48.2502 6.77021 50.1875 5.35974 52.5684 5.35974C54.9449 5.35534 56.8821 6.7658 56.8821 8.49804Z" fill="#1D1D1B"/>
<path d="M103.066 3.70244H100.272L97.2144 6.7658L95.8131 8.16746L95.4748 8.50685V0.991699H93.498V13.2892H95.4748V11.3146L97.2144 9.57352L100.918 13.2892H103.711L98.6113 8.16746L103.066 3.70244Z" fill="#1D1D1B"/>
<path d="M6.62439 4.59725L10.9557 13.2893H13.2444L6.62439 0L0 13.2893H2.28867L6.62439 4.59725Z" fill="#1D1D1B"/>
</svg>
