<svg width="44" height="43" viewBox="0 0 44 43" fill="none" xmlns="http://www.w3.org/2000/svg">
<rect x="0.0869141" width="42.9999" height="43.0002" rx="21.5" fill="#6F42C1" fill-opacity="0.2"/>
<path d="M13.0869 15C13.0869 13.8954 13.9823 13 15.0869 13H18.1589C19.2634 13 20.1589 13.8954 20.1589 15V18.072C20.1589 19.1765 19.2634 20.072 18.1589 20.072H15.0869C13.9823 20.072 13.0869 19.1765 13.0869 18.072V15ZM13.0869 24.9282C13.0869 23.8237 13.9823 22.9282 15.0869 22.9282H18.1589C19.2634 22.9282 20.1589 23.8237 20.1589 24.9282V28.0002C20.1589 29.1048 19.2634 30.0002 18.1589 30.0002H15.0869C13.9823 30.0002 13.0869 29.1048 13.0869 28.0002V24.9282ZM23.0149 15C23.0149 13.8954 23.9103 13 25.0149 13H28.0869C29.1914 13 30.0869 13.8954 30.0869 15V18.072C30.0869 19.1765 29.1914 20.072 28.0869 20.072H25.0149C23.9103 20.072 23.0149 19.1765 23.0149 18.072V15ZM23.0149 24.9282C23.0149 23.8237 23.9103 22.9282 25.0149 22.9282H28.0869C29.1914 22.9282 30.0869 23.8237 30.0869 24.9282V28.0002C30.0869 29.1048 29.1914 30.0002 28.0869 30.0002H25.0149C23.9103 30.0002 23.0149 29.1048 23.0149 28.0002V24.9282Z" stroke="#6F42C1" stroke-width="2"/>
</svg>
