<svg width="32" height="32" viewBox="0 0 32 32" fill="none" xmlns="http://www.w3.org/2000/svg">
<path d="M7.53333 26C7.13333 26 6.77778 25.8444 6.46667 25.5333C6.15556 25.2222 6 24.8667 6 24.4667C6 24.0444 6.15556 23.6833 6.46667 23.3833C6.77778 23.0833 7.13333 22.9333 7.53333 22.9333C7.95556 22.9333 8.31667 23.0833 8.61667 23.3833C8.91667 23.6833 9.06667 24.0444 9.06667 24.4667C9.06667 24.8667 8.91667 25.2222 8.61667 25.5333C8.31667 25.8444 7.95556 26 7.53333 26ZM16 26C15.6 26 15.2444 25.8444 14.9333 25.5333C14.6222 25.2222 14.4667 24.8667 14.4667 24.4667C14.4667 24.0444 14.6222 23.6833 14.9333 23.3833C15.2444 23.0833 15.6 22.9333 16 22.9333C16.4222 22.9333 16.7833 23.0833 17.0833 23.3833C17.3833 23.6833 17.5333 24.0444 17.5333 24.4667C17.5333 24.8667 17.3833 25.2222 17.0833 25.5333C16.7833 25.8444 16.4222 26 16 26ZM24.4667 26C24.0667 26 23.7111 25.8444 23.4 25.5333C23.0889 25.2222 22.9333 24.8667 22.9333 24.4667C22.9333 24.0444 23.0889 23.6833 23.4 23.3833C23.7111 23.0833 24.0667 22.9333 24.4667 22.9333C24.8889 22.9333 25.25 23.0833 25.55 23.3833C25.85 23.6833 26 24.0444 26 24.4667C26 24.8667 25.85 25.2222 25.55 25.5333C25.25 25.8444 24.8889 26 24.4667 26ZM7.53333 17.5333C7.13333 17.5333 6.77778 17.3778 6.46667 17.0667C6.15556 16.7556 6 16.4 6 16C6 15.5778 6.15556 15.2167 6.46667 14.9167C6.77778 14.6167 7.13333 14.4667 7.53333 14.4667C7.95556 14.4667 8.31667 14.6167 8.61667 14.9167C8.91667 15.2167 9.06667 15.5778 9.06667 16C9.06667 16.4 8.91667 16.7556 8.61667 17.0667C8.31667 17.3778 7.95556 17.5333 7.53333 17.5333ZM16 17.5333C15.6 17.5333 15.2444 17.3778 14.9333 17.0667C14.6222 16.7556 14.4667 16.4 14.4667 16C14.4667 15.5778 14.6222 15.2167 14.9333 14.9167C15.2444 14.6167 15.6 14.4667 16 14.4667C16.4222 14.4667 16.7833 14.6167 17.0833 14.9167C17.3833 15.2167 17.5333 15.5778 17.5333 16C17.5333 16.4 17.3833 16.7556 17.0833 17.0667C16.7833 17.3778 16.4222 17.5333 16 17.5333ZM24.4667 17.5333C24.0667 17.5333 23.7111 17.3778 23.4 17.0667C23.0889 16.7556 22.9333 16.4 22.9333 16C22.9333 15.5778 23.0889 15.2167 23.4 14.9167C23.7111 14.6167 24.0667 14.4667 24.4667 14.4667C24.8889 14.4667 25.25 14.6167 25.55 14.9167C25.85 15.2167 26 15.5778 26 16C26 16.4 25.85 16.7556 25.55 17.0667C25.25 17.3778 24.8889 17.5333 24.4667 17.5333ZM7.53333 9.06667C7.13333 9.06667 6.77778 8.91111 6.46667 8.6C6.15556 8.28889 6 7.93333 6 7.53333C6 7.11111 6.15556 6.75 6.46667 6.45C6.77778 6.15 7.13333 6 7.53333 6C7.95556 6 8.31667 6.15 8.61667 6.45C8.91667 6.75 9.06667 7.11111 9.06667 7.53333C9.06667 7.93333 8.91667 8.28889 8.61667 8.6C8.31667 8.91111 7.95556 9.06667 7.53333 9.06667ZM16 9.06667C15.6 9.06667 15.2444 8.91111 14.9333 8.6C14.6222 8.28889 14.4667 7.93333 14.4667 7.53333C14.4667 7.11111 14.6222 6.75 14.9333 6.45C15.2444 6.15 15.6 6 16 6C16.4222 6 16.7833 6.15 17.0833 6.45C17.3833 6.75 17.5333 7.11111 17.5333 7.53333C17.5333 7.93333 17.3833 8.28889 17.0833 8.6C16.7833 8.91111 16.4222 9.06667 16 9.06667ZM24.4667 9.06667C24.0667 9.06667 23.7111 8.91111 23.4 8.6C23.0889 8.28889 22.9333 7.93333 22.9333 7.53333C22.9333 7.11111 23.0889 6.75 23.4 6.45C23.7111 6.15 24.0667 6 24.4667 6C24.8889 6 25.25 6.15 25.55 6.45C25.85 6.75 26 7.11111 26 7.53333C26 7.93333 25.85 8.28889 25.55 8.6C25.25 8.91111 24.8889 9.06667 24.4667 9.06667Z" fill="#484848"/>
</svg>
