<svg width="48" height="49" viewBox="0 0 48 49" fill="none" xmlns="http://www.w3.org/2000/svg">
<rect y="0.5" width="48" height="48" rx="24" fill="#6F42C1" fill-opacity="0.2"/>
<path d="M24 32.75C21.3 32.75 18.675 31.4 17.1 29H21V27.5H15V33.5H16.5V30.725C18.375 32.975 21.075 34.25 24 34.25V32.75ZM35.25 29.75V28.25H33.675C33.6 27.8 33.375 27.35 33.15 26.9L34.275 25.775L33.225 24.725L32.1 25.85C31.725 25.625 31.275 25.4 30.75 25.325V23.75H29.25V25.325C28.8 25.4 28.35 25.625 27.9 25.85L26.775 24.725L25.725 25.775L26.85 26.9C26.625 27.275 26.4 27.725 26.325 28.25H24.75V29.75H26.325C26.4 30.2 26.625 30.65 26.85 31.1L25.725 32.225L26.775 33.275L27.9 32.15C28.275 32.375 28.725 32.6 29.25 32.675V34.25H30.75V32.675C31.2 32.6 31.65 32.375 32.1 32.15L33.225 33.275L34.275 32.225L33.15 31.1C33.375 30.725 33.6 30.275 33.675 29.75H35.25ZM30 31.25C28.725 31.25 27.75 30.275 27.75 29C27.75 27.725 28.725 26.75 30 26.75C31.275 26.75 32.25 27.725 32.25 29C32.25 30.275 31.275 31.25 30 31.25ZM27 20H30.9C28.425 16.175 23.325 15.125 19.5 17.6C17.175 19.1 15.75 21.725 15.75 24.5H14.25C14.25 19.1 18.6 14.75 24 14.75C26.925 14.75 29.625 16.025 31.5 18.275V15.5H33V21.5H27V20Z" fill="white"/>
</svg>
