<svg width="36" height="36" viewBox="0 0 36 36" fill="none" xmlns="http://www.w3.org/2000/svg">
<path d="M36 18C36 19.5975 35.79 21.15 35.4 22.6275C33.36 30.33 26.34 36 18 36C12.3825 36 7.3725 33.435 4.0725 29.4075C1.53 26.3025 0 22.3275 0 18C0 8.055 8.055 0 18 0C27.945 0 36 8.055 36 18Z" fill="#CED3F8"/>
<path d="M35.4 22.6275C33.36 30.33 26.34 36 18 36C12.3825 36 7.37251 33.435 4.07251 29.4075C9.33751 22.965 15.015 22.275 15.015 22.275C15.015 22.275 14.88 21.3 15.015 21.0375C15.1125 20.85 15.465 20.685 15.66 20.6025C15.735 20.5725 15.7875 20.55 15.7875 20.55C15.7875 20.55 16.0725 20.4975 16.5225 20.43C17.4225 20.2875 18.975 20.0625 20.1825 19.9725C20.55 19.9425 20.8875 19.9275 21.1575 19.9275C21.4575 19.935 21.6825 19.9575 21.8025 20.0175C21.9525 20.085 22.125 20.55 22.125 20.55C22.125 20.55 24.3525 20.205 27.4275 20.55C28.7325 20.7 31.95 21.3 35.4 22.6275Z" fill="#8758E7"/>
<path d="M14.9549 12.525C14.9549 12.525 11.8049 11.5125 11.7899 13.8825C11.7674 16.62 15.0149 16.3425 15.0149 16.3425L14.9549 12.525Z" fill="#FC907E"/>
<path d="M21.015 18.4725L21.3375 21.645C21.3375 21.645 20.175 22.4175 18.6375 22.59C16.5675 22.815 15.7575 21.6525 15.7575 21.6525L15.4275 17.925L21.015 18.4725Z" fill="#FC907E"/>
<path d="M21.015 18.465C21.015 18.465 20.265 21.1275 17.88 21C15.96 20.895 15.165 18.255 15.165 18.255L21.015 18.465Z" fill="black"/>
<path d="M13.7475 10.0125C13.7475 10.0125 12.96 15.9525 14.8725 18.375C16.92 20.97 19.7175 19.875 20.715 18.9525C22.065 17.7 22.215 16.125 22.215 16.125C22.215 16.125 24.2475 16.335 24.765 14.6475C25.305 12.87 23.9325 11.61 22.9275 11.6175C21.9225 11.6325 21.825 11.82 21.825 11.82L21.945 9.96752C21.945 9.96002 15.24 3.78002 13.7475 10.0125Z" fill="#FC907E"/>
<path d="M22.2825 11.7825C22.2825 11.7825 21.825 13.635 21.585 13.5825C21.345 13.53 21.4725 10.665 22.14 10.485C22.8 10.3125 22.2825 11.7825 22.2825 11.7825Z" fill="black"/>
<path d="M21.9749 11.5425C21.9749 11.5425 19.9499 11.46 18.5474 10.47C17.3624 9.63748 16.8674 8.39248 16.8674 8.39248C16.8674 8.39248 15.9974 8.31748 14.7899 9.13498C13.5824 9.95248 13.5899 12.3075 13.5899 12.3075C13.5899 12.3075 11.1299 8.42248 12.1574 6.96748C13.1849 5.51248 15.0224 6.59998 15.0224 6.59998C15.0224 6.59998 14.5949 4.00498 18.2474 4.85998C21.8999 5.70748 22.8599 8.78998 22.8599 8.78998C22.8599 8.78998 24.0899 8.62498 24.2924 9.76498C24.4949 10.8975 24.0824 12.0825 24.0824 12.0825C24.0824 12.0825 23.5274 11.595 22.7174 11.94C21.9074 12.285 21.9074 12.2775 21.9074 12.2775L21.9749 11.5425Z" fill="black"/>
<path d="M15.7949 20.5575C15.7949 20.5575 16.4999 21.225 18.1199 21.2625C19.7399 21.3 21.1649 19.9875 21.1649 19.9875L22.2074 21.9075L19.6199 23.49L15.2849 23.1225V21.18L15.7949 20.5575Z" fill="#8758E7"/>
<path d="M17.5876 23.6925C15.8326 23.6925 14.8726 22.41 14.8651 22.395C14.8051 22.3125 14.8201 22.185 14.9101 22.125C15.0001 22.065 15.1201 22.08 15.1801 22.17C15.2326 22.2375 16.4251 23.8275 18.6526 23.145C18.7576 23.115 18.8626 23.175 18.8926 23.2725C18.9226 23.3775 18.8626 23.4825 18.7651 23.5125C18.3376 23.6325 17.9476 23.6925 17.5876 23.6925Z" fill="white"/>
</svg>
