<svg width="459" height="383" viewBox="0 0 459 383" fill="none" xmlns="http://www.w3.org/2000/svg">
<g opacity="0.4">
<path d="M153.6 176.271V264.728L76.2261 307.318V132.042L153.6 176.271Z" fill="url(#paint0_linear_3059_8573)"/>
<g filter="url(#filter0_b_3059_8573)">
<path d="M0.000396729 176.775L76.9907 220.956L153.981 176.775L76.9907 132.594L0.000396729 176.775Z" fill="white" fill-opacity="0.2"/>
<path d="M76.9907 133.039L0.775848 176.775L76.9907 220.511L153.206 176.775L76.9907 133.039Z" stroke="url(#paint1_linear_3059_8573)" stroke-width="0.771919"/>
<path d="M76.9907 133.039L0.775848 176.775L76.9907 220.511L153.206 176.775L76.9907 133.039Z" stroke="url(#paint2_linear_3059_8573)" stroke-opacity="0.2" stroke-width="0.771919"/>
</g>
<g filter="url(#filter1_b_3059_8573)">
<path d="M76.9921 220.957V309.32L153.982 265.138V176.775L76.9921 220.957Z" fill="white" fill-opacity="0.2"/>
<path d="M153.596 177.442L77.3781 221.18V308.653L153.596 264.915V177.442Z" stroke="url(#paint3_linear_3059_8573)" stroke-width="0.771919"/>
<path d="M153.596 177.442L77.3781 221.18V308.653L153.596 264.915V177.442Z" stroke="url(#paint4_linear_3059_8573)" stroke-opacity="0.2" stroke-width="0.771919"/>
</g>
<g filter="url(#filter2_b_3059_8573)">
<path d="M0.00288391 176.775V265.138L76.9932 309.32V220.957L0.00288391 176.775Z" fill="white" fill-opacity="0.2"/>
<path d="M76.6072 221.18L0.38884 177.442V264.915L76.6072 308.653V221.18Z" stroke="url(#paint5_linear_3059_8573)" stroke-width="0.771919"/>
<path d="M76.6072 221.18L0.38884 177.442V264.915L76.6072 308.653V221.18Z" stroke="url(#paint6_linear_3059_8573)" stroke-opacity="0.2" stroke-width="0.771919"/>
</g>
<path d="M457.73 167.895V254.586L380.355 295.196V123.667L457.73 167.895Z" fill="url(#paint7_linear_3059_8573)"/>
<g filter="url(#filter3_b_3059_8573)">
<path d="M304.272 166.895L381.263 211.076L458.253 166.895L381.263 122.714L304.272 166.895Z" fill="white" fill-opacity="0.2"/>
<path d="M381.263 123.159L305.048 166.895L381.263 210.631L457.477 166.895L381.263 123.159Z" stroke="url(#paint8_linear_3059_8573)" stroke-width="0.771919"/>
<path d="M381.263 123.159L305.048 166.895L381.263 210.631L457.477 166.895L381.263 123.159Z" stroke="url(#paint9_linear_3059_8573)" stroke-opacity="0.2" stroke-width="0.771919"/>
</g>
<g filter="url(#filter4_b_3059_8573)">
<path d="M381.264 211.076V299.439L458.254 255.258V166.895L381.264 211.076Z" fill="white" fill-opacity="0.2"/>
<path d="M457.868 167.562L381.65 211.3V298.773L457.868 255.034V167.562Z" stroke="url(#paint10_linear_3059_8573)" stroke-width="0.771919"/>
<path d="M457.868 167.562L381.65 211.3V298.773L457.868 255.034V167.562Z" stroke="url(#paint11_linear_3059_8573)" stroke-opacity="0.2" stroke-width="0.771919"/>
</g>
<g filter="url(#filter5_b_3059_8573)">
<path d="M304.274 166.895V255.258L381.264 299.439V211.076L304.274 166.895Z" fill="white" fill-opacity="0.2"/>
<path d="M380.878 211.3L304.66 167.561V255.034L380.878 298.773V211.3Z" stroke="url(#paint12_linear_3059_8573)" stroke-width="0.771919"/>
<path d="M380.878 211.3L304.66 167.561V255.034L380.878 298.773V211.3Z" stroke="url(#paint13_linear_3059_8573)" stroke-opacity="0.2" stroke-width="0.771919"/>
</g>
<path d="M303.442 45.1818V131.873L226.068 172.482V0.953613L303.442 45.1818Z" fill="url(#paint14_linear_3059_8573)"/>
<g filter="url(#filter6_b_3059_8573)">
<path d="M149.983 44.1814L226.973 88.3628L303.963 44.1814L226.973 0L149.983 44.1814Z" fill="white" fill-opacity="0.2"/>
<path d="M226.973 0.444994L150.758 44.1814L226.973 87.9178L303.188 44.1814L226.973 0.444994Z" stroke="url(#paint15_linear_3059_8573)" stroke-width="0.771919"/>
<path d="M226.973 0.444994L150.758 44.1814L226.973 87.9178L303.188 44.1814L226.973 0.444994Z" stroke="url(#paint16_linear_3059_8573)" stroke-opacity="0.2" stroke-width="0.771919"/>
</g>
<g filter="url(#filter7_b_3059_8573)">
<path d="M226.976 88.363V176.726L303.966 132.544V44.1816L226.976 88.363Z" fill="white" fill-opacity="0.2"/>
<path d="M303.58 44.8481L227.361 88.5865V176.059L303.58 132.321V44.8481Z" stroke="url(#paint17_linear_3059_8573)" stroke-width="0.771919"/>
<path d="M303.58 44.8481L227.361 88.5865V176.059L303.58 132.321V44.8481Z" stroke="url(#paint18_linear_3059_8573)" stroke-opacity="0.2" stroke-width="0.771919"/>
</g>
<g filter="url(#filter8_b_3059_8573)">
<path d="M149.986 44.1816V132.544L226.977 176.726V88.363L149.986 44.1816Z" fill="white" fill-opacity="0.2"/>
<path d="M226.591 88.5865L150.372 44.8481V132.321L226.591 176.059V88.5865Z" stroke="url(#paint19_linear_3059_8573)" stroke-width="0.771919"/>
<path d="M226.591 88.5865L150.372 44.8481V132.321L226.591 176.059V88.5865Z" stroke="url(#paint20_linear_3059_8573)" stroke-opacity="0.2" stroke-width="0.771919"/>
</g>
<path d="M303.441 288.456V375.147L226.066 415.756V244.228L303.441 288.456Z" fill="url(#paint21_linear_3059_8573)"/>
<g filter="url(#filter9_b_3059_8573)">
<path d="M149.984 287.456L226.974 331.637L303.964 287.456L226.974 243.274L149.984 287.456Z" fill="white" fill-opacity="0.2"/>
<path d="M226.974 243.719L150.759 287.456L226.974 331.192L303.189 287.456L226.974 243.719Z" stroke="url(#paint22_linear_3059_8573)" stroke-width="0.771919"/>
<path d="M226.974 243.719L150.759 287.456L226.974 331.192L303.189 287.456L226.974 243.719Z" stroke="url(#paint23_linear_3059_8573)" stroke-opacity="0.2" stroke-width="0.771919"/>
</g>
<g filter="url(#filter10_b_3059_8573)">
<path d="M226.976 331.637V420L303.966 375.819V287.456L226.976 331.637Z" fill="white" fill-opacity="0.2"/>
<path d="M303.58 288.122L227.361 331.861V419.333L303.58 375.595V288.122Z" stroke="url(#paint24_linear_3059_8573)" stroke-width="0.771919"/>
<path d="M303.58 288.122L227.361 331.861V419.333L303.58 375.595V288.122Z" stroke="url(#paint25_linear_3059_8573)" stroke-opacity="0.2" stroke-width="0.771919"/>
</g>
<g filter="url(#filter11_b_3059_8573)">
<path d="M149.985 287.456V375.819L226.976 420V331.637L149.985 287.456Z" fill="white" fill-opacity="0.2"/>
<path d="M226.59 331.861L150.371 288.122V375.595L226.59 419.333V331.861Z" stroke="url(#paint26_linear_3059_8573)" stroke-width="0.771919"/>
<path d="M226.59 331.861L150.371 288.122V375.595L226.59 419.333V331.861Z" stroke="url(#paint27_linear_3059_8573)" stroke-opacity="0.2" stroke-width="0.771919"/>
</g>
</g>
<defs>
<filter id="filter0_b_3059_8573" x="-21.6133" y="110.98" width="197.208" height="131.59" filterUnits="userSpaceOnUse" color-interpolation-filters="sRGB">
<feFlood flood-opacity="0" result="BackgroundImageFix"/>
<feGaussianBlur in="BackgroundImageFix" stdDeviation="10.8069"/>
<feComposite in2="SourceAlpha" operator="in" result="effect1_backgroundBlur_3059_8573"/>
<feBlend mode="normal" in="SourceGraphic" in2="effect1_backgroundBlur_3059_8573" result="shape"/>
</filter>
<filter id="filter1_b_3059_8573" x="55.3784" y="155.162" width="120.218" height="175.772" filterUnits="userSpaceOnUse" color-interpolation-filters="sRGB">
<feFlood flood-opacity="0" result="BackgroundImageFix"/>
<feGaussianBlur in="BackgroundImageFix" stdDeviation="10.8069"/>
<feComposite in2="SourceAlpha" operator="in" result="effect1_backgroundBlur_3059_8573"/>
<feBlend mode="normal" in="SourceGraphic" in2="effect1_backgroundBlur_3059_8573" result="shape"/>
</filter>
<filter id="filter2_b_3059_8573" x="-21.6108" y="155.162" width="120.218" height="175.772" filterUnits="userSpaceOnUse" color-interpolation-filters="sRGB">
<feFlood flood-opacity="0" result="BackgroundImageFix"/>
<feGaussianBlur in="BackgroundImageFix" stdDeviation="10.8069"/>
<feComposite in2="SourceAlpha" operator="in" result="effect1_backgroundBlur_3059_8573"/>
<feBlend mode="normal" in="SourceGraphic" in2="effect1_backgroundBlur_3059_8573" result="shape"/>
</filter>
<filter id="filter3_b_3059_8573" x="282.659" y="101.1" width="197.208" height="131.59" filterUnits="userSpaceOnUse" color-interpolation-filters="sRGB">
<feFlood flood-opacity="0" result="BackgroundImageFix"/>
<feGaussianBlur in="BackgroundImageFix" stdDeviation="10.8069"/>
<feComposite in2="SourceAlpha" operator="in" result="effect1_backgroundBlur_3059_8573"/>
<feBlend mode="normal" in="SourceGraphic" in2="effect1_backgroundBlur_3059_8573" result="shape"/>
</filter>
<filter id="filter4_b_3059_8573" x="359.65" y="145.281" width="120.218" height="175.772" filterUnits="userSpaceOnUse" color-interpolation-filters="sRGB">
<feFlood flood-opacity="0" result="BackgroundImageFix"/>
<feGaussianBlur in="BackgroundImageFix" stdDeviation="10.8069"/>
<feComposite in2="SourceAlpha" operator="in" result="effect1_backgroundBlur_3059_8573"/>
<feBlend mode="normal" in="SourceGraphic" in2="effect1_backgroundBlur_3059_8573" result="shape"/>
</filter>
<filter id="filter5_b_3059_8573" x="282.66" y="145.281" width="120.218" height="175.772" filterUnits="userSpaceOnUse" color-interpolation-filters="sRGB">
<feFlood flood-opacity="0" result="BackgroundImageFix"/>
<feGaussianBlur in="BackgroundImageFix" stdDeviation="10.8069"/>
<feComposite in2="SourceAlpha" operator="in" result="effect1_backgroundBlur_3059_8573"/>
<feBlend mode="normal" in="SourceGraphic" in2="effect1_backgroundBlur_3059_8573" result="shape"/>
</filter>
<filter id="filter6_b_3059_8573" x="128.369" y="-21.6137" width="197.208" height="131.59" filterUnits="userSpaceOnUse" color-interpolation-filters="sRGB">
<feFlood flood-opacity="0" result="BackgroundImageFix"/>
<feGaussianBlur in="BackgroundImageFix" stdDeviation="10.8069"/>
<feComposite in2="SourceAlpha" operator="in" result="effect1_backgroundBlur_3059_8573"/>
<feBlend mode="normal" in="SourceGraphic" in2="effect1_backgroundBlur_3059_8573" result="shape"/>
</filter>
<filter id="filter7_b_3059_8573" x="205.362" y="22.5679" width="120.218" height="175.772" filterUnits="userSpaceOnUse" color-interpolation-filters="sRGB">
<feFlood flood-opacity="0" result="BackgroundImageFix"/>
<feGaussianBlur in="BackgroundImageFix" stdDeviation="10.8069"/>
<feComposite in2="SourceAlpha" operator="in" result="effect1_backgroundBlur_3059_8573"/>
<feBlend mode="normal" in="SourceGraphic" in2="effect1_backgroundBlur_3059_8573" result="shape"/>
</filter>
<filter id="filter8_b_3059_8573" x="128.373" y="22.5679" width="120.218" height="175.772" filterUnits="userSpaceOnUse" color-interpolation-filters="sRGB">
<feFlood flood-opacity="0" result="BackgroundImageFix"/>
<feGaussianBlur in="BackgroundImageFix" stdDeviation="10.8069"/>
<feComposite in2="SourceAlpha" operator="in" result="effect1_backgroundBlur_3059_8573"/>
<feBlend mode="normal" in="SourceGraphic" in2="effect1_backgroundBlur_3059_8573" result="shape"/>
</filter>
<filter id="filter9_b_3059_8573" x="128.37" y="221.66" width="197.208" height="131.59" filterUnits="userSpaceOnUse" color-interpolation-filters="sRGB">
<feFlood flood-opacity="0" result="BackgroundImageFix"/>
<feGaussianBlur in="BackgroundImageFix" stdDeviation="10.8069"/>
<feComposite in2="SourceAlpha" operator="in" result="effect1_backgroundBlur_3059_8573"/>
<feBlend mode="normal" in="SourceGraphic" in2="effect1_backgroundBlur_3059_8573" result="shape"/>
</filter>
<filter id="filter10_b_3059_8573" x="205.362" y="265.842" width="120.218" height="175.772" filterUnits="userSpaceOnUse" color-interpolation-filters="sRGB">
<feFlood flood-opacity="0" result="BackgroundImageFix"/>
<feGaussianBlur in="BackgroundImageFix" stdDeviation="10.8069"/>
<feComposite in2="SourceAlpha" operator="in" result="effect1_backgroundBlur_3059_8573"/>
<feBlend mode="normal" in="SourceGraphic" in2="effect1_backgroundBlur_3059_8573" result="shape"/>
</filter>
<filter id="filter11_b_3059_8573" x="128.372" y="265.842" width="120.218" height="175.772" filterUnits="userSpaceOnUse" color-interpolation-filters="sRGB">
<feFlood flood-opacity="0" result="BackgroundImageFix"/>
<feGaussianBlur in="BackgroundImageFix" stdDeviation="10.8069"/>
<feComposite in2="SourceAlpha" operator="in" result="effect1_backgroundBlur_3059_8573"/>
<feBlend mode="normal" in="SourceGraphic" in2="effect1_backgroundBlur_3059_8573" result="shape"/>
</filter>
<linearGradient id="paint0_linear_3059_8573" x1="153.6" y1="173.129" x2="-84.8578" y2="413.275" gradientUnits="userSpaceOnUse">
<stop stop-color="white"/>
<stop offset="0.395053" stop-opacity="0"/>
</linearGradient>
<linearGradient id="paint1_linear_3059_8573" x1="381.744" y1="22.4418" x2="239.78" y2="303.254" gradientUnits="userSpaceOnUse">
<stop stop-color="white"/>
<stop offset="1" stop-color="white" stop-opacity="0"/>
</linearGradient>
<linearGradient id="paint2_linear_3059_8573" x1="263.418" y1="114.486" x2="170.826" y2="275.064" gradientUnits="userSpaceOnUse">
<stop stop-color="white"/>
<stop offset="1" stop-color="white" stop-opacity="0"/>
</linearGradient>
<linearGradient id="paint3_linear_3059_8573" x1="267.864" y1="11.5479" x2="24.8151" y2="171.802" gradientUnits="userSpaceOnUse">
<stop stop-color="white"/>
<stop offset="1" stop-color="white" stop-opacity="0"/>
</linearGradient>
<linearGradient id="paint4_linear_3059_8573" x1="208.701" y1="149.615" x2="69.637" y2="230.005" gradientUnits="userSpaceOnUse">
<stop stop-color="white"/>
<stop offset="1" stop-color="white" stop-opacity="0"/>
</linearGradient>
<linearGradient id="paint5_linear_3059_8573" x1="190.874" y1="11.5479" x2="-52.1742" y2="171.802" gradientUnits="userSpaceOnUse">
<stop stop-color="white"/>
<stop offset="1" stop-color="white" stop-opacity="0"/>
</linearGradient>
<linearGradient id="paint6_linear_3059_8573" x1="131.712" y1="149.615" x2="-7.35221" y2="230.005" gradientUnits="userSpaceOnUse">
<stop stop-color="white"/>
<stop offset="1" stop-color="white" stop-opacity="0"/>
</linearGradient>
<linearGradient id="paint7_linear_3059_8573" x1="460.043" y1="164.754" x2="221.585" y2="404.9" gradientUnits="userSpaceOnUse">
<stop stop-color="white"/>
<stop offset="0.395053" stop-opacity="0"/>
</linearGradient>
<linearGradient id="paint8_linear_3059_8573" x1="686.016" y1="12.562" x2="544.052" y2="293.374" gradientUnits="userSpaceOnUse">
<stop stop-color="white"/>
<stop offset="1" stop-color="white" stop-opacity="0"/>
</linearGradient>
<linearGradient id="paint9_linear_3059_8573" x1="567.69" y1="104.607" x2="475.098" y2="265.184" gradientUnits="userSpaceOnUse">
<stop stop-color="white"/>
<stop offset="1" stop-color="white" stop-opacity="0"/>
</linearGradient>
<linearGradient id="paint10_linear_3059_8573" x1="572.135" y1="1.66752" x2="329.087" y2="161.922" gradientUnits="userSpaceOnUse">
<stop stop-color="white"/>
<stop offset="1" stop-color="white" stop-opacity="0"/>
</linearGradient>
<linearGradient id="paint11_linear_3059_8573" x1="512.973" y1="139.734" x2="373.909" y2="220.125" gradientUnits="userSpaceOnUse">
<stop stop-color="white"/>
<stop offset="1" stop-color="white" stop-opacity="0"/>
</linearGradient>
<linearGradient id="paint12_linear_3059_8573" x1="495.145" y1="1.66752" x2="252.097" y2="161.922" gradientUnits="userSpaceOnUse">
<stop stop-color="white"/>
<stop offset="1" stop-color="white" stop-opacity="0"/>
</linearGradient>
<linearGradient id="paint13_linear_3059_8573" x1="435.983" y1="139.734" x2="296.919" y2="220.125" gradientUnits="userSpaceOnUse">
<stop stop-color="white"/>
<stop offset="1" stop-color="white" stop-opacity="0"/>
</linearGradient>
<linearGradient id="paint14_linear_3059_8573" x1="305.755" y1="42.0406" x2="67.2973" y2="282.186" gradientUnits="userSpaceOnUse">
<stop stop-color="white"/>
<stop offset="0.395053" stop-opacity="0"/>
</linearGradient>
<linearGradient id="paint15_linear_3059_8573" x1="531.726" y1="-110.152" x2="389.762" y2="170.66" gradientUnits="userSpaceOnUse">
<stop stop-color="white"/>
<stop offset="1" stop-color="white" stop-opacity="0"/>
</linearGradient>
<linearGradient id="paint16_linear_3059_8573" x1="413.401" y1="-18.1071" x2="320.809" y2="142.47" gradientUnits="userSpaceOnUse">
<stop stop-color="white"/>
<stop offset="1" stop-color="white" stop-opacity="0"/>
</linearGradient>
<linearGradient id="paint17_linear_3059_8573" x1="417.847" y1="-121.046" x2="174.799" y2="39.2083" gradientUnits="userSpaceOnUse">
<stop stop-color="white"/>
<stop offset="1" stop-color="white" stop-opacity="0"/>
</linearGradient>
<linearGradient id="paint18_linear_3059_8573" x1="358.684" y1="17.021" x2="219.62" y2="97.4112" gradientUnits="userSpaceOnUse">
<stop stop-color="white"/>
<stop offset="1" stop-color="white" stop-opacity="0"/>
</linearGradient>
<linearGradient id="paint19_linear_3059_8573" x1="340.858" y1="-121.046" x2="97.8092" y2="39.2083" gradientUnits="userSpaceOnUse">
<stop stop-color="white"/>
<stop offset="1" stop-color="white" stop-opacity="0"/>
</linearGradient>
<linearGradient id="paint20_linear_3059_8573" x1="281.695" y1="17.021" x2="142.631" y2="97.4112" gradientUnits="userSpaceOnUse">
<stop stop-color="white"/>
<stop offset="1" stop-color="white" stop-opacity="0"/>
</linearGradient>
<linearGradient id="paint21_linear_3059_8573" x1="305.754" y1="285.315" x2="67.2959" y2="525.46" gradientUnits="userSpaceOnUse">
<stop stop-color="white"/>
<stop offset="0.395053" stop-opacity="0"/>
</linearGradient>
<linearGradient id="paint22_linear_3059_8573" x1="531.727" y1="133.123" x2="389.763" y2="413.935" gradientUnits="userSpaceOnUse">
<stop stop-color="white"/>
<stop offset="1" stop-color="white" stop-opacity="0"/>
</linearGradient>
<linearGradient id="paint23_linear_3059_8573" x1="413.402" y1="225.167" x2="320.809" y2="385.744" gradientUnits="userSpaceOnUse">
<stop stop-color="white"/>
<stop offset="1" stop-color="white" stop-opacity="0"/>
</linearGradient>
<linearGradient id="paint24_linear_3059_8573" x1="417.847" y1="122.228" x2="174.799" y2="282.483" gradientUnits="userSpaceOnUse">
<stop stop-color="white"/>
<stop offset="1" stop-color="white" stop-opacity="0"/>
</linearGradient>
<linearGradient id="paint25_linear_3059_8573" x1="358.684" y1="260.295" x2="219.62" y2="340.685" gradientUnits="userSpaceOnUse">
<stop stop-color="white"/>
<stop offset="1" stop-color="white" stop-opacity="0"/>
</linearGradient>
<linearGradient id="paint26_linear_3059_8573" x1="340.857" y1="122.228" x2="97.8083" y2="282.483" gradientUnits="userSpaceOnUse">
<stop stop-color="white"/>
<stop offset="1" stop-color="white" stop-opacity="0"/>
</linearGradient>
<linearGradient id="paint27_linear_3059_8573" x1="281.694" y1="260.295" x2="142.63" y2="340.685" gradientUnits="userSpaceOnUse">
<stop stop-color="white"/>
<stop offset="1" stop-color="white" stop-opacity="0"/>
</linearGradient>
</defs>
</svg>
