<svg fill-opacity="0.3" width="451" height="327" viewBox="0 0 451 327" fill="none" xmlns="http://www.w3.org/2000/svg">
<g opacity="0.4">
<path d="M151.169 176.657V265.307L75.0195 307.991V132.332L151.169 176.657Z" fill="url(#paint0_linear_297_703)"/>
<g filter="url(#filter0_b_297_703)">
<path d="M3.05176e-05 177.162L75.7716 221.44L151.543 177.162L75.7716 132.884L3.05176e-05 177.162Z" fill="#121212" fill-opacity="0.2"/>
<path d="M75.7716 133.331L0.765015 177.162L75.7716 220.993L150.778 177.162L75.7716 133.331Z" stroke="url(#paint1_linear_297_703)" stroke-width="0.771919"/>
<path d="M75.7716 133.331L0.765015 177.162L75.7716 220.993L150.778 177.162L75.7716 133.331Z" stroke="url(#paint2_linear_297_703)" stroke-opacity="0.2" stroke-width="0.771919"/>
</g>
<g filter="url(#filter1_b_297_703)">
<path d="M75.7733 221.441V309.997L151.545 265.719V177.163L75.7733 221.441Z" fill="#121212" fill-opacity="0.2"/>
<path d="M151.159 177.835L76.1593 221.662V309.324L151.159 265.497V177.835Z" stroke="url(#paint3_linear_297_703)" stroke-width="0.771919"/>
<path d="M151.159 177.835L76.1593 221.662V309.324L151.159 265.497V177.835Z" stroke="url(#paint4_linear_297_703)" stroke-opacity="0.2" stroke-width="0.771919"/>
</g>
<g filter="url(#filter2_b_297_703)">
<path d="M0.00270081 177.163V265.719L75.7743 309.997V221.441L0.00270081 177.163Z" fill="#121212" fill-opacity="0.2"/>
<path d="M75.3883 221.662L0.388657 177.835V265.497L75.3883 309.324V221.662Z" stroke="url(#paint5_linear_297_703)" stroke-width="0.771919"/>
<path d="M75.3883 221.662L0.388657 177.835V265.497L75.3883 309.324V221.662Z" stroke="url(#paint6_linear_297_703)" stroke-opacity="0.2" stroke-width="0.771919"/>
</g>
<path d="M450.484 168.262V255.143L374.335 295.841V123.937L450.484 168.262Z" fill="url(#paint7_linear_297_703)"/>
<g filter="url(#filter3_b_297_703)">
<path d="M299.455 167.26L375.227 211.538L450.998 167.26L375.227 122.982L299.455 167.26Z" fill="#121212" fill-opacity="0.2"/>
<path d="M375.227 123.429L300.22 167.26L375.227 211.091L450.233 167.26L375.227 123.429Z" stroke="url(#paint8_linear_297_703)" stroke-width="0.771919"/>
<path d="M375.227 123.429L300.22 167.26L375.227 211.091L450.233 167.26L375.227 123.429Z" stroke="url(#paint9_linear_297_703)" stroke-opacity="0.2" stroke-width="0.771919"/>
</g>
<g filter="url(#filter4_b_297_703)">
<path d="M375.228 211.538V300.095L451 255.816V167.26L375.228 211.538Z" fill="#121212" fill-opacity="0.2"/>
<path d="M450.614 167.933L375.614 211.76V299.422L450.614 255.595V167.933Z" stroke="url(#paint10_linear_297_703)" stroke-width="0.771919"/>
<path d="M450.614 167.933L375.614 211.76V299.422L450.614 255.595V167.933Z" stroke="url(#paint11_linear_297_703)" stroke-opacity="0.2" stroke-width="0.771919"/>
</g>
<g filter="url(#filter5_b_297_703)">
<path d="M299.458 167.26V255.816L375.229 300.095V211.538L299.458 167.26Z" fill="#121212" fill-opacity="0.2"/>
<path d="M374.843 211.76L299.844 167.933V255.595L374.843 299.422V211.76Z" stroke="url(#paint12_linear_297_703)" stroke-width="0.771919"/>
<path d="M374.843 211.76L299.844 167.933V255.595L374.843 299.422V211.76Z" stroke="url(#paint13_linear_297_703)" stroke-opacity="0.2" stroke-width="0.771919"/>
</g>
<path d="M298.637 45.2806V132.161L222.488 172.86V0.955566L298.637 45.2806Z" fill="url(#paint14_linear_297_703)"/>
<g filter="url(#filter6_b_297_703)">
<path d="M147.609 44.2781L223.38 88.5562L299.152 44.2781L223.38 0L147.609 44.2781Z" fill="#121212" fill-opacity="0.2"/>
<path d="M223.38 0.447029L148.374 44.2781L223.38 88.1092L298.387 44.2781L223.38 0.447029Z" stroke="url(#paint15_linear_297_703)" stroke-width="0.771919"/>
<path d="M223.38 0.447029L148.374 44.2781L223.38 88.1092L298.387 44.2781L223.38 0.447029Z" stroke="url(#paint16_linear_297_703)" stroke-opacity="0.2" stroke-width="0.771919"/>
</g>
<g filter="url(#filter7_b_297_703)">
<path d="M223.382 88.5564V177.113L299.154 132.835V44.2783L223.382 88.5564Z" fill="#121212" fill-opacity="0.2"/>
<path d="M298.768 44.9509L223.768 88.7779V176.44L298.768 132.613V44.9509Z" stroke="url(#paint17_linear_297_703)" stroke-width="0.771919"/>
<path d="M298.768 44.9509L223.768 88.7779V176.44L298.768 132.613V44.9509Z" stroke="url(#paint18_linear_297_703)" stroke-opacity="0.2" stroke-width="0.771919"/>
</g>
<g filter="url(#filter8_b_297_703)">
<path d="M147.611 44.2783V132.835L223.383 177.113V88.5564L147.611 44.2783Z" fill="#121212" fill-opacity="0.2"/>
<path d="M222.997 88.7779L147.997 44.9509V132.613L222.997 176.44V88.7779Z" stroke="url(#paint19_linear_297_703)" stroke-width="0.771919"/>
<path d="M222.997 88.7779L147.997 44.9509V132.613L222.997 176.44V88.7779Z" stroke="url(#paint20_linear_297_703)" stroke-opacity="0.2" stroke-width="0.771919"/>
</g>
<path d="M298.637 289.087V375.968L222.488 416.666V244.762L298.637 289.087Z" fill="url(#paint21_linear_297_703)"/>
<g filter="url(#filter9_b_297_703)">
<path d="M147.609 288.085L223.38 332.363L299.152 288.085L223.38 243.807L147.609 288.085Z" fill="#121212" fill-opacity="0.2"/>
<path d="M223.38 244.254L148.374 288.085L223.38 331.916L298.387 288.085L223.38 244.254Z" stroke="url(#paint22_linear_297_703)" stroke-width="0.771919"/>
<path d="M223.38 244.254L148.374 288.085L223.38 331.916L298.387 288.085L223.38 244.254Z" stroke="url(#paint23_linear_297_703)" stroke-opacity="0.2" stroke-width="0.771919"/>
</g>
<g filter="url(#filter10_b_297_703)">
<path d="M223.382 332.363V420.919L299.153 376.641V288.085L223.382 332.363Z" fill="#121212" fill-opacity="0.2"/>
<path d="M298.767 288.758L223.768 332.585V420.247L298.767 376.42V288.758Z" stroke="url(#paint24_linear_297_703)" stroke-width="0.771919"/>
<path d="M298.767 288.758L223.768 332.585V420.247L298.767 376.42V288.758Z" stroke="url(#paint25_linear_297_703)" stroke-opacity="0.2" stroke-width="0.771919"/>
</g>
<g filter="url(#filter11_b_297_703)">
<path d="M147.611 288.085V376.641L223.383 420.919V332.363L147.611 288.085Z" fill="#121212" fill-opacity="0.2"/>
<path d="M222.997 332.585L147.997 288.758V376.42L222.997 420.247V332.585Z" stroke="url(#paint26_linear_297_703)" stroke-width="0.771919"/>
<path d="M222.997 332.585L147.997 288.758V376.42L222.997 420.247V332.585Z" stroke="url(#paint27_linear_297_703)" stroke-opacity="0.2" stroke-width="0.771919"/>
</g>
</g>
<defs>
<filter id="filter0_b_297_703" x="-21.6137" y="111.27" width="194.771" height="131.784" filterUnits="userSpaceOnUse" color-interpolation-filters="sRGB">
<feFlood flood-opacity="0" result="BackgroundImageFix"/>
<feGaussianBlur in="BackgroundImageFix" stdDeviation="10.8069"/>
<feComposite in2="SourceAlpha" operator="in" result="effect1_backgroundBlur_297_703"/>
<feBlend mode="normal" in="SourceGraphic" in2="effect1_backgroundBlur_297_703" result="shape"/>
</filter>
<filter id="filter1_b_297_703" x="54.1596" y="155.549" width="118.999" height="176.062" filterUnits="userSpaceOnUse" color-interpolation-filters="sRGB">
<feFlood flood-opacity="0" result="BackgroundImageFix"/>
<feGaussianBlur in="BackgroundImageFix" stdDeviation="10.8069"/>
<feComposite in2="SourceAlpha" operator="in" result="effect1_backgroundBlur_297_703"/>
<feBlend mode="normal" in="SourceGraphic" in2="effect1_backgroundBlur_297_703" result="shape"/>
</filter>
<filter id="filter2_b_297_703" x="-21.6111" y="155.549" width="118.999" height="176.062" filterUnits="userSpaceOnUse" color-interpolation-filters="sRGB">
<feFlood flood-opacity="0" result="BackgroundImageFix"/>
<feGaussianBlur in="BackgroundImageFix" stdDeviation="10.8069"/>
<feComposite in2="SourceAlpha" operator="in" result="effect1_backgroundBlur_297_703"/>
<feBlend mode="normal" in="SourceGraphic" in2="effect1_backgroundBlur_297_703" result="shape"/>
</filter>
<filter id="filter3_b_297_703" x="277.841" y="101.368" width="194.771" height="131.784" filterUnits="userSpaceOnUse" color-interpolation-filters="sRGB">
<feFlood flood-opacity="0" result="BackgroundImageFix"/>
<feGaussianBlur in="BackgroundImageFix" stdDeviation="10.8069"/>
<feComposite in2="SourceAlpha" operator="in" result="effect1_backgroundBlur_297_703"/>
<feBlend mode="normal" in="SourceGraphic" in2="effect1_backgroundBlur_297_703" result="shape"/>
</filter>
<filter id="filter4_b_297_703" x="353.615" y="145.647" width="118.999" height="176.062" filterUnits="userSpaceOnUse" color-interpolation-filters="sRGB">
<feFlood flood-opacity="0" result="BackgroundImageFix"/>
<feGaussianBlur in="BackgroundImageFix" stdDeviation="10.8069"/>
<feComposite in2="SourceAlpha" operator="in" result="effect1_backgroundBlur_297_703"/>
<feBlend mode="normal" in="SourceGraphic" in2="effect1_backgroundBlur_297_703" result="shape"/>
</filter>
<filter id="filter5_b_297_703" x="277.844" y="145.647" width="118.999" height="176.062" filterUnits="userSpaceOnUse" color-interpolation-filters="sRGB">
<feFlood flood-opacity="0" result="BackgroundImageFix"/>
<feGaussianBlur in="BackgroundImageFix" stdDeviation="10.8069"/>
<feComposite in2="SourceAlpha" operator="in" result="effect1_backgroundBlur_297_703"/>
<feBlend mode="normal" in="SourceGraphic" in2="effect1_backgroundBlur_297_703" result="shape"/>
</filter>
<filter id="filter6_b_297_703" x="125.995" y="-21.6137" width="194.771" height="131.784" filterUnits="userSpaceOnUse" color-interpolation-filters="sRGB">
<feFlood flood-opacity="0" result="BackgroundImageFix"/>
<feGaussianBlur in="BackgroundImageFix" stdDeviation="10.8069"/>
<feComposite in2="SourceAlpha" operator="in" result="effect1_backgroundBlur_297_703"/>
<feBlend mode="normal" in="SourceGraphic" in2="effect1_backgroundBlur_297_703" result="shape"/>
</filter>
<filter id="filter7_b_297_703" x="201.768" y="22.6646" width="118.999" height="176.062" filterUnits="userSpaceOnUse" color-interpolation-filters="sRGB">
<feFlood flood-opacity="0" result="BackgroundImageFix"/>
<feGaussianBlur in="BackgroundImageFix" stdDeviation="10.8069"/>
<feComposite in2="SourceAlpha" operator="in" result="effect1_backgroundBlur_297_703"/>
<feBlend mode="normal" in="SourceGraphic" in2="effect1_backgroundBlur_297_703" result="shape"/>
</filter>
<filter id="filter8_b_297_703" x="125.997" y="22.6646" width="118.999" height="176.062" filterUnits="userSpaceOnUse" color-interpolation-filters="sRGB">
<feFlood flood-opacity="0" result="BackgroundImageFix"/>
<feGaussianBlur in="BackgroundImageFix" stdDeviation="10.8069"/>
<feComposite in2="SourceAlpha" operator="in" result="effect1_backgroundBlur_297_703"/>
<feBlend mode="normal" in="SourceGraphic" in2="effect1_backgroundBlur_297_703" result="shape"/>
</filter>
<filter id="filter9_b_297_703" x="125.995" y="222.193" width="194.771" height="131.784" filterUnits="userSpaceOnUse" color-interpolation-filters="sRGB">
<feFlood flood-opacity="0" result="BackgroundImageFix"/>
<feGaussianBlur in="BackgroundImageFix" stdDeviation="10.8069"/>
<feComposite in2="SourceAlpha" operator="in" result="effect1_backgroundBlur_297_703"/>
<feBlend mode="normal" in="SourceGraphic" in2="effect1_backgroundBlur_297_703" result="shape"/>
</filter>
<filter id="filter10_b_297_703" x="201.768" y="266.471" width="118.999" height="176.062" filterUnits="userSpaceOnUse" color-interpolation-filters="sRGB">
<feFlood flood-opacity="0" result="BackgroundImageFix"/>
<feGaussianBlur in="BackgroundImageFix" stdDeviation="10.8069"/>
<feComposite in2="SourceAlpha" operator="in" result="effect1_backgroundBlur_297_703"/>
<feBlend mode="normal" in="SourceGraphic" in2="effect1_backgroundBlur_297_703" result="shape"/>
</filter>
<filter id="filter11_b_297_703" x="125.997" y="266.471" width="118.999" height="176.062" filterUnits="userSpaceOnUse" color-interpolation-filters="sRGB">
<feFlood flood-opacity="0" result="BackgroundImageFix"/>
<feGaussianBlur in="BackgroundImageFix" stdDeviation="10.8069"/>
<feComposite in2="SourceAlpha" operator="in" result="effect1_backgroundBlur_297_703"/>
<feBlend mode="normal" in="SourceGraphic" in2="effect1_backgroundBlur_297_703" result="shape"/>
</filter>
<linearGradient id="paint0_linear_297_703" x1="151.169" y1="173.508" x2="-87.8024" y2="409.844" gradientUnits="userSpaceOnUse">
<stop stop-color="#121212"/>
<stop offset="0.395053" stop-opacity="0"/>
</linearGradient>
<linearGradient id="paint1_linear_297_703" x1="375.701" y1="22.491" x2="231.902" y2="301.817" gradientUnits="userSpaceOnUse">
<stop stop-color="white"/>
<stop offset="1" stop-color="white" stop-opacity="0"/>
</linearGradient>
<linearGradient id="paint2_linear_297_703" x1="259.248" y1="114.737" x2="165.618" y2="274.196" gradientUnits="userSpaceOnUse">
<stop stop-color="#121212"/>
<stop offset="1" stop-color="white" stop-opacity="0"/>
</linearGradient>
<linearGradient id="paint3_linear_297_703" x1="263.624" y1="11.5733" x2="21.8111" y2="168.146" gradientUnits="userSpaceOnUse">
<stop stop-color="white"/>
<stop offset="1" stop-color="white" stop-opacity="0"/>
</linearGradient>
<linearGradient id="paint4_linear_297_703" x1="205.397" y1="149.942" x2="67.3021" y2="228.337" gradientUnits="userSpaceOnUse">
<stop stop-color="#121212"/>
<stop offset="1" stop-color="white" stop-opacity="0"/>
</linearGradient>
<linearGradient id="paint5_linear_297_703" x1="187.853" y1="11.5733" x2="-53.9595" y2="168.146" gradientUnits="userSpaceOnUse">
<stop stop-color="white"/>
<stop offset="1" stop-color="white" stop-opacity="0"/>
</linearGradient>
<linearGradient id="paint6_linear_297_703" x1="129.627" y1="149.942" x2="-8.46857" y2="228.337" gradientUnits="userSpaceOnUse">
<stop stop-color="#121212"/>
<stop offset="1" stop-color="white" stop-opacity="0"/>
</linearGradient>
<linearGradient id="paint7_linear_297_703" x1="452.76" y1="165.114" x2="213.789" y2="401.45" gradientUnits="userSpaceOnUse">
<stop stop-color="#121212"/>
<stop offset="0.395053" stop-opacity="0"/>
</linearGradient>
<linearGradient id="paint8_linear_297_703" x1="675.156" y1="12.5891" x2="531.358" y2="291.915" gradientUnits="userSpaceOnUse">
<stop stop-color="white"/>
<stop offset="1" stop-color="white" stop-opacity="0"/>
</linearGradient>
<linearGradient id="paint9_linear_297_703" x1="558.703" y1="104.835" x2="465.073" y2="264.294" gradientUnits="userSpaceOnUse">
<stop stop-color="#121212"/>
<stop offset="1" stop-color="white" stop-opacity="0"/>
</linearGradient>
<linearGradient id="paint10_linear_297_703" x1="563.079" y1="1.67099" x2="321.266" y2="158.244" gradientUnits="userSpaceOnUse">
<stop stop-color="white"/>
<stop offset="1" stop-color="white" stop-opacity="0"/>
</linearGradient>
<linearGradient id="paint11_linear_297_703" x1="504.853" y1="140.04" x2="366.757" y2="218.435" gradientUnits="userSpaceOnUse">
<stop stop-color="#121212"/>
<stop offset="1" stop-color="white" stop-opacity="0"/>
</linearGradient>
<linearGradient id="paint12_linear_297_703" x1="487.308" y1="1.67099" x2="245.496" y2="158.244" gradientUnits="userSpaceOnUse">
<stop stop-color="white"/>
<stop offset="1" stop-color="white" stop-opacity="0"/>
</linearGradient>
<linearGradient id="paint13_linear_297_703" x1="429.082" y1="140.04" x2="290.987" y2="218.435" gradientUnits="userSpaceOnUse">
<stop stop-color="#121212"/>
<stop offset="1" stop-color="white" stop-opacity="0"/>
</linearGradient>
<linearGradient id="paint14_linear_297_703" x1="300.914" y1="42.1325" x2="61.9427" y2="278.468" gradientUnits="userSpaceOnUse">
<stop stop-color="#121212"/>
<stop offset="0.395053" stop-opacity="0"/>
</linearGradient>
<linearGradient id="paint15_linear_297_703" x1="523.309" y1="-110.393" x2="379.511" y2="168.933" gradientUnits="userSpaceOnUse">
<stop stop-color="white"/>
<stop offset="1" stop-color="white" stop-opacity="0"/>
</linearGradient>
<linearGradient id="paint16_linear_297_703" x1="406.857" y1="-18.1468" x2="313.226" y2="141.312" gradientUnits="userSpaceOnUse">
<stop stop-color="#121212"/>
<stop offset="1" stop-color="white" stop-opacity="0"/>
</linearGradient>
<linearGradient id="paint17_linear_297_703" x1="411.232" y1="-121.311" x2="169.42" y2="35.2616" gradientUnits="userSpaceOnUse">
<stop stop-color="white"/>
<stop offset="1" stop-color="white" stop-opacity="0"/>
</linearGradient>
<linearGradient id="paint18_linear_297_703" x1="353.006" y1="17.0582" x2="214.911" y2="95.4532" gradientUnits="userSpaceOnUse">
<stop stop-color="#121212"/>
<stop offset="1" stop-color="white" stop-opacity="0"/>
</linearGradient>
<linearGradient id="paint19_linear_297_703" x1="335.461" y1="-121.311" x2="93.6489" y2="35.2616" gradientUnits="userSpaceOnUse">
<stop stop-color="white"/>
<stop offset="1" stop-color="white" stop-opacity="0"/>
</linearGradient>
<linearGradient id="paint20_linear_297_703" x1="277.235" y1="17.0582" x2="139.14" y2="95.4532" gradientUnits="userSpaceOnUse">
<stop stop-color="#121212"/>
<stop offset="1" stop-color="white" stop-opacity="0"/>
</linearGradient>
<linearGradient id="paint21_linear_297_703" x1="300.914" y1="285.939" x2="61.9426" y2="522.275" gradientUnits="userSpaceOnUse">
<stop stop-color="#121212"/>
<stop offset="0.395053" stop-opacity="0"/>
</linearGradient>
<linearGradient id="paint22_linear_297_703" x1="523.309" y1="133.414" x2="379.511" y2="412.74" gradientUnits="userSpaceOnUse">
<stop stop-color="white"/>
<stop offset="1" stop-color="white" stop-opacity="0"/>
</linearGradient>
<linearGradient id="paint23_linear_297_703" x1="406.857" y1="225.66" x2="313.226" y2="385.118" gradientUnits="userSpaceOnUse">
<stop stop-color="#121212"/>
<stop offset="1" stop-color="white" stop-opacity="0"/>
</linearGradient>
<linearGradient id="paint24_linear_297_703" x1="411.232" y1="122.496" x2="169.42" y2="279.068" gradientUnits="userSpaceOnUse">
<stop stop-color="white"/>
<stop offset="1" stop-color="white" stop-opacity="0"/>
</linearGradient>
<linearGradient id="paint25_linear_297_703" x1="353.006" y1="260.865" x2="214.911" y2="339.26" gradientUnits="userSpaceOnUse">
<stop stop-color="#121212"/>
<stop offset="1" stop-color="white" stop-opacity="0"/>
</linearGradient>
<linearGradient id="paint26_linear_297_703" x1="335.461" y1="122.496" x2="93.6489" y2="279.068" gradientUnits="userSpaceOnUse">
<stop stop-color="white"/>
<stop offset="1" stop-color="white" stop-opacity="0"/>
</linearGradient>
<linearGradient id="paint27_linear_297_703" x1="277.235" y1="260.865" x2="139.14" y2="339.26" gradientUnits="userSpaceOnUse">
<stop stop-color="#121212"/>
<stop offset="1" stop-color="white" stop-opacity="0"/>
</linearGradient>
</defs>
</svg>
