<svg width="25" height="25" viewBox="0 0 25 25" fill="none" xmlns="http://www.w3.org/2000/svg">
<path d="M3.10059 3.79858H21.1006C21.3658 3.79858 21.6202 3.90394 21.8077 4.09148C21.9952 4.27901 22.1006 4.53337 22.1006 4.79858V20.7986C22.1006 21.0638 21.9952 21.3182 21.8077 21.5057C21.6202 21.6932 21.3658 21.7986 21.1006 21.7986H3.10059C2.83537 21.7986 2.58102 21.6932 2.39348 21.5057C2.20594 21.3182 2.10059 21.0638 2.10059 20.7986V4.79858C2.10059 4.53337 2.20594 4.27901 2.39348 4.09148C2.58102 3.90394 2.83537 3.79858 3.10059 3.79858ZM12.1006 15.7986V17.7986H18.1006V15.7986H12.1006ZM8.51459 12.7986L5.68659 15.6266L7.10059 17.0416L11.3436 12.7986L7.10059 8.55558L5.68659 9.97058L8.51459 12.7986Z" fill="#24292E"/>
</svg>
