<svg width="147" height="168" viewBox="0 0 147 168" fill="none" xmlns="http://www.w3.org/2000/svg">
<path d="M146.381 62.842V104.526L109.92 124.596L109.92 42.0002L146.381 62.842Z" fill="url(#paint0_linear_5394_31122)"/>
<g filter="url(#filter0_b_5394_31122)">
<path d="M74.0001 63.0795L110.28 83.8992L146.561 63.0795L110.28 42.2599L74.0001 63.0795Z" fill="#797979" fill-opacity="0.2"/>
<path d="M110.28 42.7049L74.7755 63.0795L110.28 83.4542L145.785 63.0795L110.28 42.7049Z" stroke="url(#paint1_linear_5394_31122)" stroke-width="0.771919"/>
<path d="M110.28 42.7049L74.7755 63.0795L110.28 83.4542L145.785 63.0795L110.28 42.7049Z" stroke="url(#paint2_linear_5394_31122)" stroke-opacity="0.2" stroke-width="0.771919"/>
</g>
<g filter="url(#filter1_b_5394_31122)">
<path d="M110.281 83.8994V125.539L146.561 104.719V63.0797L110.281 83.8994Z" fill="#797979" fill-opacity="0.2"/>
<path d="M146.175 63.7462L110.667 84.1229V124.872L146.175 104.496V63.7462Z" stroke="url(#paint3_linear_5394_31122)" stroke-width="0.771919"/>
<path d="M146.175 63.7462L110.667 84.1229V124.872L146.175 104.496V63.7462Z" stroke="url(#paint4_linear_5394_31122)" stroke-opacity="0.2" stroke-width="0.771919"/>
</g>
<g filter="url(#filter2_b_5394_31122)">
<path d="M74.0013 63.0797V104.719L110.281 125.539V83.8994L74.0013 63.0797Z" fill="#797979" fill-opacity="0.2"/>
<path d="M109.896 84.1229L74.3872 63.7462V104.496L109.896 124.872V84.1229Z" stroke="url(#paint5_linear_5394_31122)" stroke-width="0.771919"/>
<path d="M109.896 84.1229L74.3872 63.7462V104.496L109.896 124.872V84.1229Z" stroke="url(#paint6_linear_5394_31122)" stroke-opacity="0.2" stroke-width="0.771919"/>
</g>
<g clip-path="url(#clip0_5394_31122)">
<path d="M84.322 97.9408L92.497 95.199L84.322 83.3008V80.8608L99.2243 89.2065V91.6465L87.7953 85.246L96.0309 97.1781L87.7953 99.886L99.2243 106.286V108.726L84.322 100.381V97.9408Z" fill="#C24E00"/>
</g>
<path d="M109.308 84.0694V125.753L72.8467 145.051L72.8467 63.2277L109.308 84.0694Z" fill="url(#paint7_linear_5394_31122)"/>
<g filter="url(#filter3_b_5394_31122)">
<path d="M37.0001 83.8199L73.2803 104.64L109.561 83.8199L73.2803 63.0002L37.0001 83.8199Z" fill="#797979" fill-opacity="0.2"/>
<path d="M73.2803 63.4452L37.7755 83.8199L73.2803 104.195L108.785 83.8199L73.2803 63.4452Z" stroke="url(#paint8_linear_5394_31122)" stroke-width="0.771919"/>
<path d="M73.2803 63.4452L37.7755 83.8199L73.2803 104.195L108.785 83.8199L73.2803 63.4452Z" stroke="url(#paint9_linear_5394_31122)" stroke-opacity="0.2" stroke-width="0.771919"/>
</g>
<g filter="url(#filter4_b_5394_31122)">
<path d="M73.2806 104.64V146.279L109.561 125.459V83.8199L73.2806 104.64Z" fill="#797979" fill-opacity="0.2"/>
<path d="M109.175 84.4864L73.6665 104.863V145.612L109.175 125.236V84.4864Z" stroke="url(#paint10_linear_5394_31122)" stroke-width="0.771919"/>
<path d="M109.175 84.4864L73.6665 104.863V145.612L109.175 125.236V84.4864Z" stroke="url(#paint11_linear_5394_31122)" stroke-opacity="0.2" stroke-width="0.771919"/>
</g>
<g filter="url(#filter5_b_5394_31122)">
<path d="M37.0008 83.8199L37.0008 125.459L73.281 146.279V104.64L37.0008 83.8199Z" fill="#797979" fill-opacity="0.2"/>
<path d="M72.895 104.863L37.3867 84.4864L37.3867 125.236L72.895 145.612V104.863Z" stroke="url(#paint12_linear_5394_31122)" stroke-width="0.771919"/>
<path d="M72.895 104.863L37.3867 84.4864L37.3867 125.236L72.895 145.612V104.863Z" stroke="url(#paint13_linear_5394_31122)" stroke-opacity="0.2" stroke-width="0.771919"/>
</g>
<path d="M146.381 20.8417V62.5255L109.92 82.5953L109.92 0L146.381 20.8417Z" fill="url(#paint14_linear_5394_31122)"/>
<g filter="url(#filter6_b_5394_31122)">
<path d="M74.0001 21.0793L110.28 41.8989L146.561 21.0793L110.28 0.259644L74.0001 21.0793Z" fill="#797979" fill-opacity="0.2"/>
<path d="M110.28 0.704638L74.7755 21.0793L110.28 41.454L145.785 21.0793L110.28 0.704638Z" stroke="url(#paint15_linear_5394_31122)" stroke-width="0.771919"/>
<path d="M110.28 0.704638L74.7755 21.0793L110.28 41.454L145.785 21.0793L110.28 0.704638Z" stroke="url(#paint16_linear_5394_31122)" stroke-opacity="0.2" stroke-width="0.771919"/>
</g>
<g filter="url(#filter7_b_5394_31122)">
<path d="M110.281 41.8991V83.5384L146.561 62.7188V21.0795L110.281 41.8991Z" fill="#797979" fill-opacity="0.2"/>
<path d="M146.175 21.7459L110.667 42.1226V82.872L146.175 62.4953V21.7459Z" stroke="url(#paint17_linear_5394_31122)" stroke-width="0.771919"/>
<path d="M146.175 21.7459L110.667 42.1226V82.872L146.175 62.4953V21.7459Z" stroke="url(#paint18_linear_5394_31122)" stroke-opacity="0.2" stroke-width="0.771919"/>
</g>
<g filter="url(#filter8_b_5394_31122)">
<path d="M74.0013 21.0795V62.7188L110.281 83.5384V41.8991L74.0013 21.0795Z" fill="#797979" fill-opacity="0.2"/>
<path d="M109.896 42.1226L74.3872 21.7459V62.4953L109.896 82.872V42.1226Z" stroke="url(#paint19_linear_5394_31122)" stroke-width="0.771919"/>
<path d="M109.896 42.1226L74.3872 21.7459V62.4953L109.896 82.872V42.1226Z" stroke="url(#paint20_linear_5394_31122)" stroke-opacity="0.2" stroke-width="0.771919"/>
</g>
<path d="M72.3141 105.291V146.143L35.853 165.279L35.853 84.4496L72.3141 105.291Z" fill="url(#paint21_linear_5394_31122)"/>
<g filter="url(#filter9_b_5394_31122)">
<path d="M6.9685e-05 104.82L36.2803 125.64L72.5605 104.82L36.2803 84.0002L6.9685e-05 104.82Z" fill="#797979" fill-opacity="0.2"/>
<path d="M36.2803 84.4452L0.775514 104.82L36.2803 125.195L71.7851 104.82L36.2803 84.4452Z" stroke="url(#paint22_linear_5394_31122)" stroke-width="0.771919"/>
<path d="M36.2803 84.4452L0.775514 104.82L36.2803 125.195L71.7851 104.82L36.2803 84.4452Z" stroke="url(#paint23_linear_5394_31122)" stroke-opacity="0.2" stroke-width="0.771919"/>
</g>
<g filter="url(#filter10_b_5394_31122)">
<path d="M36.281 125.64L36.281 167.279L72.5613 146.459V104.82L36.281 125.64Z" fill="#797979" fill-opacity="0.2"/>
<path d="M72.1753 105.487L36.667 125.863L36.667 166.613L72.1753 146.236V105.487Z" stroke="url(#paint24_linear_5394_31122)" stroke-width="0.771919"/>
<path d="M72.1753 105.487L36.667 125.863L36.667 166.613L72.1753 146.236V105.487Z" stroke="url(#paint25_linear_5394_31122)" stroke-opacity="0.2" stroke-width="0.771919"/>
</g>
<g filter="url(#filter11_b_5394_31122)">
<path d="M0.00125555 104.82L0.00125555 146.459L36.2815 167.279L36.2815 125.64L0.00125555 104.82Z" fill="#797979" fill-opacity="0.2"/>
<path d="M35.8955 125.863L0.387215 105.487L0.387215 146.236L35.8955 166.613L35.8955 125.863Z" stroke="url(#paint26_linear_5394_31122)" stroke-width="0.771919"/>
<path d="M35.8955 125.863L0.387215 105.487L0.387215 146.236L35.8955 166.613L35.8955 125.863Z" stroke="url(#paint27_linear_5394_31122)" stroke-opacity="0.2" stroke-width="0.771919"/>
</g>
<defs>
<filter id="filter0_b_5394_31122" x="52.3863" y="20.6461" width="115.788" height="84.8668" filterUnits="userSpaceOnUse" color-interpolation-filters="sRGB">
<feFlood flood-opacity="0" result="BackgroundImageFix"/>
<feGaussianBlur in="BackgroundImage" stdDeviation="10.8069"/>
<feComposite in2="SourceAlpha" operator="in" result="effect1_backgroundBlur_5394_31122"/>
<feBlend mode="normal" in="SourceGraphic" in2="effect1_backgroundBlur_5394_31122" result="shape"/>
</filter>
<filter id="filter1_b_5394_31122" x="88.6673" y="41.466" width="79.5078" height="105.686" filterUnits="userSpaceOnUse" color-interpolation-filters="sRGB">
<feFlood flood-opacity="0" result="BackgroundImageFix"/>
<feGaussianBlur in="BackgroundImage" stdDeviation="10.8069"/>
<feComposite in2="SourceAlpha" operator="in" result="effect1_backgroundBlur_5394_31122"/>
<feBlend mode="normal" in="SourceGraphic" in2="effect1_backgroundBlur_5394_31122" result="shape"/>
</filter>
<filter id="filter2_b_5394_31122" x="52.3875" y="41.466" width="79.5078" height="105.686" filterUnits="userSpaceOnUse" color-interpolation-filters="sRGB">
<feFlood flood-opacity="0" result="BackgroundImageFix"/>
<feGaussianBlur in="BackgroundImage" stdDeviation="10.8069"/>
<feComposite in2="SourceAlpha" operator="in" result="effect1_backgroundBlur_5394_31122"/>
<feBlend mode="normal" in="SourceGraphic" in2="effect1_backgroundBlur_5394_31122" result="shape"/>
</filter>
<filter id="filter3_b_5394_31122" x="15.3863" y="41.3865" width="115.788" height="84.8668" filterUnits="userSpaceOnUse" color-interpolation-filters="sRGB">
<feFlood flood-opacity="0" result="BackgroundImageFix"/>
<feGaussianBlur in="BackgroundImage" stdDeviation="10.8069"/>
<feComposite in2="SourceAlpha" operator="in" result="effect1_backgroundBlur_5394_31122"/>
<feBlend mode="normal" in="SourceGraphic" in2="effect1_backgroundBlur_5394_31122" result="shape"/>
</filter>
<filter id="filter4_b_5394_31122" x="51.6668" y="62.2062" width="79.5078" height="105.686" filterUnits="userSpaceOnUse" color-interpolation-filters="sRGB">
<feFlood flood-opacity="0" result="BackgroundImageFix"/>
<feGaussianBlur in="BackgroundImage" stdDeviation="10.8069"/>
<feComposite in2="SourceAlpha" operator="in" result="effect1_backgroundBlur_5394_31122"/>
<feBlend mode="normal" in="SourceGraphic" in2="effect1_backgroundBlur_5394_31122" result="shape"/>
</filter>
<filter id="filter5_b_5394_31122" x="15.387" y="62.2062" width="79.5078" height="105.686" filterUnits="userSpaceOnUse" color-interpolation-filters="sRGB">
<feFlood flood-opacity="0" result="BackgroundImageFix"/>
<feGaussianBlur in="BackgroundImage" stdDeviation="10.8069"/>
<feComposite in2="SourceAlpha" operator="in" result="effect1_backgroundBlur_5394_31122"/>
<feBlend mode="normal" in="SourceGraphic" in2="effect1_backgroundBlur_5394_31122" result="shape"/>
</filter>
<filter id="filter6_b_5394_31122" x="52.3863" y="-21.3541" width="115.788" height="84.8668" filterUnits="userSpaceOnUse" color-interpolation-filters="sRGB">
<feFlood flood-opacity="0" result="BackgroundImageFix"/>
<feGaussianBlur in="BackgroundImage" stdDeviation="10.8069"/>
<feComposite in2="SourceAlpha" operator="in" result="effect1_backgroundBlur_5394_31122"/>
<feBlend mode="normal" in="SourceGraphic" in2="effect1_backgroundBlur_5394_31122" result="shape"/>
</filter>
<filter id="filter7_b_5394_31122" x="88.6673" y="-0.534271" width="79.5078" height="105.686" filterUnits="userSpaceOnUse" color-interpolation-filters="sRGB">
<feFlood flood-opacity="0" result="BackgroundImageFix"/>
<feGaussianBlur in="BackgroundImage" stdDeviation="10.8069"/>
<feComposite in2="SourceAlpha" operator="in" result="effect1_backgroundBlur_5394_31122"/>
<feBlend mode="normal" in="SourceGraphic" in2="effect1_backgroundBlur_5394_31122" result="shape"/>
</filter>
<filter id="filter8_b_5394_31122" x="52.3875" y="-0.534271" width="79.5078" height="105.686" filterUnits="userSpaceOnUse" color-interpolation-filters="sRGB">
<feFlood flood-opacity="0" result="BackgroundImageFix"/>
<feGaussianBlur in="BackgroundImage" stdDeviation="10.8069"/>
<feComposite in2="SourceAlpha" operator="in" result="effect1_backgroundBlur_5394_31122"/>
<feBlend mode="normal" in="SourceGraphic" in2="effect1_backgroundBlur_5394_31122" result="shape"/>
</filter>
<filter id="filter9_b_5394_31122" x="-21.6137" y="62.3865" width="115.788" height="84.8668" filterUnits="userSpaceOnUse" color-interpolation-filters="sRGB">
<feFlood flood-opacity="0" result="BackgroundImageFix"/>
<feGaussianBlur in="BackgroundImage" stdDeviation="10.8069"/>
<feComposite in2="SourceAlpha" operator="in" result="effect1_backgroundBlur_5394_31122"/>
<feBlend mode="normal" in="SourceGraphic" in2="effect1_backgroundBlur_5394_31122" result="shape"/>
</filter>
<filter id="filter10_b_5394_31122" x="14.6673" y="83.2063" width="79.5078" height="105.686" filterUnits="userSpaceOnUse" color-interpolation-filters="sRGB">
<feFlood flood-opacity="0" result="BackgroundImageFix"/>
<feGaussianBlur in="BackgroundImage" stdDeviation="10.8069"/>
<feComposite in2="SourceAlpha" operator="in" result="effect1_backgroundBlur_5394_31122"/>
<feBlend mode="normal" in="SourceGraphic" in2="effect1_backgroundBlur_5394_31122" result="shape"/>
</filter>
<filter id="filter11_b_5394_31122" x="-21.6125" y="83.2063" width="79.5078" height="105.686" filterUnits="userSpaceOnUse" color-interpolation-filters="sRGB">
<feFlood flood-opacity="0" result="BackgroundImageFix"/>
<feGaussianBlur in="BackgroundImage" stdDeviation="10.8069"/>
<feComposite in2="SourceAlpha" operator="in" result="effect1_backgroundBlur_5394_31122"/>
<feBlend mode="normal" in="SourceGraphic" in2="effect1_backgroundBlur_5394_31122" result="shape"/>
</filter>
<linearGradient id="paint0_linear_5394_31122" x1="146.381" y1="61.3617" x2="34.0124" y2="174.526" gradientUnits="userSpaceOnUse">
<stop stop-color="#C24E00"/>
<stop offset="0.395053" stop-opacity="0"/>
</linearGradient>
<linearGradient id="paint1_linear_5394_31122" x1="253.889" y1="-9.64703" x2="186.992" y2="122.68" gradientUnits="userSpaceOnUse">
<stop stop-color="white"/>
<stop offset="1" stop-color="white" stop-opacity="0"/>
</linearGradient>
<linearGradient id="paint2_linear_5394_31122" x1="198.131" y1="33.7272" x2="154.499" y2="109.396" gradientUnits="userSpaceOnUse">
<stop stop-color="#777777"/>
<stop offset="1" stop-color="white" stop-opacity="0"/>
</linearGradient>
<linearGradient id="paint3_linear_5394_31122" x1="200.226" y1="-14.7807" x2="85.6936" y2="60.7361" gradientUnits="userSpaceOnUse">
<stop stop-color="white"/>
<stop offset="1" stop-color="white" stop-opacity="0"/>
</linearGradient>
<linearGradient id="paint4_linear_5394_31122" x1="172.346" y1="50.2807" x2="106.815" y2="88.1632" gradientUnits="userSpaceOnUse">
<stop stop-color="#777777"/>
<stop offset="1" stop-color="white" stop-opacity="0"/>
</linearGradient>
<linearGradient id="paint5_linear_5394_31122" x1="163.946" y1="-14.7807" x2="49.4138" y2="60.7361" gradientUnits="userSpaceOnUse">
<stop stop-color="white"/>
<stop offset="1" stop-color="white" stop-opacity="0"/>
</linearGradient>
<linearGradient id="paint6_linear_5394_31122" x1="136.067" y1="50.2807" x2="70.5353" y2="88.1632" gradientUnits="userSpaceOnUse">
<stop stop-color="#777777"/>
<stop offset="1" stop-color="white" stop-opacity="0"/>
</linearGradient>
<linearGradient id="paint7_linear_5394_31122" x1="109.308" y1="82.5891" x2="-3.0611" y2="195.753" gradientUnits="userSpaceOnUse">
<stop stop-color="#B08800"/>
<stop offset="0.395053" stop-opacity="0"/>
</linearGradient>
<linearGradient id="paint8_linear_5394_31122" x1="216.889" y1="11.0933" x2="149.992" y2="143.421" gradientUnits="userSpaceOnUse">
<stop stop-color="white"/>
<stop offset="1" stop-color="white" stop-opacity="0"/>
</linearGradient>
<linearGradient id="paint9_linear_5394_31122" x1="161.131" y1="54.4676" x2="117.499" y2="130.137" gradientUnits="userSpaceOnUse">
<stop stop-color="#777777"/>
<stop offset="1" stop-color="white" stop-opacity="0"/>
</linearGradient>
<linearGradient id="paint10_linear_5394_31122" x1="163.225" y1="5.95956" x2="48.6931" y2="81.4764" gradientUnits="userSpaceOnUse">
<stop stop-color="white"/>
<stop offset="1" stop-color="white" stop-opacity="0"/>
</linearGradient>
<linearGradient id="paint11_linear_5394_31122" x1="135.346" y1="71.021" x2="69.8146" y2="108.903" gradientUnits="userSpaceOnUse">
<stop stop-color="#777777"/>
<stop offset="1" stop-color="white" stop-opacity="0"/>
</linearGradient>
<linearGradient id="paint12_linear_5394_31122" x1="126.945" y1="5.95956" x2="12.4133" y2="81.4764" gradientUnits="userSpaceOnUse">
<stop stop-color="white"/>
<stop offset="1" stop-color="white" stop-opacity="0"/>
</linearGradient>
<linearGradient id="paint13_linear_5394_31122" x1="99.0662" y1="71.021" x2="33.5348" y2="108.903" gradientUnits="userSpaceOnUse">
<stop stop-color="#777777"/>
<stop offset="1" stop-color="white" stop-opacity="0"/>
</linearGradient>
<linearGradient id="paint14_linear_5394_31122" x1="146.381" y1="19.3615" x2="34.0124" y2="132.526" gradientUnits="userSpaceOnUse">
<stop stop-color="#6F42C1"/>
<stop offset="0.395053" stop-opacity="0"/>
</linearGradient>
<linearGradient id="paint15_linear_5394_31122" x1="253.889" y1="-51.6473" x2="186.992" y2="80.6802" gradientUnits="userSpaceOnUse">
<stop stop-color="white"/>
<stop offset="1" stop-color="white" stop-opacity="0"/>
</linearGradient>
<linearGradient id="paint16_linear_5394_31122" x1="198.131" y1="-8.273" x2="154.499" y2="67.3961" gradientUnits="userSpaceOnUse">
<stop stop-color="#777777"/>
<stop offset="1" stop-color="white" stop-opacity="0"/>
</linearGradient>
<linearGradient id="paint17_linear_5394_31122" x1="200.226" y1="-56.7809" x2="85.6936" y2="18.7359" gradientUnits="userSpaceOnUse">
<stop stop-color="white"/>
<stop offset="1" stop-color="white" stop-opacity="0"/>
</linearGradient>
<linearGradient id="paint18_linear_5394_31122" x1="172.346" y1="8.2805" x2="106.815" y2="46.1629" gradientUnits="userSpaceOnUse">
<stop stop-color="#777777"/>
<stop offset="1" stop-color="white" stop-opacity="0"/>
</linearGradient>
<linearGradient id="paint19_linear_5394_31122" x1="163.946" y1="-56.7809" x2="49.4138" y2="18.7359" gradientUnits="userSpaceOnUse">
<stop stop-color="white"/>
<stop offset="1" stop-color="white" stop-opacity="0"/>
</linearGradient>
<linearGradient id="paint20_linear_5394_31122" x1="136.067" y1="8.2805" x2="70.5353" y2="46.1629" gradientUnits="userSpaceOnUse">
<stop stop-color="#777777"/>
<stop offset="1" stop-color="white" stop-opacity="0"/>
</linearGradient>
<linearGradient id="paint21_linear_5394_31122" x1="73.4041" y1="103.811" x2="-38.9646" y2="216.975" gradientUnits="userSpaceOnUse">
<stop stop-color="#99306F"/>
<stop offset="0.395053" stop-opacity="0"/>
</linearGradient>
<linearGradient id="paint22_linear_5394_31122" x1="179.889" y1="32.0933" x2="112.992" y2="164.421" gradientUnits="userSpaceOnUse">
<stop stop-color="white"/>
<stop offset="1" stop-color="white" stop-opacity="0"/>
</linearGradient>
<linearGradient id="paint23_linear_5394_31122" x1="124.131" y1="75.4676" x2="80.4985" y2="151.137" gradientUnits="userSpaceOnUse">
<stop stop-color="#777777"/>
<stop offset="1" stop-color="white" stop-opacity="0"/>
</linearGradient>
<linearGradient id="paint24_linear_5394_31122" x1="126.226" y1="26.9597" x2="11.6936" y2="102.476" gradientUnits="userSpaceOnUse">
<stop stop-color="white"/>
<stop offset="1" stop-color="white" stop-opacity="0"/>
</linearGradient>
<linearGradient id="paint25_linear_5394_31122" x1="98.3464" y1="92.0211" x2="32.8151" y2="129.904" gradientUnits="userSpaceOnUse">
<stop stop-color="#777777"/>
<stop offset="1" stop-color="white" stop-opacity="0"/>
</linearGradient>
<linearGradient id="paint26_linear_5394_31122" x1="89.9459" y1="26.9597" x2="-24.5862" y2="102.476" gradientUnits="userSpaceOnUse">
<stop stop-color="white"/>
<stop offset="1" stop-color="white" stop-opacity="0"/>
</linearGradient>
<linearGradient id="paint27_linear_5394_31122" x1="62.0667" y1="92.0211" x2="-3.4647" y2="129.904" gradientUnits="userSpaceOnUse">
<stop stop-color="#777777"/>
<stop offset="1" stop-color="white" stop-opacity="0"/>
</linearGradient>
<clipPath id="clip0_5394_31122">
<rect width="29.28" height="29.28" fill="white" transform="matrix(0.872496 0.488621 0 1 79 73.0002)"/>
</clipPath>
</defs>
</svg>
