<svg width="221" height="177" viewBox="0 0 221 177" fill="none" xmlns="http://www.w3.org/2000/svg">
<path d="M72.3813 65.8417V107.525L35.9202 127.595V45L72.3813 65.8417Z" fill="url(#paint0_linear_5268_30849)"/>
<g filter="url(#filter0_b_5268_30849)">
<path d="M6.10352e-05 66.0793L36.2803 86.899L72.5605 66.0793L36.2803 45.2596L6.10352e-05 66.0793Z" fill="#797979" fill-opacity="0.2"/>
<path d="M36.2803 45.7046L0.775505 66.0793L36.2803 86.454L71.7851 66.0793L36.2803 45.7046Z" stroke="url(#paint1_linear_5268_30849)" stroke-width="0.771919"/>
<path d="M36.2803 45.7046L0.775505 66.0793L36.2803 86.454L71.7851 66.0793L36.2803 45.7046Z" stroke="url(#paint2_linear_5268_30849)" stroke-opacity="0.2" stroke-width="0.771919"/>
</g>
<g filter="url(#filter1_b_5268_30849)">
<path d="M36.281 86.8992V128.539L72.5613 107.719V66.0795L36.281 86.8992Z" fill="#797979" fill-opacity="0.2"/>
<path d="M72.1753 66.746L36.667 87.1227V127.872L72.1753 107.495V66.746Z" stroke="url(#paint3_linear_5268_30849)" stroke-width="0.771919"/>
<path d="M72.1753 66.746L36.667 87.1227V127.872L72.1753 107.495V66.746Z" stroke="url(#paint4_linear_5268_30849)" stroke-opacity="0.2" stroke-width="0.771919"/>
</g>
<g filter="url(#filter2_b_5268_30849)">
<path d="M0.00125122 66.0795V107.719L36.2815 128.539V86.8992L0.00125122 66.0795Z" fill="#797979" fill-opacity="0.2"/>
<path d="M35.8955 87.1227L0.387211 66.746V107.495L35.8955 127.872V87.1227Z" stroke="url(#paint5_linear_5268_30849)" stroke-width="0.771919"/>
<path d="M35.8955 87.1227L0.387211 66.746V107.495L35.8955 127.872V87.1227Z" stroke="url(#paint6_linear_5268_30849)" stroke-opacity="0.2" stroke-width="0.771919"/>
</g>
<path d="M220.314 66.2911V107.143L183.853 126.279V45.4494L220.314 66.2911Z" fill="url(#paint7_linear_5268_30849)"/>
<g filter="url(#filter3_b_5268_30849)">
<path d="M148 65.8197L184.28 86.6393L220.56 65.8197L184.28 45L148 65.8197Z" fill="#797979" fill-opacity="0.2"/>
<path d="M184.28 45.445L148.775 65.8197L184.28 86.1943L219.785 65.8197L184.28 45.445Z" stroke="url(#paint8_linear_5268_30849)" stroke-width="0.771919"/>
<path d="M184.28 45.445L148.775 65.8197L184.28 86.1943L219.785 65.8197L184.28 45.445Z" stroke="url(#paint9_linear_5268_30849)" stroke-opacity="0.2" stroke-width="0.771919"/>
</g>
<g filter="url(#filter4_b_5268_30849)">
<path d="M184.281 86.6395V128.279L220.561 107.459V65.8199L184.281 86.6395Z" fill="#797979" fill-opacity="0.2"/>
<path d="M220.175 66.4864L184.667 86.8631V127.612L220.175 107.236V66.4864Z" stroke="url(#paint10_linear_5268_30849)" stroke-width="0.771919"/>
<path d="M220.175 66.4864L184.667 86.8631V127.612L220.175 107.236V66.4864Z" stroke="url(#paint11_linear_5268_30849)" stroke-opacity="0.2" stroke-width="0.771919"/>
</g>
<g filter="url(#filter5_b_5268_30849)">
<path d="M148.001 65.8199V107.459L184.281 128.279V86.6395L148.001 65.8199Z" fill="#797979" fill-opacity="0.2"/>
<path d="M183.895 86.8631L148.387 66.4864V107.236L183.895 127.612V86.8631Z" stroke="url(#paint12_linear_5268_30849)" stroke-width="0.771919"/>
<path d="M183.895 86.8631L148.387 66.4864V107.236L183.895 127.612V86.8631Z" stroke="url(#paint13_linear_5268_30849)" stroke-opacity="0.2" stroke-width="0.771919"/>
</g>
<path d="M146.753 21.2911V62.1425L110.292 81.2791V0.449402L146.753 21.2911Z" fill="url(#paint14_linear_5268_30849)"/>
<g filter="url(#filter6_b_5268_30849)">
<path d="M74.4388 20.8197L110.719 41.6393L146.999 20.8197L110.719 0L74.4388 20.8197Z" fill="#797979" fill-opacity="0.2"/>
<path d="M110.719 0.444994L75.2142 20.8197L110.719 41.1943L146.224 20.8197L110.719 0.444994Z" stroke="url(#paint15_linear_5268_30849)" stroke-width="0.771919"/>
<path d="M110.719 0.444994L75.2142 20.8197L110.719 41.1943L146.224 20.8197L110.719 0.444994Z" stroke="url(#paint16_linear_5268_30849)" stroke-opacity="0.2" stroke-width="0.771919"/>
</g>
<g filter="url(#filter7_b_5268_30849)">
<path d="M110.72 41.6395V83.2789L147 62.4592V20.8199L110.72 41.6395Z" fill="#797979" fill-opacity="0.2"/>
<path d="M146.614 21.4864L111.106 41.8631V82.6124L146.614 62.2357V21.4864Z" stroke="url(#paint17_linear_5268_30849)" stroke-width="0.771919"/>
<path d="M146.614 21.4864L111.106 41.8631V82.6124L146.614 62.2357V21.4864Z" stroke="url(#paint18_linear_5268_30849)" stroke-opacity="0.2" stroke-width="0.771919"/>
</g>
<g filter="url(#filter8_b_5268_30849)">
<path d="M74.44 20.8199V62.4592L110.72 83.2789V41.6395L74.44 20.8199Z" fill="#797979" fill-opacity="0.2"/>
<path d="M110.334 41.8631L74.8259 21.4864V62.2357L110.334 82.6124V41.8631Z" stroke="url(#paint19_linear_5268_30849)" stroke-width="0.771919"/>
<path d="M110.334 41.8631L74.8259 21.4864V62.2357L110.334 82.6124V41.8631Z" stroke="url(#paint20_linear_5268_30849)" stroke-opacity="0.2" stroke-width="0.771919"/>
</g>
<path d="M146.753 114.291V155.143L110.292 174.279V93.4494L146.753 114.291Z" fill="url(#paint21_linear_5268_30849)"/>
<g filter="url(#filter9_b_5268_30849)">
<path d="M74.4388 113.82L110.719 134.639L146.999 113.82L110.719 93L74.4388 113.82Z" fill="#797979" fill-opacity="0.2"/>
<path d="M110.719 93.445L75.2142 113.82L110.719 134.194L146.224 113.82L110.719 93.445Z" stroke="url(#paint22_linear_5268_30849)" stroke-width="0.771919"/>
<path d="M110.719 93.445L75.2142 113.82L110.719 134.194L146.224 113.82L110.719 93.445Z" stroke="url(#paint23_linear_5268_30849)" stroke-opacity="0.2" stroke-width="0.771919"/>
</g>
<g filter="url(#filter10_b_5268_30849)">
<path d="M110.72 134.64V176.279L147 155.459V113.82L110.72 134.64Z" fill="#797979" fill-opacity="0.2"/>
<path d="M146.614 114.486L111.106 134.863V175.612L146.614 155.236V114.486Z" stroke="url(#paint24_linear_5268_30849)" stroke-width="0.771919"/>
<path d="M146.614 114.486L111.106 134.863V175.612L146.614 155.236V114.486Z" stroke="url(#paint25_linear_5268_30849)" stroke-opacity="0.2" stroke-width="0.771919"/>
</g>
<g filter="url(#filter11_b_5268_30849)">
<path d="M74.44 113.82V155.459L110.72 176.279V134.64L74.44 113.82Z" fill="#797979" fill-opacity="0.2"/>
<path d="M110.334 134.863L74.8259 114.486V155.236L110.334 175.612V134.863Z" stroke="url(#paint26_linear_5268_30849)" stroke-width="0.771919"/>
<path d="M110.334 134.863L74.8259 114.486V155.236L110.334 175.612V134.863Z" stroke="url(#paint27_linear_5268_30849)" stroke-opacity="0.2" stroke-width="0.771919"/>
</g>
<defs>
<filter id="filter0_b_5268_30849" x="-21.6137" y="23.6459" width="115.788" height="84.8668" filterUnits="userSpaceOnUse" color-interpolation-filters="sRGB">
<feFlood flood-opacity="0" result="BackgroundImageFix"/>
<feGaussianBlur in="BackgroundImage" stdDeviation="10.8069"/>
<feComposite in2="SourceAlpha" operator="in" result="effect1_backgroundBlur_5268_30849"/>
<feBlend mode="normal" in="SourceGraphic" in2="effect1_backgroundBlur_5268_30849" result="shape"/>
</filter>
<filter id="filter1_b_5268_30849" x="14.6673" y="44.4658" width="79.5078" height="105.686" filterUnits="userSpaceOnUse" color-interpolation-filters="sRGB">
<feFlood flood-opacity="0" result="BackgroundImageFix"/>
<feGaussianBlur in="BackgroundImage" stdDeviation="10.8069"/>
<feComposite in2="SourceAlpha" operator="in" result="effect1_backgroundBlur_5268_30849"/>
<feBlend mode="normal" in="SourceGraphic" in2="effect1_backgroundBlur_5268_30849" result="shape"/>
</filter>
<filter id="filter2_b_5268_30849" x="-21.6125" y="44.4658" width="79.5078" height="105.686" filterUnits="userSpaceOnUse" color-interpolation-filters="sRGB">
<feFlood flood-opacity="0" result="BackgroundImageFix"/>
<feGaussianBlur in="BackgroundImage" stdDeviation="10.8069"/>
<feComposite in2="SourceAlpha" operator="in" result="effect1_backgroundBlur_5268_30849"/>
<feBlend mode="normal" in="SourceGraphic" in2="effect1_backgroundBlur_5268_30849" result="shape"/>
</filter>
<filter id="filter3_b_5268_30849" x="126.386" y="23.3863" width="115.788" height="84.8668" filterUnits="userSpaceOnUse" color-interpolation-filters="sRGB">
<feFlood flood-opacity="0" result="BackgroundImageFix"/>
<feGaussianBlur in="BackgroundImage" stdDeviation="10.8069"/>
<feComposite in2="SourceAlpha" operator="in" result="effect1_backgroundBlur_5268_30849"/>
<feBlend mode="normal" in="SourceGraphic" in2="effect1_backgroundBlur_5268_30849" result="shape"/>
</filter>
<filter id="filter4_b_5268_30849" x="162.667" y="44.2061" width="79.5078" height="105.686" filterUnits="userSpaceOnUse" color-interpolation-filters="sRGB">
<feFlood flood-opacity="0" result="BackgroundImageFix"/>
<feGaussianBlur in="BackgroundImage" stdDeviation="10.8069"/>
<feComposite in2="SourceAlpha" operator="in" result="effect1_backgroundBlur_5268_30849"/>
<feBlend mode="normal" in="SourceGraphic" in2="effect1_backgroundBlur_5268_30849" result="shape"/>
</filter>
<filter id="filter5_b_5268_30849" x="126.387" y="44.2061" width="79.5078" height="105.686" filterUnits="userSpaceOnUse" color-interpolation-filters="sRGB">
<feFlood flood-opacity="0" result="BackgroundImageFix"/>
<feGaussianBlur in="BackgroundImage" stdDeviation="10.8069"/>
<feComposite in2="SourceAlpha" operator="in" result="effect1_backgroundBlur_5268_30849"/>
<feBlend mode="normal" in="SourceGraphic" in2="effect1_backgroundBlur_5268_30849" result="shape"/>
</filter>
<filter id="filter6_b_5268_30849" x="52.825" y="-21.6137" width="115.788" height="84.8668" filterUnits="userSpaceOnUse" color-interpolation-filters="sRGB">
<feFlood flood-opacity="0" result="BackgroundImageFix"/>
<feGaussianBlur in="BackgroundImage" stdDeviation="10.8069"/>
<feComposite in2="SourceAlpha" operator="in" result="effect1_backgroundBlur_5268_30849"/>
<feBlend mode="normal" in="SourceGraphic" in2="effect1_backgroundBlur_5268_30849" result="shape"/>
</filter>
<filter id="filter7_b_5268_30849" x="89.106" y="-0.793854" width="79.5078" height="105.686" filterUnits="userSpaceOnUse" color-interpolation-filters="sRGB">
<feFlood flood-opacity="0" result="BackgroundImageFix"/>
<feGaussianBlur in="BackgroundImage" stdDeviation="10.8069"/>
<feComposite in2="SourceAlpha" operator="in" result="effect1_backgroundBlur_5268_30849"/>
<feBlend mode="normal" in="SourceGraphic" in2="effect1_backgroundBlur_5268_30849" result="shape"/>
</filter>
<filter id="filter8_b_5268_30849" x="52.8262" y="-0.793854" width="79.5078" height="105.686" filterUnits="userSpaceOnUse" color-interpolation-filters="sRGB">
<feFlood flood-opacity="0" result="BackgroundImageFix"/>
<feGaussianBlur in="BackgroundImage" stdDeviation="10.8069"/>
<feComposite in2="SourceAlpha" operator="in" result="effect1_backgroundBlur_5268_30849"/>
<feBlend mode="normal" in="SourceGraphic" in2="effect1_backgroundBlur_5268_30849" result="shape"/>
</filter>
<filter id="filter9_b_5268_30849" x="52.825" y="71.3863" width="115.788" height="84.8668" filterUnits="userSpaceOnUse" color-interpolation-filters="sRGB">
<feFlood flood-opacity="0" result="BackgroundImageFix"/>
<feGaussianBlur in="BackgroundImage" stdDeviation="10.8069"/>
<feComposite in2="SourceAlpha" operator="in" result="effect1_backgroundBlur_5268_30849"/>
<feBlend mode="normal" in="SourceGraphic" in2="effect1_backgroundBlur_5268_30849" result="shape"/>
</filter>
<filter id="filter10_b_5268_30849" x="89.106" y="92.2061" width="79.5078" height="105.686" filterUnits="userSpaceOnUse" color-interpolation-filters="sRGB">
<feFlood flood-opacity="0" result="BackgroundImageFix"/>
<feGaussianBlur in="BackgroundImage" stdDeviation="10.8069"/>
<feComposite in2="SourceAlpha" operator="in" result="effect1_backgroundBlur_5268_30849"/>
<feBlend mode="normal" in="SourceGraphic" in2="effect1_backgroundBlur_5268_30849" result="shape"/>
</filter>
<filter id="filter11_b_5268_30849" x="52.8262" y="92.2061" width="79.5078" height="105.686" filterUnits="userSpaceOnUse" color-interpolation-filters="sRGB">
<feFlood flood-opacity="0" result="BackgroundImageFix"/>
<feGaussianBlur in="BackgroundImage" stdDeviation="10.8069"/>
<feComposite in2="SourceAlpha" operator="in" result="effect1_backgroundBlur_5268_30849"/>
<feBlend mode="normal" in="SourceGraphic" in2="effect1_backgroundBlur_5268_30849" result="shape"/>
</filter>
<linearGradient id="paint0_linear_5268_30849" x1="72.3812" y1="64.3615" x2="-39.9876" y2="177.526" gradientUnits="userSpaceOnUse">
<stop stop-color="#6F42C1"/>
<stop offset="0.395053" stop-opacity="0"/>
</linearGradient>
<linearGradient id="paint1_linear_5268_30849" x1="179.889" y1="-6.64728" x2="112.992" y2="125.68" gradientUnits="userSpaceOnUse">
<stop stop-color="white"/>
<stop offset="1" stop-color="white" stop-opacity="0"/>
</linearGradient>
<linearGradient id="paint2_linear_5268_30849" x1="124.131" y1="36.727" x2="80.4985" y2="112.396" gradientUnits="userSpaceOnUse">
<stop stop-color="#777777"/>
<stop offset="1" stop-color="white" stop-opacity="0"/>
</linearGradient>
<linearGradient id="paint3_linear_5268_30849" x1="126.226" y1="-11.7809" x2="11.6936" y2="63.7359" gradientUnits="userSpaceOnUse">
<stop stop-color="white"/>
<stop offset="1" stop-color="white" stop-opacity="0"/>
</linearGradient>
<linearGradient id="paint4_linear_5268_30849" x1="98.3464" y1="53.2806" x2="32.8151" y2="91.163" gradientUnits="userSpaceOnUse">
<stop stop-color="#777777"/>
<stop offset="1" stop-color="white" stop-opacity="0"/>
</linearGradient>
<linearGradient id="paint5_linear_5268_30849" x1="89.9459" y1="-11.7809" x2="-24.5862" y2="63.7359" gradientUnits="userSpaceOnUse">
<stop stop-color="white"/>
<stop offset="1" stop-color="white" stop-opacity="0"/>
</linearGradient>
<linearGradient id="paint6_linear_5268_30849" x1="62.0667" y1="53.2806" x2="-3.4647" y2="91.163" gradientUnits="userSpaceOnUse">
<stop stop-color="#777777"/>
<stop offset="1" stop-color="white" stop-opacity="0"/>
</linearGradient>
<linearGradient id="paint7_linear_5268_30849" x1="221.404" y1="64.8109" x2="109.035" y2="177.975" gradientUnits="userSpaceOnUse">
<stop stop-color="#6F42C1"/>
<stop offset="0.395053" stop-opacity="0"/>
</linearGradient>
<linearGradient id="paint8_linear_5268_30849" x1="327.889" y1="-6.90693" x2="260.991" y2="125.421" gradientUnits="userSpaceOnUse">
<stop stop-color="white"/>
<stop offset="1" stop-color="white" stop-opacity="0"/>
</linearGradient>
<linearGradient id="paint9_linear_5268_30849" x1="272.131" y1="36.4674" x2="228.498" y2="112.136" gradientUnits="userSpaceOnUse">
<stop stop-color="#777777"/>
<stop offset="1" stop-color="white" stop-opacity="0"/>
</linearGradient>
<linearGradient id="paint10_linear_5268_30849" x1="274.225" y1="-12.0405" x2="159.693" y2="63.4763" gradientUnits="userSpaceOnUse">
<stop stop-color="white"/>
<stop offset="1" stop-color="white" stop-opacity="0"/>
</linearGradient>
<linearGradient id="paint11_linear_5268_30849" x1="246.346" y1="53.0209" x2="180.815" y2="90.9033" gradientUnits="userSpaceOnUse">
<stop stop-color="#777777"/>
<stop offset="1" stop-color="white" stop-opacity="0"/>
</linearGradient>
<linearGradient id="paint12_linear_5268_30849" x1="237.946" y1="-12.0405" x2="123.414" y2="63.4763" gradientUnits="userSpaceOnUse">
<stop stop-color="white"/>
<stop offset="1" stop-color="white" stop-opacity="0"/>
</linearGradient>
<linearGradient id="paint13_linear_5268_30849" x1="210.066" y1="53.0209" x2="144.535" y2="90.9033" gradientUnits="userSpaceOnUse">
<stop stop-color="#777777"/>
<stop offset="1" stop-color="white" stop-opacity="0"/>
</linearGradient>
<linearGradient id="paint14_linear_5268_30849" x1="147.843" y1="19.8109" x2="35.4741" y2="132.975" gradientUnits="userSpaceOnUse">
<stop stop-color="#6F42C1"/>
<stop offset="0.395053" stop-opacity="0"/>
</linearGradient>
<linearGradient id="paint15_linear_5268_30849" x1="254.328" y1="-51.9069" x2="187.43" y2="80.4205" gradientUnits="userSpaceOnUse">
<stop stop-color="white"/>
<stop offset="1" stop-color="white" stop-opacity="0"/>
</linearGradient>
<linearGradient id="paint16_linear_5268_30849" x1="198.57" y1="-8.53264" x2="154.937" y2="67.1364" gradientUnits="userSpaceOnUse">
<stop stop-color="#777777"/>
<stop offset="1" stop-color="white" stop-opacity="0"/>
</linearGradient>
<linearGradient id="paint17_linear_5268_30849" x1="200.664" y1="-57.0405" x2="86.1323" y2="18.4763" gradientUnits="userSpaceOnUse">
<stop stop-color="white"/>
<stop offset="1" stop-color="white" stop-opacity="0"/>
</linearGradient>
<linearGradient id="paint18_linear_5268_30849" x1="172.785" y1="8.02092" x2="107.254" y2="45.9033" gradientUnits="userSpaceOnUse">
<stop stop-color="#777777"/>
<stop offset="1" stop-color="white" stop-opacity="0"/>
</linearGradient>
<linearGradient id="paint19_linear_5268_30849" x1="164.385" y1="-57.0405" x2="49.8525" y2="18.4763" gradientUnits="userSpaceOnUse">
<stop stop-color="white"/>
<stop offset="1" stop-color="white" stop-opacity="0"/>
</linearGradient>
<linearGradient id="paint20_linear_5268_30849" x1="136.505" y1="8.02092" x2="70.974" y2="45.9033" gradientUnits="userSpaceOnUse">
<stop stop-color="#777777"/>
<stop offset="1" stop-color="white" stop-opacity="0"/>
</linearGradient>
<linearGradient id="paint21_linear_5268_30849" x1="147.843" y1="112.811" x2="35.4741" y2="225.975" gradientUnits="userSpaceOnUse">
<stop stop-color="#6F42C1"/>
<stop offset="0.395053" stop-opacity="0"/>
</linearGradient>
<linearGradient id="paint22_linear_5268_30849" x1="254.328" y1="41.0931" x2="187.43" y2="173.421" gradientUnits="userSpaceOnUse">
<stop stop-color="white"/>
<stop offset="1" stop-color="white" stop-opacity="0"/>
</linearGradient>
<linearGradient id="paint23_linear_5268_30849" x1="198.57" y1="84.4674" x2="154.937" y2="160.136" gradientUnits="userSpaceOnUse">
<stop stop-color="#777777"/>
<stop offset="1" stop-color="white" stop-opacity="0"/>
</linearGradient>
<linearGradient id="paint24_linear_5268_30849" x1="200.664" y1="35.9595" x2="86.1323" y2="111.476" gradientUnits="userSpaceOnUse">
<stop stop-color="white"/>
<stop offset="1" stop-color="white" stop-opacity="0"/>
</linearGradient>
<linearGradient id="paint25_linear_5268_30849" x1="172.785" y1="101.021" x2="107.254" y2="138.903" gradientUnits="userSpaceOnUse">
<stop stop-color="#777777"/>
<stop offset="1" stop-color="white" stop-opacity="0"/>
</linearGradient>
<linearGradient id="paint26_linear_5268_30849" x1="164.385" y1="35.9595" x2="49.8525" y2="111.476" gradientUnits="userSpaceOnUse">
<stop stop-color="white"/>
<stop offset="1" stop-color="white" stop-opacity="0"/>
</linearGradient>
<linearGradient id="paint27_linear_5268_30849" x1="136.505" y1="101.021" x2="70.974" y2="138.903" gradientUnits="userSpaceOnUse">
<stop stop-color="#777777"/>
<stop offset="1" stop-color="white" stop-opacity="0"/>
</linearGradient>
</defs>
</svg>
