<svg width="32" height="32" viewBox="0 0 32 32" fill="none" xmlns="http://www.w3.org/2000/svg">
<path d="M15.9998 29.3332C23.3636 29.3332 29.3332 23.3636 29.3332 15.9998C29.3332 8.63604 23.3636 2.6665 15.9998 2.6665C8.63604 2.6665 2.6665 8.63604 2.6665 15.9998C2.6665 23.3636 8.63604 29.3332 15.9998 29.3332Z" stroke="#484848" stroke-width="1.5" stroke-linecap="round" stroke-linejoin="round"/>
<path d="M20 12.4718C19.2834 11.6594 18.3365 11.0845 17.2851 10.8236C16.2337 10.5626 15.1278 10.628 14.1145 11.011C13.1012 11.3941 12.2286 12.0766 11.6127 12.9678C10.9969 13.859 10.667 14.9166 10.667 15.9998C10.667 17.0831 10.9969 18.1407 11.6127 19.0319C12.2286 19.9231 13.1012 20.6056 14.1145 20.9886C15.1278 21.3717 16.2337 21.4371 17.2851 21.1761C18.3365 20.9152 19.2834 20.3402 20 19.5278" stroke="#484848" stroke-width="1.5" stroke-linecap="round" stroke-linejoin="round"/>
</svg>
