<svg width="480" height="320" viewBox="0 0 480 320" fill="none" xmlns="http://www.w3.org/2000/svg">
<g clip-path="url(#clip0_5838_12848)">
<path d="M358 176.58C356.823 176.574 355.668 176.26 354.65 175.67L333.13 163.24L333.48 162.64L355 175.06C355.912 175.586 356.946 175.864 357.998 175.864C359.051 175.864 360.085 175.587 360.997 175.062C361.909 174.536 362.667 173.779 363.194 172.868C363.721 171.957 363.999 170.923 364 169.87V149H364.7V169.89C364.708 171.067 364.401 172.225 363.813 173.245C363.224 174.264 362.374 175.108 361.35 175.69C360.33 176.273 359.175 176.58 358 176.58Z" fill="#EB83D2"/>
<path d="M389.38 163.45L339.25 134.51C336.93 133.16 335.05 129.57 335.05 126.51V93.25C335.05 90.15 336.93 88.73 339.25 90.07L389.38 119C391.7 120.34 393.58 123.94 393.58 127V160.23C393.58 163.36 391.7 164.79 389.38 163.45Z" fill="#FFE0F8" stroke="#FAC8EE" stroke-width="2"/>
<path d="M345.8 133.38L340.93 130.56V116.66L345.8 119.47V133.38Z" fill="#FAC8EE"/>
<path d="M354.02 138.12L349.15 135.31V112.87L354.02 115.69V138.12Z" fill="#FAC8EE"/>
<path d="M362.24 142.87L357.37 140.05V122.64L362.24 125.45V142.87Z" fill="#FAC8EE"/>
<path d="M370.46 147.61L365.59 144.8V115.69L370.46 118.5V147.61Z" fill="#FAC8EE"/>
<path d="M378.68 152.36L373.81 149.54V123.83L378.68 126.64V152.36Z" fill="#FAC8EE"/>
<path d="M386.9 157.1L382.03 154.29V140.33L386.9 143.14V157.1Z" fill="#FAC8EE"/>
<path d="M345.8 119.47L340.93 116.66V114.56L345.8 117.38V119.47Z" fill="#EB83D2"/>
<path d="M386.9 145.24L382.03 142.42V140.33L386.9 143.14V145.24Z" fill="#EB83D2"/>
<path d="M354.02 119.91L349.15 117.09V112.87L354.02 115.69V119.91Z" fill="#EB83D2"/>
<path d="M362.24 129.67L357.37 126.85V122.64L362.24 125.45V129.67Z" fill="#EB83D2"/>
<path d="M370.46 126.08L365.59 123.27V115.69L370.46 118.5V126.08Z" fill="#EB83D2"/>
<path d="M378.68 134.22L373.81 131.41V123.83L378.68 126.64V134.22Z" fill="#EB83D2"/>
<path d="M352.18 104.29L340.93 97.7899V96.3999L352.18 102.89V104.29Z" fill="#FAC8EE"/>
<path d="M347.63 104.98L340.93 101.11V99.72L347.63 103.58V104.98Z" fill="#FAC8EE"/>
<path d="M361.52 195.03L240.63 264.82L119.75 195.03L240.63 125.23L361.52 195.03Z" fill="#F6F6FB"/>
<path d="M240.63 264.82V300.64L119.75 230.85V195.03L240.63 264.82Z" fill="#CED3F8"/>
<path d="M240.63 264.82V300.64L361.52 230.85V195.03L240.63 264.82Z" fill="#BBC0E6"/>
<path d="M333.09 159.21L240.63 212.59L148.18 159.21L240.63 105.83L333.09 159.21Z" fill="#807DFB"/>
<path d="M240.63 212.59V248.41L148.17 195.03L148.18 159.21L240.63 212.59Z" fill="#5652CC"/>
<path d="M240.63 212.59V248.41L333.09 195.03V159.21L240.63 212.59Z" fill="#423EAF"/>
<path style="mix-blend-mode:multiply" d="M240.63 248.41H269.06L361.52 195.03L333.09 178.62V195.03L240.63 248.41Z" fill="url(#paint0_linear_5838_12848)"/>
<path style="mix-blend-mode:multiply" d="M264.56 119.78H251.05V123.34C247.043 124.584 243.184 126.261 239.54 128.34C219.75 139.85 219.87 158.5 239.78 170C243.2 172 240.68 179.62 240.68 179.62H297.68C297.68 179.62 324.26 164 333.49 159.23L264.56 119.78Z" fill="url(#paint1_linear_5838_12848)"/>
<path d="M280.19 138.18V156.84C280.19 162.65 276.35 168.46 268.71 172.9C253.33 181.85 228.3 181.85 212.83 172.9C205.04 168.4 201.14 162.5 201.16 156.6V137.95" fill="url(#paint2_linear_5838_12848)"/>
<path d="M212.83 154.36C197.35 145.43 197.27 130.93 212.64 122C228.01 113.07 253.05 113 268.53 122C284.01 131 284.09 145.43 268.71 154.37C253.33 163.31 228.31 163.3 212.83 154.36Z" fill="#E56EC9"/>
<path style="mix-blend-mode:multiply" d="M275.16 126.57C273.415 124.987 271.372 123.768 269.15 122.983C266.928 122.198 264.573 121.864 262.22 122H240.17V123.93C238.767 124.642 237.471 125.547 236.32 126.62C234.754 128.049 233.505 129.791 232.652 131.732C231.8 133.674 231.364 135.772 231.371 137.893C231.379 140.013 231.83 142.108 232.696 144.044C233.562 145.979 234.824 147.712 236.4 149.13C237.529 150.18 238.797 151.069 240.17 151.77V153.77H263.67C267.965 153.682 272.079 152.028 275.24 149.12C276.811 147.689 278.065 145.945 278.92 144C279.776 142.055 280.214 139.952 280.206 137.827C280.199 135.702 279.746 133.603 278.877 131.664C278.008 129.725 276.741 127.989 275.16 126.57Z" fill="url(#paint3_linear_5838_12848)"/>
<path d="M212.8 147C205.01 142.5 201.11 136.6 201.13 130.7V114.04C201.13 119.94 205.01 125.84 212.8 130.34C228.28 139.28 253.3 139.28 268.68 130.34C276.32 125.89 280.15 120.09 280.16 114.26V130.92C280.16 136.74 276.32 142.55 268.68 146.99C253.3 156 228.27 156 212.8 147Z" fill="url(#paint4_linear_5838_12848)"/>
<path d="M212.83 130.48C197.35 121.55 197.27 107.05 212.64 98.12C228.01 89.19 253.05 89.18 268.53 98.12C284.01 107.06 284.09 121.55 268.71 130.49C253.33 139.43 228.31 139.42 212.83 130.48Z" fill="#F6F6FB"/>
<path style="mix-blend-mode:multiply" d="M142.9 265.59C146.45 265.5 149.33 265.26 151.22 263.37C153.11 261.48 161.51 261.62 161.51 261.62V259.44L160.37 258.8C158.37 259 150.99 258.8 149.31 259.28C147.63 259.76 140.72 265.65 142.9 265.59Z" fill="url(#paint5_linear_5838_12848)"/>
<path style="mix-blend-mode:multiply" d="M180 231C183.5 231 191.14 228.69 193.73 229.3C196.32 229.91 203.62 228.73 207.07 228.73C207.07 224.15 206.65 217.41 203.72 215.9C200.79 214.39 193.54 212.43 193.54 208.71C193.54 204.99 196.43 191.83 197.14 188.78C197.85 185.73 194.48 182.38 194.48 182.38L189.62 179.57L183.54 213.57L177.61 229.66L180 231Z" fill="url(#paint6_linear_5838_12848)"/>
<path style="mix-blend-mode:multiply" d="M129.65 261.08C133.19 260.99 137.99 261.5 142.48 259.61C144.95 258.61 153.88 258.49 153.88 258.49V256.32L152.74 255.68C150.74 255.87 143.37 255.68 141.69 256.15C140.01 256.62 127.46 261.14 129.65 261.08Z" fill="url(#paint7_linear_5838_12848)"/>
<path style="mix-blend-mode:multiply" d="M180 231C178.89 232.88 166.84 243.77 166.84 244.94C164.31 244.12 160.61 240.74 160.61 240.74C160.61 240.74 165.07 227.34 168.22 224.2L180 231Z" fill="url(#paint8_linear_5838_12848)"/>
<path d="M142.83 254.07C141.45 256.17 143.39 259.26 140.31 259.77C136.04 260.48 127.22 262.19 127.06 260.04C126.93 258.22 132.96 256.6 135.74 255.28C139.62 253.44 140 252 140 252L142.83 254.07Z" fill="url(#paint9_linear_5838_12848)"/>
<path d="M140 252C140 252 139.64 253.4 135.76 255.24C135.05 255.58 134.13 255.94 133.16 256.31C133.16 256.31 132.63 256.51 132.81 257.37C133.17 259.09 140.64 258.27 142.25 257.12C142.197 256.057 142.403 254.996 142.85 254.03L140 252Z" fill="#FFCEA2"/>
<path d="M146.42 255.09C146.019 256.506 145.409 257.854 144.61 259.09C143.99 260.09 141.68 263.09 141.39 263.42C140.32 264.61 141.2 265.67 142.9 265.6C144.181 265.68 145.461 265.432 146.62 264.88C147.73 264.16 151.62 261.21 151.29 259.49C151.12 258.58 150.9 258.58 150.51 256.49C150.4 255.93 150.22 254.56 150.22 254.56L146.42 255.09Z" fill="url(#paint10_linear_5838_12848)"/>
<path d="M147.5 261.11C148.836 260.329 149.978 259.255 150.84 257.97C150.75 257.63 150.64 257.18 150.51 256.49C150.38 255.8 150.22 254.56 150.22 254.56L146.42 255.09C146.019 256.506 145.409 257.854 144.61 259.09C144.39 259.43 143.95 260.04 143.47 260.7C143.27 261.88 146.31 261.82 147.5 261.11Z" fill="#FFCEA2"/>
<path d="M157 226.75C159.23 225.42 178.81 211.84 178.81 211.84L190.16 210.32C191.24 212.24 195.04 219.4 190.16 223.85C185.28 228.3 169.29 232.59 161.57 233.78L156.26 227.3C156.486 227.091 156.734 226.906 157 226.75Z" fill="#20196F"/>
<path d="M156.27 227.3L161.58 233.78C160.1 238.88 142.97 254.26 142.97 254.26C141.44 253.96 140.83 253.26 139.55 252.42C140.72 250 153 231.2 156.27 227.3Z" fill="#20196F"/>
<path d="M176.36 207.68C176.36 207.68 187.36 211 184.66 213.79C181.96 216.58 162.25 224.89 155.39 225.97L149.39 221.49C153 216.91 174.1 208.7 176.36 207.68Z" fill="url(#paint11_linear_5838_12848)"/>
<path d="M149.39 221.49L155.39 225.97C156.58 232.1 151.49 248.82 150.39 254.97C149.798 255.447 149.061 255.708 148.3 255.708C147.54 255.708 146.802 255.447 146.21 254.97C146.21 254.97 146 225.92 149.39 221.49Z" fill="url(#paint12_linear_5838_12848)"/>
<path d="M163.41 207.44C163.609 207.329 163.831 207.266 164.059 207.257C164.287 207.249 164.513 207.294 164.72 207.39L187.22 219.11C187.59 219.3 187.61 219.64 187.22 219.86L172.63 229.15C172.431 229.261 172.209 229.324 171.982 229.334C171.755 229.345 171.528 229.302 171.32 229.21L148.82 217.48C148.743 217.452 148.677 217.401 148.631 217.334C148.584 217.266 148.559 217.187 148.559 217.105C148.559 217.023 148.584 216.944 148.631 216.877C148.677 216.81 148.743 216.759 148.82 216.73L163.41 207.44Z" fill="white"/>
<g style="mix-blend-mode:multiply">
<path d="M171.26 227.41L172.36 227.99L171.84 228.32L170.74 227.75L171.26 227.41Z" fill="#E6EAF5"/>
<path d="M169.41 226.45L170.51 227.02L169.98 227.35L168.88 226.78L169.41 226.45Z" fill="#E6EAF5"/>
<path d="M167.55 225.48L168.65 226.05L168.13 226.39L167.03 225.81L167.55 225.48Z" fill="#E6EAF5"/>
<path d="M165.7 224.51L166.8 225.09L166.28 225.42L165.17 224.85L165.7 224.51Z" fill="#E6EAF5"/>
<path d="M163.84 223.55L164.94 224.12L164.42 224.46L163.32 223.88L163.84 223.55Z" fill="#E6EAF5"/>
<path d="M161.99 222.58L163.09 223.16L162.57 223.49L161.47 222.92L161.99 222.58Z" fill="#E6EAF5"/>
<path d="M160.14 221.62L161.24 222.19L160.71 222.53L159.62 221.95L160.14 221.62Z" fill="#E6EAF5"/>
<path d="M158.28 220.65L159.38 221.22L158.86 221.56L157.76 220.99L158.28 220.65Z" fill="#E6EAF5"/>
<path d="M156.43 219.69L157.53 220.26L157.01 220.59L155.91 220.02L156.43 219.69Z" fill="#E6EAF5"/>
<path d="M154.58 218.72L155.68 219.29L155.16 219.63L154.05 219.05L154.58 218.72Z" fill="#E6EAF5"/>
<path d="M152.72 217.75L153.82 218.33L153.3 218.66L152.2 218.09L152.72 217.75Z" fill="#E6EAF5"/>
<path d="M150.87 216.79L151.97 217.36L151.45 217.7L150.35 217.12L150.87 216.79Z" fill="#E6EAF5"/>
<path d="M172.14 225.83L174.12 226.86L173.07 227.53L171.1 226.5L172.14 225.83Z" fill="#E6EAF5"/>
<path d="M173.08 224.36L175.81 225.79L174.76 226.46L172.03 225.03L173.08 224.36Z" fill="#E6EAF5"/>
<path d="M174.09 222.85L177.57 224.67L176.53 225.33L173.04 223.52L174.09 222.85Z" fill="#E6EAF5"/>
<path d="M177.73 222.28L179.71 223.31L178.29 224.21L176.31 223.18L177.73 222.28Z" fill="#E6EAF5"/>
<path d="M175 220.85L176.98 221.88L175.56 222.79L173.58 221.75L175 220.85Z" fill="#E6EAF5"/>
<path d="M172.27 219.43L174.25 220.46L172.83 221.36L170.85 220.33L172.27 219.43Z" fill="#E6EAF5"/>
<path d="M162.85 214.52L164.83 215.56L163.41 216.46L161.43 215.43L162.85 214.52Z" fill="#E6EAF5"/>
<path d="M158.22 212.11L162.1 214.13L160.68 215.04L156.8 213.01L158.22 212.11Z" fill="#E6EAF5"/>
<path d="M165.58 215.94L171.51 219.04L170.1 219.94L164.16 216.85L165.58 215.94Z" fill="#E6EAF5"/>
<path d="M169.77 224.6L171.39 225.44L170.34 226.11L168.72 225.26L169.77 224.6Z" fill="#E6EAF5"/>
<path d="M170.71 223.13L172.33 223.97L171.28 224.64L169.66 223.79L170.71 223.13Z" fill="#E6EAF5"/>
<path d="M171.67 221.64L173.29 222.49L172.24 223.16L170.62 222.31L171.67 221.64Z" fill="#E6EAF5"/>
<path d="M169.3 220.41L170.92 221.25L169.87 221.92L168.25 221.07L169.3 220.41Z" fill="#E6EAF5"/>
<path d="M166.93 219.17L168.54 220.02L167.5 220.68L165.88 219.84L166.93 219.17Z" fill="#E6EAF5"/>
<path d="M164.55 217.94L166.17 218.78L165.13 219.45L163.51 218.6L164.55 217.94Z" fill="#E6EAF5"/>
<path d="M162.18 216.7L163.8 217.54L162.75 218.21L161.13 217.37L162.18 216.7Z" fill="#E6EAF5"/>
<path d="M159.81 215.47L161.43 216.31L160.38 216.97L158.76 216.13L159.81 215.47Z" fill="#E6EAF5"/>
<path d="M156.04 213.5L159.06 215.07L158.01 215.74L154.99 214.17L156.04 213.5Z" fill="#E6EAF5"/>
<path d="M168.34 221.89L169.96 222.74L168.91 223.4L167.29 222.56L168.34 221.89Z" fill="#E6EAF5"/>
<path d="M165.96 220.66L167.58 221.5L166.54 222.17L164.92 221.32L165.96 220.66Z" fill="#E6EAF5"/>
<path d="M163.59 219.42L165.21 220.26L164.16 220.93L162.54 220.09L163.59 219.42Z" fill="#E6EAF5"/>
<path d="M161.22 218.19L162.84 219.03L161.79 219.69L160.17 218.85L161.22 218.19Z" fill="#E6EAF5"/>
<path d="M158.85 216.95L160.47 217.79L159.42 218.46L157.8 217.61L158.85 216.95Z" fill="#E6EAF5"/>
<path d="M154.32 214.59L158.09 216.56L157.05 217.22L153.28 215.26L154.32 214.59Z" fill="#E6EAF5"/>
<path d="M167.4 223.36L169.02 224.2L167.97 224.87L166.35 224.03L167.4 223.36Z" fill="#E6EAF5"/>
<path d="M165.03 222.13L166.65 222.97L165.6 223.63L163.98 222.79L165.03 222.13Z" fill="#E6EAF5"/>
<path d="M162.66 220.89L164.27 221.73L163.23 222.4L161.61 221.56L162.66 220.89Z" fill="#E6EAF5"/>
<path d="M160.28 219.65L161.9 220.5L160.86 221.16L159.24 220.32L160.28 219.65Z" fill="#E6EAF5"/>
<path d="M157.91 218.42L159.53 219.26L158.48 219.93L156.86 219.08L157.91 218.42Z" fill="#E6EAF5"/>
<path d="M155.54 217.18L157.16 218.03L156.11 218.69L154.49 217.85L155.54 217.18Z" fill="#E6EAF5"/>
<path d="M152.63 215.67L154.79 216.79L153.74 217.46L151.59 216.33L152.63 215.67Z" fill="#E6EAF5"/>
</g>
<path d="M151.73 218.39L169.51 227.66L169 227.98L151.22 218.71L151.73 218.39Z" fill="#423EAD"/>
<g style="mix-blend-mode:multiply">
<path d="M165.52 214.65L174.59 219.38L179.96 215.96L170.88 211.24L165.52 214.65Z" fill="#E6EAF5"/>
</g>
<path d="M187.26 219.86L172.67 229.15C172.348 229.331 171.97 229.384 171.61 229.3L171.36 229.21L148.86 217.48H148.79V217.43C148.76 217.381 148.739 217.327 148.73 217.27V217.59C148.739 217.671 148.769 217.749 148.819 217.814C148.868 217.879 148.934 217.93 149.01 217.96L171.51 229.68C171.994 229.856 172.517 229.89 173.02 229.78L173.67 229.59L187.43 220.83C187.505 220.796 187.568 220.741 187.612 220.672C187.656 220.602 187.68 220.522 187.68 220.44V219.62C187.639 219.695 187.578 219.757 187.504 219.8C187.43 219.842 187.345 219.863 187.26 219.86Z" fill="url(#paint13_linear_5838_12848)"/>
<path d="M174.24 165.07C171.51 169.43 171.4 178.87 174.3 184.89C176.3 184.81 179.25 181.98 182.2 182.8C182.88 183 177.82 164.92 174.24 165.07Z" fill="#131147"/>
<path d="M163.83 208.75C162.36 209.62 159.15 210.25 158.24 211.12C157.33 211.99 157.24 214.44 157.97 215.19C158.7 215.94 159.52 215.87 159.08 215.14C158.64 214.41 158.69 212.94 159.81 212.78C161.96 212.46 159.33 214.98 160.36 214.95C161.39 214.92 161.67 213.69 162.79 212.75C163.91 211.81 164.71 211.5 165.79 210.5C166.87 209.5 163.83 208.75 163.83 208.75Z" fill="#FACFA7"/>
<path d="M163.43 209C165.22 207.67 170.65 202 171.59 200.15C172.53 198.3 173.59 189.03 173.67 187.83C173.75 186.63 174.27 181.55 179.2 181.59C179.8 184.83 176.31 200.59 174.8 202.71C172.95 205.27 167.38 209.27 165.8 210.53C163.86 209.82 163.43 209 163.43 209Z" fill="#FFCEA2"/>
<path d="M143 207.77L164.72 219C165.076 219.176 165.376 219.446 165.59 219.78L171.45 228.78C171.473 228.815 171.483 228.857 171.48 228.899C171.476 228.941 171.458 228.981 171.43 229.012C171.401 229.043 171.363 229.063 171.322 229.07C171.28 229.077 171.237 229.07 171.2 229.05L148.56 217.3C148.383 217.205 148.231 217.068 148.12 216.9L142.64 208.45C142.23 207.9 142.48 207.49 143 207.77Z" fill="#362E92"/>
<path d="M171.45 228.85L165.59 219.85C165.376 219.516 165.075 219.246 164.72 219.07L143 207.77C142.75 207.64 142.57 207.66 142.48 207.77C142.57 207.657 142.667 207.55 142.77 207.45C142.86 207.34 143.04 207.33 143.28 207.45L165 218.73C165.351 218.913 165.648 219.186 165.86 219.52L171.72 228.52C171.743 228.552 171.755 228.591 171.755 228.63C171.755 228.669 171.743 228.708 171.72 228.74L171.46 229.04C171.475 229.01 171.482 228.977 171.48 228.944C171.479 228.91 171.468 228.878 171.45 228.85Z" fill="url(#paint14_linear_5838_12848)"/>
<path d="M190.12 209.45C189.01 202.19 191.91 193.22 192.34 188.64C192.62 185.75 192.76 182.38 190.12 181.64C187.48 180.9 186.29 180.58 183.97 180.73C178.36 181.12 175.78 182.38 174.8 186.3C173.89 189.98 173.17 191.12 172.44 194.73C172.11 196.34 176.37 201.09 176.16 208.01C174.84 214.48 192.33 214.66 190.12 209.45Z" fill="url(#paint15_linear_5838_12848)"/>
<path d="M185.66 173.86C185.49 172.13 179.73 175.86 179.96 178.1C180.15 179.94 180.47 181.8 179.79 182.1C179.01 182.72 177.79 186.66 179.31 188.04C184.23 185.77 185.73 183.62 190.12 181.71C188.28 181.38 186.23 179.43 185.66 173.86Z" fill="#FFCEA2"/>
<path d="M174.38 215.16C172.2 216.83 171.54 215.89 170.38 216.48C169.433 216.994 168.533 217.59 167.69 218.26C167.29 218.56 168.69 218.45 169.28 218.19C168.789 218.584 168.424 219.113 168.23 219.712C168.036 220.311 168.022 220.953 168.19 221.56C168.52 222.31 170.49 222.96 170.91 222.51C172.7 220.63 172.35 219.93 174.91 219.16C175.729 218.745 176.459 218.174 177.06 217.48L174.38 215.16Z" fill="#FACFA7"/>
<path d="M174.38 215.16C177.78 212.97 183.96 205.16 184.38 202.3C184.8 199.44 187.07 182.3 191.01 182.42C194.95 182.54 190.9 198.96 188.47 205.02C187.28 208.02 180.86 215.02 177.03 217.48C175.48 217.54 174.38 215.16 174.38 215.16Z" fill="#FFCEA2"/>
<path d="M187 171.4L185 167L175.88 166C175.38 165.791 174.841 165.692 174.3 165.71C173.04 168.59 174.03 174.3 174.03 174.3C174.19 178.05 176.85 180.97 179.96 180.84C183.07 180.71 185.29 177.74 185.28 174.15H186.07L187 171.4Z" fill="#FFCEA2"/>
<path d="M184.48 177.67C184.092 178.515 183.496 179.247 182.747 179.798C181.999 180.35 181.122 180.701 180.2 180.82C180.279 181.225 180.207 181.644 180 182C180.307 181.999 180.613 181.959 180.91 181.88C181.828 181.563 182.644 181.005 183.272 180.264C183.9 179.524 184.318 178.628 184.48 177.67Z" fill="#FBC096"/>
<path d="M179.63 162.36C188.32 161.98 190.42 172.57 192.3 181.71C191.1 184.71 187.96 186.95 184.05 188.06C179.35 188.74 184.96 172.33 178.2 168.4C176.32 167.31 172.95 167.95 173.56 166.4C174.9 163.14 176.69 162.49 179.63 162.36Z" fill="#131147"/>
<path d="M176.47 130.54C174.694 130.532 172.993 129.822 171.738 128.565C170.483 127.308 169.775 125.606 169.77 123.83V102.94H170.47V123.83C170.469 124.883 170.746 125.919 171.272 126.831C171.799 127.744 172.556 128.502 173.468 129.029C174.381 129.556 175.416 129.834 176.469 129.834C177.523 129.834 178.558 129.557 179.47 129.03L201 116.6L201.35 117.21L179.82 129.63C178.804 130.225 177.648 130.539 176.47 130.54Z" fill="#8585FF"/>
<path d="M197.5 86.8701L139.58 120.31C137.58 121.47 135.96 120.24 135.96 117.57V68.3601C135.96 65.6901 137.58 62.5901 139.58 61.4301L197.5 28.0001C199.5 26.8501 201.13 28.0801 201.13 30.7401V80.0001C201.13 82.6101 199.51 85.7201 197.5 86.8701Z" fill="#F1F1F6" stroke="#C2C2FF" stroke-width="2"/>
<path d="M197.5 86.8701L139.58 120.31C137.58 121.47 135.96 120.24 135.96 117.57V68.3601C135.96 65.6901 137.58 62.5901 139.58 61.4301L197.5 28.0001C199.5 26.8501 201.13 28.0801 201.13 30.7401V80.0001C201.13 82.6101 199.51 85.7201 197.5 86.8701Z" fill="#EBEBFF" stroke="#C2C2FF" stroke-width="2"/>
<path d="M154.23 98.8301C151.42 100.45 148.62 101.35 146.47 101.16C146.01 101.168 145.554 101.081 145.131 100.902C144.707 100.724 144.326 100.46 144.01 100.125C143.695 99.7913 143.453 99.395 143.3 98.9618C143.146 98.5286 143.085 98.0683 143.12 97.6101V80.2701L143.94 79.8001C143.94 81.5401 144.94 82.5901 146.88 82.8001C150.94 83.1601 157.52 79.3601 161.55 74.3301C163.41 72.0001 164.44 69.7801 164.45 68.0601L165.26 67.5901V84.9001C165.26 86.9701 164.09 89.5701 161.96 92.2201C159.803 94.8714 157.184 97.1108 154.23 98.8301ZM144 82.7101V97.1401C144 98.8901 145 99.9401 146.94 100.14C151 100.5 157.58 96.7101 161.61 91.6701C163.47 89.3501 164.5 87.1201 164.51 85.4001V70.9101C163.856 72.3454 163.019 73.6899 162.02 74.9101C157.76 80.2201 150.82 84.2301 146.53 83.8501C145.571 83.8117 144.664 83.4031 144 82.7101Z" fill="#8585FF"/>
<path d="M154.24 81.5201C151.43 83.1401 148.63 84.0501 146.48 83.8601C146.021 83.8682 145.566 83.7807 145.143 83.6032C144.721 83.4256 144.339 83.1619 144.024 82.8288C143.709 82.4957 143.467 82.1006 143.313 81.6687C143.159 81.2367 143.096 80.7774 143.13 80.3201C143.13 78.2501 144.3 75.6401 146.43 72.9901C150.69 67.6701 157.64 63.6601 161.92 64.0401C162.378 64.0305 162.833 64.1167 163.256 64.2931C163.678 64.4695 164.06 64.7323 164.375 65.0646C164.69 65.3969 164.933 65.7914 165.087 66.2229C165.241 66.6543 165.303 67.1132 165.27 67.5701C165.27 69.6501 164.1 72.2501 161.97 74.9201C159.81 77.5656 157.191 79.8012 154.24 81.5201ZM154.17 67.3101C151.37 68.9347 148.887 71.052 146.84 73.5601C145 75.9001 144 78.1301 144 79.8501C144 81.5701 145.05 82.6301 146.94 82.8501C151 83.2201 157.58 79.4201 161.61 74.3901C163.48 72.0501 164.51 69.8201 164.51 68.1001C164.51 66.3801 163.46 65.3101 161.51 65.1001C159.56 64.8901 156.82 65.7701 154.17 67.3101Z" fill="#8585FF"/>
<path d="M192.79 63.7299L171.09 76.26V74.23L192.79 61.7V63.7299Z" fill="#ADADFF"/>
<path d="M192.79 68.55L171.09 81.08V79.05L192.79 66.52V68.55Z" fill="#ADADFF"/>
<path d="M192.79 73.3701L171.09 85.9001V83.8701L192.79 71.3401V73.3701Z" fill="#ADADFF"/>
<path d="M184.45 83.01L171.09 90.72V88.69L184.45 80.97V83.01Z" fill="#ADADFF"/>
<path d="M179.8 60.0001C180.148 58.9959 180.333 57.9427 180.35 56.8801C180.35 53.2201 177.78 51.7401 174.61 53.5601V60.2001L179.8 60.0001Z" fill="#5652CC"/>
<path d="M174.61 60.2001V53.5701C172.942 54.661 171.554 56.1293 170.558 57.8561C169.563 59.5829 168.988 61.5198 168.88 63.5101C168.88 67.1701 171.45 68.6501 174.61 66.8201C177.081 65.2205 178.917 62.8084 179.8 60.0001L174.61 60.2001Z" fill="#ADADFF"/>
<path d="M188.51 52.0001V45.3701C186.84 46.4578 185.45 47.9237 184.453 49.649C183.456 51.3743 182.879 53.3103 182.77 55.3001C182.77 58.9601 185.34 60.4501 188.51 58.6201C190.181 57.5314 191.572 56.0639 192.569 54.3368C193.567 52.6097 194.142 50.6716 194.25 48.6801C194.295 47.606 193.974 46.5483 193.34 45.6801L188.51 52.0001Z" fill="#ADADFF"/>
<path d="M193.34 45.6399C192.34 44.3899 190.54 44.1899 188.51 45.3699V51.9999L193.34 45.6399Z" fill="#5652CC"/>
<path d="M403.92 224.19L414.1 230.06L403.92 235.93L393.75 230.06L403.92 224.19Z" fill="#807DFB"/>
<path d="M393.75 230.06L403.92 235.93V247.68L393.75 241.81V230.06Z" fill="#5652CC"/>
<path d="M414.1 230.06L403.92 235.93V247.68L414.1 241.81V230.06Z" fill="#423EAF"/>
<path style="mix-blend-mode:multiply" d="M403.92 247.68H430.15V235.93H414.1V241.81L403.92 247.68Z" fill="url(#paint16_linear_5838_12848)"/>
<path d="M420.31 233.65L430.49 239.52L420.31 245.4L410.14 239.52L420.31 233.65Z" fill="#807DFB"/>
<path d="M410.14 239.52L420.31 245.4V257.14L410.14 251.27V239.52Z" fill="#5652CC"/>
<path d="M430.49 239.52L420.31 245.4V257.14L430.49 251.27V239.52Z" fill="#423EAF"/>
<path style="mix-blend-mode:multiply" d="M420.31 257.14H446.54V245.4H430.49V251.27L420.31 257.14Z" fill="url(#paint17_linear_5838_12848)"/>
<path style="mix-blend-mode:multiply" d="M134.95 139.79H57.02V166.47H65.3V171.84H75.76V177.34H134.95V139.79Z" fill="url(#paint18_linear_5838_12848)"/>
<path d="M51.6602 132.85V163.38C51.7041 163.852 51.8727 164.303 52.1486 164.688C52.4245 165.072 52.7978 165.377 53.2302 165.57C54.4041 166.162 55.7005 166.47 57.0152 166.47C58.3298 166.47 59.6262 166.162 60.8002 165.57L80.0002 154.51C80.4325 154.317 80.8058 154.012 81.0817 153.628C81.3576 153.243 81.5262 152.792 81.5702 152.32V121.79L51.6602 132.85Z" fill="url(#paint19_linear_5838_12848)"/>
<path d="M79.9999 119.6C78.7979 118.962 77.4502 118.648 76.0898 118.69C74.8099 118.684 73.5485 118.996 72.4198 119.6L53.2299 130.66C52.7745 130.816 52.3794 131.111 52.0996 131.503C51.8198 131.894 51.6694 132.364 51.6694 132.845C51.6694 133.326 51.8198 133.796 52.0996 134.188C52.3794 134.579 52.7745 134.874 53.2299 135.03C54.402 135.628 55.6991 135.94 57.0149 135.94C58.3306 135.94 59.6277 135.628 60.7999 135.03L79.9999 124C80.4552 123.844 80.8504 123.549 81.1301 123.158C81.4099 122.766 81.5603 122.296 81.5603 121.815C81.5603 121.334 81.4099 120.864 81.1301 120.473C80.8504 120.081 80.4552 119.786 79.9999 119.63V119.6Z" fill="#F6F6FB"/>
<path d="M61 138.28V168.81C61.0468 169.285 61.2198 169.738 61.5012 170.123C61.7826 170.508 62.162 170.811 62.6 171C63.7757 171.592 65.0737 171.9 66.39 171.9C67.7063 171.9 69.0043 171.592 70.18 171L89.33 159.94C89.7636 159.747 90.1384 159.443 90.416 159.059C90.6936 158.674 90.8641 158.222 90.91 157.75V127.22L61 138.28Z" fill="url(#paint20_linear_5838_12848)"/>
<path d="M89.3301 125C88.1277 124.364 86.7796 124.053 85.4201 124.1C84.144 124.089 82.8856 124.399 81.7601 125L62.6001 136.09C62.1412 136.244 61.7422 136.538 61.4596 136.931C61.177 137.324 61.0249 137.796 61.0249 138.28C61.0249 138.764 61.177 139.236 61.4596 139.629C61.7422 140.022 62.1412 140.316 62.6001 140.47C63.7758 141.062 65.0738 141.37 66.3901 141.37C67.7063 141.37 69.0043 141.062 70.1801 140.47L89.3301 129.41C89.789 129.256 90.1879 128.962 90.4705 128.569C90.7532 128.176 90.9052 127.704 90.9052 127.22C90.9052 126.736 90.7532 126.264 90.4705 125.871C90.1879 125.478 89.789 125.184 89.3301 125.03V125Z" fill="#F6F6FB"/>
<path d="M70.3999 143.71V174.24C70.4477 174.714 70.6212 175.167 70.9024 175.552C71.1837 175.937 71.5625 176.24 71.9999 176.43C73.1738 177.028 74.4725 177.34 75.7899 177.34C77.1073 177.34 78.406 177.028 79.5799 176.43L98.7399 165.37C99.1717 165.176 99.5444 164.871 99.8202 164.487C100.096 164.102 100.265 163.651 100.31 163.18V132.65L70.3999 143.71Z" fill="url(#paint21_linear_5838_12848)"/>
<path d="M98.71 130.46C97.5039 129.824 96.1527 129.514 94.79 129.56C93.5144 129.554 92.2572 129.863 91.13 130.46L72 141.52C71.5411 141.674 71.1421 141.968 70.8595 142.361C70.5769 142.754 70.4248 143.226 70.4248 143.71C70.4248 144.194 70.5769 144.666 70.8595 145.059C71.1421 145.452 71.5411 145.746 72 145.9C73.1738 146.498 74.4725 146.81 75.79 146.81C77.1074 146.81 78.4061 146.498 79.58 145.9L98.74 134.84C99.1989 134.686 99.5978 134.392 99.8804 133.999C100.163 133.606 100.315 133.134 100.315 132.65C100.315 132.166 100.163 131.694 99.8804 131.301C99.5978 130.908 99.1989 130.614 98.74 130.46H98.71Z" fill="#F6F6FB"/>
<path d="M63.48 232.32L74.24 238.52L63.48 244.73L52.73 238.52L63.48 232.32Z" fill="#E56EC9"/>
<path d="M52.73 238.52L63.48 244.73V257.14L52.73 250.94V238.52Z" fill="#D453B5"/>
<path d="M74.24 238.52L63.48 244.73V257.14L74.24 250.94V238.52Z" fill="#B8429B"/>
<path style="mix-blend-mode:multiply" d="M63.48 257.14H91.2V244.73H74.24V250.94L63.48 257.14Z" fill="url(#paint22_linear_5838_12848)"/>
<path style="mix-blend-mode:multiply" d="M427.61 71.48C424.861 70.0194 421.769 69.3284 418.66 69.48H403.4V70.3C402.475 70.5927 401.584 70.9815 400.74 71.46C396.15 74.13 396.18 78.46 400.79 81.12C401.618 81.5867 402.493 81.9654 403.4 82.25V83.11H419.66C422.451 83.1141 425.199 82.427 427.66 81.11C432.26 78.47 432.23 74.15 427.61 71.48Z" fill="url(#paint23_linear_5838_12848)"/>
<path d="M395.6 81.1401C393.27 79.8001 392.11 78.0401 392.12 76.2801V61.5801C392.12 63.3401 393.27 65.1001 395.6 66.4401C400.22 69.1101 407.68 69.1101 412.26 66.4401C414.55 65.1201 415.69 63.3801 415.69 61.6501V76.3501C415.69 78.0801 414.55 79.8201 412.27 81.1401C407.68 83.8101 400.21 83.8101 395.6 81.1401Z" fill="url(#paint24_linear_5838_12848)"/>
<path d="M395.61 66.47C390.99 63.81 390.96 59.47 395.55 56.82C400.14 54.17 407.6 54.15 412.22 56.82C416.84 59.49 416.86 63.82 412.22 66.48C407.58 69.14 400.23 69.14 395.61 66.47Z" fill="#E56EC9"/>
<path style="mix-blend-mode:multiply" d="M326.36 56.2399C324.805 54.1754 322.823 52.4701 320.55 51.2399C311.28 45.8899 296.88 45.3099 286.5 49.4999C285.257 49.995 284.051 50.5764 282.89 51.2399C277.69 54.2399 275.09 58.1799 275.09 62.1099C275.09 66.0399 277.69 69.9799 282.89 72.9899C293.29 78.9899 310.15 78.9899 320.55 72.9899C325.44 70.1599 328.03 66.5199 328.32 62.8199C328.478 60.4624 327.782 58.1268 326.36 56.2399Z" fill="url(#paint25_linear_5838_12848)"/>
<path d="M276.52 44.11L291.74 56.72L310.58 45.85C301.31 40.5 286.91 39.92 276.52 44.11Z" fill="#8585FF"/>
<path d="M310.58 45.8501L291.74 56.7201L316.39 50.8901C314.834 48.8158 312.853 47.0975 310.58 45.8501Z" fill="#5E5EDD"/>
<path d="M291.74 56.7201L276.52 44.1101C275.279 44.6092 274.073 45.1905 272.91 45.8501C267.71 48.8501 265.11 52.7901 265.11 56.7201C265.11 60.6501 267.71 64.5901 272.91 67.5901C283.31 73.5901 300.18 73.5901 310.58 67.5901C315.46 64.7701 318.05 61.1201 318.35 57.4301C318.483 55.0815 317.774 52.7625 316.35 50.8901L291.74 56.7201Z" fill="#F6F6FB"/>
<path d="M318.35 57.4299C318.05 61.1199 315.46 64.7699 310.58 67.5899C300.18 73.5899 283.31 73.5899 272.91 67.5899C268.03 64.7699 265.44 61.1199 265.14 57.4299V62.0699C265.14 66.0099 267.74 69.9399 272.94 72.9499C283.34 78.9499 300.21 78.9499 310.61 72.9499C315.49 70.1199 318.08 66.4799 318.38 62.7799C318.405 62.357 318.405 61.9329 318.38 61.5099L318.35 57.4299Z" fill="#BBC0E6"/>
<path style="mix-blend-mode:multiply" d="M410.69 80.9999C408.205 79.693 405.414 79.0782 402.61 79.2199H388.86V79.9999C388.023 80.2459 387.215 80.5812 386.45 80.9999C382.32 83.4099 382.34 87.3099 386.5 89.7099C387.25 90.123 388.041 90.4581 388.86 90.7099V91.4899H403.52C406.039 91.4999 408.521 90.8812 410.74 89.6899C414.87 87.3099 414.85 83.4099 410.69 80.9999Z" fill="url(#paint26_linear_5838_12848)"/>
<path d="M381.82 89.71C379.72 88.5 378.68 86.92 378.68 85.33V76.52C378.68 78.11 379.68 79.7 381.82 80.91C384.144 82.0882 386.714 82.7021 389.32 82.7021C391.926 82.7021 394.495 82.0882 396.82 80.91C398.87 79.71 399.9 78.15 399.91 76.58V85.39C399.91 86.96 398.91 88.52 396.82 89.71C394.497 90.8928 391.927 91.5094 389.32 91.5094C386.713 91.5094 384.143 90.8928 381.82 89.71Z" fill="url(#paint27_linear_5838_12848)"/>
<path d="M381.83 80.9401C377.66 78.5301 377.64 74.6301 381.78 72.2301C384.105 71.0519 386.674 70.438 389.28 70.438C391.886 70.438 394.455 71.0519 396.78 72.2301C400.94 74.6301 400.96 78.5301 396.83 80.9401C394.505 82.1182 391.936 82.7322 389.33 82.7322C386.724 82.7322 384.155 82.1182 381.83 80.9401Z" fill="#F0F1F9"/>
</g>
<defs>
<linearGradient id="paint0_linear_5838_12848" x1="240.63" y1="213.51" x2="361.52" y2="213.51" gradientUnits="userSpaceOnUse">
<stop stop-color="#D1D7F3"/>
<stop offset="0.28" stop-color="#D6DBF4"/>
<stop offset="0.6" stop-color="#E3E7F8"/>
<stop offset="0.93" stop-color="#FAFAFE"/>
<stop offset="1" stop-color="white"/>
</linearGradient>
<linearGradient id="paint1_linear_5838_12848" x1="224.77" y1="149.7" x2="333.46" y2="149.7" gradientUnits="userSpaceOnUse">
<stop offset="0.14" stop-color="#C4C9E4"/>
<stop offset="0.36" stop-color="#D7DAED"/>
<stop offset="0.77" stop-color="#F4F5FA"/>
<stop offset="1" stop-color="white"/>
</linearGradient>
<linearGradient id="paint2_linear_5838_12848" x1="201.13" y1="158.78" x2="280.19" y2="158.78" gradientUnits="userSpaceOnUse">
<stop stop-color="#D453B5"/>
<stop offset="0.41" stop-color="#B13D95"/>
<stop offset="0.78" stop-color="#982E7E"/>
<stop offset="1" stop-color="#8F2876"/>
</linearGradient>
<linearGradient id="paint3_linear_5838_12848" x1="231.37" y1="137.83" x2="280.19" y2="137.83" gradientUnits="userSpaceOnUse">
<stop offset="0.31" stop-color="#C4C9E4"/>
<stop offset="0.49" stop-color="#D7DAED"/>
<stop offset="0.82" stop-color="#F4F5FA"/>
<stop offset="1" stop-color="white"/>
</linearGradient>
<linearGradient id="paint4_linear_5838_12848" x1="201.13" y1="133.9" x2="280.19" y2="133.9" gradientUnits="userSpaceOnUse">
<stop stop-color="white"/>
<stop offset="1" stop-color="#BBC0E6"/>
</linearGradient>
<linearGradient id="paint5_linear_5838_12848" x1="142.48" y1="262.2" x2="161.51" y2="262.2" gradientUnits="userSpaceOnUse">
<stop stop-color="#D1D7F3"/>
<stop offset="0.3" stop-color="#DADFF5"/>
<stop offset="0.8" stop-color="#F3F5FC"/>
<stop offset="1" stop-color="white"/>
</linearGradient>
<linearGradient id="paint6_linear_5838_12848" x1="178.32" y1="205.32" x2="207.41" y2="205.32" gradientUnits="userSpaceOnUse">
<stop stop-color="#D1D7F3"/>
<stop offset="0.6" stop-color="#F0F2FB"/>
<stop offset="1" stop-color="white"/>
</linearGradient>
<linearGradient id="paint7_linear_5838_12848" x1="129.39" y1="258.38" x2="153.88" y2="258.38" gradientUnits="userSpaceOnUse">
<stop stop-color="#D1D7F3"/>
<stop offset="0.3" stop-color="#DADFF5"/>
<stop offset="0.8" stop-color="#F3F5FC"/>
<stop offset="1" stop-color="white"/>
</linearGradient>
<linearGradient id="paint8_linear_5838_12848" x1="165.68" y1="243.96" x2="174.14" y2="226.92" gradientUnits="userSpaceOnUse">
<stop stop-color="white"/>
<stop offset="0.2" stop-color="#F3F5FC"/>
<stop offset="0.7" stop-color="#DADFF5"/>
<stop offset="1" stop-color="#D1D7F3"/>
</linearGradient>
<linearGradient id="paint9_linear_5838_12848" x1="126.664" y1="258.464" x2="142.982" y2="255.366" gradientUnits="userSpaceOnUse">
<stop stop-color="#20196F"/>
<stop offset="0.37" stop-color="#322C8E"/>
<stop offset="1" stop-color="#5652CC"/>
</linearGradient>
<linearGradient id="paint10_linear_5838_12848" x1="150.062" y1="262.266" x2="143.901" y2="258.772" gradientUnits="userSpaceOnUse">
<stop stop-color="#5652CC"/>
<stop offset="0.63" stop-color="#322C8E"/>
<stop offset="1" stop-color="#20196F"/>
</linearGradient>
<linearGradient id="paint11_linear_5838_12848" x1="177.394" y1="206.144" x2="136.504" y2="251.396" gradientUnits="userSpaceOnUse">
<stop stop-color="#20196F"/>
<stop offset="1" stop-color="#423EAF"/>
</linearGradient>
<linearGradient id="paint12_linear_5838_12848" x1="175.267" y1="204.011" x2="139.686" y2="251.848" gradientUnits="userSpaceOnUse">
<stop stop-color="#20196F"/>
<stop offset="1" stop-color="#423EAF"/>
</linearGradient>
<linearGradient id="paint13_linear_5838_12848" x1="148.92" y1="223.954" x2="187.684" y2="222.275" gradientUnits="userSpaceOnUse">
<stop offset="0.56" stop-color="#A3A9CA"/>
<stop offset="0.61" stop-color="#CCD0F2"/>
</linearGradient>
<linearGradient id="paint14_linear_5838_12848" x1="177.773" y1="246.482" x2="149.453" y2="247.615" gradientUnits="userSpaceOnUse">
<stop offset="0.17" stop-color="#423EAD"/>
<stop offset="0.2" stop-color="#5652C9"/>
<stop offset="0.23" stop-color="#6B67E7"/>
</linearGradient>
<linearGradient id="paint15_linear_5838_12848" x1="172.597" y1="197.536" x2="193.018" y2="196.651" gradientUnits="userSpaceOnUse">
<stop stop-color="white"/>
<stop offset="0.41" stop-color="#F5F7FC"/>
<stop offset="1" stop-color="#DFE4F4"/>
</linearGradient>
<linearGradient id="paint16_linear_5838_12848" x1="403.92" y1="241.81" x2="430.15" y2="241.81" gradientUnits="userSpaceOnUse">
<stop stop-color="#DAE0F5"/>
<stop offset="0.31" stop-color="#DFE4F6"/>
<stop offset="0.7" stop-color="#EEF1FB"/>
<stop offset="1" stop-color="white"/>
</linearGradient>
<linearGradient id="paint17_linear_5838_12848" x1="420.31" y1="251.27" x2="446.54" y2="251.27" gradientUnits="userSpaceOnUse">
<stop stop-color="#DAE0F5"/>
<stop offset="0.31" stop-color="#DFE4F6"/>
<stop offset="0.7" stop-color="#EEF1FB"/>
<stop offset="1" stop-color="white"/>
</linearGradient>
<linearGradient id="paint18_linear_5838_12848" x1="134.95" y1="158.56" x2="57.02" y2="158.56" gradientUnits="userSpaceOnUse">
<stop stop-color="white"/>
<stop offset="1" stop-color="#C4CAE9"/>
</linearGradient>
<linearGradient id="paint19_linear_5838_12848" x1="51.6602" y1="144.13" x2="81.5302" y2="144.13" gradientUnits="userSpaceOnUse">
<stop stop-color="#CED3F8"/>
<stop offset="0.29" stop-color="#BEC3E9"/>
<stop offset="0.33" stop-color="#BBC0E6"/>
</linearGradient>
<linearGradient id="paint20_linear_5838_12848" x1="61.03" y1="149.56" x2="90.91" y2="149.56" gradientUnits="userSpaceOnUse">
<stop stop-color="#CED3F8"/>
<stop offset="0.29" stop-color="#BEC3E9"/>
<stop offset="0.33" stop-color="#BBC0E6"/>
</linearGradient>
<linearGradient id="paint21_linear_5838_12848" x1="70.3999" y1="154.99" x2="100.28" y2="154.99" gradientUnits="userSpaceOnUse">
<stop stop-color="#CED3F8"/>
<stop offset="0.29" stop-color="#BEC3E9"/>
<stop offset="0.33" stop-color="#BBC0E6"/>
</linearGradient>
<linearGradient id="paint22_linear_5838_12848" x1="63.49" y1="250.94" x2="91.21" y2="250.94" gradientUnits="userSpaceOnUse">
<stop stop-color="#DAE0F5"/>
<stop offset="0.31" stop-color="#DFE4F6"/>
<stop offset="0.7" stop-color="#EEF1FB"/>
<stop offset="1" stop-color="white"/>
</linearGradient>
<linearGradient id="paint23_linear_5838_12848" x1="397.31" y1="76.31" x2="431.09" y2="76.31" gradientUnits="userSpaceOnUse">
<stop offset="0.14" stop-color="#C4C9E4"/>
<stop offset="0.36" stop-color="#D7DAED"/>
<stop offset="0.77" stop-color="#F4F5FA"/>
<stop offset="1" stop-color="white"/>
</linearGradient>
<linearGradient id="paint24_linear_5838_12848" x1="392.12" y1="72.3601" x2="415.7" y2="72.3601" gradientUnits="userSpaceOnUse">
<stop stop-color="#D453B5"/>
<stop offset="0.41" stop-color="#B13D95"/>
<stop offset="0.78" stop-color="#982E7E"/>
<stop offset="1" stop-color="#8F2876"/>
</linearGradient>
<linearGradient id="paint25_linear_5838_12848" x1="275.09" y1="62.0799" x2="328.35" y2="62.0799" gradientUnits="userSpaceOnUse">
<stop stop-color="#C4CAE9"/>
<stop offset="0.65" stop-color="#EEF0F9"/>
<stop offset="1" stop-color="white"/>
</linearGradient>
<linearGradient id="paint26_linear_5838_12848" x1="383.37" y1="85.3599" x2="413.82" y2="85.3599" gradientUnits="userSpaceOnUse">
<stop offset="0.14" stop-color="#C4C9E4"/>
<stop offset="0.36" stop-color="#D7DAED"/>
<stop offset="0.77" stop-color="#F4F5FA"/>
<stop offset="1" stop-color="white"/>
</linearGradient>
<linearGradient id="paint27_linear_5838_12848" x1="378.68" y1="84.02" x2="399.95" y2="84.02" gradientUnits="userSpaceOnUse">
<stop stop-color="#CED3F8"/>
<stop offset="0.17" stop-color="#C5CAEE"/>
<stop offset="0.69" stop-color="#AEB3D5"/>
<stop offset="1" stop-color="#A5ABCC"/>
</linearGradient>
<clipPath id="clip0_5838_12848">
<rect width="480" height="320" fill="white"/>
</clipPath>
</defs>
</svg>
