<?xml version="1.0" encoding="utf-8"?>
<!-- Generator: Adobe Illustrator 24.3.0, SVG Export Plug-In . SVG Version: 6.00 Build 0)  -->
<svg version="1.1" id="Layer_1" xmlns="http://www.w3.org/2000/svg" xmlns:xlink="http://www.w3.org/1999/xlink" x="0px" y="0px"
	 viewBox="0 0 36 36" style="enable-background:new 0 0 36 36;" xml:space="preserve">
<style type="text/css">
	.st0{fill:none;}
	.st1{fill:none;stroke:#5E5EDD;stroke-width:1.3333;stroke-linecap:round;}
</style>
<rect class="st0" width="36" height="36"/>
<polygon class="st1" points="9.5,21 18,12.5 26.5,21 20.95,21 20.95,26.5 15.05,26.5 15.05,21 "/>
<path class="st1" d="M26.5,21l3.29,0c2.11,0,4.02-1.54,4.2-3.65c0.21-2.37-1.66-4.37-3.99-4.37h-2.56c0.03-0.32,0.05-0.64,0.05-0.97
	c0-4.98-4.04-9.02-9.02-9.02c-4.64,0-8.46,3.51-8.96,8.01H6.99C4.24,11.01,2,13.25,2,16.01v0C2,18.76,4.24,21,6.99,21H9.5"/>
<line class="st1" x1="10" y1="33" x2="14" y2="33"/>
<line class="st1" x1="10" y1="30" x2="26" y2="30"/>
<line class="st1" x1="22" y1="33" x2="26" y2="33"/>
<line class="st1" x1="17" y1="33" x2="19" y2="33"/>
</svg>
