<svg width="36" height="36" viewBox="0 0 36 36" fill="none" xmlns="http://www.w3.org/2000/svg">
<path d="M34.8 18.2017C34.8 22.1785 27.2784 25.4017 18 25.4017C8.72161 25.4017 1.20001 22.1785 1.20001 18.2017C1.20001 14.2249 8.72161 11.0017 18 11.0017C27.2784 11.0017 34.8 14.2249 34.8 18.2017Z" stroke="#5E5EDD" stroke-width="1.33333"/>
<path d="M9.99839 32.9735C13.4952 34.8695 19.9104 29.7887 24.3312 21.6311C28.7496 13.4711 29.4984 5.32314 26.0016 3.42954C22.5048 1.53354 16.0896 6.61434 11.6688 14.7719C7.25039 22.9319 6.50159 31.0799 9.99839 32.9735V32.9735Z" stroke="#5E5EDD" stroke-width="1.33333"/>
<path d="M26.0016 32.9735C22.5048 34.8695 16.0896 29.7887 11.6688 21.6311C7.25039 13.4711 6.50159 5.32314 9.99839 3.42954C13.4952 1.53354 19.9104 6.61434 24.3312 14.7719C28.7496 22.9319 29.4984 31.0799 26.0016 32.9735Z" stroke="#5E5EDD" stroke-width="1.33333"/>
<path d="M15.6 18.2015C15.6 18.838 15.8528 19.4485 16.3029 19.8986C16.753 20.3487 17.3635 20.6015 18 20.6015C18.6365 20.6015 19.2469 20.3487 19.697 19.8986C20.1471 19.4485 20.4 18.838 20.4 18.2015C20.4 17.565 20.1471 16.9545 19.697 16.5045C19.2469 16.0544 18.6365 15.8015 18 15.8015C17.3635 15.8015 16.753 16.0544 16.3029 16.5045C15.8528 16.9545 15.6 17.565 15.6 18.2015Z" stroke="#5E5EDD" stroke-width="1.33333"/>
</svg>
