<svg width="32" height="32" viewBox="0 0 32 32" fill="none" xmlns="http://www.w3.org/2000/svg">
<g opacity="0.6" clip-path="url(#clip0_5582_13927)">
<path d="M11.56 9.78218C11.56 10.7624 10.937 11.5644 9.77998 11.5644C8.71199 11.5644 8 10.7624 8 9.87129C8 8.89109 8.71199 8 9.77998 8C10.848 8 11.56 8.80198 11.56 9.78218Z" fill="#484848"/>
<path d="M11.5598 12.4456H8.00977V24H11.5598V12.4456Z" fill="#484848"/>
<path d="M20.0841 12.6238C18.2151 12.6238 17.157 13.6931 16.712 14.406H16.623L16.445 12.8911H13.251C13.251 13.8713 13.34 15.0198 13.34 16.3565V24H16.89V17.6931C16.89 17.3366 16.89 17.0693 16.979 16.802C17.246 16.1782 17.691 15.3763 18.67 15.3763C19.916 15.3763 20.45 16.4456 20.45 17.8614V23.9901H24V17.4159C23.9902 14.1287 22.2992 12.6238 20.0841 12.6238Z" fill="#484848"/>
</g>
<defs>
<clipPath id="clip0_5582_13927">
<rect width="32" height="32" fill="white"/>
</clipPath>
</defs>
</svg>
