<svg width="41" height="41" viewBox="0 0 41 41" fill="none" xmlns="http://www.w3.org/2000/svg">
<g clip-path="url(#clip0_8945_43139)">
<path d="M20.0524 33.8333C23.5886 33.8333 26.98 32.4286 29.4805 29.9281C31.981 27.4276 33.3857 24.0362 33.3857 20.5C33.3857 16.9638 31.981 13.5724 29.4805 11.0719C26.98 8.5714 23.5886 7.16665 20.0524 7.16665C16.5162 7.16665 13.1248 8.5714 10.6243 11.0719C8.12383 13.5724 6.71908 16.9638 6.71908 20.5C6.71908 24.0362 8.12383 27.4276 10.6243 29.9281C13.1248 32.4286 16.5162 33.8333 20.0524 33.8333ZM20.0524 37.1666C10.8474 37.1666 3.38574 29.705 3.38574 20.5C3.38574 11.295 10.8474 3.83331 20.0524 3.83331C29.2574 3.83331 36.7191 11.295 36.7191 20.5C36.7191 29.705 29.2574 37.1666 20.0524 37.1666ZM20.0524 27.1666C21.8205 27.1666 23.5162 26.4643 24.7665 25.214C26.0167 23.9638 26.7191 22.2681 26.7191 20.5C26.7191 18.7319 26.0167 17.0362 24.7665 15.7859C23.5162 14.5357 21.8205 13.8333 20.0524 13.8333C18.2843 13.8333 16.5886 14.5357 15.3384 15.7859C14.0881 17.0362 13.3857 18.7319 13.3857 20.5C13.3857 22.2681 14.0881 23.9638 15.3384 25.214C16.5886 26.4643 18.2843 27.1666 20.0524 27.1666ZM20.0524 30.5C17.4002 30.5 14.8567 29.4464 12.9813 27.571C11.106 25.6957 10.0524 23.1521 10.0524 20.5C10.0524 17.8478 11.106 15.3043 12.9813 13.4289C14.8567 11.5535 17.4002 10.5 20.0524 10.5C22.7046 10.5 25.2481 11.5535 27.1235 13.4289C28.9988 15.3043 30.0524 17.8478 30.0524 20.5C30.0524 23.1521 28.9988 25.6957 27.1235 27.571C25.2481 29.4464 22.7046 30.5 20.0524 30.5ZM20.0524 23.8333C19.1684 23.8333 18.3205 23.4821 17.6954 22.857C17.0703 22.2319 16.7191 21.384 16.7191 20.5C16.7191 19.6159 17.0703 18.7681 17.6954 18.143C18.3205 17.5178 19.1684 17.1666 20.0524 17.1666C20.9365 17.1666 21.7843 17.5178 22.4094 18.143C23.0346 18.7681 23.3857 19.6159 23.3857 20.5C23.3857 21.384 23.0346 22.2319 22.4094 22.857C21.7843 23.4821 20.9365 23.8333 20.0524 23.8333Z" fill="#6F42C1"/>
</g>
<defs>
<clipPath id="clip0_8945_43139">
<rect width="40" height="40" fill="white" transform="translate(0.0527344 0.5)"/>
</clipPath>
</defs>
</svg>
