<svg width="48" height="49" viewBox="0 0 48 49" fill="none" xmlns="http://www.w3.org/2000/svg">
<rect y="0.5" width="48" height="48" rx="24" fill="#6F42C1" fill-opacity="0.2"/>
<path d="M32.0625 17V20.75C32.0625 20.8992 32.0032 21.0423 31.8977 21.1477C31.7922 21.2532 31.6491 21.3125 31.5 21.3125C31.3508 21.3125 31.2077 21.2532 31.1022 21.1477C30.9967 21.0423 30.9375 20.8992 30.9375 20.75V18.3594L26.5218 22.775C26.4702 22.8286 26.4084 22.8712 26.3399 22.9003C26.2714 22.9295 26.1978 22.9445 26.1234 22.9445C26.049 22.9445 25.9754 22.9295 25.9069 22.9003C25.8384 22.8712 25.7766 22.8286 25.725 22.775C25.6714 22.7234 25.6287 22.6615 25.5996 22.5931C25.5705 22.5246 25.5555 22.451 25.5555 22.3766C25.5555 22.3022 25.5705 22.2285 25.5996 22.1601C25.6287 22.0916 25.6714 22.0297 25.725 21.9781L30.1406 17.5625H27.75C27.6008 17.5625 27.4577 17.5032 27.3522 17.3977C27.2467 17.2923 27.1875 17.1492 27.1875 17C27.1875 16.8508 27.2467 16.7077 27.3522 16.6023C27.4577 16.4968 27.6008 16.4375 27.75 16.4375H31.6125L31.7062 16.4656C31.7087 16.4656 31.7111 16.4666 31.7128 16.4684C31.7146 16.4701 31.7156 16.4725 31.7156 16.475L31.8093 16.5219C31.8757 16.5599 31.9307 16.6149 31.9687 16.6812C31.9862 16.7115 32.0019 16.7428 32.0156 16.775H32.025L32.0531 16.8687C32.0637 16.9116 32.0669 16.956 32.0625 17ZM31.5 27.6875C31.3508 27.6875 31.2077 27.7468 31.1022 27.8523C30.9967 27.9577 30.9375 28.1008 30.9375 28.25V30.6406L16.8937 16.6062C16.842 16.5545 16.7806 16.5135 16.7131 16.4855C16.6455 16.4576 16.5731 16.4432 16.5 16.4432C16.3523 16.4432 16.2106 16.5018 16.1062 16.6062C16.0545 16.658 16.0135 16.7193 15.9855 16.7869C15.9575 16.8545 15.9431 16.9269 15.9431 17C15.9431 17.1477 16.0018 17.2893 16.1062 17.3938L30.1406 31.4375H27.75C27.6008 31.4375 27.4577 31.4968 27.3522 31.6023C27.2467 31.7077 27.1875 31.8508 27.1875 32C27.1875 32.1492 27.2467 32.2923 27.3522 32.3977C27.4577 32.5032 27.6008 32.5625 27.75 32.5625H31.6125L31.7062 32.5344H31.7156L31.8093 32.4875C31.8757 32.4494 31.9307 32.3944 31.9687 32.3281L32.0156 32.2344C32.0181 32.2344 32.0205 32.2334 32.0222 32.2316C32.024 32.2299 32.025 32.2275 32.025 32.225L32.0531 32.1312C32.0608 32.0975 32.064 32.0628 32.0625 32.0281V28.25C32.0625 28.1008 32.0032 27.9577 31.8977 27.8523C31.7922 27.7468 31.6491 27.6875 31.5 27.6875ZM21.4781 26.225L16.1062 31.6063C16.0545 31.658 16.0135 31.7193 15.9855 31.7869C15.9575 31.8545 15.9431 31.9269 15.9431 32C15.9431 32.0731 15.9575 32.1455 15.9855 32.2131C16.0135 32.2807 16.0545 32.342 16.1062 32.3937C16.1579 32.4455 16.2193 32.4865 16.2869 32.5145C16.3544 32.5424 16.4268 32.5568 16.5 32.5568C16.5731 32.5568 16.6455 32.5424 16.7131 32.5145C16.7806 32.4865 16.842 32.4455 16.8937 32.3937L22.275 27.0219C22.3806 26.9162 22.44 26.7729 22.44 26.6234C22.44 26.474 22.3806 26.3307 22.275 26.225C22.1693 26.1193 22.026 26.06 21.8765 26.06C21.7271 26.06 21.5838 26.1193 21.4781 26.225Z" fill="white"/>
</svg>
