<svg width="480" height="320" viewBox="0 0 480 320" fill="none" xmlns="http://www.w3.org/2000/svg">
<g clip-path="url(#clip0_5838_12237)">
<path style="mix-blend-mode:multiply" d="M278.54 200.91H189.6V229.56H278.54V200.91Z" fill="url(#paint0_linear_5838_12237)"/>
<path style="mix-blend-mode:multiply" d="M364.93 167.45H278.54V229.56H364.93V167.45Z" fill="url(#paint1_linear_5838_12237)"/>
<path d="M278.54 229.57L310.12 211.33V122.59L278.54 140.82V229.57Z" fill="#B9BEE4"/>
<path d="M234.07 203.91L278.54 229.56V140.82L234.07 115.15V203.91Z" fill="#CCD1F6"/>
<path d="M234.07 203.91L189.6 229.56V140.82L234.07 115.15V203.91Z" fill="#B9BEE4"/>
<path d="M189.59 229.57L158.01 211.33V122.59L189.59 140.82V229.57Z" fill="#CCD1F6"/>
<path d="M234.07 115.15L278.54 140.82L310.12 122.59L234.07 78.7L158.01 122.59L189.59 140.82L234.07 115.15Z" fill="#F6F6FB"/>
<path d="M234.07 135.12L192.81 158.94V142.67L234.07 118.85V135.12Z" fill="#CED3F8"/>
<path d="M234.07 151.38L192.81 175.21V158.94L234.07 135.12V151.38Z" fill="#D453B5"/>
<path d="M234.07 167.65L192.81 191.48V175.21L234.07 151.38V167.65Z" fill="#3B3BA3"/>
<path d="M192.81 224.02L234.07 200.19V167.65L192.81 191.48V224.02Z" fill="#2E2E8F"/>
<path d="M234.07 135.12L275.34 158.94V142.67L234.07 118.85V135.12Z" fill="#F6F6FB"/>
<path d="M234.07 151.38L275.34 175.21V158.94L234.07 135.12V151.38Z" fill="#E56EC9"/>
<path d="M234.07 167.65L275.34 191.48V175.21L234.07 151.38V167.65Z" fill="#5E5EDD"/>
<path d="M275.34 224.02L234.07 200.19V167.65L275.34 191.48V224.02Z" fill="#3B3BA3"/>
<path style="mix-blend-mode:multiply" d="M234.07 115.15L278.54 229.56L234.07 203.91V115.15Z" fill="url(#paint2_linear_5838_12237)"/>
<g style="mix-blend-mode:multiply">
<path d="M234.07 118.85L216.96 128.72V125.03L234.07 115.15V118.85Z" fill="#F1F1F6"/>
</g>
<g style="mix-blend-mode:multiply">
<path d="M234.07 118.85L251.19 128.72V125.03L234.07 115.15V118.85Z" fill="#F1F1F6"/>
</g>
<path d="M351.12 90.23C351.243 88.0632 351.872 85.9555 352.958 84.0763C354.043 82.1971 355.554 80.5988 357.37 79.41L398.99 55.41C402.43 53.41 405.24 55.05 405.24 59.02V108.47C405.116 110.631 404.487 112.733 403.404 114.607C402.32 116.481 400.812 118.075 399 119.26L357.38 143.26C353.95 145.26 351.13 143.62 351.13 139.66L351.12 90.23Z" fill="#F1F1F6"/>
<path d="M400.62 53.3499C399.48 52.6199 397.88 52.6799 396.1 53.6999L354.48 77.6999C352.663 78.887 351.15 80.4848 350.064 82.3644C348.979 84.244 348.35 86.3526 348.23 88.5199V138C348.23 140.08 349.01 141.5 350.23 142.11L352.82 143.61C352.233 143.148 351.771 142.546 351.476 141.86C351.18 141.173 351.062 140.424 351.13 139.68V90.2299C351.253 88.0632 351.882 85.9554 352.967 84.0762C354.053 82.197 355.564 80.5987 357.38 79.4099L399 55.4099C400.7 54.4099 402.24 54.3299 403.37 54.9599L400.62 53.3499Z" fill="url(#paint3_linear_5838_12237)"/>
<path d="M359.22 99.4C359.065 99.4015 358.913 99.3513 358.79 99.2573C358.666 99.1633 358.577 99.0308 358.537 98.8807C358.497 98.7307 358.508 98.5715 358.568 98.4284C358.628 98.2852 358.735 98.1662 358.87 98.09L396.79 76.19C396.871 76.1371 396.963 76.1017 397.059 76.0862C397.155 76.0706 397.253 76.0752 397.347 76.0997C397.441 76.1241 397.529 76.1679 397.605 76.2282C397.682 76.2885 397.744 76.3641 397.79 76.45C397.844 76.5311 397.881 76.6228 397.897 76.7191C397.914 76.8153 397.91 76.914 397.885 77.0085C397.86 77.1031 397.816 77.1913 397.755 77.2674C397.694 77.3435 397.617 77.4057 397.53 77.45L359.61 99.35C359.487 99.402 359.352 99.4193 359.22 99.4Z" fill="#CED3F8"/>
<path d="M380.55 86.39C380.588 85.6502 380.801 84.93 381.171 84.2885C381.541 83.647 382.058 83.1026 382.68 82.7C383.85 82.02 384.81 82.57 384.81 83.93C384.768 84.6686 384.553 85.387 384.183 86.0278C383.813 86.6685 383.298 87.2138 382.68 87.62C381.5 88.3 380.55 87.74 380.55 86.39Z" fill="#D453B5"/>
<path d="M359.22 112C359.097 111.999 358.976 111.966 358.869 111.905C358.763 111.843 358.673 111.756 358.61 111.65C358.559 111.568 358.525 111.476 358.51 111.381C358.495 111.285 358.5 111.188 358.524 111.094C358.549 111 358.592 110.913 358.651 110.836C358.711 110.76 358.785 110.697 358.87 110.65L396.79 88.76C396.952 88.6672 397.144 88.6424 397.324 88.6912C397.504 88.74 397.657 88.8582 397.75 89.02C397.843 89.1818 397.868 89.3738 397.819 89.5539C397.77 89.7339 397.652 89.8872 397.49 89.98L359.57 111.88C359.466 111.949 359.345 111.991 359.22 112Z" fill="#CED3F8"/>
<path d="M369.05 105.59C369.089 104.851 369.303 104.131 369.673 103.49C370.043 102.848 370.559 102.304 371.18 101.9C372.36 101.22 373.31 101.77 373.31 103.13C373.271 103.869 373.057 104.589 372.687 105.23C372.317 105.871 371.801 106.416 371.18 106.82C370 107.5 369.05 107 369.05 105.59Z" fill="#5E5EDD"/>
<path d="M359.22 124.54C359.097 124.539 358.976 124.506 358.869 124.445C358.763 124.383 358.673 124.296 358.61 124.19C358.559 124.108 358.525 124.017 358.51 123.921C358.495 123.825 358.5 123.728 358.524 123.634C358.549 123.54 358.592 123.453 358.651 123.376C358.711 123.3 358.785 123.237 358.87 123.19L396.79 101.3C396.952 101.207 397.144 101.182 397.324 101.231C397.504 101.28 397.657 101.398 397.75 101.56C397.843 101.722 397.868 101.914 397.819 102.094C397.77 102.274 397.652 102.427 397.49 102.52L359.57 124.41C359.469 124.487 359.347 124.532 359.22 124.54Z" fill="#CED3F8"/>
<path d="M391.38 105.27C391.419 104.531 391.633 103.811 392.003 103.17C392.373 102.529 392.889 101.984 393.51 101.58C394.68 100.9 395.64 101.45 395.64 102.81C395.598 103.549 395.384 104.268 395.014 104.908C394.644 105.549 394.129 106.095 393.51 106.5C392.33 107.18 391.38 106.63 391.38 105.27Z" fill="#5E5EDD"/>
<path style="mix-blend-mode:multiply" d="M107.19 236.97H67.7402L81.1702 244.73L67.7402 252.49H107.19L120.62 244.73L107.19 236.97Z" fill="url(#paint4_linear_5838_12237)"/>
<path d="M54.2998 208.79L67.7398 216.55V252.49L54.2998 244.73V208.79Z" fill="#5652CC"/>
<path d="M81.1702 208.79L67.7402 216.55V252.49L81.1702 244.73V208.79Z" fill="#423EAF"/>
<path d="M67.7398 201.03L54.2998 208.79L67.7398 216.55L81.1698 208.79L67.7398 201.03Z" fill="#807DFB"/>
<path style="mix-blend-mode:multiply" d="M135.04 253.06H95.5898L109.03 260.81L95.5898 268.57H135.04L148.48 260.81L135.04 253.06Z" fill="url(#paint5_linear_5838_12237)"/>
<path d="M82.1602 232.63L95.5901 240.38V268.57L82.1602 260.81V232.63Z" fill="#D453B5"/>
<path d="M109.03 232.63L95.5898 240.38V268.57L109.03 260.81V232.63Z" fill="#B8429B"/>
<path d="M95.5901 224.87L82.1602 232.63L95.5901 240.38L109.03 232.63L95.5901 224.87Z" fill="#E56EC9"/>
<path style="mix-blend-mode:multiply" d="M151.3 269.14H123.45L136.88 276.89L123.45 284.65H151.3L164.74 276.89L151.3 269.14Z" fill="url(#paint6_linear_5838_12237)"/>
<path d="M110.01 254.09L123.45 261.85V284.65L110.01 276.89V254.09Z" fill="#CED3F8"/>
<path d="M136.88 254.09L123.45 261.85V284.65L136.88 276.89V254.09Z" fill="#BBC0E6"/>
<path d="M123.45 246.34L110.01 254.09L123.45 261.85L136.88 254.09L123.45 246.34Z" fill="#F6F6FB"/>
<path d="M412 176.48C412.17 175.04 407.19 177.98 407.39 179.88C407.55 181.43 408 182.79 406.44 183.76C405.89 184.19 404.05 187.2 406.89 187.23C410.95 187.28 412.03 186.17 414.97 183.65C413.25 182.66 411.5 181.16 412 176.48Z" fill="#FCD1A9"/>
<path d="M413.21 175.63L411.21 172.79H402.41V178.09C402.41 181.02 404.41 183.39 406.81 183.39C408.051 183.351 409.229 182.834 410.097 181.947C410.966 181.06 411.458 179.872 411.47 178.63L412.54 178.26L413.21 175.63Z" fill="#FCD1A9"/>
<path d="M407 184.8C409.1 184.8 411.7 181.42 411.45 178.63C411.382 179.823 410.896 180.953 410.076 181.822C409.257 182.691 408.157 183.243 406.97 183.38C406.816 183.519 406.653 183.646 406.48 183.76C406.42 183.799 406.369 183.85 406.33 183.91C406.32 184.33 406.6 184.8 407 184.8Z" fill="#F2C39D"/>
<path d="M402.89 170.4C402.09 170.26 402.01 169.59 405.28 168.46C407.17 167.53 409.86 167.24 411.6 168.32C413.96 169.78 414.67 171.92 414.25 174.61C413.874 176.481 413.144 178.263 412.1 179.86C411.84 180.13 411.8 178.86 412.01 177.97C412.179 177.737 412.286 177.465 412.32 177.18C412.94 174.45 411.27 174.85 411.04 175.09C410.53 175.3 411.52 177.56 410.04 177.33C409.31 177.23 409.41 175.18 409.41 174.46L409.08 174.55C407.83 175.25 403.59 175.75 405.95 174.28C404.3 174.28 402.07 175.03 401.31 173.99C400.38 172.75 401.82 171.4 402.89 170.4Z" fill="#20196F"/>
<path style="mix-blend-mode:multiply" d="M451.52 247.62H383.52V284.65H451.52V247.62Z" fill="url(#paint7_linear_5838_12237)"/>
<path style="mix-blend-mode:multiply" d="M368.3 243.35H404.15L401.38 248.43H368.3V243.35Z" fill="url(#paint8_linear_5838_12237)"/>
<path d="M406.41 242C407.75 242.22 408.13 244.37 407.47 245.72C407.035 246.094 406.542 246.395 406.01 246.61C404.332 247.327 402.608 247.932 400.85 248.42C399.91 248.49 397.8 248.14 397.63 246.52C397.79 245.52 398.63 245.26 399.63 244.66C400.96 243.87 402.1 242.72 403.17 242.2C404.229 241.937 405.327 241.87 406.41 242Z" fill="url(#paint9_linear_5838_12237)"/>
<path d="M400.88 248C402.691 247.507 404.465 246.889 406.19 246.15C406.716 245.935 407.206 245.638 407.64 245.27C407.598 245.432 407.541 245.589 407.47 245.74C407.035 246.114 406.542 246.415 406.01 246.63C404.332 247.347 402.608 247.952 400.85 248.44C399.91 248.51 397.8 248.16 397.63 246.54V246.44C398.1 247.76 400 248.07 400.88 248Z" fill="#131147"/>
<path d="M403.55 240.59C404.52 240.879 405.468 241.233 406.39 241.65C406.371 241.863 406.409 242.077 406.5 242.27L406.55 242.36C406.95 242.75 407.37 243.43 406.15 243.82C403.78 244.56 401.76 242.97 402.69 242.44C403.32 242.08 403.47 241.09 403.55 240.59Z" fill="white"/>
<path d="M402.29 242.76C402.47 242.52 402.88 241.9 403.6 242.41C403.896 242.583 404.133 242.839 404.283 243.147C404.432 243.455 404.487 243.801 404.44 244.14C404.35 244.68 402.79 244.28 402.73 244.2C402.67 244.12 402.29 242.76 402.29 242.76Z" fill="url(#paint10_linear_5838_12237)"/>
<path d="M407.39 209.57C405.39 215.35 401.67 219.97 401.87 224.37C402.23 232.48 402.39 236.43 402.47 242.53C403.64 243.98 406.61 243.61 407.24 242.53C408.01 237 409.56 231.6 408.87 225.18C412.51 219.4 416.81 217.11 416.06 210.86C414.3 211.38 409.15 209 407.39 209.57Z" fill="url(#paint11_linear_5838_12237)"/>
<path style="mix-blend-mode:multiply" d="M378.09 251.22H415.89L412.97 256.34H378.09V251.22Z" fill="url(#paint12_linear_5838_12237)"/>
<path d="M418.28 249.58C419.68 249.81 420.09 252.07 419.39 253.49C418.933 253.889 418.412 254.211 417.85 254.44C416.081 255.195 414.264 255.829 412.41 256.34C411.41 256.42 409.2 256.05 409.02 254.34C409.19 253.34 410.02 253.02 411.14 252.34C412.54 251.51 413.74 250.34 414.87 249.75C415.987 249.484 417.143 249.426 418.28 249.58Z" fill="url(#paint13_linear_5838_12237)"/>
<path d="M412.45 255.88C414.355 255.356 416.222 254.704 418.04 253.93C418.594 253.698 419.109 253.385 419.57 253C419.522 253.168 419.462 253.331 419.39 253.49C418.933 253.89 418.412 254.211 417.85 254.44C416.081 255.195 414.264 255.829 412.41 256.34C411.41 256.42 409.2 256.05 409.02 254.34C409.02 254.34 409.02 254.28 409.02 254.24C409.51 255.64 411.51 256 412.45 255.88Z" fill="#131147"/>
<path d="M415.25 248.08C416.273 248.384 417.275 248.755 418.25 249.19C418.238 249.416 418.279 249.643 418.37 249.85L418.42 249.95C418.84 250.35 419.29 251.07 418 251.48C415.5 252.27 413.37 250.59 414.35 250.03C415 249.65 415.17 248.61 415.25 248.08Z" fill="white"/>
<path d="M413.93 250.36C413.984 250.233 414.066 250.12 414.17 250.03C414.274 249.94 414.398 249.875 414.531 249.84C414.665 249.806 414.804 249.802 414.939 249.83C415.074 249.857 415.201 249.916 415.31 250C415.622 250.18 415.873 250.45 416.03 250.775C416.186 251.099 416.242 251.463 416.19 251.82C416.1 252.39 414.46 251.97 414.39 251.88C414.32 251.79 413.93 250.36 413.93 250.36Z" fill="url(#paint14_linear_5838_12237)"/>
<path d="M414.7 206.14C414.7 213.82 414.62 219.81 414.62 226.52C414.62 234.19 414.04 243.7 414.12 250.12C415.35 251.65 418.48 251.27 419.12 250.12C419.94 244.28 421.76 235.4 421.3 229.03C423.25 220.64 425.12 210.76 424.3 204.18C422.49 204.74 416.56 205.55 414.7 206.14Z" fill="url(#paint15_linear_5838_12237)"/>
<path d="M389.22 207.84C388.479 207.641 387.814 207.227 387.309 206.65C386.803 206.074 386.48 205.36 386.38 204.6C386.824 204.515 387.283 204.564 387.698 204.743C388.114 204.921 388.466 205.219 388.71 205.6C388.95 205.916 389.119 206.279 389.207 206.665C389.295 207.051 389.299 207.452 389.22 207.84Z" fill="#423EAF"/>
<path d="M388.16 204.35L386.98 205.05C386.358 205.248 385.7 205.307 385.052 205.224C384.404 205.141 383.783 204.918 383.23 204.57C382.03 203.76 382.23 205.8 383.49 206.14C384.75 206.48 384.89 206.98 383.05 207.69C382.299 207.983 381.63 208.453 381.1 209.06C380.55 209.88 380.1 211.53 381.31 212.06C382.31 212.49 384.69 210.81 385.42 210.34C387.42 209.03 386.91 208.69 388.03 207.87C389.15 207.05 389.41 207.03 389.41 207.03L388.16 204.35Z" fill="#FCD1A9"/>
<path d="M405.38 184.62C402.62 186.16 398.38 196.08 397.2 197.62C396.02 199.16 386.38 204.62 386.38 204.62C386.787 204.624 387.188 204.714 387.557 204.884C387.927 205.053 388.256 205.299 388.524 205.605C388.792 205.911 388.993 206.27 389.113 206.658C389.233 207.047 389.269 207.456 389.22 207.86C390.33 207.24 397.97 204.17 401.48 200.92C403.319 199.171 404.782 197.064 405.78 194.73C408.48 187.94 405.38 184.62 405.38 184.62Z" fill="url(#paint16_linear_5838_12237)"/>
<path d="M419.7 187.45C418.08 185.45 414.09 182.58 411.47 182.39C409.524 182.263 407.597 182.841 406.042 184.018C404.486 185.195 403.407 186.892 403 188.8C402.45 191.8 407.93 206.72 407 210.65C407.47 212.72 410.92 213.84 412.36 214.16C418.64 215.53 424.98 214.65 425.05 210.65C425.29 197.36 422.05 189.79 419.7 187.45Z" fill="url(#paint17_linear_5838_12237)"/>
<path d="M383.52 187.13L416.55 206.2L383.52 225.28L350.49 206.2L383.52 187.13Z" fill="#F6F6FB"/>
<path d="M350.49 206.2L383.52 225.28V284.65L350.49 265.58V206.2Z" fill="#D1D7F3"/>
<path d="M416.55 206.2L383.52 225.28V284.65L416.55 265.58V206.2Z" fill="#BBC0E6"/>
<path d="M410.82 216.52C410.64 216.78 410.15 219.6 412.3 220.04C412.568 219.742 412.746 219.375 412.812 218.98C412.879 218.585 412.832 218.179 412.677 217.81C412.522 217.441 412.265 217.124 411.936 216.895C411.607 216.667 411.22 216.537 410.82 216.52Z" fill="#423EAF"/>
<path d="M412 216.29L410.81 216.99C410.187 217.185 409.53 217.243 408.882 217.16C408.235 217.077 407.614 216.855 407.06 216.51C405.86 215.7 406.06 217.73 407.32 218.08C408.58 218.43 408.72 218.92 406.88 219.63C406.151 219.927 405.506 220.397 405 221C404.45 221.82 404 223.47 405.21 224C406.21 224.42 408.59 222.75 409.32 222.28C411.32 220.97 410.81 220.62 411.92 219.81C412.327 219.444 412.798 219.156 413.31 218.96L412 216.29Z" fill="#FCD1A9"/>
<path d="M416.83 187.55C418.15 187.01 420.53 186.67 421.95 190.75C422.75 193.07 423.44 201.2 422.39 205.31C420.97 210.93 417.44 216.75 412.3 220.04C412.557 219.376 412.547 218.638 412.271 217.981C411.995 217.325 411.475 216.801 410.82 216.52C414.36 212.52 416.82 207.26 416.82 204.68C416.75 200.632 416.383 196.594 415.72 192.6C415.09 189.86 415.53 188.09 416.83 187.55Z" fill="url(#paint18_linear_5838_12237)"/>
<path d="M231.51 252.06L242.27 258.27L231.52 264.48L220.76 258.27L231.51 252.06Z" fill="#F6F6FB"/>
<path d="M220.76 258.27L231.52 264.48V276.89L220.76 270.69V258.27Z" fill="#CED3F8"/>
<path d="M242.27 258.27L231.52 264.48V276.89L242.27 270.69V258.27Z" fill="#BBC0E6"/>
<path style="mix-blend-mode:multiply" d="M231.52 276.89H259.24V264.48H242.27V270.69L231.52 276.89Z" fill="url(#paint19_linear_5838_12237)"/>
<path d="M258.57 41.74L269.32 47.94L258.57 54.15L247.82 47.94L258.57 41.74Z" fill="#E56EC9"/>
<path d="M247.82 47.9399L258.57 54.1499V66.5599L247.82 60.3599V47.9399Z" fill="#D453B5"/>
<path d="M269.32 47.9399L258.57 54.1499V66.5599L269.32 60.3599V47.9399Z" fill="#B8429B"/>
<path style="mix-blend-mode:multiply" d="M258.57 66.5599H286.29V54.1499H269.32V60.3599L258.57 66.5599Z" fill="url(#paint20_linear_5838_12237)"/>
<path d="M136.16 106.46L105.33 88.66C103.894 87.9349 102.309 87.5571 100.7 87.5571C99.0917 87.5571 97.5058 87.9349 96.0701 88.66L65.7401 106.18C63.1901 107.65 63.1901 110.05 65.7401 111.52L94.4901 128.12V130.42H101C102.692 130.492 104.373 130.112 105.87 129.32L136.21 111.81C138.7 110.34 138.7 107.93 136.16 106.46Z" fill="url(#paint21_linear_5838_12237)"/>
<path d="M98.7498 125.15C97.3159 125.875 95.7316 126.253 94.1248 126.253C92.518 126.253 90.9337 125.875 89.4998 125.15L58.6698 107.35C56.1198 105.88 56.1198 103.48 58.6698 102.01L88.9998 84.4901C90.4355 83.765 92.0214 83.3872 93.6298 83.3872C95.2382 83.3872 96.8242 83.765 98.2598 84.4901L129.09 102.29C131.63 103.76 131.63 106.17 129.09 107.64L98.7498 125.15Z" fill="#F6F6FB"/>
<path d="M56.7598 108.83C56.7852 109.423 56.9768 109.998 57.3127 110.487C57.6486 110.977 58.1154 111.363 58.6598 111.6L89.4998 129.4C90.9337 130.125 92.518 130.503 94.1248 130.503C95.7316 130.503 97.3158 130.125 98.7498 129.4L129.09 111.89C129.639 111.649 130.109 111.257 130.446 110.759C130.782 110.262 130.971 109.68 130.99 109.08V105.08C130.908 105.628 130.692 106.147 130.361 106.59C130.029 107.033 129.592 107.387 129.09 107.62L98.7498 125.15C97.3158 125.875 95.7316 126.253 94.1248 126.253C92.518 126.253 90.9337 125.875 89.4998 125.15L58.6698 107.35C58.149 107.114 57.6988 106.747 57.3638 106.284C57.0287 105.821 56.8205 105.278 56.7598 104.71V108.83Z" fill="url(#paint22_linear_5838_12237)"/>
<path d="M129.09 102.29L98.2602 84.4901C96.8245 83.765 95.2386 83.3872 93.6302 83.3872C92.0218 83.3872 90.4359 83.765 89.0002 84.4901L64.1802 98.8201C64.3002 98.9101 64.4302 98.9901 64.5602 99.0701L93.3102 115.67V118H99.7702C101.461 118.075 103.142 117.699 104.64 116.91L129.47 102.58C129.35 102.45 129.22 102.37 129.09 102.29Z" fill="url(#paint23_linear_5838_12237)"/>
<path d="M97.5801 112.7C96.1437 113.423 94.558 113.799 92.9501 113.799C91.3421 113.799 89.7564 113.423 88.3201 112.7L57.4901 94.89C55.0001 93.42 55.0001 91 57.4901 89.55L87.8301 72C89.264 71.275 90.8483 70.8972 92.4551 70.8972C94.0619 70.8972 95.6461 71.275 97.0801 72L127.91 89.8C130.46 91.27 130.46 93.67 127.91 95.14L97.5801 112.7Z" fill="#F6F6FB"/>
<path d="M55.5898 96.37C55.6157 96.9645 55.8074 97.5399 56.1432 98.0311C56.4789 98.5224 56.9454 98.9099 57.4898 99.15L88.3198 117C89.7555 117.725 91.3414 118.103 92.9498 118.103C94.5582 118.103 96.1442 117.725 97.5798 117L127.91 99.48C128.46 99.2424 128.931 98.8528 129.268 98.3568C129.604 97.8608 129.792 97.2791 129.81 96.68V92.68C129.734 93.2282 129.521 93.7483 129.19 94.1923C128.86 94.6363 128.423 94.9898 127.92 95.22L97.5798 112.7C96.1435 113.423 94.5578 113.799 92.9498 113.799C91.3419 113.799 89.7562 113.423 88.3198 112.7L57.4898 94.89C56.9705 94.6565 56.5216 94.2906 56.1882 93.8291C55.8547 93.3675 55.6484 92.8264 55.5898 92.26V96.37Z" fill="url(#paint24_linear_5838_12237)"/>
<path d="M104.72 89.6499L104.03 88.6499L79.48 94.1699L80.18 95.1699L104.72 89.6499ZM91.89 98.2199L103.49 98.4999L103 91.7999H101.09L101.48 97.2999L92 97.1199L91.89 98.2199ZM80.41 91.5899H82.31L81.92 86.0899L91.45 86.3199L91.53 85.2099L79.93 84.9399L80.41 91.5899Z" fill="#DAE0F5"/>
</g>
<defs>
<linearGradient id="paint0_linear_5838_12237" x1="189.6" y1="215.23" x2="278.54" y2="215.23" gradientUnits="userSpaceOnUse">
<stop stop-color="#DFE4F4"/>
<stop offset="0.34" stop-color="#E4E8F6"/>
<stop offset="0.74" stop-color="#F2F4FB"/>
<stop offset="1" stop-color="white"/>
</linearGradient>
<linearGradient id="paint1_linear_5838_12237" x1="278.54" y1="198.5" x2="364.93" y2="198.5" gradientUnits="userSpaceOnUse">
<stop stop-color="#DFE4F4"/>
<stop offset="1" stop-color="white"/>
</linearGradient>
<linearGradient id="paint2_linear_5838_12237" x1="234.07" y1="172.35" x2="278.54" y2="172.35" gradientUnits="userSpaceOnUse">
<stop stop-color="#F1F1F6"/>
<stop offset="0.55" stop-color="#F6F6F9"/>
<stop offset="1" stop-color="white"/>
</linearGradient>
<linearGradient id="paint3_linear_5838_12237" x1="338.52" y1="135.37" x2="389.56" y2="46.9599" gradientUnits="userSpaceOnUse">
<stop offset="0.46" stop-color="#E56EC9"/>
<stop offset="0.51" stop-color="#D35EB7"/>
<stop offset="0.63" stop-color="#A33489"/>
</linearGradient>
<linearGradient id="paint4_linear_5838_12237" x1="67.7402" y1="244.73" x2="120.62" y2="244.73" gradientUnits="userSpaceOnUse">
<stop stop-color="#C4C9E5"/>
<stop offset="0.24" stop-color="#DDE0F0"/>
<stop offset="0.54" stop-color="#F6F7FB"/>
<stop offset="0.72" stop-color="white"/>
</linearGradient>
<linearGradient id="paint5_linear_5838_12237" x1="95.5898" y1="260.81" x2="148.48" y2="260.81" gradientUnits="userSpaceOnUse">
<stop stop-color="#C4C9E5"/>
<stop offset="0.24" stop-color="#DDE0F0"/>
<stop offset="0.54" stop-color="#F6F7FB"/>
<stop offset="0.72" stop-color="white"/>
</linearGradient>
<linearGradient id="paint6_linear_5838_12237" x1="123.45" y1="276.89" x2="164.74" y2="276.89" gradientUnits="userSpaceOnUse">
<stop stop-color="#C4C9E5"/>
<stop offset="0.24" stop-color="#DDE0F0"/>
<stop offset="0.54" stop-color="#F6F7FB"/>
<stop offset="0.72" stop-color="white"/>
</linearGradient>
<linearGradient id="paint7_linear_5838_12237" x1="383.52" y1="266.14" x2="451.51" y2="266.14" gradientUnits="userSpaceOnUse">
<stop stop-color="#C6CBE7"/>
<stop offset="0.32" stop-color="#DDE0F1"/>
<stop offset="0.74" stop-color="#F6F7FB"/>
<stop offset="1" stop-color="white"/>
</linearGradient>
<linearGradient id="paint8_linear_5838_12237" x1="404.15" y1="245.89" x2="368.3" y2="245.89" gradientUnits="userSpaceOnUse">
<stop stop-color="#C4CAE9"/>
<stop offset="0.09" stop-color="#CED3ED"/>
<stop offset="0.41" stop-color="#E9EBF7"/>
<stop offset="0.69" stop-color="#F9FAFD"/>
<stop offset="0.9" stop-color="white"/>
</linearGradient>
<linearGradient id="paint9_linear_5838_12237" x1="404.83" y1="247.6" x2="401.25" y2="243.34" gradientUnits="userSpaceOnUse">
<stop stop-color="#423EAF"/>
<stop offset="0.49" stop-color="#302B8E"/>
<stop offset="1" stop-color="#20196F"/>
</linearGradient>
<linearGradient id="paint10_linear_5838_12237" x1="406.24" y1="246.37" x2="402.38" y2="242.49" gradientUnits="userSpaceOnUse">
<stop stop-color="#423EAF"/>
<stop offset="0.49" stop-color="#302B8E"/>
<stop offset="1" stop-color="#20196F"/>
</linearGradient>
<linearGradient id="paint11_linear_5838_12237" x1="402.57" y1="225.35" x2="412.56" y2="227.7" gradientUnits="userSpaceOnUse">
<stop stop-color="#20196F"/>
<stop offset="0.36" stop-color="#312B8D"/>
<stop offset="1" stop-color="#5652CC"/>
</linearGradient>
<linearGradient id="paint12_linear_5838_12237" x1="415.89" y1="253.78" x2="378.09" y2="253.78" gradientUnits="userSpaceOnUse">
<stop stop-color="#C4CAE9"/>
<stop offset="0.09" stop-color="#CED3ED"/>
<stop offset="0.41" stop-color="#E9EBF7"/>
<stop offset="0.69" stop-color="#F9FAFD"/>
<stop offset="0.9" stop-color="white"/>
</linearGradient>
<linearGradient id="paint13_linear_5838_12237" x1="410.82" y1="255.77" x2="419.97" y2="249.8" gradientUnits="userSpaceOnUse">
<stop stop-color="#20196F"/>
<stop offset="0.85" stop-color="#322A8E"/>
<stop offset="1" stop-color="#362E94"/>
</linearGradient>
<linearGradient id="paint14_linear_5838_12237" x1="409.93" y1="254.41" x2="419.08" y2="248.43" gradientUnits="userSpaceOnUse">
<stop stop-color="#20196F"/>
<stop offset="0.85" stop-color="#322A8E"/>
<stop offset="1" stop-color="#362E94"/>
</linearGradient>
<linearGradient id="paint15_linear_5838_12237" x1="411.66" y1="225.62" x2="423.96" y2="228.52" gradientUnits="userSpaceOnUse">
<stop stop-color="#20196F"/>
<stop offset="0.61" stop-color="#342F95"/>
<stop offset="1" stop-color="#423EAF"/>
</linearGradient>
<linearGradient id="paint16_linear_5838_12237" x1="406.88" y1="196.23" x2="386.38" y2="196.23" gradientUnits="userSpaceOnUse">
<stop offset="0.22" stop-color="#423EAF"/>
<stop offset="0.25" stop-color="#4440B2"/>
<stop offset="0.55" stop-color="#5955D0"/>
<stop offset="0.81" stop-color="#6662E2"/>
<stop offset="1" stop-color="#6B67E9"/>
</linearGradient>
<linearGradient id="paint17_linear_5838_12237" x1="425.07" y1="198.56" x2="403" y2="198.56" gradientUnits="userSpaceOnUse">
<stop stop-color="#6B67E9"/>
<stop offset="0.1" stop-color="#6864E5"/>
<stop offset="0.62" stop-color="#5B57D3"/>
<stop offset="1" stop-color="#5652CC"/>
</linearGradient>
<linearGradient id="paint18_linear_5838_12237" x1="414.14" y1="220.51" x2="421.14" y2="186.9" gradientUnits="userSpaceOnUse">
<stop stop-color="#6B67E9"/>
<stop offset="1" stop-color="#807DFB"/>
</linearGradient>
<linearGradient id="paint19_linear_5838_12237" x1="231.52" y1="270.69" x2="259.24" y2="270.69" gradientUnits="userSpaceOnUse">
<stop stop-color="#DAE0F5"/>
<stop offset="0.31" stop-color="#DFE4F6"/>
<stop offset="0.7" stop-color="#EEF1FB"/>
<stop offset="1" stop-color="white"/>
</linearGradient>
<linearGradient id="paint20_linear_5838_12237" x1="258.57" y1="60.3599" x2="286.29" y2="60.3599" gradientUnits="userSpaceOnUse">
<stop stop-color="#DAE0F5"/>
<stop offset="0.31" stop-color="#DFE4F6"/>
<stop offset="0.7" stop-color="#EEF1FB"/>
<stop offset="1" stop-color="white"/>
</linearGradient>
<linearGradient id="paint21_linear_5838_12237" x1="63.8301" y1="108.99" x2="138.07" y2="108.99" gradientUnits="userSpaceOnUse">
<stop offset="0.43" stop-color="#C4C9E4"/>
<stop offset="0.62" stop-color="#D4D8EB"/>
<stop offset="0.99" stop-color="#FEFEFE"/>
<stop offset="1" stop-color="white"/>
</linearGradient>
<linearGradient id="paint22_linear_5838_12237" x1="130.96" y1="117.861" x2="56.7316" y2="117.854" gradientUnits="userSpaceOnUse">
<stop offset="0.46" stop-color="#E56EC9"/>
<stop offset="0.51" stop-color="#D35EB7"/>
<stop offset="0.63" stop-color="#A33489"/>
</linearGradient>
<linearGradient id="paint23_linear_5838_12237" x1="64.1802" y1="100.68" x2="129.47" y2="100.68" gradientUnits="userSpaceOnUse">
<stop offset="0.43" stop-color="#C4C9E4"/>
<stop offset="0.67" stop-color="#D4D7EA"/>
<stop offset="1" stop-color="#F1F1F6"/>
</linearGradient>
<linearGradient id="paint24_linear_5838_12237" x1="129.782" y1="105.4" x2="55.5586" y2="105.402" gradientUnits="userSpaceOnUse">
<stop offset="0.38" stop-color="#8585FF"/>
<stop offset="0.59" stop-color="#3B3BA3"/>
</linearGradient>
<clipPath id="clip0_5838_12237">
<rect width="480" height="320" fill="white"/>
</clipPath>
</defs>
</svg>
