<svg width="25" height="25" viewBox="0 0 25 25" fill="none" xmlns="http://www.w3.org/2000/svg">
<path d="M4.36015 3.62458L12.5771 1.79858L20.7941 3.62458C21.0162 3.67395 21.2148 3.79755 21.3572 3.97499C21.4995 4.15243 21.5771 4.3731 21.5771 4.60058V14.5876C21.5771 15.5753 21.3332 16.5478 20.867 17.4186C20.4009 18.2894 19.727 19.0317 18.9051 19.5796L12.5771 23.7986L6.24915 19.5796C5.42742 19.0318 4.75361 18.2897 4.2875 17.419C3.82138 16.5484 3.57738 15.5761 3.57715 14.5886V4.60058C3.57719 4.3731 3.65479 4.15243 3.79714 3.97499C3.93949 3.79755 4.13809 3.67395 4.36015 3.62458Z" fill="white"/>
</svg>
