<svg width="32" height="32" viewBox="0 0 32 32" fill="none" xmlns="http://www.w3.org/2000/svg">
<g opacity="0.6" clip-path="url(#clip0_5582_13929)">
<path d="M7 22.2525C8.97455 22.4287 10.7114 21.9463 12.3112 20.7868C11.9638 20.694 11.6713 20.6383 11.3879 20.5456C10.3183 20.2023 9.56875 19.4787 9.10253 18.449C8.95627 18.1336 8.99283 18.1058 9.33107 18.1151C9.68758 18.1244 10.0441 18.1707 10.4646 18.013C9.82471 17.8275 9.31279 17.5399 8.874 17.1225C8.17925 16.4638 7.76788 15.6568 7.69475 14.6827C7.66733 14.2931 7.71303 14.2653 8.06041 14.423C8.39864 14.5807 8.74602 14.6827 9.17566 14.6827C8.91056 14.3766 8.62718 14.154 8.42607 13.8478C7.62162 12.6604 7.4845 11.3988 8.04212 10.063C8.18839 9.71046 8.25238 9.6919 8.4992 9.97948C9.73329 11.3895 11.2233 12.4285 12.9785 13.05C13.7555 13.3283 14.5508 13.5046 15.3736 13.5881C15.7941 13.6345 15.8306 13.5881 15.7849 13.1706C15.6112 11.6864 16.4431 10.1279 17.7869 9.42288C19.1307 8.70858 20.8584 8.91267 21.9463 9.9331C22.1565 10.1279 22.3668 10.1743 22.6319 10.1001C23.1986 9.94237 23.7563 9.73829 24.2773 9.45071C24.3596 9.40433 24.4327 9.32084 24.579 9.3765C24.3322 10.1743 23.8294 10.7773 23.2078 11.2968C23.8294 11.2225 24.4053 11.037 24.9995 10.8051C25.0086 11.0185 24.8898 11.1205 24.8075 11.2318C24.4419 11.7142 24.0305 12.1595 23.546 12.5306C23.3175 12.6975 23.2443 12.8923 23.2443 13.1799C23.2809 15.6753 22.4947 17.911 21.023 19.8869C19.277 22.2339 16.9185 23.5605 14.0481 23.913C11.6713 24.2098 9.44077 23.746 7.36566 22.54C7.29253 22.4937 7.21939 22.4473 7.14626 22.4009C7.10056 22.3731 7.08227 22.3452 7 22.2525Z" fill="#484848"/>
</g>
<defs>
<clipPath id="clip0_5582_13929">
<rect width="32" height="32" fill="white"/>
</clipPath>
</defs>
</svg>
