<svg width="480" height="320" viewBox="0 0 480 320" fill="none" xmlns="http://www.w3.org/2000/svg">
<g clip-path="url(#clip0_5556_20462)">
<path style="mix-blend-mode:multiply" d="M433.52 149.2L424.13 143.77C421.33 142.16 414.47 140.84 408.87 140.84H185.51C179.91 140.84 62.64 214.2 62.64 214.2C59.84 215.82 59.84 218.46 62.64 220.08L233.64 318.79C235.217 319.62 236.978 320.036 238.76 320H243.21L363.57 250.51L368.57 247.64H433.57L433.52 149.2Z" fill="url(#paint0_linear_5556_20462)"/>
<path d="M356.74 239.39C356.74 242.62 354.45 243.94 351.65 242.32L180.65 143.62C179.171 142.65 177.94 141.347 177.056 139.815C176.172 138.284 175.66 136.566 175.56 134.8V5.84004C175.56 2.61004 177.85 1.29004 180.65 2.91004L351.65 101.62C353.13 102.587 354.362 103.888 355.246 105.418C356.13 106.948 356.642 108.665 356.74 110.43V239.39Z" fill="#3B3BA3"/>
<path d="M355.49 99.4L184.52 0.689992C184.003 0.312845 183.393 0.0829837 182.756 0.0248734C182.118 -0.033237 181.477 0.082578 180.9 0.359992L177.24 2.47999C177.803 2.26175 178.411 2.18678 179.009 2.26184C179.608 2.3369 180.179 2.55963 180.67 2.90999L351.67 101.62C353.15 102.586 354.382 103.887 355.266 105.418C356.15 106.948 356.662 108.665 356.76 110.43V239.43C356.824 240.056 356.722 240.688 356.464 241.262C356.206 241.836 355.801 242.332 355.29 242.7L358.94 240.58C359.94 240.1 360.61 238.92 360.61 237.21V108.21C360.508 106.443 359.992 104.724 359.103 103.193C358.213 101.663 356.975 100.363 355.49 99.4Z" fill="url(#paint1_linear_5556_20462)"/>
<path d="M290.61 72.25L180.68 8.78003V135.72L351.65 234.43V107.49L290.61 72.25Z" fill="white"/>
<path d="M235.72 311.49C234.142 312.289 232.398 312.705 230.63 312.705C228.862 312.705 227.118 312.289 225.54 311.49L54.54 212.78C51.74 211.17 51.74 208.52 54.54 206.91L171.1 139.63C172.678 138.831 174.422 138.415 176.19 138.415C177.958 138.415 179.702 138.831 181.28 139.63L352.28 238.34C355.08 239.95 355.08 242.6 352.28 244.21L235.72 311.49Z" fill="#F1F1F6"/>
<path d="M181.46 153.63L173.1 148.8L177.28 146.38L185.64 151.21L181.46 153.63Z" fill="#DAE0F5"/>
<path d="M195.54 161.76L187.18 156.93L191.36 154.51L199.72 159.34L195.54 161.76Z" fill="#DAE0F5"/>
<path d="M209.62 169.88L201.26 165.06L205.44 162.64L213.81 167.47L209.62 169.88Z" fill="#DAE0F5"/>
<path d="M223.71 178.02L215.34 173.19L219.53 170.78L227.89 175.6L223.71 178.02Z" fill="#DAE0F5"/>
<path d="M237.79 186.15L229.43 181.32L233.61 178.91L241.97 183.73L237.79 186.15Z" fill="#DAE0F5"/>
<path d="M251.87 194.28L243.51 189.45L247.69 187.03L256.05 191.86L251.87 194.28Z" fill="#DAE0F5"/>
<path d="M265.95 202.41L257.59 197.58L261.77 195.17L270.13 199.99L265.95 202.41Z" fill="#DAE0F5"/>
<path d="M280.04 210.54L271.68 205.71L275.86 203.3L284.22 208.12L280.04 210.54Z" fill="#DAE0F5"/>
<path d="M294.12 218.67L285.76 213.84L289.94 211.43L298.3 216.25L294.12 218.67Z" fill="#DAE0F5"/>
<path d="M308.2 226.8L299.84 221.97L304.02 219.56L312.38 224.38L308.2 226.8Z" fill="#DAE0F5"/>
<path d="M322.28 234.93L313.92 230.1L318.1 227.69L326.46 232.51L322.28 234.93Z" fill="#DAE0F5"/>
<path d="M336.37 243.06L328 238.23L332.19 235.82L340.55 240.65L336.37 243.06Z" fill="#DAE0F5"/>
<path d="M174.05 165.61L159.02 156.93L167.38 152.1L182.41 160.78L174.05 165.61Z" fill="#DAE0F5"/>
<path d="M166.27 176.7L145.52 164.72L153.88 159.89L174.63 171.88L166.27 176.7Z" fill="#DAE0F5"/>
<path d="M157.91 188.14L131.44 172.85L139.8 168.02L166.27 183.31L157.91 188.14Z" fill="#DAE0F5"/>
<path d="M129.43 191.37L114.4 182.69L125.72 176.16L140.75 184.83L129.43 191.37Z" fill="#DAE0F5"/>
<path d="M150.18 203.35L135.15 194.67L146.47 188.14L161.5 196.81L150.18 203.35Z" fill="#DAE0F5"/>
<path d="M170.94 215.33L155.9 206.66L167.22 200.12L182.25 208.8L170.94 215.33Z" fill="#DAE0F5"/>
<path d="M242.49 256.65L227.46 247.97L238.78 241.43L253.81 250.11L242.49 256.65Z" fill="#DAE0F5"/>
<path d="M277.66 276.95L248.18 259.93L259.5 253.4L288.98 270.42L277.66 276.95Z" fill="#DAE0F5"/>
<path d="M221.77 244.69L176.66 218.63L187.98 212.1L233.09 238.15L221.77 244.69Z" fill="#DAE0F5"/>
<path d="M192.07 176.01L179.77 168.91L188.13 164.08L200.43 171.19L192.07 176.01Z" fill="#DAE0F5"/>
<path d="M184.3 187.11L171.99 180L180.35 175.18L192.66 182.28L184.3 187.11Z" fill="#DAE0F5"/>
<path d="M176.32 198.32L164.02 191.22L172.38 186.39L184.68 193.49L176.32 198.32Z" fill="#DAE0F5"/>
<path d="M194.34 208.72L182.04 201.62L190.4 196.79L202.7 203.9L194.34 208.72Z" fill="#DAE0F5"/>
<path d="M212.36 219.13L200.06 212.03L208.42 207.2L220.73 214.3L212.36 219.13Z" fill="#DAE0F5"/>
<path d="M230.39 229.54L218.09 222.44L226.45 217.6L238.75 224.71L230.39 229.54Z" fill="#DAE0F5"/>
<path d="M248.41 239.94L236.11 232.84L244.47 228.01L256.77 235.12L248.41 239.94Z" fill="#DAE0F5"/>
<path d="M266.43 250.35L254.13 243.25L262.49 238.41L274.8 245.52L266.43 250.35Z" fill="#DAE0F5"/>
<path d="M295.09 266.89L272.16 253.65L280.52 248.82L303.45 262.06L295.09 266.89Z" fill="#DAE0F5"/>
<path d="M202.32 197.51L190.02 190.41L198.38 185.58L210.68 192.69L202.32 197.51Z" fill="#DAE0F5"/>
<path d="M220.34 207.92L208.04 200.81L216.4 195.99L228.7 203.09L220.34 207.92Z" fill="#DAE0F5"/>
<path d="M238.36 218.33L226.06 211.22L234.42 206.39L246.73 213.5L238.36 218.33Z" fill="#DAE0F5"/>
<path d="M256.39 228.73L244.09 221.63L252.45 216.8L264.75 223.9L256.39 228.73Z" fill="#DAE0F5"/>
<path d="M274.41 239.14L262.11 232.03L270.47 227.21L282.77 234.31L274.41 239.14Z" fill="#DAE0F5"/>
<path d="M308.79 258.98L280.13 242.44L288.49 237.61L317.15 254.16L308.79 258.98Z" fill="#DAE0F5"/>
<path d="M210.09 186.42L197.79 179.32L206.15 174.49L218.46 181.59L210.09 186.42Z" fill="#DAE0F5"/>
<path d="M228.12 196.82L215.82 189.72L224.18 184.89L236.48 192L228.12 196.82Z" fill="#DAE0F5"/>
<path d="M246.14 207.23L233.84 200.13L242.2 195.3L254.5 202.4L246.14 207.23Z" fill="#DAE0F5"/>
<path d="M264.16 217.64L251.86 210.53L260.22 205.7L272.52 212.81L264.16 217.64Z" fill="#DAE0F5"/>
<path d="M282.19 228.04L269.88 220.94L278.25 216.11L290.55 223.21L282.19 228.04Z" fill="#DAE0F5"/>
<path d="M300.21 238.45L287.91 231.34L296.27 226.52L308.57 233.62L300.21 238.45Z" fill="#DAE0F5"/>
<path d="M322.28 251.19L305.93 241.75L314.29 236.92L330.64 246.36L322.28 251.19Z" fill="#DAE0F5"/>
<path d="M330.26 230.32L195.16 152.32L199.22 149.98L334.32 227.98L330.26 230.32Z" fill="#5E5EDD"/>
<path d="M221.77 254.76L152.83 214.96L109.99 239.69L178.93 279.5L221.77 254.76Z" fill="#DAE0F5"/>
<path d="M352.25 244.21L235.72 311.49C233.164 312.782 230.215 313.064 227.46 312.28C227.46 312.28 225.79 311.64 225.54 311.49L54.54 212.78C54.352 212.676 54.1715 212.559 54 212.43L53.87 212.33L53.59 212.09L53.46 211.97C53.36 211.86 53.26 211.76 53.17 211.65C53.0764 211.525 52.9897 211.395 52.91 211.26C52.6865 210.891 52.5593 210.471 52.54 210.04V212.5C52.5793 213.142 52.794 213.762 53.1607 214.291C53.5274 214.82 54.0321 215.238 54.62 215.5L225.62 314.21C229.7 316.21 235.52 315.84 237.26 315.46C239 315.08 240.55 314.64 242.37 314.25L352.37 250.76C352.96 250.499 353.468 250.081 353.838 249.553C354.208 249.024 354.427 248.404 354.47 247.76V241.4C354.378 242.022 354.125 242.609 353.735 243.102C353.346 243.595 352.834 243.977 352.25 244.21Z" fill="url(#paint2_linear_5556_20462)"/>
<path d="M282.56 95C282.56 95 277.26 85.34 268.91 80.52L180.68 29.59V8.78003L276.18 63.92C293 75.14 282.56 95 282.56 95Z" fill="url(#paint3_linear_5556_20462)"/>
<path d="M195.332 30.1779C196.781 29.3412 196.781 26.6273 195.331 24.1162C193.881 21.6052 191.531 20.2479 190.082 21.0846C188.633 21.9213 188.633 24.6352 190.083 27.1462C191.532 29.6573 193.883 31.0146 195.332 30.1779Z" fill="white"/>
<path d="M200.5 30.1299C200.5 27.7599 202.16 26.7999 204.21 27.9799C205.292 28.6866 206.192 29.6377 206.838 30.7564C207.484 31.8751 207.858 33.13 207.93 34.4199C207.93 36.7799 206.26 37.7499 204.21 36.5599C203.129 35.8561 202.229 34.9068 201.585 33.7894C200.94 32.6721 200.568 31.4182 200.5 30.1299Z" fill="white"/>
<path d="M212 36.77C212 34.4 213.66 33.44 215.72 34.62C216.8 35.3272 217.699 36.2786 218.343 37.3973C218.988 38.5161 219.36 39.7707 219.43 41.06C219.43 43.43 217.77 44.39 215.72 43.2C214.636 42.4978 213.735 41.5492 213.088 40.4316C212.441 39.314 212.069 38.0593 212 36.77Z" fill="white"/>
<path d="M338.67 173.79L293.99 147.99V97.22L338.67 123.02V173.79Z" fill="#E8ECF7"/>
<path d="M303.69 112.72C303.69 110.53 305.23 109.64 307.12 110.72C308.128 111.376 308.966 112.262 309.564 113.305C310.162 114.348 310.504 115.519 310.56 116.72C310.56 118.91 309.02 119.8 307.12 118.72C306.115 118.062 305.28 117.175 304.684 116.132C304.087 115.09 303.747 113.92 303.69 112.72Z" fill="#8585FF"/>
<g style="mix-blend-mode:multiply">
<path d="M334.81 163.34L323.18 128.58C322.38 126.18 319.98 124.8 319.18 126.27L307.55 147.6L334.81 163.34Z" fill="#DAE0F5"/>
</g>
<g style="mix-blend-mode:multiply">
<path d="M317.58 153.39L309.58 129.39C308.78 126.99 306.38 125.6 305.58 127.08L297.58 141.8L317.58 153.39Z" fill="#DFE4F4"/>
</g>
<path d="M338.67 206.59L293.99 180.79V159.72L338.67 185.52V206.59Z" fill="#E8ECF7"/>
<path d="M287.06 176.79L242.37 150.99V101.81L287.06 127.61V176.79Z" fill="#F6F6FB"/>
<path d="M287.06 114.71L242.37 88.91V76.34L287.06 102.14V114.71Z" fill="#F6F6FB"/>
<g style="mix-blend-mode:multiply">
<path d="M215.36 70.26C214.77 69.73 214.17 69.78 214.01 70.36L207.74 92.89C207.693 93.2601 207.737 93.6363 207.87 93.9851C208.002 94.334 208.219 94.6448 208.5 94.89C209.09 95.41 209.69 95.36 209.85 94.78L216.12 72.26C216.169 71.8897 216.126 71.513 215.993 71.1639C215.86 70.8147 215.643 70.5041 215.36 70.26ZM217.43 78.59L226.62 91.19L217.43 93.19C216.93 93.3 216.8 94.01 217.15 94.79C217.5 95.57 218.15 96.1 218.67 95.99L229.17 93.71C229.47 93.65 229.65 93.36 229.65 92.94C229.626 92.4648 229.459 92.008 229.17 91.63L218.67 77.22C218.17 76.54 217.49 76.29 217.15 76.67C216.81 77.05 216.93 77.91 217.43 78.59ZM193.43 72.05C193.452 72.5256 193.619 72.9829 193.91 73.36L204.41 87.77C204.91 88.45 205.59 88.7 205.93 88.32C206.27 87.94 206.15 87.09 205.65 86.4L196.46 73.8L205.65 71.8C206.15 71.69 206.28 70.98 205.93 70.21C205.58 69.44 204.93 68.89 204.41 69L193.91 71.28C193.63 71.34 193.45 71.63 193.45 72.05H193.43Z" fill="#DAE0F5"/>
</g>
<path d="M162.9 167.86C164.99 171.66 280.36 109.57 277.74 104.81C275.12 100.05 160.82 164.07 162.9 167.86Z" fill="url(#paint4_linear_5556_20462)"/>
<path d="M275 110.22L269.55 113.33H269.44C268.66 113.59 267.3 112.4 266.39 110.68C265.48 108.96 265.39 107.51 266.05 107.13L271.5 104.03C270.84 104.4 270.98 105.94 271.84 107.58C272.7 109.22 274.11 110.48 274.84 110.22H275Z" fill="url(#paint5_linear_5556_20462)"/>
<path d="M271.56 104C272.33 103.74 273.7 104.93 274.61 106.65C275.52 108.37 275.61 109.98 274.84 110.24C274.07 110.5 272.7 109.32 271.84 107.6C270.98 105.88 270.78 104.29 271.56 104Z" fill="white"/>
<path d="M274.67 108.56C272.67 108.29 266.59 99.27 276.45 89.41C284.85 81.02 284.1 76.29 283.45 71.73C294.22 81.73 298.08 94.4 293.38 100.15C288.68 105.9 280.64 109.38 274.67 108.56Z" fill="url(#paint6_linear_5556_20462)"/>
<path d="M293.38 100.15C298.08 94.4 294.22 81.72 283.45 71.73C292.69 81.73 294.18 94.73 283.08 97.64C281.62 98.03 286.17 87.3 285.08 87.82C274.3 96.67 272.73 104.66 274.19 108.37L274.47 108.51C274.54 108.499 274.61 108.499 274.68 108.51C280.64 109.38 288.67 105.9 293.38 100.15Z" fill="#B8429B"/>
<path style="mix-blend-mode:multiply" d="M261.91 225.38H223.32V232.47H261.91V225.38Z" fill="url(#paint7_linear_5556_20462)"/>
<path style="mix-blend-mode:multiply" d="M243.87 215.13H205.29V222.22H243.87V215.13Z" fill="url(#paint8_linear_5556_20462)"/>
<path d="M201.33 220C201.33 214.43 204.86 214.27 204.86 214.27C206.59 214.141 208.283 213.704 209.86 212.98C212.92 211.71 217.24 212.2 214.86 216.65C214.838 216.711 214.808 216.768 214.77 216.82C214.57 217.11 214.302 217.347 213.99 217.51L206.28 222.03C205.09 222.74 201.35 221.19 201.33 220Z" fill="url(#paint9_linear_5556_20462)"/>
<path d="M201.35 219.54C201.41 220.69 205.1 222.21 206.27 221.54L214 217C214.388 216.772 214.753 216.508 215.09 216.21C215.02 216.36 214.96 216.51 214.87 216.67C214.848 216.73 214.818 216.788 214.78 216.84C214.58 217.13 214.312 217.367 214 217.53L206.29 222.05C205.19 222.68 201.84 221.36 201.4 220.24C201.392 220.167 201.392 220.093 201.4 220.02C201.374 219.861 201.357 219.701 201.35 219.54Z" fill="#121047"/>
<path d="M202.76 213.58C204.146 213.761 205.519 214.032 206.87 214.39C206.894 214.687 206.993 214.973 207.16 215.22L207.25 215.33C207.88 215.77 208.52 216.46 207.02 217.4C206.623 217.695 206.133 217.838 205.64 217.803C205.146 217.768 204.682 217.558 204.33 217.21C204.135 216.804 203.835 216.459 203.46 216.21C203.206 216.038 202.921 215.919 202.62 215.86V215.79C202.62 215.79 202.38 213.58 202.76 213.58Z" fill="#FCD1C7"/>
<path d="M204.21 159.1L218.4 159.38C217.1 169.87 214.49 179.38 212.75 189.55C210.87 199.42 208.75 206.35 206.92 214.55C206.25 216.08 203.16 215.55 202.54 214.03C202.034 205.454 202.844 196.851 204.94 188.52C204.56 179.13 204 168.6 204.21 159.1Z" fill="#3B3BA3"/>
<path d="M218.92 230.28C218.92 224.71 222.45 224.55 222.45 224.55C224.18 224.422 225.874 223.985 227.45 223.26C230.52 221.99 234.84 222.48 232.45 226.93C232.427 226.988 232.401 227.045 232.37 227.1C232.166 227.384 231.899 227.617 231.59 227.78L223.87 232.31C222.68 233 218.94 231.43 218.92 230.28Z" fill="url(#paint10_linear_5556_20462)"/>
<path d="M218.94 229.78C219 230.92 222.69 232.45 223.85 231.78L231.57 227.26C231.955 227.023 232.319 226.756 232.66 226.46C232.58 226.62 232.52 226.76 232.43 226.93C232.407 226.988 232.381 227.045 232.35 227.1C232.146 227.384 231.879 227.617 231.57 227.78L223.85 232.31C222.75 232.94 219.4 231.61 218.96 230.5C218.952 230.427 218.952 230.353 218.96 230.28C218.943 230.114 218.937 229.947 218.94 229.78Z" fill="#121047"/>
<path d="M220.35 223.81C221.736 223.994 223.109 224.267 224.46 224.63C224.484 224.925 224.58 225.21 224.74 225.46C224.778 225.489 224.809 225.527 224.83 225.57C225.47 226.01 226.11 226.7 224.61 227.64C224.211 227.934 223.72 228.076 223.225 228.041C222.73 228.006 222.264 227.797 221.91 227.45C221.719 227.042 221.417 226.696 221.04 226.45C220.79 226.277 220.508 226.158 220.21 226.1C220.211 226.077 220.211 226.053 220.21 226.03C220.21 226.03 220 223.81 220.35 223.81Z" fill="#FCD1C7"/>
<path d="M214.62 184C213.62 179.49 203.33 177.15 204.05 161.21C207.5 160.7 223.41 168.86 226.86 168.36C227.29 178.91 226.27 188.74 226.2 199.04C225.97 209.04 225.02 216.27 224.54 224.67C224.13 226.29 220.99 226.22 220.13 224.88C218.27 216.56 217.7 208.003 218.44 199.51C217.42 194.58 215.74 189.31 214.62 184Z" fill="url(#paint11_linear_5556_20462)"/>
<path d="M208.82 177.07C216.88 181.59 235.96 178.6 233.47 168.15C231.19 157.21 224.06 136.34 222.04 129.73C218.51 126.95 216.87 125.67 213.42 125.07C211.34 124.71 208.65 124.24 207.05 125.75C200.05 132.27 197.81 150.24 198.56 167.26C199.42 172 204.85 174.84 208.82 177.07Z" fill="url(#paint12_linear_5556_20462)"/>
<path d="M209.76 125.83C210.64 124.5 210.51 121.93 210.23 119.94C209.832 118.838 209.639 117.672 209.66 116.5C209.71 112.07 214.87 107.79 218.34 107.83C221.81 107.87 222.27 112.2 222.22 116.63C222.2 118.408 221.634 120.137 220.598 121.582C219.562 123.028 218.107 124.119 216.43 124.71C216.23 125.39 217.24 126.23 217.78 126.63C215.44 127.89 212.64 126.94 211.25 126.57C210.689 126.481 210.169 126.223 209.76 125.83Z" fill="#FCD1C7"/>
<path d="M187.9 122.2C192.16 121.55 191.05 117.49 192.7 115.66C194.7 113.42 199.18 113.47 201.24 114.22C204.98 115.58 209.82 113.96 209.82 112.69C209.82 111.42 207.82 110.57 209.05 107.93C210.28 105.29 215.68 107.59 217.8 105.47C222.75 100.47 223.65 111.32 221.68 113.29C219.71 115.26 220.94 116.09 220.31 116.72C219.68 117.35 219.49 114.08 218.5 115.07C217.51 116.06 219.65 118.66 219.65 122.07C219.65 125.48 216.38 128.59 213.47 127.42C211.47 126.59 208.76 128.34 209.52 134.04C210.16 138.82 215.89 150.04 202.39 152.32C188.89 154.6 198.64 139.8 189.14 144.68C179.45 149.68 168.58 125.17 187.9 122.2Z" fill="#20196F"/>
<path d="M236.76 133.05C236.29 132.29 234.76 132.05 236.05 131.22C237.304 130.321 238.748 129.722 240.27 129.47C240.27 130.2 239.88 130.66 239.63 132.47C239.38 134.28 236.76 133.05 236.76 133.05Z" fill="#FCD1C7"/>
<path d="M224 131.57C222.44 129.75 221.59 128.28 218.26 130.39C215.85 131.91 214.78 139.44 231.56 147.3C237.19 149.93 239.96 136.51 239.96 132.51C238.735 132.551 237.522 132.77 236.36 133.16C235.94 135.62 233.56 140.05 232.67 140.05C231.27 140.05 225.93 133.76 224 131.57Z" fill="url(#paint13_linear_5556_20462)"/>
<path d="M374.08 58.23C374.08 64.88 378.75 72.96 384.51 76.29C388.71 78.71 392.32 77.92 393.97 74.74C392.428 74.6307 390.936 74.1504 389.62 73.34C383.86 70.01 379.19 61.93 379.19 55.28C379.162 53.7315 379.505 52.1988 380.19 50.81C376.57 50.65 374.08 53.38 374.08 58.23Z" fill="url(#paint14_linear_5556_20462)"/>
<path d="M389.62 28.1C381.9 23.64 374.9 23.1 369.73 25.85L369.51 25.97L369.06 26.23L364.62 28.79C369.79 26.06 376.79 26.58 384.51 31.04C400.39 40.21 413.26 62.5 413.26 80.84C413.26 89.84 410.16 96.19 405.14 99.27L409.41 96.8C414.93 93.94 418.41 87.38 418.41 77.9C418.37 59.57 405.5 37.27 389.62 28.1Z" fill="url(#paint15_linear_5556_20462)"/>
<path d="M384.51 31.05C368.63 21.88 355.75 29.31 355.75 47.65C355.75 65.99 368.63 88.28 384.51 97.45C400.39 106.62 413.26 99.19 413.26 80.85C413.26 62.51 400.39 40.22 384.51 31.05ZM384.51 76.29C378.75 72.96 374.08 64.88 374.08 58.23C374.08 51.58 378.75 48.89 384.51 52.23C390.27 55.57 394.93 63.64 394.93 70.29C394.93 76.94 390.26 79.61 384.51 76.29Z" fill="#F6F6FB"/>
<path d="M378.55 72.72L370.88 83.63C374.649 88.4593 379.268 92.5599 384.51 95.73V78C382.217 76.6195 380.197 74.8298 378.55 72.72Z" fill="#6B67E9"/>
<path d="M384.51 78V95.73C389.51 98.59 394.12 99.73 398.13 99.36L390.46 79.59C388.359 79.6944 386.279 79.1384 384.51 78Z" fill="#807DFB"/>
<path d="M396.43 71.13C396.532 73.249 395.969 75.3469 394.82 77.13L408.1 93.6C410.43 90.31 411.77 85.72 411.77 79.99L396.43 71.13Z" fill="#A33489"/>
<path d="M374.2 65.17L360.91 66.36C363.359 72.5856 366.73 78.4073 370.91 83.63L378.58 72.72C376.747 70.4388 375.271 67.8933 374.2 65.17Z" fill="#5652CC"/>
<path d="M390.46 79.59L398.13 99.36C400.121 99.2083 402.053 98.6122 403.784 97.6154C405.515 96.6186 407 95.2464 408.13 93.6L394.82 77.08C394.327 77.7978 393.68 78.396 392.925 78.8304C392.171 79.2648 391.328 79.5244 390.46 79.59Z" fill="#8F2876"/>
<path d="M374.2 51.42L360.91 34.9C358.59 38.19 357.25 42.78 357.25 48.51L372.59 57.37C372.498 55.2679 373.061 53.189 374.2 51.42Z" fill="#FAC8EE"/>
<path d="M384.51 50.49C386.803 51.8711 388.82 53.6647 390.46 55.78L398.13 44.87C394.367 40.0388 389.751 35.9378 384.51 32.77V50.49Z" fill="#E56EC9"/>
<path d="M372.59 57.37L357.25 48.51C357.37 54.6335 358.611 60.6833 360.91 66.36L374.2 65.17C373.189 62.6909 372.643 60.0468 372.59 57.37Z" fill="#FFE0F8"/>
<path d="M394.82 63.33L408.1 62.14C405.655 55.9126 402.284 50.0902 398.1 44.87L390.43 55.78C392.266 58.0606 393.746 60.6062 394.82 63.33Z" fill="#D453B5"/>
<path d="M384.51 50.49V32.77C379.51 29.91 374.9 28.77 370.88 29.14L378.55 48.91C380.652 48.8059 382.735 49.3581 384.51 50.49Z" fill="#EB83D2"/>
<path d="M378.55 48.91L370.88 29.14C368.889 29.293 366.957 29.8898 365.227 30.8865C363.497 31.8832 362.011 33.2545 360.88 34.9L374.2 51.42C374.691 50.7029 375.337 50.1051 376.09 49.6707C376.843 49.2363 377.683 48.9764 378.55 48.91Z" fill="#F5B0E4"/>
<path d="M396.43 71.13L411.77 80C411.65 73.8754 410.406 67.825 408.1 62.15L394.82 63.34C395.83 65.816 396.375 68.4566 396.43 71.13Z" fill="#B8429B"/>
<path d="M115 278.69L26.43 227.57C26.106 227.332 25.7217 227.188 25.3207 227.157C24.9196 227.125 24.5176 227.206 24.16 227.39L21.71 228.81C22.0605 228.651 22.4468 228.588 22.8297 228.626C23.2126 228.665 23.5784 228.804 23.89 229.03L112.43 280.15C113.34 280.745 114.097 281.546 114.641 282.487C115.184 283.429 115.499 284.485 115.56 285.57V300.24C115.602 300.617 115.547 300.999 115.4 301.349C115.253 301.699 115.019 302.006 114.72 302.24L117.1 300.87C117.445 300.657 117.722 300.35 117.899 299.985C118.076 299.62 118.146 299.213 118.1 298.81V284.11C118.043 283.027 117.732 281.973 117.194 281.032C116.656 280.09 115.904 279.288 115 278.69Z" fill="url(#paint16_linear_5556_20462)"/>
<path d="M112.43 280.15L23.89 229C22.17 228 20.77 228.82 20.77 230.81V245.5C20.8289 246.585 21.1419 247.64 21.6839 248.582C22.2258 249.523 22.9815 250.324 23.89 250.92L112.43 302C114.15 303 115.56 302.18 115.56 300.2V285.57C115.499 284.485 115.184 283.429 114.641 282.487C114.097 281.546 113.34 280.745 112.43 280.15Z" fill="#E8ECF7"/>
<path d="M72.05 262.6L72.15 265.13L71.9 265C71.869 264.644 71.8019 264.292 71.7 263.95C71.5746 263.586 71.385 263.247 71.14 262.95C70.8837 262.65 70.5755 262.4 70.23 262.21L68.94 261.47V269.47C68.905 269.915 68.9699 270.363 69.13 270.78C69.3117 271.108 69.582 271.378 69.91 271.56L70.23 271.74V272.03L66.36 269.8V269.51L66.68 269.7C67.07 269.92 67.34 269.94 67.5 269.77C67.6436 269.44 67.6954 269.077 67.65 268.72V260.72L66.56 260.09C66.2795 259.905 65.9727 259.763 65.65 259.67C65.5395 259.652 65.4262 259.663 65.3211 259.701C65.216 259.74 65.1226 259.805 65.05 259.89C64.8417 260.181 64.7361 260.533 64.75 260.89L64.5 260.74L64.6 258.33L72.05 262.6Z" fill="#C4CAE9"/>
<path d="M84.52 271.64V278.5H90.47L84.52 271.64Z" fill="#C4CAE9"/>
<path d="M108 286.65V282.35L100.6 278.07V286.62L104.33 288.78V292.38L111.12 296.3V288.46L108 286.65ZM107.39 289.84L104.33 288.07L101.21 286.27V279.13L107.39 282.7V289.84Z" fill="#C4CAE9"/>
<path d="M42.66 244.28V257.35L55.75 264.9V251.83L42.66 244.28ZM43.27 245.33L55.14 252.18V254.18C53.55 250.26 51.14 254.11 50.14 256.28C48.4 250.28 46.06 255.06 44.46 257.66L43.27 257V245.33Z" fill="#C4CAE9"/>
<path d="M45.19 249.28C45.19 248.69 45.6 248.45 46.12 248.74C46.3885 248.918 46.6116 249.156 46.7714 249.436C46.9312 249.715 47.0232 250.028 47.04 250.35C47.04 250.94 46.63 251.18 46.12 250.89C45.8462 250.717 45.6185 250.48 45.4565 250.2C45.2945 249.919 45.2031 249.604 45.19 249.28Z" fill="#C4CAE9"/>
<path d="M31.43 241C31.25 240.83 31.06 240.85 31.01 241L29.01 248C28.9955 248.115 29.0098 248.232 29.0517 248.34C29.0936 248.449 29.1618 248.545 29.25 248.62C29.43 248.79 29.62 248.77 29.67 248.62L31.67 241.62C31.6845 241.505 31.6702 241.388 31.6283 241.28C31.5864 241.171 31.5183 241.075 31.43 241ZM32.08 243.6L35 247.54L32.12 248.16C31.96 248.16 31.93 248.42 32.03 248.66C32.13 248.9 32.35 249.07 32.51 249.04L35.8 248.33C35.89 248.33 35.94 248.22 35.94 248.09C35.9349 247.939 35.8863 247.794 35.8 247.67L32.51 243.17C32.35 242.95 32.14 242.87 32.03 242.99C31.9778 243.084 31.9547 243.191 31.9636 243.298C31.9725 243.404 32.0131 243.506 32.08 243.59V243.6ZM24.58 241.6C24.5843 241.749 24.637 241.893 24.73 242.01L28 246.47C28.16 246.68 28.37 246.76 28.48 246.64C28.59 246.52 28.55 246.25 28.39 246.04L25.52 242.09L28.39 241.47C28.55 241.47 28.59 241.21 28.48 240.97C28.37 240.73 28.16 240.56 28 240.59L24.72 241.31C24.63 241.33 24.58 241.42 24.58 241.55V241.6Z" fill="#C4CAE9"/>
<path d="M397.04 219.34L407.21 225.21L397.04 231.09L386.86 225.21L397.04 219.34Z" fill="#807DFB"/>
<path d="M386.86 225.21L397.04 231.09V242.83L386.86 236.96V225.21Z" fill="#5652CC"/>
<path d="M407.21 225.21L397.04 231.09V242.83L407.21 236.96V225.21Z" fill="#423EAF"/>
<path style="mix-blend-mode:multiply" d="M397.04 242.83H423.27V231.09H407.21V236.96L397.04 242.83Z" fill="url(#paint17_linear_5556_20462)"/>
<path d="M413.43 228.8L423.6 234.68L413.43 240.55L403.25 234.68L413.43 228.8Z" fill="#807DFB"/>
<path d="M403.25 234.68L413.43 240.55V252.3L403.25 246.42V234.68Z" fill="#5652CC"/>
<path d="M423.6 234.68L413.43 240.55V252.3L423.6 246.42V234.68Z" fill="#423EAF"/>
<path style="mix-blend-mode:multiply" d="M413.43 252.3H439.66V240.55H423.6V246.42L413.43 252.3Z" fill="url(#paint18_linear_5556_20462)"/>
<path style="mix-blend-mode:multiply" d="M138.91 120L112.29 104.63C111.05 104.002 109.68 103.674 108.29 103.674C106.9 103.674 105.53 104.002 104.29 104.63L78.11 119.79C75.92 121.06 75.92 123.14 78.11 124.41L92.04 132.41V140.69H108.73C110.122 140.718 111.499 140.391 112.73 139.74L138.92 124.61C141.11 123.38 141.11 121.31 138.91 120Z" fill="url(#paint19_linear_5556_20462)"/>
<path d="M97 130.42C95.7602 131.048 94.3899 131.376 93 131.376C91.6101 131.376 90.2398 131.048 89 130.42L62.35 115.05C60.15 113.78 60.15 111.71 62.35 110.44L88.54 95.32C89.7798 94.6918 91.1501 94.3645 92.54 94.3645C93.9299 94.3645 95.3002 94.6918 96.54 95.32L123.15 110.68C125.35 111.95 125.35 114.03 123.15 115.3L97 130.42Z" fill="#F6F6FB"/>
<path d="M93 129.44C91.9582 129.462 90.9273 129.225 90 128.75L63.31 113.38C62.77 113.07 62.63 112.79 62.63 112.74C62.63 112.69 62.77 112.42 63.31 112.1L89.5 97C90.4469 96.5444 91.4842 96.3079 92.535 96.3079C93.5858 96.3079 94.6231 96.5444 95.57 97L122.18 112.37C122.73 112.68 122.86 112.96 122.87 113.01C122.88 113.06 122.73 113.33 122.18 113.65L96 128.75C95.0727 129.225 94.0418 129.462 93 129.44Z" fill="white"/>
<path d="M60.7 122C60.7219 122.513 60.8871 123.01 61.177 123.434C61.4669 123.859 61.8698 124.193 62.34 124.4L89 139.77C90.2398 140.398 91.6101 140.726 93 140.726C94.3899 140.726 95.7602 140.398 97 139.77L123.19 124.65C123.667 124.447 124.075 124.11 124.366 123.681C124.657 123.252 124.818 122.748 124.83 122.23V113.1C124.764 113.574 124.58 114.023 124.295 114.408C124.011 114.792 123.634 115.099 123.2 115.3L97 130.42C95.7602 131.048 94.3899 131.376 93 131.376C91.6101 131.376 90.2398 131.048 89 130.42L62.35 115.05C61.9 114.847 61.5109 114.53 61.2215 114.13C60.932 113.73 60.7523 113.261 60.7 112.77V122Z" fill="url(#paint20_linear_5556_20462)"/>
<path d="M60.7 118.74C60.7226 119.252 60.8882 119.747 61.1781 120.17C61.468 120.592 61.8705 120.925 62.34 121.13L89 136.51C90.2398 137.138 91.6101 137.465 93 137.465C94.3899 137.465 95.7602 137.138 97 136.51L123.19 121.39C123.668 121.185 124.076 120.847 124.367 120.416C124.658 119.985 124.818 119.48 124.83 118.96V117.15C124.765 117.623 124.582 118.072 124.297 118.454C124.012 118.837 123.634 119.142 123.2 119.34L97 134.46C95.7602 135.088 94.3899 135.415 93 135.415C91.6101 135.415 90.2398 135.088 89 134.46L62.35 119.1C61.9 118.897 61.5109 118.58 61.2215 118.18C60.932 117.78 60.7523 117.311 60.7 116.82V118.74Z" fill="url(#paint21_linear_5556_20462)"/>
<path d="M93.31 102.51C94.0438 102.135 94.856 101.94 95.68 101.94C96.504 101.94 97.3162 102.135 98.05 102.51C99.36 103.27 99.36 104.51 98.05 105.25C97.3148 105.62 96.5031 105.813 95.68 105.813C94.8569 105.813 94.0452 105.62 93.31 105.25C92 104.49 92 103.27 93.31 102.51Z" fill="url(#paint22_linear_5556_20462)"/>
<g style="mix-blend-mode:multiply">
<path d="M95.28 126.17L104 111.86C104.6 110.86 102.95 109.92 101.24 110.27L76.46 115.27L95.28 126.17Z" fill="#DAE0F5"/>
</g>
<g style="mix-blend-mode:multiply">
<path d="M83.39 119.3L89.39 109.43C90 108.43 88.39 107.49 86.63 107.84L69.53 111.32L83.39 119.3Z" fill="#DFE4F4"/>
</g>
</g>
<defs>
<linearGradient id="paint0_linear_5556_20462" x1="60.54" y1="230.42" x2="433.52" y2="230.42" gradientUnits="userSpaceOnUse">
<stop stop-color="#C4C9E4"/>
<stop offset="0.24" stop-color="#CACEE7"/>
<stop offset="0.54" stop-color="#DADDEE"/>
<stop offset="0.88" stop-color="#F4F5FA"/>
<stop offset="1" stop-color="white"/>
</linearGradient>
<linearGradient id="paint1_linear_5556_20462" x1="223.62" y1="-24.31" x2="372.13" y2="232.92" gradientUnits="userSpaceOnUse">
<stop offset="0.58" stop-color="#8585FF"/>
<stop offset="0.61" stop-color="#3B3BA3"/>
</linearGradient>
<linearGradient id="paint2_linear_5556_20462" x1="52.47" y1="262.8" x2="354.35" y2="262.8" gradientUnits="userSpaceOnUse">
<stop offset="0.56" stop-color="#5E5EDD"/>
<stop offset="0.61" stop-color="#2E2E8F"/>
</linearGradient>
<linearGradient id="paint3_linear_5556_20462" x1="180.68" y1="51.9" x2="285.75" y2="51.9" gradientUnits="userSpaceOnUse">
<stop offset="0.7" stop-color="#D453B5"/>
<stop offset="0.78" stop-color="#D859BA"/>
<stop offset="0.9" stop-color="#E36BC7"/>
<stop offset="0.91" stop-color="#E56EC9"/>
</linearGradient>
<linearGradient id="paint4_linear_5556_20462" x1="222.08" y1="139.39" x2="218.54" y2="133.25" gradientUnits="userSpaceOnUse">
<stop stop-color="#362E94"/>
<stop offset="0.66" stop-color="#5B56D0"/>
<stop offset="1" stop-color="#6B67E9"/>
</linearGradient>
<linearGradient id="paint5_linear_5556_20462" x1="271.47" y1="112.05" x2="268.19" y2="105.8" gradientUnits="userSpaceOnUse">
<stop stop-color="#BBC0E6"/>
<stop offset="1" stop-color="#E8ECF7"/>
</linearGradient>
<linearGradient id="paint6_linear_5556_20462" x1="295.04" y1="100.546" x2="273.629" y2="86.7786" gradientUnits="userSpaceOnUse">
<stop stop-color="#EB83D2"/>
<stop offset="0.34" stop-color="#E576CA"/>
<stop offset="0.97" stop-color="#D555B6"/>
<stop offset="1" stop-color="#D453B5"/>
</linearGradient>
<linearGradient id="paint7_linear_5556_20462" x1="223.32" y1="228.92" x2="261.91" y2="228.92" gradientUnits="userSpaceOnUse">
<stop stop-color="#C2C8E6"/>
<stop offset="0.11" stop-color="#CED3EB"/>
<stop offset="0.42" stop-color="#E9EBF6"/>
<stop offset="0.69" stop-color="#F9FAFD"/>
<stop offset="0.9" stop-color="white"/>
</linearGradient>
<linearGradient id="paint8_linear_5556_20462" x1="205.29" y1="218.68" x2="243.87" y2="218.68" gradientUnits="userSpaceOnUse">
<stop stop-color="#C2C8E6"/>
<stop offset="0.11" stop-color="#CED3EB"/>
<stop offset="0.42" stop-color="#E9EBF6"/>
<stop offset="0.69" stop-color="#F9FAFD"/>
<stop offset="0.9" stop-color="white"/>
</linearGradient>
<linearGradient id="paint9_linear_5556_20462" x1="215.56" y1="217.32" x2="201.33" y2="217.32" gradientUnits="userSpaceOnUse">
<stop stop-color="#423EAD"/>
<stop offset="0.31" stop-color="#39359E"/>
<stop offset="0.91" stop-color="#231D75"/>
<stop offset="1" stop-color="#1F196F"/>
</linearGradient>
<linearGradient id="paint10_linear_5556_20462" x1="233.14" y1="227.56" x2="218.92" y2="227.56" gradientUnits="userSpaceOnUse">
<stop stop-color="#423EAD"/>
<stop offset="0.31" stop-color="#39359E"/>
<stop offset="0.91" stop-color="#231D75"/>
<stop offset="1" stop-color="#1F196F"/>
</linearGradient>
<linearGradient id="paint11_linear_5556_20462" x1="226.97" y1="193.58" x2="204.01" y2="193.58" gradientUnits="userSpaceOnUse">
<stop stop-color="#5E5EDD"/>
<stop offset="0.26" stop-color="#5252C8"/>
<stop offset="0.51" stop-color="#4949B8"/>
</linearGradient>
<linearGradient id="paint12_linear_5556_20462" x1="233.7" y1="151.91" x2="198.43" y2="151.91" gradientUnits="userSpaceOnUse">
<stop stop-color="#D453B5"/>
<stop offset="0.27" stop-color="#D759B8"/>
<stop offset="0.62" stop-color="#DF69C2"/>
<stop offset="1" stop-color="#EB83D2"/>
</linearGradient>
<linearGradient id="paint13_linear_5556_20462" x1="216.94" y1="138.5" x2="240" y2="138.5" gradientUnits="userSpaceOnUse">
<stop stop-color="#D453B5"/>
<stop offset="0.27" stop-color="#D759B8"/>
<stop offset="0.62" stop-color="#DF69C2"/>
<stop offset="1" stop-color="#EB83D2"/>
</linearGradient>
<linearGradient id="paint14_linear_5556_20462" x1="379.29" y1="73.28" x2="389.23" y2="56.05" gradientUnits="userSpaceOnUse">
<stop stop-color="#BBC0E6"/>
<stop offset="0.48" stop-color="#D3D7EF"/>
<stop offset="1" stop-color="#E8ECF7"/>
</linearGradient>
<linearGradient id="paint15_linear_5556_20462" x1="376.72" y1="82.87" x2="403.66" y2="36.2" gradientUnits="userSpaceOnUse">
<stop stop-color="#BBC0E6"/>
<stop offset="0.48" stop-color="#D3D7EF"/>
<stop offset="1" stop-color="#E8ECF7"/>
</linearGradient>
<linearGradient id="paint16_linear_5556_20462" x1="46.2" y1="214.66" x2="118.19" y2="339.34" gradientUnits="userSpaceOnUse">
<stop offset="0.6" stop-color="#CED3F8"/>
<stop offset="0.61" stop-color="#CDD2F7"/>
<stop offset="0.71" stop-color="#BBC0E6"/>
</linearGradient>
<linearGradient id="paint17_linear_5556_20462" x1="397.04" y1="236.96" x2="423.27" y2="236.96" gradientUnits="userSpaceOnUse">
<stop stop-color="#DAE0F5"/>
<stop offset="0.31" stop-color="#DFE4F6"/>
<stop offset="0.7" stop-color="#EEF1FB"/>
<stop offset="1" stop-color="white"/>
</linearGradient>
<linearGradient id="paint18_linear_5556_20462" x1="413.43" y1="246.42" x2="439.66" y2="246.42" gradientUnits="userSpaceOnUse">
<stop stop-color="#DAE0F5"/>
<stop offset="0.31" stop-color="#DFE4F6"/>
<stop offset="0.7" stop-color="#EEF1FB"/>
<stop offset="1" stop-color="white"/>
</linearGradient>
<linearGradient id="paint19_linear_5556_20462" x1="76.47" y1="122.22" x2="140.56" y2="122.22" gradientUnits="userSpaceOnUse">
<stop stop-color="#C4C9E4"/>
<stop offset="0.25" stop-color="#CED2E8"/>
<stop offset="0.68" stop-color="#E7E9F4"/>
<stop offset="1" stop-color="white"/>
</linearGradient>
<linearGradient id="paint20_linear_5556_20462" x1="124.728" y1="126.918" x2="60.6439" y2="126.921" gradientUnits="userSpaceOnUse">
<stop offset="0.41" stop-color="#BCC1E7"/>
<stop offset="0.57" stop-color="#CED3F8"/>
</linearGradient>
<linearGradient id="paint21_linear_5556_20462" x1="124.725" y1="127.313" x2="60.6493" y2="127.31" gradientUnits="userSpaceOnUse">
<stop offset="0.41" stop-color="#5652CC"/>
<stop offset="0.5" stop-color="#706CE9"/>
<stop offset="0.57" stop-color="#807DFB"/>
</linearGradient>
<linearGradient id="paint22_linear_5556_20462" x1="92.33" y1="103.88" x2="99.03" y2="103.88" gradientUnits="userSpaceOnUse">
<stop stop-color="#D453B5"/>
<stop offset="0.27" stop-color="#D759B8"/>
<stop offset="0.62" stop-color="#DF69C2"/>
<stop offset="1" stop-color="#EB83D2"/>
</linearGradient>
<clipPath id="clip0_5556_20462">
<rect width="480" height="320" fill="white"/>
</clipPath>
</defs>
</svg>
