<svg width="49" height="48" viewBox="0 0 49 48" fill="none" xmlns="http://www.w3.org/2000/svg">
<rect x="0.0869141" width="48" height="48" rx="24" fill="#EA4AAA" fill-opacity="0.2"/>
<path d="M15.0869 33C14.8217 33 14.5673 32.8946 14.3798 32.7071C14.1923 32.5196 14.0869 32.2652 14.0869 32V16C14.0869 15.7348 14.1923 15.4804 14.3798 15.2929C14.5673 15.1054 14.8217 15 15.0869 15H33.0869C33.3521 15 33.6065 15.1054 33.794 15.2929C33.9816 15.4804 34.0869 15.7348 34.0869 16V32C34.0869 32.2652 33.9816 32.5196 33.794 32.7071C33.6065 32.8946 33.3521 33 33.0869 33H15.0869ZM19.0869 22H16.0869V31H19.0869V22ZM32.0869 22H21.0869V31H32.0869V22ZM32.0869 17H16.0869V20H32.0869V17Z" fill="#EA4AAA"/>
</svg>
