<svg width="41" height="41" viewBox="0 0 41 41" fill="none" xmlns="http://www.w3.org/2000/svg">
<g clip-path="url(#clip0_8945_43142)">
<path d="M20.0532 5.5C29.0398 5.5 36.5165 11.9667 38.0848 20.5C36.5182 29.0333 29.0398 35.5 20.0532 35.5C11.0665 35.5 3.58982 29.0333 2.02148 20.5C3.58815 11.9667 11.0665 5.5 20.0532 5.5ZM20.0532 32.1667C23.4523 32.1659 26.7505 31.0114 29.4079 28.8919C32.0654 26.7725 33.9247 23.8138 34.6815 20.5C33.9219 17.1888 32.0614 14.2333 29.4042 12.1167C26.747 10.0001 23.4503 8.84755 20.0532 8.84755C16.656 8.84755 13.3593 10.0001 10.7021 12.1167C8.04492 14.2333 6.18443 17.1888 5.42482 20.5C6.18164 23.8138 8.04094 26.7725 10.6984 28.8919C13.3558 31.0114 16.654 32.1659 20.0532 32.1667ZM20.0532 28C18.064 28 16.1564 27.2098 14.7499 25.8033C13.3433 24.3968 12.5532 22.4891 12.5532 20.5C12.5532 18.5109 13.3433 16.6032 14.7499 15.1967C16.1564 13.7902 18.064 13 20.0532 13C22.0423 13 23.9499 13.7902 25.3565 15.1967C26.763 16.6032 27.5532 18.5109 27.5532 20.5C27.5532 22.4891 26.763 24.3968 25.3565 25.8033C23.9499 27.2098 22.0423 28 20.0532 28ZM20.0532 24.6667C21.1582 24.6667 22.218 24.2277 22.9994 23.4463C23.7808 22.6649 24.2198 21.6051 24.2198 20.5C24.2198 19.3949 23.7808 18.3351 22.9994 17.5537C22.218 16.7723 21.1582 16.3333 20.0532 16.3333C18.9481 16.3333 17.8883 16.7723 17.1069 17.5537C16.3255 18.3351 15.8865 19.3949 15.8865 20.5C15.8865 21.6051 16.3255 22.6649 17.1069 23.4463C17.8883 24.2277 18.9481 24.6667 20.0532 24.6667Z" fill="#EA4AAA"/>
</g>
<defs>
<clipPath id="clip0_8945_43142">
<rect width="40" height="40" fill="white" transform="translate(0.0527344 0.5)"/>
</clipPath>
</defs>
</svg>
