<svg width="80" height="81" viewBox="0 0 80 81" fill="none" xmlns="http://www.w3.org/2000/svg">
<path d="M39.7886 35.298V58.1707L19.7817 69.1834L19.7817 23.8618L39.7886 35.298Z" fill="url(#paint0_linear_8458_41644)"/>
<g filter="url(#filter0_b_8458_41644)">
<path d="M0.0719728 35.428L19.9796 46.8521L39.8872 35.428L19.9796 24.0039L0.0719728 35.428Z" fill="#797979" fill-opacity="0.2"/>
<path d="M19.9796 24.2481L0.497476 35.428L19.9796 46.608L39.4617 35.428L19.9796 24.2481Z" stroke="url(#paint1_linear_8458_41644)" stroke-width="0.423566"/>
<path d="M19.9796 24.2481L0.497476 35.428L19.9796 46.608L39.4617 35.428L19.9796 24.2481Z" stroke="url(#paint2_linear_8458_41644)" stroke-opacity="0.2" stroke-width="0.423566"/>
</g>
<g filter="url(#filter1_b_8458_41644)">
<path d="M19.9798 46.8523L19.9798 69.7006L39.8875 58.2765V35.4282L19.9798 46.8523Z" fill="#797979" fill-opacity="0.2"/>
<path d="M39.6757 35.7939L20.1916 46.975L20.1916 69.3349L39.6757 58.1538V35.7939Z" stroke="url(#paint3_linear_8458_41644)" stroke-width="0.423566"/>
<path d="M39.6757 35.7939L20.1916 46.975L20.1916 69.3349L39.6757 58.1538V35.7939Z" stroke="url(#paint4_linear_8458_41644)" stroke-opacity="0.2" stroke-width="0.423566"/>
</g>
<g filter="url(#filter2_b_8458_41644)">
<path d="M0.0726075 35.4282L0.0726075 58.2765L19.9802 69.7006L19.9802 46.8523L0.0726075 35.4282Z" fill="#797979" fill-opacity="0.2"/>
<path d="M19.7684 46.975L0.28439 35.7939L0.28439 58.1538L19.7684 69.3349L19.7684 46.975Z" stroke="url(#paint5_linear_8458_41644)" stroke-width="0.423566"/>
<path d="M19.7684 46.975L0.28439 35.7939L0.28439 58.1538L19.7684 69.3349L19.7684 46.975Z" stroke="url(#paint6_linear_8458_41644)" stroke-opacity="0.2" stroke-width="0.423566"/>
</g>
<path d="M79.8052 35.4225V58.2952L59.7983 68.8843L59.7983 23.9863L79.8052 35.4225Z" fill="url(#paint7_linear_8458_41644)"/>
<g filter="url(#filter3_b_8458_41644)">
<path d="M40.1286 35.2854L60.0362 46.7096L79.9438 35.2854L60.0362 23.8613L40.1286 35.2854Z" fill="#797979" fill-opacity="0.2"/>
<path d="M60.0362 24.1055L40.5541 35.2854L60.0362 46.4654L79.5183 35.2854L60.0362 24.1055Z" stroke="url(#paint8_linear_8458_41644)" stroke-width="0.423566"/>
<path d="M60.0362 24.1055L40.5541 35.2854L60.0362 46.4654L79.5183 35.2854L60.0362 24.1055Z" stroke="url(#paint9_linear_8458_41644)" stroke-opacity="0.2" stroke-width="0.423566"/>
</g>
<g filter="url(#filter4_b_8458_41644)">
<path d="M60.0367 46.7098V69.558L79.9443 58.1339V35.2856L60.0367 46.7098Z" fill="#797979" fill-opacity="0.2"/>
<path d="M79.7326 35.6514L60.2485 46.8324V69.1923L79.7326 58.0112V35.6514Z" stroke="url(#paint10_linear_8458_41644)" stroke-width="0.423566"/>
<path d="M79.7326 35.6514L60.2485 46.8324V69.1923L79.7326 58.0112V35.6514Z" stroke="url(#paint11_linear_8458_41644)" stroke-opacity="0.2" stroke-width="0.423566"/>
</g>
<g filter="url(#filter5_b_8458_41644)">
<path d="M40.129 35.2856V58.1339L60.0366 69.558L60.0366 46.7098L40.129 35.2856Z" fill="#797979" fill-opacity="0.2"/>
<path d="M59.8248 46.8324L40.3408 35.6514V58.0112L59.8248 69.1923L59.8248 46.8324Z" stroke="url(#paint12_linear_8458_41644)" stroke-width="0.423566"/>
<path d="M59.8248 46.8324L40.3408 35.6514V58.0112L59.8248 69.1923L59.8248 46.8324Z" stroke="url(#paint13_linear_8458_41644)" stroke-opacity="0.2" stroke-width="0.423566"/>
</g>
<path d="M59.5428 46.2722V69.1448L39.5359 80.1575L39.5359 34.8359L59.5428 46.2722Z" fill="url(#paint14_linear_8458_41644)"/>
<g filter="url(#filter6_b_8458_41644)">
<path d="M19.8256 46.4026L39.7333 57.8267L59.6409 46.4026L39.7333 34.9785L19.8256 46.4026Z" fill="#797979" fill-opacity="0.2"/>
<path d="M39.7333 35.2227L20.2511 46.4026L39.7333 57.5826L59.2154 46.4026L39.7333 35.2227Z" stroke="url(#paint15_linear_8458_41644)" stroke-width="0.423566"/>
<path d="M39.7333 35.2227L20.2511 46.4026L39.7333 57.5826L59.2154 46.4026L39.7333 35.2227Z" stroke="url(#paint16_linear_8458_41644)" stroke-opacity="0.2" stroke-width="0.423566"/>
</g>
<g filter="url(#filter7_b_8458_41644)">
<path d="M39.7337 57.827V80.6752L59.6414 69.2511V46.4028L39.7337 57.827Z" fill="#797979" fill-opacity="0.2"/>
<path d="M59.4296 46.7685L39.9455 57.9496V80.3095L59.4296 69.1284V46.7685Z" stroke="url(#paint17_linear_8458_41644)" stroke-width="0.423566"/>
<path d="M59.4296 46.7685L39.9455 57.9496V80.3095L59.4296 69.1284V46.7685Z" stroke="url(#paint18_linear_8458_41644)" stroke-opacity="0.2" stroke-width="0.423566"/>
</g>
<g filter="url(#filter8_b_8458_41644)">
<path d="M19.8263 46.4028L19.8263 69.2511L39.7339 80.6752L39.7339 57.827L19.8263 46.4028Z" fill="#797979" fill-opacity="0.2"/>
<path d="M39.5221 57.9496L20.0381 46.7685L20.0381 69.1284L39.5221 80.3095L39.5221 57.9496Z" stroke="url(#paint19_linear_8458_41644)" stroke-width="0.423566"/>
<path d="M39.5221 57.9496L20.0381 46.7685L20.0381 69.1284L39.5221 80.3095L39.5221 57.9496Z" stroke="url(#paint20_linear_8458_41644)" stroke-opacity="0.2" stroke-width="0.423566"/>
</g>
<path d="M79.8081 12.4982V34.9141L59.8013 45.4147L59.8013 1.06201L79.8081 12.4982Z" fill="url(#paint21_linear_8458_41644)"/>
<g filter="url(#filter9_b_8458_41644)">
<path d="M40.1281 12.2395L60.0357 23.6637L79.9434 12.2395L60.0357 0.81543L40.1281 12.2395Z" fill="#797979" fill-opacity="0.2"/>
<path d="M60.0357 1.05961L40.5536 12.2395L60.0357 23.4195L79.5179 12.2395L60.0357 1.05961Z" stroke="url(#paint22_linear_8458_41644)" stroke-width="0.423566"/>
<path d="M60.0357 1.05961L40.5536 12.2395L60.0357 23.4195L79.5179 12.2395L60.0357 1.05961Z" stroke="url(#paint23_linear_8458_41644)" stroke-opacity="0.2" stroke-width="0.423566"/>
</g>
<g filter="url(#filter10_b_8458_41644)">
<path d="M60.0362 23.6639V46.5121L79.9438 35.088V12.2397L60.0362 23.6639Z" fill="#797979" fill-opacity="0.2"/>
<path d="M79.7321 12.6055L60.248 23.7865V46.1464L79.7321 34.9653V12.6055Z" stroke="url(#paint24_linear_8458_41644)" stroke-width="0.423566"/>
<path d="M79.7321 12.6055L60.248 23.7865V46.1464L79.7321 34.9653V12.6055Z" stroke="url(#paint25_linear_8458_41644)" stroke-opacity="0.2" stroke-width="0.423566"/>
</g>
<g filter="url(#filter11_b_8458_41644)">
<path d="M40.1288 12.2397V35.088L60.0364 46.5121L60.0364 23.6639L40.1288 12.2397Z" fill="#797979" fill-opacity="0.2"/>
<path d="M59.8246 23.7865L40.3405 12.6055V34.9653L59.8246 46.1464L59.8246 23.7865Z" stroke="url(#paint26_linear_8458_41644)" stroke-width="0.423566"/>
<path d="M59.8246 23.7865L40.3405 12.6055V34.9653L59.8246 46.1464L59.8246 23.7865Z" stroke="url(#paint27_linear_8458_41644)" stroke-opacity="0.2" stroke-width="0.423566"/>
</g>
<defs>
<filter id="filter0_b_8458_41644" x="-11.7878" y="12.1441" width="63.5349" height="46.5678" filterUnits="userSpaceOnUse" color-interpolation-filters="sRGB">
<feFlood flood-opacity="0" result="BackgroundImageFix"/>
<feGaussianBlur in="BackgroundImage" stdDeviation="5.92992"/>
<feComposite in2="SourceAlpha" operator="in" result="effect1_backgroundBlur_8458_41644"/>
<feBlend mode="normal" in="SourceGraphic" in2="effect1_backgroundBlur_8458_41644" result="shape"/>
</filter>
<filter id="filter1_b_8458_41644" x="8.11989" y="23.5684" width="43.6274" height="57.9922" filterUnits="userSpaceOnUse" color-interpolation-filters="sRGB">
<feFlood flood-opacity="0" result="BackgroundImageFix"/>
<feGaussianBlur in="BackgroundImage" stdDeviation="5.92992"/>
<feComposite in2="SourceAlpha" operator="in" result="effect1_backgroundBlur_8458_41644"/>
<feBlend mode="normal" in="SourceGraphic" in2="effect1_backgroundBlur_8458_41644" result="shape"/>
</filter>
<filter id="filter2_b_8458_41644" x="-11.7873" y="23.5684" width="43.6274" height="57.9922" filterUnits="userSpaceOnUse" color-interpolation-filters="sRGB">
<feFlood flood-opacity="0" result="BackgroundImageFix"/>
<feGaussianBlur in="BackgroundImage" stdDeviation="5.92992"/>
<feComposite in2="SourceAlpha" operator="in" result="effect1_backgroundBlur_8458_41644"/>
<feBlend mode="normal" in="SourceGraphic" in2="effect1_backgroundBlur_8458_41644" result="shape"/>
</filter>
<filter id="filter3_b_8458_41644" x="28.2688" y="12.0015" width="63.5349" height="46.5678" filterUnits="userSpaceOnUse" color-interpolation-filters="sRGB">
<feFlood flood-opacity="0" result="BackgroundImageFix"/>
<feGaussianBlur in="BackgroundImage" stdDeviation="5.92992"/>
<feComposite in2="SourceAlpha" operator="in" result="effect1_backgroundBlur_8458_41644"/>
<feBlend mode="normal" in="SourceGraphic" in2="effect1_backgroundBlur_8458_41644" result="shape"/>
</filter>
<filter id="filter4_b_8458_41644" x="48.1768" y="23.4258" width="43.6274" height="57.9922" filterUnits="userSpaceOnUse" color-interpolation-filters="sRGB">
<feFlood flood-opacity="0" result="BackgroundImageFix"/>
<feGaussianBlur in="BackgroundImage" stdDeviation="5.92992"/>
<feComposite in2="SourceAlpha" operator="in" result="effect1_backgroundBlur_8458_41644"/>
<feBlend mode="normal" in="SourceGraphic" in2="effect1_backgroundBlur_8458_41644" result="shape"/>
</filter>
<filter id="filter5_b_8458_41644" x="28.2691" y="23.4258" width="43.6274" height="57.9922" filterUnits="userSpaceOnUse" color-interpolation-filters="sRGB">
<feFlood flood-opacity="0" result="BackgroundImageFix"/>
<feGaussianBlur in="BackgroundImage" stdDeviation="5.92992"/>
<feComposite in2="SourceAlpha" operator="in" result="effect1_backgroundBlur_8458_41644"/>
<feBlend mode="normal" in="SourceGraphic" in2="effect1_backgroundBlur_8458_41644" result="shape"/>
</filter>
<filter id="filter6_b_8458_41644" x="7.96584" y="23.1187" width="63.5349" height="46.5678" filterUnits="userSpaceOnUse" color-interpolation-filters="sRGB">
<feFlood flood-opacity="0" result="BackgroundImageFix"/>
<feGaussianBlur in="BackgroundImage" stdDeviation="5.92992"/>
<feComposite in2="SourceAlpha" operator="in" result="effect1_backgroundBlur_8458_41644"/>
<feBlend mode="normal" in="SourceGraphic" in2="effect1_backgroundBlur_8458_41644" result="shape"/>
</filter>
<filter id="filter7_b_8458_41644" x="27.8738" y="34.543" width="43.6274" height="57.9922" filterUnits="userSpaceOnUse" color-interpolation-filters="sRGB">
<feFlood flood-opacity="0" result="BackgroundImageFix"/>
<feGaussianBlur in="BackgroundImage" stdDeviation="5.92992"/>
<feComposite in2="SourceAlpha" operator="in" result="effect1_backgroundBlur_8458_41644"/>
<feBlend mode="normal" in="SourceGraphic" in2="effect1_backgroundBlur_8458_41644" result="shape"/>
</filter>
<filter id="filter8_b_8458_41644" x="7.96632" y="34.543" width="43.6274" height="57.9922" filterUnits="userSpaceOnUse" color-interpolation-filters="sRGB">
<feFlood flood-opacity="0" result="BackgroundImageFix"/>
<feGaussianBlur in="BackgroundImage" stdDeviation="5.92992"/>
<feComposite in2="SourceAlpha" operator="in" result="effect1_backgroundBlur_8458_41644"/>
<feBlend mode="normal" in="SourceGraphic" in2="effect1_backgroundBlur_8458_41644" result="shape"/>
</filter>
<filter id="filter9_b_8458_41644" x="28.2683" y="-11.0444" width="63.5349" height="46.5678" filterUnits="userSpaceOnUse" color-interpolation-filters="sRGB">
<feFlood flood-opacity="0" result="BackgroundImageFix"/>
<feGaussianBlur in="BackgroundImage" stdDeviation="5.92992"/>
<feComposite in2="SourceAlpha" operator="in" result="effect1_backgroundBlur_8458_41644"/>
<feBlend mode="normal" in="SourceGraphic" in2="effect1_backgroundBlur_8458_41644" result="shape"/>
</filter>
<filter id="filter10_b_8458_41644" x="48.1763" y="0.379899" width="43.6274" height="57.9922" filterUnits="userSpaceOnUse" color-interpolation-filters="sRGB">
<feFlood flood-opacity="0" result="BackgroundImageFix"/>
<feGaussianBlur in="BackgroundImage" stdDeviation="5.92992"/>
<feComposite in2="SourceAlpha" operator="in" result="effect1_backgroundBlur_8458_41644"/>
<feBlend mode="normal" in="SourceGraphic" in2="effect1_backgroundBlur_8458_41644" result="shape"/>
</filter>
<filter id="filter11_b_8458_41644" x="28.2688" y="0.379899" width="43.6274" height="57.9922" filterUnits="userSpaceOnUse" color-interpolation-filters="sRGB">
<feFlood flood-opacity="0" result="BackgroundImageFix"/>
<feGaussianBlur in="BackgroundImage" stdDeviation="5.92992"/>
<feComposite in2="SourceAlpha" operator="in" result="effect1_backgroundBlur_8458_41644"/>
<feBlend mode="normal" in="SourceGraphic" in2="effect1_backgroundBlur_8458_41644" result="shape"/>
</filter>
<linearGradient id="paint0_linear_8458_41644" x1="39.7885" y1="34.4858" x2="-21.8702" y2="96.581" gradientUnits="userSpaceOnUse">
<stop stop-color="#65DCFD"/>
<stop offset="0.395053" stop-opacity="0"/>
</linearGradient>
<linearGradient id="paint1_linear_8458_41644" x1="98.7805" y1="-4.47835" x2="62.0724" y2="68.1321" gradientUnits="userSpaceOnUse">
<stop stop-color="white"/>
<stop offset="1" stop-color="white" stop-opacity="0"/>
</linearGradient>
<linearGradient id="paint2_linear_8458_41644" x1="68.1848" y1="19.3219" x2="44.2429" y2="60.8429" gradientUnits="userSpaceOnUse">
<stop stop-color="#777777"/>
<stop offset="1" stop-color="white" stop-opacity="0"/>
</linearGradient>
<linearGradient id="paint3_linear_8458_41644" x1="69.3341" y1="-7.29517" x2="6.48825" y2="34.1423" gradientUnits="userSpaceOnUse">
<stop stop-color="white"/>
<stop offset="1" stop-color="white" stop-opacity="0"/>
</linearGradient>
<linearGradient id="paint4_linear_8458_41644" x1="54.0362" y1="28.4052" x2="18.078" y2="49.192" gradientUnits="userSpaceOnUse">
<stop stop-color="#777777"/>
<stop offset="1" stop-color="white" stop-opacity="0"/>
</linearGradient>
<linearGradient id="paint5_linear_8458_41644" x1="49.4269" y1="-7.29517" x2="-13.419" y2="34.1423" gradientUnits="userSpaceOnUse">
<stop stop-color="white"/>
<stop offset="1" stop-color="white" stop-opacity="0"/>
</linearGradient>
<linearGradient id="paint6_linear_8458_41644" x1="34.129" y1="28.4052" x2="-1.82922" y2="49.192" gradientUnits="userSpaceOnUse">
<stop stop-color="#777777"/>
<stop offset="1" stop-color="white" stop-opacity="0"/>
</linearGradient>
<linearGradient id="paint7_linear_8458_41644" x1="79.8051" y1="34.6103" x2="18.1464" y2="96.7055" gradientUnits="userSpaceOnUse">
<stop stop-color="#65DCFD"/>
<stop offset="0.395053" stop-opacity="0"/>
</linearGradient>
<linearGradient id="paint8_linear_8458_41644" x1="138.837" y1="-4.62093" x2="102.129" y2="67.9895" gradientUnits="userSpaceOnUse">
<stop stop-color="white"/>
<stop offset="1" stop-color="white" stop-opacity="0"/>
</linearGradient>
<linearGradient id="paint9_linear_8458_41644" x1="108.241" y1="19.1793" x2="84.2995" y2="60.7003" gradientUnits="userSpaceOnUse">
<stop stop-color="#777777"/>
<stop offset="1" stop-color="white" stop-opacity="0"/>
</linearGradient>
<linearGradient id="paint10_linear_8458_41644" x1="109.391" y1="-7.43775" x2="46.5451" y2="33.9997" gradientUnits="userSpaceOnUse">
<stop stop-color="white"/>
<stop offset="1" stop-color="white" stop-opacity="0"/>
</linearGradient>
<linearGradient id="paint11_linear_8458_41644" x1="94.0931" y1="28.2626" x2="58.1349" y2="49.0494" gradientUnits="userSpaceOnUse">
<stop stop-color="#777777"/>
<stop offset="1" stop-color="white" stop-opacity="0"/>
</linearGradient>
<linearGradient id="paint12_linear_8458_41644" x1="89.4833" y1="-7.43775" x2="26.6374" y2="33.9997" gradientUnits="userSpaceOnUse">
<stop stop-color="white"/>
<stop offset="1" stop-color="white" stop-opacity="0"/>
</linearGradient>
<linearGradient id="paint13_linear_8458_41644" x1="74.1854" y1="28.2626" x2="38.2272" y2="49.0494" gradientUnits="userSpaceOnUse">
<stop stop-color="#777777"/>
<stop offset="1" stop-color="white" stop-opacity="0"/>
</linearGradient>
<linearGradient id="paint14_linear_8458_41644" x1="59.5427" y1="45.4599" x2="-2.11607" y2="107.555" gradientUnits="userSpaceOnUse">
<stop stop-color="#65DCFD"/>
<stop offset="0.395053" stop-opacity="0"/>
</linearGradient>
<linearGradient id="paint15_linear_8458_41644" x1="118.534" y1="6.49626" x2="81.8261" y2="79.1067" gradientUnits="userSpaceOnUse">
<stop stop-color="white"/>
<stop offset="1" stop-color="white" stop-opacity="0"/>
</linearGradient>
<linearGradient id="paint16_linear_8458_41644" x1="87.9384" y1="30.2965" x2="63.9966" y2="71.8175" gradientUnits="userSpaceOnUse">
<stop stop-color="#777777"/>
<stop offset="1" stop-color="white" stop-opacity="0"/>
</linearGradient>
<linearGradient id="paint17_linear_8458_41644" x1="89.088" y1="3.67944" x2="26.2422" y2="45.1169" gradientUnits="userSpaceOnUse">
<stop stop-color="white"/>
<stop offset="1" stop-color="white" stop-opacity="0"/>
</linearGradient>
<linearGradient id="paint18_linear_8458_41644" x1="73.7901" y1="39.3798" x2="37.8319" y2="60.1666" gradientUnits="userSpaceOnUse">
<stop stop-color="#777777"/>
<stop offset="1" stop-color="white" stop-opacity="0"/>
</linearGradient>
<linearGradient id="paint19_linear_8458_41644" x1="69.1805" y1="3.67944" x2="6.33469" y2="45.1169" gradientUnits="userSpaceOnUse">
<stop stop-color="white"/>
<stop offset="1" stop-color="white" stop-opacity="0"/>
</linearGradient>
<linearGradient id="paint20_linear_8458_41644" x1="53.8827" y1="39.3798" x2="17.9244" y2="60.1666" gradientUnits="userSpaceOnUse">
<stop stop-color="#777777"/>
<stop offset="1" stop-color="white" stop-opacity="0"/>
</linearGradient>
<linearGradient id="paint21_linear_8458_41644" x1="80.4062" y1="11.686" x2="18.7475" y2="73.7812" gradientUnits="userSpaceOnUse">
<stop stop-color="#65DCFD"/>
<stop offset="0.395053" stop-opacity="0"/>
</linearGradient>
<linearGradient id="paint22_linear_8458_41644" x1="138.837" y1="-27.6668" x2="102.129" y2="44.9436" gradientUnits="userSpaceOnUse">
<stop stop-color="white"/>
<stop offset="1" stop-color="white" stop-opacity="0"/>
</linearGradient>
<linearGradient id="paint23_linear_8458_41644" x1="108.241" y1="-3.86658" x2="84.2991" y2="37.6544" gradientUnits="userSpaceOnUse">
<stop stop-color="#777777"/>
<stop offset="1" stop-color="white" stop-opacity="0"/>
</linearGradient>
<linearGradient id="paint24_linear_8458_41644" x1="109.39" y1="-30.4836" x2="46.5447" y2="10.9538" gradientUnits="userSpaceOnUse">
<stop stop-color="white"/>
<stop offset="1" stop-color="white" stop-opacity="0"/>
</linearGradient>
<linearGradient id="paint25_linear_8458_41644" x1="94.0926" y1="5.21672" x2="58.1344" y2="26.0035" gradientUnits="userSpaceOnUse">
<stop stop-color="#777777"/>
<stop offset="1" stop-color="white" stop-opacity="0"/>
</linearGradient>
<linearGradient id="paint26_linear_8458_41644" x1="89.483" y1="-30.4836" x2="26.6372" y2="10.9538" gradientUnits="userSpaceOnUse">
<stop stop-color="white"/>
<stop offset="1" stop-color="white" stop-opacity="0"/>
</linearGradient>
<linearGradient id="paint27_linear_8458_41644" x1="74.1852" y1="5.21672" x2="38.2269" y2="26.0035" gradientUnits="userSpaceOnUse">
<stop stop-color="#777777"/>
<stop offset="1" stop-color="white" stop-opacity="0"/>
</linearGradient>
</defs>
</svg>
