<svg width="283" height="58" viewBox="0 0 283 58" fill="none" xmlns="http://www.w3.org/2000/svg">
<path fill-rule="evenodd" clip-rule="evenodd" d="M24.7896 25.4433C11.2565 25.4433 0.285767 14.4725 0.285767 0.939453H1.91935C1.91935 13.5703 12.1587 23.8097 24.7896 23.8097H100.384C117.216 23.8097 132.934 32.2218 142.271 46.2268L140.911 47.133C131.878 33.5824 116.67 25.4433 100.384 25.4433H24.7896Z" fill="white"/>
<path fill-rule="evenodd" clip-rule="evenodd" d="M258.393 25.4433C271.926 25.4433 282.896 14.4725 282.896 0.939453H281.263C281.263 13.5703 271.023 23.8097 258.393 23.8097H182.798C165.966 23.8097 150.248 32.2218 140.911 46.2268L142.271 47.133C151.304 33.5824 166.512 25.4433 182.798 25.4433H258.393Z" fill="white"/>
<path fill-rule="evenodd" clip-rule="evenodd" d="M141.591 0.140137C142.032 0.140137 142.39 0.497955 142.39 0.939346V56.884C142.39 57.3254 142.032 57.6832 141.591 57.6832C141.15 57.6832 140.792 57.3254 140.792 56.884V0.939346C140.792 0.497955 141.15 0.140137 141.591 0.140137Z" fill="white"/>
</svg>
