<svg width="91" height="111" viewBox="0 0 91 111" fill="none" xmlns="http://www.w3.org/2000/svg">
<path d="M89.9765 42.6538V76.7008L60.1953 92.4632L60.1953 25.6304L89.9765 42.6538Z" fill="url(#paint0_linear_8458_41689)"/>
<g filter="url(#filter0_b_8458_41689)">
<path d="M30.9162 42.4497L60.5496 59.4551L90.1831 42.4497L60.5496 25.4443L30.9162 42.4497Z" fill="#797979" fill-opacity="0.2"/>
<path d="M60.5496 25.8078L31.5495 42.4497L60.5496 59.0916L89.5497 42.4497L60.5496 25.8078Z" stroke="url(#paint1_linear_8458_41689)" stroke-width="0.630499"/>
<path d="M60.5496 25.8078L31.5495 42.4497L60.5496 59.0916L89.5497 42.4497L60.5496 25.8078Z" stroke="url(#paint2_linear_8458_41689)" stroke-opacity="0.2" stroke-width="0.630499"/>
</g>
<g filter="url(#filter1_b_8458_41689)">
<path d="M60.5499 59.4551L60.5499 93.4658L90.1833 76.4604V42.4497L60.5499 59.4551Z" fill="#797979" fill-opacity="0.2"/>
<path d="M89.8681 42.9941L60.8651 59.6376L60.8651 92.9214L89.8681 76.2779L89.8681 42.9941Z" stroke="url(#paint3_linear_8458_41689)" stroke-width="0.630499"/>
<path d="M89.8681 42.9941L60.8651 59.6376L60.8651 92.9214L89.8681 76.2779L89.8681 42.9941Z" stroke="url(#paint4_linear_8458_41689)" stroke-opacity="0.2" stroke-width="0.630499"/>
</g>
<g filter="url(#filter2_b_8458_41689)">
<path d="M30.9166 42.4497L30.9166 76.4604L60.55 93.4658L60.55 59.4551L30.9166 42.4497Z" fill="#797979" fill-opacity="0.2"/>
<path d="M60.2348 59.6376L31.2318 42.9941L31.2318 76.2779L60.2348 92.9214V59.6376Z" stroke="url(#paint5_linear_8458_41689)" stroke-width="0.630499"/>
<path d="M60.2348 59.6376L31.2318 42.9941L31.2318 76.2779L60.2348 92.9214V59.6376Z" stroke="url(#paint6_linear_8458_41689)" stroke-opacity="0.2" stroke-width="0.630499"/>
</g>
<path d="M59.8151 58.8037L59.8151 92.8507L30.0339 109.244L30.0339 41.7803L59.8151 58.8037Z" fill="url(#paint7_linear_8458_41689)"/>
<g filter="url(#filter3_b_8458_41689)">
<path d="M0.694717 58.998L30.3282 76.0034L59.9617 58.998L30.3282 41.9927L0.694717 58.998Z" fill="#797979" fill-opacity="0.2"/>
<path d="M30.3282 42.3561L1.32809 58.998L30.3282 75.6399L59.3283 58.998L30.3282 42.3561Z" stroke="url(#paint8_linear_8458_41689)" stroke-width="0.630499"/>
<path d="M30.3282 42.3561L1.32809 58.998L30.3282 75.6399L59.3283 58.998L30.3282 42.3561Z" stroke="url(#paint9_linear_8458_41689)" stroke-opacity="0.2" stroke-width="0.630499"/>
</g>
<g filter="url(#filter4_b_8458_41689)">
<path d="M30.3287 76.0034L30.3287 110.014L59.9622 93.0088L59.9622 58.998L30.3287 76.0034Z" fill="#797979" fill-opacity="0.2"/>
<path d="M59.6469 59.5424L30.6439 76.186L30.6439 109.47L59.6469 92.8262V59.5424Z" stroke="url(#paint10_linear_8458_41689)" stroke-width="0.630499"/>
<path d="M59.6469 59.5424L30.6439 76.186L30.6439 109.47L59.6469 92.8262V59.5424Z" stroke="url(#paint11_linear_8458_41689)" stroke-opacity="0.2" stroke-width="0.630499"/>
</g>
<g filter="url(#filter5_b_8458_41689)">
<path d="M0.695623 58.998L0.695623 93.0088L30.3291 110.014L30.3291 76.0034L0.695623 58.998Z" fill="#797979" fill-opacity="0.2"/>
<path d="M30.0139 76.186L1.01087 59.5424L1.01087 92.8262L30.0139 109.47L30.0139 76.186Z" stroke="url(#paint12_linear_8458_41689)" stroke-width="0.630499"/>
<path d="M30.0139 76.186L1.01087 59.5424L1.01087 92.8262L30.0139 109.47L30.0139 76.186Z" stroke="url(#paint13_linear_8458_41689)" stroke-opacity="0.2" stroke-width="0.630499"/>
</g>
<path d="M74.4626 17.5141V50.8813L44.6814 66.5119L44.6814 0.490723L74.4626 17.5141Z" fill="url(#paint14_linear_8458_41689)"/>
<g filter="url(#filter6_b_8458_41689)">
<path d="M15.3971 17.1294L45.0306 34.1348L74.6641 17.1294L45.0306 0.124023L15.3971 17.1294Z" fill="#797979" fill-opacity="0.2"/>
<path d="M45.0306 0.487493L16.0305 17.1294L45.0306 33.7713L74.0307 17.1294L45.0306 0.487493Z" stroke="url(#paint15_linear_8458_41689)" stroke-width="0.630499"/>
<path d="M45.0306 0.487493L16.0305 17.1294L45.0306 33.7713L74.0307 17.1294L45.0306 0.487493Z" stroke="url(#paint16_linear_8458_41689)" stroke-opacity="0.2" stroke-width="0.630499"/>
</g>
<g filter="url(#filter7_b_8458_41689)">
<path d="M45.0311 34.1348L45.0311 68.1455L74.6646 51.1401V17.1294L45.0311 34.1348Z" fill="#797979" fill-opacity="0.2"/>
<path d="M74.3493 17.6738L45.3463 34.3173L45.3463 67.6011L74.3493 50.9576L74.3493 17.6738Z" stroke="url(#paint17_linear_8458_41689)" stroke-width="0.630499"/>
<path d="M74.3493 17.6738L45.3463 34.3173L45.3463 67.6011L74.3493 50.9576L74.3493 17.6738Z" stroke="url(#paint18_linear_8458_41689)" stroke-opacity="0.2" stroke-width="0.630499"/>
</g>
<g filter="url(#filter8_b_8458_41689)">
<path d="M15.398 17.1294L15.398 51.1401L45.0315 68.1455L45.0315 34.1348L15.398 17.1294Z" fill="#797979" fill-opacity="0.2"/>
<path d="M44.7162 34.3173L15.7133 17.6738L15.7133 50.9576L44.7162 67.6011V34.3173Z" stroke="url(#paint19_linear_8458_41689)" stroke-width="0.630499"/>
<path d="M44.7162 34.3173L15.7133 17.6738L15.7133 50.9576L44.7162 67.6011V34.3173Z" stroke="url(#paint20_linear_8458_41689)" stroke-opacity="0.2" stroke-width="0.630499"/>
</g>
<defs>
<filter id="filter0_b_8458_41689" x="13.2623" y="7.79037" width="94.5748" height="69.3187" filterUnits="userSpaceOnUse" color-interpolation-filters="sRGB">
<feFlood flood-opacity="0" result="BackgroundImageFix"/>
<feGaussianBlur in="BackgroundImage" stdDeviation="8.82699"/>
<feComposite in2="SourceAlpha" operator="in" result="effect1_backgroundBlur_8458_41689"/>
<feBlend mode="normal" in="SourceGraphic" in2="effect1_backgroundBlur_8458_41689" result="shape"/>
</filter>
<filter id="filter1_b_8458_41689" x="42.8958" y="24.7957" width="64.9415" height="86.3241" filterUnits="userSpaceOnUse" color-interpolation-filters="sRGB">
<feFlood flood-opacity="0" result="BackgroundImageFix"/>
<feGaussianBlur in="BackgroundImage" stdDeviation="8.82699"/>
<feComposite in2="SourceAlpha" operator="in" result="effect1_backgroundBlur_8458_41689"/>
<feBlend mode="normal" in="SourceGraphic" in2="effect1_backgroundBlur_8458_41689" result="shape"/>
</filter>
<filter id="filter2_b_8458_41689" x="13.2625" y="24.7957" width="64.9415" height="86.3241" filterUnits="userSpaceOnUse" color-interpolation-filters="sRGB">
<feFlood flood-opacity="0" result="BackgroundImageFix"/>
<feGaussianBlur in="BackgroundImage" stdDeviation="8.82699"/>
<feComposite in2="SourceAlpha" operator="in" result="effect1_backgroundBlur_8458_41689"/>
<feBlend mode="normal" in="SourceGraphic" in2="effect1_backgroundBlur_8458_41689" result="shape"/>
</filter>
<filter id="filter3_b_8458_41689" x="-16.9591" y="24.3387" width="94.5748" height="69.3187" filterUnits="userSpaceOnUse" color-interpolation-filters="sRGB">
<feFlood flood-opacity="0" result="BackgroundImageFix"/>
<feGaussianBlur in="BackgroundImage" stdDeviation="8.82699"/>
<feComposite in2="SourceAlpha" operator="in" result="effect1_backgroundBlur_8458_41689"/>
<feBlend mode="normal" in="SourceGraphic" in2="effect1_backgroundBlur_8458_41689" result="shape"/>
</filter>
<filter id="filter4_b_8458_41689" x="12.6746" y="41.3441" width="64.9415" height="86.3241" filterUnits="userSpaceOnUse" color-interpolation-filters="sRGB">
<feFlood flood-opacity="0" result="BackgroundImageFix"/>
<feGaussianBlur in="BackgroundImage" stdDeviation="8.82699"/>
<feComposite in2="SourceAlpha" operator="in" result="effect1_backgroundBlur_8458_41689"/>
<feBlend mode="normal" in="SourceGraphic" in2="effect1_backgroundBlur_8458_41689" result="shape"/>
</filter>
<filter id="filter5_b_8458_41689" x="-16.9584" y="41.3441" width="64.9415" height="86.3241" filterUnits="userSpaceOnUse" color-interpolation-filters="sRGB">
<feFlood flood-opacity="0" result="BackgroundImageFix"/>
<feGaussianBlur in="BackgroundImage" stdDeviation="8.82699"/>
<feComposite in2="SourceAlpha" operator="in" result="effect1_backgroundBlur_8458_41689"/>
<feBlend mode="normal" in="SourceGraphic" in2="effect1_backgroundBlur_8458_41689" result="shape"/>
</filter>
<filter id="filter6_b_8458_41689" x="-2.25675" y="-17.5299" width="94.5748" height="69.3187" filterUnits="userSpaceOnUse" color-interpolation-filters="sRGB">
<feFlood flood-opacity="0" result="BackgroundImageFix"/>
<feGaussianBlur in="BackgroundImage" stdDeviation="8.82699"/>
<feComposite in2="SourceAlpha" operator="in" result="effect1_backgroundBlur_8458_41689"/>
<feBlend mode="normal" in="SourceGraphic" in2="effect1_backgroundBlur_8458_41689" result="shape"/>
</filter>
<filter id="filter7_b_8458_41689" x="27.377" y="-0.524576" width="64.9415" height="86.3241" filterUnits="userSpaceOnUse" color-interpolation-filters="sRGB">
<feFlood flood-opacity="0" result="BackgroundImageFix"/>
<feGaussianBlur in="BackgroundImage" stdDeviation="8.82699"/>
<feComposite in2="SourceAlpha" operator="in" result="effect1_backgroundBlur_8458_41689"/>
<feBlend mode="normal" in="SourceGraphic" in2="effect1_backgroundBlur_8458_41689" result="shape"/>
</filter>
<filter id="filter8_b_8458_41689" x="-2.25602" y="-0.524576" width="64.9415" height="86.3241" filterUnits="userSpaceOnUse" color-interpolation-filters="sRGB">
<feFlood flood-opacity="0" result="BackgroundImageFix"/>
<feGaussianBlur in="BackgroundImage" stdDeviation="8.82699"/>
<feComposite in2="SourceAlpha" operator="in" result="effect1_backgroundBlur_8458_41689"/>
<feBlend mode="normal" in="SourceGraphic" in2="effect1_backgroundBlur_8458_41689" result="shape"/>
</filter>
<linearGradient id="paint0_linear_8458_41689" x1="89.9764" y1="41.4447" x2="-1.8057" y2="133.876" gradientUnits="userSpaceOnUse">
<stop stop-color="#65DCFD"/>
<stop offset="0.395053" stop-opacity="0"/>
</linearGradient>
<linearGradient id="paint1_linear_8458_41689" x1="177.849" y1="-16.9529" x2="123.207" y2="91.1313" gradientUnits="userSpaceOnUse">
<stop stop-color="white"/>
<stop offset="1" stop-color="white" stop-opacity="0"/>
</linearGradient>
<linearGradient id="paint2_linear_8458_41689" x1="132.305" y1="18.4749" x2="96.6668" y2="80.281" gradientUnits="userSpaceOnUse">
<stop stop-color="#777777"/>
<stop offset="1" stop-color="white" stop-opacity="0"/>
</linearGradient>
<linearGradient id="paint3_linear_8458_41689" x1="134.016" y1="-21.1462" x2="40.467" y2="40.5355" gradientUnits="userSpaceOnUse">
<stop stop-color="white"/>
<stop offset="1" stop-color="white" stop-opacity="0"/>
</linearGradient>
<linearGradient id="paint4_linear_8458_41689" x1="111.245" y1="31.9956" x2="57.7189" y2="62.9377" gradientUnits="userSpaceOnUse">
<stop stop-color="#777777"/>
<stop offset="1" stop-color="white" stop-opacity="0"/>
</linearGradient>
<linearGradient id="paint5_linear_8458_41689" x1="104.383" y1="-21.1462" x2="10.8337" y2="40.5355" gradientUnits="userSpaceOnUse">
<stop stop-color="white"/>
<stop offset="1" stop-color="white" stop-opacity="0"/>
</linearGradient>
<linearGradient id="paint6_linear_8458_41689" x1="81.6112" y1="31.9956" x2="28.0856" y2="62.9377" gradientUnits="userSpaceOnUse">
<stop stop-color="#777777"/>
<stop offset="1" stop-color="white" stop-opacity="0"/>
</linearGradient>
<linearGradient id="paint7_linear_8458_41689" x1="59.8151" y1="57.5946" x2="-31.9671" y2="150.026" gradientUnits="userSpaceOnUse">
<stop stop-color="#FF79BE"/>
<stop offset="0.395053" stop-opacity="0"/>
</linearGradient>
<linearGradient id="paint8_linear_8458_41689" x1="147.627" y1="-0.40458" x2="92.9855" y2="107.68" gradientUnits="userSpaceOnUse">
<stop stop-color="white"/>
<stop offset="1" stop-color="white" stop-opacity="0"/>
</linearGradient>
<linearGradient id="paint9_linear_8458_41689" x1="102.084" y1="35.0233" x2="66.4453" y2="96.8293" gradientUnits="userSpaceOnUse">
<stop stop-color="#777777"/>
<stop offset="1" stop-color="white" stop-opacity="0"/>
</linearGradient>
<linearGradient id="paint10_linear_8458_41689" x1="103.795" y1="-4.59785" x2="10.2458" y2="57.0838" gradientUnits="userSpaceOnUse">
<stop stop-color="white"/>
<stop offset="1" stop-color="white" stop-opacity="0"/>
</linearGradient>
<linearGradient id="paint11_linear_8458_41689" x1="81.0233" y1="48.5439" x2="27.4977" y2="79.486" gradientUnits="userSpaceOnUse">
<stop stop-color="#777777"/>
<stop offset="1" stop-color="white" stop-opacity="0"/>
</linearGradient>
<linearGradient id="paint12_linear_8458_41689" x1="74.1619" y1="-4.59785" x2="-19.3873" y2="57.0838" gradientUnits="userSpaceOnUse">
<stop stop-color="white"/>
<stop offset="1" stop-color="white" stop-opacity="0"/>
</linearGradient>
<linearGradient id="paint13_linear_8458_41689" x1="51.3903" y1="48.5439" x2="-2.13534" y2="79.486" gradientUnits="userSpaceOnUse">
<stop stop-color="#777777"/>
<stop offset="1" stop-color="white" stop-opacity="0"/>
</linearGradient>
<linearGradient id="paint14_linear_8458_41689" x1="75.3529" y1="16.3051" x2="-16.4292" y2="108.737" gradientUnits="userSpaceOnUse">
<stop stop-color="#FAC38C"/>
<stop offset="0.395053" stop-opacity="0"/>
</linearGradient>
<linearGradient id="paint15_linear_8458_41689" x1="162.33" y1="-42.2732" x2="107.688" y2="65.811" gradientUnits="userSpaceOnUse">
<stop stop-color="white"/>
<stop offset="1" stop-color="white" stop-opacity="0"/>
</linearGradient>
<linearGradient id="paint16_linear_8458_41689" x1="116.786" y1="-6.84539" x2="81.1477" y2="54.9607" gradientUnits="userSpaceOnUse">
<stop stop-color="#777777"/>
<stop offset="1" stop-color="white" stop-opacity="0"/>
</linearGradient>
<linearGradient id="paint17_linear_8458_41689" x1="118.497" y1="-46.4665" x2="24.9482" y2="15.2152" gradientUnits="userSpaceOnUse">
<stop stop-color="white"/>
<stop offset="1" stop-color="white" stop-opacity="0"/>
</linearGradient>
<linearGradient id="paint18_linear_8458_41689" x1="95.7257" y1="6.67528" x2="42.2001" y2="37.6174" gradientUnits="userSpaceOnUse">
<stop stop-color="#777777"/>
<stop offset="1" stop-color="white" stop-opacity="0"/>
</linearGradient>
<linearGradient id="paint19_linear_8458_41689" x1="88.8643" y1="-46.4665" x2="-4.68487" y2="15.2152" gradientUnits="userSpaceOnUse">
<stop stop-color="white"/>
<stop offset="1" stop-color="white" stop-opacity="0"/>
</linearGradient>
<linearGradient id="paint20_linear_8458_41689" x1="66.0927" y1="6.67528" x2="12.567" y2="37.6174" gradientUnits="userSpaceOnUse">
<stop stop-color="#777777"/>
<stop offset="1" stop-color="white" stop-opacity="0"/>
</linearGradient>
</defs>
</svg>
