<svg width="61" height="92" viewBox="0 0 61 92" fill="none" xmlns="http://www.w3.org/2000/svg">
<path d="M60.7117 45.7853V68.658L40.7048 79.6707L40.7048 34.3491L60.7117 45.7853Z" fill="url(#paint0_linear_8458_41572)"/>
<g filter="url(#filter0_b_8458_41572)">
<path d="M20.9948 45.9153L40.9024 57.3394L60.8101 45.9153L40.9024 34.4912L20.9948 45.9153Z" fill="#797979" fill-opacity="0.2"/>
<path d="M40.9024 34.7354L21.4203 45.9153L40.9024 57.0953L60.3846 45.9153L40.9024 34.7354Z" stroke="url(#paint1_linear_8458_41572)" stroke-width="0.423566"/>
<path d="M40.9024 34.7354L21.4203 45.9153L40.9024 57.0953L60.3846 45.9153L40.9024 34.7354Z" stroke="url(#paint2_linear_8458_41572)" stroke-opacity="0.2" stroke-width="0.423566"/>
</g>
<g filter="url(#filter1_b_8458_41572)">
<path d="M40.9029 57.3396V80.1879L60.8105 68.7638V45.9155L40.9029 57.3396Z" fill="#797979" fill-opacity="0.2"/>
<path d="M60.5988 46.2812L41.1147 57.4623V79.8222L60.5988 68.6411V46.2812Z" stroke="url(#paint3_linear_8458_41572)" stroke-width="0.423566"/>
<path d="M60.5988 46.2812L41.1147 57.4623V79.8222L60.5988 68.6411V46.2812Z" stroke="url(#paint4_linear_8458_41572)" stroke-opacity="0.2" stroke-width="0.423566"/>
</g>
<g filter="url(#filter2_b_8458_41572)">
<path d="M20.9955 45.9155L20.9955 68.7638L40.9031 80.1879L40.9031 57.3396L20.9955 45.9155Z" fill="#797979" fill-opacity="0.2"/>
<path d="M40.6913 57.4623L21.2072 46.2812L21.2072 68.6411L40.6913 79.8222L40.6913 57.4623Z" stroke="url(#paint5_linear_8458_41572)" stroke-width="0.423566"/>
<path d="M40.6913 57.4623L21.2072 46.2812L21.2072 68.6411L40.6913 79.8222L40.6913 57.4623Z" stroke="url(#paint6_linear_8458_41572)" stroke-opacity="0.2" stroke-width="0.423566"/>
</g>
<g clip-path="url(#clip0_8458_41572)">
<path d="M26.6587 65.0445L31.1444 63.54L26.6587 57.0112V55.6724L34.8358 60.2518V61.5906L28.5645 58.0786L33.0836 64.626L28.5645 66.1118L34.8358 69.6239V70.9627L26.6587 66.3833V65.0445Z" fill="#C24E00"/>
</g>
<path d="M40.3687 57.4328V80.3054L20.3618 90.8946L20.3618 45.9966L40.3687 57.4328Z" fill="url(#paint7_linear_8458_41572)"/>
<g filter="url(#filter3_b_8458_41572)">
<path d="M0.692334 57.2962L20.6 68.7203L40.5076 57.2962L20.6 45.8721L0.692334 57.2962Z" fill="#797979" fill-opacity="0.2"/>
<path d="M20.6 46.1162L1.11784 57.2962L20.6 68.4761L40.0821 57.2962L20.6 46.1162Z" stroke="url(#paint8_linear_8458_41572)" stroke-width="0.423566"/>
<path d="M20.6 46.1162L1.11784 57.2962L20.6 68.4761L40.0821 57.2962L20.6 46.1162Z" stroke="url(#paint9_linear_8458_41572)" stroke-opacity="0.2" stroke-width="0.423566"/>
</g>
<g filter="url(#filter4_b_8458_41572)">
<path d="M20.6002 68.72L20.6002 91.5683L40.5078 80.1441V57.2959L20.6002 68.72Z" fill="#797979" fill-opacity="0.2"/>
<path d="M40.296 57.6616L20.812 68.8427L20.812 91.2025L40.296 80.0215V57.6616Z" stroke="url(#paint10_linear_8458_41572)" stroke-width="0.423566"/>
<path d="M40.296 57.6616L20.812 68.8427L20.812 91.2025L40.296 80.0215V57.6616Z" stroke="url(#paint11_linear_8458_41572)" stroke-opacity="0.2" stroke-width="0.423566"/>
</g>
<g filter="url(#filter5_b_8458_41572)">
<path d="M0.692481 57.2959L0.692481 80.1441L20.6001 91.5683L20.6001 68.72L0.692481 57.2959Z" fill="#797979" fill-opacity="0.2"/>
<path d="M20.3883 68.8427L0.904263 57.6616L0.904263 80.0215L20.3883 91.2025L20.3883 68.8427Z" stroke="url(#paint12_linear_8458_41572)" stroke-width="0.423566"/>
<path d="M20.3883 68.8427L0.904263 57.6616L0.904263 80.0215L20.3883 91.2025L20.3883 68.8427Z" stroke="url(#paint13_linear_8458_41572)" stroke-opacity="0.2" stroke-width="0.423566"/>
</g>
<path d="M60.7119 22.739V45.6116L40.7051 56.6243L40.7051 11.3027L60.7119 22.739Z" fill="url(#paint14_linear_8458_41572)"/>
<g filter="url(#filter6_b_8458_41572)">
<path d="M20.9948 22.8689L40.9024 34.2931L60.8101 22.8689L40.9024 11.4448L20.9948 22.8689Z" fill="#797979" fill-opacity="0.2"/>
<path d="M40.9024 11.689L21.4203 22.8689L40.9024 34.0489L60.3846 22.8689L40.9024 11.689Z" stroke="url(#paint15_linear_8458_41572)" stroke-width="0.423566"/>
<path d="M40.9024 11.689L21.4203 22.8689L40.9024 34.0489L60.3846 22.8689L40.9024 11.689Z" stroke="url(#paint16_linear_8458_41572)" stroke-opacity="0.2" stroke-width="0.423566"/>
</g>
<g filter="url(#filter7_b_8458_41572)">
<path d="M40.9029 34.2937V57.142L60.8105 45.7179V22.8696L40.9029 34.2937Z" fill="#797979" fill-opacity="0.2"/>
<path d="M60.5988 23.2353L41.1147 34.4164V56.7763L60.5988 45.5952V23.2353Z" stroke="url(#paint17_linear_8458_41572)" stroke-width="0.423566"/>
<path d="M60.5988 23.2353L41.1147 34.4164V56.7763L60.5988 45.5952V23.2353Z" stroke="url(#paint18_linear_8458_41572)" stroke-opacity="0.2" stroke-width="0.423566"/>
</g>
<g filter="url(#filter8_b_8458_41572)">
<path d="M20.9957 22.8696L20.9957 45.7179L40.9033 57.142L40.9033 34.2937L20.9957 22.8696Z" fill="#797979" fill-opacity="0.2"/>
<path d="M40.6915 34.4164L21.2075 23.2353L21.2075 45.5952L40.6915 56.7763L40.6915 34.4164Z" stroke="url(#paint19_linear_8458_41572)" stroke-width="0.423566"/>
<path d="M40.6915 34.4164L21.2075 23.2353L21.2075 45.5952L40.6915 56.7763L40.6915 34.4164Z" stroke="url(#paint20_linear_8458_41572)" stroke-opacity="0.2" stroke-width="0.423566"/>
</g>
<path d="M40.9212 12.0109V34.4268L20.9143 44.9274L20.9143 0.574707L40.9212 12.0109Z" fill="url(#paint21_linear_8458_41572)"/>
<g filter="url(#filter9_b_8458_41572)">
<path d="M1.24116 11.7527L21.1488 23.1768L41.0564 11.7527L21.1488 0.328613L1.24116 11.7527Z" fill="#797979" fill-opacity="0.2"/>
<path d="M21.1488 0.57279L1.66667 11.7527L21.1488 22.9327L40.6309 11.7527L21.1488 0.57279Z" stroke="url(#paint22_linear_8458_41572)" stroke-width="0.423566"/>
<path d="M21.1488 0.57279L1.66667 11.7527L21.1488 22.9327L40.6309 11.7527L21.1488 0.57279Z" stroke="url(#paint23_linear_8458_41572)" stroke-opacity="0.2" stroke-width="0.423566"/>
</g>
<g filter="url(#filter10_b_8458_41572)">
<path d="M21.149 23.1766L21.149 46.0248L41.0566 34.6007V11.7524L21.149 23.1766Z" fill="#797979" fill-opacity="0.2"/>
<path d="M40.8449 12.1182L21.3608 23.2992L21.3608 45.6591L40.8449 34.478V12.1182Z" stroke="url(#paint24_linear_8458_41572)" stroke-width="0.423566"/>
<path d="M40.8449 12.1182L21.3608 23.2992L21.3608 45.6591L40.8449 34.478V12.1182Z" stroke="url(#paint25_linear_8458_41572)" stroke-opacity="0.2" stroke-width="0.423566"/>
</g>
<g filter="url(#filter11_b_8458_41572)">
<path d="M1.2418 11.7524L1.2418 34.6007L21.1494 46.0248L21.1494 23.1766L1.2418 11.7524Z" fill="#797979" fill-opacity="0.2"/>
<path d="M20.9376 23.2992L1.45358 12.1182L1.45358 34.478L20.9376 45.6591L20.9376 23.2992Z" stroke="url(#paint26_linear_8458_41572)" stroke-width="0.423566"/>
<path d="M20.9376 23.2992L1.45358 12.1182L1.45358 34.478L20.9376 45.6591L20.9376 23.2992Z" stroke="url(#paint27_linear_8458_41572)" stroke-opacity="0.2" stroke-width="0.423566"/>
</g>
<defs>
<filter id="filter0_b_8458_41572" x="9.13503" y="22.6314" width="63.5349" height="46.5678" filterUnits="userSpaceOnUse" color-interpolation-filters="sRGB">
<feFlood flood-opacity="0" result="BackgroundImageFix"/>
<feGaussianBlur in="BackgroundImage" stdDeviation="5.92992"/>
<feComposite in2="SourceAlpha" operator="in" result="effect1_backgroundBlur_8458_41572"/>
<feBlend mode="normal" in="SourceGraphic" in2="effect1_backgroundBlur_8458_41572" result="shape"/>
</filter>
<filter id="filter1_b_8458_41572" x="29.043" y="34.0557" width="43.6274" height="57.9922" filterUnits="userSpaceOnUse" color-interpolation-filters="sRGB">
<feFlood flood-opacity="0" result="BackgroundImageFix"/>
<feGaussianBlur in="BackgroundImage" stdDeviation="5.92992"/>
<feComposite in2="SourceAlpha" operator="in" result="effect1_backgroundBlur_8458_41572"/>
<feBlend mode="normal" in="SourceGraphic" in2="effect1_backgroundBlur_8458_41572" result="shape"/>
</filter>
<filter id="filter2_b_8458_41572" x="9.13551" y="34.0557" width="43.6274" height="57.9922" filterUnits="userSpaceOnUse" color-interpolation-filters="sRGB">
<feFlood flood-opacity="0" result="BackgroundImageFix"/>
<feGaussianBlur in="BackgroundImage" stdDeviation="5.92992"/>
<feComposite in2="SourceAlpha" operator="in" result="effect1_backgroundBlur_8458_41572"/>
<feBlend mode="normal" in="SourceGraphic" in2="effect1_backgroundBlur_8458_41572" result="shape"/>
</filter>
<filter id="filter3_b_8458_41572" x="-11.1675" y="34.0122" width="63.5349" height="46.5678" filterUnits="userSpaceOnUse" color-interpolation-filters="sRGB">
<feFlood flood-opacity="0" result="BackgroundImageFix"/>
<feGaussianBlur in="BackgroundImage" stdDeviation="5.92992"/>
<feComposite in2="SourceAlpha" operator="in" result="effect1_backgroundBlur_8458_41572"/>
<feBlend mode="normal" in="SourceGraphic" in2="effect1_backgroundBlur_8458_41572" result="shape"/>
</filter>
<filter id="filter4_b_8458_41572" x="8.74025" y="45.4361" width="43.6274" height="57.9922" filterUnits="userSpaceOnUse" color-interpolation-filters="sRGB">
<feFlood flood-opacity="0" result="BackgroundImageFix"/>
<feGaussianBlur in="BackgroundImage" stdDeviation="5.92992"/>
<feComposite in2="SourceAlpha" operator="in" result="effect1_backgroundBlur_8458_41572"/>
<feBlend mode="normal" in="SourceGraphic" in2="effect1_backgroundBlur_8458_41572" result="shape"/>
</filter>
<filter id="filter5_b_8458_41572" x="-11.1675" y="45.4361" width="43.6274" height="57.9922" filterUnits="userSpaceOnUse" color-interpolation-filters="sRGB">
<feFlood flood-opacity="0" result="BackgroundImageFix"/>
<feGaussianBlur in="BackgroundImage" stdDeviation="5.92992"/>
<feComposite in2="SourceAlpha" operator="in" result="effect1_backgroundBlur_8458_41572"/>
<feBlend mode="normal" in="SourceGraphic" in2="effect1_backgroundBlur_8458_41572" result="shape"/>
</filter>
<filter id="filter6_b_8458_41572" x="9.13503" y="-0.415023" width="63.5349" height="46.5678" filterUnits="userSpaceOnUse" color-interpolation-filters="sRGB">
<feFlood flood-opacity="0" result="BackgroundImageFix"/>
<feGaussianBlur in="BackgroundImage" stdDeviation="5.92992"/>
<feComposite in2="SourceAlpha" operator="in" result="effect1_backgroundBlur_8458_41572"/>
<feBlend mode="normal" in="SourceGraphic" in2="effect1_backgroundBlur_8458_41572" result="shape"/>
</filter>
<filter id="filter7_b_8458_41572" x="29.043" y="11.0098" width="43.6274" height="57.9922" filterUnits="userSpaceOnUse" color-interpolation-filters="sRGB">
<feFlood flood-opacity="0" result="BackgroundImageFix"/>
<feGaussianBlur in="BackgroundImage" stdDeviation="5.92992"/>
<feComposite in2="SourceAlpha" operator="in" result="effect1_backgroundBlur_8458_41572"/>
<feBlend mode="normal" in="SourceGraphic" in2="effect1_backgroundBlur_8458_41572" result="shape"/>
</filter>
<filter id="filter8_b_8458_41572" x="9.13576" y="11.0098" width="43.6274" height="57.9922" filterUnits="userSpaceOnUse" color-interpolation-filters="sRGB">
<feFlood flood-opacity="0" result="BackgroundImageFix"/>
<feGaussianBlur in="BackgroundImage" stdDeviation="5.92992"/>
<feComposite in2="SourceAlpha" operator="in" result="effect1_backgroundBlur_8458_41572"/>
<feBlend mode="normal" in="SourceGraphic" in2="effect1_backgroundBlur_8458_41572" result="shape"/>
</filter>
<filter id="filter9_b_8458_41572" x="-10.6186" y="-11.5312" width="63.5349" height="46.5678" filterUnits="userSpaceOnUse" color-interpolation-filters="sRGB">
<feFlood flood-opacity="0" result="BackgroundImageFix"/>
<feGaussianBlur in="BackgroundImage" stdDeviation="5.92992"/>
<feComposite in2="SourceAlpha" operator="in" result="effect1_backgroundBlur_8458_41572"/>
<feBlend mode="normal" in="SourceGraphic" in2="effect1_backgroundBlur_8458_41572" result="shape"/>
</filter>
<filter id="filter10_b_8458_41572" x="9.28908" y="-0.107406" width="43.6274" height="57.9922" filterUnits="userSpaceOnUse" color-interpolation-filters="sRGB">
<feFlood flood-opacity="0" result="BackgroundImageFix"/>
<feGaussianBlur in="BackgroundImage" stdDeviation="5.92992"/>
<feComposite in2="SourceAlpha" operator="in" result="effect1_backgroundBlur_8458_41572"/>
<feBlend mode="normal" in="SourceGraphic" in2="effect1_backgroundBlur_8458_41572" result="shape"/>
</filter>
<filter id="filter11_b_8458_41572" x="-10.6181" y="-0.107406" width="43.6274" height="57.9922" filterUnits="userSpaceOnUse" color-interpolation-filters="sRGB">
<feFlood flood-opacity="0" result="BackgroundImageFix"/>
<feGaussianBlur in="BackgroundImage" stdDeviation="5.92992"/>
<feComposite in2="SourceAlpha" operator="in" result="effect1_backgroundBlur_8458_41572"/>
<feBlend mode="normal" in="SourceGraphic" in2="effect1_backgroundBlur_8458_41572" result="shape"/>
</filter>
<linearGradient id="paint0_linear_8458_41572" x1="60.7116" y1="44.9731" x2="-0.947123" y2="107.068" gradientUnits="userSpaceOnUse">
<stop stop-color="#FF79BE"/>
<stop offset="0.395053" stop-opacity="0"/>
</linearGradient>
<linearGradient id="paint1_linear_8458_41572" x1="119.703" y1="6.00895" x2="82.9953" y2="78.6194" gradientUnits="userSpaceOnUse">
<stop stop-color="white"/>
<stop offset="1" stop-color="white" stop-opacity="0"/>
</linearGradient>
<linearGradient id="paint2_linear_8458_41572" x1="89.1076" y1="29.8092" x2="65.1658" y2="71.3302" gradientUnits="userSpaceOnUse">
<stop stop-color="#777777"/>
<stop offset="1" stop-color="white" stop-opacity="0"/>
</linearGradient>
<linearGradient id="paint3_linear_8458_41572" x1="90.2572" y1="3.19214" x2="27.4113" y2="44.6296" gradientUnits="userSpaceOnUse">
<stop stop-color="white"/>
<stop offset="1" stop-color="white" stop-opacity="0"/>
</linearGradient>
<linearGradient id="paint4_linear_8458_41572" x1="74.9593" y1="38.8925" x2="39.0011" y2="59.6793" gradientUnits="userSpaceOnUse">
<stop stop-color="#777777"/>
<stop offset="1" stop-color="white" stop-opacity="0"/>
</linearGradient>
<linearGradient id="paint5_linear_8458_41572" x1="70.3497" y1="3.19214" x2="7.50388" y2="44.6296" gradientUnits="userSpaceOnUse">
<stop stop-color="white"/>
<stop offset="1" stop-color="white" stop-opacity="0"/>
</linearGradient>
<linearGradient id="paint6_linear_8458_41572" x1="55.0519" y1="38.8925" x2="19.0936" y2="59.6793" gradientUnits="userSpaceOnUse">
<stop stop-color="#777777"/>
<stop offset="1" stop-color="white" stop-opacity="0"/>
</linearGradient>
<linearGradient id="paint7_linear_8458_41572" x1="40.3686" y1="56.6206" x2="-21.2901" y2="118.716" gradientUnits="userSpaceOnUse">
<stop stop-color="#FF79BE"/>
<stop offset="0.395053" stop-opacity="0"/>
</linearGradient>
<linearGradient id="paint8_linear_8458_41572" x1="99.4008" y1="17.3898" x2="62.6928" y2="90.0002" gradientUnits="userSpaceOnUse">
<stop stop-color="white"/>
<stop offset="1" stop-color="white" stop-opacity="0"/>
</linearGradient>
<linearGradient id="paint9_linear_8458_41572" x1="68.8051" y1="41.1901" x2="44.8633" y2="82.711" gradientUnits="userSpaceOnUse">
<stop stop-color="#777777"/>
<stop offset="1" stop-color="white" stop-opacity="0"/>
</linearGradient>
<linearGradient id="paint10_linear_8458_41572" x1="69.9545" y1="14.5725" x2="7.10862" y2="56.0099" gradientUnits="userSpaceOnUse">
<stop stop-color="white"/>
<stop offset="1" stop-color="white" stop-opacity="0"/>
</linearGradient>
<linearGradient id="paint11_linear_8458_41572" x1="54.6566" y1="50.2729" x2="18.6984" y2="71.0596" gradientUnits="userSpaceOnUse">
<stop stop-color="#777777"/>
<stop offset="1" stop-color="white" stop-opacity="0"/>
</linearGradient>
<linearGradient id="paint12_linear_8458_41572" x1="50.0467" y1="14.5725" x2="-12.7991" y2="56.0099" gradientUnits="userSpaceOnUse">
<stop stop-color="white"/>
<stop offset="1" stop-color="white" stop-opacity="0"/>
</linearGradient>
<linearGradient id="paint13_linear_8458_41572" x1="34.7489" y1="50.2729" x2="-1.20935" y2="71.0596" gradientUnits="userSpaceOnUse">
<stop stop-color="#777777"/>
<stop offset="1" stop-color="white" stop-opacity="0"/>
</linearGradient>
<linearGradient id="paint14_linear_8458_41572" x1="60.7119" y1="21.9267" x2="-0.946879" y2="84.0219" gradientUnits="userSpaceOnUse">
<stop stop-color="#FF79BE"/>
<stop offset="0.395053" stop-opacity="0"/>
</linearGradient>
<linearGradient id="paint15_linear_8458_41572" x1="119.703" y1="-17.0374" x2="82.9953" y2="55.573" gradientUnits="userSpaceOnUse">
<stop stop-color="white"/>
<stop offset="1" stop-color="white" stop-opacity="0"/>
</linearGradient>
<linearGradient id="paint16_linear_8458_41572" x1="89.1076" y1="6.76281" x2="65.1658" y2="48.2838" gradientUnits="userSpaceOnUse">
<stop stop-color="#777777"/>
<stop offset="1" stop-color="white" stop-opacity="0"/>
</linearGradient>
<linearGradient id="paint17_linear_8458_41572" x1="90.2572" y1="-19.8538" x2="27.4113" y2="21.5837" gradientUnits="userSpaceOnUse">
<stop stop-color="white"/>
<stop offset="1" stop-color="white" stop-opacity="0"/>
</linearGradient>
<linearGradient id="paint18_linear_8458_41572" x1="74.9593" y1="15.8466" x2="39.0011" y2="36.6334" gradientUnits="userSpaceOnUse">
<stop stop-color="#777777"/>
<stop offset="1" stop-color="white" stop-opacity="0"/>
</linearGradient>
<linearGradient id="paint19_linear_8458_41572" x1="70.35" y1="-19.8538" x2="7.50412" y2="21.5837" gradientUnits="userSpaceOnUse">
<stop stop-color="white"/>
<stop offset="1" stop-color="white" stop-opacity="0"/>
</linearGradient>
<linearGradient id="paint20_linear_8458_41572" x1="55.0521" y1="15.8466" x2="19.0939" y2="36.6334" gradientUnits="userSpaceOnUse">
<stop stop-color="#777777"/>
<stop offset="1" stop-color="white" stop-opacity="0"/>
</linearGradient>
<linearGradient id="paint21_linear_8458_41572" x1="41.5193" y1="11.1987" x2="-20.1395" y2="73.2939" gradientUnits="userSpaceOnUse">
<stop stop-color="#FF79BE"/>
<stop offset="0.395053" stop-opacity="0"/>
</linearGradient>
<linearGradient id="paint22_linear_8458_41572" x1="99.9497" y1="-28.1536" x2="63.2416" y2="44.4568" gradientUnits="userSpaceOnUse">
<stop stop-color="white"/>
<stop offset="1" stop-color="white" stop-opacity="0"/>
</linearGradient>
<linearGradient id="paint23_linear_8458_41572" x1="69.354" y1="-4.3534" x2="45.4121" y2="37.1676" gradientUnits="userSpaceOnUse">
<stop stop-color="#777777"/>
<stop offset="1" stop-color="white" stop-opacity="0"/>
</linearGradient>
<linearGradient id="paint24_linear_8458_41572" x1="70.5033" y1="-30.971" x2="7.65744" y2="10.4665" gradientUnits="userSpaceOnUse">
<stop stop-color="white"/>
<stop offset="1" stop-color="white" stop-opacity="0"/>
</linearGradient>
<linearGradient id="paint25_linear_8458_41572" x1="55.2054" y1="4.72942" x2="19.2472" y2="25.5162" gradientUnits="userSpaceOnUse">
<stop stop-color="#777777"/>
<stop offset="1" stop-color="white" stop-opacity="0"/>
</linearGradient>
<linearGradient id="paint26_linear_8458_41572" x1="50.5961" y1="-30.971" x2="-12.2498" y2="10.4665" gradientUnits="userSpaceOnUse">
<stop stop-color="white"/>
<stop offset="1" stop-color="white" stop-opacity="0"/>
</linearGradient>
<linearGradient id="paint27_linear_8458_41572" x1="35.2982" y1="4.72942" x2="-0.660033" y2="25.5162" gradientUnits="userSpaceOnUse">
<stop stop-color="#777777"/>
<stop offset="1" stop-color="white" stop-opacity="0"/>
</linearGradient>
<clipPath id="clip0_8458_41572">
<rect width="16.0665" height="16.0665" fill="white" transform="matrix(0.872496 0.488621 0 1 23.7383 51.3589)"/>
</clipPath>
</defs>
</svg>
