<svg width="61" height="104" viewBox="0 0 61 104" fill="none" xmlns="http://www.w3.org/2000/svg">
<path d="M40.5374 68.7956V91.6682L20.5305 102.681L20.5305 57.3594L40.5374 68.7956Z" fill="url(#paint0_linear_8458_41836)"/>
<g filter="url(#filter0_b_8458_41836)">
<path d="M0.820508 68.9266L20.7281 80.3507L40.6357 68.9266L20.7281 57.5024L0.820508 68.9266Z" fill="#797979" fill-opacity="0.2"/>
<path d="M20.7281 57.7466L1.24601 68.9266L20.7281 80.1065L40.2102 68.9266L20.7281 57.7466Z" stroke="url(#paint1_linear_8458_41836)" stroke-width="0.423566"/>
<path d="M20.7281 57.7466L1.24601 68.9266L20.7281 80.1065L40.2102 68.9266L20.7281 57.7466Z" stroke="url(#paint2_linear_8458_41836)" stroke-opacity="0.2" stroke-width="0.423566"/>
</g>
<g filter="url(#filter1_b_8458_41836)">
<path d="M20.7286 80.3509L20.7286 103.199L40.6362 91.775V68.9268L20.7286 80.3509Z" fill="#797979" fill-opacity="0.2"/>
<path d="M40.4244 69.2925L20.9404 80.4735L20.9404 102.833L40.4244 91.6524V69.2925Z" stroke="url(#paint3_linear_8458_41836)" stroke-width="0.423566"/>
<path d="M40.4244 69.2925L20.9404 80.4735L20.9404 102.833L40.4244 91.6524V69.2925Z" stroke="url(#paint4_linear_8458_41836)" stroke-opacity="0.2" stroke-width="0.423566"/>
</g>
<g filter="url(#filter2_b_8458_41836)">
<path d="M0.821143 68.9268L0.821143 91.775L20.7288 103.199L20.7288 80.3509L0.821143 68.9268Z" fill="#797979" fill-opacity="0.2"/>
<path d="M20.517 80.4735L1.03293 69.2925L1.03293 91.6524L20.517 102.833L20.517 80.4735Z" stroke="url(#paint5_linear_8458_41836)" stroke-width="0.423566"/>
<path d="M20.517 80.4735L1.03293 69.2925L1.03293 91.6524L20.517 102.833L20.517 80.4735Z" stroke="url(#paint6_linear_8458_41836)" stroke-opacity="0.2" stroke-width="0.423566"/>
</g>
<path d="M60.251 57.3976V80.2703L40.2441 90.8594L40.2441 45.9614L60.251 57.3976Z" fill="url(#paint7_linear_8458_41836)"/>
<g filter="url(#filter3_b_8458_41836)">
<path d="M20.5747 57.2605L40.4823 68.6847L60.3899 57.2605L40.4823 45.8364L20.5747 57.2605Z" fill="#797979" fill-opacity="0.2"/>
<path d="M40.4823 46.0806L21.0002 57.2605L40.4823 68.4405L59.9644 57.2605L40.4823 46.0806Z" stroke="url(#paint8_linear_8458_41836)" stroke-width="0.423566"/>
<path d="M40.4823 46.0806L21.0002 57.2605L40.4823 68.4405L59.9644 57.2605L40.4823 46.0806Z" stroke="url(#paint9_linear_8458_41836)" stroke-opacity="0.2" stroke-width="0.423566"/>
</g>
<g filter="url(#filter4_b_8458_41836)">
<path d="M40.4825 68.6849V91.5331L60.3901 80.109V57.2607L40.4825 68.6849Z" fill="#797979" fill-opacity="0.2"/>
<path d="M60.1784 57.6265L40.6943 68.8075V91.1674L60.1784 79.9863V57.6265Z" stroke="url(#paint10_linear_8458_41836)" stroke-width="0.423566"/>
<path d="M60.1784 57.6265L40.6943 68.8075V91.1674L60.1784 79.9863V57.6265Z" stroke="url(#paint11_linear_8458_41836)" stroke-opacity="0.2" stroke-width="0.423566"/>
</g>
<g filter="url(#filter5_b_8458_41836)">
<path d="M20.5748 57.2607L20.5748 80.109L40.4824 91.5331L40.4824 68.6849L20.5748 57.2607Z" fill="#797979" fill-opacity="0.2"/>
<path d="M40.2706 68.8075L20.7866 57.6265L20.7866 79.9863L40.2706 91.1674L40.2706 68.8075Z" stroke="url(#paint12_linear_8458_41836)" stroke-width="0.423566"/>
<path d="M40.2706 68.8075L20.7866 57.6265L20.7866 79.9863L40.2706 91.1674L40.2706 68.8075Z" stroke="url(#paint13_linear_8458_41836)" stroke-opacity="0.2" stroke-width="0.423566"/>
</g>
<path d="M40.5374 45.7492V68.6218L20.5305 79.6345L20.5305 34.313L40.5374 45.7492Z" fill="url(#paint14_linear_8458_41836)"/>
<g filter="url(#filter6_b_8458_41836)">
<path d="M0.820508 45.8797L20.7281 57.3038L40.6357 45.8797L20.7281 34.4556L0.820508 45.8797Z" fill="#797979" fill-opacity="0.2"/>
<path d="M20.7281 34.6997L1.24601 45.8797L20.7281 57.0596L40.2102 45.8797L20.7281 34.6997Z" stroke="url(#paint15_linear_8458_41836)" stroke-width="0.423566"/>
<path d="M20.7281 34.6997L1.24601 45.8797L20.7281 57.0596L40.2102 45.8797L20.7281 34.6997Z" stroke="url(#paint16_linear_8458_41836)" stroke-opacity="0.2" stroke-width="0.423566"/>
</g>
<g filter="url(#filter7_b_8458_41836)">
<path d="M20.7286 57.3035L20.7286 80.1517L40.6362 68.7276V45.8794L20.7286 57.3035Z" fill="#797979" fill-opacity="0.2"/>
<path d="M40.4244 46.2451L20.9404 57.4262L20.9404 79.786L40.4244 68.605V46.2451Z" stroke="url(#paint17_linear_8458_41836)" stroke-width="0.423566"/>
<path d="M40.4244 46.2451L20.9404 57.4262L20.9404 79.786L40.4244 68.605V46.2451Z" stroke="url(#paint18_linear_8458_41836)" stroke-opacity="0.2" stroke-width="0.423566"/>
</g>
<g filter="url(#filter8_b_8458_41836)">
<path d="M0.821143 45.8794L0.821143 68.7276L20.7288 80.1517L20.7288 57.3035L0.821143 45.8794Z" fill="#797979" fill-opacity="0.2"/>
<path d="M20.517 57.4262L1.03293 46.2451L1.03293 68.605L20.517 79.786L20.517 57.4262Z" stroke="url(#paint19_linear_8458_41836)" stroke-width="0.423566"/>
<path d="M20.517 57.4262L1.03293 46.2451L1.03293 68.605L20.517 79.786L20.517 57.4262Z" stroke="url(#paint20_linear_8458_41836)" stroke-opacity="0.2" stroke-width="0.423566"/>
</g>
<path d="M60.8033 11.9748V34.3907L40.7964 44.8913L40.7964 0.538574L60.8033 11.9748Z" fill="url(#paint21_linear_8458_41836)"/>
<g filter="url(#filter9_b_8458_41836)">
<path d="M21.1232 11.7166L41.0309 23.1407L60.9385 11.7166L41.0309 0.29248L21.1232 11.7166Z" fill="#797979" fill-opacity="0.2"/>
<path d="M41.0309 0.536657L21.5487 11.7166L41.0309 22.8965L60.513 11.7166L41.0309 0.536657Z" stroke="url(#paint22_linear_8458_41836)" stroke-width="0.423566"/>
<path d="M41.0309 0.536657L21.5487 11.7166L41.0309 22.8965L60.513 11.7166L41.0309 0.536657Z" stroke="url(#paint23_linear_8458_41836)" stroke-opacity="0.2" stroke-width="0.423566"/>
</g>
<g filter="url(#filter10_b_8458_41836)">
<path d="M41.0311 23.1409V45.9892L60.9387 34.565V11.7168L41.0311 23.1409Z" fill="#797979" fill-opacity="0.2"/>
<path d="M60.7269 12.0825L41.2429 23.2636V45.6234L60.7269 34.4424V12.0825Z" stroke="url(#paint24_linear_8458_41836)" stroke-width="0.423566"/>
<path d="M60.7269 12.0825L41.2429 23.2636V45.6234L60.7269 34.4424V12.0825Z" stroke="url(#paint25_linear_8458_41836)" stroke-opacity="0.2" stroke-width="0.423566"/>
</g>
<g filter="url(#filter11_b_8458_41836)">
<path d="M21.1239 11.7168L21.1239 34.565L41.0315 45.9892L41.0315 23.1409L21.1239 11.7168Z" fill="#797979" fill-opacity="0.2"/>
<path d="M40.8197 23.2636L21.3357 12.0825L21.3357 34.4424L40.8197 45.6234L40.8197 23.2636Z" stroke="url(#paint26_linear_8458_41836)" stroke-width="0.423566"/>
<path d="M40.8197 23.2636L21.3357 12.0825L21.3357 34.4424L40.8197 45.6234L40.8197 23.2636Z" stroke="url(#paint27_linear_8458_41836)" stroke-opacity="0.2" stroke-width="0.423566"/>
</g>
<defs>
<filter id="filter0_b_8458_41836" x="-11.0393" y="45.6426" width="63.5349" height="46.5678" filterUnits="userSpaceOnUse" color-interpolation-filters="sRGB">
<feFlood flood-opacity="0" result="BackgroundImageFix"/>
<feGaussianBlur in="BackgroundImage" stdDeviation="5.92992"/>
<feComposite in2="SourceAlpha" operator="in" result="effect1_backgroundBlur_8458_41836"/>
<feBlend mode="normal" in="SourceGraphic" in2="effect1_backgroundBlur_8458_41836" result="shape"/>
</filter>
<filter id="filter1_b_8458_41836" x="8.86867" y="57.0669" width="43.6274" height="57.9922" filterUnits="userSpaceOnUse" color-interpolation-filters="sRGB">
<feFlood flood-opacity="0" result="BackgroundImageFix"/>
<feGaussianBlur in="BackgroundImage" stdDeviation="5.92992"/>
<feComposite in2="SourceAlpha" operator="in" result="effect1_backgroundBlur_8458_41836"/>
<feBlend mode="normal" in="SourceGraphic" in2="effect1_backgroundBlur_8458_41836" result="shape"/>
</filter>
<filter id="filter2_b_8458_41836" x="-11.0388" y="57.0669" width="43.6274" height="57.9922" filterUnits="userSpaceOnUse" color-interpolation-filters="sRGB">
<feFlood flood-opacity="0" result="BackgroundImageFix"/>
<feGaussianBlur in="BackgroundImage" stdDeviation="5.92992"/>
<feComposite in2="SourceAlpha" operator="in" result="effect1_backgroundBlur_8458_41836"/>
<feBlend mode="normal" in="SourceGraphic" in2="effect1_backgroundBlur_8458_41836" result="shape"/>
</filter>
<filter id="filter3_b_8458_41836" x="8.71486" y="33.9766" width="63.5349" height="46.5678" filterUnits="userSpaceOnUse" color-interpolation-filters="sRGB">
<feFlood flood-opacity="0" result="BackgroundImageFix"/>
<feGaussianBlur in="BackgroundImage" stdDeviation="5.92992"/>
<feComposite in2="SourceAlpha" operator="in" result="effect1_backgroundBlur_8458_41836"/>
<feBlend mode="normal" in="SourceGraphic" in2="effect1_backgroundBlur_8458_41836" result="shape"/>
</filter>
<filter id="filter4_b_8458_41836" x="28.6226" y="45.4009" width="43.6274" height="57.9922" filterUnits="userSpaceOnUse" color-interpolation-filters="sRGB">
<feFlood flood-opacity="0" result="BackgroundImageFix"/>
<feGaussianBlur in="BackgroundImage" stdDeviation="5.92992"/>
<feComposite in2="SourceAlpha" operator="in" result="effect1_backgroundBlur_8458_41836"/>
<feBlend mode="normal" in="SourceGraphic" in2="effect1_backgroundBlur_8458_41836" result="shape"/>
</filter>
<filter id="filter5_b_8458_41836" x="8.71486" y="45.4009" width="43.6274" height="57.9922" filterUnits="userSpaceOnUse" color-interpolation-filters="sRGB">
<feFlood flood-opacity="0" result="BackgroundImageFix"/>
<feGaussianBlur in="BackgroundImage" stdDeviation="5.92992"/>
<feComposite in2="SourceAlpha" operator="in" result="effect1_backgroundBlur_8458_41836"/>
<feBlend mode="normal" in="SourceGraphic" in2="effect1_backgroundBlur_8458_41836" result="shape"/>
</filter>
<filter id="filter6_b_8458_41836" x="-11.0393" y="22.5957" width="63.5349" height="46.5678" filterUnits="userSpaceOnUse" color-interpolation-filters="sRGB">
<feFlood flood-opacity="0" result="BackgroundImageFix"/>
<feGaussianBlur in="BackgroundImage" stdDeviation="5.92992"/>
<feComposite in2="SourceAlpha" operator="in" result="effect1_backgroundBlur_8458_41836"/>
<feBlend mode="normal" in="SourceGraphic" in2="effect1_backgroundBlur_8458_41836" result="shape"/>
</filter>
<filter id="filter7_b_8458_41836" x="8.86867" y="34.0195" width="43.6274" height="57.9922" filterUnits="userSpaceOnUse" color-interpolation-filters="sRGB">
<feFlood flood-opacity="0" result="BackgroundImageFix"/>
<feGaussianBlur in="BackgroundImage" stdDeviation="5.92992"/>
<feComposite in2="SourceAlpha" operator="in" result="effect1_backgroundBlur_8458_41836"/>
<feBlend mode="normal" in="SourceGraphic" in2="effect1_backgroundBlur_8458_41836" result="shape"/>
</filter>
<filter id="filter8_b_8458_41836" x="-11.0388" y="34.0195" width="43.6274" height="57.9922" filterUnits="userSpaceOnUse" color-interpolation-filters="sRGB">
<feFlood flood-opacity="0" result="BackgroundImageFix"/>
<feGaussianBlur in="BackgroundImage" stdDeviation="5.92992"/>
<feComposite in2="SourceAlpha" operator="in" result="effect1_backgroundBlur_8458_41836"/>
<feBlend mode="normal" in="SourceGraphic" in2="effect1_backgroundBlur_8458_41836" result="shape"/>
</filter>
<filter id="filter9_b_8458_41836" x="9.26344" y="-11.5674" width="63.5349" height="46.5678" filterUnits="userSpaceOnUse" color-interpolation-filters="sRGB">
<feFlood flood-opacity="0" result="BackgroundImageFix"/>
<feGaussianBlur in="BackgroundImage" stdDeviation="5.92992"/>
<feComposite in2="SourceAlpha" operator="in" result="effect1_backgroundBlur_8458_41836"/>
<feBlend mode="normal" in="SourceGraphic" in2="effect1_backgroundBlur_8458_41836" result="shape"/>
</filter>
<filter id="filter10_b_8458_41836" x="29.1712" y="-0.14305" width="43.6274" height="57.9922" filterUnits="userSpaceOnUse" color-interpolation-filters="sRGB">
<feFlood flood-opacity="0" result="BackgroundImageFix"/>
<feGaussianBlur in="BackgroundImage" stdDeviation="5.92992"/>
<feComposite in2="SourceAlpha" operator="in" result="effect1_backgroundBlur_8458_41836"/>
<feBlend mode="normal" in="SourceGraphic" in2="effect1_backgroundBlur_8458_41836" result="shape"/>
</filter>
<filter id="filter11_b_8458_41836" x="9.26393" y="-0.14305" width="43.6274" height="57.9922" filterUnits="userSpaceOnUse" color-interpolation-filters="sRGB">
<feFlood flood-opacity="0" result="BackgroundImageFix"/>
<feGaussianBlur in="BackgroundImage" stdDeviation="5.92992"/>
<feComposite in2="SourceAlpha" operator="in" result="effect1_backgroundBlur_8458_41836"/>
<feBlend mode="normal" in="SourceGraphic" in2="effect1_backgroundBlur_8458_41836" result="shape"/>
</filter>
<linearGradient id="paint0_linear_8458_41836" x1="40.5373" y1="67.9834" x2="-21.1214" y2="130.079" gradientUnits="userSpaceOnUse">
<stop stop-color="#FAC38C"/>
<stop offset="0.395053" stop-opacity="0"/>
</linearGradient>
<linearGradient id="paint1_linear_8458_41836" x1="99.529" y1="29.0202" x2="62.821" y2="101.631" gradientUnits="userSpaceOnUse">
<stop stop-color="white"/>
<stop offset="1" stop-color="white" stop-opacity="0"/>
</linearGradient>
<linearGradient id="paint2_linear_8458_41836" x1="68.9333" y1="52.8204" x2="44.9914" y2="94.3414" gradientUnits="userSpaceOnUse">
<stop stop-color="#777777"/>
<stop offset="1" stop-color="white" stop-opacity="0"/>
</linearGradient>
<linearGradient id="paint3_linear_8458_41836" x1="70.0829" y1="26.2034" x2="7.23703" y2="67.6408" gradientUnits="userSpaceOnUse">
<stop stop-color="white"/>
<stop offset="1" stop-color="white" stop-opacity="0"/>
</linearGradient>
<linearGradient id="paint4_linear_8458_41836" x1="54.785" y1="61.9037" x2="18.8268" y2="82.6905" gradientUnits="userSpaceOnUse">
<stop stop-color="#777777"/>
<stop offset="1" stop-color="white" stop-opacity="0"/>
</linearGradient>
<linearGradient id="paint5_linear_8458_41836" x1="50.1754" y1="26.2034" x2="-12.6704" y2="67.6408" gradientUnits="userSpaceOnUse">
<stop stop-color="white"/>
<stop offset="1" stop-color="white" stop-opacity="0"/>
</linearGradient>
<linearGradient id="paint6_linear_8458_41836" x1="34.8775" y1="61.9037" x2="-1.08069" y2="82.6905" gradientUnits="userSpaceOnUse">
<stop stop-color="#777777"/>
<stop offset="1" stop-color="white" stop-opacity="0"/>
</linearGradient>
<linearGradient id="paint7_linear_8458_41836" x1="60.2509" y1="56.5854" x2="-1.40782" y2="118.681" gradientUnits="userSpaceOnUse">
<stop stop-color="#FAC38C"/>
<stop offset="0.395053" stop-opacity="0"/>
</linearGradient>
<linearGradient id="paint8_linear_8458_41836" x1="119.283" y1="17.3542" x2="82.5751" y2="89.9646" gradientUnits="userSpaceOnUse">
<stop stop-color="white"/>
<stop offset="1" stop-color="white" stop-opacity="0"/>
</linearGradient>
<linearGradient id="paint9_linear_8458_41836" x1="88.6874" y1="41.1544" x2="64.7456" y2="82.6754" gradientUnits="userSpaceOnUse">
<stop stop-color="#777777"/>
<stop offset="1" stop-color="white" stop-opacity="0"/>
</linearGradient>
<linearGradient id="paint10_linear_8458_41836" x1="89.8368" y1="14.5374" x2="26.9909" y2="55.9748" gradientUnits="userSpaceOnUse">
<stop stop-color="white"/>
<stop offset="1" stop-color="white" stop-opacity="0"/>
</linearGradient>
<linearGradient id="paint11_linear_8458_41836" x1="74.5389" y1="50.2377" x2="38.5807" y2="71.0245" gradientUnits="userSpaceOnUse">
<stop stop-color="#777777"/>
<stop offset="1" stop-color="white" stop-opacity="0"/>
</linearGradient>
<linearGradient id="paint12_linear_8458_41836" x1="69.9291" y1="14.5374" x2="7.08322" y2="55.9748" gradientUnits="userSpaceOnUse">
<stop stop-color="white"/>
<stop offset="1" stop-color="white" stop-opacity="0"/>
</linearGradient>
<linearGradient id="paint13_linear_8458_41836" x1="54.6312" y1="50.2377" x2="18.673" y2="71.0245" gradientUnits="userSpaceOnUse">
<stop stop-color="#777777"/>
<stop offset="1" stop-color="white" stop-opacity="0"/>
</linearGradient>
<linearGradient id="paint14_linear_8458_41836" x1="40.5373" y1="44.937" x2="-21.1214" y2="107.032" gradientUnits="userSpaceOnUse">
<stop stop-color="#FAC38C"/>
<stop offset="0.395053" stop-opacity="0"/>
</linearGradient>
<linearGradient id="paint15_linear_8458_41836" x1="99.529" y1="5.97331" x2="62.821" y2="78.5837" gradientUnits="userSpaceOnUse">
<stop stop-color="white"/>
<stop offset="1" stop-color="white" stop-opacity="0"/>
</linearGradient>
<linearGradient id="paint16_linear_8458_41836" x1="68.9333" y1="29.7736" x2="44.9914" y2="71.2945" gradientUnits="userSpaceOnUse">
<stop stop-color="#777777"/>
<stop offset="1" stop-color="white" stop-opacity="0"/>
</linearGradient>
<linearGradient id="paint17_linear_8458_41836" x1="70.0829" y1="3.156" x2="7.23703" y2="44.5934" gradientUnits="userSpaceOnUse">
<stop stop-color="white"/>
<stop offset="1" stop-color="white" stop-opacity="0"/>
</linearGradient>
<linearGradient id="paint18_linear_8458_41836" x1="54.785" y1="38.8564" x2="18.8268" y2="59.6431" gradientUnits="userSpaceOnUse">
<stop stop-color="#777777"/>
<stop offset="1" stop-color="white" stop-opacity="0"/>
</linearGradient>
<linearGradient id="paint19_linear_8458_41836" x1="50.1754" y1="3.156" x2="-12.6704" y2="44.5934" gradientUnits="userSpaceOnUse">
<stop stop-color="white"/>
<stop offset="1" stop-color="white" stop-opacity="0"/>
</linearGradient>
<linearGradient id="paint20_linear_8458_41836" x1="34.8775" y1="38.8564" x2="-1.08069" y2="59.6431" gradientUnits="userSpaceOnUse">
<stop stop-color="#777777"/>
<stop offset="1" stop-color="white" stop-opacity="0"/>
</linearGradient>
<linearGradient id="paint21_linear_8458_41836" x1="61.4013" y1="11.1626" x2="-0.257412" y2="73.2578" gradientUnits="userSpaceOnUse">
<stop stop-color="#FAC38C"/>
<stop offset="0.395053" stop-opacity="0"/>
</linearGradient>
<linearGradient id="paint22_linear_8458_41836" x1="119.832" y1="-28.1898" x2="83.1237" y2="44.4207" gradientUnits="userSpaceOnUse">
<stop stop-color="white"/>
<stop offset="1" stop-color="white" stop-opacity="0"/>
</linearGradient>
<linearGradient id="paint23_linear_8458_41836" x1="89.236" y1="-4.38953" x2="65.2942" y2="37.1314" gradientUnits="userSpaceOnUse">
<stop stop-color="#777777"/>
<stop offset="1" stop-color="white" stop-opacity="0"/>
</linearGradient>
<linearGradient id="paint24_linear_8458_41836" x1="90.3854" y1="-31.0066" x2="27.5395" y2="10.4308" gradientUnits="userSpaceOnUse">
<stop stop-color="white"/>
<stop offset="1" stop-color="white" stop-opacity="0"/>
</linearGradient>
<linearGradient id="paint25_linear_8458_41836" x1="75.0875" y1="4.69377" x2="39.1293" y2="25.4805" gradientUnits="userSpaceOnUse">
<stop stop-color="#777777"/>
<stop offset="1" stop-color="white" stop-opacity="0"/>
</linearGradient>
<linearGradient id="paint26_linear_8458_41836" x1="70.4781" y1="-31.0066" x2="7.6323" y2="10.4308" gradientUnits="userSpaceOnUse">
<stop stop-color="white"/>
<stop offset="1" stop-color="white" stop-opacity="0"/>
</linearGradient>
<linearGradient id="paint27_linear_8458_41836" x1="55.1803" y1="4.69377" x2="19.222" y2="25.4805" gradientUnits="userSpaceOnUse">
<stop stop-color="#777777"/>
<stop offset="1" stop-color="white" stop-opacity="0"/>
</linearGradient>
</defs>
</svg>
