<svg width="36" height="36" viewBox="0 0 36 36" fill="none" xmlns="http://www.w3.org/2000/svg">
<path d="M36 18C36 20.3175 35.5575 22.5375 34.7625 24.5775C34.14 26.1675 33.2925 27.645 32.2575 28.9725C32.07 29.2125 31.89 29.445 31.6875 29.67C31.545 29.835 31.4025 30 31.26 30.1575C30.2475 31.2675 29.0925 32.25 27.825 33.075C27.4425 33.3225 27.045 33.5625 26.64 33.7875C24.075 35.1975 21.135 36 18 36C14.3175 36 10.8975 34.89 8.04 33C7.965 32.9475 7.89 32.9025 7.8225 32.8425C7.1625 32.4 6.54 31.905 5.955 31.3725C5.8875 31.3125 5.82 31.26 5.76 31.1925C5.7075 31.1475 5.655 31.095 5.6025 31.05C5.505 30.96 5.4075 30.8625 5.31 30.7725C5.1975 30.66 5.085 30.5475 4.9725 30.4275C4.845 30.2925 4.7175 30.1575 4.5975 30.015C4.59 30 4.5675 29.985 4.5525 29.9625C4.1925 29.55 3.8475 29.13 3.5175 28.6875C1.305 25.7025 0 22.005 0 18C0 8.0625 8.0625 0 18 0C27.9375 0 36 8.0625 36 18Z" fill="#FFE01B"/>
<path d="M32.2576 28.98C32.0776 29.22 31.8901 29.445 31.6876 29.6775C31.5451 29.8425 31.4026 30.0076 31.2601 30.1651C30.2476 31.2751 29.0926 32.2576 27.8251 33.0826C27.4426 33.3301 27.0451 33.5701 26.6401 33.7951C24.0751 35.1976 21.1351 36 18.0001 36C14.3176 36 10.8976 34.89 8.04008 33C7.96508 32.9475 7.89008 32.9026 7.82258 32.8426C7.16258 32.4001 6.54008 31.9051 5.95508 31.3726C5.88758 31.3126 5.82008 31.26 5.76008 31.1925C5.49008 30.945 5.22758 30.69 4.98008 30.4275C4.85258 30.2925 4.72508 30.1575 4.60508 30.015C4.59008 30 4.56758 29.9851 4.55258 29.9626C4.19258 29.55 3.84758 29.13 3.51758 28.6875C4.45508 27.03 5.64008 25.305 6.60008 24.33C8.44508 22.4625 12.1276 20.3025 14.7001 20.1075C17.9851 19.8675 22.0276 20.265 24.9001 20.9325C27.4201 21.51 30.0826 24.1051 30.7951 25.3801C31.3351 26.3326 32.2576 27.885 32.2576 28.98Z" fill="#80BAFF"/>
<path d="M22.4551 4.98745C22.4551 4.98745 22.2976 3.96745 23.2651 4.38745C24.2326 4.79995 23.8201 5.81995 23.2651 5.68495C22.7176 5.54245 22.4551 4.98745 22.4551 4.98745Z" fill="#F74D76"/>
<path d="M24.3299 11.4075C24.3299 11.4075 24.1799 14.1525 22.9424 14.2725C21.7049 14.4 19.8899 12.84 19.8899 12.84L20.7374 9.75L24.3299 11.4075Z" fill="black"/>
<path d="M14.91 10.6275C14.91 10.6275 10.8825 9.32996 10.2825 7.61996C9.68247 5.90996 17.295 8.49746 17.295 8.49746L14.91 10.6275Z" fill="#EA366E"/>
<path d="M20.745 16.5L20.43 20.8575C20.43 20.8575 19.6425 22.0875 17.1225 22.2675C15.2475 22.4025 14.595 21.975 14.595 21.975L14.8725 19.8L15.15 17.6775L19.7025 16.7175L20.745 16.5Z" fill="#F49282"/>
<path d="M19.7099 16.725C19.6949 16.845 19.6499 16.98 19.5824 17.1375C18.5999 19.275 15.9674 19.7175 14.8799 19.8075L15.1574 17.685L19.7099 16.725Z" fill="black"/>
<path d="M14.2801 7.86747C14.2801 7.86747 11.9776 13.245 12.8401 16.245C13.7026 19.2525 16.4401 18.7575 18.0826 18.165C19.7176 17.5725 20.4751 16.56 20.4751 16.56C20.4751 16.56 22.0126 17.07 23.0251 15.6375C24.0376 14.205 23.4001 12.57 22.5226 12.2025C21.6451 11.835 20.6101 12.4725 20.6101 12.4725L21.4126 10.9125C21.4126 10.9125 17.9251 3.02247 14.2801 7.86747Z" fill="#F49282"/>
<path d="M13.9724 8.64756C13.9724 8.64756 14.2874 8.22006 15.3674 8.22006C16.4399 8.22006 17.0624 8.98506 17.0624 8.98506C17.0624 8.98506 17.1524 10.9276 18.5999 11.9026C20.0474 12.8776 20.6024 12.4726 20.6024 12.4726L21.6674 12.1051L22.4549 10.5676L19.4249 7.23756L15.7799 5.68506L13.9724 7.69506V8.64756Z" fill="black"/>
<path d="M13.8374 7.46249C13.8374 7.46249 15.3599 3.14249 20.7449 4.06499C26.1374 4.98749 24.3299 11.8425 24.3299 11.8425L21.8699 11.0475L13.8374 7.46249Z" fill="#FC68A4"/>
<path d="M12.27 7.15503C12.27 7.15503 14.16 7.22253 19.02 9.47253C20.6925 10.245 22.155 11.1525 22.155 11.1525C22.155 11.1525 16.56 8.80503 14.385 8.82753C13.5525 8.83503 13.0125 9.15003 13.0125 9.15003L12.27 7.15503Z" fill="#EA366E"/>
<path d="M16.2451 22.4175C15.2851 22.4175 14.6176 22.26 14.5576 22.245C14.4526 22.2225 14.3926 22.1175 14.4151 22.0125C14.4376 21.9075 14.5426 21.8475 14.6476 21.87C14.6776 21.8775 17.8651 22.605 20.3251 20.7825C20.4076 20.7225 20.5351 20.7375 20.5951 20.82C20.6551 20.9025 20.6401 21.03 20.5576 21.09C19.0951 22.1775 17.4451 22.4175 16.2451 22.4175Z" fill="#8758E7"/>
<path d="M7.29756 27.645L5.60256 31.05C5.50506 30.96 5.40756 30.8625 5.31006 30.7725L6.95256 27.465C6.99756 27.375 7.11756 27.33 7.20756 27.3825C7.30506 27.4275 7.35006 27.5475 7.29756 27.645Z" fill="#8758E7"/>
</svg>
