<svg width="36" height="36" viewBox="0 0 36 36" fill="none" xmlns="http://www.w3.org/2000/svg">
<path d="M36 18C36 21.285 35.1225 24.3675 33.5775 27.0225C33.5175 27.12 33.4575 27.225 33.3975 27.3225C33.255 27.5625 33.105 27.8025 32.9475 28.035C32.88 28.1325 32.82 28.23 32.745 28.3275C30.3975 31.6875 26.925 34.2 22.875 35.34C22.7925 35.3625 22.7025 35.385 22.62 35.4075C21.1425 35.79 19.5975 36 18 36C11.7825 36 6.2925 32.8425 3.0675 28.05C2.76 27.6075 2.4825 27.1425 2.22 26.67C0.81 24.0975 0 21.1425 0 18C0 8.055 8.055 0 18 0C27.945 0 36 8.055 36 18Z" fill="white"/>
<path d="M10.2825 15.5475C10.2825 15.5475 8.35504 5.31753 15.84 3.44253C23.325 1.56753 23.775 12.195 23.775 12.195C23.775 12.195 31.92 13.7475 31.9725 21.6675C32.04 31.5675 22.47 29.9025 22.47 29.9025L13.4025 26.2125C13.41 26.2125 4.33504 21.27 10.2825 15.5475Z" fill="#FFAF45"/>
<path d="M32.7449 28.32C30.3974 31.68 26.9249 34.1925 22.8749 35.3325C22.7924 35.355 22.7024 35.3775 22.6199 35.4C21.1424 35.79 19.5974 36 17.9999 36C11.7824 36 6.29238 32.8425 3.06738 28.05C5.48238 24.7425 8.51238 22.245 10.5749 21.3525C13.6274 20.04 18.4649 19.1625 22.9274 20.4375C22.9424 20.445 22.9574 20.445 22.9724 20.445C24.3149 20.8275 25.6199 21.4125 26.8349 22.23C29.4674 24.0075 31.3874 26.07 32.7449 28.32Z" fill="#F74D76"/>
<path d="M14.4675 17.3325V17.445L14.5575 19.5L14.625 21.12C14.625 21.12 14.49 21.495 16.3725 21.375C18.8925 21.2025 19.71 20.115 19.71 20.115L19.815 16.3275L19.05 16.47L14.4675 17.3325Z" fill="#FC8165"/>
<path d="M14.4675 17.4375L14.5575 19.5C15.78 19.35 18.015 18.8175 18.915 16.89C18.9825 16.7325 19.0275 16.59 19.0425 16.4775L14.4675 17.4075V17.4375Z" fill="black"/>
<path d="M13.6649 7.5675C13.6649 7.5675 11.3174 12.9375 12.1649 15.9525C13.0124 18.9675 15.7574 18.495 17.3999 17.91C19.0424 17.325 19.8074 16.32 19.8074 16.32C19.8074 16.32 21.3449 16.8375 22.3724 15.4125C23.3999 13.9875 22.7699 12.345 21.8924 11.97C21.0149 11.595 19.9724 12.225 19.9724 12.225L20.7899 10.665C20.7899 10.665 17.3474 2.7375 13.6649 7.5675Z" fill="#FC8165"/>
<path d="M14.3926 6.77246C14.3926 6.77246 14.2201 9.62996 17.0926 10.9275C19.9651 12.225 21.8851 11.97 21.8851 11.97L21.6976 8.24246L18.0976 4.33496L14.8801 5.36246L14.3926 6.77246Z" fill="#FFAF45"/>
<path d="M19.7776 11.4075L19.7851 13.0275L21.2326 11.6025L19.7776 11.4075Z" fill="#FFAF45"/>
<path d="M33.3976 27.3226C33.2551 27.5626 33.1051 27.8026 32.9476 28.0351C32.8801 28.1326 32.8201 28.2301 32.7451 28.3276C30.3976 31.6876 26.9251 34.2001 22.8751 35.3401C22.7926 35.3626 22.7026 35.3851 22.6201 35.4076L22.8676 20.4301C22.8676 20.4301 22.8976 20.4376 22.9426 20.4451C22.9576 20.4526 22.9726 20.4526 22.9876 20.4526C23.8726 20.6026 29.6926 21.7501 32.8201 26.3326C33.0226 26.6326 33.2101 26.9626 33.3976 27.3226Z" fill="#F74D76"/>
<path d="M9.2775 27.2324C9.255 27.2549 7.41 29.2349 7.7625 32.7899C7.65 32.7149 7.545 32.6399 7.44 32.5649C7.41 32.5424 7.38 32.5199 7.35 32.4974C7.125 28.9649 8.9775 26.9924 9 26.9699C9.075 26.8949 9.195 26.8949 9.2775 26.9624C9.3525 27.0374 9.3525 27.1574 9.2775 27.2324Z" fill="white"/>
</svg>
