<svg xmlns="http://www.w3.org/2000/svg" xmlns:xlink="http://www.w3.org/1999/xlink" version="1.1" id="Layer_1" x="0px" y="0px" style="enable-background:new 0 0 560 560;" xml:space="preserve" viewBox="5 145 550 415">
<style type="text/css">
	.st0{fill:#F6F6FB;}
	.st1{fill:#E8ECF7;}
	.st2{fill:url(#SVGID_1_);}
	.st3{fill:url(#SVGID_2_);}
	.st4{fill:url(#SVGID_3_);}
	.st5{fill:url(#SVGID_4_);}
	.st6{fill:url(#SVGID_5_);}
	.st7{fill:url(#SVGID_6_);}
	.st8{fill:url(#SVGID_7_);}
	.st9{fill:url(#SVGID_8_);}
	.st10{fill:url(#SVGID_9_);}
	.st11{fill:url(#SVGID_10_);}
	.st12{fill:url(#SVGID_11_);}
	.st13{fill:url(#SVGID_12_);}
	.st14{fill:url(#SVGID_13_);}
	.st15{fill:url(#SVGID_14_);}
	.st16{fill:url(#SVGID_15_);}
	.st17{fill:#F1F3F9;}
	.st18{fill:url(#SVGID_16_);}
	.st19{fill:url(#SVGID_17_);}
	.st20{fill:url(#SVGID_18_);}
	.st21{fill:url(#SVGID_19_);}
	.st22{fill:url(#SVGID_20_);}
	.st23{fill:#BBC0E6;}
	.st24{fill:url(#SVGID_21_);}
	.st25{fill:url(#SVGID_22_);}
	.st26{fill:#EFEFF3;}
	.st27{fill:#CED3F8;}
	.st28{fill:#FFFFFF;}
	.st29{fill:#DAE0F5;}
	.st30{fill:url(#SVGID_23_);}
	.st31{fill:url(#SVGID_24_);}
	.st32{fill:#5E5EDE;}
	.st33{fill:#4E42BC;}
	.st34{fill:#3833A8;}
	.st35{fill:#D453B5;}
	.st36{fill:url(#SVGID_25_);}
	.st37{fill:#EFF2F9;}
	.st38{fill:url(#SVGID_26_);}
	.st39{fill:#D7D7F4;}
	.st40{fill:#E5E5F9;}
	.st41{fill:url(#SVGID_27_);}
	.st42{fill:url(#SVGID_28_);}
	.st43{fill:url(#SVGID_29_);}
	.st44{fill:url(#SVGID_30_);}
	.st45{fill:url(#SVGID_31_);}
	.st46{fill:url(#SVGID_32_);}
	.st47{fill:url(#SVGID_33_);}
	.st48{fill:url(#SVGID_34_);}
	.st49{fill:url(#SVGID_35_);}
	.st50{fill:url(#SVGID_36_);}
	.st51{fill:#1967A7;}
	.st52{fill:#F1F1F6;}
	.st53{fill:url(#SVGID_37_);}
	.st54{fill:url(#SVGID_38_);}
	.st55{fill:url(#SVGID_39_);}
	.st56{fill:#A5ABCC;}
	.st57{fill:#FF826A;}
	.st58{fill:url(#SVGID_40_);}
	.st59{fill:url(#SVGID_41_);}
	.st60{fill:url(#SVGID_42_);}
	.st61{fill:url(#SVGID_43_);}
	.st62{fill:url(#SVGID_44_);}
	.st63{fill:url(#SVGID_45_);}
	.st64{fill:url(#SVGID_46_);}
	.st65{fill:url(#SVGID_47_);}
	.st66{fill:url(#SVGID_48_);}
	.st67{fill:url(#SVGID_49_);}
	.st68{fill:#D1D7F3;}
	.st69{fill:url(#SVGID_50_);}
	.st70{fill:url(#SVGID_51_);}
	.st71{fill:#FACFA7;}
	.st72{fill:url(#SVGID_52_);}
	.st73{fill:url(#SVGID_53_);}
	.st74{fill:url(#SVGID_54_);}
	.st75{fill:#131147;}
	.st76{fill:#FCD1A9;}
	.st77{fill:url(#SVGID_55_);}
	.st78{fill:url(#SVGID_56_);}
	.st79{fill:url(#SVGID_57_);}
	.st80{fill:url(#SVGID_58_);}
	.st81{fill:url(#SVGID_59_);}
	.st82{fill:url(#SVGID_60_);}
	.st83{fill:#2C2C6D;}
</style>
<g>
	<polygon class="st0" points="307.81,457.93 344.98,479.39 307.81,500.85 270.64,479.39  "/>
	<polygon class="st1" points="270.64,436.47 307.81,457.93 270.64,479.39 233.47,457.93  "/>
	<polygon class="st0" points="233.47,415.01 270.64,436.47 233.47,457.93 196.3,436.47  "/>
	<polygon class="st1" points="196.3,393.55 233.47,415.01 196.3,436.47 159.13,415.01  "/>
	<polygon class="st0" points="159.13,372.09 196.3,393.55 159.13,415.01 121.96,393.55  "/>
	<polygon class="st1" points="121.96,350.63 159.13,372.09 121.96,393.55 84.79,372.09  "/>
	<polygon class="st0" points="307.81,415.01 344.98,436.47 307.81,457.93 270.64,436.47  "/>
	<polygon class="st1" points="270.64,393.55 307.81,415.01 270.64,436.47 233.47,415.01  "/>
	<polygon class="st0" points="233.47,372.09 270.64,393.55 233.47,415.01 196.3,393.55  "/>
	<polygon class="st1" points="196.3,350.63 233.47,372.09 196.3,393.55 159.13,372.09  "/>
	<polygon class="st0" points="159.13,329.17 196.3,350.63 159.13,372.09 121.96,350.63  "/>
	<polygon class="st1" points="344.98,436.47 382.15,457.93 344.98,479.39 307.81,457.93  "/>
	<polygon class="st0" points="382.15,415.01 419.32,436.47 382.15,457.93 344.98,436.47  "/>
	<polygon class="st1" points="344.98,393.55 382.15,415.01 344.98,436.47 307.81,415.01  "/>
	<polygon class="st0" points="307.81,372.09 344.98,393.55 307.81,415.01 270.64,393.55  "/>
	<polygon class="st1" points="270.64,350.63 307.81,372.09 270.64,393.55 233.47,372.09  "/>
	<polygon class="st0" points="233.47,329.17 270.64,350.63 233.47,372.09 196.3,350.63  "/>
	<polygon class="st1" points="196.3,307.71 233.47,329.17 196.3,350.63 159.13,329.17  "/>
	<polygon class="st0" points="382.15,372.09 419.32,393.55 382.15,415.01 344.98,393.55  "/>
	<polygon class="st1" points="344.98,350.63 382.15,372.09 344.98,393.55 307.81,372.09  "/>
	<polygon class="st0" points="307.81,329.17 344.98,350.63 307.81,372.09 270.64,350.63  "/>
	<polygon class="st1" points="270.64,307.71 307.81,329.17 270.64,350.63 233.47,329.17  "/>
	<polygon class="st0" points="233.47,286.25 270.64,307.71 233.47,329.17 196.3,307.71  "/>
	<polygon class="st1" points="419.32,393.55 456.49,415.01 419.32,436.47 382.15,415.01  "/>
	<polygon class="st0" points="456.49,372.09 493.66,393.55 456.49,415.01 419.32,393.55  "/>
	<polygon class="st1" points="419.32,350.63 456.49,372.09 419.32,393.55 382.15,372.09  "/>
	<polygon class="st0" points="382.15,329.17 419.32,350.63 382.15,372.09 344.98,350.63  "/>
	<polygon class="st1" points="344.98,307.71 382.15,329.17 344.98,350.63 307.81,329.17  "/>
	<polygon class="st0" points="307.81,286.25 344.98,307.71 307.81,329.17 270.64,307.71  "/>
	<polygon class="st1" points="270.64,264.79 307.81,286.25 270.64,307.71 233.47,286.25  "/>
	<polygon class="st0" points="456.49,329.17 493.66,350.63 456.49,372.09 419.32,350.63  "/>
	<polygon class="st1" points="419.32,307.71 456.49,329.17 419.32,350.63 382.15,329.17  "/>
	<polygon class="st0" points="382.15,286.25 419.32,307.71 382.15,329.17 344.98,307.71  "/>
	<polygon class="st1" points="344.98,264.79 382.15,286.25 344.98,307.71 307.81,286.25  "/>
	<polygon class="st0" points="307.81,243.33 344.98,264.79 307.81,286.25 270.64,264.79  "/>
	<polygon class="st1" points="493.66,350.63 530.83,372.09 493.66,393.55 456.49,372.09  "/>
	<linearGradient id="SVGID_1_" gradientUnits="userSpaceOnUse" x1="267.1287" y1="557.9711" x2="302.0348" y2="497.5118">
		<stop offset="0.1882" style="stop-color:#FFFFFF"/>
		<stop offset="1" style="stop-color:#EFEFF3"/>
	</linearGradient>
	<polygon class="st2" points="270.64,560 307.81,560 307.81,500.85 270.64,479.39  "/>
	<linearGradient id="SVGID_2_" gradientUnits="userSpaceOnUse" x1="229.9585" y1="536.5107" x2="264.8647" y2="476.0516">
		<stop offset="0.1935" style="stop-color:#FFFFFF"/>
		<stop offset="1" style="stop-color:#D1D7F3"/>
	</linearGradient>
	<polygon class="st3" points="233.47,538.54 270.64,538.54 270.64,479.39 233.47,457.93  "/>
	<linearGradient id="SVGID_3_" gradientUnits="userSpaceOnUse" x1="192.7883" y1="515.0505" x2="227.6945" y2="454.5914">
		<stop offset="0.1882" style="stop-color:#FFFFFF"/>
		<stop offset="1" style="stop-color:#EFEFF3"/>
	</linearGradient>
	<polygon class="st4" points="196.3,517.08 233.47,517.08 233.47,457.93 196.3,436.47  "/>
	<linearGradient id="SVGID_4_" gradientUnits="userSpaceOnUse" x1="155.6181" y1="493.5903" x2="190.5242" y2="433.1311">
		<stop offset="0.1935" style="stop-color:#FFFFFF"/>
		<stop offset="1" style="stop-color:#D1D7F3"/>
	</linearGradient>
	<polygon class="st5" points="159.13,495.62 196.3,495.62 196.3,436.47 159.13,415.01  "/>
	<linearGradient id="SVGID_5_" gradientUnits="userSpaceOnUse" x1="118.4478" y1="472.1301" x2="153.354" y2="411.6708">
		<stop offset="0.1882" style="stop-color:#FFFFFF"/>
		<stop offset="1" style="stop-color:#EFEFF3"/>
	</linearGradient>
	<polygon class="st6" points="121.96,474.16 159.13,474.16 159.13,415.01 121.96,393.55  "/>
	<linearGradient id="SVGID_6_" gradientUnits="userSpaceOnUse" x1="81.2776" y1="450.6698" x2="116.1838" y2="390.2106">
		<stop offset="0.1935" style="stop-color:#FFFFFF"/>
		<stop offset="1" style="stop-color:#D1D7F3"/>
	</linearGradient>
	<polygon class="st7" points="84.79,452.7 121.96,452.7 121.96,393.55 84.79,372.09  "/>
	
		<linearGradient id="SVGID_7_" gradientUnits="userSpaceOnUse" x1="642.3412" y1="557.9711" x2="677.2473" y2="497.5118" gradientTransform="matrix(-1 0 0 1 990.8388 0)">
		<stop offset="0.1882" style="stop-color:#FFFFFF"/>
		<stop offset="1" style="stop-color:#DAE0F5"/>
	</linearGradient>
	<polygon class="st8" points="344.98,560 307.81,560 307.81,500.85 344.98,479.39  "/>
	
		<linearGradient id="SVGID_8_" gradientUnits="userSpaceOnUse" x1="605.171" y1="536.5108" x2="640.0771" y2="476.0516" gradientTransform="matrix(-1 0 0 1 990.8388 0)">
		<stop offset="0.1935" style="stop-color:#FFFFFF"/>
		<stop offset="1" style="stop-color:#BBC0E6"/>
	</linearGradient>
	<polygon class="st9" points="382.15,538.54 344.98,538.54 344.98,479.39 382.15,457.93  "/>
	
		<linearGradient id="SVGID_9_" gradientUnits="userSpaceOnUse" x1="568.0007" y1="515.0505" x2="602.9069" y2="454.5914" gradientTransform="matrix(-1 0 0 1 990.8388 0)">
		<stop offset="0.1882" style="stop-color:#FFFFFF"/>
		<stop offset="1" style="stop-color:#DAE0F5"/>
	</linearGradient>
	<polygon class="st10" points="419.32,517.08 382.15,517.08 382.15,457.93 419.32,436.47  "/>
	
		<linearGradient id="SVGID_10_" gradientUnits="userSpaceOnUse" x1="530.8305" y1="493.5903" x2="565.7366" y2="433.1311" gradientTransform="matrix(-1 0 0 1 990.8388 0)">
		<stop offset="0.1935" style="stop-color:#FFFFFF"/>
		<stop offset="1" style="stop-color:#BBC0E6"/>
	</linearGradient>
	<polygon class="st11" points="456.49,495.62 419.32,495.62 419.32,436.47 456.49,415.01  "/>
	
		<linearGradient id="SVGID_11_" gradientUnits="userSpaceOnUse" x1="493.6603" y1="472.1301" x2="528.5664" y2="411.6708" gradientTransform="matrix(-1 0 0 1 990.8388 0)">
		<stop offset="0.1882" style="stop-color:#FFFFFF"/>
		<stop offset="1" style="stop-color:#DAE0F5"/>
	</linearGradient>
	<polygon class="st12" points="493.66,474.16 456.49,474.16 456.49,415.01 493.66,393.55  "/>
	
		<linearGradient id="SVGID_12_" gradientUnits="userSpaceOnUse" x1="456.49" y1="450.6699" x2="491.3962" y2="390.2106" gradientTransform="matrix(-1 0 0 1 990.8388 0)">
		<stop offset="0.1935" style="stop-color:#FFFFFF"/>
		<stop offset="1" style="stop-color:#BBC0E6"/>
	</linearGradient>
	<polygon class="st13" points="530.83,452.7 493.66,452.7 493.66,393.55 530.83,372.09  "/>
	<linearGradient id="SVGID_13_" gradientUnits="userSpaceOnUse" x1="456.4936" y1="372.0873" x2="516.8777" y2="372.0873">
		<stop offset="0" style="stop-color:#CFD5F1"/>
		<stop offset="0.1682" style="stop-color:#D8DDF3"/>
		<stop offset="0.6746" style="stop-color:#EEEFF9"/>
		<stop offset="1" style="stop-color:#F6F6FB"/>
	</linearGradient>
	<polygon class="st14" points="502.92,372.09 516.88,364.03 493.66,350.63 456.49,372.09 493.66,393.55 516.88,380.14  "/>
	<linearGradient id="SVGID_14_" gradientUnits="userSpaceOnUse" x1="382.1537" y1="422.3859" x2="430.9326" y2="422.3859">
		<stop offset="0" style="stop-color:#DAE0F5"/>
		<stop offset="0.588" style="stop-color:#EEF0F9"/>
		<stop offset="1" style="stop-color:#F6F6FB"/>
	</linearGradient>
	<polygon class="st15" points="393.76,408.3 430.93,429.76 419.32,436.47 382.15,415.01  "/>
	<g>
		<linearGradient id="SVGID_15_" gradientUnits="userSpaceOnUse" x1="181.2757" y1="398.4221" x2="181.2757" y2="169.977">
			<stop offset="0.4655" style="stop-color:#FFFFFF"/>
			<stop offset="0.8288" style="stop-color:#DFE4F4"/>
		</linearGradient>
		<polygon class="st16" points="202.91,169.98 159.64,194.95 159.64,297.8 202.91,297.8   "/>
		<polygon class="st17" points="159.64,194.95 116.38,169.98 159.64,145 202.91,169.98   "/>
		<linearGradient id="SVGID_16_" gradientUnits="userSpaceOnUse" x1="138.0117" y1="398.4221" x2="138.0117" y2="169.977">
			<stop offset="0.4742" style="stop-color:#FFFFFF"/>
			<stop offset="0.8905" style="stop-color:#E9EDF7"/>
		</linearGradient>
		<polygon class="st18" points="159.64,194.95 116.38,169.98 116.38,297.8 159.64,297.8   "/>
	</g>
	<g>
		<linearGradient id="SVGID_17_" gradientUnits="userSpaceOnUse" x1="533.6239" y1="647.6215" x2="533.6239" y2="448.6872">
			<stop offset="0.4655" style="stop-color:#FFFFFF"/>
			<stop offset="0.8288" style="stop-color:#DFE4F4"/>
		</linearGradient>
		<polygon class="st19" points="555,448.69 512.25,473.37 512.25,560 555,560   "/>
		<polygon class="st0" points="512.25,473.37 469.5,448.69 512.25,424.01 555,448.69   "/>
		<linearGradient id="SVGID_18_" gradientUnits="userSpaceOnUse" x1="490.8733" y1="647.6215" x2="490.8733" y2="448.6872">
			<stop offset="0.4742" style="stop-color:#FFFFFF"/>
			<stop offset="0.8905" style="stop-color:#E9EDF7"/>
		</linearGradient>
		<polygon class="st20" points="512.25,473.37 469.5,448.69 469.5,560 512.25,560   "/>
	</g>
	<g>
		<linearGradient id="SVGID_19_" gradientUnits="userSpaceOnUse" x1="55.8853" y1="617.61" x2="55.8853" y2="486.8133">
			<stop offset="0.4655" style="stop-color:#FFFFFF"/>
			<stop offset="0.8288" style="stop-color:#DFE4F4"/>
		</linearGradient>
		<polygon class="st21" points="72.85,486.81 38.92,506.4 38.92,560 72.85,560   "/>
		<polygon class="st0" points="38.92,506.4 5,486.81 38.92,467.23 72.85,486.81   "/>
		<linearGradient id="SVGID_20_" gradientUnits="userSpaceOnUse" x1="21.9614" y1="617.61" x2="21.9614" y2="486.8133">
			<stop offset="0.4742" style="stop-color:#FFFFFF"/>
			<stop offset="0.8905" style="stop-color:#E9EDF7"/>
		</linearGradient>
		<polygon class="st22" points="38.92,506.4 5,486.81 5,560 38.92,560   "/>
	</g>
	<polygon class="st23" points="456.49,264.79 419.32,286.25 419.32,300 456.49,278.54  "/>
	<polygon class="st0" points="456.49,278.54 493.66,300 456.49,321.46 419.32,300  "/>
	<linearGradient id="SVGID_21_" gradientUnits="userSpaceOnUse" x1="419.3234" y1="289.2728" x2="465.4999" y2="289.2728">
		<stop offset="0" style="stop-color:#CFD5F1"/>
		<stop offset="0.1682" style="stop-color:#D8DDF3"/>
		<stop offset="0.6746" style="stop-color:#EEEFF9"/>
		<stop offset="1" style="stop-color:#F6F6FB"/>
	</linearGradient>
	<polygon class="st24" points="465.5,283.74 437.34,300 419.32,300 456.49,278.54  "/>
	
		<linearGradient id="SVGID_22_" gradientUnits="userSpaceOnUse" x1="419.3234" y1="195.4059" x2="465.4999" y2="195.4059" gradientTransform="matrix(1 0 0 -1 0 506.1387)">
		<stop offset="0" style="stop-color:#CFD5F1"/>
		<stop offset="0.1682" style="stop-color:#D8DDF3"/>
		<stop offset="0.6746" style="stop-color:#EEEFF9"/>
		<stop offset="1" style="stop-color:#F6F6FB"/>
	</linearGradient>
	<polygon class="st25" points="465.5,316.26 437.34,300 419.32,300 456.49,321.46  "/>
	<polygon class="st1" points="419.32,286.25 456.49,307.71 419.32,329.17 382.15,307.71  "/>
	<polygon class="st1" points="344.98,243.33 382.15,264.79 344.98,286.25 307.81,264.79  "/>
	<polygon class="st0" points="307.81,221.87 344.98,243.33 307.81,264.79 270.64,243.33  "/>
	<polygon class="st26" points="270.64,243.33 307.81,264.79 307.81,329.17 270.64,307.71  "/>
	<polygon class="st27" points="307.81,264.79 344.98,286.25 344.98,350.63 307.81,329.17  "/>
	<polygon class="st27" points="382.15,307.71 419.32,329.17 419.32,393.55 382.15,372.09  "/>
	<polygon class="st26" points="344.98,261.94 382.15,283.4 382.15,372.09 344.98,350.63  "/>
	<polygon class="st1" points="419.32,243.33 456.49,264.79 419.32,286.25 382.15,264.79  "/>
	<polygon class="st0" points="382.15,221.87 419.32,243.33 382.15,264.79 344.98,243.33  "/>
	<g>
		<polygon class="st27" points="307.81,211.47 344.98,232.93 344.98,243.33 307.81,221.87   "/>
		<polygon class="st23" points="382.15,211.47 344.98,232.93 344.98,243.33 382.15,221.87   "/>
		<polygon class="st1" points="344.98,190.01 382.15,211.47 344.98,232.93 307.81,211.47   "/>
	</g>
	<polygon class="st28" points="382.15,240.48 419.32,261.94 382.15,283.4 344.98,261.94  "/>
	<polygon class="st29" points="419.32,261.94 382.15,283.4 382.15,307.71 419.32,286.25  "/>
	<polygon class="st23" points="456.49,307.71 419.32,329.17 419.32,393.55 456.49,372.09  "/>
	<polygon class="st29" points="493.66,300 456.49,321.46 456.49,372.09 493.66,350.63  "/>
	<linearGradient id="SVGID_23_" gradientUnits="userSpaceOnUse" x1="344.9828" y1="232.596" x2="391.1593" y2="232.596">
		<stop offset="0" style="stop-color:#CFD5F1"/>
		<stop offset="0.2826" style="stop-color:#E1E5F6"/>
		<stop offset="0.7193" style="stop-color:#F7F8FD"/>
		<stop offset="1" style="stop-color:#FFFFFF"/>
	</linearGradient>
	<polygon class="st30" points="391.16,227.07 363,243.33 344.98,243.33 382.15,221.87  "/>
	<linearGradient id="SVGID_24_" gradientUnits="userSpaceOnUse" x1="382.1532" y1="296.9765" x2="440.4053" y2="296.9765">
		<stop offset="0" style="stop-color:#CFD5F1"/>
		<stop offset="0.1682" style="stop-color:#D8DDF3"/>
		<stop offset="0.6746" style="stop-color:#EEEFF9"/>
		<stop offset="1" style="stop-color:#F6F6FB"/>
	</linearGradient>
	<polygon class="st31" points="440.41,298.42 424.25,307.71 382.15,307.71 419.32,286.25  "/>
	<polygon class="st32" points="270.64,243.33 307.81,264.79 307.81,329.17 270.64,307.71  "/>
	<polygon class="st33" points="307.81,264.79 344.98,286.25 344.98,350.63 307.81,329.17  "/>
	<polygon class="st33" points="382.15,307.71 419.32,329.17 419.32,393.55 382.15,372.09  "/>
	<polygon class="st34" points="344.98,261.94 382.15,283.4 382.15,372.09 344.98,350.63  "/>
	<polygon class="st35" points="344.98,305.95 296.77,278.11 296.77,269.45 344.98,297.29  "/>
	<polygon class="st35" points="382.22,303.15 344.98,281.65 344.98,272.98 382.22,294.48  "/>
	<polygon class="st32" points="355.5,295.5 344.98,289.43 344.98,287.24 355.5,293.32  "/>
	<polygon class="st35" points="390.45,332.23 381.97,327.33 381.97,318.67 390.45,323.56  "/>
	<g>
		<polygon class="st32" points="304.77,288.33 296.77,283.71 296.77,285.9 304.77,290.52   "/>
		<polygon class="st32" points="309.42,291.01 309.42,293.2 344.98,313.73 344.98,311.55   "/>
	</g>
	<g>
		<polygon class="st32" points="302.67,293.19 296.77,289.78 296.77,291.97 302.67,295.37   "/>
		<polygon class="st32" points="307.31,295.87 307.31,298.05 340.43,317.18 340.43,314.99   "/>
	</g>
	<g>
		<polygon class="st32" points="302.67,305.04 296.77,301.64 296.77,303.82 302.67,307.23   "/>
		<polygon class="st32" points="307.31,307.72 307.31,309.91 332.02,324.17 332.02,321.99   "/>
	</g>
	<polygon class="st32" points="348.82,303.76 344.98,301.57 344.98,299.39 348.82,301.57  "/>
	<g>
		<polygon class="st32" points="309.13,302.99 296.77,295.86 296.77,298.04 309.13,305.18   "/>
		<polygon class="st32" points="313.77,305.67 313.77,307.86 344.98,325.88 344.98,323.69   "/>
	</g>
	<g>
		<polygon class="st32" points="369.04,324.31 361.04,319.69 361.04,321.88 369.04,326.5   "/>
		<polygon class="st32" points="373.68,326.99 373.68,329.18 399.89,344.3 399.89,342.11   "/>
	</g>
	<g>
		<polygon class="st32" points="366.93,329.16 361.04,325.76 361.04,327.95 366.93,331.35   "/>
		<polygon class="st32" points="371.57,331.85 371.57,334.03 391.47,345.39 391.47,343.2   "/>
	</g>
	<g>
		<polygon class="st32" points="366.93,341.02 361.04,337.61 361.04,339.8 366.93,343.2   "/>
		<polygon class="st32" points="371.57,343.7 371.57,345.88 386.87,354.79 386.87,352.6   "/>
	</g>
	<g>
		<polygon class="st32" points="373.39,338.97 361.04,331.83 361.04,334.02 373.39,341.15   "/>
		<polygon class="st32" points="378.04,341.65 378.04,343.83 393.64,352.84 393.64,350.66   "/>
	</g>
	<polygon class="st26" points="419.32,357.51 456.49,378.97 456.49,415.01 419.32,393.55  "/>
	<polygon class="st29" points="493.66,357.51 456.49,378.97 456.49,415.01 493.66,393.55  "/>
	<polygon class="st0" points="456.49,336.04 493.66,357.51 456.49,378.97 419.32,357.5  "/>
	<linearGradient id="SVGID_25_" gradientUnits="userSpaceOnUse" x1="419.3237" y1="346.7751" x2="477.5757" y2="346.7751">
		<stop offset="0" style="stop-color:#CFD5F1"/>
		<stop offset="0.1682" style="stop-color:#D8DDF3"/>
		<stop offset="0.6746" style="stop-color:#EEEFF9"/>
		<stop offset="1" style="stop-color:#F6F6FB"/>
	</linearGradient>
	<polygon class="st36" points="477.58,348.22 461.42,357.51 419.32,357.51 456.49,336.04  "/>
	<g>
		<polygon class="st23" points="382.15,382.1 344.98,403.56 344.98,436.47 382.15,415.01   "/>
		<polygon class="st37" points="344.98,360.63 382.15,382.1 344.98,403.56 307.81,382.09   "/>
		<polygon class="st27" points="344.98,403.56 307.81,382.1 307.81,415.01 344.98,436.47   "/>
	</g>
	<linearGradient id="SVGID_26_" gradientUnits="userSpaceOnUse" x1="196.3027" y1="339.8967" x2="270.6429" y2="339.8967">
		<stop offset="0" style="stop-color:#DAE0F5"/>
		<stop offset="0.588" style="stop-color:#EEF0F9"/>
		<stop offset="1" style="stop-color:#F6F6FB"/>
	</linearGradient>
	<polygon class="st38" points="233.47,329.17 270.64,350.63 196.3,350.63 233.47,329.17  "/>
	<g>
		<polygon class="st39" points="233.47,280.18 196.3,301.64 196.3,350.63 233.47,329.17   "/>
		<polygon class="st37" points="196.3,258.72 233.47,280.18 196.3,301.64 159.13,280.18   "/>
		<polygon class="st40" points="196.3,301.64 159.13,280.18 159.13,329.17 196.3,350.63   "/>
	</g>
	<g>
		<polygon class="st29" points="419.32,422.84 382.15,444.31 382.15,457.93 419.32,436.47   "/>
		<polygon class="st28" points="382.15,401.38 419.32,422.84 382.15,444.3 344.98,422.84   "/>
		<polygon class="st26" points="382.15,444.31 344.98,422.85 344.98,436.47 382.15,457.93   "/>
	</g>
	<g>
		<polygon class="st29" points="307.81,315.54 270.64,337 270.64,350.63 307.81,329.17   "/>
		<linearGradient id="SVGID_27_" gradientUnits="userSpaceOnUse" x1="233.4724" y1="315.5444" x2="307.8128" y2="315.5444">
			<stop offset="0" style="stop-color:#DAE0F5"/>
			<stop offset="0.3276" style="stop-color:#E1E6F7"/>
			<stop offset="0.8141" style="stop-color:#F5F7FC"/>
			<stop offset="1" style="stop-color:#FFFFFF"/>
		</linearGradient>
		<polygon class="st41" points="270.64,294.08 307.81,315.54 270.64,337 233.47,315.54   "/>
		<linearGradient id="SVGID_28_" gradientUnits="userSpaceOnUse" x1="233.4727" y1="333.0858" x2="270.6428" y2="333.0858">
			<stop offset="0" style="stop-color:#D1D7F3"/>
			<stop offset="0.3784" style="stop-color:#D8DDF3"/>
			<stop offset="0.9403" style="stop-color:#ECEDF3"/>
			<stop offset="1" style="stop-color:#EFEFF3"/>
		</linearGradient>
		<polygon class="st42" points="270.64,337 233.47,315.54 233.47,329.17 270.64,350.63   "/>
	</g>
	<g>
		<polygon class="st29" points="196.3,386.74 159.13,408.2 159.13,415.01 196.3,393.55   "/>
		<linearGradient id="SVGID_29_" gradientUnits="userSpaceOnUse" x1="159.1329" y1="404.2777" x2="202.2025" y2="404.2777">
			<stop offset="0" style="stop-color:#DAE0F5"/>
			<stop offset="0.588" style="stop-color:#EEF0F9"/>
			<stop offset="1" style="stop-color:#F6F6FB"/>
		</linearGradient>
		<polygon class="st43" points="202.2,396.95 170.93,415.01 159.13,415.01 196.3,393.55   "/>
		<polygon class="st28" points="159.13,365.28 196.3,386.74 159.13,408.2 121.96,386.74   "/>
		<polygon class="st26" points="159.13,408.2 121.96,386.74 121.96,393.55 159.13,415.01   "/>
	</g>
	<linearGradient id="SVGID_30_" gradientUnits="userSpaceOnUse" x1="344.9832" y1="412.1148" x2="399.0573" y2="412.1148">
		<stop offset="0" style="stop-color:#DAE0F5"/>
		<stop offset="0.588" style="stop-color:#EEF0F9"/>
		<stop offset="1" style="stop-color:#F6F6FB"/>
	</linearGradient>
	<polygon class="st44" points="382.15,401.38 399.06,411.14 378.79,422.85 344.98,422.84  "/>
	<linearGradient id="SVGID_31_" gradientUnits="userSpaceOnUse" x1="270.6429" y1="339.8969" x2="319.7263" y2="339.8969">
		<stop offset="0" style="stop-color:#DAE0F5"/>
		<stop offset="0.588" style="stop-color:#EEF0F9"/>
		<stop offset="1" style="stop-color:#F6F6FB"/>
	</linearGradient>
	<polygon class="st45" points="319.73,336.04 294.46,350.63 270.64,350.63 307.81,329.17  "/>
	<linearGradient id="SVGID_32_" gradientUnits="userSpaceOnUse" x1="307.8128" y1="325.7947" x2="319.7263" y2="325.7947">
		<stop offset="0" style="stop-color:#DAE0F5"/>
		<stop offset="0.588" style="stop-color:#EEF0F9"/>
		<stop offset="1" style="stop-color:#F6F6FB"/>
	</linearGradient>
	<polygon class="st46" points="319.73,336.04 307.81,315.54 307.81,329.17  "/>
	<g>
		<polygon class="st23" points="307.81,397.23 270.64,418.69 270.64,436.47 307.81,415.01   "/>
		<linearGradient id="SVGID_33_" gradientUnits="userSpaceOnUse" x1="270.6429" y1="425.7373" x2="323.2113" y2="425.7373">
			<stop offset="0" style="stop-color:#DAE0F5"/>
			<stop offset="0.588" style="stop-color:#EEF0F9"/>
			<stop offset="1" style="stop-color:#F6F6FB"/>
		</linearGradient>
		<polygon class="st47" points="323.21,423.9 301.44,436.47 270.64,436.47 307.81,415.01   "/>
		<polygon class="st0" points="233.47,354.31 270.64,375.77 233.47,397.23 196.3,375.77   "/>
		<polygon class="st37" points="270.64,375.77 307.81,397.23 270.64,418.69 233.47,397.23   "/>
		<polygon class="st26" points="196.3,375.77 196.3,393.55 233.47,415.01 233.47,397.23   "/>
		<polygon class="st27" points="270.64,418.69 233.47,397.23 233.47,415.01 270.64,436.47   "/>
	</g>
	<polygon class="st1" points="202.2,396.95 196.3,386.74 196.3,393.55  "/>
	<linearGradient id="SVGID_34_" gradientUnits="userSpaceOnUse" x1="307.8129" y1="410.5622" x2="323.2113" y2="410.5622">
		<stop offset="0" style="stop-color:#DAE0F5"/>
		<stop offset="0.588" style="stop-color:#EEF0F9"/>
		<stop offset="1" style="stop-color:#F6F6FB"/>
	</linearGradient>
	<polygon class="st48" points="323.21,423.9 307.81,397.23 307.81,415.01  "/>
	<g>
		
			<linearGradient id="SVGID_35_" gradientUnits="userSpaceOnUse" x1="254.4243" y1="403.3928" x2="288.4752" y2="403.3928" gradientTransform="matrix(1 0 0 1 13.375 0)">
			<stop offset="0" style="stop-color:#C4CAE9"/>
			<stop offset="1" style="stop-color:#FFFFFF"/>
		</linearGradient>
		<path class="st49" d="M300.83,395.59l-3.5-2.02c1.36,0.78,1.36,2.07,0,2.85l-24.6,14.2c-1.36,0.78-3.58,0.78-4.93,0l3.43,1.98    l-1.09,0.63h3.5c0.94,0.01,1.88-0.18,2.59-0.59l24.6-14.2C302.19,397.65,302.19,396.37,300.83,395.59z"/>
		<g>
			
				<linearGradient id="SVGID_36_" gradientUnits="userSpaceOnUse" x1="780.7197" y1="393.4729" x2="874.0732" y2="393.4729" gradientTransform="matrix(-1 0 0 1 1079.1836 0)">
				<stop offset="0.264" style="stop-color:#4E42BC"/>
				<stop offset="0.3021" style="stop-color:#554FCC"/>
				<stop offset="0.3371" style="stop-color:#5E5EDE"/>
			</linearGradient>
			<path class="st50" d="M206.13,375.15l61.43,35.47c1.36,0.78,3.58,0.78,4.93,0l24.96-14.41c0.64-0.37,0.98-0.85,1.01-1.34     c0.01,0,0.01,1.94,0.01,1.94c0,0.52-0.34,1.03-1.02,1.42l-24.96,14.41c-1.36,0.78-3.58,0.78-4.93,0l-61.43-35.46     c-0.74-0.42-1.07-1-1.01-1.55c-0.01,0-0.01-1.89-0.01-1.89C205.11,374.24,205.45,374.76,206.13,375.15z"/>
			<path class="st51" d="M205.11,373.68c0,0.02,0,0.03,0,0.05C205.11,373.72,205.11,373.68,205.11,373.68z"/>
		</g>
		<path class="st28" d="M272.49,410.61c-1.36,0.78-3.58,0.78-4.93,0l-61.43-35.47c-1.36-0.78-1.36-2.06,0-2.85l24.96-14.41    c1.36-0.78,3.58-0.78,4.93,0l61.43,35.47c1.36,0.78,1.36,2.07,0,2.85L272.49,410.61z"/>
		<g>
			<g>
				<polygon class="st52" points="234.04,363.13 230.92,361.33 234.04,359.52 237.17,361.33     "/>
				<polygon class="st52" points="239.31,366.17 236.18,364.37 239.31,362.56 242.44,364.37     "/>
				<polygon class="st52" points="244.58,369.22 241.45,367.41 244.58,365.6 247.71,367.41     "/>
				<polygon class="st52" points="249.85,372.26 246.72,370.45 249.85,368.64 252.98,370.45     "/>
				<polygon class="st52" points="255.12,375.3 251.99,373.49 255.12,371.69 258.25,373.49     "/>
				<polygon class="st52" points="260.39,378.34 257.26,376.54 260.39,374.73 263.52,376.54     "/>
				<polygon class="st52" points="265.66,381.38 262.53,379.58 265.66,377.77 268.79,379.58     "/>
				<polygon class="st52" points="270.93,384.43 267.8,382.62 270.93,380.81 274.05,382.62     "/>
				<polygon class="st52" points="276.2,387.47 273.07,385.66 276.2,383.86 279.32,385.66     "/>
				<polygon class="st52" points="281.46,390.51 278.34,388.7 281.46,386.9 284.59,388.7     "/>
				<polygon class="st52" points="286.73,393.55 283.6,391.75 286.73,389.94 289.86,391.75     "/>
				<polygon class="st52" points="292,396.59 288.87,394.79 292,392.98 295.13,394.79     "/>
			</g>
			<polygon class="st52" points="231.27,367.61 225.65,364.37 228.77,362.56 234.4,365.81    "/>
			<polygon class="st52" points="228.36,371.77 220.6,367.28 223.73,365.48 231.49,369.96    "/>
			<polygon class="st52" points="225.23,376.04 215.33,370.33 218.46,368.52 228.36,374.24    "/>
			<polygon class="st52" points="214.58,377.25 208.95,374.01 213.19,371.56 218.81,374.81    "/>
			<polygon class="st52" points="222.34,381.74 216.72,378.49 220.95,376.04 226.58,379.29    "/>
			<polygon class="st52" points="230.11,386.22 224.48,382.97 228.72,380.53 234.34,383.77    "/>
			<polygon class="st52" points="256.88,401.68 251.25,398.43 255.49,395.98 261.11,399.23    "/>
			<polygon class="st52" points="270.04,409.27 259.01,402.91 263.24,400.46 274.27,406.83    "/>
			<polygon class="st52" points="249.13,397.2 232.25,387.46 236.48,385.01 253.36,394.76    "/>
			<polygon class="st52" points="238.01,371.51 233.41,368.85 236.54,367.04 241.14,369.7    "/>
			<polygon class="st52" points="235.1,375.66 230.5,373 233.63,371.2 238.23,373.85    "/>
			<polygon class="st52" points="232.12,379.85 227.52,377.2 230.65,375.39 235.25,378.05    "/>
			<polygon class="st52" points="238.86,383.75 234.26,381.09 237.39,379.28 241.99,381.94    "/>
			<polygon class="st52" points="245.61,387.64 241,384.98 244.13,383.18 248.73,385.84    "/>
			<polygon class="st52" points="252.35,391.53 247.75,388.88 250.88,387.07 255.48,389.73    "/>
			<polygon class="st52" points="259.09,395.43 254.49,392.77 257.62,390.96 262.22,393.62    "/>
			<polygon class="st52" points="265.84,399.32 261.23,396.66 264.36,394.86 268.97,397.51    "/>
			<polygon class="st52" points="276.56,405.51 267.98,400.56 271.11,398.75 279.69,403.7    "/>
			<polygon class="st52" points="241.85,379.55 237.24,376.9 240.37,375.09 244.98,377.75    "/>
			<polygon class="st52" points="248.59,383.45 243.99,380.79 247.12,378.98 251.72,381.64    "/>
			<polygon class="st52" points="255.33,387.34 250.73,384.68 253.86,382.88 258.46,385.53    "/>
			<polygon class="st52" points="262.08,391.23 257.47,388.58 260.6,386.77 265.21,389.43    "/>
			<polygon class="st52" points="268.82,395.13 264.22,392.47 267.35,390.66 271.95,393.32    "/>
			<polygon class="st52" points="281.68,402.55 270.96,396.36 274.09,394.56 284.81,400.74    "/>
			<polygon class="st52" points="244.76,375.4 240.15,372.74 243.28,370.94 247.89,373.6    "/>
			<polygon class="st52" points="251.5,379.29 246.9,376.64 250.03,374.83 254.63,377.49    "/>
			<polygon class="st52" points="258.24,383.19 253.64,380.53 256.77,378.72 261.37,381.38    "/>
			<polygon class="st52" points="264.99,387.08 260.38,384.42 263.51,382.62 268.12,385.28    "/>
			<polygon class="st52" points="271.73,390.97 267.13,388.32 270.26,386.51 274.86,389.17    "/>
			<polygon class="st52" points="278.47,394.87 273.87,392.21 277,390.4 281.6,393.06    "/>
			<polygon class="st52" points="286.73,399.64 280.61,396.1 283.74,394.3 289.86,397.83    "/>
		</g>
	</g>
	<path class="st29" d="M170.08,384.53l-0.58-0.85l-20.3,4.58l0.57,0.85L170.08,384.53z M159.46,391.61l9.59,0.23l-0.4-5.54   l-1.58,0.04l0.33,4.55l-7.88-0.19L159.46,391.61z M149.97,386.13l1.58-0.04l-0.33-4.55l7.88,0.19l0.07-0.91l-9.59-0.23   L149.97,386.13z"/>
	<path class="st29" d="M390.99,417.42c-2.16,0-4.09-0.1-5.6-0.97c-1.42-0.82-1.68-1.89-1.68-3.23l-8.02,4.63   c-4.6,2.65-4.22,7.7-2.43,9.81c3.65,1.03,12.39,1.25,16.99-1.41l8.02-4.63c-2.17,0-4.09-0.1-5.6-0.97   C391.25,419.83,390.99,418.76,390.99,417.42z"/>
	<path class="st29" d="M281.35,320.4l0.52,0.3l-2.17,1.26l-0.52-0.3c-0.34-0.19-1-0.38-1.73-0.12c-0.33,0.12-0.68,0.24-1.03,0.34   c-0.74,0.24-0.79,0.66-0.67,0.93l0.19,0.41l-2.97,0.46l-0.19-0.41c-0.06-0.12-0.18-0.27-0.38-0.38c-0.23-0.13-0.56-0.23-1.01-0.23   c-0.39,0.01-0.79,0.01-1.18,0c-0.85-0.01-1.26,0.34-1.38,0.61l-0.19,0.41l-2.98-0.46l0.19-0.41c0.1-0.22,0.08-0.54-0.34-0.78   c-0.09-0.05-0.2-0.1-0.34-0.15c-0.35-0.1-0.69-0.22-1.03-0.34c-0.73-0.25-1.39-0.07-1.73,0.12l-0.52,0.3l-2.18-1.26l0.52-0.3   c0.33-0.19,0.65-0.58,0.21-1c-0.22-0.19-0.42-0.39-0.6-0.59c-0.08-0.08-0.16-0.14-0.25-0.2c-0.42-0.24-0.98-0.25-1.35-0.2   l-0.71,0.11l-0.81-1.72l0.71-0.11c0.46-0.07,1.06-0.31,1.04-0.8c-0.02-0.23-0.02-0.46,0-0.69c0-0.26-0.17-0.45-0.39-0.58   c-0.2-0.12-0.45-0.19-0.66-0.22l-0.71-0.11l0.79-1.72l0.71,0.11c0.46,0.07,1.19,0.04,1.6-0.39c0.18-0.2,0.38-0.4,0.59-0.6   c0.43-0.42,0.11-0.81-0.22-1l-0.52-0.3l2.17-1.26l0.52,0.3c0.34,0.19,1,0.38,1.73,0.12c0.33-0.12,0.68-0.24,1.03-0.34   c0.74-0.24,0.79-0.66,0.67-0.93l-0.19-0.41l2.97-0.46l0.19,0.41c0.06,0.12,0.18,0.27,0.38,0.38c0.23,0.13,0.56,0.23,1.01,0.23   c0.39-0.01,0.79-0.01,1.18,0c0.85,0.01,1.26-0.34,1.38-0.61l0.19-0.41l2.98,0.46l-0.19,0.41c-0.1,0.22-0.08,0.54,0.34,0.78   c0.09,0.05,0.2,0.1,0.34,0.15c0.35,0.1,0.69,0.22,1.03,0.34c0.73,0.25,1.39,0.07,1.73-0.13l0.52-0.3l2.18,1.26l-0.52,0.3   c-0.33,0.19-0.65,0.58-0.21,1c0.22,0.19,0.41,0.39,0.6,0.59c0.08,0.08,0.16,0.14,0.25,0.2c0.42,0.24,0.98,0.25,1.35,0.2l0.71-0.11   l0.81,1.72l-0.71,0.11c-0.46,0.07-1.06,0.31-1.04,0.8c0.02,0.23,0.02,0.46,0,0.69c0,0.26,0.17,0.45,0.39,0.58   c0.2,0.12,0.45,0.19,0.66,0.22l0.71,0.11l-0.79,1.72l-0.71-0.11c-0.46-0.07-1.19-0.04-1.6,0.39c-0.18,0.2-0.37,0.4-0.59,0.59   C280.69,319.82,281.01,320.21,281.35,320.4z M266.78,317.83c2.2,1.27,5.76,1.27,7.94,0c2.19-1.27,2.18-3.33-0.02-4.6   c-2.2-1.27-5.76-1.27-7.94,0C264.57,314.5,264.58,316.56,266.78,317.83L266.78,317.83z"/>
	<g>
		<path class="st29" d="M297.79,473.6c1.28-0.74,3.36-0.74,4.64,0c1.28,0.74,1.28,1.94,0,2.68c-1.28,0.74-3.36,0.74-4.64,0    C296.51,475.54,296.51,474.34,297.79,473.6z"/>
		<path class="st29" d="M305.49,478.05c1.28-0.74,3.36-0.74,4.64,0c1.28,0.74,1.28,1.94,0,2.68c-1.28,0.74-3.36,0.74-4.64,0    C304.21,479.99,304.21,478.79,305.49,478.05z"/>
		<path class="st29" d="M313.2,482.5c1.28-0.74,3.36-0.74,4.64,0c1.28,0.74,1.28,1.94,0,2.68c-1.28,0.74-3.36,0.74-4.64,0    C311.92,484.44,311.92,483.24,313.2,482.5z"/>
	</g>
	<linearGradient id="SVGID_37_" gradientUnits="userSpaceOnUse" x1="337.1302" y1="381.4557" x2="367.2563" y2="381.4557">
		<stop offset="0.4525" style="stop-color:#C4C9E4"/>
		<stop offset="1" style="stop-color:#FFFFFF"/>
	</linearGradient>
	<path class="st53" d="M362.81,375.28c-3.15-1.82-7.34-2.66-11.45-2.53h-6.45v1.06c-1.22,0.39-2.38,0.88-3.41,1.48   c-5.86,3.41-5.83,8.93,0.07,12.34c1.02,0.59,2.14,1.06,3.34,1.45v1.1h7.73c3.72-0.06,7.4-0.91,10.23-2.55   C368.74,384.21,368.71,378.69,362.81,375.28z"/>
	<g>
		<g>
			<g>
				<path class="st28" d="M330.23,377.45c0-2.18,1.44-4.36,4.32-6.02c2.88-1.66,6.66-2.49,10.43-2.49c3.77,0,7.55,0.83,10.43,2.49      c2.88,1.67,4.32,3.84,4.32,6.02c0,2.18-1.44,4.36-4.32,6.02c-2.88,1.66-6.66,2.5-10.43,2.5c-3.78,0-7.55-0.83-10.43-2.5      C331.67,381.81,330.23,379.63,330.23,377.45z"/>
				<linearGradient id="SVGID_38_" gradientUnits="userSpaceOnUse" x1="330.2278" y1="383.8124" x2="359.7361" y2="383.8124">
					<stop offset="0" style="stop-color:#CED3F8"/>
					<stop offset="1" style="stop-color:#A5ABCC"/>
				</linearGradient>
				<path class="st54" d="M355.41,383.47c-2.88,1.66-6.66,2.5-10.43,2.5c-3.78,0-7.55-0.83-10.43-2.5      c-2.88-1.66-4.32-3.84-4.32-6.02v4.21c0,2.18,1.44,4.36,4.32,6.02c2.88,1.67,6.66,2.5,10.43,2.5c3.78,0,7.55-0.83,10.43-2.49      c2.88-1.66,4.32-3.85,4.32-6.02v-4.2C359.74,379.63,358.29,381.81,355.41,383.47z"/>
				<path class="st1" d="M336.51,382.34c2.34,1.35,5.41,2.03,8.47,2.03c3.07,0,6.13-0.68,8.47-2.03c2.16-1.25,3.32-2.85,3.48-4.48      c-0.17-1.63-1.33-3.24-3.48-4.48c-2.34-1.35-5.41-2.03-8.47-2.03c-3.07,0-6.13,0.67-8.47,2.03c-2.16,1.25-3.32,2.85-3.49,4.48      C333.19,379.49,334.35,381.1,336.51,382.34z"/>
				<linearGradient id="SVGID_39_" gradientUnits="userSpaceOnUse" x1="332.9995" y1="374.1977" x2="356.9639" y2="374.1977">
					<stop offset="0" style="stop-color:#A5ABCC"/>
					<stop offset="1" style="stop-color:#CED3F8"/>
				</linearGradient>
				<path class="st55" d="M336.51,373.38c2.34-1.35,5.41-2.03,8.47-2.03c3.07,0,6.13,0.67,8.47,2.03c2.16,1.25,3.32,2.85,3.48,4.48      c0.01-0.14,0.02-0.27,0.02-0.41c0-1.77-1.17-3.54-3.51-4.89c-2.34-1.35-5.41-2.03-8.47-2.03c-3.07,0-6.13,0.68-8.47,2.03      c-2.34,1.35-3.51,3.12-3.51,4.89c0,0.14,0.01,0.27,0.02,0.41C333.19,376.23,334.35,374.63,336.51,373.38z"/>
			</g>
			<g>
				<polygon class="st56" points="350.88,375.69 352.02,375.04 352.02,374.22 350.88,374.87     "/>
				<path class="st28" d="M345.66,377.06c-0.42-0.24-0.66-0.57-0.66-0.91c0-0.34,0.23-0.67,0.66-0.91c0.87-0.5,2.29-0.5,3.16,0      c0.87,0.5,0.87,1.32,0,1.83l1.44,0.83c1.42-0.82,1.62-2.07,0.63-3.02l1.13-0.65l-1.44-0.83l-1.13,0.66      c-1.64-0.57-3.81-0.46-5.23,0.36c-0.81,0.47-1.25,1.08-1.25,1.74c0,0.66,0.44,1.28,1.25,1.74c0.87,0.5,0.87,1.32,0,1.83      c-0.87,0.5-2.29,0.5-3.17,0c-0.87-0.51-0.87-1.32,0-1.83l-1.44-0.83c-1.42,0.82-1.62,2.07-0.63,3.02l-1.04,0.6l1.44,0.83      l1.05-0.6c1.64,0.57,3.81,0.46,5.23-0.36C347.32,379.59,347.32,378.02,345.66,377.06z"/>
				<polygon class="st27" points="337.95,381.5 339.38,382.33 339.38,381.51 337.95,380.68     "/>
				<polygon class="st56" points="339.38,382.33 340.43,381.73 340.43,380.91 339.38,381.51     "/>
				<polygon class="st27" points="348.82,377.88 350.26,378.71 350.26,377.89 348.82,377.06     "/>
				<path class="st56" d="M341.06,378.71v-0.82c-0.62,0.36-0.8,0.87-0.54,1.32C340.63,379.03,340.8,378.86,341.06,378.71z"/>
				<path class="st27" d="M338.38,378.76l0,0.92l0,0c0.01,0.22,0.07,0.44,0.18,0.65l0.43-0.25      C338.57,379.68,338.37,379.22,338.38,378.76L338.38,378.76z"/>
				<path class="st27" d="M344.22,378.71c0.25,0.15,0.43,0.32,0.54,0.5c0.26-0.45,0.08-0.96-0.54-1.32      c-0.81-0.47-1.25-1.08-1.25-1.74v0.82C342.97,377.63,343.41,378.24,344.22,378.71z"/>
				<path class="st57" d="M346.91,378.8v-0.02h0C346.9,378.79,346.91,378.79,346.91,378.8z"/>
				<path class="st56" d="M351.5,376.15c0,0.63-0.41,1.26-1.24,1.74v0.82c0.85-0.49,1.27-1.14,1.24-1.79l0,0L351.5,376.15      L351.5,376.15z"/>
				<linearGradient id="SVGID_40_" gradientUnits="userSpaceOnUse" x1="340.4288" y1="380.4474" x2="346.9052" y2="380.4474">
					<stop offset="0" style="stop-color:#CED3F8"/>
					<stop offset="1" style="stop-color:#A5ABCC"/>
				</linearGradient>
				<path class="st58" d="M345.66,380.55c-1.42,0.82-3.59,0.94-5.23,0.36v0.82c1.64,0.57,3.81,0.46,5.23-0.36      c0.83-0.48,1.24-1.1,1.25-1.73l0,0v-0.83C346.9,379.44,346.49,380.07,345.66,380.55z"/>
				<path class="st56" d="M348.82,375.24c-0.87-0.5-2.29-0.5-3.16,0c-0.42,0.24-0.66,0.57-0.66,0.91c0,0.14,0.04,0.28,0.12,0.41      c0.11-0.19,0.29-0.36,0.54-0.5c0.87-0.5,2.29-0.5,3.16,0c0.25,0.15,0.43,0.32,0.54,0.5      C349.62,376.11,349.44,375.59,348.82,375.24z"/>
			</g>
		</g>
	</g>
	<linearGradient id="SVGID_41_" gradientUnits="userSpaceOnUse" x1="338.8216" y1="211.5002" x2="365.106" y2="211.5002">
		<stop offset="0.3247" style="stop-color:#C4C9E4"/>
		<stop offset="1" style="stop-color:#FFFFFF"/>
	</linearGradient>
	<path class="st59" d="M361.59,206.61c-2.49-1.44-5.81-2.1-9.06-2h-7.54v0.84c-0.97,0.31-1.88,0.7-2.7,1.17   c-4.64,2.7-4.61,7.07,0.06,9.77c0.81,0.46,1.7,0.84,2.64,1.14v0.87h8.56c2.94-0.05,5.86-0.72,8.1-2.02   C366.28,213.68,366.26,209.31,361.59,206.61z"/>
	<g>
		<linearGradient id="SVGID_42_" gradientUnits="userSpaceOnUse" x1="333.5658" y1="209.2434" x2="357.4204" y2="209.2434">
			<stop offset="0" style="stop-color:#D1D7F3"/>
			<stop offset="0.1731" style="stop-color:#C7CDEA"/>
			<stop offset="0.6873" style="stop-color:#AEB4D4"/>
			<stop offset="1" style="stop-color:#A5ABCC"/>
		</linearGradient>
		<path class="st60" d="M337.09,211.83c-2.35-1.36-3.53-3.14-3.52-4.92l0.01-2.28c0,1.78,1.17,3.56,3.52,4.92    c4.67,2.7,12.22,2.7,16.86,0c2.31-1.34,3.46-3.09,3.47-4.85l-0.01,2.28c-0.01,1.76-1.16,3.51-3.46,4.85    C349.31,214.53,341.76,214.53,337.09,211.83z"/>
		<linearGradient id="SVGID_43_" gradientUnits="userSpaceOnUse" x1="333.5658" y1="211.5204" x2="357.4204" y2="211.5204">
			<stop offset="0" style="stop-color:#D8DEF0"/>
			<stop offset="0.5506" style="stop-color:#C6CCE7"/>
			<stop offset="1" style="stop-color:#BDC3E3"/>
		</linearGradient>
		<path class="st61" d="M337.09,214.11c-2.35-1.36-3.53-3.14-3.52-4.92l0.01-2.28c0,1.78,1.17,3.56,3.52,4.92    c4.67,2.7,12.22,2.7,16.86,0c2.31-1.34,3.46-3.09,3.47-4.85l-0.01,2.28c-0.01,1.76-1.16,3.51-3.46,4.85    C349.31,216.8,341.76,216.8,337.09,214.11z"/>
		<linearGradient id="SVGID_44_" gradientUnits="userSpaceOnUse" x1="333.5658" y1="213.7977" x2="357.4204" y2="213.7977">
			<stop offset="0" style="stop-color:#D1D7F3"/>
			<stop offset="0.1731" style="stop-color:#C7CDEA"/>
			<stop offset="0.6873" style="stop-color:#AEB4D4"/>
			<stop offset="1" style="stop-color:#A5ABCC"/>
		</linearGradient>
		<path class="st62" d="M337.09,216.38c-2.35-1.36-3.53-3.14-3.52-4.92l0.01-2.28c0,1.78,1.17,3.56,3.52,4.92    c4.67,2.7,12.22,2.7,16.86,0c2.31-1.34,3.46-3.09,3.47-4.85l-0.01,2.28c-0.01,1.76-1.16,3.51-3.46,4.85    C349.31,219.08,341.76,219.08,337.09,216.38z"/>
		<path class="st28" d="M337.1,209.55c-4.67-2.7-4.7-7.07-0.06-9.77c4.64-2.7,12.19-2.7,16.86,0c4.67,2.69,4.69,7.07,0.05,9.77    C349.31,212.25,341.77,212.25,337.1,209.55z"/>
		<polygon class="st23" points="352.17,203.78 342.62,204.26 342.92,202.12 340.28,202.12 339.56,206.03 352.17,205.3   "/>
	</g>
	<g>
		<linearGradient id="SVGID_45_" gradientUnits="userSpaceOnUse" x1="188.8904" y1="278.816" x2="216.9263" y2="278.816">
			<stop offset="0" style="stop-color:#D1D7F3"/>
			<stop offset="0.3799" style="stop-color:#E4E7F8"/>
			<stop offset="1" style="stop-color:#FFFFFF"/>
		</linearGradient>
		<path class="st63" d="M188.89,278.82l0,8.09l14.02,0c7.74,0,14.02-3.62,14.02-8.09c0-4.47-6.28-8.09-14.02-8.09    C195.17,270.72,188.89,274.35,188.89,278.82z M198.23,276.12c2.58-1.49,6.77-1.49,9.35,0c2.58,1.49,2.58,3.91,0,5.4    c-2.58,1.49-6.77,1.49-9.35,0C195.65,280.02,195.65,277.61,198.23,276.12z"/>
	</g>
	<linearGradient id="SVGID_46_" gradientUnits="userSpaceOnUse" x1="184.6402" y1="281.186" x2="212.6757" y2="281.186">
		<stop offset="0.4677" style="stop-color:#CED3F8"/>
		<stop offset="1" style="stop-color:#BBC0E6"/>
	</linearGradient>
	<path class="st64" d="M211.68,275.46v2.99c-2.06,2.99-7.11,5.1-13.02,5.1l-12.1,0v0h-1.91l0,3.35l14.02,0   c7.74,0,14.02-3.62,14.02-8.09v-3.35H211.68z"/>
	<linearGradient id="SVGID_47_" gradientUnits="userSpaceOnUse" x1="192.0486" y1="274.3926" x2="205.2663" y2="274.3926">
		<stop offset="0" style="stop-color:#BBC0E6"/>
		<stop offset="1" style="stop-color:#CED3F8"/>
	</linearGradient>
	<path class="st65" d="M203.33,272.76c-2.58-1.49-6.77-1.49-9.35,0c-2.05,1.18-2.47,2.95-1.26,4.38c0.31-0.37,0.73-0.72,1.26-1.02   c2.58-1.49,6.77-1.49,9.35,0c0.53,0.31,0.95,0.65,1.26,1.02C205.8,275.71,205.38,273.95,203.33,272.76z"/>
	<g>
		<path class="st28" d="M184.64,275.46l0,8.09l14.02,0c7.74,0,14.02-3.62,14.02-8.09c0-4.47-6.28-8.09-14.02-8.09    C190.92,267.37,184.64,270.99,184.64,275.46z M193.98,272.76c2.58-1.49,6.77-1.49,9.35,0c2.58,1.49,2.58,3.91,0,5.4    c-2.58,1.49-6.77,1.49-9.35,0C191.4,276.67,191.4,274.26,193.98,272.76z"/>
	</g>
	<linearGradient id="SVGID_48_" gradientUnits="userSpaceOnUse" x1="451.0215" y1="358.3662" x2="470.3654" y2="358.3662">
		<stop offset="0" style="stop-color:#C2C7E2"/>
		<stop offset="1" style="stop-color:#FFFFFF"/>
	</linearGradient>
	<path class="st66" d="M467.24,354.03c-2.21-1.28-5.16-1.87-8.05-1.78h-2.7v0.74c-0.86,0.27-1.67,0.62-2.4,1.04   c-4.12,2.4-4.1,6.28,0.05,8.68c0.71,0.41,1.51,0.75,2.35,1.02v0.78h3.6c2.61-0.04,5.21-0.64,7.19-1.79   C471.41,360.31,471.39,356.42,467.24,354.03z"/>
	<linearGradient id="SVGID_49_" gradientUnits="userSpaceOnUse" x1="446.3527" y1="360.4077" x2="467.5413" y2="360.4077">
		<stop offset="0" style="stop-color:#D6DCEE"/>
		<stop offset="0.5506" style="stop-color:#C4CAE5"/>
		<stop offset="1" style="stop-color:#BBC1E1"/>
	</linearGradient>
	<path class="st67" d="M449.48,362.7c-2.09-1.21-3.13-2.79-3.13-4.37l0.01-2.02c0,1.58,1.04,3.16,3.13,4.37   c4.15,2.39,10.85,2.39,14.97,0c2.05-1.19,3.07-2.75,3.08-4.31l-0.01,2.02c0,1.56-1.03,3.12-3.08,4.31   C460.33,365.1,453.63,365.1,449.48,362.7z"/>
	<path class="st28" d="M449.49,360.68c-4.15-2.39-4.17-6.28-0.05-8.67c4.12-2.4,10.83-2.4,14.98,0c4.15,2.39,4.17,6.28,0.05,8.68   C460.34,363.08,453.64,363.08,449.49,360.68z"/>
	<polygon class="st68" points="455.43,357.45 452.12,356.85 454.95,355.69 454.91,353.69 457.69,354.89 460.97,354.25    459.86,356.14 461.93,357.75 458.46,357.72 456.46,359.36  "/>
	<linearGradient id="SVGID_50_" gradientUnits="userSpaceOnUse" x1="446.4074" y1="352.9826" x2="467.4876" y2="352.9826">
		<stop offset="0" style="stop-color:#DAE0F5"/>
		<stop offset="1" style="stop-color:#FFFFFF"/>
	</linearGradient>
	<path class="st69" d="M449.44,352.01c-1.8,1.05-2.81,2.38-3.03,3.75h21.08c-0.23-1.37-1.26-2.7-3.07-3.75   C460.27,349.61,453.56,349.61,449.44,352.01z"/>
	<path class="st29" d="M383.05,270.49l0-4.75c2.16-0.14,4.25-0.68,5.9-1.63c3.85-2.22,3.85-5.84,0-8.06   c-3.85-2.22-10.11-2.22-13.95,0c-3.85,2.22-3.85,5.84,0,8.06c1.65,0.95,3.74,1.49,5.9,1.63l0,4.75c0,0.17,0.12,0.33,0.32,0.44   c0.19,0.11,0.46,0.18,0.76,0.18C382.57,271.11,383.05,270.84,383.05,270.49z M376.52,256.94c3.01-1.74,7.9-1.74,10.91,0   c3.01,1.74,3.01,4.56,0,6.3c-3.01,1.74-7.9,1.74-10.91,0C373.51,261.5,373.51,258.67,376.52,256.94z"/>
	<path class="st29" d="M160.73,355.85c-0.53-0.3-1.21-0.45-1.9-0.44l-2.94-6.21c0.37-0.1,0.73-0.24,1.04-0.42   c0.41-0.24,0.71-0.52,0.89-0.82l9.22,0.83c0.06,0.34,0.3,0.67,0.75,0.93c1.03,0.59,2.7,0.59,3.73,0c1.03-0.6,1.03-1.56,0-2.15   c-1.03-0.6-2.7-0.6-3.73,0c-0.24,0.14-0.43,0.3-0.55,0.47l-9.22-0.83c-0.02-0.53-0.38-1.07-1.09-1.47c-1.46-0.84-3.82-0.84-5.28,0   c-1.46,0.84-1.46,2.2,0,3.04c0.81,0.47,1.91,0.68,2.97,0.62l2.94,6.21c-0.2,0.07-0.39,0.14-0.56,0.24c-1.03,0.6-1.03,1.56,0,2.15   c1.03,0.6,2.7,0.6,3.73,0C161.76,357.41,161.76,356.44,160.73,355.85z"/>
	<linearGradient id="SVGID_51_" gradientUnits="userSpaceOnUse" x1="248.0335" y1="393.9913" x2="262.4295" y2="393.9913">
		<stop offset="0" style="stop-color:#DAE0F5"/>
		<stop offset="0.3103" style="stop-color:#ECEFFA"/>
		<stop offset="0.6804" style="stop-color:#FAFBFE"/>
		<stop offset="0.9944" style="stop-color:#FFFFFF"/>
	</linearGradient>
	<path class="st70" d="M262.43,395.5c-4.57-0.8-8.3-1.94-10.17-3.1c1.22,0.05,1.3-0.75,0.87-1.09c-0.92-0.72-2.11-1.28-3.18-1   c-1.07,0.28-1.91,2.32-1.91,2.32c2.32,2.53,8.28,4.22,14.4,5.12V395.5z"/>
	<path class="st71" d="M246.48,390.73c0.25-0.02,0.66-0.06,0.66-0.06c0.06-0.12,1.03-1.28,2.3-1.14c0.09,0.45-0.43,0.57-0.9,0.77   c0.52-0.15,1.17-0.26,1.46-0.32c0.29-0.06,1.19,0.08,1.61,0.54c0.09,0.1,0.41,0.42,0.63,0.73c0.36,0.51-0.2,0.76-0.71,0.55   c-0.51-0.21-0.69-0.09-1.34,0.18c-0.65,0.27-1.48,1.13-2.96,0.4c-0.16-0.08-0.4-0.01-0.4-0.01L246.48,390.73z"/>
	
		<linearGradient id="SVGID_52_" gradientUnits="userSpaceOnUse" x1="1289.6863" y1="422.2293" x2="1308.9894" y2="422.2293" gradientTransform="matrix(-1 0 0 1 1533.3582 0)">
		<stop offset="5.617980e-03" style="stop-color:#FFFFFF"/>
		<stop offset="0.246" style="stop-color:#FAFBFD"/>
		<stop offset="0.5298" style="stop-color:#ECEEF8"/>
		<stop offset="0.8346" style="stop-color:#D4D8EF"/>
		<stop offset="1" style="stop-color:#C4CAE9"/>
	</linearGradient>
	<rect x="224.37" y="420.21" class="st72" width="19.3" height="4.04"/>
	
		<linearGradient id="SVGID_53_" gradientUnits="userSpaceOnUse" x1="1307.5422" y1="428.063" x2="1328.2975" y2="428.063" gradientTransform="matrix(-1 0 0 1 1562.7871 0)">
		<stop offset="5.617980e-03" style="stop-color:#FFFFFF"/>
		<stop offset="0.246" style="stop-color:#FAFBFD"/>
		<stop offset="0.5298" style="stop-color:#ECEEF8"/>
		<stop offset="0.8346" style="stop-color:#D4D8EF"/>
		<stop offset="1" style="stop-color:#C4CAE9"/>
	</linearGradient>
	<rect x="234.49" y="426.04" class="st73" width="20.76" height="4.04"/>
	<g>
		<g>
			
				<linearGradient id="SVGID_54_" gradientUnits="userSpaceOnUse" x1="-12.3557" y1="421.4928" x2="-4.1839" y2="421.4928" gradientTransform="matrix(-1 0 0 1 217.8581 0)">
				<stop offset="0" style="stop-color:#423EAF"/>
				<stop offset="0.3038" style="stop-color:#3A35A0"/>
				<stop offset="0.8906" style="stop-color:#241E77"/>
				<stop offset="1" style="stop-color:#20196F"/>
			</linearGradient>
			<path class="st74" d="M222.04,423c0-3.17,2.01-3.27,2.01-3.27s1.12,0.11,2.91-0.56c2.26-0.85,4.16-0.62,2.78,1.92     c-0.01,0.03-0.03,0.06-0.05,0.09c-0.08,0.13-0.23,0.27-0.45,0.39l-4.4,2.58C224.19,424.54,222.06,423.66,222.04,423z"/>
			<path class="st75" d="M222.05,422.72c0.04,0.65,2.14,1.52,2.8,1.14l4.4-2.58c0.15-0.08,0.4-0.25,0.62-0.45     c-0.04,0.09-0.08,0.17-0.13,0.27c-0.01,0.03-0.03,0.06-0.05,0.09c-0.08,0.13-0.23,0.27-0.45,0.39l-4.4,2.58     c-0.63,0.36-2.54-0.39-2.79-1.03c-0.01-0.05-0.02-0.09-0.02-0.13C222.04,422.9,222.05,422.82,222.05,422.72z"/>
			<path class="st76" d="M222.86,419.32c0.26,0,0.85,0.12,1.37,0.23c0.43-0.11,1.86-0.16,2.79-0.44c0.28-0.08,0.54-0.26,0.83-0.03     c0.37,0.45-0.59,1.56-2.57,2.42c-0.7,0.44-1.27,0.16-1.54-0.11c-0.11-0.2-0.27-0.43-0.49-0.56c-0.23-0.13-0.37-0.19-0.48-0.2     c0-0.01-0.01-0.04-0.01-0.04S222.64,419.32,222.86,419.32z"/>
		</g>
		<linearGradient id="SVGID_55_" gradientUnits="userSpaceOnUse" x1="222.6188" y1="404.412" x2="231.7736" y2="404.412">
			<stop offset="0" style="stop-color:#4E42BC"/>
			<stop offset="0.3697" style="stop-color:#443BB3"/>
			<stop offset="1" style="stop-color:#3833A8"/>
		</linearGradient>
		<path class="st77" d="M223.86,398.45c-0.88-2.71-0.48-5.84,0.18-8.98c1.99,0.04,5.75-1.08,7.74-1.04    c-0.74,5.98-2.41,11.23-3.4,17.02c-1.07,5.63-2.33,9.76-3.39,14.44c-0.38,0.87-2.26,0.48-2.26-0.04    c-0.28-4.31-0.09-9.31,1.19-14.29C223.83,403.3,224.21,400.69,223.86,398.45z"/>
	</g>
	<g>
		
			<linearGradient id="SVGID_56_" gradientUnits="userSpaceOnUse" x1="-22.3896" y1="427.3037" x2="-14.2088" y2="427.3037" gradientTransform="matrix(-1 0 0 1 217.8581 0)">
			<stop offset="0" style="stop-color:#423EAF"/>
			<stop offset="0.3038" style="stop-color:#3A35A0"/>
			<stop offset="0.8906" style="stop-color:#241E77"/>
			<stop offset="1" style="stop-color:#20196F"/>
		</linearGradient>
		<path class="st78" d="M232.07,428.84c0-3.18,2.01-3.27,2.01-3.27s1.18,0.05,2.97-0.62c2.26-0.85,4.1-0.56,2.72,1.98    c-0.01,0.03-0.03,0.06-0.05,0.09c-0.08,0.13-0.23,0.27-0.45,0.39l-4.4,2.58C234.21,430.38,232.08,429.49,232.07,428.84z"/>
		<path class="st75" d="M232.08,428.55c0.04,0.65,2.14,1.52,2.8,1.14l4.4-2.58c0.15-0.08,0.4-0.25,0.62-0.45    c-0.04,0.09-0.08,0.17-0.13,0.27c-0.01,0.03-0.03,0.06-0.05,0.09c-0.08,0.13-0.23,0.27-0.45,0.39l-4.4,2.58    c-0.63,0.36-2.53-0.39-2.79-1.03c-0.01-0.05-0.02-0.09-0.02-0.13C232.07,428.74,232.07,428.65,232.08,428.55z"/>
		<path class="st76" d="M232.88,425.15c0.26,0,0.85,0.12,1.38,0.23c0.43-0.11,1.86-0.16,2.79-0.44c0.28-0.08,0.54-0.26,0.83-0.03    c0.37,0.45-0.59,1.56-2.57,2.42c-0.7,0.44-1.27,0.16-1.54-0.11c-0.11-0.2-0.27-0.43-0.5-0.56c-0.23-0.13-0.37-0.19-0.47-0.2    c0-0.01-0.01-0.04-0.01-0.04S232.67,425.15,232.88,425.15z"/>
		
			<linearGradient id="SVGID_57_" gradientUnits="userSpaceOnUse" x1="-18.06" y1="407.823" x2="-6.1457" y2="407.823" gradientTransform="matrix(-1 0 0 1 217.8581 0)">
			<stop offset="0" style="stop-color:#5E5EDE"/>
			<stop offset="0.555" style="stop-color:#544CC8"/>
			<stop offset="1" style="stop-color:#4E42BC"/>
		</linearGradient>
		<path class="st79" d="M229.14,402.48c-1.69-6.81-5.51-2.91-5.1-13.01c1.97-0.29,8.99,4.15,10.96,3.87    c1.15,7.32,0.91,11.85,0.88,17.72c-0.13,5.73-0.51,9.64-0.78,14.43c-0.24,0.92-2.33,0.85-2.33,0.3    c-0.98-4.21-1.76-9.34-1.31-14.45C230.87,408.49,229.77,405.49,229.14,402.48z"/>
	</g>
	<g>
		
			<linearGradient id="SVGID_58_" gradientUnits="userSpaceOnUse" x1="34.961" y1="175.7035" x2="51.2539" y2="175.7035" gradientTransform="matrix(-0.9614 -0.2751 -0.2751 0.9614 322.1878 229.4648)">
			<stop offset="0" style="stop-color:#D453B5"/>
			<stop offset="0.482" style="stop-color:#E16AC8"/>
			<stop offset="1" style="stop-color:#ED7ED9"/>
		</linearGradient>
		<path class="st80" d="M225.05,399.96c3.21,1.96,8.25,3.17,11.49,1.74c0.33-1.89-2.6-14.38-0.67-17.67    c0.42-0.72,1.77-0.13,2.14-0.91c0.95-2.02,1.85-6.22,1.85-6.86c0-1.36-1.09-2.77-2.22-3.52c-1.55-1.03-3.74-2.41-5.68-2.03    c-4.23,1.19-7.22,12.09-10.32,24.71C221.96,396.85,223.12,398.78,225.05,399.96z"/>
		
			<linearGradient id="SVGID_59_" gradientUnits="userSpaceOnUse" x1="520.01" y1="389.2578" x2="526.232" y2="389.2578" gradientTransform="matrix(-1 0 0 1 759.8112 0)">
			<stop offset="0" style="stop-color:#9D9D9C"/>
			<stop offset="0.2237" style="stop-color:#AEAEAD"/>
			<stop offset="0.6651" style="stop-color:#DADAD9"/>
			<stop offset="1" style="stop-color:#FFFFFF"/>
		</linearGradient>
		<path class="st81" d="M233.6,387.3c-0.21-1.56,1.4-4.31,2.32-4.62c0.92-0.31,1.73-0.67,1.73-1.73c0-1.06-0.44-2.72-0.21-3.98    l2.36-0.15c-0.22,1.37-0.99,4.61-1.79,6.31c-0.37,0.78-1.72,0.19-2.14,0.91c-1.93,3.29,1,15.77,0.67,17.67    c0,0-1.18-5.99-1.54-8.37C234.63,390.96,233.8,388.86,233.6,387.3z"/>
		<path class="st76" d="M232.69,371.67c1.3-0.87,1.22-1.56,1.08-2.81c-0.22-0.66-0.33-1.39-0.3-2.16c0.1-2.77,1.95-5.09,4.11-4.86    c4.34,0.46,3.48,2.72,3.38,5.49c-0.1,2.56-1.33,4.28-3.28,4.51c-0.02,0.42,0.11,0.82,0.64,1.21c-1.45,0.8-3.71,0.37-4.62-0.01    C232.8,372.66,232.07,372.26,232.69,371.67z"/>
	</g>
	<g>
		
			<linearGradient id="SVGID_60_" gradientUnits="userSpaceOnUse" x1="655.5933" y1="-203.7675" x2="675.0804" y2="-203.7675" gradientTransform="matrix(0.4046 0.9145 -0.9145 0.4046 -214.1835 -141.7749)">
			<stop offset="0" style="stop-color:#D453B5"/>
			<stop offset="0.482" style="stop-color:#E16AC8"/>
			<stop offset="1" style="stop-color:#ED7ED9"/>
		</linearGradient>
		<path class="st82" d="M246.74,392.5c0,0,1.52-0.5,0.73-2.27c-3.97-1.89-7.87-8.02-7.61-13.97c-0.17-2.39-3.04-1.54-3.29,1.37    C236.18,382.22,239.44,390.27,246.74,392.5z"/>
	</g>
	<path class="st83" d="M241.53,365.57c-0.08-1.61-1.38-4.31-4.25-4.1c-2.77,0.19-3.95,2.16-3.98,4.56c-0.02,1.88-1.7,7.21-5.93,6.9   C229.18,376.27,242.08,376.87,241.53,365.57z"/>
	<path class="st1" d="M89.04,325.63l10.69,23.03c0.65,1.39,2.35,1.93,3.68,1.16l29.19-16.86c2.14-1.23,1.53-4.47-0.91-4.84   l-39.88-6.17C89.75,321.63,88.16,323.74,89.04,325.63z"/>
	<path class="st1" d="M438.88,488.43c-8.73-5.04-22.87-5.04-31.6,0c-8.73,5.04-8.73,13.21,0,18.24c8.73,5.04,22.87,5.04,31.6,0   C447.61,501.64,447.61,493.47,438.88,488.43z M414.74,502.37c-4.61-2.66-4.61-6.97,0-9.63c4.61-2.66,12.08-2.66,16.69,0   c4.61,2.66,4.61,6.97,0,9.63C426.82,505.03,419.35,505.03,414.74,502.37z"/>
	<g>
		<path class="st1" d="M158.79,497.48c1.54,0.89,4.03,0.89,5.57,0c1.54-0.89,1.54-2.33,0-3.22c-1.54-0.89-4.03-0.89-5.57,0    C157.26,495.15,157.26,496.59,158.79,497.48z"/>
		<path class="st1" d="M172.42,505.35c1.54,0.89,4.03,0.89,5.57,0c1.54-0.89,1.54-2.33,0-3.22c-1.54-0.89-4.03-0.89-5.57,0    C170.88,503.02,170.88,504.46,172.42,505.35z"/>
		<path class="st1" d="M186.05,513.21c1.54,0.89,4.03,0.89,5.57,0c1.54-0.89,1.54-2.33,0-3.22c-1.54-0.89-4.03-0.89-5.57,0    C184.51,510.89,184.51,512.33,186.05,513.21z"/>
		<path class="st1" d="M205.24,517.86c-1.54-0.89-4.03-0.89-5.57,0c-1.54,0.89-1.54,2.33,0,3.22c1.54,0.89,4.03,0.89,5.57,0    C206.78,520.19,206.78,518.75,205.24,517.86z"/>
		<path class="st1" d="M145.17,505.35c1.54,0.89,4.03,0.89,5.57,0c1.54-0.89,1.54-2.33,0-3.22c-1.54-0.89-4.03-0.89-5.57,0    C143.63,503.02,143.63,504.46,145.17,505.35z"/>
		<path class="st1" d="M158.79,513.21c1.54,0.89,4.03,0.89,5.57,0c1.54-0.89,1.54-2.33,0-3.22c-1.54-0.89-4.03-0.89-5.57,0    C157.26,510.89,157.26,512.33,158.79,513.21z"/>
		<path class="st1" d="M172.42,521.08c1.54,0.89,4.03,0.89,5.57,0c1.54-0.89,1.54-2.33,0-3.22c-1.54-0.89-4.03-0.89-5.57,0    C170.88,518.75,170.88,520.19,172.42,521.08z"/>
		<path class="st1" d="M191.62,525.73c-1.54-0.89-4.03-0.89-5.57,0c-1.54,0.89-1.54,2.33,0,3.21c1.54,0.89,4.03,0.89,5.57,0    C193.15,528.06,193.15,526.62,191.62,525.73z"/>
		<path class="st1" d="M131.54,513.21c1.54,0.89,4.03,0.89,5.57,0c1.54-0.89,1.54-2.33,0-3.22c-1.54-0.89-4.03-0.89-5.57,0    C130,510.89,130,512.33,131.54,513.21z"/>
		<path class="st1" d="M145.17,521.08c1.54,0.89,4.03,0.89,5.57,0c1.54-0.89,1.54-2.33,0-3.22c-1.54-0.89-4.03-0.89-5.57,0    C143.63,518.75,143.63,520.19,145.17,521.08z"/>
		<path class="st1" d="M158.8,528.95c1.54,0.89,4.03,0.89,5.57,0c1.54-0.89,1.54-2.33,0-3.21c-1.54-0.89-4.03-0.89-5.57,0    C157.26,526.62,157.26,528.06,158.8,528.95z"/>
		<path class="st1" d="M177.99,533.6c-1.54-0.89-4.03-0.89-5.57,0c-1.54,0.89-1.54,2.33,0,3.22c1.54,0.89,4.03,0.89,5.57,0    C179.53,535.93,179.53,534.49,177.99,533.6z"/>
		<ellipse class="st1" cx="120.7" cy="519.47" rx="3.94" ry="2.27"/>
		<path class="st1" d="M131.54,528.95c1.54,0.89,4.03,0.89,5.57,0c1.54-0.89,1.54-2.33,0-3.22c-1.54-0.89-4.03-0.89-5.57,0    C130,526.62,130,528.06,131.54,528.95z"/>
		<path class="st1" d="M145.17,536.82c1.54,0.89,4.03,0.89,5.57,0c1.54-0.89,1.54-2.33,0-3.22c-1.54-0.89-4.03-0.89-5.57,0    C143.63,534.49,143.63,535.93,145.17,536.82z"/>
		<path class="st1" d="M164.36,541.47c-1.54-0.89-4.03-0.89-5.57,0c-1.54,0.89-1.54,2.33,0,3.22c1.54,0.89,4.03,0.89,5.57,0    C165.9,543.79,165.9,542.35,164.36,541.47z"/>
		<path class="st1" d="M109.86,525.73c-1.54-0.89-4.03-0.89-5.57,0c-1.54,0.89-1.54,2.33,0,3.22c1.54,0.89,4.03,0.89,5.57,0    C111.4,528.06,111.4,526.62,109.86,525.73z"/>
		<path class="st1" d="M123.48,533.6c-1.54-0.89-4.03-0.89-5.57,0c-1.54,0.89-1.54,2.33,0,3.22c1.54,0.89,4.03,0.89,5.57,0    C125.02,535.93,125.02,534.49,123.48,533.6z"/>
		<path class="st1" d="M137.11,541.47c-1.54-0.89-4.03-0.89-5.57,0c-1.54,0.89-1.54,2.33,0,3.22c1.54,0.89,4.03,0.89,5.57,0    C138.65,543.79,138.65,542.35,137.11,541.47z"/>
		<path class="st1" d="M150.74,549.33c-1.54-0.89-4.03-0.89-5.57,0c-1.54,0.89-1.54,2.33,0,3.22c1.54,0.89,4.03,0.89,5.57,0    C152.28,551.66,152.28,550.22,150.74,549.33z"/>
	</g>
	<g>
		<path class="st28" d="M534.88,395.88c-1.54-0.89-4.03-0.89-5.57,0c-1.54,0.89-1.54,2.33,0,3.22c1.54,0.89,4.03,0.89,5.57,0    C536.42,398.21,536.42,396.77,534.88,395.88z"/>
		<path class="st28" d="M521.25,403.75c-1.54-0.89-4.03-0.89-5.57,0c-1.54,0.89-1.54,2.33,0,3.22c1.54,0.89,4.03,0.89,5.57,0    C522.79,406.07,522.79,404.64,521.25,403.75z"/>
		<path class="st28" d="M507.63,411.61c-1.54-0.89-4.03-0.89-5.57,0c-1.54,0.89-1.54,2.33,0,3.22c1.54,0.89,4.03,0.89,5.57,0    C509.16,413.94,509.16,412.5,507.63,411.61z"/>
		<path class="st28" d="M494,419.48c-1.54-0.89-4.03-0.89-5.57,0c-1.54,0.89-1.54,2.33,0,3.22c1.54,0.89,4.03,0.89,5.57,0    C495.54,421.81,495.54,420.37,494,419.48z"/>
		<path class="st28" d="M480.37,427.35c-1.54-0.89-4.03-0.89-5.57,0c-1.54,0.89-1.54,2.33,0,3.22c1.54,0.89,4.03,0.89,5.57,0    C481.91,429.68,481.91,428.24,480.37,427.35z"/>
	</g>
	<path class="st1" d="M531.54,315.15l12.24,7.07c1.87,1.08,1.63,2.96-0.52,4.21l-11.2,6.47c-2.16,1.24-5.42,1.38-7.28,0.3   l-12.24-7.07c-1.87-1.08-1.63-2.96,0.52-4.21l11.2-6.47C526.41,314.21,529.67,314.07,531.54,315.15z"/>
</g>
</svg>