<svg width="459" height="223" viewBox="0 0 459 223" fill="none" xmlns="http://www.w3.org/2000/svg">
<g opacity="0.4">
<path d="M153.6 176.271V264.728L76.2261 307.319V132.043L153.6 176.271Z" fill="url(#paint0_linear_5570_10958)"/>
<g filter="url(#filter0_b_5570_10958)">
<path d="M0.000396729 176.775L76.9907 220.957L153.981 176.775L76.9907 132.594L0.000396729 176.775Z" fill="white" fill-opacity="0.2"/>
<path d="M76.9907 133.039L0.775848 176.775L76.9907 220.512L153.206 176.775L76.9907 133.039Z" stroke="url(#paint1_linear_5570_10958)" stroke-width="0.771919"/>
<path d="M76.9907 133.039L0.775848 176.775L76.9907 220.512L153.206 176.775L76.9907 133.039Z" stroke="url(#paint2_linear_5570_10958)" stroke-opacity="0.2" stroke-width="0.771919"/>
</g>
<g filter="url(#filter1_b_5570_10958)">
<path d="M76.9921 220.958V309.321L153.982 265.139V176.776L76.9921 220.958Z" fill="white" fill-opacity="0.2"/>
<path d="M153.596 177.443L77.3781 221.181V308.654L153.596 264.916V177.443Z" stroke="url(#paint3_linear_5570_10958)" stroke-width="0.771919"/>
<path d="M153.596 177.443L77.3781 221.181V308.654L153.596 264.916V177.443Z" stroke="url(#paint4_linear_5570_10958)" stroke-opacity="0.2" stroke-width="0.771919"/>
</g>
<g filter="url(#filter2_b_5570_10958)">
<path d="M0.00288391 176.776V265.139L76.9932 309.321V220.958L0.00288391 176.776Z" fill="white" fill-opacity="0.2"/>
<path d="M76.6072 221.181L0.38884 177.443V264.916L76.6072 308.654V221.181Z" stroke="url(#paint5_linear_5570_10958)" stroke-width="0.771919"/>
<path d="M76.6072 221.181L0.38884 177.443V264.916L76.6072 308.654V221.181Z" stroke="url(#paint6_linear_5570_10958)" stroke-opacity="0.2" stroke-width="0.771919"/>
</g>
<path d="M457.73 167.895V254.586L380.355 295.196V123.667L457.73 167.895Z" fill="url(#paint7_linear_5570_10958)"/>
<g filter="url(#filter3_b_5570_10958)">
<path d="M304.272 166.895L381.263 211.077L458.253 166.895L381.263 122.714L304.272 166.895Z" fill="white" fill-opacity="0.2"/>
<path d="M381.263 123.159L305.048 166.895L381.263 210.632L457.477 166.895L381.263 123.159Z" stroke="url(#paint8_linear_5570_10958)" stroke-width="0.771919"/>
<path d="M381.263 123.159L305.048 166.895L381.263 210.632L457.477 166.895L381.263 123.159Z" stroke="url(#paint9_linear_5570_10958)" stroke-opacity="0.2" stroke-width="0.771919"/>
</g>
<g filter="url(#filter4_b_5570_10958)">
<path d="M381.264 211.077V299.44L458.254 255.258V166.896L381.264 211.077Z" fill="white" fill-opacity="0.2"/>
<path d="M457.868 167.562L381.65 211.3V298.773L457.868 255.035V167.562Z" stroke="url(#paint10_linear_5570_10958)" stroke-width="0.771919"/>
<path d="M457.868 167.562L381.65 211.3V298.773L457.868 255.035V167.562Z" stroke="url(#paint11_linear_5570_10958)" stroke-opacity="0.2" stroke-width="0.771919"/>
</g>
<g filter="url(#filter5_b_5570_10958)">
<path d="M304.274 166.896V255.258L381.264 299.44V211.077L304.274 166.896Z" fill="white" fill-opacity="0.2"/>
<path d="M380.878 211.3L304.66 167.562V255.035L380.878 298.773V211.3Z" stroke="url(#paint12_linear_5570_10958)" stroke-width="0.771919"/>
<path d="M380.878 211.3L304.66 167.562V255.035L380.878 298.773V211.3Z" stroke="url(#paint13_linear_5570_10958)" stroke-opacity="0.2" stroke-width="0.771919"/>
</g>
<path d="M303.442 45.1813V131.872L226.068 172.482V0.953125L303.442 45.1813Z" fill="url(#paint14_linear_5570_10958)"/>
<g filter="url(#filter6_b_5570_10958)">
<path d="M149.983 44.1814L226.973 88.3628L303.963 44.1814L226.973 0L149.983 44.1814Z" fill="white" fill-opacity="0.2"/>
<path d="M226.973 0.444994L150.758 44.1814L226.973 87.9178L303.188 44.1814L226.973 0.444994Z" stroke="url(#paint15_linear_5570_10958)" stroke-width="0.771919"/>
<path d="M226.973 0.444994L150.758 44.1814L226.973 87.9178L303.188 44.1814L226.973 0.444994Z" stroke="url(#paint16_linear_5570_10958)" stroke-opacity="0.2" stroke-width="0.771919"/>
</g>
<g filter="url(#filter7_b_5570_10958)">
<path d="M226.976 88.363V176.726L303.966 132.544V44.1816L226.976 88.363Z" fill="white" fill-opacity="0.2"/>
<path d="M303.58 44.8481L227.361 88.5865V176.059L303.58 132.321V44.8481Z" stroke="url(#paint17_linear_5570_10958)" stroke-width="0.771919"/>
<path d="M303.58 44.8481L227.361 88.5865V176.059L303.58 132.321V44.8481Z" stroke="url(#paint18_linear_5570_10958)" stroke-opacity="0.2" stroke-width="0.771919"/>
</g>
<g filter="url(#filter8_b_5570_10958)">
<path d="M149.986 44.1816V132.544L226.977 176.726V88.363L149.986 44.1816Z" fill="white" fill-opacity="0.2"/>
<path d="M226.591 88.5865L150.372 44.8481V132.321L226.591 176.059V88.5865Z" stroke="url(#paint19_linear_5570_10958)" stroke-width="0.771919"/>
<path d="M226.591 88.5865L150.372 44.8481V132.321L226.591 176.059V88.5865Z" stroke="url(#paint20_linear_5570_10958)" stroke-opacity="0.2" stroke-width="0.771919"/>
</g>
</g>
<defs>
<filter id="filter0_b_5570_10958" x="-21.6133" y="110.98" width="197.208" height="131.59" filterUnits="userSpaceOnUse" color-interpolation-filters="sRGB">
<feFlood flood-opacity="0" result="BackgroundImageFix"/>
<feGaussianBlur in="BackgroundImageFix" stdDeviation="10.8069"/>
<feComposite in2="SourceAlpha" operator="in" result="effect1_backgroundBlur_5570_10958"/>
<feBlend mode="normal" in="SourceGraphic" in2="effect1_backgroundBlur_5570_10958" result="shape"/>
</filter>
<filter id="filter1_b_5570_10958" x="55.3784" y="155.163" width="120.218" height="175.771" filterUnits="userSpaceOnUse" color-interpolation-filters="sRGB">
<feFlood flood-opacity="0" result="BackgroundImageFix"/>
<feGaussianBlur in="BackgroundImageFix" stdDeviation="10.8069"/>
<feComposite in2="SourceAlpha" operator="in" result="effect1_backgroundBlur_5570_10958"/>
<feBlend mode="normal" in="SourceGraphic" in2="effect1_backgroundBlur_5570_10958" result="shape"/>
</filter>
<filter id="filter2_b_5570_10958" x="-21.6108" y="155.163" width="120.218" height="175.771" filterUnits="userSpaceOnUse" color-interpolation-filters="sRGB">
<feFlood flood-opacity="0" result="BackgroundImageFix"/>
<feGaussianBlur in="BackgroundImageFix" stdDeviation="10.8069"/>
<feComposite in2="SourceAlpha" operator="in" result="effect1_backgroundBlur_5570_10958"/>
<feBlend mode="normal" in="SourceGraphic" in2="effect1_backgroundBlur_5570_10958" result="shape"/>
</filter>
<filter id="filter3_b_5570_10958" x="282.659" y="101.1" width="197.208" height="131.59" filterUnits="userSpaceOnUse" color-interpolation-filters="sRGB">
<feFlood flood-opacity="0" result="BackgroundImageFix"/>
<feGaussianBlur in="BackgroundImageFix" stdDeviation="10.8069"/>
<feComposite in2="SourceAlpha" operator="in" result="effect1_backgroundBlur_5570_10958"/>
<feBlend mode="normal" in="SourceGraphic" in2="effect1_backgroundBlur_5570_10958" result="shape"/>
</filter>
<filter id="filter4_b_5570_10958" x="359.65" y="145.282" width="120.218" height="175.771" filterUnits="userSpaceOnUse" color-interpolation-filters="sRGB">
<feFlood flood-opacity="0" result="BackgroundImageFix"/>
<feGaussianBlur in="BackgroundImageFix" stdDeviation="10.8069"/>
<feComposite in2="SourceAlpha" operator="in" result="effect1_backgroundBlur_5570_10958"/>
<feBlend mode="normal" in="SourceGraphic" in2="effect1_backgroundBlur_5570_10958" result="shape"/>
</filter>
<filter id="filter5_b_5570_10958" x="282.66" y="145.282" width="120.218" height="175.771" filterUnits="userSpaceOnUse" color-interpolation-filters="sRGB">
<feFlood flood-opacity="0" result="BackgroundImageFix"/>
<feGaussianBlur in="BackgroundImageFix" stdDeviation="10.8069"/>
<feComposite in2="SourceAlpha" operator="in" result="effect1_backgroundBlur_5570_10958"/>
<feBlend mode="normal" in="SourceGraphic" in2="effect1_backgroundBlur_5570_10958" result="shape"/>
</filter>
<filter id="filter6_b_5570_10958" x="128.369" y="-21.6137" width="197.208" height="131.59" filterUnits="userSpaceOnUse" color-interpolation-filters="sRGB">
<feFlood flood-opacity="0" result="BackgroundImageFix"/>
<feGaussianBlur in="BackgroundImageFix" stdDeviation="10.8069"/>
<feComposite in2="SourceAlpha" operator="in" result="effect1_backgroundBlur_5570_10958"/>
<feBlend mode="normal" in="SourceGraphic" in2="effect1_backgroundBlur_5570_10958" result="shape"/>
</filter>
<filter id="filter7_b_5570_10958" x="205.362" y="22.5679" width="120.218" height="175.771" filterUnits="userSpaceOnUse" color-interpolation-filters="sRGB">
<feFlood flood-opacity="0" result="BackgroundImageFix"/>
<feGaussianBlur in="BackgroundImageFix" stdDeviation="10.8069"/>
<feComposite in2="SourceAlpha" operator="in" result="effect1_backgroundBlur_5570_10958"/>
<feBlend mode="normal" in="SourceGraphic" in2="effect1_backgroundBlur_5570_10958" result="shape"/>
</filter>
<filter id="filter8_b_5570_10958" x="128.373" y="22.5679" width="120.218" height="175.771" filterUnits="userSpaceOnUse" color-interpolation-filters="sRGB">
<feFlood flood-opacity="0" result="BackgroundImageFix"/>
<feGaussianBlur in="BackgroundImageFix" stdDeviation="10.8069"/>
<feComposite in2="SourceAlpha" operator="in" result="effect1_backgroundBlur_5570_10958"/>
<feBlend mode="normal" in="SourceGraphic" in2="effect1_backgroundBlur_5570_10958" result="shape"/>
</filter>
<linearGradient id="paint0_linear_5570_10958" x1="153.6" y1="173.13" x2="-84.8578" y2="413.276" gradientUnits="userSpaceOnUse">
<stop stop-color="white"/>
<stop offset="0.395053" stop-opacity="0"/>
</linearGradient>
<linearGradient id="paint1_linear_5570_10958" x1="381.744" y1="22.4421" x2="239.78" y2="303.254" gradientUnits="userSpaceOnUse">
<stop stop-color="white"/>
<stop offset="1" stop-color="white" stop-opacity="0"/>
</linearGradient>
<linearGradient id="paint2_linear_5570_10958" x1="263.418" y1="114.487" x2="170.826" y2="275.064" gradientUnits="userSpaceOnUse">
<stop stop-color="white"/>
<stop offset="1" stop-color="white" stop-opacity="0"/>
</linearGradient>
<linearGradient id="paint3_linear_5570_10958" x1="267.864" y1="11.5489" x2="24.8151" y2="171.803" gradientUnits="userSpaceOnUse">
<stop stop-color="white"/>
<stop offset="1" stop-color="white" stop-opacity="0"/>
</linearGradient>
<linearGradient id="paint4_linear_5570_10958" x1="208.701" y1="149.616" x2="69.637" y2="230.006" gradientUnits="userSpaceOnUse">
<stop stop-color="white"/>
<stop offset="1" stop-color="white" stop-opacity="0"/>
</linearGradient>
<linearGradient id="paint5_linear_5570_10958" x1="190.874" y1="11.5489" x2="-52.1742" y2="171.803" gradientUnits="userSpaceOnUse">
<stop stop-color="white"/>
<stop offset="1" stop-color="white" stop-opacity="0"/>
</linearGradient>
<linearGradient id="paint6_linear_5570_10958" x1="131.712" y1="149.616" x2="-7.35221" y2="230.006" gradientUnits="userSpaceOnUse">
<stop stop-color="white"/>
<stop offset="1" stop-color="white" stop-opacity="0"/>
</linearGradient>
<linearGradient id="paint7_linear_5570_10958" x1="460.043" y1="164.754" x2="221.585" y2="404.9" gradientUnits="userSpaceOnUse">
<stop stop-color="white"/>
<stop offset="0.395053" stop-opacity="0"/>
</linearGradient>
<linearGradient id="paint8_linear_5570_10958" x1="686.016" y1="12.5622" x2="544.052" y2="293.374" gradientUnits="userSpaceOnUse">
<stop stop-color="white"/>
<stop offset="1" stop-color="white" stop-opacity="0"/>
</linearGradient>
<linearGradient id="paint9_linear_5570_10958" x1="567.69" y1="104.607" x2="475.098" y2="265.184" gradientUnits="userSpaceOnUse">
<stop stop-color="white"/>
<stop offset="1" stop-color="white" stop-opacity="0"/>
</linearGradient>
<linearGradient id="paint10_linear_5570_10958" x1="572.135" y1="1.66801" x2="329.087" y2="161.922" gradientUnits="userSpaceOnUse">
<stop stop-color="white"/>
<stop offset="1" stop-color="white" stop-opacity="0"/>
</linearGradient>
<linearGradient id="paint11_linear_5570_10958" x1="512.973" y1="139.735" x2="373.909" y2="220.125" gradientUnits="userSpaceOnUse">
<stop stop-color="white"/>
<stop offset="1" stop-color="white" stop-opacity="0"/>
</linearGradient>
<linearGradient id="paint12_linear_5570_10958" x1="495.145" y1="1.66801" x2="252.097" y2="161.922" gradientUnits="userSpaceOnUse">
<stop stop-color="white"/>
<stop offset="1" stop-color="white" stop-opacity="0"/>
</linearGradient>
<linearGradient id="paint13_linear_5570_10958" x1="435.983" y1="139.735" x2="296.919" y2="220.125" gradientUnits="userSpaceOnUse">
<stop stop-color="white"/>
<stop offset="1" stop-color="white" stop-opacity="0"/>
</linearGradient>
<linearGradient id="paint14_linear_5570_10958" x1="305.755" y1="42.0401" x2="67.2973" y2="282.186" gradientUnits="userSpaceOnUse">
<stop stop-color="white"/>
<stop offset="0.395053" stop-opacity="0"/>
</linearGradient>
<linearGradient id="paint15_linear_5570_10958" x1="531.726" y1="-110.152" x2="389.762" y2="170.66" gradientUnits="userSpaceOnUse">
<stop stop-color="white"/>
<stop offset="1" stop-color="white" stop-opacity="0"/>
</linearGradient>
<linearGradient id="paint16_linear_5570_10958" x1="413.401" y1="-18.1071" x2="320.809" y2="142.47" gradientUnits="userSpaceOnUse">
<stop stop-color="white"/>
<stop offset="1" stop-color="white" stop-opacity="0"/>
</linearGradient>
<linearGradient id="paint17_linear_5570_10958" x1="417.847" y1="-121.046" x2="174.799" y2="39.2083" gradientUnits="userSpaceOnUse">
<stop stop-color="white"/>
<stop offset="1" stop-color="white" stop-opacity="0"/>
</linearGradient>
<linearGradient id="paint18_linear_5570_10958" x1="358.684" y1="17.021" x2="219.62" y2="97.4112" gradientUnits="userSpaceOnUse">
<stop stop-color="white"/>
<stop offset="1" stop-color="white" stop-opacity="0"/>
</linearGradient>
<linearGradient id="paint19_linear_5570_10958" x1="340.858" y1="-121.046" x2="97.8092" y2="39.2083" gradientUnits="userSpaceOnUse">
<stop stop-color="white"/>
<stop offset="1" stop-color="white" stop-opacity="0"/>
</linearGradient>
<linearGradient id="paint20_linear_5570_10958" x1="281.695" y1="17.021" x2="142.631" y2="97.4112" gradientUnits="userSpaceOnUse">
<stop stop-color="white"/>
<stop offset="1" stop-color="white" stop-opacity="0"/>
</linearGradient>
</defs>
</svg>
