<svg width="40" height="20" viewBox="0 0 40 20" fill="none" xmlns="http://www.w3.org/2000/svg">
<rect x="0.75" y="0.75" width="38.5" height="18.5" rx="3.25" fill="#FFE6F9" stroke="#D453B5" stroke-width="1.5"/>
<path d="M8.15672 5.992H11.0847C11.8847 5.992 12.5167 6.204 12.9807 6.628C13.4447 7.052 13.6767 7.604 13.6767 8.284C13.6767 8.724 13.5607 9.108 13.3287 9.436C13.0967 9.756 12.7927 9.984 12.4167 10.12C12.8727 10.24 13.2407 10.484 13.5207 10.852C13.8007 11.22 13.9407 11.652 13.9407 12.148C13.9407 12.836 13.6967 13.4 13.2087 13.84C12.7207 14.28 12.0847 14.5 11.3007 14.5H8.15672V5.992ZM9.58472 9.592H10.8927C11.3087 9.592 11.6367 9.484 11.8767 9.268C12.1167 9.052 12.2367 8.764 12.2367 8.404C12.2367 8.036 12.1127 7.748 11.8647 7.54C11.6247 7.324 11.2887 7.216 10.8567 7.216H9.58472V9.592ZM9.58472 13.276H11.0487C11.4807 13.276 11.8247 13.168 12.0807 12.952C12.3447 12.728 12.4767 12.428 12.4767 12.052C12.4767 11.676 12.3527 11.376 12.1047 11.152C11.8647 10.92 11.5287 10.804 11.0967 10.804H9.58472V13.276ZM16.3564 10.936H19.2244C19.2084 10.568 19.0764 10.26 18.8284 10.012C18.5884 9.764 18.2404 9.64 17.7844 9.64C17.3684 9.64 17.0324 9.772 16.7764 10.036C16.5204 10.292 16.3804 10.592 16.3564 10.936ZM19.3804 12.46L20.5564 12.832C20.3884 13.368 20.0724 13.812 19.6084 14.164C19.1524 14.508 18.5884 14.68 17.9164 14.68C17.0844 14.68 16.3764 14.396 15.7924 13.828C15.2164 13.26 14.9284 12.5 14.9284 11.548C14.9284 10.652 15.2084 9.916 15.7684 9.34C16.3364 8.764 17.0044 8.476 17.7724 8.476C18.6684 8.476 19.3684 8.752 19.8724 9.304C20.3764 9.848 20.6284 10.584 20.6284 11.512C20.6284 11.76 20.6164 11.908 20.5924 11.956H16.3204C16.3364 12.396 16.4964 12.76 16.8004 13.048C17.1124 13.336 17.4844 13.48 17.9164 13.48C18.6684 13.48 19.1564 13.14 19.3804 12.46ZM23.7226 6.868V8.656H24.9346V9.892H23.7226V12.604C23.7226 12.86 23.7826 13.048 23.9026 13.168C24.0226 13.28 24.2106 13.336 24.4666 13.336C24.6266 13.336 24.7866 13.32 24.9466 13.288V14.44C24.7386 14.528 24.4546 14.572 24.0946 14.572C23.5506 14.572 23.1226 14.42 22.8106 14.116C22.4986 13.804 22.3426 13.376 22.3426 12.832V9.892H21.2626V8.656H21.5626C21.8586 8.656 22.0826 8.572 22.2346 8.404C22.3866 8.236 22.4626 8.016 22.4626 7.744V6.868H23.7226ZM26.0166 12.916C26.0166 12.42 26.1766 12.024 26.4966 11.728C26.8246 11.424 27.2526 11.232 27.7806 11.152L29.2806 10.924C29.5686 10.884 29.7126 10.744 29.7126 10.504C29.7126 10.24 29.6206 10.028 29.4366 9.868C29.2526 9.7 28.9766 9.616 28.6086 9.616C28.2566 9.616 27.9766 9.716 27.7686 9.916C27.5606 10.108 27.4406 10.36 27.4086 10.672L26.1366 10.384C26.1926 9.856 26.4446 9.408 26.8926 9.04C27.3406 8.664 27.9086 8.476 28.5966 8.476C29.4446 8.476 30.0686 8.68 30.4686 9.088C30.8766 9.496 31.0806 10.02 31.0806 10.66V13.564C31.0806 13.948 31.1046 14.26 31.1526 14.5H29.8566C29.8166 14.38 29.7966 14.132 29.7966 13.756C29.4126 14.372 28.8126 14.68 27.9966 14.68C27.4046 14.68 26.9246 14.508 26.5566 14.164C26.1966 13.812 26.0166 13.396 26.0166 12.916ZM28.2606 13.588C28.6926 13.588 29.0406 13.472 29.3046 13.24C29.5766 13 29.7126 12.612 29.7126 12.076V11.812L28.1886 12.04C27.6686 12.128 27.4086 12.392 27.4086 12.832C27.4086 13.04 27.4846 13.22 27.6366 13.372C27.7886 13.516 27.9966 13.588 28.2606 13.588Z" fill="#D453B5"/>
</svg>
