<svg width="64" height="64" viewBox="0 0 64 64" fill="none" xmlns="http://www.w3.org/2000/svg">
<path d="M58 11.4984V39.1237C58 39.9028 57.0425 40.2931 56.4826 39.7421L49.6318 33.0014C49.2984 32.6735 48.8462 32.4891 48.3747 32.4891H29.5556C27.5918 32.4891 26 30.9228 26 28.9907V11.4984C26 9.5663 27.5918 8 29.5556 8H54.4444C56.4081 8 58 9.5663 58 11.4984Z" stroke="#5E5EDE" stroke-width="1.5" stroke-linecap="round" stroke-linejoin="round"/>
<path d="M42 26.2744V26.25" stroke="#5E5EDE" stroke-width="1.5" stroke-linecap="round" stroke-linejoin="round"/>
<path d="M42 22.5C44 21.5 46 20.2091 46 18C46 15.7909 44.2091 14 42 14C39.7909 14 38 15.7909 38 18" stroke="#5E5EDE" stroke-width="1.5" stroke-linecap="round" stroke-linejoin="round"/>
<path d="M13.1113 39.9941H30.8891" stroke="#5E5EDE" stroke-width="1.5" stroke-linecap="round" stroke-linejoin="round"/>
<path d="M13.1113 31.9961H20.2224" stroke="#5E5EDE" stroke-width="1.5" stroke-linecap="round" stroke-linejoin="round"/>
<path d="M38 32.5V44.9907C38 46.9228 36.4082 48.4891 34.4444 48.4891H15.6253C15.1538 48.4891 14.7016 48.6735 14.3682 49.0014L7.51742 55.7421C6.95746 56.2931 6 55.9028 6 55.1237V27.4984C6 25.5663 7.59188 24 9.55556 24H26" stroke="#5E5EDE" stroke-width="1.5" stroke-linecap="round" stroke-linejoin="round"/>
</svg>
