<svg width="54" height="58" viewBox="0 0 54 58" fill="none" xmlns="http://www.w3.org/2000/svg">
<path d="M5 27V22.6674C5 16.9209 7.31785 11.4097 11.4437 7.34624C15.5695 3.28281 21.1652 1 27 1C32.8348 1 38.4305 3.28281 42.5563 7.34624C46.6821 11.4097 49 16.9209 49 22.6674V27" stroke="#5E5EDD" stroke-width="1.5" stroke-linecap="round"/>
<path d="M4.11688 27H9V41H4.11688C3.29023 41 2.49744 40.6693 1.91291 40.0806C1.32838 39.4919 1 38.6935 1 37.861V30.139C1 29.3065 1.32838 28.5081 1.91291 27.9194C2.49744 27.3307 3.29023 27 4.11688 27Z" stroke="#5E5EDD" stroke-width="1.5" stroke-linecap="round"/>
<path d="M49.8671 41H44.9589V27H49.8671C50.698 27 51.4949 27.3307 52.0824 27.9194C52.6699 28.5081 53 29.3065 53 30.139V37.861C53 38.6935 52.6699 39.4919 52.0824 40.0806C51.4949 40.6693 50.698 41 49.8671 41Z" stroke="#5E5EDD" stroke-width="1.5" stroke-linecap="round"/>
<path d="M49 41V49.1111C49 50.4077 48.499 51.6512 47.6071 52.5681C46.7153 53.4849 45.5057 54 44.2444 54H32" stroke="#5E5EDD" stroke-width="1.5" stroke-linecap="round"/>
<path d="M29.5309 51H24.4691C23.1055 51 22 52.0597 22 53.3669V54.6331C22 55.9403 23.1055 57 24.4691 57H29.5309C30.8945 57 32 55.9403 32 54.6331V53.3669C32 52.0597 30.8945 51 29.5309 51Z" stroke="#5E5EDD" stroke-width="1.5" stroke-linecap="round"/>
<path d="M17.25 25C17.25 23.0799 18.8421 21.5107 20.7904 21.5107C22.7386 21.5107 24.3307 23.0799 24.3307 25C24.3307 28.8813 18.7374 29.2942 17.5014 32.9897C17.25 33.7536 17.8994 34.5175 18.7164 34.5175H24.3307" stroke="#5E5EDD" stroke-width="1.5" stroke-linecap="round" stroke-linejoin="round"/>
<path d="M35.4648 34.5175V22.7141C35.4648 22.1766 35.0918 21.7011 34.5432 21.5564C33.9946 21.4117 33.4022 21.6184 33.095 22.0732C31.5151 24.4711 29.8035 27.1998 28.3114 29.5977C28.07 29.9904 28.07 30.5072 28.3114 30.9C28.5528 31.2927 29.0136 31.5406 29.5183 31.5406H37.5714" stroke="#5E5EDD" stroke-width="1.5" stroke-linecap="round" stroke-linejoin="round"/>
</svg>
