<svg width="64" height="64" viewBox="0 0 64 64" fill="none" xmlns="http://www.w3.org/2000/svg">
<path d="M64 32C64 34.84 63.6267 37.6 62.9333 40.2267C59.3067 53.92 46.8267 64 32 64C22.0133 64 13.1067 59.44 7.24 52.28C2.72 46.76 0 39.6933 0 32C0 14.32 14.32 0 32 0C49.68 0 64 14.32 64 32Z" fill="#F7F5FF"/>
<path d="M62.9333 40.2268C59.3067 53.9201 46.8267 64.0001 32 64.0001C22.0133 64.0001 13.1067 59.4401 7.23999 52.2801C16.6 40.8268 26.6933 39.6001 26.6933 39.6001C26.6933 39.6001 26.4533 37.8668 26.6933 37.4001C26.8667 37.0668 27.4933 36.7734 27.84 36.6268C27.9733 36.5734 28.0667 36.5334 28.0667 36.5334C28.0667 36.5334 28.5733 36.4401 29.3733 36.3201C30.9733 36.0668 33.7333 35.6668 35.88 35.5068C36.5333 35.4534 37.1333 35.4268 37.6133 35.4268C38.1467 35.4401 38.5467 35.4801 38.76 35.5868C39.0267 35.7068 39.3333 36.5334 39.3333 36.5334C39.3333 36.5334 43.2933 35.9201 48.76 36.5334C51.08 36.8001 56.8 37.8668 62.9333 40.2268Z" fill="#8758E7"/>
<path d="M26.5866 22.2666C26.5866 22.2666 20.9866 20.4666 20.9599 24.68C20.9199 29.5466 26.6933 29.0533 26.6933 29.0533L26.5866 22.2666Z" fill="#FC907E"/>
<path d="M37.3601 32.84L37.9334 38.48C37.9334 38.48 35.8668 39.8534 33.1334 40.16C29.4534 40.56 28.0134 38.4934 28.0134 38.4934L27.4268 31.8667L37.3601 32.84Z" fill="#FC907E"/>
<path d="M37.36 32.8267C37.36 32.8267 36.0266 37.56 31.7866 37.3334C28.3733 37.1467 26.96 32.4534 26.96 32.4534L37.36 32.8267Z" fill="black"/>
<path d="M24.4401 17.8001C24.4401 17.8001 23.0401 28.3601 26.4401 32.6667C30.0801 37.2801 35.0534 35.3334 36.8267 33.6934C39.2267 31.4667 39.4934 28.6667 39.4934 28.6667C39.4934 28.6667 43.1067 29.0401 44.0267 26.0401C44.9867 22.8801 42.5467 20.6401 40.7601 20.6534C38.9734 20.6801 38.8001 21.0134 38.8001 21.0134L39.0134 17.7201C39.0134 17.7067 27.0934 6.72006 24.4401 17.8001Z" fill="#FC907E"/>
<path d="M39.6134 20.9467C39.6134 20.9467 38.8001 24.24 38.3734 24.1467C37.9468 24.0533 38.1734 18.96 39.3601 18.64C40.5334 18.3333 39.6134 20.9467 39.6134 20.9467Z" fill="black"/>
<path d="M39.0667 20.52C39.0667 20.52 35.4667 20.3734 32.9733 18.6134C30.8667 17.1334 29.9867 14.92 29.9867 14.92C29.9867 14.92 28.44 14.7867 26.2933 16.24C24.1467 17.6934 24.16 21.88 24.16 21.88C24.16 21.88 19.7867 14.9734 21.6133 12.3867C23.44 9.80004 26.7067 11.7334 26.7067 11.7334C26.7067 11.7334 25.9467 7.12004 32.44 8.64004C38.9333 10.1467 40.64 15.6267 40.64 15.6267C40.64 15.6267 42.8267 15.3334 43.1867 17.36C43.5467 19.3734 42.8133 21.48 42.8133 21.48C42.8133 21.48 41.8267 20.6134 40.3867 21.2267C38.9467 21.84 38.9467 21.8267 38.9467 21.8267L39.0667 20.52Z" fill="black"/>
<path d="M28.08 36.5468C28.08 36.5468 29.3333 37.7334 32.2133 37.8001C35.0933 37.8668 37.6267 35.5334 37.6267 35.5334L39.48 38.9468L34.88 41.7601L27.1733 41.1068V37.6534L28.08 36.5468Z" fill="#8758E7"/>
<path d="M31.2666 42.12C28.1466 42.12 26.4399 39.84 26.4265 39.8133C26.3199 39.6666 26.3465 39.44 26.5065 39.3333C26.6665 39.2266 26.8799 39.2533 26.9865 39.4133C27.0799 39.5333 29.1999 42.36 33.1599 41.1466C33.3466 41.0933 33.5332 41.2 33.5866 41.3733C33.6399 41.56 33.5332 41.7466 33.3599 41.8C32.5999 42.0133 31.9066 42.12 31.2666 42.12Z" fill="white"/>
</svg>
