<svg width="64" height="64" viewBox="0 0 64 64" fill="none" xmlns="http://www.w3.org/2000/svg">
<path d="M64 32C64 37.84 62.44 43.32 59.6933 48.04C59.5867 48.2133 59.48 48.4 59.3733 48.5733C59.12 49 58.8533 49.4267 58.5733 49.84C58.4533 50.0133 58.3467 50.1867 58.2133 50.36C54.04 56.3333 47.8667 60.8 40.6667 62.8267C40.52 62.8667 40.36 62.9067 40.2133 62.9467C37.5867 63.6267 34.84 64 32 64C20.9467 64 11.1867 58.3867 5.45333 49.8667C4.90667 49.08 4.41333 48.2533 3.94667 47.4133C1.44 42.84 0 37.5867 0 32C0 14.32 14.32 0 32 0C49.68 0 64 14.32 64 32Z" fill="#F7F5FF"/>
<path d="M18.2801 27.64C18.2801 27.64 14.8534 9.45328 28.1601 6.11995C41.4667 2.78662 42.2667 21.68 42.2667 21.68C42.2667 21.68 56.7467 24.44 56.8401 38.52C56.9601 56.12 39.9467 53.16 39.9467 53.16L23.8267 46.6C23.8401 46.6 7.70673 37.8133 18.2801 27.64Z" fill="#FFAF45"/>
<path d="M58.2134 50.3466C54.04 56.3199 47.8667 60.7866 40.6667 62.8133C40.52 62.8533 40.36 62.8933 40.2134 62.9333C37.5867 63.6266 34.84 63.9999 32 63.9999C20.9467 63.9999 11.1867 58.3866 5.45337 49.8666C9.7467 43.9866 15.1334 39.5466 18.8 37.9599C24.2267 35.6266 32.8267 34.0666 40.76 36.3333C40.7867 36.3466 40.8134 36.3466 40.84 36.3466C43.2267 37.0266 45.5467 38.0666 47.7067 39.5199C52.3867 42.6799 55.8 46.3466 58.2134 50.3466Z" fill="#F74D76"/>
<path d="M25.72 30.8133V31.0133L25.88 34.6666L26 37.5466C26 37.5466 25.76 38.2133 29.1066 37.9999C33.5866 37.6933 35.04 35.7599 35.04 35.7599L35.2266 29.0266L33.8666 29.2799L25.72 30.8133Z" fill="#FC8165"/>
<path d="M25.72 30.9999L25.88 34.6665C28.0533 34.3999 32.0266 33.4532 33.6266 30.0265C33.7466 29.7465 33.8266 29.4932 33.8533 29.2932L25.72 30.9465V30.9999Z" fill="black"/>
<path d="M24.2932 13.4534C24.2932 13.4534 20.1199 23 21.6265 28.36C23.1332 33.72 28.0132 32.88 30.9332 31.84C33.8532 30.8 35.2132 29.0134 35.2132 29.0134C35.2132 29.0134 37.9465 29.9334 39.7732 27.4C41.5999 24.8667 40.4799 21.9467 38.9199 21.28C37.3599 20.6134 35.5065 21.7334 35.5065 21.7334L36.9599 18.96C36.9599 18.96 30.8399 4.86669 24.2932 13.4534Z" fill="#FC8165"/>
<path d="M25.5868 12.0401C25.5868 12.0401 25.2801 17.1201 30.3868 19.4268C35.4934 21.7335 38.9068 21.2801 38.9068 21.2801L38.5734 14.6535L32.1734 7.70679L26.4534 9.53345L25.5868 12.0401Z" fill="#FFAF45"/>
<path d="M35.1599 20.28L35.1732 23.16L37.7466 20.6267L35.1599 20.28Z" fill="#FFAF45"/>
<path d="M59.3734 48.5734C59.12 49.0001 58.8534 49.4267 58.5734 49.8401C58.4534 50.0134 58.3467 50.1867 58.2134 50.3601C54.04 56.3334 47.8667 60.8001 40.6667 62.8267C40.52 62.8667 40.36 62.9067 40.2134 62.9467L40.6534 36.3201C40.6534 36.3201 40.7067 36.3334 40.7867 36.3467C40.8134 36.3601 40.84 36.3601 40.8667 36.3601C42.44 36.6267 52.7867 38.6667 58.3467 46.8134C58.7067 47.3467 59.04 47.9334 59.3734 48.5734Z" fill="#F74D76"/>
<path d="M16.4933 48.4134C16.4533 48.4534 13.1733 51.9734 13.8 58.2934C13.6 58.16 13.4133 58.0267 13.2266 57.8934C13.1733 57.8534 13.12 57.8134 13.0666 57.7734C12.6666 51.4934 15.96 47.9867 16 47.9467C16.1333 47.8134 16.3466 47.8134 16.4933 47.9334C16.6266 48.0667 16.6266 48.28 16.4933 48.4134Z" fill="white"/>
</svg>
