<svg width="37" height="36" viewBox="0 0 37 36" fill="none" xmlns="http://www.w3.org/2000/svg">
<path d="M6.49995 10.8V25.2M11.3 30C11.3 30.9493 11.0184 31.8773 10.491 32.6667C9.96358 33.456 9.21392 34.0713 8.33683 34.4346C7.45975 34.7979 6.49463 34.8929 5.56352 34.7077C4.63241 34.5225 3.77713 34.0654 3.10584 33.3941C2.43455 32.7228 1.97739 31.8675 1.79218 30.9364C1.60697 30.0053 1.70203 29.0402 2.06533 28.1631C2.42863 27.286 3.04386 26.5363 3.83322 26.0089C4.62257 25.4815 5.5506 25.2 6.49995 25.2M11.3 30C11.3 28.7269 10.7942 27.506 9.89407 26.6058C8.99389 25.7057 7.77299 25.2 6.49995 25.2M11.3 30H23.3C25.2095 30 27.0409 29.2414 28.3911 27.8911C29.7414 26.5409 30.5 24.7095 30.5 22.8V18M6.49995 10.8C5.22691 10.8 4.00602 10.2942 3.10584 9.39406C2.20567 8.49389 1.69995 7.27299 1.69995 5.99995C1.69995 4.72691 2.20567 3.50601 3.10584 2.60584C4.00602 1.70566 5.22691 1.19995 6.49995 1.19995C7.77299 1.19995 8.99389 1.70566 9.89407 2.60584C10.7942 3.50601 11.3 4.72691 11.3 5.99995C11.3 7.27299 10.7942 8.49389 9.89407 9.39406C8.99389 10.2942 7.77299 10.8 6.49995 10.8V10.8ZM30.5 18C29.2269 18 28.006 17.4942 27.1058 16.5941C26.2057 15.6939 25.7 14.473 25.7 13.2C25.7 11.9269 26.2057 10.706 27.1058 9.80584C28.006 8.90566 29.2269 8.39995 30.5 8.39995C31.773 8.39995 32.9939 8.90566 33.8941 9.80584C34.7942 10.706 35.3 11.9269 35.3 13.2C35.3 14.473 34.7942 15.6939 33.8941 16.5941C32.9939 17.4942 31.773 18 30.5 18Z" stroke="#5E5EDD" stroke-width="1.33333"/>
</svg>
