<?xml version="1.0" encoding="utf-8"?>
<!-- Generator: Adobe Illustrator 24.3.0, SVG Export Plug-In . SVG Version: 6.00 Build 0)  -->
<svg version="1.1" id="Layer_1" xmlns="http://www.w3.org/2000/svg" xmlns:xlink="http://www.w3.org/1999/xlink" x="0px" y="0px"
	 viewBox="0 0 36 36" style="enable-background:new 0 0 36 36;" xml:space="preserve">
<style type="text/css">
	.st0{fill:none;}
	.st1{fill:none;stroke:#5E5EDD;stroke-width:1.3333;stroke-linecap:round;}
</style>
<rect class="st0" width="36" height="36"/>
<circle class="st1" cx="29.72" cy="6.28" r="3.28"/>
<circle class="st1" cx="6.28" cy="6.28" r="3.28"/>
<circle class="st1" cx="6.28" cy="29.72" r="3.28"/>
<circle class="st1" cx="29.72" cy="29.72" r="3.28"/>
<g>
	<path class="st1" d="M15.7,14.17l4.14-4.14c1.36-1.36,3.56-1.36,4.91,0l1.23,1.23c1.36,1.36,1.36,3.56,0,4.91"/>
	<path class="st1" d="M20.3,21.85L16.16,26c-1.36,1.36-3.56,1.36-4.91,0l-1.23-1.23c-1.36-1.36-1.36-3.56,0-4.91"/>
	<path class="st1" d="M21.84,15.71l4.14,4.14c1.36,1.36,1.36,3.56,0,4.91L24.75,26c-1.36,1.36-3.56,1.36-4.91,0"/>
	<path class="st1" d="M14.16,20.31l-4.14-4.14c-1.36-1.36-1.36-3.56,0-4.91l1.23-1.23c1.36-1.36,3.56-1.36,4.91,0"/>
</g>
</svg>
