<svg width="37" height="36" viewBox="0 0 37 36" fill="none" xmlns="http://www.w3.org/2000/svg">
<g clip-path="url(#clip0_115_372)">
<path d="M30.75 19.2V18.7992C30.75 17.0328 29.3172 15.6 27.5508 15.6H24.75C23.7952 15.6 22.8795 15.9792 22.2044 16.6544C21.5292 17.3295 21.15 18.2452 21.15 19.2C21.15 20.1547 21.5292 21.0704 22.2044 21.7455C22.8795 22.4207 23.7952 22.8 24.75 22.8H27.15C28.1047 22.8 29.0204 23.1792 29.6955 23.8544C30.3707 24.5295 30.75 25.4452 30.75 26.4C30.75 27.3547 30.3707 28.2704 29.6955 28.9455C29.0204 29.6207 28.1047 30 27.15 30H24.75C23.7952 30 22.8795 29.6207 22.2044 28.9455C21.5292 28.2704 21.15 27.3547 21.15 26.4M16.35 14.4V26.4C16.35 27.3547 15.9707 28.2704 15.2955 28.9455C14.6204 29.6207 13.7047 30 12.75 30C11.7952 30 10.8795 29.6207 10.2044 28.9455C9.52924 28.2704 9.14995 27.3547 9.14995 26.4M1.94995 1.19995H35.55V34.8H1.94995V1.19995Z" stroke="#5E5EDD" stroke-width="1.33333"/>
</g>
<defs>
<clipPath id="clip0_115_372">
<rect width="36" height="36" fill="white" transform="translate(0.75)"/>
</clipPath>
</defs>
</svg>
