<svg width="240" height="240" viewBox="0 0 240 240" fill="none" xmlns="http://www.w3.org/2000/svg">
<path d="M206.06 96.9301L150.04 129.27V240H206.06V96.9301Z" fill="url(#paint0_linear_5582_13803)"/>
<path d="M150.04 129.27L94.03 96.93L150.04 64.59L206.06 96.93L150.04 129.27Z" fill="#F6F6FB"/>
<path d="M150.04 129.27L94.03 96.9301V240H150.04V129.27Z" fill="url(#paint1_linear_5582_13803)"/>
<path style="mix-blend-mode:multiply" d="M78.08 227.22V216.06H22L22.51 221.62H32.42L31.99 227.22H78.08Z" fill="url(#paint2_linear_5582_13803)"/>
<path d="M19.15 219.73C19.15 214.92 22.21 214.78 22.21 214.78C23.7089 214.67 25.1757 214.29 26.54 213.66C29.19 212.57 32.93 212.99 30.84 216.84C30.84 216.84 30.84 216.93 30.77 216.98C30.5954 217.23 30.3618 217.432 30.09 217.57L23.42 221.48C22.4 222.07 19.18 220.72 19.15 219.73Z" fill="url(#paint3_linear_5582_13803)"/>
<path d="M19.17 219.3C19.23 220.3 22.41 221.61 23.42 221.03L30.09 217.12C30.4228 216.921 30.7373 216.694 31.03 216.44C30.97 216.57 30.92 216.69 30.84 216.84C30.76 216.99 30.84 216.93 30.77 216.98C30.5953 217.23 30.3618 217.432 30.09 217.57L23.42 221.48C22.42 222.03 19.58 220.88 19.2 219.92C19.1918 219.857 19.1918 219.793 19.2 219.73C19.175 219.588 19.1649 219.444 19.17 219.3Z" fill="#131147"/>
<path d="M21.16 213.72C22.2581 213.877 23.3394 214.134 24.39 214.49C24.4129 214.769 24.5058 215.037 24.66 215.27C24.6899 215.304 24.7167 215.341 24.74 215.38C25.34 215.79 25.95 216.45 24.53 217.38C24.1508 217.652 23.6882 217.783 23.2225 217.751C22.7568 217.718 22.3172 217.523 21.98 217.2C21.7953 216.822 21.512 216.501 21.16 216.27C20.9227 216.106 20.6535 215.993 20.37 215.94C20.3752 215.917 20.3752 215.893 20.37 215.87C20.37 215.87 20.79 213.72 21.16 213.72Z" fill="#FACFA7"/>
<path d="M18.47 171.16C18.59 167.06 19.03 165.66 20.37 163.16C23.66 163.22 28.76 164.3 32.05 164.36C30.83 174.26 29.33 181.45 27.68 191.04C25.92 200.36 26.17 206.91 24.43 214.66C23.8 216.11 21.3 215.66 20.71 214.33C20.82 205.33 18.47 200.95 20.21 190.09C20.11 184.75 18.27 177.72 18.47 171.16Z" fill="#3B3BA3"/>
<path d="M28.85 225.33C28.85 220.52 31.85 220.33 31.85 220.33C33.3522 220.221 34.8224 219.841 36.19 219.21C38.84 218.12 42.57 218.54 40.49 222.39L40.42 222.53C40.2453 222.78 40.0118 222.982 39.74 223.12L33.07 227.03C32.1 227.66 28.88 226.32 28.85 225.33Z" fill="url(#paint4_linear_5582_13803)"/>
<path d="M28.87 224.9C28.93 225.9 32.11 227.21 33.12 226.63L39.79 222.72C40.1228 222.522 40.4373 222.294 40.73 222.04L40.54 222.44L40.47 222.58C40.2953 222.83 40.0618 223.032 39.79 223.17L33.12 227.08C32.17 227.62 29.28 226.48 28.89 225.52C28.8866 225.457 28.8866 225.393 28.89 225.33C28.8733 225.187 28.8666 225.044 28.87 224.9Z" fill="#131147"/>
<path d="M30.5799 219.32C31.7682 219.485 32.9418 219.742 34.0899 220.09C34.1128 220.369 34.2057 220.637 34.3599 220.87L34.4399 220.98C35.0399 221.39 35.6499 222.05 34.2299 222.98C33.8507 223.252 33.3882 223.384 32.9224 223.351C32.4567 223.318 32.0171 223.123 31.6799 222.8C31.4978 222.42 31.2139 222.098 30.8599 221.87C30.6226 221.706 30.3535 221.594 30.0699 221.54V221.47C30.0699 221.47 30.2199 219.32 30.5799 219.32Z" fill="#FACFA7"/>
<path d="M22.3201 166.82C25.6101 166.88 32.2301 167.44 35.5201 167.5C37.4301 181.5 37.4401 186.27 36.5201 196.63C35.7201 206.08 35.0601 211.72 34.0901 220.25C33.4601 221.7 30.7501 221.15 30.1601 219.76C30.5901 211.76 27.3501 204.76 28.5901 195.68C26.9701 189.58 25.9701 183.48 25.3701 181.84C24.2501 178.73 21.7101 173.5 22.3201 166.82Z" fill="url(#paint5_linear_5582_13803)"/>
<path d="M20.41 134.56C18.52 136.38 16.68 142 16.08 148.09C15.5112 152.844 16.6913 157.642 19.4 161.59C23 156.9 20.41 134.56 20.41 134.56Z" fill="#CED3F8"/>
<path d="M35.24 154.14C35.46 151.14 37.24 148.73 37.97 145.36C37.88 144.56 35.32 138.99 35.1 138.36C34.36 136.7 31.85 134.36 31.03 133.76C28.6 131.84 27.28 130.76 26.11 130.52C19.74 129.22 16.91 141.52 17.98 146.32C19.05 151.12 19.88 159.68 18.71 163.63C19.15 167.53 25.25 171.42 37.12 167.53C36.34 164.38 34.71 161.49 35.24 154.14Z" fill="url(#paint6_linear_5582_13803)"/>
<path d="M35 123.07C34.23 120.16 31.3 115.44 26 116.58C20.91 117.67 19.71 120.96 19.82 126.09C19.9 129.36 18.51 129.01 17.92 131.28C17.55 132.67 18.6 134.56 17.53 136.52C16.963 137.652 15.998 138.535 14.82 139C10.98 140.61 13.49 142.49 15.76 143C21.27 144.21 19 141.61 21.36 141.13C22.74 140.85 25.29 142.13 26.58 141.51C29.14 140.19 28.21 138.78 29.41 137.46C30.61 136.14 32.08 136.37 33.79 134.29C34.502 133.528 34.9617 132.566 35.1067 131.533C35.2516 130.5 35.0747 129.448 34.6 128.52C33.92 126.91 35.62 125.33 35 123.07Z" fill="#20196F"/>
<path d="M34.8 167C34.6322 167.194 34.426 167.351 34.1945 167.462C33.963 167.572 33.7111 167.634 33.4547 167.642C33.1983 167.65 32.9429 167.606 32.7046 167.511C32.4663 167.416 32.2503 167.273 32.07 167.09C31.17 166.15 31.69 165.09 31.2 164.79C29.86 163.93 29.55 163.12 29.78 162.31C30.84 162.99 31.95 164.08 32.88 163.42C33.81 162.76 35.03 161.84 35.1 160.9C36.49 161.22 36.56 164.23 35.84 165.44C35.5323 165.985 35.1847 166.506 34.8 167Z" fill="#FCD1A9"/>
<path d="M32.92 164.59C32.23 166.27 32.71 167.31 34.4 167.5C38.62 165.34 41.56 157.5 41.56 154.22C41.56 150.55 38.37 143.48 34.95 138.02C34.15 136.85 31.59 137.29 30.32 138.96C28.62 141.21 29.89 143.49 30.86 144.82C33.55 148.82 36.2 153.76 36.47 155.12C37 158 35.08 162.68 32.92 164.59Z" fill="url(#paint7_linear_5582_13803)"/>
<path style="mix-blend-mode:multiply" d="M181.65 197.06H94.4301L118.28 210.84L94.4301 224.6H132L181.65 197.06Z" fill="url(#paint8_linear_5582_13803)"/>
<path d="M94.4301 224.6L118.28 210.84V182.88L94.4301 196.64V224.6Z" fill="#B8429B"/>
<path d="M94.43 224.6L70.58 210.84V182.88L94.43 196.64V224.6Z" fill="#D453B5"/>
<path d="M94.43 196.64L70.58 182.88L94.43 169.11L118.28 182.88L94.43 196.64Z" fill="#E56EC9"/>
<path style="mix-blend-mode:multiply" d="M166.29 215.98H117.05L131.98 224.6L117.05 233.22H135.21L166.29 215.98Z" fill="url(#paint9_linear_5582_13803)"/>
<path d="M117.05 233.22L131.98 224.6V207.1L117.05 215.72V233.22Z" fill="#423EAF"/>
<path d="M117.05 233.22L102.12 224.6V207.1L117.05 215.72V233.22Z" fill="#5652CC"/>
<path d="M117.05 215.72L102.12 207.1L117.05 198.48L131.98 207.1L117.05 215.72Z" fill="#807DFB"/>
<g style="mix-blend-mode:multiply">
<path d="M102.12 207.1L107.3 210.09L122.23 201.47L117.05 198.48L102.12 207.1Z" fill="#DAE0F5"/>
</g>
<g style="mix-blend-mode:multiply">
<path d="M109.92 229.11L107.3 210.09L102.12 207.1V224.6L109.92 229.11Z" fill="#DAE0F5"/>
</g>
<path d="M240 166.09L206.06 185.69V240H240V166.09Z" fill="url(#paint10_linear_5582_13803)"/>
<path d="M206.06 185.69L172.11 166.09L206.06 146.49L240 166.09L206.06 185.69Z" fill="#F6F6FB"/>
<path d="M206.06 185.69L172.11 166.09V240H206.06V185.69Z" fill="url(#paint11_linear_5582_13803)"/>
<defs>
<linearGradient id="paint0_linear_5582_13803" x1="178.05" y1="352.62" x2="178.05" y2="96.9301" gradientUnits="userSpaceOnUse">
<stop offset="0.546875" stop-color="white" stop-opacity="0.2"/>
<stop offset="1" stop-color="#DFE4F4"/>
</linearGradient>
<linearGradient id="paint1_linear_5582_13803" x1="122.04" y1="352.62" x2="122.04" y2="96.9301" gradientUnits="userSpaceOnUse">
<stop offset="0.463542" stop-color="white" stop-opacity="0.2"/>
<stop offset="0.89" stop-color="#E9EDF7"/>
</linearGradient>
<linearGradient id="paint2_linear_5582_13803" x1="22" y1="221.64" x2="78.08" y2="221.64" gradientUnits="userSpaceOnUse">
<stop stop-color="#C4CAE9"/>
<stop offset="0.09" stop-color="#CED3ED"/>
<stop offset="0.41" stop-color="#E9EBF7"/>
<stop offset="0.69" stop-color="#F9FAFD"/>
<stop offset="0.9" stop-color="white"/>
</linearGradient>
<linearGradient id="paint3_linear_5582_13803" x1="27.99" y1="219.79" x2="22.15" y2="213.95" gradientUnits="userSpaceOnUse">
<stop stop-color="#121047"/>
<stop offset="0.21" stop-color="#151250"/>
<stop offset="1" stop-color="#1F196F"/>
</linearGradient>
<linearGradient id="paint4_linear_5582_13803" x1="37.69" y1="225.39" x2="31.85" y2="219.55" gradientUnits="userSpaceOnUse">
<stop stop-color="#121047"/>
<stop offset="0.21" stop-color="#151250"/>
<stop offset="1" stop-color="#1F196F"/>
</linearGradient>
<linearGradient id="paint5_linear_5582_13803" x1="22.2201" y1="193.96" x2="37.1201" y2="193.96" gradientUnits="userSpaceOnUse">
<stop stop-color="#5E5EDD"/>
<stop offset="0.26" stop-color="#5252C8"/>
<stop offset="0.51" stop-color="#4949B8"/>
</linearGradient>
<linearGradient id="paint6_linear_5582_13803" x1="17.41" y1="149.75" x2="49.15" y2="149.75" gradientUnits="userSpaceOnUse">
<stop stop-color="#F6F6FB"/>
<stop offset="0.15" stop-color="#E8E9F6"/>
<stop offset="0.47" stop-color="#CFD2ED"/>
<stop offset="0.76" stop-color="#C0C5E8"/>
<stop offset="1" stop-color="#BBC0E6"/>
</linearGradient>
<linearGradient id="paint7_linear_5582_13803" x1="43.53" y1="155.78" x2="26.71" y2="149.87" gradientUnits="userSpaceOnUse">
<stop stop-color="#BBC0E6"/>
<stop offset="0.87" stop-color="#E9EAF4"/>
<stop offset="1" stop-color="#F1F1F6"/>
</linearGradient>
<linearGradient id="paint8_linear_5582_13803" x1="92.1901" y1="218.2" x2="145.37" y2="199.57" gradientUnits="userSpaceOnUse">
<stop stop-color="#CFD5F1"/>
<stop offset="0.19" stop-color="#DBE0F5" stop-opacity="0.75"/>
<stop offset="0.4" stop-color="#E8EBF8" stop-opacity="0.49"/>
<stop offset="0.6" stop-color="#F2F3FB" stop-opacity="0.28"/>
<stop offset="0.77" stop-color="#F9FAFD" stop-opacity="0.13"/>
<stop offset="0.91" stop-color="#FDFEFF" stop-opacity="0.03"/>
<stop offset="1" stop-color="white" stop-opacity="0"/>
</linearGradient>
<linearGradient id="paint9_linear_5582_13803" x1="115.42" y1="228.36" x2="150.99" y2="215.88" gradientUnits="userSpaceOnUse">
<stop stop-color="#CFD5F1"/>
<stop offset="0.19" stop-color="#DBE0F5" stop-opacity="0.75"/>
<stop offset="0.4" stop-color="#E8EBF8" stop-opacity="0.49"/>
<stop offset="0.6" stop-color="#F2F3FB" stop-opacity="0.28"/>
<stop offset="0.77" stop-color="#F9FAFD" stop-opacity="0.13"/>
<stop offset="0.91" stop-color="#FDFEFF" stop-opacity="0.03"/>
<stop offset="1" stop-color="white" stop-opacity="0"/>
</linearGradient>
<linearGradient id="paint10_linear_5582_13803" x1="223.03" y1="298.18" x2="223.03" y2="166.09" gradientUnits="userSpaceOnUse">
<stop offset="0.47" stop-color="white" stop-opacity="0.2"/>
<stop offset="0.963542" stop-color="#DFE4F4"/>
</linearGradient>
<linearGradient id="paint11_linear_5582_13803" x1="189.08" y1="298.18" x2="189.08" y2="166.09" gradientUnits="userSpaceOnUse">
<stop offset="0.47" stop-color="white" stop-opacity="0.2"/>
<stop offset="0.89" stop-color="#E9EDF7"/>
</linearGradient>
</defs>
</svg>
