<svg width="480" height="320" viewBox="0 0 480 320" fill="none" xmlns="http://www.w3.org/2000/svg">
<g clip-path="url(#clip0_5838_12474)">
<path d="M392.37 233.48L402.54 239.35L392.37 245.23L382.19 239.35L392.37 233.48Z" fill="#807DFB"/>
<path d="M382.19 239.35L392.37 245.23V256.98L382.19 251.1V239.35Z" fill="#5652CC"/>
<path d="M402.54 239.35L392.37 245.23V256.98L402.54 251.1V239.35Z" fill="#423EAF"/>
<path style="mix-blend-mode:multiply" d="M392.37 256.98H418.6V245.23H402.54V251.1L392.37 256.98Z" fill="url(#paint0_linear_5838_12474)"/>
<path d="M408.76 242.94L418.93 248.82L408.76 254.69L398.59 248.82L408.76 242.94Z" fill="#807DFB"/>
<path d="M398.59 248.82L408.76 254.69V266.44L398.59 260.57V248.82Z" fill="#5652CC"/>
<path d="M418.93 248.82L408.76 254.69V266.44L418.93 260.57V248.82Z" fill="#423EAF"/>
<path style="mix-blend-mode:multiply" d="M408.76 266.44H434.99V254.69H418.93V260.57L408.76 266.44Z" fill="url(#paint1_linear_5838_12474)"/>
<path style="mix-blend-mode:multiply" d="M334.6 128.64C334.6 122.33 330.13 114.64 324.67 111.44L174.83 24.92C169.36 21.77 164.89 24.35 164.89 30.66V161.09C164.89 167.4 169.36 175.09 174.83 178.3L324.67 264.81C330.13 267.96 334.6 265.38 334.6 259.08V128.64Z" fill="url(#paint2_linear_5838_12474)"/>
<path d="M334.6 259.08V128.64C334.6 122.33 330.13 114.64 324.67 111.44L174.83 24.92C172.13 23.37 169.67 23.21 167.83 24.21L170.63 22.59C172.44 21.42 174.99 21.51 177.82 23.14L327.67 109.65C333.13 112.81 337.6 120.55 337.6 126.86V257.31C337.6 260.61 336.37 262.88 334.42 263.85L331.87 265.32C333.58 264.23 334.6 262.08 334.6 259.08Z" fill="url(#paint3_linear_5838_12474)"/>
<g style="mix-blend-mode:screen">
<path d="M222.66 81.9999L219.74 78.8299L202.06 115.25L205 118.4L222.66 81.9999ZM225 121.15L239.29 114.21L225 90.7799L222.84 92.2499L234.57 111.49L222.84 117.19L225 121.15ZM197.85 105.47L200.02 104.01L188.31 84.7599L200.05 79.0699L197.88 75.0699L183.6 81.9999L197.85 105.47Z" fill="#807DFB"/>
</g>
<g style="mix-blend-mode:screen">
<path d="M319.46 251.06L243.8 207.37C240.71 205.59 238.21 200.81 238.21 196.69V177.07C238.21 172.95 240.71 171.07 243.8 172.84L319.46 216.53C322.55 218.31 325.05 223.09 325.05 227.21V246.83C325.05 251 322.55 252.84 319.46 251.06Z" fill="#423EAF"/>
</g>
<g style="mix-blend-mode:screen">
<path d="M268.1 100.51L247.49 88.61V84.21L268.1 96.11V100.51Z" fill="#6B67E9"/>
<path d="M257.43 117.04L247.49 111.3V115.7L257.43 121.44V117.04Z" fill="#CED3F8"/>
<path d="M325.05 133.39L271.59 102.52V98.13L325.05 128.99V133.39Z" fill="#FF826A"/>
<path d="M312.1 134.82L258.64 103.95V99.5599L312.1 130.42V134.82Z" fill="#C4CAE9"/>
<path d="M303.94 139.01L254.47 110.45V106.06L303.94 134.62V139.01Z" fill="#6B67E9"/>
<path d="M273.59 140.04L247.49 124.97V120.58L273.59 135.65V140.04Z" fill="#FCBA06"/>
<path d="M325.05 169.75L277.08 142.06V137.66L325.05 165.36V169.75Z" fill="#6B67E9"/>
<path d="M258.19 141.43L247.49 135.25V130.86L258.19 137.03V141.43Z" fill="#CED3F8"/>
<path d="M325.05 180.03L261.67 143.44V139.05L325.05 175.64V180.03Z" fill="#CED3F8"/>
<path d="M268.1 157.44L247.49 145.53V141.14L268.1 153.04V157.44Z" fill="#CED3F8"/>
<path d="M325.05 190.31L271.59 159.45V155.06L325.05 185.92V190.31Z" fill="#6B67E9"/>
<path d="M312.1 193.46L258.64 162.59V158.2L312.1 189.06V193.46Z" fill="#FF826A"/>
<path d="M320.61 207.28L268.1 176.96V172.57L320.61 202.88V207.28Z" fill="#6B67E9"/>
</g>
<path style="mix-blend-mode:multiply" d="M224.74 262.01H185.42V269.24H224.74V262.01Z" fill="url(#paint4_linear_5838_12474)"/>
<path style="mix-blend-mode:multiply" d="M207.01 251.57H167.69V258.8H207.01V251.57Z" fill="url(#paint5_linear_5838_12474)"/>
<path d="M163.34 256.58C163.34 250.9 166.94 250.74 166.94 250.74C168.708 250.609 170.439 250.162 172.05 249.42C175.17 248.12 179.57 248.63 177.11 253.16C177.087 253.219 177.061 253.275 177.03 253.33C176.825 253.626 176.55 253.866 176.23 254.03L168.37 258.64C167.17 259.33 163.37 257.75 163.34 256.58Z" fill="url(#paint6_linear_5838_12474)"/>
<path d="M163.36 256.07C163.43 257.23 167.18 258.79 168.36 258.07L176.22 253.46C176.615 253.226 176.987 252.955 177.33 252.65C177.26 252.8 177.19 252.95 177.1 253.12C177.078 253.179 177.051 253.235 177.02 253.29C176.815 253.586 176.54 253.826 176.22 253.99L168.36 258.6C167.24 259.24 163.83 257.9 163.36 256.76C163.351 256.684 163.351 256.606 163.36 256.53C163.352 256.377 163.352 256.223 163.36 256.07Z" fill="#1E1C6B"/>
<path d="M164.8 250C166.213 250.185 167.613 250.463 168.99 250.83C169.014 251.13 169.114 251.419 169.28 251.67L169.37 251.78C170.01 252.23 170.67 252.94 169.14 253.9C168.732 254.198 168.232 254.342 167.728 254.305C167.225 254.268 166.75 254.054 166.39 253.7C166.19 253.295 165.886 252.95 165.51 252.7C165.252 252.529 164.963 252.41 164.66 252.35C164.662 252.323 164.662 252.297 164.66 252.27C164.66 252.27 164.41 250 164.8 250Z" fill="white"/>
<path d="M164.74 194.48L180.74 194.76C179.42 205.45 176.74 215.15 174.98 225.5C173.07 235.56 170.92 242.62 169.05 251C168.36 252.55 165.22 252 164.58 250.46C164.08 242.76 163.51 233.37 165.79 224.46C165.4 214.89 164.52 204.15 164.74 194.48Z" fill="url(#paint7_linear_5838_12474)"/>
<path d="M181.26 267C181.26 261.32 184.86 261.16 184.86 261.16C186.628 261.029 188.359 260.582 189.97 259.84C193.09 258.55 197.49 259.05 195.03 263.59L194.95 263.75C194.745 264.046 194.47 264.286 194.15 264.45L186.29 269.06C185.09 269.76 181.29 268.18 181.26 267Z" fill="url(#paint8_linear_5838_12474)"/>
<path d="M181.28 266.5C181.35 267.67 185.1 269.22 186.28 268.5L194.14 263.89C194.535 263.656 194.907 263.385 195.25 263.08C195.18 263.24 195.11 263.39 195.02 263.56L194.94 263.72C194.735 264.016 194.46 264.256 194.14 264.42L186.28 269.03C185.16 269.68 181.75 268.33 181.28 267.19C181.271 267.114 181.271 267.036 181.28 266.96C181.272 266.807 181.272 266.653 181.28 266.5Z" fill="#1E1C6B"/>
<path d="M182.72 260.42C184.133 260.605 185.533 260.883 186.91 261.25C186.934 261.55 187.034 261.839 187.2 262.09L187.29 262.2C187.93 262.65 188.59 263.36 187.06 264.32C186.653 264.62 186.152 264.765 185.648 264.728C185.144 264.692 184.669 264.476 184.31 264.12C184.114 263.712 183.809 263.366 183.43 263.12C183.174 262.943 182.885 262.821 182.58 262.76C182.582 262.733 182.582 262.707 182.58 262.68C182.58 262.68 182.33 260.42 182.72 260.42Z" fill="white"/>
<path d="M176 219.88C175 215.29 163.82 214.72 164.56 196.66C168.07 196.14 185.82 204.46 189.33 203.94C189.77 214.7 188.73 224.71 188.66 235.21C188.43 245.45 187.46 252.77 186.97 261.33C186.55 262.98 183.35 262.92 182.48 261.54C180.73 254.02 178.63 244.84 179.43 235.7C178.41 230.63 177.16 225.26 176 219.88Z" fill="url(#paint9_linear_5838_12474)"/>
<path d="M172.69 161.58C160.17 169.95 158.69 186.58 165.45 197.1C165.45 197.1 164 173.74 172.69 161.58Z" fill="url(#paint10_linear_5838_12474)"/>
<path d="M172.11 206.9C179.73 211.17 187.7 211.18 190.42 205.9C189.42 196.11 188.42 188.15 190.42 178.77C189.84 173.59 188.68 170.44 189.34 167.42C185.15 166.84 181.54 160.42 179.11 159.91C168.69 157.78 163.63 176.35 164.5 196.14C164.822 198.409 165.68 200.569 167.004 202.44C168.327 204.312 170.077 205.84 172.11 206.9Z" fill="url(#paint11_linear_5838_12474)"/>
<path d="M173.32 161.12C175.58 159.49 175.24 158.42 174.91 156.2C174.454 154.971 174.223 153.671 174.23 152.36C174.23 147.36 177.38 143.14 181.23 143.36C189.01 143.9 187.63 147.99 187.63 152.94C187.63 157.53 185.55 160.68 182.07 161.22C182.07 161.97 183.51 163.58 184.46 164.53C180.66 167.53 176.96 164.15 175.46 163.53C173.96 162.91 172.26 162.22 173.32 161.12Z" fill="#FFD3AB"/>
<path d="M186.75 168C198.75 165.75 206.59 156.89 211.46 148.26L215.53 150.06C213.05 161.15 204.44 176.47 188.68 179.32C180.71 179.32 181.34 169 186.75 168Z" fill="url(#paint12_linear_5838_12474)"/>
<path d="M211.94 146.81C211.94 144.81 212.36 143.63 213.14 143.29L213.65 141.82C214.65 139.01 217.8 136.61 218.47 137.27C218.87 137.68 217.27 138.91 216.47 140.27C216.071 140.907 215.83 141.631 215.77 142.38C215.77 142.38 219.53 142.73 219.53 145.86C219.53 148.4 218.16 147.39 218.16 146.86C217.16 149.44 216.03 147.91 215.59 150.01L211.52 148.21L211.94 146.81Z" fill="#FFD3AB"/>
<path d="M177.82 142.15C178.82 141.63 179.73 141.9 180.29 141.54C181.62 140.73 182.87 140.21 183.58 140.59C183.934 140.826 184.268 141.09 184.58 141.38C185.27 142.07 186.69 140.6 187.03 142.38C187.115 142.838 187.155 143.304 187.15 143.77C190.47 144.19 188.84 147.22 186.15 153.05C186.15 152.11 184.15 149.92 184.15 154.12C184.15 154.58 184.49 154.67 184.15 155.27C183.061 156.458 181.902 157.58 180.68 158.63C178.93 160.39 177.89 158.81 174.99 159.13C175.007 158.189 174.739 157.265 174.22 156.48C173.069 155.142 172.407 153.453 172.34 151.69C174.63 152 170.62 145.86 177.82 142.15Z" fill="#1E1C6B"/>
<path d="M392 68.13C391.861 65.7255 391.16 63.3871 389.953 61.3029C388.746 59.2187 387.067 57.4469 385.05 56.13L338.79 29.4C334.98 27.2 331.85 29 331.85 33.4V77.54C331.988 79.9435 332.688 82.281 333.894 84.365C335.099 86.449 336.776 88.2215 338.79 89.54L385 116.26C388.82 118.47 391.95 116.67 391.95 112.26L392 68.13Z" fill="#F6F6FB"/>
<path d="M392 112.26V68.1299C391.861 65.7254 391.16 63.387 389.953 61.3028C388.746 59.2186 387.067 57.4468 385.05 56.13L338.79 29.3999C336.91 28.3199 335.19 28.21 333.94 28.91L335.76 27.85C337.03 27.03 338.81 27.0899 340.76 28.2299L387 54.9399C389.033 56.2583 390.726 58.0375 391.942 60.1329C393.158 62.2283 393.863 64.581 394 67V111.12C394 113.43 393.14 115.02 391.78 115.69L390.13 116.69C391.27 115.86 392 114.36 392 112.26Z" fill="url(#paint13_linear_5838_12474)"/>
<path d="M345.85 65.7201V62.0901C346.292 62.352 346.781 62.5221 347.29 62.5901C347.455 62.5931 347.617 62.5554 347.764 62.4804C347.911 62.4054 348.036 62.2953 348.13 62.1601C348.407 61.7634 348.576 61.3016 348.62 60.8201C348.707 60.0031 348.74 59.1814 348.72 58.3601C348.672 57.0221 348.752 55.6826 348.96 54.3601C348.999 54.0852 349.095 53.8215 349.241 53.5856C349.387 53.3497 349.581 53.1469 349.81 52.9901C350.381 52.7461 351.02 52.7177 351.61 52.9101C352.492 53.1977 353.336 53.5941 354.12 54.0901L354.82 54.4901V58.1101C354.24 57.7305 353.611 57.4312 352.95 57.2201C352.837 57.1942 352.719 57.2022 352.61 57.2432C352.502 57.2841 352.408 57.356 352.34 57.4501C352.168 57.8287 352.099 58.2461 352.14 58.6601C352.14 59.2901 352.14 60.4801 352.03 62.2101C352.019 62.9662 351.902 63.717 351.68 64.4401C351.552 64.8726 351.31 65.2628 350.98 65.5701C350.6 65.851 350.151 66.0237 349.68 66.0701C350.166 66.6715 350.588 67.3217 350.94 68.0101C351.276 68.6807 351.532 69.389 351.7 70.1201C351.885 71.0693 351.985 72.0331 352 73.0001C352.06 74.7101 352.09 75.7901 352.09 76.2601C352.066 76.772 352.137 77.284 352.3 77.77C352.445 78.1427 352.662 78.4827 352.94 78.77C353.513 79.2565 354.145 79.6697 354.82 80.0001V83.63L354.12 83.2301C353.152 82.6985 352.243 82.0649 351.41 81.34C350.781 80.7584 350.245 80.0839 349.82 79.34C349.389 78.6085 349.091 77.806 348.94 76.9701C348.772 75.7677 348.698 74.5539 348.72 73.34C348.761 72.0896 348.691 70.838 348.51 69.6C348.37 68.8036 348.074 68.0425 347.64 67.3601C347.156 66.7018 346.548 66.1447 345.85 65.7201Z" fill="#CED3F8"/>
<path d="M376.08 83.18C375.641 82.9133 375.15 82.7429 374.64 82.68C374.477 82.6786 374.316 82.7171 374.172 82.792C374.027 82.867 373.903 82.9761 373.81 83.11C373.539 83.506 373.371 83.963 373.32 84.44C373.229 85.2533 373.192 86.0718 373.21 86.89C373.253 88.2275 373.176 89.5663 372.98 90.89C372.944 91.1658 372.85 91.431 372.706 91.6686C372.561 91.9062 372.368 92.111 372.14 92.27C371.566 92.5141 370.922 92.539 370.33 92.34C369.444 92.0549 368.597 91.6584 367.81 91.16L367.11 90.76V87.1C367.688 87.4986 368.326 87.8025 369 88C369.117 88.0245 369.238 88.017 369.35 87.9783C369.463 87.9395 369.563 87.871 369.64 87.78C369.81 87.4076 369.882 86.9981 369.85 86.59C369.85 85.98 369.85 84.82 369.96 83.13C369.962 82.3437 370.08 81.5619 370.31 80.81C370.423 80.3503 370.662 79.9312 371 79.6C371.351 79.3288 371.777 79.1718 372.22 79.15C371.677 78.452 371.205 77.7016 370.81 76.91C370.386 75.9559 370.103 74.9454 369.97 73.91C369.87 73.15 369.8 71.55 369.76 69.13C369.777 68.5842 369.716 68.0388 369.58 67.51C369.452 67.1644 369.251 66.8506 368.99 66.59C368.409 66.0768 367.768 65.6368 367.08 65.28V61.63L367.78 62.04C368.748 62.5686 369.656 63.1988 370.49 63.92C371.122 64.4989 371.659 65.1739 372.08 65.92C372.52 66.655 372.831 67.46 373 68.3C373.178 69.5048 373.255 70.7224 373.23 71.94C373.194 73.1867 373.261 74.4343 373.43 75.67C373.549 76.4765 373.851 77.245 374.314 77.916C374.777 78.587 375.388 79.1426 376.1 79.54L376.08 83.18Z" fill="#CED3F8"/>
<path d="M355.21 69C355.21 68.05 355.88 67.66 356.7 68.14C357.138 68.4217 357.502 68.8036 357.763 69.2539C358.023 69.7043 358.173 70.2102 358.2 70.73C358.2 71.73 357.53 72.07 356.7 71.59C356.267 71.3042 355.907 70.9212 355.648 70.4715C355.389 70.0218 355.239 69.5179 355.21 69Z" fill="#CED3F8"/>
<path d="M360.43 72C360.43 71 361.09 70.66 361.92 71.14C362.356 71.4228 362.718 71.8052 362.977 72.2555C363.236 72.7057 363.385 73.2111 363.41 73.73C363.41 74.73 362.75 75.07 361.92 74.59C361.486 74.3059 361.124 73.9233 360.865 73.4733C360.606 73.0232 360.457 72.5185 360.43 72Z" fill="#CED3F8"/>
<path d="M365.64 75C365.64 74 366.31 73.66 367.14 74.14C367.573 74.4258 367.933 74.8088 368.192 75.2585C368.451 75.7081 368.601 76.212 368.63 76.73C368.63 77.73 367.96 78.07 367.14 77.59C366.703 77.3076 366.339 76.9257 366.079 76.4754C365.818 76.0252 365.668 75.5195 365.64 75Z" fill="#CED3F8"/>
<path d="M84.3501 68.42C84.4467 66.66 84.956 64.9473 85.8367 63.4203C86.7174 61.8934 87.945 60.595 89.4201 59.63L123.24 40.1C126.03 38.49 128.31 39.81 128.31 43.04V81.45C128.212 83.2111 127.702 84.9246 126.822 86.4529C125.941 87.9812 124.714 89.2817 123.24 90.25L89.4201 109.77C86.6301 111.38 84.3501 110.06 84.3501 106.84V68.42Z" fill="#F1F1F6"/>
<path d="M124.56 38.45C123.981 38.1503 123.33 38.0178 122.68 38.0672C122.03 38.1167 121.407 38.3462 120.88 38.73L87.0598 58.26C85.5874 59.2294 84.3627 60.5304 83.4839 62.0586C82.6052 63.5868 82.0969 65.2998 81.9998 67.0599V105.48C81.9282 106.133 82.0423 106.792 82.3289 107.383C82.6154 107.974 83.0629 108.472 83.6198 108.82L85.7198 110C85.2417 109.626 84.8656 109.138 84.6261 108.58C84.3867 108.023 84.2916 107.414 84.3498 106.81V68.42C84.4464 66.6599 84.9557 64.9472 85.8364 63.4203C86.7171 61.8933 87.9446 60.5949 89.4198 59.63L123.24 40.1C123.749 39.7357 124.344 39.5108 124.967 39.4477C125.59 39.3845 126.218 39.4853 126.79 39.74L124.56 38.45Z" fill="url(#paint14_linear_5838_12474)"/>
<path d="M116.94 56.22C116.848 56.2449 116.762 56.2889 116.688 56.3492C116.613 56.4095 116.553 56.4847 116.51 56.57C114.96 59.25 113.51 61.25 111.72 62.31C109.93 63.37 108.6 62.98 107.01 62.06C106.967 62.0498 106.923 62.0498 106.88 62.06C106.826 62.0668 106.774 62.0875 106.73 62.12C106.67 62.1509 106.616 62.1915 106.57 62.24C106.524 62.2923 106.484 62.3493 106.45 62.41C105.09 64.76 103.71 66.97 101.73 68.11C101.004 68.5349 100.169 68.7386 99.329 68.6959C98.4887 68.6533 97.6792 68.3662 96.9998 67.87C96.8798 67.8 96.7098 67.87 96.5698 68.02C96.4213 68.1701 96.3324 68.3692 96.3198 68.58V81.42C96.3198 89.17 102.94 91.85 106.65 91.18L106.78 91.13L106.91 91.03C110.61 87.42 117.23 77.09 117.23 69.35V56.51C117.18 56.32 117.09 56.21 116.94 56.22ZM116.39 69.8C116.39 76.66 110.63 86.01 107.12 89.8V79.43C107.12 79.18 106.95 79.08 106.73 79.2C106.614 79.276 106.518 79.3779 106.448 79.4977C106.379 79.6175 106.338 79.7518 106.33 79.89V90.23C105.102 90.2805 103.878 90.0765 102.733 89.6311C101.588 89.1856 100.548 88.5082 99.6771 87.6414C98.8066 86.7747 98.1247 85.7372 97.6743 84.5943C97.2239 83.4514 97.0147 82.2276 97.0598 81V69.2C97.7851 69.587 98.6008 69.7725 99.4221 69.7374C100.243 69.7022 101.04 69.4476 101.73 69C103.662 67.6867 105.242 65.9181 106.33 63.85V67.05C106.33 67.31 106.51 67.41 106.73 67.28C106.846 67.2053 106.942 67.1035 107.01 66.9832C107.078 66.863 107.116 66.728 107.12 66.59V63.39C107.829 63.7841 108.632 63.9774 109.442 63.9492C110.253 63.921 111.04 63.6724 111.72 63.23C113.674 61.9081 115.277 60.1302 116.39 58.05V69.8ZM106.73 74.92C106.614 74.996 106.518 75.0979 106.448 75.2177C106.379 75.3375 106.338 75.4718 106.33 75.61V77.45C106.33 77.7 106.51 77.8 106.73 77.68C106.844 77.6035 106.939 77.5012 107.007 77.3814C107.075 77.2615 107.113 77.1275 107.12 76.99V75.15C107.12 74.9 107 74.8 106.73 74.92Z" fill="#C4CAE9"/>
<path style="mix-blend-mode:multiply" d="M153.61 233.67C151.495 232.635 149.236 231.924 146.91 231.56C143.996 230.997 141.037 230.703 138.07 230.68H86.0001C83.1401 230.68 81.1301 231.02 80.1901 231.56C79.2501 232.1 79.3901 232.84 80.8201 233.67V266.25C79.3901 267.08 79.2601 267.82 80.1901 268.36C81.1201 268.9 83.1901 269.24 86.0001 269.24H138C140.968 269.222 143.927 268.927 146.84 268.36C149.166 267.996 151.425 267.285 153.54 266.25L153.61 233.67Z" fill="url(#paint15_linear_5838_12474)"/>
<path d="M53.4702 253L79.4702 268C79.9672 268.435 80.5881 268.704 81.2456 268.768C81.9031 268.832 82.5642 268.688 83.1359 268.357C83.7076 268.026 84.1611 267.524 84.4327 266.922C84.7043 266.32 84.7804 265.648 84.6502 265V235C84.5547 233.198 84.036 231.444 83.136 229.881C82.236 228.317 80.9801 226.988 79.4702 226L53.4702 211C52.9475 210.619 52.3326 210.385 51.6892 210.322C51.0457 210.259 50.397 210.369 49.8102 210.64C49.2798 211.013 48.859 211.522 48.5917 212.113C48.3244 212.703 48.2203 213.355 48.2902 214V244C48.3825 245.802 48.8999 247.557 49.8002 249.122C50.7005 250.686 51.9581 252.015 53.4702 253Z" fill="#CED3F8"/>
<path d="M84.6701 265V235C84.5746 233.198 84.0558 231.445 83.1559 229.881C82.2559 228.317 81 226.988 79.4901 226L53.4901 211C52.9674 210.619 52.3525 210.385 51.709 210.322C51.0656 210.259 50.4169 210.369 49.8301 210.64L83.9101 190.96C84.4974 190.691 85.1457 190.582 85.7887 190.645C86.4318 190.709 87.0465 190.941 87.5701 191.32L113.57 206.32C115.08 207.308 116.336 208.637 117.236 210.201C118.136 211.765 118.655 213.518 118.75 215.32V245.37C118.818 246.013 118.713 246.663 118.446 247.252C118.179 247.841 117.759 248.348 117.23 248.72L83.1501 268.36C83.6805 267.987 84.1012 267.478 84.3685 266.887C84.6359 266.296 84.74 265.645 84.6701 265Z" fill="url(#paint16_linear_5838_12474)"/>
<g style="mix-blend-mode:multiply">
<path d="M88.5398 226.76C87.6656 225.179 86.4024 223.847 84.8698 222.89L58.8698 207.89C58.3462 207.511 57.7315 207.279 57.0885 207.215C56.4454 207.152 55.7972 207.261 55.2098 207.53L53.5698 208.47C54.1572 208.201 54.8054 208.092 55.4485 208.155C56.0915 208.219 56.7062 208.451 57.2298 208.83L83.2298 223.83C84.7414 224.816 85.9986 226.145 86.8988 227.709C87.799 229.273 88.3167 231.028 88.4098 232.83V262.88C88.4779 263.523 88.3728 264.173 88.1056 264.762C87.8384 265.351 87.4186 265.858 86.8898 266.23L88.5298 265.29C89.0569 264.914 89.4744 264.405 89.7398 263.814C90.0051 263.224 90.1087 262.574 90.0398 261.93V231.93C89.9917 230.106 89.4751 228.326 88.5398 226.76Z" fill="#DAE0F5"/>
<path d="M92.91 224.23C92.039 222.652 90.7791 221.324 89.25 220.37L63.25 205.37C62.7282 204.988 62.1138 204.752 61.4703 204.687C60.8268 204.622 60.1777 204.73 59.59 205L57.96 206C58.5461 205.725 59.1953 205.614 59.8394 205.677C60.4835 205.741 61.0986 205.976 61.62 206.36L87.62 221.36C89.1302 222.346 90.3859 223.676 91.2844 225.24C92.1829 226.804 92.6988 228.558 92.79 230.36V260.36C92.857 261.002 92.7525 261.65 92.4873 262.239C92.222 262.827 91.8054 263.335 91.28 263.71L92.91 262.77C93.4388 262.398 93.8585 261.891 94.1258 261.302C94.393 260.713 94.498 260.063 94.43 259.42V229.42C94.3833 227.587 93.8594 225.798 92.91 224.23Z" fill="#DAE0F5"/>
<path d="M97.2898 221.71C96.4156 220.129 95.1524 218.797 93.6198 217.84L67.6198 202.84C67.0956 202.459 66.479 202.224 65.8338 202.161C65.1886 202.098 64.5382 202.208 63.9498 202.48L62.3198 203.42C62.9072 203.151 63.5554 203.042 64.1985 203.105C64.8415 203.169 65.4562 203.401 65.9798 203.78L91.9798 218.78C93.4897 219.768 94.7456 221.097 95.6456 222.661C96.5456 224.224 97.0644 225.978 97.1598 227.78V257.8C97.2279 258.443 97.1228 259.093 96.8556 259.682C96.5884 260.271 96.1686 260.778 95.6398 261.15L97.2798 260.2C97.8053 259.825 98.2219 259.317 98.4871 258.729C98.7524 258.14 98.8568 257.492 98.7898 256.85V226.85C98.7366 225.037 98.2202 223.267 97.2898 221.71Z" fill="#DAE0F5"/>
<path d="M101.66 219.18C100.789 217.602 99.5291 216.274 98 215.32L72 200.32C71.4764 199.941 70.8616 199.709 70.2186 199.645C69.5756 199.582 68.9273 199.691 68.34 199.96L66.71 200.9C67.2977 200.63 67.9468 200.522 68.5903 200.587C69.2338 200.652 69.8482 200.888 70.37 201.27L96.37 216.27C97.8991 217.224 99.159 218.552 100.03 220.13C100.956 221.679 101.476 223.437 101.54 225.24V255.24C101.607 255.882 101.503 256.53 101.237 257.119C100.972 257.707 100.555 258.215 100.03 258.59L101.66 257.65C102.189 257.278 102.609 256.771 102.876 256.182C103.143 255.593 103.248 254.943 103.18 254.3V224.28C103.118 222.478 102.595 220.722 101.66 219.18Z" fill="#DAE0F5"/>
<path d="M106 216.65C105.122 215.074 103.86 213.746 102.33 212.79L76.3298 197.79C75.8064 197.407 75.1897 197.171 74.5441 197.108C73.8984 197.044 73.2477 197.156 72.6598 197.43L71.0298 198.37C71.6171 198.101 72.2654 197.992 72.9084 198.055C73.5515 198.119 74.1662 198.351 74.6898 198.73L100.69 213.73C102.2 214.718 103.456 216.047 104.356 217.611C105.256 219.174 105.774 220.928 105.87 222.73V252.73C105.939 253.375 105.834 254.026 105.567 254.617C105.3 255.207 104.879 255.716 104.35 256.09L105.99 255.09C106.515 254.715 106.932 254.207 107.197 253.619C107.462 253.03 107.567 252.382 107.5 251.74V221.74C107.435 219.944 106.919 218.194 106 216.65Z" fill="#DAE0F5"/>
<path d="M110.41 214.13C109.536 212.552 108.277 211.22 106.75 210.26L80.75 195.26C80.2264 194.881 79.6116 194.649 78.9686 194.585C78.3256 194.522 77.6773 194.631 77.09 194.9L75.46 195.84C76.0477 195.57 76.6968 195.462 77.3403 195.527C77.9838 195.592 78.5982 195.828 79.12 196.21L105.12 211.21C106.632 212.194 107.89 213.523 108.789 215.087C109.687 216.652 110.202 218.408 110.29 220.21V250.21C110.357 250.852 110.253 251.5 109.987 252.089C109.722 252.677 109.305 253.185 108.78 253.56L110.41 252.62C110.939 252.248 111.359 251.741 111.626 251.152C111.893 250.563 111.998 249.913 111.93 249.27V219.23C111.868 217.428 111.345 215.672 110.41 214.13Z" fill="#DAE0F5"/>
<path d="M114.78 211.6C113.912 210.02 112.651 208.691 111.12 207.74L85.1198 192.74C84.5961 192.358 83.98 192.122 83.335 192.057C82.69 191.992 82.0393 192.1 81.4498 192.37L79.8198 193.37C80.4067 193.099 81.0553 192.989 81.6988 193.052C82.3422 193.115 82.9571 193.349 83.4798 193.73L109.48 208.73C110.99 209.718 112.246 211.047 113.146 212.611C114.046 214.174 114.564 215.928 114.66 217.73V247.73C114.728 248.373 114.623 249.023 114.356 249.612C114.088 250.201 113.669 250.708 113.14 251.08L114.77 250.14C115.299 249.768 115.718 249.261 115.986 248.672C116.253 248.083 116.358 247.433 116.29 246.79V216.79C116.243 214.959 115.723 213.171 114.78 211.6Z" fill="#DAE0F5"/>
</g>
<path d="M62.5801 139.98L73.3301 146.18L62.5801 152.39L51.8301 146.18L62.5801 139.98Z" fill="#8585FF"/>
<path d="M51.8301 146.18L62.5801 152.39V164.81L51.8301 158.6V146.18Z" fill="#5E5EDD"/>
<path d="M73.3301 146.18L62.5801 152.39V164.81L73.3301 158.6V146.18Z" fill="#4949B8"/>
<path style="mix-blend-mode:multiply" d="M62.5801 164.81H90.3001V152.39H73.3301V158.6L62.5801 164.81Z" fill="url(#paint17_linear_5838_12474)"/>
<path d="M388.97 163.55L399.72 169.75L388.97 175.96L378.22 169.75L388.97 163.55Z" fill="#E56EC9"/>
<path d="M378.22 169.75L388.97 175.96V188.37L378.22 182.17V169.75Z" fill="#D453B5"/>
<path d="M399.72 169.75L388.97 175.96V188.37L399.72 182.17V169.75Z" fill="#B8429B"/>
<path style="mix-blend-mode:multiply" d="M388.97 188.37H416.69V175.96H399.72V182.17L388.97 188.37Z" fill="url(#paint18_linear_5838_12474)"/>
</g>
<defs>
<linearGradient id="paint0_linear_5838_12474" x1="392.37" y1="251.1" x2="418.6" y2="251.1" gradientUnits="userSpaceOnUse">
<stop stop-color="#DAE0F5"/>
<stop offset="0.31" stop-color="#DFE4F6"/>
<stop offset="0.7" stop-color="#EEF1FB"/>
<stop offset="1" stop-color="white"/>
</linearGradient>
<linearGradient id="paint1_linear_5838_12474" x1="408.76" y1="260.57" x2="434.99" y2="260.57" gradientUnits="userSpaceOnUse">
<stop stop-color="#DAE0F5"/>
<stop offset="0.31" stop-color="#DFE4F6"/>
<stop offset="0.7" stop-color="#EEF1FB"/>
<stop offset="1" stop-color="white"/>
</linearGradient>
<linearGradient id="paint2_linear_5838_12474" x1="164.4" y1="171.11" x2="336.91" y2="118.07" gradientUnits="userSpaceOnUse">
<stop stop-color="#5652CC"/>
<stop offset="1" stop-color="#807DFB"/>
</linearGradient>
<linearGradient id="paint3_linear_5838_12474" x1="355.77" y1="251.57" x2="210.35" y2="-0.309961" gradientUnits="userSpaceOnUse">
<stop offset="0.4" stop-color="#20196F"/>
<stop offset="0.48" stop-color="#362E94"/>
</linearGradient>
<linearGradient id="paint4_linear_5838_12474" x1="185.41" y1="265.62" x2="224.74" y2="265.62" gradientUnits="userSpaceOnUse">
<stop stop-color="#C6CBE7"/>
<stop offset="0.08" stop-color="#CED2EA"/>
<stop offset="0.4" stop-color="#E9EBF6"/>
<stop offset="0.68" stop-color="#F9FAFD"/>
<stop offset="0.9" stop-color="white"/>
</linearGradient>
<linearGradient id="paint5_linear_5838_12474" x1="167.68" y1="255.19" x2="207.01" y2="255.19" gradientUnits="userSpaceOnUse">
<stop stop-color="#C6CBE7"/>
<stop offset="0.08" stop-color="#CED2EA"/>
<stop offset="0.4" stop-color="#E9EBF6"/>
<stop offset="0.68" stop-color="#F9FAFD"/>
<stop offset="0.9" stop-color="white"/>
</linearGradient>
<linearGradient id="paint6_linear_5838_12474" x1="177.83" y1="253.8" x2="163.33" y2="253.8" gradientUnits="userSpaceOnUse">
<stop stop-color="#6A6AE2"/>
<stop offset="0.28" stop-color="#5857C7"/>
<stop offset="0.76" stop-color="#3E3C9E"/>
<stop offset="1" stop-color="#34318F"/>
</linearGradient>
<linearGradient id="paint7_linear_5838_12474" x1="164.12" y1="223.19" x2="180.73" y2="223.19" gradientUnits="userSpaceOnUse">
<stop stop-color="#20196F"/>
<stop offset="0.61" stop-color="#342F95"/>
<stop offset="1" stop-color="#423EAF"/>
</linearGradient>
<linearGradient id="paint8_linear_5838_12474" x1="195.75" y1="264.24" x2="181.25" y2="264.24" gradientUnits="userSpaceOnUse">
<stop stop-color="#6A6AE2"/>
<stop offset="0.28" stop-color="#5857C7"/>
<stop offset="0.76" stop-color="#3E3C9E"/>
<stop offset="1" stop-color="#34318F"/>
</linearGradient>
<linearGradient id="paint9_linear_5838_12474" x1="189.46" y1="229.6" x2="164.54" y2="229.6" gradientUnits="userSpaceOnUse">
<stop offset="0.2" stop-color="#5E5EDD"/>
<stop offset="0.39" stop-color="#5252C8"/>
<stop offset="0.58" stop-color="#4949B8"/>
</linearGradient>
<linearGradient id="paint10_linear_5838_12474" x1="161.46" y1="179.34" x2="172.69" y2="179.34" gradientUnits="userSpaceOnUse">
<stop stop-color="#EB83D2"/>
<stop offset="0.16" stop-color="#DF69C2"/>
<stop offset="0.3" stop-color="#D759B8"/>
<stop offset="0.41" stop-color="#D453B5"/>
</linearGradient>
<linearGradient id="paint11_linear_5838_12474" x1="190.42" y1="184.88" x2="164.39" y2="184.88" gradientUnits="userSpaceOnUse">
<stop stop-color="#D453B5"/>
<stop offset="0.27" stop-color="#D759B8"/>
<stop offset="0.62" stop-color="#DF69C2"/>
<stop offset="1" stop-color="#EB83D2"/>
</linearGradient>
<linearGradient id="paint12_linear_5838_12474" x1="183.01" y1="174.11" x2="221.11" y2="152.96" gradientUnits="userSpaceOnUse">
<stop stop-color="#EB83D2"/>
<stop offset="0.38" stop-color="#DF69C2"/>
<stop offset="0.73" stop-color="#D759B8"/>
<stop offset="1" stop-color="#D453B5"/>
</linearGradient>
<linearGradient id="paint13_linear_5838_12474" x1="348.93" y1="20.2499" x2="400.96" y2="110.36" gradientUnits="userSpaceOnUse">
<stop offset="0.46" stop-color="#E56EC9"/>
<stop offset="0.51" stop-color="#D35EB7"/>
<stop offset="0.63" stop-color="#A33489"/>
</linearGradient>
<linearGradient id="paint14_linear_5838_12474" x1="74.6698" y1="103.66" x2="115.38" y2="33.15" gradientUnits="userSpaceOnUse">
<stop stop-color="#D453B5"/>
<stop offset="0.27" stop-color="#D759B8"/>
<stop offset="0.62" stop-color="#DF69C2"/>
<stop offset="1" stop-color="#EB83D2"/>
</linearGradient>
<linearGradient id="paint15_linear_5838_12474" x1="79.6401" y1="249.96" x2="153.61" y2="249.96" gradientUnits="userSpaceOnUse">
<stop stop-color="#C4CAE9"/>
<stop offset="1" stop-color="white"/>
</linearGradient>
<linearGradient id="paint16_linear_5838_12474" x1="108.53" y1="253.71" x2="75.1901" y2="195.97" gradientUnits="userSpaceOnUse">
<stop offset="0.41" stop-color="#BBC0E6"/>
<stop offset="0.62" stop-color="#F6F6FB"/>
</linearGradient>
<linearGradient id="paint17_linear_5838_12474" x1="62.5801" y1="158.6" x2="90.3001" y2="158.6" gradientUnits="userSpaceOnUse">
<stop stop-color="#DAE0F5"/>
<stop offset="0.31" stop-color="#DFE4F6"/>
<stop offset="0.7" stop-color="#EEF1FB"/>
<stop offset="1" stop-color="white"/>
</linearGradient>
<linearGradient id="paint18_linear_5838_12474" x1="388.97" y1="182.17" x2="416.69" y2="182.17" gradientUnits="userSpaceOnUse">
<stop stop-color="#DAE0F5"/>
<stop offset="0.31" stop-color="#DFE4F6"/>
<stop offset="0.7" stop-color="#EEF1FB"/>
<stop offset="1" stop-color="white"/>
</linearGradient>
<clipPath id="clip0_5838_12474">
<rect width="480" height="320" fill="white"/>
</clipPath>
</defs>
</svg>
