<svg width="58" height="58" viewBox="0 0 58 58" fill="none" xmlns="http://www.w3.org/2000/svg">
<path d="M18.7175 18.7168L9.20068 9.2016C14.2687 4.1344 21.2695 1 29.0007 1V14.4576C24.9847 14.4576 21.3487 16.0856 18.7175 18.7168Z" stroke="#D453B5" stroke-width="1.5" stroke-miterlimit="10" stroke-linecap="round" stroke-linejoin="round"/>
<path d="M29 14.4576V1C36.732 1 43.732 4.1344 48.7984 9.2016L39.2824 18.7168C36.6512 16.0856 33.016 14.4576 29 14.4576Z" stroke="#D453B5" stroke-width="1.5" stroke-miterlimit="10" stroke-linecap="round" stroke-linejoin="round"/>
<path d="M43.5414 29.0004C43.5414 24.9844 41.9134 21.3492 39.2822 18.7172L48.7982 9.20117C53.8654 14.2684 56.9998 21.2684 56.9998 28.9996H43.5414V29.0004Z" stroke="#D453B5" stroke-width="1.5" stroke-miterlimit="10" stroke-linecap="round" stroke-linejoin="round"/>
<path d="M14.4576 28.9996H1C1 21.2684 4.1344 14.2684 9.2 9.20117L18.7168 18.7172C16.0856 21.3476 14.4576 24.9836 14.4576 28.9996Z" stroke="#D453B5" stroke-width="1.5" stroke-miterlimit="10" stroke-linecap="round" stroke-linejoin="round"/>
<path d="M29.0007 43.5413V56.9988C21.2695 56.9988 14.2687 53.8644 9.20068 48.798L18.7175 39.2812C21.3487 41.914 24.9847 43.5413 29.0007 43.5413Z" stroke="#D453B5" stroke-width="1.5" stroke-miterlimit="10" stroke-linecap="round" stroke-linejoin="round"/>
<path d="M43.5414 29H56.999C56.999 36.7328 53.8646 43.732 48.7974 48.7992L39.2822 39.2824C41.9134 36.6512 43.5414 33.0152 43.5414 29Z" stroke="#D453B5" stroke-width="1.5" stroke-miterlimit="10" stroke-linecap="round" stroke-linejoin="round"/>
<path d="M1 29H14.4576C14.4576 33.016 16.0856 36.6512 18.7168 39.2832L9.2 48.7992C4.1344 43.732 1 36.7328 1 29Z" stroke="#D453B5" stroke-width="1.5" stroke-miterlimit="10" stroke-linecap="round" stroke-linejoin="round"/>
<path d="M39.2824 39.2822L48.7984 48.799C43.732 53.8654 36.732 56.9998 29 56.9998V43.5414C33.016 43.5414 36.6512 41.9142 39.2824 39.2822Z" stroke="#D453B5" stroke-width="1.5" stroke-miterlimit="10" stroke-linecap="round" stroke-linejoin="round"/>
<path d="M18.7167 18.7162C21.3479 16.085 24.9839 14.457 28.9999 14.457C33.0159 14.457 36.6511 16.085 39.2831 18.7162C41.9151 21.3474 43.5423 24.9834 43.5423 28.9994C43.5423 33.0154 41.9143 36.6506 39.2831 39.2826C36.6519 41.9146 33.0167 43.5418 28.9999 43.5418C24.9839 43.5418 21.3487 41.9146 18.7167 39.2826C16.0855 36.6514 14.4575 33.0154 14.4575 28.9994C14.4575 24.9834 16.0855 21.3474 18.7167 18.7162Z" stroke="#D453B5" stroke-width="1.5" stroke-miterlimit="10" stroke-linecap="round" stroke-linejoin="round"/>
<path d="M28.9998 38.3333V35.9209C28.9998 34.3012 30.023 32.8456 31.584 32.2443C33.5463 31.4878 34.8332 29.6568 34.8332 27.6201C34.8332 24.5167 32.221 22 28.9998 22C25.7787 22 23.1665 24.5167 23.1665 27.6201" stroke="#D453B5" stroke-width="1.5" stroke-miterlimit="10" stroke-linejoin="round"/>
</svg>
