<svg width="480" height="320" viewBox="0 0 480 320" fill="none" xmlns="http://www.w3.org/2000/svg">
<g clip-path="url(#clip0_5838_13179)">
<path d="M300.02 34.8799L310.19 40.7499L300.02 46.6199L289.84 40.7499L300.02 34.8799Z" fill="#807DFB"/>
<path d="M289.84 40.75L300.02 46.62V58.37L289.84 52.5V40.75Z" fill="#5652CC"/>
<path d="M310.19 40.75L300.02 46.62V58.37L310.19 52.5V40.75Z" fill="#423EAF"/>
<path style="mix-blend-mode:multiply" d="M300.02 58.3701H326.25V46.6201H310.19V52.5001L300.02 58.3701Z" fill="url(#paint0_linear_5838_13179)"/>
<path d="M316.41 44.3398L326.58 50.2098L316.41 56.0898L306.23 50.2098L316.41 44.3398Z" fill="#807DFB"/>
<path d="M306.23 50.21L316.41 56.09V67.83L306.23 61.96V50.21Z" fill="#5652CC"/>
<path d="M326.58 50.21L316.41 56.09V67.83L326.58 61.96V50.21Z" fill="#423EAF"/>
<path style="mix-blend-mode:multiply" d="M316.41 67.8298H342.64V56.0898H326.58V61.9598L316.41 67.8298Z" fill="url(#paint1_linear_5838_13179)"/>
<path d="M148.73 243.91L159.48 250.12L148.73 256.32L137.98 250.12L148.73 243.91Z" fill="#E56EC9"/>
<path d="M137.98 250.12L148.73 256.32V268.74L137.98 262.53V250.12Z" fill="#D453B5"/>
<path d="M159.48 250.12L148.73 256.32V268.74L159.48 262.53V250.12Z" fill="#B8429B"/>
<path style="mix-blend-mode:multiply" d="M148.73 268.74H176.45V256.32H159.48V262.53L148.73 268.74Z" fill="url(#paint2_linear_5838_13179)"/>
<path style="mix-blend-mode:multiply" d="M319.31 261.17H422.11V235.34L341.92 189L243.35 250.11C240 252.04 240 255.2 243.35 257.11C243.35 257.11 279.02 277.7 279.19 277.78L273.74 279.78H282.48C285.423 279.801 288.319 279.038 290.87 277.57L319.31 261.17Z" fill="url(#paint3_linear_5838_13179)"/>
<path d="M234.5 205.81C236.385 204.858 238.468 204.362 240.58 204.362C242.692 204.362 244.775 204.858 246.66 205.81L315.18 245.37C318.53 247.3 318.53 250.46 315.18 252.37L279.82 272.79C277.935 273.742 275.852 274.238 273.74 274.238C271.628 274.238 269.545 273.742 267.66 272.79L199.14 233.22C195.79 231.29 195.79 228.14 199.14 226.22L234.5 205.81Z" fill="#F4F4F9"/>
<path d="M199.14 233.24L267.66 272.81C269.545 273.762 271.628 274.258 273.74 274.258C275.852 274.258 277.935 273.762 279.82 272.81L315.18 252.39C315.845 252.085 316.423 251.617 316.86 251.03C317.297 250.443 317.579 249.755 317.68 249.03V254.42C317.68 255.69 316.85 256.97 315.17 257.93L279.81 278.35C277.925 279.302 275.842 279.798 273.73 279.798C271.618 279.798 269.535 279.302 267.65 278.35L199.13 238.79C197.39 237.79 196.56 236.45 196.63 235.13V229.89C196.729 230.616 197.012 231.304 197.451 231.89C197.89 232.476 198.472 232.941 199.14 233.24Z" fill="url(#paint4_linear_5838_13179)"/>
<path style="mix-blend-mode:multiply" d="M271.87 226.35H239.64C239.779 227.029 240.075 227.667 240.504 228.212C240.933 228.757 241.483 229.195 242.11 229.49L279.87 251.29L279.6 251.87L273.1 255.63H309.58L316.07 251.87L271.87 226.35Z" fill="url(#paint5_linear_5838_13179)"/>
<path d="M233.78 219.39C235.695 213.382 236.627 207.105 236.54 200.8L241.4 198C241.4 199.25 241.4 201.14 241.24 203.52L280.74 226.33C280.74 230.5 280.74 243.01 273.1 255.64L228.89 230.12L233.78 219.39Z" fill="#CCD1F6"/>
<path d="M236.54 200.8L280.74 226.32L285.61 223.51L241.41 197.99L236.54 200.8Z" fill="#C4B2B9"/>
<path d="M273.1 255.63C280.74 243 280.74 230.49 280.74 226.32L285.61 223.51C285.763 233.293 283.712 242.986 279.61 251.87L273.1 255.63Z" fill="#B9BEE4"/>
<g style="mix-blend-mode:multiply">
<path d="M278.31 243.91L283.53 240.91C284.327 237.819 284.895 234.674 285.23 231.5L280.31 234.34C279.918 237.581 279.249 240.783 278.31 243.91Z" fill="#D6DCF1"/>
</g>
<path d="M163.35 27.71C163.35 23.85 166.08 22.27 169.43 24.2L333.31 118.82C335.076 119.977 336.547 121.533 337.603 123.362C338.659 125.191 339.271 127.242 339.39 129.35V239.2L163.39 137.56L163.35 27.71Z" fill="#423EAF"/>
<path d="M176 20.3999L339.9 115C341.673 116.156 343.15 117.714 344.209 119.547C345.269 121.38 345.882 123.436 346 125.55V235.4L339.4 239.2V129.35C339.281 127.242 338.669 125.19 337.613 123.362C336.557 121.533 335.086 119.977 333.32 118.82L169.43 24.1999C168.901 23.8449 168.306 23.6015 167.68 23.4846C167.054 23.3677 166.411 23.3797 165.79 23.5199L171.06 20.5199C172.17 19.3499 174 19.2199 176 20.3999Z" fill="url(#paint6_linear_5838_13179)"/>
<path d="M339.39 239.2V261.41C339.39 265.27 336.65 266.85 333.31 264.92L169.43 170.3C167.662 169.144 166.191 167.589 165.134 165.76C164.078 163.931 163.467 161.879 163.35 159.77V137.56L339.39 239.2Z" fill="#D5DBFB"/>
<path d="M339.39 261.41V239.2L345.99 235.4V257.6C345.99 259.54 345.29 260.91 344.18 261.54L337.86 265.16C338.395 264.701 338.812 264.122 339.079 263.47C339.345 262.818 339.451 262.112 339.39 261.41Z" fill="#B9BEE4"/>
<path d="M169.43 141.07L333.31 235.69V125.84L169.43 31.2202V141.07Z" fill="white"/>
<path d="M193.77 55.2499L174.57 44.1699V39.6299L193.77 50.6999V55.2499Z" fill="#DFE4F4"/>
<path d="M277.61 102.11L267.61 96.3301V94.8901L277.61 100.66V102.11Z" fill="#DFE4F4"/>
<path d="M292.59 110.76L282.59 104.99V103.54L292.59 109.31V110.76Z" fill="#DFE4F4"/>
<path d="M307.57 119.41L297.57 113.64V112.19L307.57 117.96V119.41Z" fill="#DFE4F4"/>
<path d="M322.56 128.06L312.56 122.29V120.84L322.56 126.61V128.06Z" fill="#DFE4F4"/>
<path d="M229.6 128.78L273.14 153.92V196.08L229.6 170.94V128.78Z" fill="#807DFB"/>
<path d="M180.18 100.25L223.72 125.39V167.55L180.18 142.41V100.25Z" fill="#DAE0F5"/>
<path d="M322.56 182.45L279.02 157.32V199.48L322.56 224.61V182.45Z" fill="#DAE0F5"/>
<path d="M333.31 183.79L169.43 89.1701V46.6201L333.31 141.24V183.79Z" fill="#F1F1F6"/>
<path d="M333.31 150.49C315.74 136 310.91 153.79 300.79 146.78C273.14 127.61 266.74 145.35 243.29 131.78L333.29 183.78L333.31 150.49Z" fill="#DFE4F4"/>
<path d="M262.12 142.68C287.02 155.15 293.97 149.3 305.26 159.86C318.16 171.93 321.72 155.86 333.31 163.73V183.79L262.12 142.68Z" fill="#D1D7F3"/>
<path d="M258.41 107.36L229.6 90.7298V89.2798L258.41 105.92V107.36Z" fill="white"/>
<path d="M247.74 105.42L229.6 94.95V93.5L247.74 103.97V105.42Z" fill="white"/>
<path d="M251.37 111.73L229.6 99.16V97.71L251.37 110.28V111.73Z" fill="white"/>
<path d="M241.66 110.33L229.6 103.38V101.93L241.66 108.89V110.33Z" fill="white"/>
<path d="M254.41 121.91L229.6 107.59V106.14L254.41 120.46V121.91Z" fill="white"/>
<path d="M311.7 209.45L309.7 208.29V207.6C309.694 207.478 309.66 207.359 309.599 207.253C309.538 207.147 309.453 207.057 309.35 206.99C309.15 206.87 308.99 206.99 308.99 207.19V207.88L306.86 206.65V206C306.853 205.876 306.817 205.755 306.754 205.647C306.692 205.539 306.605 205.448 306.5 205.38C306.31 205.27 306.15 205.38 306.15 205.59V206.27L304 205V204.32C303.994 204.197 303.96 204.076 303.899 203.968C303.838 203.861 303.753 203.769 303.65 203.7C303.45 203.59 303.29 203.7 303.29 203.91V204.59L301.15 203.36V202.67C301.144 202.548 301.11 202.429 301.049 202.323C300.988 202.217 300.903 202.127 300.8 202.06C300.6 201.94 300.44 202.06 300.44 202.26V203L298.31 201.76V201C298.303 200.876 298.267 200.755 298.204 200.647C298.142 200.539 298.055 200.448 297.95 200.38C297.76 200.27 297.6 200.38 297.6 200.59V201.27L295.46 200.04V199.36C295.454 199.237 295.42 199.116 295.359 199.008C295.298 198.901 295.213 198.809 295.11 198.74C294.91 198.63 294.75 198.74 294.75 198.95V199.63L292.61 198.4V197.71C292.604 197.588 292.57 197.469 292.509 197.363C292.448 197.257 292.363 197.167 292.26 197.1C292.06 196.98 291.9 197.1 291.9 197.3V198L289.9 196.83C289.7 196.72 289.54 196.83 289.54 197.04C289.548 197.163 289.584 197.282 289.647 197.388C289.709 197.494 289.796 197.584 289.9 197.65L311.72 210.25C311.92 210.37 312.08 210.25 312.08 210.05C312.068 209.927 312.027 209.809 311.961 209.705C311.895 209.601 311.806 209.513 311.7 209.45ZM290.35 193L292.25 194.09C292.45 194.21 292.6 194.09 292.6 193.89V191.7C292.598 191.614 292.581 191.53 292.55 191.45L295.55 188.33L296.99 189.16C297.19 189.28 297.35 189.16 297.35 188.96L299.48 191.18V192.43C299.487 192.554 299.523 192.675 299.586 192.783C299.648 192.891 299.735 192.982 299.84 193.05L301.74 194.14C301.93 194.26 302.09 194.14 302.09 193.94V191.75C302.104 191.667 302.104 191.583 302.09 191.5L305.09 188.38L306.53 189.21C306.73 189.33 306.89 189.21 306.89 189.01V187.11L309.41 185.94L311.28 187.02C311.47 187.14 311.63 187.02 311.63 186.82V184.62C311.623 184.498 311.587 184.38 311.527 184.274C311.466 184.168 311.382 184.078 311.28 184.01L309.38 182.91C309.18 182.8 309.02 182.91 309.02 183.12V185L306.5 186.16L304.63 185.08C304.44 184.97 304.28 185.08 304.28 185.29V187.48C304.282 187.567 304.302 187.652 304.34 187.73L301.34 190.85L299.9 190.01C299.7 189.9 299.54 190.01 299.54 190.22L297.35 188V186.75C297.344 186.625 297.308 186.504 297.245 186.396C297.183 186.288 297.095 186.197 296.99 186.13L295.1 185.03C294.9 184.92 294.74 185.03 294.74 185.24V187.43C294.742 187.517 294.762 187.602 294.8 187.68L291.8 190.8L290.36 189.96C290.16 189.85 290.01 189.96 290.01 190.17V192.36C290.011 192.486 290.042 192.61 290.101 192.722C290.16 192.833 290.246 192.929 290.35 193ZM309.68 183.89L310.87 184.57V186L309.68 185.32V183.89ZM304.94 186.08L306.13 186.77V188.14L304.94 187.45V186.08ZM300.2 191L301.38 191.69V193.06L300.2 192.37V191ZM295.45 186.07L296.64 186.76V188.13L295.45 187.44V186.07ZM290.71 191L291.89 191.69V193.06L290.71 192.37V191ZM303.41 196C303.27 195.76 303.05 195.63 302.91 195.71C302.77 195.79 302.77 196.05 302.91 196.29L304.33 198.76C304.392 198.865 304.478 198.954 304.58 199.02L308.38 201.22C308.58 201.33 308.74 201.22 308.74 201.01C308.733 200.886 308.697 200.765 308.634 200.657C308.572 200.549 308.485 200.458 308.38 200.39L304.73 198.29L303.41 196ZM306.01 197.79C306.004 197.624 305.957 197.463 305.874 197.319C305.79 197.176 305.672 197.056 305.53 196.97C305.27 196.82 305.06 196.97 305.06 197.24C305.069 197.405 305.116 197.566 305.197 197.71C305.279 197.854 305.393 197.977 305.53 198.07C305.8 198.24 306 198.11 306 197.81L306.01 197.79ZM307.91 198.89C307.904 198.724 307.857 198.563 307.774 198.419C307.69 198.276 307.572 198.156 307.43 198.07C307.17 197.91 306.96 198.07 306.96 198.34C306.965 198.505 307.01 198.666 307.092 198.809C307.174 198.952 307.29 199.073 307.43 199.16C307.69 199.33 307.91 199.21 307.91 198.91V198.89Z" fill="white"/>
<path d="M202.3 128.08C202.296 127.956 202.262 127.835 202.201 127.727C202.14 127.619 202.054 127.528 201.95 127.46C198.88 125.69 196.37 127.13 196.37 130.68C196.479 132.615 197.04 134.497 198.009 136.175C198.979 137.853 200.328 139.28 201.95 140.34C202.71 140.816 203.584 141.078 204.48 141.1C204.66 141.1 204.73 140.89 204.64 140.63C204.55 140.37 204.34 140.18 204.16 140.18C203.377 140.16 202.613 139.929 201.95 139.51C200.535 138.588 199.357 137.345 198.513 135.882C197.668 134.419 197.181 132.777 197.09 131.09C197.09 127.99 199.27 126.73 201.95 128.28C202.15 128.4 202.3 128.3 202.3 128.08ZM195.19 130C195.19 125.7 198.19 123.95 201.95 126.1C202.15 126.21 202.3 126.1 202.3 125.9C202.296 125.776 202.262 125.655 202.201 125.547C202.14 125.439 202.054 125.348 201.95 125.28C197.83 122.9 194.48 124.84 194.48 129.59C194.629 132.186 195.387 134.711 196.694 136.959C198 139.207 199.818 141.116 202 142.53C204.58 144.02 206.94 143.88 208.32 142.15C208.43 142.02 208.38 141.74 208.21 141.52C208.04 141.3 207.82 141.23 207.72 141.36C206.47 142.92 204.33 143.05 202 141.7C200.027 140.42 198.383 138.695 197.2 136.662C196.017 134.63 195.329 132.348 195.19 130ZM212.52 135.48C212.493 135.364 212.437 135.257 212.356 135.17C212.275 135.082 212.173 135.017 212.06 134.98C211.87 134.98 211.78 135.13 211.85 135.38C212.27 136.885 212.492 138.438 212.51 140C212.51 146.72 207.77 149.46 201.95 146.1C196.13 142.74 191.39 134.53 191.39 127.81C191.39 121.09 196.13 118.36 201.95 121.72C202.15 121.83 202.3 121.72 202.3 121.51C202.294 121.388 202.26 121.269 202.199 121.163C202.138 121.057 202.053 120.967 201.95 120.9C195.74 117.31 190.68 120.23 190.68 127.4C190.68 134.57 195.74 143.33 201.95 146.92C208.16 150.51 213.22 147.59 213.22 140.41C213.203 138.74 212.967 137.079 212.52 135.47V135.48ZM202 143.9C197.22 141.14 193.34 134.41 193.34 128.9C193.34 123.39 197.22 121.14 202 123.9C202.2 124.01 202.35 123.9 202.35 123.69C202.344 123.568 202.31 123.449 202.249 123.343C202.188 123.237 202.103 123.147 202 123.08C196.83 120.08 192.63 122.52 192.63 128.49C192.63 134.46 196.83 141.73 202 144.72C207.17 147.71 211.37 145.27 211.37 139.31C211.363 139.186 211.327 139.065 211.265 138.957C211.202 138.849 211.115 138.758 211.01 138.69C210.82 138.58 210.66 138.69 210.66 138.9C210.61 144.41 206.72 146.65 202 143.9ZM202.59 136.43C202.616 136.883 202.748 137.324 202.975 137.717C203.203 138.109 203.52 138.443 203.9 138.69C204.62 139.11 205.2 138.77 205.2 137.94C205.177 137.488 205.048 137.047 204.822 136.654C204.596 136.261 204.28 135.928 203.9 135.68C203.13 135.26 202.54 135.6 202.54 136.43H202.59ZM204.49 137.53C204.49 137.91 204.22 138.06 203.9 137.87C203.73 137.761 203.588 137.613 203.484 137.44C203.38 137.267 203.317 137.072 203.3 136.87C203.3 136.5 203.57 136.34 203.9 136.53C204.058 136.647 204.189 136.797 204.282 136.97C204.376 137.143 204.43 137.334 204.44 137.53H204.49ZM198.8 129.86C198.825 130.312 198.955 130.753 199.181 131.145C199.407 131.538 199.722 131.872 200.1 132.12C200.82 132.53 201.41 132.2 201.41 131.36C201.384 130.907 201.252 130.467 201.024 130.074C200.797 129.682 200.48 129.348 200.1 129.1C199.33 128.69 198.75 129 198.75 129.86H198.8ZM200.69 130.95C200.69 131.33 200.43 131.48 200.1 131.3C199.931 131.191 199.79 131.043 199.687 130.87C199.585 130.696 199.524 130.501 199.51 130.3C199.51 129.92 199.77 129.77 200.1 129.96C200.265 130.079 200.4 130.235 200.494 130.416C200.588 130.597 200.638 130.797 200.64 131L200.69 130.95ZM199.38 135.41C199.436 135.522 199.523 135.616 199.63 135.68C199.668 135.702 199.711 135.714 199.755 135.714C199.799 135.714 199.842 135.702 199.88 135.68L204.62 132.94C204.76 132.86 204.76 132.6 204.62 132.36C204.48 132.12 204.26 131.99 204.12 132.07L199.38 134.81C199.19 134.91 199.19 135.17 199.33 135.41H199.38Z" fill="white"/>
<path d="M251.37 161.88C251.11 161.73 250.89 161.88 250.89 162.16C250.901 162.325 250.95 162.485 251.033 162.627C251.116 162.769 251.232 162.89 251.37 162.98C251.63 163.13 251.84 162.98 251.84 162.7C251.835 162.535 251.79 162.374 251.708 162.231C251.626 162.088 251.51 161.968 251.37 161.88ZM251.37 159.88C250.13 159.16 249.12 159.74 249.12 161.18C249.164 161.961 249.39 162.72 249.781 163.398C250.172 164.075 250.716 164.651 251.37 165.08C252.61 165.8 253.62 165.22 253.62 163.78C253.584 162.991 253.361 162.221 252.97 161.535C252.579 160.848 252.031 160.264 251.37 159.83V159.88ZM251.37 164.26C250.922 163.967 250.549 163.573 250.281 163.109C250.014 162.645 249.859 162.125 249.83 161.59C249.83 160.59 250.52 160.21 251.37 160.7C251.818 160.993 252.191 161.387 252.459 161.851C252.726 162.315 252.881 162.835 252.91 163.37C252.91 164.3 252.22 164.7 251.37 164.21V164.26ZM260.66 167.58C260.49 167.26 256.55 159.58 251.37 156.58C249.975 155.684 248.341 155.23 246.683 155.278C245.026 155.327 243.421 155.874 242.08 156.85C241.97 156.93 241.97 157.16 242.08 157.37C242.19 157.58 246.19 165.37 251.37 168.37C252.766 169.264 254.398 169.717 256.055 169.671C257.712 169.624 259.316 169.081 260.66 168.11C260.77 168 260.77 167.75 260.66 167.53V167.58ZM251.37 167.58C247.16 165.15 243.69 159.15 242.83 157.58C244.092 156.745 245.567 156.289 247.08 156.264C248.593 156.239 250.081 156.647 251.37 157.44C255.58 159.87 259.05 165.87 259.91 167.44C258.64 168.263 257.162 168.705 255.649 168.716C254.136 168.727 252.651 168.305 251.37 167.5V167.58ZM249.47 154.29C249.73 154.44 249.95 154.29 249.95 154.02C249.939 153.856 249.89 153.696 249.807 153.553C249.724 153.411 249.608 153.29 249.47 153.2C249.21 153.05 249 153.2 249 153.47C249.017 153.621 249.068 153.766 249.15 153.894C249.231 154.023 249.341 154.131 249.47 154.21V154.29ZM249.47 152.1C249.73 152.25 249.95 152.1 249.95 151.83C249.939 151.666 249.89 151.506 249.807 151.363C249.724 151.221 249.608 151.1 249.47 151.01C249.21 150.85 249 151.01 249 151.28C249.02 151.428 249.072 151.569 249.154 151.693C249.235 151.818 249.343 151.923 249.47 152V152.1ZM251.37 155.39C251.63 155.54 251.84 155.39 251.84 155.11C251.835 154.945 251.79 154.784 251.708 154.641C251.626 154.498 251.51 154.377 251.37 154.29C251.11 154.14 250.89 154.29 250.89 154.57C250.912 154.721 250.967 154.865 251.049 154.992C251.132 155.12 251.242 155.229 251.37 155.31V155.39ZM247.57 148.81C247.84 148.97 248.05 148.81 248.05 148.54C248.044 148.374 247.997 148.213 247.914 148.07C247.83 147.926 247.712 147.806 247.57 147.72C247.31 147.57 247.1 147.72 247.1 147.99C247.117 148.141 247.168 148.286 247.25 148.414C247.331 148.543 247.441 148.651 247.57 148.73V148.81ZM249.47 149.91C249.73 150.06 249.95 149.91 249.95 149.64C249.939 149.474 249.89 149.313 249.807 149.169C249.724 149.025 249.609 148.902 249.47 148.81C249.21 148.66 249 148.81 249 149.09C249.017 149.241 249.068 149.386 249.15 149.514C249.231 149.643 249.341 149.751 249.47 149.83V149.91ZM245.68 152C245.94 152.15 246.15 152 246.15 151.73C246.145 151.565 246.1 151.404 246.018 151.261C245.936 151.118 245.82 150.998 245.68 150.91C245.41 150.75 245.2 150.91 245.2 151.18C245.206 151.346 245.253 151.508 245.336 151.651C245.42 151.794 245.538 151.914 245.68 152ZM245.68 149.81C245.94 149.96 246.15 149.81 246.15 149.54C246.141 149.375 246.094 149.214 246.013 149.07C245.931 148.926 245.817 148.803 245.68 148.71C245.41 148.56 245.2 148.71 245.2 148.99C245.202 149.159 245.248 149.325 245.332 149.472C245.416 149.619 245.536 149.742 245.68 149.83V149.81ZM245.68 147.62C245.94 147.77 246.15 147.62 246.15 147.35C246.143 147.185 246.096 147.023 246.015 146.879C245.933 146.734 245.818 146.612 245.68 146.52C245.41 146.37 245.2 146.52 245.2 146.8C245.202 146.969 245.248 147.135 245.332 147.282C245.416 147.429 245.536 147.552 245.68 147.64V147.62ZM247.57 153.1C247.84 153.25 248.05 153.1 248.05 152.82C248.044 152.654 247.997 152.493 247.914 152.35C247.83 152.206 247.712 152.086 247.57 152C247.31 151.85 247.1 152 247.1 152.28C247.101 152.448 247.145 152.614 247.227 152.76C247.309 152.907 247.427 153.031 247.57 153.12V153.1ZM247.57 150.91C247.84 151.06 248.05 150.91 248.05 150.63C248.044 150.464 247.997 150.303 247.914 150.16C247.83 150.016 247.712 149.896 247.57 149.81C247.31 149.66 247.1 149.81 247.1 150.08C247.106 150.249 247.151 150.414 247.233 150.562C247.315 150.709 247.43 150.836 247.57 150.93V150.91ZM257.06 156.38C257.32 156.54 257.54 156.38 257.54 156.11C257.529 155.946 257.48 155.786 257.397 155.643C257.314 155.501 257.198 155.38 257.06 155.29C256.8 155.14 256.59 155.29 256.59 155.56C256.591 155.728 256.635 155.894 256.717 156.04C256.799 156.187 256.917 156.311 257.06 156.4V156.38ZM257.06 158.58C257.107 158.617 257.164 158.638 257.224 158.642C257.283 158.646 257.343 158.632 257.394 158.602C257.446 158.572 257.487 158.527 257.513 158.473C257.539 158.419 257.548 158.359 257.54 158.3C257.529 158.136 257.48 157.976 257.397 157.833C257.314 157.691 257.198 157.57 257.06 157.48C256.8 157.33 256.59 157.48 256.59 157.75C256.596 157.919 256.641 158.084 256.723 158.232C256.805 158.379 256.92 158.506 257.06 158.6V158.58ZM251.37 150.91C251.63 151.06 251.84 150.91 251.84 150.63C251.835 150.465 251.79 150.304 251.708 150.161C251.626 150.018 251.51 149.898 251.37 149.81C251.11 149.66 250.89 149.81 250.89 150.08C250.898 150.25 250.945 150.415 251.029 150.563C251.112 150.71 251.229 150.836 251.37 150.93V150.91ZM255.16 153.1C255.43 153.25 255.64 153.1 255.64 152.82C255.634 152.654 255.587 152.493 255.504 152.35C255.42 152.206 255.302 152.086 255.16 152C254.9 151.85 254.69 152 254.69 152.28C254.691 152.448 254.735 152.614 254.817 152.76C254.9 152.907 255.017 153.031 255.16 153.12V153.1ZM257.06 154.19C257.32 154.34 257.54 154.19 257.54 153.92C257.529 153.756 257.48 153.596 257.397 153.453C257.314 153.311 257.198 153.19 257.06 153.1C256.8 152.95 256.59 153.1 256.59 153.37C256.591 153.538 256.635 153.704 256.717 153.85C256.799 153.997 256.917 154.121 257.06 154.21V154.19ZM245.68 154.19C245.94 154.34 246.15 154.19 246.15 153.92C246.145 153.755 246.1 153.594 246.018 153.451C245.936 153.308 245.82 153.188 245.68 153.1C245.41 152.95 245.2 153.1 245.2 153.37C245.202 153.539 245.248 153.705 245.332 153.852C245.416 153.999 245.536 154.122 245.68 154.21V154.19ZM257.06 160.77C257.32 160.92 257.54 160.77 257.54 160.49C257.529 160.326 257.48 160.166 257.397 160.023C257.314 159.881 257.198 159.76 257.06 159.67C256.8 159.52 256.59 159.67 256.59 159.95C256.591 160.118 256.635 160.284 256.717 160.43C256.799 160.577 256.917 160.701 257.06 160.79V160.77ZM255.16 155.29C255.43 155.44 255.64 155.29 255.64 155.01C255.634 154.844 255.587 154.683 255.504 154.54C255.42 154.396 255.302 154.276 255.16 154.19C254.9 154.04 254.69 154.19 254.69 154.47C254.691 154.638 254.735 154.804 254.817 154.95C254.9 155.097 255.017 155.221 255.16 155.31V155.29ZM253.27 154.19C253.53 154.34 253.74 154.19 253.74 153.92C253.735 153.755 253.69 153.594 253.608 153.451C253.526 153.308 253.41 153.188 253.27 153.1C253 152.95 252.79 153.1 252.79 153.37C252.792 153.539 252.838 153.705 252.922 153.852C253.006 153.999 253.126 154.122 253.27 154.21V154.19ZM253.27 156.38C253.53 156.54 253.74 156.38 253.74 156.11C253.735 155.945 253.69 155.784 253.608 155.641C253.526 155.498 253.41 155.377 253.27 155.29C253 155.14 252.79 155.29 252.79 155.56C252.792 155.729 252.838 155.895 252.922 156.042C253.006 156.189 253.126 156.312 253.27 156.4V156.38ZM253.27 152C253.53 152.15 253.74 152 253.74 151.73C253.735 151.565 253.69 151.404 253.608 151.261C253.526 151.118 253.41 150.998 253.27 150.91C253 150.75 252.79 150.91 252.79 151.18C252.796 151.346 252.843 151.508 252.926 151.651C253.01 151.794 253.128 151.914 253.27 152ZM255.16 157.48C255.43 157.63 255.64 157.48 255.64 157.21C255.632 157.044 255.584 156.882 255.5 156.737C255.417 156.593 255.3 156.47 255.16 156.38C254.9 156.23 254.69 156.38 254.69 156.66C254.691 156.828 254.735 156.994 254.817 157.14C254.9 157.287 255.017 157.411 255.16 157.5V157.48ZM251.37 153.1C251.63 153.25 251.84 153.1 251.84 152.82C251.835 152.655 251.79 152.494 251.708 152.351C251.626 152.208 251.51 152.088 251.37 152C251.11 151.85 250.89 152 250.89 152.28C250.898 152.448 250.945 152.612 251.029 152.758C251.112 152.904 251.229 153.028 251.37 153.12V153.1ZM255.16 176.1C254.9 175.95 254.69 176.1 254.69 176.37C254.695 176.535 254.74 176.696 254.822 176.839C254.904 176.982 255.02 177.103 255.16 177.19C255.43 177.34 255.64 177.19 255.64 176.92C255.63 176.76 255.58 176.604 255.497 176.466C255.413 176.329 255.298 176.214 255.16 176.13V176.1ZM253.27 170.62C253 170.47 252.79 170.62 252.79 170.89C252.796 171.056 252.843 171.218 252.926 171.361C253.01 171.504 253.128 171.624 253.27 171.71C253.53 171.87 253.74 171.71 253.74 171.44C253.731 171.281 253.683 171.125 253.601 170.988C253.519 170.851 253.406 170.735 253.27 170.65V170.62ZM251.37 169.52C251.11 169.37 250.89 169.52 250.89 169.8C250.901 169.965 250.95 170.125 251.033 170.267C251.116 170.409 251.232 170.53 251.37 170.62C251.63 170.77 251.84 170.62 251.84 170.34C251.831 170.18 251.783 170.025 251.701 169.888C251.619 169.751 251.506 169.635 251.37 169.55V169.52ZM255.16 173.91C254.9 173.75 254.69 173.91 254.69 174.18C254.695 174.345 254.74 174.506 254.822 174.649C254.904 174.792 255.02 174.913 255.16 175C255.43 175.15 255.64 175 255.64 174.73C255.63 174.57 255.58 174.414 255.497 174.276C255.413 174.139 255.298 174.024 255.16 173.94V173.91ZM253.27 172.81C253 172.66 252.79 172.81 252.79 173.08C252.798 173.247 252.846 173.409 252.93 173.553C253.013 173.697 253.13 173.82 253.27 173.91C253.53 174.06 253.74 173.91 253.74 173.63C253.731 173.471 253.683 173.315 253.601 173.178C253.519 173.041 253.406 172.925 253.27 172.84V172.81ZM253.27 175C253 174.85 252.79 175 252.79 175.28C252.796 175.446 252.843 175.608 252.926 175.751C253.01 175.894 253.128 176.014 253.27 176.1C253.53 176.25 253.74 176.1 253.74 175.82C253.735 175.655 253.69 175.494 253.608 175.351C253.526 175.208 253.41 175.088 253.27 175ZM257.06 170.62C256.8 170.47 256.59 170.62 256.59 170.89C256.595 171.055 256.64 171.216 256.722 171.359C256.804 171.502 256.92 171.623 257.06 171.71C257.32 171.87 257.54 171.71 257.54 171.44C257.525 171.281 257.474 171.127 257.391 170.99C257.308 170.853 257.195 170.737 257.06 170.65V170.62ZM257.06 172.81C256.8 172.66 256.59 172.81 256.59 173.08C256.599 173.245 256.646 173.406 256.727 173.55C256.809 173.694 256.923 173.818 257.06 173.91C257.107 173.947 257.164 173.968 257.224 173.972C257.283 173.976 257.343 173.962 257.394 173.932C257.446 173.902 257.487 173.857 257.513 173.803C257.539 173.749 257.548 173.689 257.54 173.63C257.525 173.471 257.474 173.317 257.391 173.18C257.308 173.043 257.195 172.927 257.06 172.84V172.81ZM245.68 170.62C245.41 170.47 245.2 170.62 245.2 170.89C245.206 171.056 245.253 171.218 245.336 171.361C245.42 171.504 245.538 171.624 245.68 171.71C245.94 171.87 246.15 171.71 246.15 171.44C246.141 171.281 246.093 171.125 246.011 170.988C245.929 170.851 245.816 170.735 245.68 170.65V170.62ZM255.16 171.71C254.9 171.56 254.69 171.71 254.69 171.99C254.695 172.155 254.74 172.316 254.822 172.459C254.904 172.602 255.02 172.723 255.16 172.81C255.43 172.96 255.64 172.81 255.64 172.54C255.627 172.379 255.577 172.223 255.494 172.084C255.411 171.945 255.296 171.828 255.16 171.74V171.71ZM257.06 175C256.8 174.85 256.59 175 256.59 175.28C256.595 175.445 256.64 175.606 256.722 175.749C256.804 175.892 256.92 176.013 257.06 176.1C257.32 176.25 257.54 176.1 257.54 175.82C257.529 175.656 257.48 175.496 257.397 175.353C257.314 175.211 257.198 175.09 257.06 175ZM257.06 177.19C256.8 177.04 256.59 177.19 256.59 177.47C256.595 177.635 256.64 177.796 256.722 177.939C256.804 178.082 256.92 178.203 257.06 178.29C257.32 178.44 257.54 178.29 257.54 178.01C257.525 177.851 257.474 177.697 257.391 177.56C257.308 177.423 257.195 177.307 257.06 177.22V177.19ZM245.68 164.04C245.41 163.89 245.2 164.04 245.2 164.32C245.206 164.486 245.253 164.648 245.336 164.791C245.42 164.934 245.538 165.054 245.68 165.14C245.94 165.29 246.15 165.14 246.15 164.87C246.137 164.71 246.088 164.555 246.006 164.417C245.925 164.278 245.813 164.16 245.68 164.07V164.04ZM251.37 171.71C251.323 171.674 251.266 171.652 251.206 171.649C251.147 171.645 251.087 171.659 251.036 171.689C250.984 171.719 250.943 171.764 250.917 171.817C250.891 171.871 250.882 171.931 250.89 171.99C250.901 172.155 250.95 172.315 251.033 172.457C251.116 172.599 251.232 172.72 251.37 172.81C251.63 172.96 251.84 172.81 251.84 172.54C251.827 172.38 251.778 172.225 251.696 172.087C251.615 171.948 251.503 171.83 251.37 171.74V171.71ZM247.57 171.71C247.31 171.56 247.1 171.71 247.1 171.99C247.105 172.155 247.15 172.316 247.232 172.459C247.314 172.602 247.43 172.723 247.57 172.81C247.84 172.96 248.05 172.81 248.05 172.54C248.037 172.379 247.987 172.223 247.904 172.084C247.821 171.945 247.706 171.828 247.57 171.74V171.71ZM245.68 166.24C245.41 166.08 245.2 166.24 245.2 166.51C245.206 166.676 245.253 166.838 245.336 166.981C245.42 167.124 245.538 167.244 245.68 167.33C245.94 167.48 246.15 167.33 246.15 167.06C246.141 166.9 246.093 166.745 246.011 166.608C245.929 166.47 245.816 166.355 245.68 166.27V166.24ZM245.68 168.43C245.41 168.28 245.2 168.43 245.2 168.7C245.206 168.866 245.253 169.028 245.336 169.171C245.42 169.314 245.538 169.434 245.68 169.52C245.94 169.67 246.15 169.52 246.15 169.25C246.141 169.09 246.093 168.935 246.011 168.798C245.929 168.66 245.816 168.545 245.68 168.46V168.43ZM247.57 169.52C247.31 169.37 247.1 169.52 247.1 169.8C247.105 169.965 247.15 170.126 247.232 170.269C247.314 170.412 247.43 170.533 247.57 170.62C247.84 170.77 248.05 170.62 248.05 170.34C248.04 170.18 247.99 170.024 247.907 169.886C247.823 169.749 247.708 169.634 247.57 169.55V169.52ZM247.57 167.33C247.31 167.18 247.1 167.33 247.1 167.61C247.105 167.775 247.15 167.936 247.232 168.079C247.314 168.222 247.43 168.343 247.57 168.43C247.84 168.58 248.05 168.43 248.05 168.15C248.04 167.99 247.99 167.834 247.907 167.696C247.823 167.559 247.708 167.444 247.57 167.36V167.33ZM251.37 173.91C251.11 173.75 250.89 173.91 250.89 174.18C250.901 174.345 250.95 174.505 251.033 174.647C251.116 174.789 251.232 174.91 251.37 175C251.63 175.15 251.84 175 251.84 174.73C251.831 174.57 251.783 174.415 251.701 174.278C251.619 174.141 251.506 174.025 251.37 173.94V173.91ZM249.47 168.43C249.21 168.28 249 168.43 249 168.7C249.005 168.865 249.05 169.026 249.132 169.169C249.214 169.312 249.33 169.433 249.47 169.52C249.73 169.67 249.95 169.52 249.95 169.25C249.935 169.091 249.884 168.937 249.801 168.8C249.718 168.663 249.605 168.547 249.47 168.46V168.43ZM249.47 172.81C249.21 172.66 249 172.81 249 173.08C249.009 173.245 249.056 173.406 249.137 173.55C249.219 173.694 249.333 173.818 249.47 173.91C249.517 173.947 249.574 173.968 249.634 173.972C249.693 173.976 249.753 173.962 249.804 173.932C249.856 173.902 249.897 173.857 249.923 173.803C249.949 173.749 249.958 173.689 249.95 173.63C249.935 173.471 249.884 173.317 249.801 173.18C249.718 173.043 249.605 172.927 249.47 172.84V172.81ZM249.47 170.62C249.21 170.47 249 170.62 249 170.89C249.005 171.055 249.05 171.216 249.132 171.359C249.214 171.502 249.33 171.623 249.47 171.71C249.73 171.87 249.95 171.71 249.95 171.44C249.935 171.281 249.884 171.127 249.801 170.99C249.718 170.853 249.605 170.737 249.47 170.65V170.62Z" fill="white"/>
<path d="M205.86 97.7001L197.96 93.1401V96.4201L205.86 100.97V97.7001Z" fill="#E56EC9"/>
<path d="M194.57 84.0898C191.5 84.3898 189.62 90.0298 192.76 96.9598C192.76 91.8398 194.24 90.5799 196.38 91.1199L194.57 84.0898Z" fill="#E56EC9"/>
<path d="M209.33 92.6099C212.4 96.4599 214.27 104.27 211.14 107.61C211.14 102.5 209.66 99.5299 207.52 97.6099L209.33 92.6099Z" fill="#E56EC9"/>
<path d="M202 63.23C198.07 65.36 194.24 71.1 194.24 78.83C194.132 83.5675 195.074 88.2702 197 92.6L202 95.44L206.92 98.29C206.92 98.29 209.76 96.16 209.76 87.79C209.71 80.06 205.88 69.9 202 63.23Z" fill="#DAE0F5"/>
<path d="M197.59 78.3001C197.59 75.5201 199.54 74.4001 201.95 75.7901C203.22 76.6142 204.276 77.7268 205.034 79.0372C205.792 80.3476 206.229 81.8186 206.31 83.3301C206.31 86.1101 204.36 87.2401 201.95 85.8501C200.68 85.0233 199.624 83.9087 198.867 82.5968C198.109 81.2849 197.672 79.8128 197.59 78.3001Z" fill="white"/>
<path d="M198.8 78.9998C198.8 76.9998 200.21 76.1698 201.95 77.1798C202.865 77.7802 203.627 78.5869 204.174 79.5352C204.721 80.4835 205.038 81.5468 205.1 82.6398C205.1 84.6398 203.69 85.4598 201.95 84.4598C201.034 83.8594 200.273 83.0527 199.725 82.1045C199.178 81.1562 198.861 80.0929 198.8 78.9998Z" fill="#807DFB"/>
<path d="M204.68 105.55V100.29L202 98.7201L199.27 97.1401V102.4C199.27 104.03 198.86 106.13 195.22 104.04C197.21 106.092 199.495 107.834 202 109.21C204.87 110.8 207.44 111.94 208.77 111.86C205.09 109.76 204.68 107.18 204.68 105.55Z" fill="white"/>
<path d="M125.07 216.08C125.869 215.557 126.533 214.853 127.011 214.027C127.488 213.2 127.766 212.273 127.82 211.32V190.48C127.82 188.73 126.58 188.02 125.07 188.89L80.4702 214.64V241.83L125.07 216.08Z" fill="#E8ECF7"/>
<path d="M59.8401 253.74L80.4701 241.83V214.64L59.8401 226.55C59.0385 227.073 58.3712 227.778 57.8917 228.606C57.4123 229.435 57.1343 230.364 57.0801 231.32V252.16C57.0801 253.9 58.3201 254.62 59.8401 253.74Z" fill="#807DFB"/>
<path d="M125.07 188.89C125.347 188.697 125.669 188.578 126.004 188.543C126.34 188.508 126.679 188.559 126.99 188.69L124.83 187.45C124.516 187.285 124.162 187.211 123.808 187.238C123.455 187.264 123.116 187.39 122.83 187.6L78.23 213.35L80.46 214.64L125.07 188.89Z" fill="#DAE0F5"/>
<path d="M57.0802 252.16V231.32C57.1345 230.364 57.4125 229.435 57.8919 228.606C58.3713 227.778 59.0387 227.073 59.8402 226.55L80.4702 214.64L78.2402 213.35L57.6002 225.27C56.8058 225.791 56.1436 226.489 55.6662 227.31C55.1888 228.131 54.9094 229.052 54.8502 230V250.84C54.8103 251.194 54.8718 251.552 55.0276 251.873C55.1834 252.193 55.4271 252.463 55.7302 252.65L57.8302 253.86C57.577 253.659 57.3764 253.399 57.2458 253.102C57.1152 252.806 57.0584 252.483 57.0802 252.16Z" fill="url(#paint7_linear_5838_13179)"/>
<path d="M84.8999 223.87L120.79 203.15V200.27L84.8999 220.99V223.87Z" fill="url(#paint8_linear_5838_13179)"/>
<path d="M84.8999 231.31L108.57 217.64V214.76L84.8999 228.43V231.31Z" fill="url(#paint9_linear_5838_13179)"/>
<path d="M125.07 178.79C125.869 178.264 126.533 177.559 127.011 176.731C127.488 175.903 127.766 174.974 127.82 174.02V153.19C127.82 151.44 126.58 150.72 125.07 151.6L80.4702 177.35V204.54L125.07 178.79Z" fill="#E8ECF7"/>
<path d="M59.8401 216.45L80.4701 204.54V177.35L59.8401 189.26C59.0414 189.779 58.3756 190.479 57.8962 191.302C57.4169 192.125 57.1373 193.049 57.0801 194V214.83C57.0801 216.61 58.3201 217.32 59.8401 216.45Z" fill="#E56EC9"/>
<g style="mix-blend-mode:multiply">
<path d="M68.0001 199.31C67.2301 199.17 66.7201 198.41 66.7201 197.2C66.7478 196.238 67.0011 195.296 67.4597 194.45C67.9183 193.604 68.5692 192.878 69.3601 192.33C70.8201 191.49 72.0001 192.33 72.0001 194.15C71.9524 195.45 71.5055 196.703 70.7201 197.74C71.1504 197.609 71.6056 197.583 72.048 197.664C72.4905 197.744 72.9073 197.929 73.2641 198.203C73.6209 198.476 73.9073 198.831 74.0997 199.237C74.292 199.644 74.3847 200.09 74.3701 200.54C73.9801 200.75 69.3701 203.43 69.3701 203.43L64.3701 206.32C64.3801 204.51 65.8001 201.47 68.0001 199.31Z" fill="#D1D7F3"/>
</g>
<path d="M125.07 151.6C125.344 151.401 125.666 151.278 126.003 151.242C126.34 151.207 126.681 151.262 126.99 151.4L124.83 150.15C124.517 149.982 124.162 149.907 123.808 149.934C123.454 149.961 123.115 150.087 122.83 150.3L78.23 176.05L80.46 177.34L125.07 151.6Z" fill="#DAE0F5"/>
<path d="M57.0801 214.86V194C57.1328 193.044 57.4102 192.114 57.8897 191.285C58.3693 190.456 59.0375 189.752 59.8401 189.23L80.4701 177.32L78.2401 176.03L57.6001 188C56.8015 188.525 56.137 189.23 55.6595 190.059C55.182 190.887 54.9048 191.815 54.8501 192.77V213.6C54.8095 213.955 54.8706 214.315 55.0264 214.637C55.1821 214.96 55.4262 215.231 55.7301 215.42L57.8301 216.62C57.568 216.412 57.3621 216.143 57.231 215.835C57.1 215.528 57.0482 215.192 57.0801 214.86Z" fill="url(#paint10_linear_5838_13179)"/>
<path d="M84.8999 186.58L120.79 165.86V162.98L84.8999 183.7V186.58Z" fill="url(#paint11_linear_5838_13179)"/>
<path d="M84.8999 194.01L108.57 180.35V177.47L84.8999 191.14V194.01Z" fill="url(#paint12_linear_5838_13179)"/>
<path d="M125.07 139.72C125.868 139.197 126.533 138.493 127.011 137.667C127.488 136.84 127.765 135.913 127.82 134.96V125.44C127.82 123.69 126.58 122.98 125.07 123.85L87.3701 145.62V161.49L125.07 139.72Z" fill="#E8ECF7"/>
<path d="M59.8401 177.39L87.3701 161.49V145.62L59.8401 161.51C59.0385 162.033 58.3712 162.738 57.8917 163.566C57.4123 164.395 57.1343 165.324 57.0801 166.28V175.8C57.0801 177.54 58.3201 178.26 59.8401 177.39Z" fill="#DAE0F5"/>
<path d="M125.07 123.85C125.345 123.652 125.667 123.53 126.004 123.496C126.342 123.463 126.682 123.519 126.99 123.66L124.83 122.41C124.515 122.245 124.161 122.172 123.807 122.201C123.453 122.229 123.114 122.357 122.83 122.57L85.1299 144.33L87.3599 145.62L125.07 123.85Z" fill="#DAE0F5"/>
<path d="M57.0802 175.8V166.28C57.1345 165.324 57.4125 164.395 57.8919 163.566C58.3713 162.738 59.0387 162.033 59.8402 161.51L87.3702 145.62L85.1402 144.33L57.6002 160.23C56.8005 160.754 56.1351 161.459 55.6575 162.288C55.1798 163.116 54.9033 164.045 54.8502 165V174.52C54.8103 174.874 54.8718 175.232 55.0276 175.553C55.1834 175.873 55.4271 176.143 55.7302 176.33L57.8302 177.54C57.5711 177.335 57.367 177.068 57.2361 176.765C57.1052 176.461 57.0517 176.13 57.0802 175.8Z" fill="url(#paint13_linear_5838_13179)"/>
<path d="M65.9201 167.46L64.8201 164.23L63.8201 164.78L62.7201 169.29L61.6201 166.06L60.6201 166.61L62.1501 170.85L63.2201 170.24L64.2201 166.12L65.2201 169.02L66.2901 168.41L67.8301 162.41L67.0001 163L65.9201 167.46ZM73.5301 163.07L72.4201 159.83L71.4201 160.39L70.3201 164.9L69.2101 161.66L68.2101 162.22L69.7401 166.46L70.8101 165.84L71.8101 161.73L72.8101 164.63L73.8801 164.01L75.4101 158.01L74.4101 158.57L73.5301 163.07ZM81.1301 158.68L80.0001 155.44L79.0001 156L78.0001 160.51L76.9001 157.27L75.9001 157.83L77.4401 162.07L78.5101 161.45L79.5101 157.34L80.5101 160.24L81.5801 159.62L83.1101 153.62L82.1101 154.18L81.1301 158.68ZM84.7201 156.68C84.6536 156.64 84.5776 156.62 84.5001 156.62C84.4227 156.62 84.3467 156.64 84.2801 156.68C84.0953 156.792 83.9435 156.951 83.8401 157.14C83.7259 157.323 83.6637 157.534 83.6601 157.75C83.6515 157.827 83.6636 157.904 83.6953 157.975C83.7269 158.045 83.777 158.106 83.8401 158.15C83.9063 158.191 83.9824 158.212 84.0601 158.212C84.1378 158.212 84.2139 158.191 84.2801 158.15C84.4675 158.037 84.6199 157.875 84.7201 157.68C84.833 157.496 84.8951 157.286 84.9001 157.07C84.9027 157 84.8875 156.93 84.8561 156.867C84.8246 156.804 84.7779 156.75 84.7201 156.71V156.68Z" fill="#807DFB"/>
<path style="mix-blend-mode:multiply" d="M118 75.1699C113.636 72.8525 108.726 71.7572 103.79 71.9999H95.7901V73.3099C94.3161 73.7639 92.8973 74.381 91.5601 75.1499C84.2901 79.3699 84.3301 86.2299 91.6501 90.4599C92.9625 91.2021 94.3504 91.8022 95.7901 92.2499V93.6199H105.38C109.806 93.631 114.166 92.5453 118.07 90.4599C125.35 86.2499 125.32 79.3899 118 75.1699Z" fill="url(#paint14_linear_5838_13179)"/>
<path d="M83.4199 90.4799C79.7399 88.3499 77.8899 85.5599 77.8999 82.7699V76.4199C77.8999 79.2099 79.7299 81.9999 83.4099 84.1299C90.7399 88.3499 102.57 88.3499 109.84 84.1299C113.45 82.0299 115.26 79.2799 115.27 76.5299V82.8799C115.27 85.6399 113.45 88.3799 109.83 90.4799C102.57 94.7099 90.7399 94.7099 83.4199 90.4799Z" fill="url(#paint15_linear_5838_13179)"/>
<path d="M83.4301 84.13C76.1101 79.9 76.0701 73.05 83.3501 68.82C90.6301 64.59 102.46 64.59 109.77 68.82C117.08 73.05 117.13 79.9 109.86 84.13C102.59 88.36 90.7601 88.35 83.4301 84.13Z" fill="#F6F6FB"/>
<path d="M106.19 75.6002L92.3602 76.3102L92.7902 73.2002H88.9702L87.9302 78.8602L106.19 77.8102V75.6002Z" fill="#BBC0E6"/>
<path d="M379.07 87.1502C379.184 85.1177 379.773 83.1404 380.791 81.3774C381.809 79.6144 383.227 78.1151 384.93 77.0002L423.93 54.4802C427.15 52.6202 429.78 54.1402 429.78 57.8602V102.17C429.666 104.2 429.077 106.175 428.061 107.936C427.045 109.697 425.63 111.195 423.93 112.31L384.93 134.83C381.71 136.69 379.07 135.17 379.07 131.45V87.1502Z" fill="#F1F1F6"/>
<path d="M425.45 52.5999C424.38 51.9199 422.87 51.9699 421.2 52.9299L382.2 75.4499C380.499 76.5628 379.083 78.0589 378.066 79.8182C377.048 81.5775 376.457 83.5508 376.34 85.5799V129.9C376.34 131.84 377.07 133.18 378.22 133.75L380.64 135.15C380.091 134.717 379.659 134.153 379.383 133.51C379.107 132.868 378.996 132.166 379.06 131.47V87.1499C379.175 85.1165 379.766 83.1386 380.786 81.3755C381.805 79.6125 383.225 78.1137 384.93 76.9999L423.93 54.4799C424.515 54.0569 425.201 53.7954 425.919 53.7217C426.637 53.648 427.361 53.7646 428.02 54.0599L425.45 52.5999Z" fill="url(#paint16_linear_5838_13179)"/>
<path d="M418.47 99.2202L406.67 106C406.648 105.801 406.578 105.61 406.467 105.443C406.356 105.276 406.207 105.138 406.032 105.04C405.857 104.942 405.661 104.887 405.461 104.88C405.26 104.874 405.061 104.915 404.88 105V101.78L414.2 96.4002C414.688 96.0798 415.093 95.6498 415.385 95.1445C415.677 94.6392 415.846 94.0727 415.88 93.4902V79.3902C415.88 78.3202 415.12 77.8802 414.2 78.3902L399.79 86.7102L399.06 85.8702C398.88 85.6831 398.634 85.5733 398.375 85.564C398.116 85.5546 397.863 85.6465 397.67 85.8202L394.67 87.5602C394.18 87.8761 393.773 88.3037 393.481 88.8079C393.189 89.312 393.02 89.8784 392.99 90.4602V106.68C392.99 107.75 393.74 108.19 394.67 107.68L404 102.3V105.53C403.063 106.322 402.43 107.414 402.21 108.62L390.41 115.44C390.276 115.526 390.164 115.642 390.084 115.78C390.004 115.917 389.958 116.071 389.95 116.23C389.95 116.52 390.16 116.64 390.41 116.49L402.21 109.68C402.43 110.76 403.35 111.14 404.46 110.5C405.046 110.114 405.547 109.613 405.932 109.026C406.317 108.44 406.579 107.781 406.7 107.09L418.5 100.28C418.635 100.194 418.748 100.076 418.828 99.9364C418.908 99.7972 418.953 99.6407 418.96 99.4802C418.93 99.1902 418.72 99.0702 418.47 99.2202ZM394.66 106.62C394.23 106.87 393.89 106.62 393.89 106.18V90.0002C393.904 89.7334 393.981 89.4738 394.115 89.2426C394.249 89.0114 394.436 88.8153 394.66 88.6702L397.66 86.9402C397.747 86.8642 397.859 86.8224 397.975 86.8224C398.091 86.8224 398.203 86.8642 398.29 86.9402L399.15 87.9402C399.202 87.988 399.27 88.0145 399.34 88.0145C399.41 88.0145 399.478 87.988 399.53 87.9402L414.19 79.4802C414.61 79.2302 414.95 79.4802 414.95 79.9202V94.0002C414.937 94.2647 414.861 94.5224 414.729 94.7519C414.597 94.9814 414.412 95.1762 414.19 95.3202L394.66 106.62ZM404.43 109.44C403.67 109.88 403.05 109.52 403.05 108.65C403.077 108.173 403.217 107.709 403.456 107.296C403.696 106.882 404.03 106.531 404.43 106.27C405.18 105.83 405.8 106.19 405.8 107.06C405.778 107.537 405.642 108.002 405.403 108.416C405.165 108.83 404.831 109.181 404.43 109.44ZM404.43 92.3502C404.252 92.4636 404.103 92.6182 403.997 92.8009C403.891 92.9836 403.83 93.1892 403.82 93.4002C403.82 93.7902 404.09 93.9502 404.43 93.7602C404.599 93.6381 404.738 93.4792 404.837 93.2956C404.935 93.112 404.991 92.9085 405 92.7002C405 92.3102 404.76 92.1502 404.43 92.3502ZM406.87 90.9302C406.692 91.0464 406.544 91.203 406.438 91.3872C406.332 91.5714 406.271 91.778 406.26 91.9902C406.26 92.3802 406.53 92.5402 406.87 92.3502C407.048 92.234 407.196 92.0774 407.302 91.8933C407.408 91.7091 407.469 91.5024 407.48 91.2902C407.48 90.9002 407.21 90.7402 406.87 90.9302ZM402 93.7602C401.83 93.8704 401.686 94.0175 401.581 94.1906C401.475 94.3637 401.41 94.5584 401.39 94.7602C401.39 95.1502 401.67 95.3102 402 95.1202C402.178 95.004 402.326 94.8475 402.432 94.6633C402.538 94.4791 402.599 94.2724 402.61 94.0602C402.59 93.7202 402.32 93.5602 402 93.7602Z" fill="#C4CAE9"/>
<path d="M415.35 229.1L425.53 234.97L415.35 240.85L405.18 234.97L415.35 229.1Z" fill="#8585FF"/>
<path d="M405.18 234.97L415.35 240.85V252.6L405.18 246.72V234.97Z" fill="#5E5EDD"/>
<path d="M425.53 234.97L415.35 240.85V252.6L425.53 246.72V234.97Z" fill="#4949B8"/>
<path style="mix-blend-mode:multiply" d="M415.35 252.6H456.38V240.85H425.53V246.72L415.35 252.6Z" fill="url(#paint17_linear_5838_13179)"/>
<path d="M415.35 214.56L425.53 220.43L415.35 226.3L405.18 220.43L415.35 214.56Z" fill="#E56EC9"/>
<path d="M405.18 220.43L415.35 226.3V238.05L405.18 232.18V220.43Z" fill="#D453B5"/>
<path d="M425.53 220.43L415.35 226.3V238.05L425.53 232.18V220.43Z" fill="#B8429B"/>
<path d="M415.35 200.05L425.53 205.92L415.35 211.79L405.18 205.92L415.35 200.05Z" fill="#8585FF"/>
<path d="M405.18 205.92L415.35 211.79V223.54L405.18 217.67V205.92Z" fill="#5E5EDD"/>
<path d="M425.53 205.92L415.35 211.79V223.54L425.53 217.67V205.92Z" fill="#4949B8"/>
</g>
<defs>
<linearGradient id="paint0_linear_5838_13179" x1="300.02" y1="52.5001" x2="326.25" y2="52.5001" gradientUnits="userSpaceOnUse">
<stop stop-color="#DAE0F5"/>
<stop offset="0.31" stop-color="#DFE4F6"/>
<stop offset="0.7" stop-color="#EEF1FB"/>
<stop offset="1" stop-color="white"/>
</linearGradient>
<linearGradient id="paint1_linear_5838_13179" x1="316.41" y1="61.9598" x2="342.64" y2="61.9598" gradientUnits="userSpaceOnUse">
<stop stop-color="#DAE0F5"/>
<stop offset="0.31" stop-color="#DFE4F6"/>
<stop offset="0.7" stop-color="#EEF1FB"/>
<stop offset="1" stop-color="white"/>
</linearGradient>
<linearGradient id="paint2_linear_5838_13179" x1="148.73" y1="262.53" x2="176.45" y2="262.53" gradientUnits="userSpaceOnUse">
<stop stop-color="#DAE0F5"/>
<stop offset="0.31" stop-color="#DFE4F6"/>
<stop offset="0.7" stop-color="#EEF1FB"/>
<stop offset="1" stop-color="white"/>
</linearGradient>
<linearGradient id="paint3_linear_5838_13179" x1="240.84" y1="234.42" x2="422.11" y2="234.42" gradientUnits="userSpaceOnUse">
<stop stop-color="#C0C6E4"/>
<stop offset="0.42" stop-color="#E2E5F3"/>
<stop offset="0.77" stop-color="#F7F8FC"/>
<stop offset="1" stop-color="white"/>
</linearGradient>
<linearGradient id="paint4_linear_5838_13179" x1="317.69" y1="254.84" x2="196.64" y2="254.84" gradientUnits="userSpaceOnUse">
<stop offset="0.24" stop-color="#423FAA"/>
<stop offset="0.3" stop-color="#4441AC"/>
<stop offset="0.34" stop-color="#4946B4"/>
<stop offset="0.36" stop-color="#524FC2"/>
<stop offset="0.38" stop-color="#605BD5"/>
<stop offset="0.4" stop-color="#6B66E5"/>
</linearGradient>
<linearGradient id="paint5_linear_5838_13179" x1="239.64" y1="240.99" x2="316.07" y2="240.99" gradientUnits="userSpaceOnUse">
<stop stop-color="#D8DEF3"/>
<stop offset="0.31" stop-color="#DEE3F5"/>
<stop offset="0.74" stop-color="#F1F3FB"/>
<stop offset="1" stop-color="white"/>
</linearGradient>
<linearGradient id="paint6_linear_5838_13179" x1="198.3" y1="-26.6601" x2="349.08" y2="234.49" gradientUnits="userSpaceOnUse">
<stop offset="0.63" stop-color="#6B67E7"/>
<stop offset="0.7" stop-color="#20196F"/>
</linearGradient>
<linearGradient id="paint7_linear_5838_13179" x1="51.2602" y1="250.1" x2="80.8902" y2="198.78" gradientUnits="userSpaceOnUse">
<stop offset="0.42" stop-color="#5E5EDD"/>
<stop offset="1" stop-color="#3B3BA3"/>
</linearGradient>
<linearGradient id="paint8_linear_5838_13179" x1="141.14" y1="230.157" x2="91.5567" y2="187.316" gradientUnits="userSpaceOnUse">
<stop offset="0.41" stop-color="#BBC0E6"/>
<stop offset="0.57" stop-color="#C4CAE9"/>
</linearGradient>
<linearGradient id="paint9_linear_5838_13179" x1="123.58" y1="227.952" x2="88.8215" y2="197.916" gradientUnits="userSpaceOnUse">
<stop offset="0.41" stop-color="#BBC0E6"/>
<stop offset="0.57" stop-color="#C4CAE9"/>
</linearGradient>
<linearGradient id="paint10_linear_5838_13179" x1="51.2601" y1="212.81" x2="80.8901" y2="161.48" gradientUnits="userSpaceOnUse">
<stop stop-color="#D453B5"/>
<stop offset="0.27" stop-color="#D759B8"/>
<stop offset="0.62" stop-color="#DF69C2"/>
<stop offset="1" stop-color="#EB83D2"/>
</linearGradient>
<linearGradient id="paint11_linear_5838_13179" x1="141.14" y1="192.857" x2="91.5604" y2="150.022" gradientUnits="userSpaceOnUse">
<stop offset="0.41" stop-color="#BBC0E6"/>
<stop offset="0.57" stop-color="#C4CAE9"/>
</linearGradient>
<linearGradient id="paint12_linear_5838_13179" x1="123.58" y1="190.652" x2="88.8253" y2="160.623" gradientUnits="userSpaceOnUse">
<stop offset="0.41" stop-color="#BBC0E6"/>
<stop offset="0.57" stop-color="#C4CAE9"/>
</linearGradient>
<linearGradient id="paint13_linear_5838_13179" x1="57.8802" y1="177.56" x2="85.6102" y2="129.53" gradientUnits="userSpaceOnUse">
<stop offset="0.3" stop-color="#BCC1E7"/>
<stop offset="0.42" stop-color="#CED3F8"/>
</linearGradient>
<linearGradient id="paint14_linear_5838_13179" x1="86.1401" y1="82.8199" x2="123.51" y2="82.8199" gradientUnits="userSpaceOnUse">
<stop offset="0.43" stop-color="#C4C9E4"/>
<stop offset="0.58" stop-color="#D7DAED"/>
<stop offset="0.85" stop-color="#F4F5FA"/>
<stop offset="1" stop-color="white"/>
</linearGradient>
<linearGradient id="paint15_linear_5838_13179" x1="77.8999" y1="85.0399" x2="115.29" y2="85.0399" gradientUnits="userSpaceOnUse">
<stop offset="0.13" stop-color="#8585FF"/>
<stop offset="0.88" stop-color="#3B3BA3"/>
</linearGradient>
<linearGradient id="paint16_linear_5838_13179" x1="367.91" y1="127.8" x2="414.86" y2="46.4799" gradientUnits="userSpaceOnUse">
<stop stop-color="#D453B5"/>
<stop offset="0.27" stop-color="#D759B8"/>
<stop offset="0.62" stop-color="#DF69C2"/>
<stop offset="1" stop-color="#EB83D2"/>
</linearGradient>
<linearGradient id="paint17_linear_5838_13179" x1="415.35" y1="246.72" x2="456.38" y2="246.72" gradientUnits="userSpaceOnUse">
<stop stop-color="#DAE0F5"/>
<stop offset="1" stop-color="white"/>
</linearGradient>
<clipPath id="clip0_5838_13179">
<rect width="480" height="320" fill="white"/>
</clipPath>
</defs>
</svg>
