<svg width="32" height="32" viewBox="0 0 32 32" fill="none" xmlns="http://www.w3.org/2000/svg">
<path d="M23.2 18.4V23.2M23.2 23.2V28M23.2 23.2H28M23.2 23.2H18.4M13.6 8.8C13.6 11.451 11.451 13.6 8.8 13.6C6.14903 13.6 4 11.451 4 8.8C4 6.14903 6.14903 4 8.8 4C11.451 4 13.6 6.14903 13.6 8.8ZM13.6 23.2C13.6 25.851 11.451 28 8.8 28C6.14903 28 4 25.851 4 23.2C4 20.549 6.14903 18.4 8.8 18.4C11.451 18.4 13.6 20.549 13.6 23.2ZM28 8.8C28 11.451 25.851 13.6 23.2 13.6C20.549 13.6 18.4 11.451 18.4 8.8C18.4 6.14903 20.549 4 23.2 4C25.851 4 28 6.14903 28 8.8Z" stroke="#484848" stroke-width="1.5" stroke-linecap="round"/>
</svg>
