<svg width="800" height="360" viewBox="0 0 800 360" fill="none" xmlns="http://www.w3.org/2000/svg">
<path d="M625.31 275.14C624.344 274.647 623.275 274.389 622.19 274.389C621.105 274.389 620.036 274.647 619.07 275.14C617.35 276.14 617.35 277.75 619.07 278.74C620.036 279.233 621.105 279.491 622.19 279.491C623.275 279.491 624.344 279.233 625.31 278.74C627 277.75 627 276.13 625.31 275.14ZM579.48 248.68C578.514 248.187 577.445 247.929 576.36 247.929C575.275 247.929 574.206 248.187 573.24 248.68C571.52 249.68 571.52 251.29 573.24 252.28C574.206 252.773 575.275 253.031 576.36 253.031C577.445 253.031 578.514 252.773 579.48 252.28C581.21 251.29 581.21 249.67 579.48 248.68ZM634.35 287.56C635.316 288.053 636.385 288.311 637.47 288.311C638.555 288.311 639.624 288.053 640.59 287.56C642.32 286.56 642.32 284.95 640.59 283.96C639.624 283.467 638.555 283.209 637.47 283.209C636.385 283.209 635.316 283.467 634.35 283.96C632.62 285 632.62 286.57 634.35 287.56ZM588.52 261.1C589.486 261.593 590.555 261.851 591.64 261.851C592.725 261.851 593.794 261.593 594.76 261.1C596.48 260.1 596.48 258.49 594.76 257.5C593.794 257.007 592.725 256.749 591.64 256.749C590.555 256.749 589.486 257.007 588.52 257.5C586.79 258.49 586.79 260.11 588.52 261.1ZM603.79 269.92C604.758 270.413 605.829 270.669 606.915 270.669C608.001 270.669 609.072 270.413 610.04 269.92C611.76 268.92 611.76 267.31 610.04 266.32C609.072 265.827 608.001 265.571 606.915 265.571C605.829 265.571 604.758 265.827 603.79 266.32C602.07 267.31 602.07 268.93 603.79 269.92ZM575.79 268.42C576.758 268.913 577.829 269.169 578.915 269.169C580.001 269.169 581.072 268.913 582.04 268.42C583.76 267.42 583.76 265.81 582.04 264.82C581.072 264.327 580.001 264.071 578.915 264.071C577.829 264.071 576.758 264.327 575.79 264.82C574.11 265.81 574.11 267.43 575.83 268.42H575.79ZM591.07 277.24C592.038 277.733 593.109 277.989 594.195 277.989C595.281 277.989 596.352 277.733 597.32 277.24C599.04 276.24 599.04 274.63 597.32 273.64C596.352 273.147 595.281 272.891 594.195 272.891C593.109 272.891 592.038 273.147 591.07 273.64C589.39 274.63 589.39 276.25 591.11 277.24H591.07ZM621.63 294.89C622.598 295.378 623.666 295.632 624.75 295.632C625.834 295.632 626.902 295.378 627.87 294.89C629.59 293.89 629.59 292.28 627.87 291.28C626.904 290.787 625.835 290.529 624.75 290.529C623.665 290.529 622.596 290.787 621.63 291.28C619.94 292.28 619.94 293.89 621.67 294.89H621.63ZM612.63 282.46C611.664 281.967 610.595 281.709 609.51 281.709C608.425 281.709 607.356 281.967 606.39 282.46C604.67 283.46 604.67 285.07 606.39 286.06C607.356 286.553 608.425 286.811 609.51 286.811C610.595 286.811 611.664 286.553 612.63 286.06C614.36 285.07 614.36 283.45 612.63 282.46ZM566.8 256C565.834 255.507 564.765 255.249 563.68 255.249C562.595 255.249 561.526 255.507 560.56 256C558.83 257 558.83 258.61 560.56 259.6C561.526 260.093 562.595 260.351 563.68 260.351C564.765 260.351 565.834 260.093 566.8 259.6C568.53 258.61 568.53 257 566.8 256ZM554.12 263.32C553.154 262.827 552.085 262.569 551 262.569C549.915 262.569 548.846 262.827 547.88 263.32C546.15 264.32 546.15 265.93 547.88 266.93C548.848 267.418 549.916 267.672 551 267.672C552.084 267.672 553.152 267.418 554.12 266.93C555.84 265.93 555.84 264.32 554.12 263.32ZM563.12 275.75C564.091 276.234 565.16 276.486 566.245 276.486C567.33 276.486 568.399 276.234 569.37 275.75C571.09 274.75 571.09 273.14 569.37 272.14C568.399 271.656 567.33 271.404 566.245 271.404C565.16 271.404 564.091 271.656 563.12 272.14C561.43 273.14 561.43 274.75 563.15 275.75H563.12ZM578.4 284.57C579.368 285.058 580.436 285.312 581.52 285.312C582.604 285.312 583.672 285.058 584.64 284.57C586.37 283.57 586.37 281.96 584.64 280.96C583.672 280.472 582.604 280.218 581.52 280.218C580.436 280.218 579.368 280.472 578.4 280.96C576.71 282 576.71 283.57 578.43 284.57H578.4ZM600 289.78C599.032 289.292 597.964 289.038 596.88 289.038C595.796 289.038 594.728 289.292 593.76 289.78C592.03 290.78 592.03 292.39 593.76 293.39C594.728 293.878 595.796 294.132 596.88 294.132C597.964 294.132 599.032 293.878 600 293.39C601.68 292.39 601.68 290.78 600 289.78ZM609 302.21C609.971 302.694 611.04 302.946 612.125 302.946C613.21 302.946 614.279 302.694 615.25 302.21C616.97 301.21 616.97 299.6 615.25 298.6C614.279 298.116 613.21 297.864 612.125 297.864C611.04 297.864 609.971 298.116 609 298.6C607.26 299.6 607.26 301.21 609 302.21Z" fill="#F1F1F6"/>
<path d="M173.37 278.74C174.336 279.233 175.405 279.491 176.49 279.491C177.575 279.491 178.644 279.233 179.61 278.74C181.34 277.74 181.34 276.13 179.61 275.14C178.644 274.647 177.575 274.389 176.49 274.389C175.405 274.389 174.336 274.647 173.37 275.14C171.64 276.13 171.64 277.75 173.37 278.74ZM219.2 252.28C220.166 252.773 221.235 253.031 222.32 253.031C223.405 253.031 224.474 252.773 225.44 252.28C227.17 251.28 227.17 249.67 225.44 248.68C224.474 248.187 223.405 247.929 222.32 247.929C221.235 247.929 220.166 248.187 219.2 248.68C217.48 249.67 217.48 251.29 219.2 252.28ZM164.34 284C163.372 283.507 162.301 283.251 161.215 283.251C160.129 283.251 159.058 283.507 158.09 284C156.37 285 156.37 286.61 158.09 287.6C159.058 288.093 160.129 288.349 161.215 288.349C162.301 288.349 163.372 288.093 164.34 287.6C166.06 286.57 166.06 285 164.34 284ZM210.17 257.54C209.202 257.047 208.131 256.791 207.045 256.791C205.959 256.791 204.888 257.047 203.92 257.54C202.2 258.54 202.2 260.15 203.92 261.14C204.888 261.633 205.959 261.889 207.045 261.889C208.131 261.889 209.202 261.633 210.17 261.14C211.89 260.11 211.89 258.49 210.17 257.5V257.54ZM194.89 266.36C193.924 265.867 192.855 265.609 191.77 265.609C190.685 265.609 189.616 265.867 188.65 266.36C186.92 267.36 186.92 268.97 188.65 269.96C189.616 270.453 190.685 270.711 191.77 270.711C192.855 270.711 193.924 270.453 194.89 269.96C196.61 268.93 196.61 267.31 194.89 266.32V266.36ZM222.89 264.86C221.924 264.367 220.855 264.109 219.77 264.109C218.685 264.109 217.616 264.367 216.65 264.86C214.92 265.86 214.92 267.47 216.65 268.46C217.616 268.953 218.685 269.211 219.77 269.211C220.855 269.211 221.924 268.953 222.89 268.46C224.57 267.43 224.57 265.81 222.85 264.82L222.89 264.86ZM207.61 273.68C206.644 273.187 205.575 272.929 204.49 272.929C203.405 272.929 202.336 273.187 201.37 273.68C199.64 274.68 199.64 276.29 201.37 277.28C202.336 277.773 203.405 278.031 204.49 278.031C205.575 278.031 206.644 277.773 207.61 277.28C209.3 276.25 209.3 274.63 207.57 273.64L207.61 273.68ZM177 291.28C176.032 290.787 174.961 290.531 173.875 290.531C172.789 290.531 171.718 290.787 170.75 291.28C169.03 292.28 169.03 293.89 170.75 294.89C171.721 295.374 172.79 295.626 173.875 295.626C174.96 295.626 176.029 295.374 177 294.89C178.74 293.89 178.74 292.28 177 291.28ZM186 286.06C186.968 286.553 188.039 286.809 189.125 286.809C190.211 286.809 191.282 286.553 192.25 286.06C193.97 285.06 193.97 283.45 192.25 282.46C191.282 281.967 190.211 281.711 189.125 281.711C188.039 281.711 186.968 281.967 186 282.46C184.33 283.45 184.33 285.07 186.05 286.06H186ZM231.83 259.6C232.798 260.093 233.869 260.349 234.955 260.349C236.041 260.349 237.112 260.093 238.08 259.6C239.8 258.6 239.8 256.99 238.08 256C237.112 255.507 236.041 255.251 234.955 255.251C233.869 255.251 232.798 255.507 231.83 256C230.16 257 230.16 258.61 231.88 259.6H231.83ZM244.51 266.93C245.481 267.414 246.55 267.666 247.635 267.666C248.72 267.666 249.789 267.414 250.76 266.93C252.48 265.93 252.48 264.32 250.76 263.32C249.792 262.827 248.721 262.571 247.635 262.571C246.549 262.571 245.478 262.827 244.51 263.32C242.84 264.32 242.84 265.93 244.56 266.93H244.51ZM235.51 272.14C234.542 271.652 233.474 271.398 232.39 271.398C231.306 271.398 230.238 271.652 229.27 272.14C227.54 273.14 227.54 274.75 229.27 275.75C230.238 276.238 231.306 276.492 232.39 276.492C233.474 276.492 234.542 276.238 235.51 275.75C237.26 274.75 237.26 273.14 235.53 272.14H235.51ZM220.25 281C219.282 280.512 218.214 280.258 217.13 280.258C216.046 280.258 214.978 280.512 214.01 281C212.28 282 212.28 283.61 214.01 284.61C214.978 285.098 216.046 285.352 217.13 285.352C218.214 285.352 219.282 285.098 220.25 284.61C222 283.57 222 282 220.25 281ZM198.73 293.43C199.701 293.914 200.77 294.166 201.855 294.166C202.94 294.166 204.009 293.914 204.98 293.43C206.7 292.43 206.7 290.82 204.98 289.82C204.009 289.336 202.94 289.084 201.855 289.084C200.77 289.084 199.701 289.336 198.73 289.82C197 290.78 197 292.39 198.73 293.39V293.43ZM189.73 298.64C188.759 298.156 187.69 297.904 186.605 297.904C185.52 297.904 184.451 298.156 183.48 298.64C181.76 299.64 181.76 301.25 183.48 302.25C184.451 302.734 185.52 302.986 186.605 302.986C187.69 302.986 188.759 302.734 189.73 302.25C191.42 301.21 191.42 299.6 189.7 298.6L189.73 298.64Z" fill="#F1F1F6"/>
<path d="M145.78 312.8L155.95 318.67L145.78 324.55L135.6 318.67L145.78 312.8Z" fill="#807DFB"/>
<path d="M135.6 318.67L145.78 324.55V336.29L135.6 330.42V318.67Z" fill="#5652CC"/>
<path d="M155.95 318.67L145.78 324.55V336.29L155.95 330.42V318.67Z" fill="#423EAF"/>
<g style="mix-blend-mode:multiply">
<path d="M250.49 307.54C243.82 303.69 232.99 303.69 226.32 307.54C219.65 311.39 219.65 317.65 226.32 321.54C232.99 325.43 243.82 325.39 250.49 321.54C257.16 317.69 257.16 311.4 250.49 307.54ZM230.08 319.33C225.49 316.67 225.49 312.33 230.08 309.72C234.67 307.11 242.08 307.06 246.73 309.72C251.38 312.38 251.32 316.67 246.73 319.33C242.14 321.99 234.68 322 230.08 319.33Z" fill="#F1F1F6"/>
</g>
<g style="mix-blend-mode:multiply">
<path d="M562.45 186.3L573.74 192.81C575.46 193.81 575.25 195.54 573.26 196.69L562.93 202.69C561.911 203.258 560.774 203.579 559.608 203.628C558.443 203.676 557.282 203.451 556.22 202.97L544.93 196.45C543.21 195.45 543.43 193.72 545.41 192.58L555.74 186.58C556.758 186.011 557.896 185.69 559.062 185.641C560.227 185.592 561.388 185.818 562.45 186.3Z" fill="#F1F1F6"/>
</g>
<g style="mix-blend-mode:multiply">
<path d="M656.63 204.42L664.25 208.81C665.41 209.48 665.25 210.65 663.92 211.43L656.92 215.43C656.233 215.816 655.465 216.035 654.678 216.068C653.891 216.101 653.107 215.947 652.39 215.62L644.77 211.22C643.61 210.55 643.77 209.38 645.1 208.61L652.1 204.61C652.787 204.224 653.555 204.005 654.342 203.972C655.129 203.939 655.913 204.092 656.63 204.42Z" fill="#F1F1F6"/>
</g>
<g style="mix-blend-mode:multiply">
<path d="M213.56 218.52L221.18 222.92C222.34 223.59 222.18 224.76 220.85 225.54L213.85 229.54C213.163 229.925 212.394 230.142 211.607 230.173C210.819 230.204 210.036 230.049 209.32 229.72L201.7 225.33C200.54 224.66 200.7 223.49 202.03 222.71L209.03 218.71C209.717 218.324 210.485 218.105 211.272 218.072C212.059 218.039 212.843 218.193 213.56 218.52Z" fill="#F1F1F6"/>
</g>
<path d="M654.18 313.09L664.36 318.96L654.18 324.83L644.01 318.96L654.18 313.09Z" fill="#E56EC9"/>
<path d="M644.01 318.96L654.18 324.83V336.58L644.01 330.71V318.96Z" fill="#D453B5"/>
<path d="M664.36 318.96L654.18 324.83V336.58L664.36 330.71V318.96Z" fill="#B8429B"/>
<path style="mix-blend-mode:multiply" d="M654.18 336.58H680.41V324.83H664.36V330.71L654.18 336.58Z" fill="url(#paint0_linear_5577_11823)"/>
<g style="mix-blend-mode:multiply">
<path d="M92.75 360H145.23V235.68L92.75 265.98V360Z" fill="url(#paint1_linear_5577_11823)"/>
<path d="M92.75 360H40.27V235.68L92.75 265.98V360Z" fill="url(#paint2_linear_5577_11823)"/>
<path d="M92.75 265.98L40.27 235.68L92.75 205.38L145.23 235.68L92.75 265.98Z" fill="#F1F3F9"/>
</g>
<g style="mix-blend-mode:multiply">
<path d="M707.48 360H759.96V235.68L707.48 265.98V360Z" fill="url(#paint3_linear_5577_11823)"/>
<path d="M707.48 360H655V235.68L707.48 265.98V360Z" fill="url(#paint4_linear_5577_11823)"/>
<path d="M707.48 265.98L655 235.68L707.48 205.38L759.96 235.68L707.48 265.98Z" fill="#F1F3F9"/>
</g>
<path style="mix-blend-mode:multiply" d="M338.24 241.52H364.47V229.77H348.41V235.64L338.24 241.52Z" fill="url(#paint5_linear_5577_11823)"/>
<path style="mix-blend-mode:multiply" d="M268.47 134.92H237.74L240.12 139.27H268.47V134.92Z" fill="url(#paint6_linear_5577_11823)"/>
<path d="M235.8 133.78C234.66 133.96 234.33 135.78 234.9 136.96C235.269 137.286 235.692 137.547 236.15 137.73C237.587 138.343 239.063 138.858 240.57 139.27C241.38 139.34 243.18 139.04 243.33 137.65C243.19 136.8 242.48 136.57 241.6 136.05C240.47 135.38 239.49 134.4 238.6 133.95C237.685 133.721 236.736 133.664 235.8 133.78Z" fill="url(#paint7_linear_5577_11823)"/>
<path d="M240.54 138.9C238.989 138.477 237.469 137.95 235.99 137.32C235.541 137.13 235.123 136.874 234.75 136.56C234.79 136.697 234.84 136.831 234.9 136.96C235.269 137.286 235.692 137.547 236.15 137.73C237.587 138.343 239.063 138.858 240.57 139.27C241.38 139.34 243.18 139.04 243.33 137.65C243.326 137.624 243.326 137.597 243.33 137.57C242.92 138.71 241.31 139 240.54 138.9Z" fill="#131147"/>
<path d="M238.26 132.55C237.429 132.804 236.614 133.108 235.82 133.46C235.834 133.645 235.803 133.83 235.73 134C235.728 134.027 235.728 134.053 235.73 134.08C235.39 134.41 235.03 134.99 236.08 135.32C238.08 135.96 239.84 134.6 239.08 134.14C238.45 133.83 238.33 133 238.26 132.55Z" fill="white"/>
<path d="M239.34 134.41C239.18 134.21 238.83 133.68 238.21 134.12C237.958 134.269 237.755 134.488 237.627 134.752C237.499 135.015 237.451 135.31 237.49 135.6C237.57 136.06 238.91 135.72 238.96 135.65C239.01 135.58 239.34 134.41 239.34 134.41Z" fill="url(#paint8_linear_5577_11823)"/>
<path d="M235 106C236.73 111 239.91 114.92 239.74 118.68C239.42 125.68 239.29 129.02 239.22 134.25C238.22 135.49 235.67 135.18 235.14 134.25C234.47 129.51 233.14 124.88 233.73 119.38C230.61 114.38 226.93 112.46 227.57 107.1C229 107.52 233.45 105.49 235 106Z" fill="#3B3BA3"/>
<path style="mix-blend-mode:multiply" d="M260.08 141.67H227.68L230.18 146.06H260.08V141.67Z" fill="url(#paint9_linear_5577_11823)"/>
<path d="M225.63 140.26C224.43 140.46 224.08 142.4 224.68 143.62C225.071 143.963 225.517 144.237 226 144.43C227.515 145.077 229.072 145.622 230.66 146.06C231.51 146.13 233.41 145.81 233.57 144.35C233.42 143.45 232.67 143.21 231.75 142.66C230.55 141.95 229.52 140.92 228.56 140.44C227.602 140.203 226.61 140.142 225.63 140.26Z" fill="url(#paint10_linear_5577_11823)"/>
<path d="M230.63 145.67C228.997 145.219 227.397 144.657 225.84 143.99C225.36 143.795 224.915 143.525 224.52 143.19C224.563 143.337 224.616 143.481 224.68 143.62C225.071 143.963 225.517 144.237 226 144.43C227.515 145.077 229.072 145.622 230.66 146.06C231.51 146.13 233.41 145.81 233.57 144.35C233.565 144.32 233.565 144.29 233.57 144.26C233.14 145.46 231.44 145.73 230.63 145.67Z" fill="#131147"/>
<path d="M228.22 139C227.344 139.28 226.485 139.614 225.65 140C225.663 140.195 225.629 140.391 225.55 140.57V140.65C225.19 141 224.81 141.65 225.91 141.96C228.05 142.64 229.91 141.2 229.03 140.72C228.43 140.32 228.3 139.43 228.22 139Z" fill="white"/>
<path d="M229.36 140.93C229.2 140.72 228.83 140.16 228.17 140.62C227.906 140.778 227.694 141.01 227.561 141.287C227.427 141.565 227.378 141.875 227.42 142.18C227.5 142.67 228.91 142.31 228.96 142.24C229.01 142.17 229.36 140.93 229.36 140.93Z" fill="url(#paint11_linear_5577_11823)"/>
<path d="M228.7 103C228.7 109.59 228.76 114.72 228.76 120.47C228.76 127.04 229.27 135.19 229.2 140.7C228.14 142.01 225.46 141.7 224.89 140.7C224.19 135.7 222.63 128.08 223.02 122.62C221.36 115.43 219.75 106.97 220.43 101.32C222 101.83 227.1 102.53 228.7 103Z" fill="url(#paint12_linear_5577_11823)"/>
<path d="M250.54 104.49C251.174 104.318 251.743 103.962 252.176 103.468C252.608 102.973 252.884 102.361 252.97 101.71C252.588 101.635 252.192 101.678 251.834 101.833C251.477 101.989 251.176 102.249 250.97 102.58C250.765 102.849 250.621 103.158 250.547 103.488C250.472 103.818 250.47 104.159 250.54 104.49Z" fill="#423EAF"/>
<path d="M251.44 101.49L252.44 102.1C252.973 102.263 253.536 102.311 254.089 102.241C254.643 102.17 255.175 101.982 255.65 101.69C256.65 100.99 256.53 102.69 255.43 103.03C254.33 103.37 254.23 103.75 255.81 104.36C256.454 104.607 257.025 105.013 257.47 105.54C257.95 106.23 258.35 107.65 257.3 108.1C256.45 108.47 254.4 107.03 253.77 106.63C252.05 105.51 252.5 105.21 251.54 104.51C250.58 103.81 250.35 103.79 250.35 103.79L251.44 101.49Z" fill="#FCD1A9"/>
<path d="M236.69 84.5901C239.05 85.9001 242.69 94.4001 243.69 95.7401C244.69 97.0801 252.97 101.74 252.97 101.74C252.621 101.743 252.277 101.82 251.96 101.965C251.643 102.111 251.36 102.322 251.131 102.584C250.901 102.847 250.73 103.155 250.628 103.489C250.526 103.823 250.496 104.174 250.54 104.52C249.59 103.99 243.04 101.35 240.03 98.5701C238.453 97.0741 237.201 95.2701 236.35 93.2701C234 87.4301 236.69 84.5901 236.69 84.5901Z" fill="url(#paint13_linear_5577_11823)"/>
<path d="M224.41 87.0001C225.8 85.2601 229.22 82.8301 231.46 82.6601C233.122 82.5672 234.763 83.07 236.088 84.078C237.413 85.086 238.336 86.5333 238.69 88.1601C239.17 90.7001 234.47 103.51 235.29 106.88C234.88 108.66 231.93 109.62 230.69 109.88C225.32 111.06 219.88 110.31 219.82 106.88C219.62 95.5001 222.4 89.0001 224.41 87.0001Z" fill="url(#paint14_linear_5577_11823)"/>
<path d="M232 111.93C232.16 112.15 232.57 114.57 230.73 114.93C230.506 114.674 230.359 114.36 230.305 114.025C230.251 113.689 230.292 113.345 230.425 113.032C230.558 112.719 230.776 112.449 231.054 112.255C231.333 112.06 231.66 111.947 232 111.93Z" fill="#423EAF"/>
<path d="M231 111.73L232 112.33C232.535 112.496 233.099 112.546 233.655 112.475C234.21 112.404 234.744 112.215 235.22 111.92C236.22 111.22 236.1 112.92 234.99 113.26C233.88 113.6 233.79 113.98 235.37 114.59C236.018 114.835 236.593 115.241 237.04 115.77C237.51 116.47 237.91 117.88 236.86 118.34C236.01 118.7 233.96 117.27 233.34 116.86C231.61 115.74 232.06 115.44 231.1 114.75C230.749 114.439 230.346 114.192 229.91 114.02L231 111.73Z" fill="#FCD1A9"/>
<path d="M226.87 87.1C225.74 86.63 223.7 86.34 222.49 89.84C221.8 91.84 221.21 98.84 222.1 102.32C223.333 107.464 226.411 111.976 230.75 115C230.536 114.433 230.548 113.804 230.784 113.246C231.021 112.687 231.463 112.241 232.02 112C229.02 108.55 226.86 104.06 226.86 101.85C226.917 98.3815 227.231 94.922 227.8 91.5C228.36 89.07 228 87.56 226.87 87.1Z" fill="#8585FF"/>
<path d="M231 77.6099C230.86 76.3799 235.12 78.8899 234.95 80.5199C234.81 81.8499 234.42 83.0199 235.77 83.8499C236.23 84.2199 237.77 86.7899 235.38 86.8499C231.9 86.8499 230.97 85.9399 228.45 83.7799C229.94 82.8999 231.44 81.6099 231 77.6099Z" fill="#FCD1A9"/>
<path d="M230 76.8799L231.73 74.4399H239.28V78.9999C239.28 81.5099 237.59 83.5499 235.51 83.5499C234.446 83.5165 233.436 83.0735 232.691 82.3133C231.945 81.5531 231.522 80.5345 231.51 79.4699L230.59 79.1499L230 76.8799Z" fill="#FCD1A9"/>
<path d="M235.31 84.74C233.51 84.74 231.31 81.84 231.49 79.45C231.549 80.4732 231.968 81.4426 232.673 82.1873C233.377 82.9319 234.322 83.4039 235.34 83.52C235.468 83.6438 235.609 83.7544 235.76 83.85L235.88 83.97C235.88 84.34 235.64 84.74 235.31 84.74Z" fill="#F2C39D"/>
<path d="M238.82 72.39C239.51 72.27 239.57 71.7 236.82 70.73C235.989 70.286 235.066 70.0438 234.124 70.023C233.183 70.0021 232.249 70.2032 231.4 70.61C230.488 71.1423 229.774 71.9572 229.366 72.9316C228.958 73.9059 228.879 74.9866 229.14 76.01C229.463 77.6131 230.087 79.1402 230.98 80.51C231.2 80.73 231.23 79.67 231.05 78.88C230.91 78.6814 230.82 78.4513 230.79 78.21C230.25 75.86 231.69 76.21 231.88 76.41C232.33 76.59 231.47 78.53 232.77 78.34C233.39 78.25 233.31 76.5 233.31 75.88L233.59 75.95C234.66 76.55 238.3 76.95 236.28 75.72C237.68 75.72 239.6 76.37 240.28 75.48C241 74.41 239.74 73.25 238.82 72.39Z" fill="#20196F"/>
<path style="mix-blend-mode:multiply" d="M472.66 254.66H433.07L468.55 275.14L464.31 277.6H503.89L508.14 275.14L472.66 254.66Z" fill="url(#paint15_linear_5577_11823)"/>
<path style="mix-blend-mode:multiply" d="M517.4 228.82H477.82L513.3 249.31L509.06 251.76H548.64L552.88 249.31L517.4 228.82Z" fill="url(#paint16_linear_5577_11823)"/>
<path style="mix-blend-mode:multiply" d="M562.15 202.99H522.57L558.05 223.48L553.8 225.93H593.38L597.63 223.48L562.15 202.99Z" fill="url(#paint17_linear_5577_11823)"/>
<path style="mix-blend-mode:multiply" d="M597.89 162.55H564.9L596.14 183.04V185.49H629.12L633.37 183.04L597.89 162.55Z" fill="url(#paint18_linear_5577_11823)"/>
<path d="M244.14 225.93V203.07L239.9 200.62V223.48L244.14 225.93Z" fill="#8585FF"/>
<path d="M244.14 203.07L279.62 182.59V205.44L244.14 225.93V203.07Z" fill="#4949B8"/>
<path style="mix-blend-mode:multiply" d="M283.72 225.93L319.2 205.44H279.62L244.14 225.93H283.72Z" fill="url(#paint19_linear_5577_11823)"/>
<path d="M288.89 251.76V228.91L284.64 226.46V249.31L288.89 251.76Z" fill="#8585FF"/>
<path d="M288.89 228.91L324.37 208.42V231.28L288.89 251.76V228.91Z" fill="#4949B8"/>
<path style="mix-blend-mode:multiply" d="M328.47 251.76L363.95 231.28H324.37L288.89 251.76H328.47Z" fill="url(#paint20_linear_5577_11823)"/>
<path d="M333.63 277.6V254.74L329.39 252.29V275.14L333.63 277.6Z" fill="#8585FF"/>
<path d="M333.63 254.74L369.11 234.26V257.11L333.63 277.6V254.74Z" fill="#4949B8"/>
<path style="mix-blend-mode:multiply" d="M373.22 277.6L408.7 257.11H369.11L333.63 277.6H373.22Z" fill="url(#paint21_linear_5577_11823)"/>
<path d="M553.8 225.93V203.07L558.05 200.62V223.48L553.8 225.93Z" fill="#8585FF"/>
<path d="M553.8 203.07L518.32 182.59V205.44L553.8 225.93V203.07Z" fill="#4949B8"/>
<path d="M509.06 251.76V228.91L513.3 226.46V249.31L509.06 251.76Z" fill="#8585FF"/>
<path d="M509.06 228.91L473.57 208.42V231.28L509.06 251.76V228.91Z" fill="#4949B8"/>
<path d="M464.31 277.6V254.74L468.55 252.29V275.14L464.31 277.6Z" fill="#8585FF"/>
<path d="M464.31 254.74L428.83 234.26V257.11L464.31 277.6V254.74Z" fill="#4949B8"/>
<path style="mix-blend-mode:multiply" d="M435.85 273.88H401.86V298.36H435.85V273.88Z" fill="url(#paint22_linear_5577_11823)"/>
<path d="M401.86 275.51H396.08V298.36H401.86V275.51Z" fill="#8585FF"/>
<path d="M596.14 162.64H590.98V185.49H596.14V162.64Z" fill="#5652CC"/>
<path d="M206.96 162.64H201.8V185.49H206.96V162.64Z" fill="#8585FF"/>
<path d="M576.52 129.38L455.12 59.29C424.12 41.39 373.83 41.39 342.82 59.29L221.42 129.38C190.42 147.29 190.42 176.31 221.42 194.22L264.78 169.22C257.71 165.14 257.71 158.52 264.78 154.44L386.17 84.34C393.24 80.26 404.7 80.26 411.77 84.34L533.14 154.41C540.21 158.49 540.21 165.11 533.14 169.19L576.51 194.19C607.53 176.32 607.53 147.29 576.52 129.38Z" fill="#F1F1F6"/>
<path d="M599.72 163.59C598.97 174.72 591.24 185.72 576.53 194.22V197.79C592.82 188.38 600.54 175.91 599.72 163.59Z" fill="url(#paint23_linear_5577_11823)"/>
<path d="M198.23 163.59C197.4 175.91 205.13 188.38 221.42 197.79V194.22C206.7 185.72 199 174.72 198.23 163.59Z" fill="url(#paint24_linear_5577_11823)"/>
<path d="M411.77 84.3401L413.82 85.5201L457.18 60.5201L455.18 59.3401L411.77 84.3401ZM426.69 93.0001L428.69 94.1801L472.06 69.1801L470.01 68.0001L426.69 93.0001ZM441.61 101.61L443.61 102.79L486.97 77.7901L484.97 76.6001L441.61 101.61ZM456.52 110.22L458.52 111.4L501.89 86.4001L499.84 85.2201L456.52 110.22ZM471.44 118.83L473.44 120.01L516.8 95.0101L514.8 93.8301L471.44 118.83ZM486.35 127.45L488.35 128.63L531.71 103.63L529.71 102.45L486.35 127.45ZM501.27 136L503.27 137.18L546.63 112.18L544.63 111L501.27 136ZM516.18 144.61L518.23 145.79L561.59 120.79L559.59 119.61L516.18 144.61ZM531.1 153.22L533.1 154.4L576.47 129.4L574.47 128.22L531.1 153.22ZM266.85 153.22L223.48 128.22L221.48 129.4L264.84 154.4L266.85 153.22ZM281.76 144.61L238.4 119.61L236.35 120.79L279.72 145.79L281.76 144.61ZM296.68 136L253.31 111L251.31 112.18L294.67 137.18L296.68 136ZM311.59 127.38L268.23 102.38L266.18 103.56L309.55 128.56L311.59 127.38ZM326.51 118.77L283.14 93.7701L281.14 94.9501L324.5 119.95L326.51 118.77ZM341.42 110.16L298.06 85.1601L296 86.3201L339.37 111.32L341.42 110.16ZM356.34 101.55L313 76.5201L311 77.7001L354.36 102.7L356.34 101.55ZM371.25 93.0001L327.89 68.0001L325.84 69.1801L369.21 94.1801L371.25 93.0001ZM386.17 84.3901L342.8 59.3901L340.8 60.5701L384.16 85.5701L386.17 84.3901ZM536.11 166.97L591.89 181.8C592.31 181.3 592.71 180.8 593.1 180.28L537.32 165.4C536.971 165.948 536.565 166.457 536.11 166.92V166.97ZM392.74 81.9701L367 49.7201C366.12 49.9401 365.25 50.1801 364.38 50.4201L390.07 82.6201C391 82.3501 391.84 82.1101 392.74 81.9201V81.9701ZM538.38 162.69H599.76C599.76 162.13 599.76 161.57 599.76 161.02H538.38C538.446 161.558 538.446 162.102 538.38 162.64V162.69ZM593.1 143.42C592.71 142.91 592.31 142.42 591.89 141.9L536.11 156.74C536.565 157.2 536.971 157.706 537.32 158.25L593.1 143.42ZM400.42 81.3201V45.8701H397.53V81.3201C398.493 81.2701 399.457 81.2701 400.42 81.3201ZM261.83 156.69L206.05 141.85C205.63 142.35 205.23 142.85 204.84 143.37L260.62 158.2C260.969 157.656 261.375 157.15 261.83 156.69ZM430.9 49.6901L405.2 81.8901C406.1 82.0801 406.98 82.3201 407.83 82.5901L433.52 50.3901C432.65 50.1801 431.78 49.9401 430.9 49.7201V49.6901ZM259.57 161H198.18C198.18 161.55 198.18 162.11 198.18 162.67H259.57C259.49 162.116 259.49 161.554 259.57 161ZM204.84 180.26C205.23 180.77 205.63 181.26 206.05 181.78L261.83 166.95C261.375 166.487 260.969 165.978 260.62 165.43L204.84 180.26Z" fill="#DFE4F4"/>
<path d="M533.14 154.41L411.77 84.34C404.7 80.26 393.24 80.26 386.17 84.34L264.8 154.41C260.48 156.91 258.8 160.35 259.8 163.59C260.41 161.53 262.08 159.59 264.8 157.98L386.17 87.91C393.24 83.83 404.7 83.83 411.77 87.91L533.14 158C535.89 159.59 537.55 161.55 538.14 163.61C539.13 160.35 537.47 156.91 533.14 154.41Z" fill="url(#paint25_linear_5577_11823)"/>
<path d="M402.85 11.6899L516.91 77.5399C519.05 78.7799 518.78 80.9299 516.31 82.3599L403.45 147.52C400.98 148.95 397.24 149.1 395.1 147.87L281 81.9999C278.86 80.7699 279.12 78.6099 281.6 77.1799L394.5 11.9999C397 10.6099 400.71 10.4499 402.85 11.6899Z" fill="#F1F1F6"/>
<path d="M518.34 79.78C518.239 80.3393 518.004 80.8659 517.656 81.3151C517.308 81.7643 516.856 82.1227 516.34 82.36L403.45 147.52C400.98 148.95 397.24 149.1 395.1 147.87L281 82C280.569 81.8091 280.203 81.4963 279.947 81.1001C279.691 80.7039 279.557 80.2416 279.56 79.77V184.65C279.555 185.123 279.688 185.588 279.944 185.986C280.2 186.384 280.567 186.698 281 186.89L395.1 252.74C397.24 253.98 400.98 253.83 403.45 252.4L516.31 187.24C516.828 187.002 517.28 186.642 517.628 186.191C517.976 185.74 518.21 185.211 518.31 184.65V79.78H518.34Z" fill="url(#paint26_linear_5577_11823)"/>
<path d="M355.84 157.18L320.3 136.66C318.77 135.78 317.53 136.49 317.53 138.26V182.49L357.79 159.25C357.327 158.405 356.656 157.693 355.84 157.18Z" fill="url(#paint27_linear_5577_11823)"/>
<path d="M317.53 182.49L358.6 206.21V162C358.567 161.039 358.288 160.102 357.79 159.28L317.53 182.49Z" fill="url(#paint28_linear_5577_11823)"/>
<path style="mix-blend-mode:multiply" d="M358.6 162C358.567 161.039 358.288 160.102 357.79 159.28L317.53 182.52H358.6V162Z" fill="url(#paint29_linear_5577_11823)"/>
<path d="M442.11 157.18L477.65 136.66C479.17 135.78 480.41 136.49 480.41 138.26V182.49L440.15 159.25C440.614 158.403 441.289 157.689 442.11 157.18Z" fill="url(#paint30_linear_5577_11823)"/>
<path d="M480.41 182.49L439.34 206.21V162C439.373 161.039 439.652 160.102 440.15 159.28L480.41 182.49Z" fill="url(#paint31_linear_5577_11823)"/>
<path style="mix-blend-mode:multiply" d="M399 125.37H441.86L516.36 82.37C518.83 80.94 519.1 78.79 516.96 77.55L450.16 39H399V125.37Z" fill="url(#paint32_linear_5577_11823)"/>
<path d="M533.14 169.19L411.77 239.26C404.7 243.35 393.24 243.35 386.17 239.26L264.8 169.19L221.44 194.19L342.82 264.27C373.82 282.18 424.11 282.18 455.12 264.27L576.51 194.19L533.14 169.19Z" fill="#F1F1F6"/>
<path d="M533.14 169.19L531.14 170.37L574.5 195.37L576.5 194.19L533.14 169.19ZM516.14 178.99L559.51 203.99L561.51 202.81L518.15 177.81L516.14 178.99ZM501.23 187.6L544.59 212.6L546.59 211.42L503.22 186.42L501.23 187.6ZM486.31 196.21L529.68 221.21L531.68 220.03L488.4 195L486.31 196.21ZM471.4 204.82L514.76 229.82L516.76 228.64L473.4 203.64L471.4 204.82ZM456.48 213.43L499.85 238.43L501.85 237.25L458.49 212.25L456.48 213.43ZM441.61 222L484.97 247L486.97 245.82L443.61 220.82L441.61 222ZM426.69 230.61L470.05 255.61L472.1 254.43L428.73 229.43L426.69 230.61ZM411.77 239.22L455.14 264.22L457.14 263.04L413.78 238.04L411.77 239.22ZM340.77 263.08L342.77 264.26L386.14 239.26L384.09 238.08L340.77 263.08ZM325.86 254.47L327.86 255.65L371.22 230.65L369.22 229.47L325.86 254.47ZM310.94 245.86L312.94 247.04L356.31 222.04L354.31 220.86L310.94 245.86ZM296 237.29L298.05 238.47L341.41 213.47L339.41 212.29L296 237.29ZM281.09 228.67L283.09 229.86L326.46 204.86L324.41 203.68L281.09 228.67ZM266.17 220.06L268.22 221.24L311.58 196.24L309.58 195.06L266.17 220.06ZM251.26 211.45L253.26 212.63L296.63 187.63L294.58 186.45L251.26 211.45ZM236.34 202.84L238.4 204L281.76 179L279.76 177.82L236.34 202.84ZM221.43 194.23L223.43 195.41L266.8 170.41L264.75 169.23L221.43 194.23ZM390.11 241L364.42 273.2C365.29 273.44 366.16 273.68 367.04 273.9L392.74 241.7C391.851 241.515 390.973 241.281 390.11 241ZM405.2 241.7L430.9 273.9C431.78 273.68 432.65 273.44 433.52 273.2L407.83 241C406.966 241.275 406.088 241.502 405.2 241.68V241.7ZM397.53 242.31V277.75H400.42V242.29C399.45 242.33 398.49 242.33 397.53 242.29V242.31Z" fill="#DFE4F4"/>
<path d="M455.12 264.31C424.12 282.22 373.83 282.22 342.82 264.31L221.42 194.22V197.79L342.82 267.88C373.82 285.79 424.11 285.79 455.12 267.88L576.52 197.79V194.22L455.12 264.31Z" fill="url(#paint33_linear_5577_11823)"/>
<path d="M338.24 209.34L358.6 197.53V162.85L308.2 192L338.24 209.34Z" fill="#F1F1F6"/>
<path d="M338.24 211.48L339.52 212.23L358.6 201.16V197.53L338.24 209.34V211.48Z" fill="#A3A9D0"/>
<path d="M338.24 211.48V209.34L308.2 192V194.14L338.24 211.48Z" fill="#BBC0E6"/>
<path d="M349.51 202.81L319.5 185.47L317.46 186.65L347.47 203.99L349.51 202.81Z" fill="#DFE4F4"/>
<path d="M358.6 193.14L332.41 178L330.36 179.18L358.6 195.5V193.14Z" fill="#DFE4F4"/>
<path d="M358.6 178.22L345.31 170.54L343.27 171.72L358.6 180.58V178.22Z" fill="#DFE4F4"/>
<path style="mix-blend-mode:multiply" d="M358.6 181.26V162.85L326.77 181.26H358.6Z" fill="url(#paint34_linear_5577_11823)"/>
<path d="M459.71 209.34L439.34 197.53V162.85L489.74 192L459.71 209.34Z" fill="#F1F1F6"/>
<path d="M459.71 211.48L458.42 212.23L439.34 201.16V197.53L459.71 209.34V211.48Z" fill="#A3A9D0"/>
<path d="M459.71 211.48V209.34L489.74 192V194.14L459.71 211.48Z" fill="#BBC0E6"/>
<path d="M450.48 203.99L480.49 186.65L478.44 185.47L448.43 202.81L450.48 203.99Z" fill="#DFE4F4"/>
<path d="M439.34 195.5L467.58 179.18L465.54 178L439.34 193.14V195.5Z" fill="#DFE4F4"/>
<path d="M439.34 180.58L454.67 171.72L452.63 170.54L439.34 178.22V180.58Z" fill="#DFE4F4"/>
<path style="mix-blend-mode:multiply" d="M489.74 192L439.34 162.85V197.53L459.71 209.34L489.74 192Z" fill="url(#paint35_linear_5577_11823)"/>
<path style="mix-blend-mode:multiply" d="M576.52 129.38L518.35 95.8V145.87L533.14 154.41C540.21 158.49 540.21 165.11 533.14 169.19L415.83 236.92H502.56L576.51 194.23C607.53 176.32 607.53 147.29 576.52 129.38Z" fill="url(#paint36_linear_5577_11823)"/>
<path d="M359.51 122.74L361.27 123.76L372.51 117.28V115.24L359.51 122.74Z" fill="#A3A9D0"/>
<path d="M372.51 115.24V117.28L374.27 116.26L372.51 115.24Z" fill="#CED3F8"/>
<path d="M355.26 120.29L357.02 121.31L368.26 114.82V112.78L355.26 120.29Z" fill="#A3A9D0"/>
<path d="M368.26 112.78V114.82L370.03 113.8L368.26 112.78Z" fill="#CED3F8"/>
<path d="M351.01 117.84L352.78 118.86L364.01 112.37V110.33L351.01 117.84Z" fill="#A3A9D0"/>
<path d="M364.01 110.33V112.37L365.78 111.35L364.01 110.33Z" fill="#CED3F8"/>
<path d="M346.76 115.39L348.53 116.41L359.76 109.92V107.88L346.76 115.39Z" fill="#A3A9D0"/>
<path d="M359.76 107.88V109.92L361.53 108.9L359.76 107.88Z" fill="#CED3F8"/>
<path d="M342.51 112.93L344.28 113.95L355.51 107.47V105.43L342.51 112.93Z" fill="#A3A9D0"/>
<path d="M355.51 105.43V107.47L357.28 106.45L355.51 105.43Z" fill="#CED3F8"/>
<path d="M338.26 110.48L340.03 111.5L351.27 105.01V102.97L338.26 110.48Z" fill="#A3A9D0"/>
<path d="M351.27 102.97V105.01L353.03 103.99L351.27 102.97Z" fill="#CED3F8"/>
<path d="M334.02 108.03L335.78 109.05L347.02 102.56V100.52L334.02 108.03Z" fill="#A3A9D0"/>
<path d="M347.02 100.52V102.56L348.79 101.54L347.02 100.52Z" fill="#CED3F8"/>
<path d="M329.77 105.57L331.54 106.59L342.77 100.11V98.0701L329.77 105.57Z" fill="#A3A9D0"/>
<path d="M342.77 98.0701V100.11L344.54 99.0901L342.77 98.0701Z" fill="#CED3F8"/>
<path d="M325.52 103.12L327.29 104.14L338.52 97.6601V95.6101L325.52 103.12Z" fill="#A3A9D0"/>
<path d="M338.52 95.6101V97.6601L340.29 96.6401L338.52 95.6101Z" fill="#CED3F8"/>
<path d="M475.54 58.32L404.76 99.19C402.954 100.102 400.959 100.578 398.935 100.578C396.911 100.578 394.916 100.102 393.11 99.19L322.4 58.36C321.737 58.0649 321.164 57.5978 320.742 57.007C320.32 56.4161 320.064 55.7232 320 55V79.7C320 80.95 320.75 82.21 322.4 83.16L393.11 124C394.916 124.912 396.911 125.388 398.935 125.388C400.959 125.388 402.954 124.912 404.76 124L475.54 83.13C477.18 82.19 477.97 80.94 477.94 79.7V55C478 56.18 477.15 57.4 475.54 58.32Z" fill="url(#paint37_linear_5577_11823)"/>
<path d="M404.76 97.5701C402.954 98.4824 400.959 98.9577 398.935 98.9577C396.911 98.9577 394.916 98.4824 393.11 97.5701L315.67 52.8601C312.47 51.0101 312.47 47.9901 315.67 46.1401L393.18 1.39006C394.986 0.477746 396.981 0.00244141 399.005 0.00244141C401.029 0.00244141 403.024 0.477746 404.83 1.39006L482.27 46.1001C485.47 47.9501 485.47 50.9701 482.27 52.8201L404.76 97.5701Z" fill="#F6F6FB"/>
<path d="M482.27 52.82L404.76 97.57C402.954 98.4823 400.959 98.9576 398.935 98.9576C396.911 98.9576 394.916 98.4823 393.11 97.57L315.67 52.86C315.011 52.5639 314.442 52.0992 314.021 51.5127C313.599 50.9262 313.34 50.2387 313.27 49.52V55C313.27 56.23 314.06 57.45 315.67 58.38L393.11 103.09C394.916 104.002 396.911 104.478 398.935 104.478C400.959 104.478 402.954 104.002 404.76 103.09L482.27 58.34C483.87 57.42 484.67 56.2 484.67 54.99V49.46C484.606 50.1832 484.35 50.8761 483.928 51.4669C483.506 52.0577 482.933 52.5249 482.27 52.82Z" fill="url(#paint38_linear_5577_11823)"/>
<g style="mix-blend-mode:multiply">
<path d="M455.68 83.9999C455.703 83.5682 455.829 83.1481 456.046 82.7743C456.263 82.4005 456.566 82.0837 456.93 81.8499C457.61 81.4499 458.17 81.7699 458.17 82.5699C458.145 83.0001 458.019 83.4184 457.804 83.7916C457.589 84.1648 457.29 84.4827 456.93 84.7199C456.24 85.1599 455.68 84.8399 455.68 83.9999Z" fill="#A3A9D0"/>
</g>
<g style="mix-blend-mode:multiply">
<path d="M460.86 81.0499C460.883 80.6192 461.007 80.2 461.223 79.8264C461.438 79.4528 461.739 79.1354 462.1 78.8999C462.79 78.4999 463.34 78.8299 463.34 79.6199C463.319 80.0509 463.195 80.4707 462.98 80.8446C462.764 81.2184 462.462 81.5356 462.1 81.7699C461.41 82.1699 460.86 81.8499 460.86 81.0499Z" fill="#A3A9D0"/>
</g>
<g style="mix-blend-mode:multiply">
<path d="M466 78.0699C466.023 77.6368 466.149 77.2154 466.366 76.84C466.583 76.4646 466.886 76.1459 467.25 75.9099C467.93 75.5199 468.49 75.8399 468.49 76.6299C468.466 77.0616 468.341 77.4816 468.125 77.8566C467.91 78.2315 467.61 78.5511 467.25 78.7899C466.59 79.1799 466 78.8599 466 78.0699Z" fill="#A3A9D0"/>
</g>
<path d="M334.84 49.86L394.35 15.5C395.795 14.7705 397.391 14.3904 399.01 14.3904C400.629 14.3904 402.225 14.7705 403.67 15.5L463.07 49.8C463.606 50.0993 464.073 50.5082 464.44 51C465.44 49.61 465.03 47.93 463.07 46.8L403.67 12.5C402.225 11.7705 400.629 11.3904 399.01 11.3904C397.391 11.3904 395.795 11.7705 394.35 12.5L334.84 46.83C332.84 47.96 332.43 49.64 333.46 51.03C333.839 50.5539 334.308 50.1565 334.84 49.86Z" fill="url(#paint39_linear_5577_11823)"/>
<path d="M334.84 52.21L394.24 86.51C395.685 87.2396 397.281 87.6196 398.9 87.6196C400.519 87.6196 402.115 87.2396 403.56 86.51L463.07 52.15C463.601 51.8648 464.067 51.4733 464.44 51C464.07 50.5191 463.603 50.1206 463.07 49.83L403.67 15.53C402.225 14.8005 400.629 14.4204 399.01 14.4204C397.391 14.4204 395.795 14.8005 394.35 15.53L334.84 49.86C334.311 50.1477 333.842 50.5348 333.46 51C333.833 51.4929 334.303 51.9046 334.84 52.21Z" fill="url(#paint40_linear_5577_11823)"/>
<path style="mix-blend-mode:multiply" d="M328.07 87.98H316.75V93.52H328.07V87.98Z" fill="url(#paint41_linear_5577_11823)"/>
<path d="M312.17 86.1699V90.8799C312.207 91.2827 312.35 91.6685 312.586 91.9972C312.821 92.326 313.14 92.5859 313.51 92.7499C314.515 93.2626 315.627 93.5299 316.755 93.5299C317.883 93.5299 318.995 93.2626 320 92.7499C320.37 92.5859 320.689 92.326 320.924 91.9972C321.16 91.6685 321.304 91.2827 321.34 90.8799V86.1699H312.17Z" fill="url(#paint42_linear_5577_11823)"/>
<path d="M313.51 84.3001C314.516 83.792 315.628 83.5273 316.755 83.5273C317.882 83.5273 318.994 83.792 320 84.3001C320.368 84.4667 320.685 84.7272 320.921 85.0555C321.156 85.3838 321.301 85.7682 321.34 86.1701C321.297 86.5658 321.15 86.9432 320.915 87.2644C320.68 87.5856 320.364 87.8393 320 88.0001C318.995 88.5128 317.883 88.7801 316.755 88.7801C315.627 88.7801 314.515 88.5128 313.51 88.0001C313.14 87.836 312.821 87.5762 312.586 87.2474C312.35 86.9186 312.207 86.5329 312.17 86.1301C312.216 85.7352 312.364 85.3591 312.599 85.0384C312.834 84.7177 313.148 84.4633 313.51 84.3001Z" fill="#E56EC9"/>
<path style="mix-blend-mode:multiply" d="M394.29 126.21H382.97V131.75H394.29V126.21Z" fill="url(#paint43_linear_5577_11823)"/>
<path d="M378.39 124.4V129.11C378.425 129.513 378.569 129.899 378.804 130.228C379.04 130.557 379.36 130.817 379.73 130.98C380.735 131.488 381.844 131.752 382.97 131.752C384.096 131.752 385.205 131.488 386.21 130.98C386.579 130.815 386.898 130.555 387.133 130.226C387.369 129.898 387.512 129.512 387.55 129.11V124.4H378.39Z" fill="url(#paint44_linear_5577_11823)"/>
<path d="M379.73 122.53C380.735 122.022 381.844 121.757 382.97 121.757C384.096 121.757 385.205 122.022 386.21 122.53C386.578 122.697 386.895 122.957 387.131 123.285C387.366 123.614 387.51 123.998 387.55 124.4C387.513 124.803 387.37 125.188 387.134 125.517C386.899 125.846 386.58 126.106 386.21 126.27C385.207 126.783 384.096 127.05 382.97 127.05C381.844 127.05 380.733 126.783 379.73 126.27C379.359 126.108 379.039 125.848 378.803 125.519C378.567 125.19 378.424 124.803 378.39 124.4C378.428 123.997 378.571 123.612 378.807 123.284C379.042 122.955 379.361 122.695 379.73 122.53Z" fill="#E56EC9"/>
<path d="M465.65 176.41L475.82 182.28L465.65 188.16L455.47 182.28L465.65 176.41Z" fill="white"/>
<path d="M455.47 182.28L465.65 188.16V199.9L455.47 194.03V182.28Z" fill="#CED3F8"/>
<path d="M475.82 182.28L465.65 188.16V199.9L475.82 194.03V182.28Z" fill="#BBC0E6"/>
<path style="mix-blend-mode:multiply" d="M465.65 199.9H491.88V188.16H475.82V194.03L465.65 199.9Z" fill="url(#paint45_linear_5577_11823)"/>
<path d="M462.58 220.86L472.75 226.74L462.58 232.61L452.4 226.74L462.58 220.86Z" fill="#8585FF"/>
<path d="M452.4 226.74L462.58 232.61V244.36L452.4 238.48V226.74Z" fill="#5E5EDD"/>
<path d="M472.75 226.74L462.58 232.61V244.36L472.75 238.48V226.74Z" fill="#4949B8"/>
<path style="mix-blend-mode:multiply" d="M462.58 244.36H488.81V232.61H472.75V238.48L462.58 244.36Z" fill="url(#paint46_linear_5577_11823)"/>
<path d="M518.45 191.24L528.63 197.12L518.45 202.99L508.28 197.12L518.45 191.24Z" fill="#8585FF"/>
<path d="M508.28 197.12L518.45 202.99V214.74L508.28 208.87V197.12Z" fill="#5E5EDD"/>
<path d="M528.63 197.12L518.45 202.99V214.74L528.63 208.87V197.12Z" fill="#4949B8"/>
<path style="mix-blend-mode:multiply" d="M518.45 214.74H544.68V202.99H528.63V208.87L518.45 214.74Z" fill="url(#paint47_linear_5577_11823)"/>
<path d="M253.05 107.75L263.23 113.63L253.05 119.5L242.88 113.63L253.05 107.75Z" fill="#E56EC9"/>
<path d="M242.88 113.63L253.05 119.5V131.25L242.88 125.37V113.63Z" fill="#D453B5"/>
<path d="M263.23 113.63L253.05 119.5V131.25L263.23 125.37V113.63Z" fill="#A33489"/>
<path style="mix-blend-mode:multiply" d="M253.05 131.25H279.59V119.5H263.23V125.37L253.05 131.25Z" fill="url(#paint48_linear_5577_11823)"/>
<path d="M259.57 177.13L269.74 183L259.57 188.88L249.39 183L259.57 177.13Z" fill="white"/>
<path d="M249.39 183L259.57 188.88V200.62L249.39 194.75V183Z" fill="#CED3F8"/>
<path d="M269.74 183L259.57 188.88V200.62L269.74 194.75V183Z" fill="#BBC0E6"/>
<path style="mix-blend-mode:multiply" d="M259.57 200.62H285.8V188.88H269.74V194.75L259.57 200.62Z" fill="url(#paint49_linear_5577_11823)"/>
<path d="M289.8 298.36L299.97 304.23L289.8 310.11L279.62 304.23L289.8 298.36Z" fill="#F6F6FB"/>
<path d="M279.62 304.23L289.8 310.11V321.86L279.62 315.98V304.23Z" fill="#CED3F8"/>
<path d="M299.97 304.23L289.8 310.11V321.86L299.97 315.98V304.23Z" fill="#BBC0E6"/>
<path style="mix-blend-mode:multiply" d="M289.8 321.86H316.03V310.11H299.97V315.98L289.8 321.86Z" fill="url(#paint50_linear_5577_11823)"/>
<path d="M168.92 213.61L179.09 219.48L168.92 225.36L158.75 219.48L168.92 213.61Z" fill="#F6F6FB"/>
<path d="M158.75 219.48L168.92 225.36V237.11L158.75 231.23V219.48Z" fill="#CED3F8"/>
<path d="M179.09 219.48L168.92 225.36V237.11L179.09 231.23V219.48Z" fill="#BBC0E6"/>
<path style="mix-blend-mode:multiply" d="M168.92 237.11H195.15V225.36H179.09V231.23L168.92 237.11Z" fill="url(#paint51_linear_5577_11823)"/>
<path d="M338.24 218.02L348.41 223.9L338.24 229.77L328.06 223.9L338.24 218.02Z" fill="#E56EC9"/>
<path d="M328.06 223.9L338.24 229.77V241.52L328.06 235.64V223.9Z" fill="#D453B5"/>
<path d="M348.41 223.9L338.24 229.77V241.52L348.41 235.64V223.9Z" fill="#B8429B"/>
<path style="mix-blend-mode:multiply" d="M571.09 244.28H549.34V248.84H571.09V244.28Z" fill="url(#paint52_linear_5577_11823)"/>
<path style="mix-blend-mode:multiply" d="M561.33 250.85H537.94V255.4H561.33V250.85Z" fill="url(#paint53_linear_5577_11823)"/>
<path d="M552 247.43C552 243.85 549.73 243.75 549.73 243.75C548.601 243.775 547.48 243.56 546.44 243.12C543.9 242.12 541.76 242.42 543.31 245.28L543.37 245.39C543.496 245.577 543.668 245.729 543.87 245.83L548.82 248.73C549.55 249.17 552 248.17 552 247.43Z" fill="url(#paint54_linear_5577_11823)"/>
<path d="M552 247.11C552 247.84 549.59 248.82 548.84 248.4L543.89 245.49C543.638 245.348 543.403 245.177 543.19 244.98C543.24 245.08 543.27 245.17 543.33 245.28L543.39 245.39C543.516 245.577 543.688 245.729 543.89 245.83L548.84 248.73C549.55 249.14 551.7 248.29 551.98 247.57C551.989 247.524 551.989 247.476 551.98 247.43C552.002 247.325 552.008 247.217 552 247.11Z" fill="#131147"/>
<path d="M551 243.28C550.477 243.327 549.959 243.414 549.45 243.54C548.97 243.42 547.36 243.36 546.31 243.05C545.99 242.96 545.7 242.76 545.37 243.05C544.95 243.56 546.03 244.81 548.27 245.77C548.524 245.962 548.839 246.056 549.157 246.034C549.475 246.012 549.775 245.875 550 245.65C550.127 245.394 550.32 245.176 550.56 245.02C550.72 244.91 550.9 244.832 551.09 244.79V244.74C551.09 244.74 551.29 243.28 551 243.28Z" fill="#FCD1A9"/>
<path d="M549.92 219.76C550.92 216.76 550.46 213.19 549.72 209.64C547.48 209.64 543.24 208.43 541 208.47C541.83 215.2 543.71 221.12 544.83 227.65C546.04 233.98 547.46 238.65 548.65 243.91C549.08 244.91 551.19 244.45 551.19 243.91C551.585 238.51 551.133 233.081 549.85 227.82C550 225.23 549.52 222.28 549.92 219.76Z" fill="#3B3BA3"/>
<path d="M540.67 254C540.67 250.42 538.4 250.32 538.4 250.32C537.249 250.288 536.114 250.048 535.05 249.61C532.5 248.61 530.44 248.98 531.99 251.84C531.986 251.876 531.986 251.913 531.99 251.95C532.121 252.133 532.292 252.283 532.49 252.39L537.49 255.3C538.25 255.74 540.65 254.74 540.67 254Z" fill="url(#paint55_linear_5577_11823)"/>
<path d="M540.66 253.68C540.66 254.42 538.25 255.4 537.5 254.97L532.5 252.06C532.253 251.913 532.019 251.746 531.8 251.56C531.8 251.65 531.89 251.75 531.95 251.85C531.946 251.887 531.946 251.923 531.95 251.96C532.081 252.143 532.252 252.293 532.45 252.4L537.45 255.31C538.15 255.71 540.3 254.86 540.59 254.15C540.594 254.1 540.594 254.05 540.59 254C540.67 253.89 540.66 253.79 540.66 253.68Z" fill="#131147"/>
<path d="M539.75 249.85C539.227 249.901 538.709 249.992 538.2 250.12C537.71 249.99 536.1 249.93 535.05 249.62C534.74 249.53 534.44 249.33 534.11 249.62C533.7 250.13 534.78 251.38 537.01 252.34C537.265 252.53 537.58 252.623 537.897 252.601C538.215 252.579 538.514 252.444 538.74 252.22C538.87 251.963 539.062 251.743 539.3 251.58C539.463 251.47 539.647 251.395 539.84 251.36V251.31C539.84 251.31 540 249.85 539.75 249.85Z" fill="#FCD1A9"/>
<path d="M544 224.3C545.91 216.64 550.21 221.03 549.75 209.64C547.53 209.32 539.62 214.33 537.4 214C536.1 222.25 536.4 227.35 536.4 234C536.55 240.45 536.97 244.86 537.28 250.26C537.55 251.26 539.91 251.26 539.91 250.59C541.243 245.269 541.739 239.773 541.38 234.3C542 231.08 543.25 227.69 544 224.3Z" fill="url(#paint56_linear_5577_11823)"/>
<path d="M548.58 221.47C544.97 223.68 539.28 225.04 535.58 223.47C535.2 221.33 538.5 207.26 536.33 203.56C535.86 202.75 534.33 203.41 533.92 202.56C532.915 200.077 532.214 197.481 531.83 194.83C531.915 194.017 532.184 193.234 532.617 192.541C533.051 191.848 533.636 191.262 534.33 190.83C536.07 189.67 538.55 188.12 540.73 188.55C545.49 189.88 548.86 202.17 552.36 216.4C551.791 218.509 550.439 220.322 548.58 221.47Z" fill="url(#paint57_linear_5577_11823)"/>
<path style="mix-blend-mode:multiply" d="M538.94 207.2C539.18 205.45 537.37 202.35 536.33 202C535.29 201.65 534.33 201.24 534.33 200.05C534.33 198.86 534.82 196.98 534.57 195.56L531.9 195.39C532.317 197.82 532.987 200.2 533.9 202.49C534.31 203.37 535.84 202.71 536.31 203.49C538.48 207.19 535.18 221.26 535.56 223.4C535.56 223.4 536.89 216.65 537.3 213.97C537.71 211.29 538.71 209 538.94 207.2Z" fill="url(#paint58_linear_5577_11823)"/>
<path d="M540 189.58C538.54 188.58 538.63 187.82 538.79 186.42C539.043 185.632 539.158 184.807 539.13 183.98C539.01 180.87 536.92 178.25 534.5 178.5C529.61 179.03 530.57 181.57 530.69 184.69C530.8 187.58 532.18 189.52 534.39 189.77C534.403 190.04 534.343 190.309 534.216 190.549C534.09 190.788 533.901 190.989 533.67 191.13C535.31 192.03 537.85 191.54 538.87 191.13C539.89 190.72 540.66 190.25 540 189.58Z" fill="#FCD1A9"/>
<path d="M519.42 207.7C518.99 207.7 518.67 206.7 517.97 206.61C517.27 206.52 515.77 206.3 515.8 206.73C515.83 207.16 517.1 207.03 516.93 207.21C516.43 207.75 515.24 207.21 514.93 206.76C514.62 206.31 514.22 206.26 514.26 206.76C514.3 207.26 514.58 209.32 516.26 209.76C517.459 210.039 518.699 210.1 519.92 209.94L519.42 207.7Z" fill="#FCD1A9"/>
<path d="M519.33 210.12C519.33 210.12 517.83 209.12 519.21 207.44C524.09 206.57 530.15 201.06 531.64 194.52C532.54 191.97 535.4 193.75 534.81 196.99C533.87 202.1 527.93 209.88 519.33 210.12Z" fill="url(#paint59_linear_5577_11823)"/>
<path d="M530 182.72C530.09 180.91 531.56 177.87 534.78 178.09C538 178.31 539.23 180.53 539.27 183.23C539.27 185.35 541.19 191.36 545.95 191.01C543.92 194.78 529.38 195.45 530 182.72Z" fill="#20196F"/>
<mask id="mask0_5577_11823" style="mask-type:luminance" maskUnits="userSpaceOnUse" x="333" y="8" width="132" height="80">
<path d="M333.46 8.48999V51C333.836 51.482 334.305 51.8834 334.84 52.18L394.24 86.48C395.685 87.2095 397.281 87.5896 398.9 87.5896C400.519 87.5896 402.115 87.2095 403.56 86.48L463.07 52.12C463.58 51.8382 464.029 51.4574 464.39 51H464.44V8.48999H333.46Z" fill="white"/>
</mask>
<g mask="url(#mask0_5577_11823)">
<path d="M398.95 12.0701L409.13 17.9401L398.95 23.8201L388.78 17.9401L398.95 12.0701Z" fill="#F6F6FB"/>
<path d="M388.78 17.9402L398.95 23.8202V35.5702L388.78 29.6902V17.9402Z" fill="#CED3F8"/>
<path d="M409.13 17.9402L398.95 23.8202V35.5702L409.13 29.6902V17.9402Z" fill="#BBC0E6"/>
<path d="M414.65 21.1301L424.82 27.0101L414.65 32.8801L404.48 27.0101L414.65 21.1301Z" fill="#8585FF"/>
<path d="M404.48 27.01L414.65 32.88V44.63L404.48 38.75V27.01Z" fill="#5E5EDD"/>
<path d="M424.82 27.01L414.65 32.88V44.63L424.82 38.75V27.01Z" fill="#4949B8"/>
<path d="M430.35 30.1902L440.52 36.0702L430.35 41.9402L420.17 36.0702L430.35 30.1902Z" fill="#F6F6FB"/>
<path d="M420.17 36.0701L430.35 41.9401V53.6901L420.17 47.8201V36.0701Z" fill="#CED3F8"/>
<path d="M440.52 36.0701L430.35 41.9401V53.6901L440.52 47.8201V36.0701Z" fill="#BBC0E6"/>
<path d="M446.04 39.26L456.21 45.13L446.04 51L435.87 45.13L446.04 39.26Z" fill="#8585FF"/>
<path d="M435.87 45.1301L446.04 51.0001V62.7501L435.87 56.8801V45.1301Z" fill="#5E5EDD"/>
<path d="M456.21 45.1301L446.04 51.0001V62.7501L456.21 56.8801V45.1301Z" fill="#4949B8"/>
<path d="M383.26 21.1301L393.43 27.0101L383.26 32.8801L373.08 27.0101L383.26 21.1301Z" fill="#8585FF"/>
<path d="M373.08 27.01L383.26 32.88V44.63L373.08 38.75V27.01Z" fill="#5E5EDD"/>
<path d="M393.43 27.01L383.26 32.88V44.63L393.43 38.75V27.01Z" fill="#423EAF"/>
<path d="M398.95 30.1902L409.13 36.0702L398.95 41.9402L388.78 36.0702L398.95 30.1902Z" fill="#E56EC9"/>
<path d="M388.78 36.0701L398.95 41.9401V53.6901L388.78 47.8201V36.0701Z" fill="#D453B5"/>
<path d="M409.13 36.0701L398.95 41.9401V53.6901L409.13 47.8201V36.0701Z" fill="#A33489"/>
<path d="M414.65 39.26L424.82 45.13L414.65 51L404.48 45.13L414.65 39.26Z" fill="#E56EC9"/>
<path d="M404.48 45.1301L414.65 51.0001V62.7501L404.48 56.8801V45.1301Z" fill="#D453B5"/>
<path d="M424.82 45.1301L414.65 51.0001V62.7501L424.82 56.8801V45.1301Z" fill="#DC8B00"/>
<path d="M430.35 48.3201L440.52 54.1901L430.35 60.0701L420.17 54.1901L430.35 48.3201Z" fill="#E56EC9"/>
<path d="M420.17 54.1902L430.35 60.0702V71.8102L420.17 65.9402V54.1902Z" fill="#D453B5"/>
<path d="M440.52 54.1902L430.35 60.0702V71.8102L440.52 65.9402V54.1902Z" fill="#A33489"/>
<path d="M367.56 30.1902L377.74 36.0702L367.56 41.9402L357.39 36.0702L367.56 30.1902Z" fill="#E56EC9"/>
<path d="M357.39 36.0701L367.56 41.9401V53.6901L357.39 47.8201V36.0701Z" fill="#D453B5"/>
<path d="M377.74 36.0701L367.56 41.9401V53.6901L377.74 47.8201V36.0701Z" fill="#A33489"/>
<path d="M383.26 39.26L393.43 45.13L383.26 51L373.08 45.13L383.26 39.26Z" fill="#F6F6FB"/>
<path d="M373.08 45.1301L383.26 51.0001V62.7501L373.08 56.8801V45.1301Z" fill="#CED3F8"/>
<path d="M393.43 45.1301L383.26 51.0001V62.7501L393.43 56.8801V45.1301Z" fill="#BBC0E6"/>
<path d="M398.95 48.3201L409.13 54.1901L398.95 60.0701L388.78 54.1901L398.95 48.3201Z" fill="#E56EC9"/>
<path d="M388.78 54.1902L398.95 60.0702V71.8102L388.78 65.9402V54.1902Z" fill="#D453B5"/>
<path d="M409.13 54.1902L398.95 60.0702V71.8102L409.13 65.9402V54.1902Z" fill="#A33489"/>
<path d="M414.65 57.3801L424.82 63.2501L414.65 69.1301L404.48 63.2501L414.65 57.3801Z" fill="#E56EC9"/>
<path d="M404.48 63.25L414.65 69.13V80.88L404.48 75V63.25Z" fill="#D453B5"/>
<path d="M424.82 63.25L414.65 69.13V80.88L424.82 75V63.25Z" fill="#A33489"/>
<path d="M351.87 39.26L362.04 45.13L351.87 51L341.69 45.13L351.87 39.26Z" fill="#F6F6FB"/>
<path d="M341.69 45.1301L351.87 51.0001V62.7501L341.69 56.8801V45.1301Z" fill="#CED3F8"/>
<path d="M362.04 45.1301L351.87 51.0001V62.7501L362.04 56.8801V45.1301Z" fill="#BBC0E6"/>
<path d="M367.56 48.3201L377.74 54.1901L367.56 60.0701L357.39 54.1901L367.56 48.3201Z" fill="#8585FF"/>
<path d="M357.39 54.1902L367.56 60.0702V71.8102L357.39 65.9402V54.1902Z" fill="#5E5EDD"/>
<path d="M377.74 54.1902L367.56 60.0702V71.8102L377.74 65.9402V54.1902Z" fill="#4949B8"/>
<path d="M383.26 57.3801L393.43 63.2501L383.26 69.1301L373.08 63.2501L383.26 57.3801Z" fill="#8585FF"/>
<path d="M373.08 63.25L383.26 69.13V80.88L373.08 75V63.25Z" fill="#5E5EDD"/>
<path d="M393.43 63.25L383.26 69.13V80.88L393.43 75V63.25Z" fill="#4949B8"/>
<path d="M398.95 66.4402L409.13 72.3202L398.95 78.1902L388.78 72.3202L398.95 66.4402Z" fill="#8585FF"/>
<path d="M388.78 72.3201L398.95 78.1901V89.9401L388.78 84.0601V72.3201Z" fill="#5E5EDD"/>
<path d="M409.13 72.3201L398.95 78.1901V89.9401L409.13 84.0601V72.3201Z" fill="#4949B8"/>
</g>
<path d="M414.65 42.6799L424.82 48.5499L414.65 54.4199L404.48 48.5499L414.65 42.6799Z" fill="#F6F6FB"/>
<path d="M404.48 48.55L414.65 54.42V66.17L404.48 60.3V48.55Z" fill="#CED3F8"/>
<path d="M424.82 48.55L414.65 54.42V66.17L424.82 60.3V48.55Z" fill="#BBC0E6"/>
<path d="M398.95 15.49L409.13 21.36L398.95 27.24L388.78 21.36L398.95 15.49Z" fill="#F6F6FB"/>
<path d="M388.78 21.3601L398.95 27.2401V38.9901L388.78 33.1101V21.3601Z" fill="#CED3F8"/>
<path d="M409.13 21.3601L398.95 27.2401V38.9901L409.13 33.1101V21.3601Z" fill="#BBC0E6"/>
<path d="M383.26 24.55L393.43 30.43L383.26 36.3L373.08 30.43L383.26 24.55Z" fill="#8585FF"/>
<path d="M373.08 30.4299L383.26 36.2999V48.0499L373.08 42.1699V30.4299Z" fill="#5E5EDD"/>
<path d="M393.43 30.4299L383.26 36.2999V48.0499L393.43 42.1699V30.4299Z" fill="#4949B8"/>
<path d="M430.35 15.49L440.52 21.36L430.35 27.24L420.17 21.36L430.35 15.49Z" fill="#F6F6FB"/>
<path d="M420.17 21.3601L430.35 27.2401V38.9901L420.17 33.1101V21.3601Z" fill="#CED3F8"/>
<path d="M440.52 21.3601L430.35 27.2401V38.9901L440.52 33.1101V21.3601Z" fill="#BBC0E6"/>
<path d="M615.02 197.03L625.2 202.9L615.02 208.78L604.85 202.9L615.02 197.03Z" fill="#E56EC9"/>
<path d="M604.85 202.9L615.02 208.78V220.53L604.85 214.65V202.9Z" fill="#D453B5"/>
<path d="M625.2 202.9L615.02 208.78V220.53L625.2 214.65V202.9Z" fill="#A33489"/>
<path style="mix-blend-mode:multiply" d="M615.02 220.53H641.25V208.78H625.2V214.65L615.02 220.53Z" fill="url(#paint60_linear_5577_11823)"/>
<path style="mix-blend-mode:multiply" d="M683.81 157.9C682.255 155.836 680.273 154.13 678 152.9C668.73 147.55 654.33 146.97 644 151.16C642.758 151.655 641.551 152.237 640.39 152.9C635.19 155.9 632.59 159.84 632.59 163.77C632.59 167.7 635.19 171.64 640.39 174.64C650.79 180.64 667.65 180.64 678.05 174.64C682.94 171.82 685.53 168.17 685.82 164.48C685.965 162.116 685.252 159.779 683.81 157.9Z" fill="url(#paint61_linear_5577_11823)"/>
<path d="M634 145.77L649.22 158.38L668 147.51C658.75 142.16 644.36 141.58 634 145.77Z" fill="#8585FF"/>
<path d="M668 147.51L649.17 158.38L673.82 152.54C672.262 150.467 670.277 148.751 668 147.51Z" fill="#5E5EDD"/>
<path d="M649.19 158.38L634 145.77C632.756 146.261 631.549 146.843 630.39 147.51C625.19 150.51 622.59 154.44 622.59 158.38C622.59 162.32 625.19 166.25 630.39 169.25C640.79 175.25 657.65 175.25 668.05 169.25C672.94 166.43 675.53 162.78 675.82 159.08C675.971 156.737 675.279 154.418 673.87 152.54L649.19 158.38Z" fill="#F6F6FB"/>
<path d="M675.79 159.08C675.5 162.78 672.91 166.43 668.02 169.25C657.62 175.25 640.76 175.25 630.36 169.25C625.47 166.43 622.88 162.78 622.59 159.08V163.73C622.59 167.67 625.19 171.6 630.39 174.6C640.79 180.6 657.65 180.6 668.05 174.6C672.94 171.78 675.53 168.13 675.82 164.44C675.855 164.017 675.855 163.593 675.82 163.17L675.79 159.08Z" fill="#BBC0E6"/>
<path style="mix-blend-mode:multiply" d="M155.95 149.25H144.97L170.82 164.18L144.97 179.11H155.95L181.8 164.18L155.95 149.25Z" fill="url(#paint62_linear_5577_11823)"/>
<path d="M144.97 179.11L170.82 164.18V157.75L144.97 172.68V179.11Z" fill="#BBC0E6"/>
<path d="M144.97 179.11L119.11 164.18V157.75L144.97 172.68V179.11Z" fill="#CED3F8"/>
<path d="M144.97 172.68L119.11 157.75L144.97 142.83L170.82 157.75L144.97 172.68Z" fill="#F6F6FB"/>
<path d="M144.97 161.99L137.63 157.75L144.97 153.51L152.31 157.75L144.97 161.99Z" fill="#807DFB"/>
<path style="mix-blend-mode:multiply" d="M538.51 309.39C538.256 308.961 537.969 308.553 537.65 308.17C536.47 307 539.18 305.05 540.41 304.34L536.84 302.26H526.27C525.696 301.454 525.389 300.489 525.39 299.5H520.32C520.332 300.177 520.18 300.848 519.877 301.454C519.574 302.06 519.129 302.583 518.58 302.98C518.273 303.162 517.933 303.281 517.58 303.33C516.87 303.47 516.16 303.64 515.48 303.84H515.39C514.7 303.64 514 303.47 513.28 303.33C511.02 302.99 510.55 300.5 510.56 299.5H505.49C505.502 300.177 505.35 300.848 505.047 301.454C504.744 302.06 504.299 302.583 503.75 302.98C503.441 303.158 503.102 303.277 502.75 303.33C502.03 303.47 501.32 303.64 500.64 303.84C498.3 304.34 495.25 302.95 494.03 302.25L490.43 304.32C491.65 305.03 494.34 306.99 493.15 308.16C492.821 308.539 492.526 308.948 492.27 309.38C492.133 309.635 491.92 309.842 491.66 309.97C490.27 310.78 487.08 310.97 485.66 310.97V313.9C487.39 313.9 491.66 314.18 492.27 315.49C492.518 315.925 492.81 316.334 493.14 316.71C494.31 317.88 491.6 319.83 490.37 320.54L493.95 322.62C494.07 322.55 494.22 322.46 494.39 322.38L493.97 322.62H504.53C505.094 323.422 505.394 324.38 505.39 325.36H525.32L530.32 322.6H536.84L540.44 320.53C539.22 319.82 536.53 317.86 537.72 316.69C537.921 316.458 538.109 316.215 538.28 315.96H541.62L545.22 313.89V310.95C543.27 311.05 539.09 310.7 538.51 309.39Z" fill="url(#paint63_linear_5577_11823)"/>
<path d="M493.4 298.92C493.4 297.78 491.4 296.34 490.4 295.76V304.32C491.4 304.91 493.4 306.32 493.4 307.48V298.92Z" fill="#F7F7FC"/>
<path d="M525.58 304.32V295.76C524.58 296.35 522.58 297.76 522.58 298.93V307.5C522.52 306.36 524.56 304.91 525.58 304.32Z" fill="#BDC1E4"/>
<path d="M501.62 308.76C503.586 307.754 505.762 307.23 507.97 307.23C510.178 307.23 512.354 307.754 514.32 308.76C516.06 309.76 516.93 311.09 516.93 312.41V303.85C516.93 302.52 516.05 301.2 514.31 300.19C512.343 299.189 510.167 298.667 507.96 298.667C505.753 298.667 503.577 299.189 501.61 300.19C499.84 301.19 498.96 302.56 498.96 303.89V312.46C499 311.12 499.85 309.78 501.62 308.76Z" fill="url(#paint64_linear_5577_11823)"/>
<path d="M493.87 314.06L490.29 311.98L490.32 320.54L493.89 322.62L493.87 314.06Z" fill="#D0D4F6"/>
<path d="M525.49 320.54L525.46 311.98L521.87 314.06L521.89 322.62L525.49 320.54Z" fill="#BDC1E4"/>
<path d="M500.52 321C501.187 321.2 501.887 321.37 502.62 321.51C504.85 321.84 505.34 324.28 505.34 325.3V316.74C505.34 315.74 504.85 313.28 502.62 312.94C501.9 312.8 501.2 312.64 500.51 312.44C498.51 311.75 495.11 313.32 493.89 314.03V322.59C495.12 321.91 498.5 320.35 500.52 321Z" fill="url(#paint65_linear_5577_11823)"/>
<path d="M512.16 321.88C512.47 321.707 512.809 321.592 513.16 321.54C513.88 321.4 514.58 321.23 515.27 321.03C517.27 320.35 520.66 321.91 521.88 322.62V314.06C520.66 313.35 517.29 311.78 515.26 312.47C514.58 312.67 513.88 312.83 513.16 312.97C512.809 313.028 512.471 313.146 512.16 313.32C510.78 314.12 510.49 315.94 510.41 316.81V325.37C510.48 324.5 510.77 322.68 512.16 321.88Z" fill="url(#paint66_linear_5577_11823)"/>
<path d="M493.06 308.15C494.23 309.31 491.52 311.27 490.29 311.98L493.87 314.06C495.09 313.35 498.48 311.78 500.49 312.47C501.18 312.67 501.88 312.83 502.6 312.97C504.86 313.31 505.32 315.81 505.31 316.81H510.38C510.46 315.94 510.75 314.12 512.13 313.32C512.441 313.146 512.779 313.028 513.13 312.97C513.85 312.83 514.55 312.67 515.23 312.47C517.23 311.78 520.63 313.35 521.85 314.06L525.44 311.98C524.22 311.27 521.53 309.31 522.72 308.15C523.048 307.769 523.342 307.361 523.6 306.93C523.739 306.674 523.952 306.465 524.21 306.33C525.61 305.53 528.8 305.33 530.21 305.33V302.4C528.36 302.48 524.21 302.13 523.61 300.81C523.356 300.379 523.065 299.97 522.74 299.59C521.56 298.42 524.28 296.47 525.5 295.76L522 293.68C520.78 294.39 517.39 295.96 515.38 295.27C514.69 295.08 513.99 294.91 513.27 294.77C511.01 294.43 510.54 291.93 510.55 290.94H505.48C505.493 291.619 505.341 292.291 505.038 292.899C504.735 293.506 504.29 294.032 503.74 294.43C503.429 294.604 503.091 294.722 502.74 294.78C502.02 294.92 501.31 295.08 500.63 295.28C498.29 295.79 495.24 294.4 494.02 293.69L490.42 295.77C491.64 296.48 494.33 298.44 493.14 299.6C492.815 299.983 492.521 300.391 492.26 300.82C492.127 301.08 491.913 301.291 491.65 301.42C490.26 302.22 487.07 302.42 485.65 302.42V305.36C487.38 305.36 491.65 305.63 492.26 306.95C492.489 307.374 492.757 307.775 493.06 308.15ZM501.59 300.15C503.557 299.149 505.733 298.627 507.94 298.627C510.147 298.627 512.323 299.149 514.29 300.15C517.79 302.15 517.77 305.48 514.29 307.51C512.324 308.509 510.15 309.03 507.945 309.03C505.74 309.03 503.566 308.509 501.6 307.51C498.06 305.52 498.08 302.22 501.59 300.19V300.15Z" fill="#EAEEF9"/>
<path d="M490.29 312C491.52 311.29 494.23 309.33 493.06 308.17C492.732 307.792 492.44 307.383 492.19 306.95C491.61 305.63 487.31 305.36 485.58 305.36V313.92C487.157 313.917 488.729 314.085 490.27 314.42L490.29 312Z" fill="#D0D4F6"/>
<path d="M510.4 325.37L510.38 316.81H505.31L505.34 325.37H510.4Z" fill="#BDC1E4"/>
<path d="M530.27 313.9V305.34C528.84 305.34 525.65 305.53 524.27 306.34C524.012 306.475 523.799 306.684 523.66 306.94C523.403 307.371 523.108 307.78 522.78 308.16C521.59 309.32 524.28 311.28 525.5 311.99V314.45C527.064 314.087 528.664 313.903 530.27 313.9Z" fill="url(#paint67_linear_5577_11823)"/>
<defs>
<linearGradient id="paint0_linear_5577_11823" x1="654.18" y1="330.71" x2="680.41" y2="330.71" gradientUnits="userSpaceOnUse">
<stop stop-color="#DAE0F5"/>
<stop offset="0.31" stop-color="#DFE4F6"/>
<stop offset="0.7" stop-color="#EEF1FB"/>
<stop offset="1" stop-color="white"/>
</linearGradient>
<linearGradient id="paint1_linear_5577_11823" x1="118.99" y1="360" x2="118.99" y2="235.68" gradientUnits="userSpaceOnUse">
<stop stop-color="white" stop-opacity="0"/>
<stop offset="0.635417" stop-color="#DFE4F4"/>
</linearGradient>
<linearGradient id="paint2_linear_5577_11823" x1="66.51" y1="360" x2="66.51" y2="235.68" gradientUnits="userSpaceOnUse">
<stop stop-color="white" stop-opacity="0"/>
<stop offset="0.796875" stop-color="#E9EDF7"/>
</linearGradient>
<linearGradient id="paint3_linear_5577_11823" x1="733.72" y1="360" x2="733.72" y2="235.68" gradientUnits="userSpaceOnUse">
<stop stop-color="white" stop-opacity="0"/>
<stop offset="0.635417" stop-color="#DFE4F4"/>
</linearGradient>
<linearGradient id="paint4_linear_5577_11823" x1="681.24" y1="360" x2="681.24" y2="235.68" gradientUnits="userSpaceOnUse">
<stop stop-color="white" stop-opacity="0"/>
<stop offset="0.796875" stop-color="#E9EDF7"/>
</linearGradient>
<linearGradient id="paint5_linear_5577_11823" x1="338.24" y1="235.64" x2="364.47" y2="235.64" gradientUnits="userSpaceOnUse">
<stop stop-color="#DAE0F5"/>
<stop offset="0.31" stop-color="#DFE4F6"/>
<stop offset="0.7" stop-color="#EEF1FB"/>
<stop offset="1" stop-color="white"/>
</linearGradient>
<linearGradient id="paint6_linear_5577_11823" x1="237.74" y1="137.1" x2="268.47" y2="137.1" gradientUnits="userSpaceOnUse">
<stop stop-color="#C4CAE9"/>
<stop offset="0.09" stop-color="#CED3ED"/>
<stop offset="0.41" stop-color="#E9EBF7"/>
<stop offset="0.69" stop-color="#F9FAFD"/>
<stop offset="0.9" stop-color="white"/>
</linearGradient>
<linearGradient id="paint7_linear_5577_11823" x1="237.15" y1="138.57" x2="240.23" y2="134.91" gradientUnits="userSpaceOnUse">
<stop stop-color="#423EAF"/>
<stop offset="0.49" stop-color="#302B8E"/>
<stop offset="1" stop-color="#20196F"/>
</linearGradient>
<linearGradient id="paint8_linear_5577_11823" x1="235.95" y1="137.51" x2="239.25" y2="134.19" gradientUnits="userSpaceOnUse">
<stop stop-color="#423EAF"/>
<stop offset="0.49" stop-color="#302B8E"/>
<stop offset="1" stop-color="#20196F"/>
</linearGradient>
<linearGradient id="paint9_linear_5577_11823" x1="227.67" y1="143.86" x2="260.08" y2="143.86" gradientUnits="userSpaceOnUse">
<stop stop-color="#C4CAE9"/>
<stop offset="0.09" stop-color="#CED3ED"/>
<stop offset="0.41" stop-color="#E9EBF7"/>
<stop offset="0.69" stop-color="#F9FAFD"/>
<stop offset="0.9" stop-color="white"/>
</linearGradient>
<linearGradient id="paint10_linear_5577_11823" x1="232.02" y1="145.57" x2="224.18" y2="140.45" gradientUnits="userSpaceOnUse">
<stop stop-color="#20196F"/>
<stop offset="0.85" stop-color="#322A8E"/>
<stop offset="1" stop-color="#362E94"/>
</linearGradient>
<linearGradient id="paint11_linear_5577_11823" x1="232.79" y1="144.4" x2="224.94" y2="139.28" gradientUnits="userSpaceOnUse">
<stop stop-color="#20196F"/>
<stop offset="0.85" stop-color="#322A8E"/>
<stop offset="1" stop-color="#362E94"/>
</linearGradient>
<linearGradient id="paint12_linear_5577_11823" x1="231.3" y1="119.73" x2="220.76" y2="122.21" gradientUnits="userSpaceOnUse">
<stop stop-color="#5E5EDD"/>
<stop offset="0.26" stop-color="#5252C8"/>
<stop offset="0.51" stop-color="#4949B8"/>
</linearGradient>
<linearGradient id="paint13_linear_5577_11823" x1="235.4" y1="94.5401" x2="252.97" y2="94.5401" gradientUnits="userSpaceOnUse">
<stop offset="0.22" stop-color="#3B3BA3"/>
<stop offset="0.44" stop-color="#5959C8"/>
<stop offset="0.67" stop-color="#7171E6"/>
<stop offset="0.86" stop-color="#8080F8"/>
<stop offset="1" stop-color="#8585FF"/>
</linearGradient>
<linearGradient id="paint14_linear_5577_11823" x1="219.81" y1="96.5401" x2="238.73" y2="96.5401" gradientUnits="userSpaceOnUse">
<stop stop-color="#8585FF"/>
<stop offset="0.16" stop-color="#7777EF"/>
<stop offset="0.5" stop-color="#5E5ED1"/>
<stop offset="0.79" stop-color="#4F4FBF"/>
<stop offset="1" stop-color="#4949B8"/>
</linearGradient>
<linearGradient id="paint15_linear_5577_11823" x1="433.07" y1="266.13" x2="508.14" y2="266.13" gradientUnits="userSpaceOnUse">
<stop offset="0.24" stop-color="#DAE0F5"/>
<stop offset="0.55" stop-color="#E6EAF8"/>
<stop offset="1" stop-color="white"/>
</linearGradient>
<linearGradient id="paint16_linear_5577_11823" x1="477.82" y1="240.29" x2="552.88" y2="240.29" gradientUnits="userSpaceOnUse">
<stop offset="0.24" stop-color="#DAE0F5"/>
<stop offset="0.55" stop-color="#E6EAF8"/>
<stop offset="1" stop-color="white"/>
</linearGradient>
<linearGradient id="paint17_linear_5577_11823" x1="522.57" y1="214.46" x2="597.63" y2="214.46" gradientUnits="userSpaceOnUse">
<stop offset="0.24" stop-color="#DAE0F5"/>
<stop offset="0.55" stop-color="#E6EAF8"/>
<stop offset="1" stop-color="white"/>
</linearGradient>
<linearGradient id="paint18_linear_5577_11823" x1="564.9" y1="174.02" x2="633.37" y2="174.02" gradientUnits="userSpaceOnUse">
<stop stop-color="#DAE0F5"/>
<stop offset="0.54" stop-color="#F1F3FB"/>
<stop offset="1" stop-color="white"/>
</linearGradient>
<linearGradient id="paint19_linear_5577_11823" x1="244.14" y1="215.68" x2="319.2" y2="215.68" gradientUnits="userSpaceOnUse">
<stop stop-color="#DAE0F5"/>
<stop offset="1" stop-color="white"/>
</linearGradient>
<linearGradient id="paint20_linear_5577_11823" x1="288.89" y1="241.52" x2="363.95" y2="241.52" gradientUnits="userSpaceOnUse">
<stop stop-color="#DAE0F5"/>
<stop offset="1" stop-color="white"/>
</linearGradient>
<linearGradient id="paint21_linear_5577_11823" x1="333.63" y1="267.35" x2="408.7" y2="267.35" gradientUnits="userSpaceOnUse">
<stop stop-color="#DAE0F5"/>
<stop offset="1" stop-color="white"/>
</linearGradient>
<linearGradient id="paint22_linear_5577_11823" x1="401.86" y1="286.12" x2="435.85" y2="286.12" gradientUnits="userSpaceOnUse">
<stop offset="0.24" stop-color="#DAE0F5"/>
<stop offset="0.55" stop-color="#E6EAF8"/>
<stop offset="1" stop-color="white"/>
</linearGradient>
<linearGradient id="paint23_linear_5577_11823" x1="198.171" y1="180.69" x2="599.78" y2="180.69" gradientUnits="userSpaceOnUse">
<stop offset="0.34" stop-color="#CED3F8"/>
<stop offset="0.71" stop-color="#BBC0E6"/>
</linearGradient>
<linearGradient id="paint24_linear_5577_11823" x1="198.17" y1="180.69" x2="599.78" y2="180.69" gradientUnits="userSpaceOnUse">
<stop offset="0.34" stop-color="#CED3F8"/>
<stop offset="0.71" stop-color="#BBC0E6"/>
</linearGradient>
<linearGradient id="paint25_linear_5577_11823" x1="259.51" y1="122.43" x2="538.43" y2="122.43" gradientUnits="userSpaceOnUse">
<stop offset="0.44" stop-color="#BBC0E6"/>
<stop offset="0.57" stop-color="#CED3F8"/>
</linearGradient>
<linearGradient id="paint26_linear_5577_11823" x1="279.59" y1="166.68" x2="518.35" y2="166.68" gradientUnits="userSpaceOnUse">
<stop offset="0.48" stop-color="#CED3F8"/>
<stop offset="0.49" stop-color="#C9CEF4"/>
<stop offset="0.53" stop-color="#BBC0E6"/>
</linearGradient>
<linearGradient id="paint27_linear_5577_11823" x1="317.53" y1="159.39" x2="357.79" y2="159.39" gradientUnits="userSpaceOnUse">
<stop stop-color="#8585FF"/>
<stop offset="0.38" stop-color="#6565D7"/>
<stop offset="0.79" stop-color="#4747B1"/>
<stop offset="1" stop-color="#3B3BA3"/>
</linearGradient>
<linearGradient id="paint28_linear_5577_11823" x1="338.07" y1="194.35" x2="358.2" y2="159.48" gradientUnits="userSpaceOnUse">
<stop stop-color="#8585FF"/>
<stop offset="0.38" stop-color="#6565D7"/>
<stop offset="0.79" stop-color="#4747B1"/>
<stop offset="1" stop-color="#3B3BA3"/>
</linearGradient>
<linearGradient id="paint29_linear_5577_11823" x1="317.53" y1="170.87" x2="358.6" y2="170.87" gradientUnits="userSpaceOnUse">
<stop stop-color="#DAE0F5"/>
<stop offset="0.31" stop-color="#DFE4F6"/>
<stop offset="0.7" stop-color="#EEF1FA"/>
<stop offset="1" stop-color="white"/>
</linearGradient>
<linearGradient id="paint30_linear_5577_11823" x1="480.42" y1="159.39" x2="440.15" y2="159.39" gradientUnits="userSpaceOnUse">
<stop stop-color="#8585FF"/>
<stop offset="1" stop-color="#3B3BA3"/>
</linearGradient>
<linearGradient id="paint31_linear_5577_11823" x1="459.88" y1="194.35" x2="439.75" y2="159.48" gradientUnits="userSpaceOnUse">
<stop stop-color="#8585FF"/>
<stop offset="1" stop-color="#3B3BA3"/>
</linearGradient>
<linearGradient id="paint32_linear_5577_11823" x1="398.95" y1="82.19" x2="518.35" y2="82.19" gradientUnits="userSpaceOnUse">
<stop stop-color="#DAE0F5"/>
<stop offset="1" stop-color="white"/>
</linearGradient>
<linearGradient id="paint33_linear_5577_11823" x1="198.17" y1="237.76" x2="599.78" y2="237.76" gradientUnits="userSpaceOnUse">
<stop offset="0.34" stop-color="#CED3F8"/>
<stop offset="0.71" stop-color="#BBC0E6"/>
</linearGradient>
<linearGradient id="paint34_linear_5577_11823" x1="326.77" y1="172.06" x2="358.6" y2="172.06" gradientUnits="userSpaceOnUse">
<stop stop-color="#DAE0F5"/>
<stop offset="0.31" stop-color="#DFE4F6"/>
<stop offset="0.7" stop-color="#EEF1FA"/>
<stop offset="1" stop-color="white"/>
</linearGradient>
<linearGradient id="paint35_linear_5577_11823" x1="439.34" y1="186.1" x2="489.74" y2="186.1" gradientUnits="userSpaceOnUse">
<stop stop-color="#DAE0F5"/>
<stop offset="0.31" stop-color="#DFE4F6"/>
<stop offset="0.7" stop-color="#EEF1FA"/>
<stop offset="1" stop-color="white"/>
</linearGradient>
<linearGradient id="paint36_linear_5577_11823" x1="415.83" y1="166.36" x2="599.78" y2="166.36" gradientUnits="userSpaceOnUse">
<stop stop-color="#DAE0F5"/>
<stop offset="1" stop-color="white"/>
</linearGradient>
<linearGradient id="paint37_linear_5577_11823" x1="320" y1="90.17" x2="477.95" y2="90.17" gradientUnits="userSpaceOnUse">
<stop offset="0.45" stop-color="#CED3F8"/>
<stop offset="0.54" stop-color="#ABB2DA"/>
</linearGradient>
<linearGradient id="paint38_linear_5577_11823" x1="313.27" y1="76.96" x2="484.67" y2="76.96" gradientUnits="userSpaceOnUse">
<stop offset="0.44" stop-color="#DAE0F5"/>
<stop offset="0.55" stop-color="#BBC0E6"/>
</linearGradient>
<linearGradient id="paint39_linear_5577_11823" x1="332.92" y1="31.2" x2="464.99" y2="31.2" gradientUnits="userSpaceOnUse">
<stop offset="0.43" stop-color="white"/>
<stop offset="0.58" stop-color="#DFE4F4"/>
</linearGradient>
<linearGradient id="paint40_linear_5577_11823" x1="398.95" y1="87.95" x2="398.95" y2="14.05" gradientUnits="userSpaceOnUse">
<stop stop-color="#362E94"/>
<stop offset="0.14" stop-color="#423C9C"/>
<stop offset="0.41" stop-color="#6360B0"/>
<stop offset="0.78" stop-color="#989AD1"/>
<stop offset="1" stop-color="#BBC0E6"/>
</linearGradient>
<linearGradient id="paint41_linear_5577_11823" x1="316.75" y1="90.76" x2="328.08" y2="90.76" gradientUnits="userSpaceOnUse">
<stop stop-color="#C4CAE9"/>
<stop offset="1" stop-color="white"/>
</linearGradient>
<linearGradient id="paint42_linear_5577_11823" x1="312.17" y1="89.8499" x2="321.34" y2="89.8499" gradientUnits="userSpaceOnUse">
<stop stop-color="#D453B5"/>
<stop offset="0.41" stop-color="#B13D95"/>
<stop offset="0.78" stop-color="#982E7E"/>
<stop offset="1" stop-color="#8F2876"/>
</linearGradient>
<linearGradient id="paint43_linear_5577_11823" x1="382.97" y1="128.98" x2="394.29" y2="128.98" gradientUnits="userSpaceOnUse">
<stop stop-color="#C4CAE9"/>
<stop offset="1" stop-color="white"/>
</linearGradient>
<linearGradient id="paint44_linear_5577_11823" x1="378.39" y1="128.08" x2="387.55" y2="128.08" gradientUnits="userSpaceOnUse">
<stop stop-color="#D453B5"/>
<stop offset="0.41" stop-color="#B13D95"/>
<stop offset="0.78" stop-color="#982E7E"/>
<stop offset="1" stop-color="#8F2876"/>
</linearGradient>
<linearGradient id="paint45_linear_5577_11823" x1="465.65" y1="194.03" x2="491.88" y2="194.03" gradientUnits="userSpaceOnUse">
<stop stop-color="#DAE0F5"/>
<stop offset="0.31" stop-color="#DFE4F6"/>
<stop offset="0.7" stop-color="#EEF1FB"/>
<stop offset="1" stop-color="white"/>
</linearGradient>
<linearGradient id="paint46_linear_5577_11823" x1="462.58" y1="238.48" x2="488.81" y2="238.48" gradientUnits="userSpaceOnUse">
<stop stop-color="#DAE0F5"/>
<stop offset="0.31" stop-color="#DFE4F6"/>
<stop offset="0.7" stop-color="#EEF1FB"/>
<stop offset="1" stop-color="white"/>
</linearGradient>
<linearGradient id="paint47_linear_5577_11823" x1="518.45" y1="208.86" x2="544.69" y2="208.86" gradientUnits="userSpaceOnUse">
<stop stop-color="#DAE0F5"/>
<stop offset="0.31" stop-color="#DFE4F6"/>
<stop offset="0.7" stop-color="#EEF1FB"/>
<stop offset="1" stop-color="white"/>
</linearGradient>
<linearGradient id="paint48_linear_5577_11823" x1="253.05" y1="125.37" x2="279.59" y2="125.37" gradientUnits="userSpaceOnUse">
<stop stop-color="#DAE0F5"/>
<stop offset="0.95" stop-color="#FDFDFE"/>
<stop offset="1" stop-color="white"/>
</linearGradient>
<linearGradient id="paint49_linear_5577_11823" x1="259.57" y1="194.75" x2="285.8" y2="194.75" gradientUnits="userSpaceOnUse">
<stop stop-color="#DAE0F5"/>
<stop offset="0.31" stop-color="#DFE4F6"/>
<stop offset="0.7" stop-color="#EEF1FB"/>
<stop offset="1" stop-color="white"/>
</linearGradient>
<linearGradient id="paint50_linear_5577_11823" x1="289.8" y1="315.98" x2="316.03" y2="315.98" gradientUnits="userSpaceOnUse">
<stop stop-color="#DAE0F5"/>
<stop offset="0.31" stop-color="#DFE4F6"/>
<stop offset="0.7" stop-color="#EEF1FB"/>
<stop offset="1" stop-color="white"/>
</linearGradient>
<linearGradient id="paint51_linear_5577_11823" x1="168.92" y1="231.23" x2="195.15" y2="231.23" gradientUnits="userSpaceOnUse">
<stop stop-color="#DAE0F5"/>
<stop offset="0.31" stop-color="#DFE4F6"/>
<stop offset="0.7" stop-color="#EEF1FB"/>
<stop offset="1" stop-color="white"/>
</linearGradient>
<linearGradient id="paint52_linear_5577_11823" x1="571.09" y1="246.56" x2="549.34" y2="246.56" gradientUnits="userSpaceOnUse">
<stop offset="0.01" stop-color="white"/>
<stop offset="0.25" stop-color="#FAFBFD"/>
<stop offset="0.53" stop-color="#ECEEF8"/>
<stop offset="0.83" stop-color="#D4D8EF"/>
<stop offset="1" stop-color="#C4CAE9"/>
</linearGradient>
<linearGradient id="paint53_linear_5577_11823" x1="561.32" y1="253.13" x2="537.94" y2="253.13" gradientUnits="userSpaceOnUse">
<stop offset="0.01" stop-color="white"/>
<stop offset="0.25" stop-color="#FAFBFD"/>
<stop offset="0.53" stop-color="#ECEEF8"/>
<stop offset="0.83" stop-color="#D4D8EF"/>
<stop offset="1" stop-color="#C4CAE9"/>
</linearGradient>
<linearGradient id="paint54_linear_5577_11823" x1="542.75" y1="245.73" x2="551.96" y2="245.73" gradientUnits="userSpaceOnUse">
<stop stop-color="#423EAF"/>
<stop offset="0.3" stop-color="#3A35A0"/>
<stop offset="0.89" stop-color="#241E77"/>
<stop offset="1" stop-color="#20196F"/>
</linearGradient>
<linearGradient id="paint55_linear_5577_11823" x1="531.45" y1="252.28" x2="540.67" y2="252.28" gradientUnits="userSpaceOnUse">
<stop stop-color="#423EAF"/>
<stop offset="0.3" stop-color="#3A35A0"/>
<stop offset="0.89" stop-color="#241E77"/>
<stop offset="1" stop-color="#20196F"/>
</linearGradient>
<linearGradient id="paint56_linear_5577_11823" x1="536.33" y1="230.33" x2="549.75" y2="230.33" gradientUnits="userSpaceOnUse">
<stop stop-color="#5E5EDD"/>
<stop offset="0.26" stop-color="#5252C8"/>
<stop offset="0.51" stop-color="#4949B8"/>
</linearGradient>
<linearGradient id="paint57_linear_5577_11823" x1="531.475" y1="208.882" x2="549.117" y2="203.833" gradientUnits="userSpaceOnUse">
<stop stop-color="#D453B5"/>
<stop offset="0.27" stop-color="#D759B8"/>
<stop offset="0.62" stop-color="#DF69C2"/>
<stop offset="1" stop-color="#EB83D2"/>
</linearGradient>
<linearGradient id="paint58_linear_5577_11823" x1="531.95" y1="209.41" x2="538.97" y2="209.41" gradientUnits="userSpaceOnUse">
<stop stop-color="#D1D7F3"/>
<stop offset="0.43" stop-color="#E2E6F7"/>
<stop offset="1" stop-color="white"/>
</linearGradient>
<linearGradient id="paint59_linear_5577_11823" x1="518.62" y1="201.72" x2="534.89" y2="201.72" gradientUnits="userSpaceOnUse">
<stop stop-color="#E56EC9"/>
<stop offset="0.35" stop-color="#E671CA"/>
<stop offset="0.62" stop-color="#E87BCE"/>
<stop offset="0.85" stop-color="#EC8BD5"/>
<stop offset="1" stop-color="#F099DB"/>
</linearGradient>
<linearGradient id="paint60_linear_5577_11823" x1="615.02" y1="214.65" x2="641.25" y2="214.65" gradientUnits="userSpaceOnUse">
<stop stop-color="#DAE0F5"/>
<stop offset="0.31" stop-color="#DFE4F6"/>
<stop offset="0.7" stop-color="#EEF1FB"/>
<stop offset="1" stop-color="white"/>
</linearGradient>
<linearGradient id="paint61_linear_5577_11823" x1="632.54" y1="163.73" x2="685.8" y2="163.73" gradientUnits="userSpaceOnUse">
<stop stop-color="#C4CAE9"/>
<stop offset="0.65" stop-color="#EEF0F9"/>
<stop offset="1" stop-color="white"/>
</linearGradient>
<linearGradient id="paint62_linear_5577_11823" x1="144.96" y1="164.18" x2="181.8" y2="164.18" gradientUnits="userSpaceOnUse">
<stop stop-color="#DAE0F5"/>
<stop offset="0.33" stop-color="#E1E6F7"/>
<stop offset="0.81" stop-color="#F5F7FC"/>
<stop offset="1" stop-color="white"/>
</linearGradient>
<linearGradient id="paint63_linear_5577_11823" x1="485.58" y1="312.44" x2="545.12" y2="312.44" gradientUnits="userSpaceOnUse">
<stop offset="0.33" stop-color="#C6CBE7"/>
<stop offset="0.59" stop-color="#D9DDEF"/>
<stop offset="1" stop-color="white"/>
</linearGradient>
<linearGradient id="paint64_linear_5577_11823" x1="498.94" y1="305.56" x2="516.93" y2="305.56" gradientUnits="userSpaceOnUse">
<stop stop-color="#BDC1E4"/>
<stop offset="1" stop-color="#DEE2F9"/>
</linearGradient>
<linearGradient id="paint65_linear_5577_11823" x1="493.87" y1="318.81" x2="505.34" y2="318.81" gradientUnits="userSpaceOnUse">
<stop stop-color="#BDC1E4"/>
<stop offset="1" stop-color="#D0D4F6"/>
</linearGradient>
<linearGradient id="paint66_linear_5577_11823" x1="521.513" y1="318.693" x2="510.49" y2="318.865" gradientUnits="userSpaceOnUse">
<stop stop-color="#D0D4F6"/>
<stop offset="1" stop-color="#BDC1E4"/>
</linearGradient>
<linearGradient id="paint67_linear_5577_11823" x1="522.45" y1="309.89" x2="530.27" y2="309.89" gradientUnits="userSpaceOnUse">
<stop offset="0.4" stop-color="#BDC1E4"/>
<stop offset="1" stop-color="#D0D4F6"/>
</linearGradient>
</defs>
</svg>
