<svg width="480" height="320" viewBox="0 0 480 320" fill="none" xmlns="http://www.w3.org/2000/svg">
<g clip-path="url(#clip0_5838_11948)">
<path style="mix-blend-mode:multiply" d="M289.7 216.22H285.99V222.78L274.52 229.4L280.25 232.71L203.68 276.93H230.22L312.53 229.4L289.7 216.22Z" fill="url(#paint0_linear_5838_11948)"/>
<path d="M263.16 196.45L285.99 209.63L203.68 257.15L180.85 243.97L263.16 196.45Z" fill="#F6F6FB"/>
<path d="M180.85 243.97L203.68 257.15V276.93L180.85 263.74V243.97Z" fill="#CED3F8"/>
<path d="M285.99 209.63L203.68 257.15V276.93L285.99 229.4V209.63Z" fill="#BBC0E6"/>
<path style="mix-blend-mode:multiply" d="M180.85 195.65L158.01 228.61H184.56L210.32 213.73L180.85 195.65Z" fill="url(#paint1_linear_5838_11948)"/>
<path d="M98.5302 148.13L75.7002 161.31L158.01 208.84L180.85 195.65L98.5302 148.13Z" fill="#807DFB"/>
<path d="M180.85 195.65L158.01 208.84V228.61L180.85 215.43V195.65Z" fill="#423EAF"/>
<path d="M75.7002 161.31L158.01 208.84V228.61L75.7002 181.08V161.31Z" fill="#5652CC"/>
<path style="mix-blend-mode:multiply" d="M446.07 140.17L423.24 173.12H449.78L475.54 158.25L446.07 140.17Z" fill="url(#paint2_linear_5838_11948)"/>
<path d="M363.76 92.6399L340.93 105.83L423.24 153.35L446.07 140.17L363.76 92.6399Z" fill="#E56EC9"/>
<path d="M446.07 140.17L423.24 153.35V173.12L446.07 159.94V140.17Z" fill="#B8429B"/>
<path d="M340.93 105.83L423.24 153.35V173.12L340.93 125.6V105.83Z" fill="#D453B5"/>
<path style="mix-blend-mode:multiply" d="M255.05 173.02H203L207.03 181.84H255.05V173.02Z" fill="url(#paint3_linear_5838_11948)"/>
<path style="mix-blend-mode:multiply" d="M243.25 161.4H194.76L195.23 167.01H243.25V161.4Z" fill="url(#paint4_linear_5838_11948)"/>
<path d="M191.58 153.2C189.96 152.1 187.41 153.98 186.77 156.06C186.845 156.889 187.058 157.701 187.4 158.46C187.4 158.46 190.11 164.46 191.03 165.46C191.95 166.46 195.68 167.96 197.48 166.46C198.77 164.78 196.21 163.78 195.74 162.13C195.13 159.97 195.39 158.25 194.74 156.62C194.3 155.31 191.58 153.2 191.58 153.2Z" fill="url(#paint5_linear_5838_11948)"/>
<path d="M186.92 155.65C186.997 156.48 187.213 157.292 187.56 158.05C187.56 158.05 190.26 164.05 191.18 165.1C192.1 166.15 195.84 167.6 197.63 166.1C197.698 166.012 197.758 165.918 197.81 165.82C197.756 166.065 197.647 166.294 197.49 166.49C195.69 168.02 191.96 166.55 191.04 165.49C190.12 164.43 187.41 158.49 187.41 158.49C187.068 157.731 186.855 156.919 186.78 156.09C186.816 155.94 186.863 155.793 186.92 155.65Z" fill="#131147"/>
<path d="M196 154.57C194.686 153.906 193.33 153.328 191.94 152.84C191.743 153.082 191.488 153.271 191.2 153.39L191.06 153.44C190.773 153.415 190.485 153.473 190.229 153.607C189.974 153.741 189.762 153.945 189.619 154.195C189.476 154.446 189.408 154.732 189.422 155.02C189.437 155.307 189.533 155.585 189.7 155.82C191.45 158.98 195.49 158.87 195.05 157.37C194.78 156.37 195.61 155.18 196 154.57Z" fill="white"/>
<path d="M195.15 158.19C195.28 157.69 195.42 156.61 194.15 156.44C192.88 156.27 191.31 156.86 191.43 157.65C191.69 159.28 195 158.69 195.15 158.19Z" fill="url(#paint6_linear_5838_11948)"/>
<path d="M190.17 152.9C191.68 150.9 202.9 137.36 208.17 134.67C206.39 127.21 201.78 117.52 203.24 109.54H214.5C214.5 109.54 221.18 133.18 216.9 138.82C213.67 143.09 199.35 154 194.01 157.44C192.2 157.44 189.5 154.49 190.17 152.9Z" fill="url(#paint7_linear_5838_11948)"/>
<path d="M199.72 172.54C197.79 172.85 197.23 175.97 198.19 177.93C198.82 178.478 199.536 178.917 200.31 179.23C200.31 179.23 206.42 181.74 207.79 181.85C209.16 181.96 212.22 181.44 212.47 179.1C212.23 177.66 211.03 177.27 209.55 176.39C207.62 175.25 205.97 173.59 204.42 172.82C203.14 172.2 199.72 172.54 199.72 172.54Z" fill="url(#paint8_linear_5838_11948)"/>
<path d="M207.75 181.22C206.34 181.11 200.05 178.53 200.05 178.53C199.284 178.212 198.572 177.777 197.94 177.24C198.007 177.476 198.09 177.706 198.19 177.93C198.82 178.478 199.536 178.917 200.31 179.23C200.31 179.23 206.42 181.74 207.79 181.85C209.16 181.96 212.22 181.44 212.47 179.1C212.47 179.1 212.47 179 212.47 178.95C211.78 180.89 209 181.32 207.75 181.22Z" fill="#131147"/>
<path d="M203.88 170.47C202.471 170.892 201.091 171.407 199.75 172.01C199.778 172.318 199.727 172.628 199.6 172.91L199.52 173.04C198.95 173.6 198.33 174.6 200.11 175.15C203.54 176.24 206.48 173.93 205.11 173.15C204.21 172.63 204 171.2 203.88 170.47Z" fill="white"/>
<path d="M205.71 173.62C205.45 173.27 204.86 172.37 203.81 173.12C203.382 173.369 203.037 173.74 202.82 174.185C202.603 174.63 202.523 175.129 202.59 175.62C202.72 176.41 204.98 175.83 205.07 175.71C205.16 175.59 205.71 173.62 205.71 173.62Z" fill="url(#paint9_linear_5838_11948)"/>
<path d="M204.65 112.74C204.65 123.32 204.75 131.56 204.75 140.79C204.75 151.35 205.56 164.44 205.45 173.29C203.75 175.39 199.45 174.86 198.53 173.29C197.41 165.29 194.91 153.02 195.53 144.29C192.85 132.74 190.27 119.15 191.36 110.08C193.92 110.81 202.09 111.93 204.65 112.74Z" fill="url(#paint10_linear_5838_11948)"/>
<path d="M217.48 83.1201C221.28 85.2301 227.1 98.8801 228.73 101.03C230.36 103.18 243.63 110.61 243.63 110.61C241.847 111.939 239.976 113.145 238.03 114.22C236.5 113.37 227.68 109.99 222.85 105.53C220.317 103.119 218.302 100.217 216.93 97.0001C213.2 87.6901 217.48 83.1201 217.48 83.1201Z" fill="url(#paint11_linear_5838_11948)"/>
<path d="M246.17 107.61L216.71 124.62L303.03 174.41L332.49 157.4L246.17 107.61Z" fill="#F6F6FB"/>
<path d="M332.49 157.4L303.03 174.41V199.93L332.49 182.92V157.4Z" fill="#BBC0E6"/>
<path d="M216.71 124.62L303.03 174.41V199.93L216.71 150.14V124.62Z" fill="#CED3F8"/>
<path d="M197.76 87.0001C199.99 84.2001 205.49 80.2901 209.09 80.0001C211.761 79.8367 214.402 80.6384 216.531 82.2593C218.66 83.8801 220.136 86.212 220.69 88.8301C221.46 92.9101 213.92 113.49 215.23 118.9C214.58 121.75 209.84 123.3 207.85 123.73C199.21 125.63 190.48 124.42 190.38 118.9C190.06 100.64 194.53 90.2301 197.76 87.0001Z" fill="url(#paint12_linear_5838_11948)"/>
<path d="M210 127C210.25 127.36 210.91 131.24 208 131.84C206.67 130.88 206.86 127.09 210 127Z" fill="url(#paint13_linear_5838_11948)"/>
<path d="M208.35 126.7L209.98 127.7C210.838 127.972 211.745 128.054 212.638 127.94C213.53 127.826 214.388 127.519 215.15 127.04C216.8 125.92 216.56 128.73 214.79 129.2C213.02 129.67 212.86 130.36 215.39 131.33C216.427 131.73 217.349 132.383 218.07 133.23C218.83 134.35 219.47 136.62 217.79 137.35C216.42 137.94 213.13 135.63 212.13 134.98C209.36 133.19 210.07 132.71 208.54 131.58C207.979 131.08 207.332 130.687 206.63 130.42L208.35 126.7Z" fill="#FCD1A9"/>
<path d="M201.71 87.1501C199.89 86.4001 196.62 85.9301 194.71 91.5501C193.6 94.7401 192.71 105.93 194.1 111.55C196.1 119.29 200.91 127.3 207.99 131.83C207.07 130.26 208.36 127.39 209.99 126.99C205.11 121.45 201.69 114.24 201.69 110.69C201.785 105.131 202.29 99.5855 203.2 94.1001C204.1 90.3201 203.5 87.8901 201.71 87.1501Z" fill="#8585FF"/>
<path d="M208.32 71.9101C208.09 69.9101 214.95 73.9701 214.67 76.5901C214.45 78.7201 213.83 80.5901 215.98 81.9201C216.73 82.5201 219.27 86.6601 215.36 86.7001C209.77 86.7701 208.28 85.2401 204.24 81.7701C206.65 80.4101 209.05 78.3401 208.32 71.9101Z" fill="#FCD1A9"/>
<path d="M206.71 70.7401L209.49 66.8201H221.61V74.1201C221.61 78.1201 218.89 81.4101 215.55 81.4101C213.841 81.3585 212.219 80.6479 211.022 79.427C209.825 78.2061 209.147 76.5696 209.13 74.8601L207.66 74.3501L206.71 70.7401Z" fill="#FCD1A9"/>
<path d="M215.27 83.3601C212.37 83.3601 208.79 78.7101 209.13 74.8601C209.227 76.5027 209.9 78.0586 211.03 79.2546C212.16 80.4506 213.675 81.2102 215.31 81.4001C215.516 81.5942 215.741 81.7683 215.98 81.9201C216.054 81.9828 216.121 82.0532 216.18 82.1301C216.18 82.7201 215.79 83.3601 215.27 83.3601Z" fill="#F2C39D"/>
<path d="M220.9 63.53C222.01 63.34 222.11 62.41 217.62 60.86C215.01 59.58 211.31 59.19 208.91 60.67C205.67 62.67 204.69 65.67 205.27 69.33C205.788 71.9045 206.789 74.3577 208.22 76.56C208.58 76.93 208.64 75.22 208.34 73.95C208.116 73.6286 207.972 73.2584 207.92 72.87C207.06 69.1 209.37 69.67 209.68 69.98C210.39 70.28 209.02 73.39 211.1 73.08C212.1 72.93 211.97 70.08 211.97 69.08C212.122 69.1119 212.272 69.152 212.42 69.2C214.14 70.2 219.98 70.85 216.74 68.82C219 68.82 222.08 69.82 223.12 68.43C224.35 66.77 222.38 64.91 220.9 63.53Z" fill="#20196F"/>
<path style="mix-blend-mode:multiply" d="M384.95 239.46H348.66V247.06H384.95V239.46Z" fill="url(#paint14_linear_5838_11948)"/>
<path style="mix-blend-mode:multiply" d="M368.65 250.43H329.63V258.03H368.65V250.43Z" fill="url(#paint15_linear_5838_11948)"/>
<path d="M353 244.72C353 238.72 349.22 238.58 349.22 238.58C347.339 238.615 345.472 238.254 343.74 237.52C339.49 235.93 335.93 236.35 338.51 241.13L338.6 241.3C338.813 241.614 339.102 241.869 339.44 242.04L347.71 246.89C349 247.61 353 245.94 353 244.72Z" fill="url(#paint16_linear_5838_11948)"/>
<path d="M353 244.18C352.93 245.41 349 247.04 347.73 246.32L339.46 241.48C339.048 241.228 338.657 240.944 338.29 240.63L338.53 241.13L338.62 241.3C338.833 241.614 339.122 241.869 339.46 242.04L347.73 246.89C348.91 247.56 352.5 246.15 352.97 244.95C352.979 244.87 352.979 244.79 352.97 244.71C352.99 244.534 353 244.357 353 244.18Z" fill="#131147"/>
<path d="M351.49 237.79C350.62 237.869 349.757 238.016 348.91 238.23C348.09 238.02 345.41 237.92 343.66 237.4C343.13 237.25 342.66 236.92 342.09 237.34C341.39 238.2 343.2 240.28 346.93 241.89C347.358 242.205 347.884 242.357 348.414 242.318C348.944 242.28 349.442 242.053 349.82 241.68C350.03 241.25 350.351 240.884 350.75 240.62C351.018 240.436 351.321 240.31 351.64 240.25C351.638 240.223 351.638 240.197 351.64 240.17C351.64 240.17 351.9 237.79 351.49 237.79Z" fill="#FCD1A9"/>
<path d="M349.62 198.55C351.28 193.46 350.52 187.55 349.28 181.68C345.55 181.74 338.47 179.68 334.74 179.68C336.13 190.91 339.26 200.79 341.13 211.68C343.13 222.25 345.52 230.02 347.49 238.82C348.22 240.46 351.74 239.72 351.74 238.74C352.403 229.725 351.65 220.662 349.51 211.88C349.68 207.68 349 202.76 349.62 198.55Z" fill="#3B3BA3"/>
<path d="M334.18 255.68C334.18 249.68 330.4 249.54 330.4 249.54C328.481 249.498 326.585 249.101 324.81 248.37C320.56 246.78 317.11 247.32 319.7 252.1C319.7 252.15 319.76 252.21 319.79 252.27C320.008 252.579 320.296 252.832 320.63 253.01L328.89 257.85C330.15 258.58 334.16 256.91 334.18 255.68Z" fill="url(#paint17_linear_5838_11948)"/>
<path d="M334.17 255.15C334.09 256.37 330.17 258.01 328.89 257.29L320.63 252.44C320.212 252.201 319.82 251.92 319.46 251.6C319.54 251.76 319.6 251.92 319.7 252.1C319.8 252.28 319.76 252.21 319.79 252.27C320.008 252.579 320.296 252.832 320.63 253.01L328.89 257.85C330.07 258.53 333.66 257.11 334.13 255.92C334.138 255.84 334.138 255.76 334.13 255.68C334.18 255.49 334.17 255.33 334.17 255.15Z" fill="#131147"/>
<path d="M332.65 248.76C331.777 248.839 330.911 248.986 330.06 249.2C329.25 248.99 326.57 248.89 324.81 248.37C324.29 248.22 323.81 247.89 323.25 248.31C322.55 249.16 324.36 251.25 328.08 252.85C328.506 253.168 329.032 253.323 329.562 253.286C330.093 253.25 330.592 253.024 330.97 252.65C331.184 252.219 331.508 251.854 331.91 251.59C332.18 251.407 332.482 251.278 332.8 251.21V251.13C332.8 251.13 333.05 248.76 332.65 248.76Z" fill="#FCD1A9"/>
<path d="M339.69 206.13C342.88 193.34 350.06 200.67 349.28 181.68C345.59 181.13 332.38 189.49 328.68 188.94C326.51 202.71 326.96 211.21 327.03 222.25C327.28 233.01 328.03 240.37 328.49 249.38C328.94 251.11 332.88 250.98 332.88 249.93C334.72 242.03 336.19 232.38 335.34 222.76C336.44 217.43 338.49 211.79 339.69 206.13Z" fill="url(#paint18_linear_5838_11948)"/>
<path d="M347.38 201.4C341.38 205.11 331.87 207.4 325.78 204.67C325.59 194.83 329.93 176.28 328.56 171.89C328.09 170.4 326.28 171.64 325.56 170.18C323.78 166.38 322.71 158.48 322.71 157.28C322.71 154.72 324.76 152.07 326.89 150.66C329.79 148.72 333.89 146.13 337.56 146.84C345.5 149.07 349.31 168.42 351.7 194.92C351.14 197.61 350.41 199.53 347.38 201.4Z" fill="url(#paint19_linear_5838_11948)"/>
<path d="M336.23 148.64C333.8 147.01 333.94 145.7 334.23 143.35C334.652 142.06 334.845 140.706 334.8 139.35C334.6 134.15 331.12 129.78 327.08 130.21C318.92 131.08 320.53 135.33 320.73 140.53C320.91 145.35 323.22 148.58 326.89 149C326.913 149.45 326.815 149.898 326.605 150.298C326.396 150.697 326.083 151.033 325.7 151.27C328.43 152.77 332.7 151.96 334.38 151.27C336.06 150.58 337.39 149.75 336.23 148.64Z" fill="#FCD1A9"/>
<path d="M302 178.86C301.28 178.92 300.76 177.19 299.58 177.05C298.4 176.91 295.92 176.52 295.97 177.24C296.02 177.96 298.14 177.74 297.85 178.05C297.02 178.94 295.02 178.05 294.54 177.29C294.06 176.53 293.36 176.46 293.43 177.29C293.5 178.12 293.95 181.56 296.77 182.35C298.766 182.814 300.828 182.919 302.86 182.66L302 178.86Z" fill="#FCD1A9"/>
<path d="M301.8 182.91C301.8 182.91 299.29 181.25 301.6 178.42C309.74 176.97 319.86 167.79 322.34 156.88C323.84 152.63 328.61 155.6 327.62 161C326.06 169.52 316.15 182.5 301.8 182.91Z" fill="url(#paint20_linear_5838_11948)"/>
<path d="M319.62 137.19C319.77 134.19 322.22 129.09 327.62 129.47C332.83 129.84 335.04 133.54 335.1 138.05C335.1 141.58 338.3 151.6 346.25 151.05C342.83 157.3 318.57 158.43 319.62 137.19Z" fill="#20196F"/>
<path style="mix-blend-mode:multiply" d="M156.07 79.3H145.08L170.94 94.22L145.08 109.15H156.07L181.92 94.22L156.07 79.3Z" fill="url(#paint21_linear_5838_11948)"/>
<path d="M145.08 109.15L170.94 94.22V87.79L145.08 102.72V109.15Z" fill="#BBC0E6"/>
<path d="M145.08 109.15L119.23 94.22V87.79L145.08 102.72V109.15Z" fill="#CED3F8"/>
<path d="M145.08 102.72L119.23 87.7901L145.08 72.8701L170.94 87.7901L145.08 102.72Z" fill="#F6F6FB"/>
<path d="M145.09 92.0301L137.75 87.7901L145.09 83.5601L152.43 87.7901L145.09 92.0301Z" fill="#807DFB"/>
<path d="M377.11 188.03L387.28 193.91L377.11 199.78L366.93 193.91L377.11 188.03Z" fill="#807DFB"/>
<path d="M366.93 193.91L377.11 199.78V211.53L366.93 205.66V193.91Z" fill="#5652CC"/>
<path d="M387.28 193.91L377.11 199.78V211.53L387.28 205.66V193.91Z" fill="#423EAF"/>
<path style="mix-blend-mode:multiply" d="M377.11 211.53H403.34V199.78H387.28V205.66L377.11 211.53Z" fill="url(#paint22_linear_5838_11948)"/>
<path d="M393.5 197.5L403.67 203.37L393.5 209.24L383.32 203.37L393.5 197.5Z" fill="#807DFB"/>
<path d="M383.32 203.37L393.5 209.24V220.99L383.32 215.12V203.37Z" fill="#5652CC"/>
<path d="M403.67 203.37L393.5 209.24V220.99L403.67 215.12V203.37Z" fill="#423EAF"/>
<path style="mix-blend-mode:multiply" d="M393.5 220.99H419.73V209.25L403.67 209.24V215.12L393.5 220.99Z" fill="url(#paint23_linear_5838_11948)"/>
<path d="M263.89 120L274.64 126.21L263.89 132.42L253.14 126.21L263.89 120Z" fill="#8585FF"/>
<path d="M253.14 126.21L263.89 132.42V144.83L253.14 138.62V126.21Z" fill="#5E5EDD"/>
<path d="M274.64 126.21L263.89 132.42V144.83L274.64 138.62V126.21Z" fill="#4949B8"/>
<path style="mix-blend-mode:multiply" d="M263.89 144.83H288.71V132.42H273.51V138.62L263.89 144.83Z" fill="url(#paint24_linear_5838_11948)"/>
<path d="M281.21 130L291.96 136.21L281.21 142.42L270.46 136.21L281.21 130Z" fill="#E56EC9"/>
<path d="M270.46 136.21L281.21 142.42V154.83L270.46 148.62V136.21Z" fill="#D453B5"/>
<path d="M291.96 136.21L281.21 142.42V154.83L291.96 148.62V136.21Z" fill="#B8429B"/>
<path style="mix-blend-mode:multiply" d="M281.21 154.83H305.31V142.42H290.55V148.62L281.21 154.83Z" fill="url(#paint25_linear_5838_11948)"/>
<path style="mix-blend-mode:multiply" d="M71.9598 276.92H128.28V247.88H71.9598V276.92Z" fill="url(#paint26_linear_5838_11948)"/>
<path d="M68.0898 246.64L48.6798 235.44C48.2126 235.282 47.8069 234.981 47.5195 234.58C47.2322 234.179 47.0776 233.698 47.0776 233.205C47.0776 232.712 47.2322 232.231 47.5195 231.83C47.8069 231.429 48.2126 231.128 48.6798 230.97L68.0898 219.77C69.2847 219.159 70.6077 218.841 71.9498 218.841C73.2918 218.841 74.6148 219.159 75.8098 219.77L95.2298 231C95.6981 231.156 96.1055 231.455 96.3943 231.855C96.683 232.255 96.8384 232.736 96.8384 233.23C96.8384 233.724 96.683 234.205 96.3943 234.605C96.1055 235.005 95.6981 235.304 95.2298 235.46L75.8098 246.66C74.6148 247.271 73.2918 247.589 71.9498 247.589C70.6077 247.589 69.2847 247.271 68.0898 246.66V246.64Z" fill="#F6F6FB"/>
<path d="M95.2301 235.44L75.8101 246.64C74.6151 247.251 73.2922 247.569 71.9501 247.569C70.608 247.569 69.2851 247.251 68.0901 246.64L48.6801 235.44C48.2396 235.243 47.8593 234.933 47.5782 234.542C47.297 234.15 47.1251 233.69 47.0801 233.21V262.57C47.1251 263.05 47.297 263.51 47.5782 263.902C47.8593 264.293 48.2396 264.603 48.6801 264.8L68.0901 276C69.2851 276.611 70.608 276.929 71.9501 276.929C73.2922 276.929 74.6151 276.611 75.8101 276L95.2301 264.8C95.6693 264.602 96.0485 264.291 96.3294 263.9C96.6103 263.508 96.783 263.05 96.8301 262.57V233.21C96.783 233.69 96.6103 234.148 96.3294 234.54C96.0485 234.931 95.6693 235.242 95.2301 235.44Z" fill="url(#paint27_linear_5838_11948)"/>
<path d="M65.0499 229.22C67.1882 228.135 69.5521 227.57 71.9499 227.57C74.3476 227.57 76.7116 228.135 78.8499 229.22C82.6599 231.42 82.6599 234.99 78.8499 237.22C76.7116 238.305 74.3476 238.87 71.9499 238.87C69.5521 238.87 67.1882 238.305 65.0499 237.22C61.2399 235 61.2399 231.42 65.0499 229.22Z" fill="url(#paint28_linear_5838_11948)"/>
<path style="mix-blend-mode:multiply" d="M321 57.9199C318.829 57.496 316.622 57.275 314.41 57.2599H275.61C274.135 57.1532 272.656 57.3787 271.28 57.9199C270.58 58.3199 270.68 58.9199 271.75 59.4899V83.7999C270.68 84.4199 270.58 84.9699 271.28 85.3799C272.658 85.9115 274.136 86.1335 275.61 86.0299H281.54V89.4499C280.48 90.0699 280.37 90.6299 281.07 91.0299C282.448 91.5615 283.926 91.7835 285.4 91.6799H291.33V95.1099C290.27 95.7199 290.17 96.2799 290.86 96.6799C292.239 97.2219 293.722 97.4475 295.2 97.3399H334C336.212 97.3248 338.419 97.1039 340.59 96.6799C342.325 96.4064 344.01 95.8774 345.59 95.1099V70.7999C337.34 64.2899 323.13 58.3199 321 57.9199Z" fill="url(#paint29_linear_5838_11948)"/>
<path d="M297.62 62.9299C297.403 62.5275 297.09 62.1842 296.71 61.9299L291.71 59.0499C291.579 58.9578 291.426 58.9011 291.267 58.8854C291.108 58.8696 290.947 58.8953 290.8 58.9599L265.39 73.6799C265.535 73.6152 265.694 73.5894 265.852 73.6052C266.01 73.621 266.161 73.6778 266.29 73.7699L271.29 76.6499C271.664 76.892 271.975 77.2195 272.198 77.6055C272.42 77.9915 272.548 78.4249 272.57 78.8699V84.6399C272.587 84.7972 272.561 84.956 272.496 85.1001C272.431 85.2443 272.329 85.3685 272.2 85.4599L297.63 70.7799C297.753 70.692 297.851 70.5743 297.916 70.4378C297.981 70.3014 298.01 70.1507 298 69.9999V64.1899C297.982 63.7446 297.851 63.3111 297.62 62.9299Z" fill="url(#paint30_linear_5838_11948)"/>
<path d="M297.62 51.63C297.409 51.2233 297.095 50.8787 296.71 50.63L291.71 47.75C291.581 47.6531 291.428 47.5934 291.268 47.5775C291.107 47.5616 290.945 47.5902 290.8 47.66L265.39 62.38C265.534 62.3099 265.694 62.2812 265.853 62.2971C266.012 62.313 266.163 62.3729 266.29 62.47L271.29 65.35C271.68 65.5926 271.995 65.9388 272.2 66.35C272.429 66.7316 272.556 67.1653 272.57 67.61V73.37C272.588 73.5287 272.563 73.6893 272.498 73.8351C272.433 73.981 272.33 74.1069 272.2 74.2L297.63 59.52C297.76 59.4269 297.863 59.301 297.928 59.1551C297.993 59.0093 298.018 58.8487 298 58.69V52.89C297.983 52.4444 297.852 52.0106 297.62 51.63Z" fill="url(#paint31_linear_5838_11948)"/>
<path d="M307.41 68.58C307.197 68.1746 306.884 67.8304 306.5 67.58L301.5 64.69C301.369 64.5966 301.216 64.54 301.056 64.5259C300.896 64.5119 300.735 64.5409 300.59 64.61L275.18 79.34C275.323 79.2707 275.483 79.2415 275.641 79.2556C275.8 79.2697 275.951 79.3265 276.08 79.42L281.08 82.31C281.469 82.5546 281.783 82.9002 281.99 83.31C282.22 83.6951 282.351 84.1316 282.37 84.58V90.34C282.386 90.4995 282.359 90.6603 282.292 90.806C282.225 90.9518 282.121 91.0773 281.99 91.17L307.42 76.49C307.549 76.3962 307.651 76.2701 307.716 76.1244C307.781 75.9788 307.807 75.8186 307.79 75.66V69.85C307.772 69.4015 307.641 68.9648 307.41 68.58Z" fill="url(#paint32_linear_5838_11948)"/>
<path d="M317.2 74.2401C316.989 73.8334 316.675 73.4888 316.29 73.2401L311.29 70.3601C311.161 70.2632 311.008 70.2035 310.848 70.1876C310.687 70.1718 310.525 70.2003 310.38 70.2701L285 85.0001C285.144 84.93 285.304 84.9013 285.463 84.9172C285.622 84.9331 285.773 84.993 285.9 85.0901L290.9 87.9701C291.29 88.2127 291.605 88.5589 291.81 88.9701C292.041 89.3511 292.172 89.7847 292.19 90.2301V95.9901C292.206 96.1498 292.18 96.3109 292.113 96.4569C292.046 96.6028 291.942 96.7282 291.81 96.8201L317.2 82.0901C317.33 81.997 317.432 81.8711 317.497 81.7252C317.562 81.5794 317.588 81.4188 317.57 81.2601V75.5001C317.556 75.0554 317.429 74.6217 317.2 74.2401Z" fill="url(#paint33_linear_5838_11948)"/>
<path d="M307.41 57.28C307.196 56.8754 306.883 56.5315 306.5 56.28L301.5 53.4C301.369 53.3079 301.216 53.2512 301.057 53.2355C300.898 53.2197 300.737 53.2454 300.59 53.31L275.18 68C275.325 67.9353 275.484 67.9095 275.642 67.9253C275.8 67.9411 275.951 67.9979 276.08 68.09L281.08 70.97C281.468 71.2158 281.782 71.5612 281.99 71.97C282.222 72.3511 282.352 72.7846 282.37 73.23V79C282.387 79.1597 282.36 79.3209 282.293 79.4668C282.226 79.6127 282.122 79.7382 281.99 79.83L307.42 65.15C307.55 65.057 307.653 64.931 307.718 64.7852C307.783 64.6393 307.808 64.4788 307.79 64.32V58.54C307.773 58.0945 307.642 57.6607 307.41 57.28Z" fill="url(#paint34_linear_5838_11948)"/>
<path d="M307.41 57.28C307.196 56.8754 306.883 56.5315 306.5 56.28L301.5 53.4C301.369 53.3079 301.216 53.2512 301.057 53.2355C300.898 53.2197 300.737 53.2454 300.59 53.31L275.18 68C275.325 67.9353 275.484 67.9095 275.642 67.9253C275.8 67.9411 275.951 67.9979 276.08 68.09L281.08 70.97C281.468 71.2158 281.782 71.5612 281.99 71.97C282.222 72.3511 282.352 72.7846 282.37 73.23V79C282.387 79.1597 282.36 79.3209 282.293 79.4668C282.226 79.6127 282.122 79.7382 281.99 79.83L307.42 65.15C307.55 65.057 307.653 64.931 307.718 64.7852C307.783 64.6393 307.808 64.4788 307.79 64.32V58.54C307.773 58.0945 307.642 57.6607 307.41 57.28Z" fill="url(#paint35_linear_5838_11948)"/>
<path d="M317.2 62.9299C316.983 62.5275 316.67 62.1842 316.29 61.9299L311.29 59.0499C311.159 58.9578 311.006 58.9011 310.847 58.8854C310.687 58.8696 310.527 58.8953 310.38 58.9599L285 73.6799C285.145 73.6152 285.304 73.5894 285.462 73.6052C285.62 73.621 285.771 73.6778 285.9 73.7699L290.9 76.6499C291.285 76.8983 291.599 77.243 291.81 77.6499C292.04 78.0315 292.171 78.4648 292.19 78.91V84.6799C292.206 84.8381 292.179 84.9976 292.112 85.1418C292.045 85.286 291.941 85.4096 291.81 85.4999L317.2 70.7799C317.329 70.6885 317.431 70.5643 317.496 70.4201C317.561 70.276 317.587 70.1172 317.57 69.9599V64.1899C317.555 63.7455 317.428 63.3121 317.2 62.9299Z" fill="url(#paint36_linear_5838_11948)"/>
<path d="M272.56 67.5701C272.546 67.1254 272.419 66.6917 272.19 66.3101C271.985 65.8989 271.67 65.5527 271.28 65.3101L266.28 62.4301C266.153 62.333 266.002 62.2731 265.843 62.2572C265.684 62.2413 265.524 62.27 265.38 62.3401C265.247 62.4304 265.141 62.5556 265.074 62.7019C265.007 62.8483 264.981 63.0102 265 63.1701V69.0001C265.013 69.4463 265.144 69.8811 265.38 70.2601C265.588 70.6663 265.898 71.0111 266.28 71.2601L271.28 74.1401C271.403 74.248 271.556 74.3147 271.719 74.3309C271.881 74.347 272.045 74.3117 272.186 74.23C272.327 74.1482 272.439 74.0241 272.507 73.8753C272.574 73.7264 272.592 73.5602 272.56 73.4001V67.5701Z" fill="#CED3F8"/>
<path d="M282.36 73.2199C282.342 72.7899 282.218 72.371 282 71.9999C281.792 71.5911 281.477 71.2457 281.09 70.9999L276.09 68.1199C275.961 68.0278 275.81 67.971 275.652 67.9552C275.494 67.9394 275.335 67.9652 275.19 68.0299C275.058 68.1211 274.952 68.2464 274.885 68.3925C274.819 68.5386 274.792 68.7002 274.81 68.8599V74.6199C274.834 75.0644 274.963 75.4969 275.185 75.8825C275.408 76.2681 275.718 76.5961 276.09 76.8399L281.09 79.7199C281.219 79.8169 281.372 79.8765 281.532 79.8924C281.693 79.9083 281.855 79.8798 282 79.8099C282.132 79.718 282.236 79.5926 282.303 79.4467C282.37 79.3008 282.396 79.1396 282.38 78.9799L282.36 73.2199Z" fill="#CED3F8"/>
<path d="M292.15 78.87C292.131 78.4248 292 77.9915 291.77 77.61C291.559 77.2031 291.245 76.8583 290.86 76.61L285.86 73.73C285.737 73.6221 285.584 73.5553 285.421 73.5392C285.259 73.5231 285.095 73.5584 284.954 73.6401C284.813 73.7219 284.701 73.8459 284.633 73.9948C284.566 74.1437 284.548 74.3099 284.58 74.47V80.23C284.597 80.6786 284.728 81.1155 284.96 81.5C285.17 81.9042 285.48 82.2483 285.86 82.5L290.86 85.38C290.984 85.4855 291.137 85.5502 291.299 85.5652C291.461 85.5802 291.624 85.5448 291.765 85.4638C291.906 85.3829 292.019 85.2603 292.088 85.1128C292.157 84.9654 292.178 84.8002 292.15 84.64V78.87Z" fill="#CED3F8"/>
<path d="M272.56 78.8701C272.538 78.4251 272.41 77.9917 272.188 77.6057C271.965 77.2197 271.654 76.8921 271.28 76.6501L266.28 73.7701C266.151 73.6779 266 73.6211 265.842 73.6053C265.684 73.5896 265.525 73.6153 265.38 73.6801C265.248 73.7712 265.142 73.8965 265.075 74.0427C265.008 74.1888 264.982 74.3503 265 74.5101V80.2701C265.013 80.7194 265.144 81.1575 265.38 81.5401C265.59 81.9443 265.9 82.2884 266.28 82.5401L271.28 85.4201C271.411 85.5134 271.564 85.5701 271.724 85.5841C271.884 85.5982 272.045 85.5692 272.19 85.5001C272.319 85.4086 272.421 85.2844 272.486 85.1403C272.551 84.9962 272.577 84.8373 272.56 84.6801V78.8701Z" fill="#CED3F8"/>
<path d="M282.36 84.53C282.341 84.0817 282.21 83.6452 281.98 83.26C281.773 82.8503 281.458 82.5046 281.07 82.26L276.07 79.37C275.946 79.2682 275.793 79.2068 275.633 79.1938C275.473 79.1808 275.313 79.2169 275.174 79.2972C275.035 79.3776 274.924 79.4985 274.855 79.6437C274.786 79.7889 274.764 79.9515 274.79 80.11V85.88C274.804 86.326 274.935 86.7605 275.17 87.14C275.38 87.5442 275.69 87.8883 276.07 88.14L281.07 91.02C281.201 91.1121 281.354 91.1688 281.513 91.1846C281.672 91.2003 281.833 91.1747 281.98 91.11C282.111 91.0174 282.215 90.8918 282.281 90.7461C282.348 90.6003 282.375 90.4396 282.36 90.28V84.53Z" fill="#CED3F8"/>
<path d="M292.15 90.1801C292.132 89.7347 292.001 89.3011 291.77 88.9201C291.565 88.5089 291.25 88.1627 290.86 87.9201L285.86 85.0401C285.733 84.9584 285.586 84.9118 285.435 84.9047C285.284 84.8977 285.134 84.9306 285 85.0001C284.868 85.092 284.764 85.2174 284.697 85.3633C284.63 85.5093 284.604 85.6704 284.62 85.8301V91.5901C284.638 92.0355 284.769 92.4691 285 92.8501C285.205 93.2583 285.516 93.6037 285.9 93.8501L290.9 96.7301C291.024 96.8356 291.177 96.9003 291.339 96.9153C291.501 96.9303 291.664 96.8949 291.805 96.8139C291.946 96.733 292.059 96.6104 292.128 96.4629C292.197 96.3154 292.219 96.1503 292.19 95.9901L292.15 90.1801Z" fill="#CED3F8"/>
<path d="M297.62 40.3201C297.403 39.9177 297.09 39.5744 296.71 39.3201L291.71 36.4401C291.579 36.348 291.426 36.2913 291.267 36.2755C291.108 36.2597 290.947 36.2854 290.8 36.3501L265.39 51.0701C265.535 51.0053 265.694 50.9796 265.852 50.9953C266.01 51.0111 266.161 51.0679 266.29 51.1601L271.29 54.0401C271.664 54.2821 271.975 54.6097 272.198 54.9957C272.42 55.3817 272.548 55.8151 272.57 56.2601V62.0001C272.587 62.1573 272.561 62.3162 272.496 62.4603C272.431 62.6044 272.329 62.7286 272.2 62.8201L297.63 48.1401C297.759 48.0486 297.861 47.9244 297.926 47.7803C297.991 47.6362 298.017 47.4773 298 47.3201V41.5801C297.982 41.1347 297.851 40.7013 297.62 40.3201Z" fill="url(#paint37_linear_5838_11948)"/>
<path d="M282.36 61.9199C282.341 61.4716 282.21 61.0351 281.98 60.6499C281.766 60.2586 281.452 59.9308 281.07 59.6999L276.07 56.8099C275.946 56.7082 275.793 56.6467 275.633 56.6337C275.473 56.6207 275.313 56.6568 275.174 56.7372C275.035 56.8176 274.924 56.9384 274.855 57.0836C274.786 57.2288 274.764 57.3915 274.79 57.5499V63.3199C274.804 63.766 274.935 64.2004 275.17 64.5799C275.38 64.9841 275.69 65.3282 276.07 65.5799L281.07 68.4599C281.201 68.5521 281.354 68.6087 281.513 68.6245C281.672 68.6403 281.833 68.6146 281.98 68.5499C282.111 68.4573 282.215 68.3318 282.281 68.186C282.348 68.0403 282.375 67.8795 282.36 67.7199V61.9199Z" fill="#CED3F8"/>
<path d="M307.41 45.9999C307.193 45.5975 306.88 45.2542 306.5 44.9999L301.5 42.1199C301.369 42.0266 301.216 41.9699 301.056 41.9559C300.896 41.9418 300.735 41.9708 300.59 42.0399L275.18 56.7299C275.323 56.6606 275.483 56.6315 275.641 56.6456C275.8 56.6596 275.951 56.7164 276.08 56.8099L281.08 59.6999C281.462 59.9308 281.776 60.2585 281.99 60.6499C282.22 61.0351 282.351 61.4716 282.37 61.9199V67.6799C282.386 67.8394 282.359 68.0002 282.292 68.146C282.225 68.2917 282.121 68.4173 281.99 68.5099L307.42 53.8299C307.549 53.7361 307.651 53.6101 307.716 53.4644C307.781 53.3187 307.807 53.1585 307.79 52.9999V47.2399C307.767 46.8017 307.636 46.3759 307.41 45.9999Z" fill="url(#paint38_linear_5838_11948)"/>
<path d="M292.15 67.5701C292.132 67.1247 292.001 66.6911 291.77 66.3101C291.565 65.8989 291.25 65.5527 290.86 65.3101L285.86 62.4301C285.733 62.333 285.582 62.2731 285.423 62.2572C285.264 62.2413 285.103 62.27 284.96 62.3401C284.828 62.432 284.724 62.5574 284.657 62.7033C284.59 62.8493 284.563 63.0104 284.58 63.1701V69.0001C284.607 69.4438 284.737 69.8751 284.959 70.2603C285.181 70.6454 285.49 70.9739 285.86 71.2201L290.86 74.1001C290.984 74.2056 291.137 74.2703 291.299 74.2853C291.461 74.3003 291.624 74.2649 291.765 74.1839C291.906 74.1029 292.019 73.9803 292.088 73.8329C292.157 73.6854 292.178 73.5203 292.15 73.3601V67.5701Z" fill="#CED3F8"/>
<path d="M317.2 51.63C316.989 51.2233 316.675 50.8787 316.29 50.63L311.29 47.75C311.161 47.6531 311.008 47.5934 310.848 47.5775C310.687 47.5616 310.525 47.5902 310.38 47.66L285 62.38C285.144 62.3099 285.304 62.2812 285.463 62.2971C285.622 62.313 285.773 62.3729 285.9 62.47L290.9 65.35C291.29 65.5926 291.605 65.9388 291.81 66.35C292.041 66.731 292.172 67.1646 292.19 67.61V73.37C292.206 73.5297 292.18 73.6908 292.113 73.8368C292.046 73.9827 291.942 74.1081 291.81 74.2L317.2 59.48C317.33 59.3869 317.432 59.261 317.497 59.1151C317.562 58.9693 317.588 58.8087 317.57 58.65V52.89C317.556 52.4453 317.429 52.0116 317.2 51.63Z" fill="url(#paint39_linear_5838_11948)"/>
<path d="M272.56 78.87C272.536 78.4256 272.407 77.9931 272.185 77.6074C271.962 77.2218 271.652 76.8939 271.28 76.65L266.28 73.77C265.58 73.36 265 73.7 265 74.51V80.27C265.025 80.7156 265.154 81.1493 265.376 81.5364C265.599 81.9235 265.908 82.2534 266.28 82.5L271.28 85.38C271.99 85.78 272.56 85.45 272.56 84.64V78.87Z" fill="#CED3F8"/>
<path d="M272.56 67.57C272.538 67.125 272.41 66.6916 272.188 66.3056C271.965 65.9196 271.654 65.5921 271.28 65.35L266.28 62.47C265.58 62.06 265 62.39 265 63.21V69C265.027 69.444 265.156 69.8756 265.378 70.2608C265.601 70.6461 265.909 70.9745 266.28 71.22L271.28 74.1C271.99 74.51 272.56 74.18 272.56 73.36V67.57Z" fill="#CED3F8"/>
<path d="M282.36 73.2199C282.334 72.7748 282.203 72.342 281.979 71.9564C281.755 71.5709 281.444 71.2433 281.07 70.9999L276.07 68.1199C275.37 67.7099 274.79 68.0399 274.79 68.8599V74.6199C274.814 75.0646 274.942 75.4974 275.164 75.8831C275.387 76.2689 275.697 76.5967 276.07 76.8399L281.07 79.7199C281.78 80.1299 282.36 79.7999 282.36 78.9799V73.2199Z" fill="#CED3F8"/>
<path d="M272.56 56.2599C272.544 55.808 272.42 55.3666 272.197 54.9732C271.974 54.5797 271.659 54.2459 271.28 53.9999L266.28 51.1199C266.151 51.0278 266 50.971 265.842 50.9552C265.684 50.9394 265.525 50.9652 265.38 51.0299C265.248 51.1211 265.142 51.2464 265.075 51.3925C265.008 51.5386 264.982 51.7002 265 51.8599V57.6199C265.024 58.0644 265.153 58.4969 265.375 58.8825C265.598 59.2681 265.908 59.5961 266.28 59.8399L271.28 62.7299C271.411 62.8233 271.564 62.8799 271.724 62.894C271.884 62.908 272.045 62.879 272.19 62.8099C272.319 62.7184 272.421 62.5942 272.486 62.4501C272.551 62.306 272.577 62.1472 272.56 61.9899V56.2599Z" fill="#CED3F8"/>
<path d="M282.36 84.5299C282.336 84.0842 282.207 83.6505 281.982 83.2646C281.758 82.8787 281.445 82.5515 281.07 82.3099L276.07 79.4199C275.37 79.0199 274.79 79.3499 274.79 80.1599V85.9299C274.817 86.3738 274.946 86.8055 275.168 87.1907C275.391 87.576 275.699 87.9044 276.07 88.1499L281.07 91.0299C281.78 91.4399 282.36 91.0999 282.36 90.2899V84.5299Z" fill="#CED3F8"/>
<path d="M282.36 61.9201C282.336 61.4743 282.207 61.0407 281.982 60.6547C281.758 60.2688 281.445 59.9416 281.07 59.7001L276.07 56.8101C275.37 56.4101 274.79 56.7401 274.79 57.5501V63.3201C274.817 63.764 274.946 64.1956 275.168 64.5809C275.391 64.9661 275.699 65.2945 276.07 65.5401L281.07 68.4201C281.78 68.8301 282.36 68.4901 282.36 67.6801V61.9201Z" fill="#CED3F8"/>
<path d="M292.15 90.1799C292.119 89.7413 291.987 89.316 291.763 88.9376C291.539 88.5592 291.23 88.2381 290.86 87.9999L285.86 85.1199C285.16 84.7099 284.58 85.0399 284.58 85.8599V91.6199C284.607 92.0639 284.736 92.4955 284.959 92.8807C285.181 93.266 285.489 93.5944 285.86 93.8399L290.86 96.7199C291.57 97.1299 292.15 96.7999 292.15 95.9799V90.1799Z" fill="#CED3F8"/>
<path d="M292.15 78.87C292.124 78.4249 291.993 77.9921 291.769 77.6065C291.545 77.2209 291.234 76.8933 290.86 76.65L285.86 73.77C285.16 73.36 284.58 73.7 284.58 74.51V80.27C284.605 80.7156 284.734 81.1493 284.956 81.5364C285.179 81.9235 285.488 82.2534 285.86 82.5L290.86 85.38C291.57 85.78 292.15 85.45 292.15 84.64V78.87Z" fill="#CED3F8"/>
<path d="M292.15 67.57C292.126 67.1243 291.997 66.6906 291.772 66.3047C291.548 65.9188 291.235 65.5916 290.86 65.35L285.86 62.47C285.16 62.06 284.58 62.39 284.58 63.21V69C284.607 69.444 284.736 69.8756 284.959 70.2608C285.181 70.6461 285.489 70.9745 285.86 71.22L290.86 74.1C291.57 74.51 292.15 74.18 292.15 73.36V67.57Z" fill="#CED3F8"/>
<path d="M67.92 87.3701L78.09 93.2401L67.92 99.1201L57.75 93.2401L67.92 87.3701Z" fill="#8585FF"/>
<path d="M57.75 93.24L67.92 99.12V110.86L57.75 104.99V93.24Z" fill="#5E5EDD"/>
<path d="M78.0899 93.24L67.9199 99.12V110.86L78.0899 104.99V93.24Z" fill="#4949B8"/>
<path style="mix-blend-mode:multiply" d="M67.9199 110.86H108.95V99.1201H78.0899V104.99L67.9199 110.86Z" fill="url(#paint40_linear_5838_11948)"/>
<path d="M67.92 72.8201L78.09 78.7001L67.92 84.5701L57.75 78.7001L67.92 72.8201Z" fill="#E56EC9"/>
<path d="M57.75 78.7L67.92 84.57V96.32L57.75 90.44V78.7Z" fill="#D453B5"/>
<path d="M78.0899 78.7L67.9199 84.57V96.32L78.0899 90.44V78.7Z" fill="#B8429B"/>
<path d="M67.92 58.3101L78.09 64.1901L67.92 70.0601L57.75 64.1901L67.92 58.3101Z" fill="#8585FF"/>
<path d="M57.75 64.1899L67.92 70.0599V81.8099L57.75 75.9399V64.1899Z" fill="#5E5EDD"/>
<path d="M78.0899 64.1899L67.9199 70.0599V81.8099L78.0899 75.9399V64.1899Z" fill="#4949B8"/>
</g>
<defs>
<linearGradient id="paint0_linear_5838_11948" x1="203.68" y1="246.57" x2="304.5" y2="256" gradientUnits="userSpaceOnUse">
<stop stop-color="#DAE0F5"/>
<stop offset="0.338705" stop-color="#F0F3FB"/>
<stop offset="1" stop-color="white"/>
</linearGradient>
<linearGradient id="paint1_linear_5838_11948" x1="158.01" y1="212.13" x2="210.32" y2="212.13" gradientUnits="userSpaceOnUse">
<stop stop-color="#DAE0F5"/>
<stop offset="0.51" stop-color="#EFF2FB"/>
<stop offset="1" stop-color="white"/>
</linearGradient>
<linearGradient id="paint2_linear_5838_11948" x1="423.24" y1="156.65" x2="475.54" y2="156.65" gradientUnits="userSpaceOnUse">
<stop stop-color="#DAE0F5"/>
<stop offset="0.51" stop-color="#EFF2FB"/>
<stop offset="1" stop-color="white"/>
</linearGradient>
<linearGradient id="paint3_linear_5838_11948" x1="203" y1="177.43" x2="255.05" y2="177.43" gradientUnits="userSpaceOnUse">
<stop stop-color="#C4CAE9"/>
<stop offset="0.09" stop-color="#CED3ED"/>
<stop offset="0.41" stop-color="#E9EBF7"/>
<stop offset="0.69" stop-color="#F9FAFD"/>
<stop offset="0.9" stop-color="white"/>
</linearGradient>
<linearGradient id="paint4_linear_5838_11948" x1="194.77" y1="164.2" x2="243.25" y2="164.2" gradientUnits="userSpaceOnUse">
<stop stop-color="#C4CAE9"/>
<stop offset="0.09" stop-color="#CED3ED"/>
<stop offset="0.41" stop-color="#E9EBF7"/>
<stop offset="0.69" stop-color="#F9FAFD"/>
<stop offset="0.9" stop-color="white"/>
</linearGradient>
<linearGradient id="paint5_linear_5838_11948" x1="194.9" y1="166.82" x2="189.04" y2="152.53" gradientUnits="userSpaceOnUse">
<stop stop-color="#20196F"/>
<stop offset="0.51" stop-color="#302B8E"/>
<stop offset="1" stop-color="#423EAF"/>
</linearGradient>
<linearGradient id="paint6_linear_5838_11948" x1="196.82" y1="166.03" x2="190.96" y2="151.74" gradientUnits="userSpaceOnUse">
<stop stop-color="#20196F"/>
<stop offset="0.51" stop-color="#302B8E"/>
<stop offset="1" stop-color="#423EAF"/>
</linearGradient>
<linearGradient id="paint7_linear_5838_11948" x1="190.06" y1="133.49" x2="218.35" y2="133.49" gradientUnits="userSpaceOnUse">
<stop stop-color="#20196F"/>
<stop offset="0.79" stop-color="#161350"/>
<stop offset="1" stop-color="#131147"/>
</linearGradient>
<linearGradient id="paint8_linear_5838_11948" x1="209.98" y1="181.06" x2="197.39" y2="172.84" gradientUnits="userSpaceOnUse">
<stop stop-color="#20196F"/>
<stop offset="0.85" stop-color="#322A8E"/>
<stop offset="1" stop-color="#362E94"/>
</linearGradient>
<linearGradient id="paint9_linear_5838_11948" x1="211.21" y1="179.18" x2="198.61" y2="170.96" gradientUnits="userSpaceOnUse">
<stop stop-color="#20196F"/>
<stop offset="0.85" stop-color="#322A8E"/>
<stop offset="1" stop-color="#362E94"/>
</linearGradient>
<linearGradient id="paint10_linear_5838_11948" x1="208.82" y1="139.56" x2="191.9" y2="143.54" gradientUnits="userSpaceOnUse">
<stop stop-color="#20196F"/>
<stop offset="0.61" stop-color="#342F95"/>
<stop offset="1" stop-color="#423EAF"/>
</linearGradient>
<linearGradient id="paint11_linear_5838_11948" x1="215.41" y1="98.6701" x2="243.63" y2="98.6701" gradientUnits="userSpaceOnUse">
<stop offset="0.22" stop-color="#3B3BA3"/>
<stop offset="0.44" stop-color="#5959C8"/>
<stop offset="0.67" stop-color="#7171E6"/>
<stop offset="0.86" stop-color="#8080F8"/>
<stop offset="1" stop-color="#8585FF"/>
</linearGradient>
<linearGradient id="paint12_linear_5838_11948" x1="190.37" y1="102.31" x2="220.75" y2="102.31" gradientUnits="userSpaceOnUse">
<stop stop-color="#8585FF"/>
<stop offset="0.16" stop-color="#7777EF"/>
<stop offset="0.5" stop-color="#5E5ED1"/>
<stop offset="0.79" stop-color="#4F4FBF"/>
<stop offset="1" stop-color="#4949B8"/>
</linearGradient>
<linearGradient id="paint13_linear_5838_11948" x1="207.21" y1="129.45" x2="210.23" y2="129.45" gradientUnits="userSpaceOnUse">
<stop stop-color="#8585FF"/>
<stop offset="0.16" stop-color="#7777EF"/>
<stop offset="0.5" stop-color="#5E5ED1"/>
<stop offset="0.79" stop-color="#4F4FBF"/>
<stop offset="1" stop-color="#4949B8"/>
</linearGradient>
<linearGradient id="paint14_linear_5838_11948" x1="384.95" y1="243.26" x2="348.66" y2="243.26" gradientUnits="userSpaceOnUse">
<stop offset="0.01" stop-color="white"/>
<stop offset="0.25" stop-color="#FAFBFD"/>
<stop offset="0.53" stop-color="#ECEEF8"/>
<stop offset="0.83" stop-color="#D4D8EF"/>
<stop offset="1" stop-color="#C4CAE9"/>
</linearGradient>
<linearGradient id="paint15_linear_5838_11948" x1="368.65" y1="254.23" x2="329.63" y2="254.23" gradientUnits="userSpaceOnUse">
<stop offset="0.01" stop-color="white"/>
<stop offset="0.25" stop-color="#FAFBFD"/>
<stop offset="0.53" stop-color="#ECEEF8"/>
<stop offset="0.83" stop-color="#D4D8EF"/>
<stop offset="1" stop-color="#C4CAE9"/>
</linearGradient>
<linearGradient id="paint16_linear_5838_11948" x1="337.66" y1="241.87" x2="353.03" y2="241.87" gradientUnits="userSpaceOnUse">
<stop stop-color="#423EAF"/>
<stop offset="0.3" stop-color="#3A35A0"/>
<stop offset="0.89" stop-color="#241E77"/>
<stop offset="1" stop-color="#20196F"/>
</linearGradient>
<linearGradient id="paint17_linear_5838_11948" x1="318.8" y1="252.8" x2="334.18" y2="252.8" gradientUnits="userSpaceOnUse">
<stop stop-color="#423EAF"/>
<stop offset="0.3" stop-color="#3A35A0"/>
<stop offset="0.89" stop-color="#241E77"/>
<stop offset="1" stop-color="#20196F"/>
</linearGradient>
<linearGradient id="paint18_linear_5838_11948" x1="326.94" y1="216.18" x2="349.34" y2="216.18" gradientUnits="userSpaceOnUse">
<stop offset="0.2" stop-color="#5E5EDD"/>
<stop offset="0.39" stop-color="#5252C8"/>
<stop offset="0.58" stop-color="#4949B8"/>
</linearGradient>
<linearGradient id="paint19_linear_5838_11948" x1="319.029" y1="181.027" x2="349.765" y2="172.231" gradientUnits="userSpaceOnUse">
<stop stop-color="#D453B5"/>
<stop offset="0.27" stop-color="#D759B8"/>
<stop offset="0.62" stop-color="#DF69C2"/>
<stop offset="1" stop-color="#EB83D2"/>
</linearGradient>
<linearGradient id="paint20_linear_5838_11948" x1="328.136" y1="130.598" x2="305.059" y2="159.17" gradientUnits="userSpaceOnUse">
<stop stop-color="#EB83D2"/>
<stop offset="0.38" stop-color="#DF69C2"/>
<stop offset="0.73" stop-color="#D759B8"/>
<stop offset="1" stop-color="#D453B5"/>
</linearGradient>
<linearGradient id="paint21_linear_5838_11948" x1="145.08" y1="94.22" x2="181.92" y2="94.22" gradientUnits="userSpaceOnUse">
<stop stop-color="#DAE0F5"/>
<stop offset="0.33" stop-color="#E1E6F7"/>
<stop offset="0.81" stop-color="#F5F7FC"/>
<stop offset="1" stop-color="white"/>
</linearGradient>
<linearGradient id="paint22_linear_5838_11948" x1="377.11" y1="205.65" x2="403.34" y2="205.65" gradientUnits="userSpaceOnUse">
<stop stop-color="#DAE0F5"/>
<stop offset="0.31" stop-color="#DFE4F6"/>
<stop offset="0.7" stop-color="#EEF1FB"/>
<stop offset="1" stop-color="white"/>
</linearGradient>
<linearGradient id="paint23_linear_5838_11948" x1="393.5" y1="215.12" x2="419.73" y2="215.12" gradientUnits="userSpaceOnUse">
<stop stop-color="#DAE0F5"/>
<stop offset="0.31" stop-color="#DFE4F6"/>
<stop offset="0.7" stop-color="#EEF1FB"/>
<stop offset="1" stop-color="white"/>
</linearGradient>
<linearGradient id="paint24_linear_5838_11948" x1="263.89" y1="138.62" x2="288.71" y2="138.62" gradientUnits="userSpaceOnUse">
<stop stop-color="#DAE0F5"/>
<stop offset="0.31" stop-color="#DFE4F6"/>
<stop offset="0.7" stop-color="#EEF1FB"/>
<stop offset="1" stop-color="white"/>
</linearGradient>
<linearGradient id="paint25_linear_5838_11948" x1="281.21" y1="148.62" x2="305.31" y2="148.62" gradientUnits="userSpaceOnUse">
<stop stop-color="#DAE0F5"/>
<stop offset="0.31" stop-color="#DFE4F6"/>
<stop offset="0.7" stop-color="#EEF1FB"/>
<stop offset="1" stop-color="white"/>
</linearGradient>
<linearGradient id="paint26_linear_5838_11948" x1="77.9187" y1="262.41" x2="134.273" y2="262.41" gradientUnits="userSpaceOnUse">
<stop stop-color="#C4CAE9"/>
<stop offset="0.760417" stop-color="white" stop-opacity="0.5"/>
</linearGradient>
<linearGradient id="paint27_linear_5838_11948" x1="47.0801" y1="255.07" x2="96.8301" y2="255.07" gradientUnits="userSpaceOnUse">
<stop offset="0.4" stop-color="#CED3F8"/>
<stop offset="0.55" stop-color="#BEC3E9"/>
<stop offset="0.57" stop-color="#BBC0E6"/>
</linearGradient>
<linearGradient id="paint28_linear_5838_11948" x1="62.1899" y1="233.21" x2="81.7099" y2="233.21" gradientUnits="userSpaceOnUse">
<stop stop-color="#A3A9D0"/>
<stop offset="1" stop-color="#BBC0E6"/>
</linearGradient>
<linearGradient id="paint29_linear_5838_11948" x1="270.84" y1="77.2999" x2="345.61" y2="77.2999" gradientUnits="userSpaceOnUse">
<stop stop-color="#C4CAE9"/>
<stop offset="1" stop-color="white"/>
</linearGradient>
<linearGradient id="paint30_linear_5838_11948" x1="279.8" y1="65.3599" x2="286.6" y2="77.1399" gradientUnits="userSpaceOnUse">
<stop offset="0.38" stop-color="#F6F6FB"/>
<stop offset="0.59" stop-color="#BBC0E6"/>
</linearGradient>
<linearGradient id="paint31_linear_5838_11948" x1="279.8" y1="54.06" x2="286.6" y2="65.84" gradientUnits="userSpaceOnUse">
<stop offset="0.38" stop-color="#F6F6FB"/>
<stop offset="0.59" stop-color="#BBC0E6"/>
</linearGradient>
<linearGradient id="paint32_linear_5838_11948" x1="289.59" y1="71.01" x2="296.39" y2="82.8" gradientUnits="userSpaceOnUse">
<stop offset="0.38" stop-color="#F6F6FB"/>
<stop offset="0.59" stop-color="#BBC0E6"/>
</linearGradient>
<linearGradient id="paint33_linear_5838_11948" x1="299.38" y1="76.6701" x2="306.18" y2="88.4501" gradientUnits="userSpaceOnUse">
<stop offset="0.38" stop-color="#F6F6FB"/>
<stop offset="0.59" stop-color="#BBC0E6"/>
</linearGradient>
<linearGradient id="paint34_linear_5838_11948" x1="289.59" y1="59.71" x2="296.39" y2="71.49" gradientUnits="userSpaceOnUse">
<stop offset="0.38" stop-color="#F6F6FB"/>
<stop offset="0.59" stop-color="#BBC0E6"/>
</linearGradient>
<linearGradient id="paint35_linear_5838_11948" x1="289.59" y1="59.71" x2="296.39" y2="71.49" gradientUnits="userSpaceOnUse">
<stop offset="0.38" stop-color="#F6F6FB"/>
<stop offset="0.59" stop-color="#BBC0E6"/>
</linearGradient>
<linearGradient id="paint36_linear_5838_11948" x1="299.38" y1="65.3599" x2="306.18" y2="77.1399" gradientUnits="userSpaceOnUse">
<stop offset="0.38" stop-color="#F6F6FB"/>
<stop offset="0.59" stop-color="#BBC0E6"/>
</linearGradient>
<linearGradient id="paint37_linear_5838_11948" x1="279.8" y1="42.7501" x2="286.6" y2="54.5301" gradientUnits="userSpaceOnUse">
<stop offset="0.38" stop-color="#F6F6FB"/>
<stop offset="0.59" stop-color="#BBC0E6"/>
</linearGradient>
<linearGradient id="paint38_linear_5838_11948" x1="289.59" y1="48.3999" x2="296.39" y2="60.1799" gradientUnits="userSpaceOnUse">
<stop offset="0.38" stop-color="#F6F6FB"/>
<stop offset="0.59" stop-color="#BBC0E6"/>
</linearGradient>
<linearGradient id="paint39_linear_5838_11948" x1="299.38" y1="54.06" x2="306.18" y2="65.84" gradientUnits="userSpaceOnUse">
<stop offset="0.38" stop-color="#F6F6FB"/>
<stop offset="0.59" stop-color="#BBC0E6"/>
</linearGradient>
<linearGradient id="paint40_linear_5838_11948" x1="67.9199" y1="104.99" x2="108.95" y2="104.99" gradientUnits="userSpaceOnUse">
<stop stop-color="#DAE0F5"/>
<stop offset="1" stop-color="white"/>
</linearGradient>
<clipPath id="clip0_5838_11948">
<rect width="480" height="320" fill="white"/>
</clipPath>
</defs>
</svg>
