<svg width="144" height="32" viewBox="0 0 144 32" fill="none" xmlns="http://www.w3.org/2000/svg">
<g clip-path="url(#clip0_6573_14353)">
<path d="M87.3772 12.634C86.1632 12.634 85.0578 13.0251 84.2367 13.6566V12.8745H82.7991V21.8181H84.2367V19.0645C85.0578 19.696 86.16 20.0871 87.3772 20.0871C89.9011 20.0871 91.9521 18.417 91.9521 16.3622C91.9521 14.3074 89.9011 12.634 87.3772 12.634ZM87.3772 18.6446C85.6456 18.6446 84.2367 17.6188 84.2367 16.3622C84.2367 15.1056 85.6456 14.0798 87.3772 14.0798C89.1088 14.0798 90.5145 15.1056 90.5145 16.3622C90.5145 17.6188 89.1088 18.6446 87.3772 18.6446Z" fill="white"/>
<path d="M76.3071 12.634C75.0931 12.634 73.9877 13.0251 73.1667 13.6566V12.8745H71.729V21.8181H73.1667V19.0645C73.9877 19.696 75.0899 20.0871 76.3071 20.0871C78.831 20.0871 80.8821 18.417 80.8821 16.3622C80.8821 14.3074 78.831 12.634 76.3071 12.634ZM76.3071 18.6446C74.5756 18.6446 73.1667 17.6188 73.1667 16.3622C73.1667 15.1056 74.5756 14.0798 76.3071 14.0798C78.0387 14.0798 79.4444 15.1056 79.4444 16.3622C79.4444 17.6188 78.0387 18.6446 76.3071 18.6446Z" fill="white"/>
<path d="M141.289 15.5287H139.232C138.558 15.5287 138.088 15.1408 138.088 14.7946C138.088 14.4452 138.558 14.0573 139.232 14.0573H143.136V12.634H139.232C137.816 12.634 136.666 13.6021 136.666 14.7946C136.666 15.9839 137.816 16.952 139.232 16.952H141.289C141.966 16.952 142.436 17.3399 142.436 17.6861C142.436 18.0323 141.966 18.4202 141.289 18.4202H137.149V19.8467H141.289C142.704 19.8467 143.858 18.8786 143.858 17.6861C143.855 16.4968 142.704 15.5287 141.289 15.5287Z" fill="white"/>
<path d="M112.552 20.087C110.028 20.087 107.974 18.4169 107.974 16.3621C107.974 14.3073 110.028 12.6372 112.552 12.6372C115.076 12.6372 117.127 14.3073 117.127 16.3621C117.127 18.4169 115.076 20.087 112.552 20.087ZM112.552 14.0765C110.82 14.0765 109.412 15.1023 109.412 16.3589C109.412 17.6155 110.82 18.6413 112.552 18.6413C114.284 18.6413 115.689 17.6155 115.689 16.3589C115.689 15.1023 114.284 14.0765 112.552 14.0765Z" fill="white"/>
<path d="M106.22 10.9028H104.782V19.8465H106.22V10.9028Z" fill="white"/>
<path d="M125.159 18.2246C124.644 18.4875 124.021 18.6446 123.344 18.6446C121.612 18.6446 120.204 17.6188 120.204 16.3622C120.204 15.1056 121.612 14.0798 123.344 14.0798C124.021 14.0798 124.644 14.2368 125.159 14.5029V14.4997L126.539 13.6983C125.715 13.0411 124.587 12.634 123.344 12.634C120.82 12.634 118.766 14.3042 118.766 16.359C118.766 18.4137 120.82 20.0839 123.344 20.0839C124.587 20.0839 125.715 19.6768 126.539 19.0196L125.159 18.2246Z" fill="white"/>
<path d="M103.025 16.362C103.025 14.3072 100.971 12.6371 98.4502 12.6371C97.2362 12.6371 96.1308 13.0282 95.3097 13.6597V10.9028H93.8721V19.8465H95.3097V19.0643C96.1308 19.6958 97.233 20.0869 98.4502 20.0869C100.971 20.0869 103.025 18.4168 103.025 16.362ZM101.587 16.362C101.587 17.6218 100.179 18.6444 98.4502 18.6444C96.7186 18.6444 95.3097 17.6186 95.3097 16.362C95.3097 15.1054 96.7186 14.0796 98.4502 14.0796C100.179 14.0764 101.587 15.1022 101.587 16.362Z" fill="white"/>
<path d="M135.174 12.8743H133.142L130.919 15.1022L129.9 16.1216L129.654 16.3684V10.9028H128.216V19.8465H129.654V18.4104L130.919 17.1442L133.612 19.8465H135.644L131.935 16.1216L135.174 12.8743Z" fill="white"/>
<path d="M65.036 13.5251L68.1861 19.8466H69.8505L65.036 10.1816L60.2183 19.8466H61.8827L65.036 13.5251Z" fill="white"/>
</g>
<g clip-path="url(#clip1_6573_14353)">
<path d="M31.008 0L25.248 3.328V11.36L33.312 16L25.248 20.672V28.704L31.008 32.032L51.776 20.032V12L31.008 0ZM26.528 10.624V4.8L33.824 9.024H33.856L39.648 12.352L34.624 15.264L26.528 10.624ZM30.368 30.144L26.528 27.936V22.144L30.368 24.352V30.144ZM27.168 21.024L42.176 12.352L27.168 3.712L31.008 1.504L49.856 12.384L31.008 23.264L27.168 21.024ZM50.496 19.264L31.648 30.144V24.352L50.496 13.472V19.264Z" fill="white"/>
<path d="M26.528 11.36V3.328L20.768 0L0 12V20.032L20.768 32L26.528 28.672V20.64L18.464 16L26.528 11.36ZM20.128 30.144L1.28 19.264V13.472L20.128 24.352V30.144ZM25.248 27.936L21.408 30.144V24.352L25.248 22.144V27.936ZM20.768 23.232L1.92 12.352L20.768 1.472L24.608 3.68L9.6 12.352L24.608 21.024L20.768 23.232ZM12.16 12.352L17.952 9.024H17.984L25.216 4.832L25.248 4.8V10.592L17.184 15.264L12.16 12.352Z" fill="white"/>
</g>
<defs>
<clipPath id="clip0_6573_14353">
<rect width="84" height="11.2" fill="white" transform="translate(60 10.3999)"/>
</clipPath>
<clipPath id="clip1_6573_14353">
<rect width="52.4166" height="32" fill="white"/>
</clipPath>
</defs>
</svg>
