<svg width="72" height="44" viewBox="0 0 72 44" fill="none" xmlns="http://www.w3.org/2000/svg">
<path d="M42.6368 0L34.7168 4.576V15.62L45.8048 22L34.7168 28.424V39.468L42.6368 44.044L71.1928 27.544V16.5L42.6368 0ZM36.4768 14.608V6.6L46.5088 12.408H46.5528L54.5168 16.984L47.6088 20.988L36.4768 14.608ZM41.7568 41.448L36.4768 38.412V30.448L41.7568 33.484V41.448ZM37.3568 28.908L57.9928 16.984L37.3568 5.104L42.6368 2.068L68.5528 17.028L42.6368 31.988L37.3568 28.908ZM69.4328 26.488L43.5168 41.448V33.484L69.4328 18.524V26.488Z" fill="#D453B5"/>
<path d="M36.476 15.62V4.576L28.556 0L0 16.5V27.544L28.556 44L36.476 39.424V28.38L25.388 22L36.476 15.62ZM27.676 41.448L1.76 26.488V18.524L27.676 33.484V41.448ZM34.716 38.412L29.436 41.448V33.484L34.716 30.448V38.412ZM28.556 31.944L2.64 16.984L28.556 2.024L33.836 5.06L13.2 16.984L33.836 28.908L28.556 31.944ZM16.72 16.984L24.684 12.408H24.728L34.672 6.644L34.716 6.6V14.564L23.628 20.988L16.72 16.984Z" fill="#5E5EDE"/>
</svg>
