<svg width="107" height="10" viewBox="0 0 107 10" fill="none" xmlns="http://www.w3.org/2000/svg">
<path d="M9.7701 9.49001H7.97011L7.15011 7.89001L5.19011 4.04001L3.23011 7.89001L2.41011 9.49001H0.610107L1.43011 7.89001L5.19011 0.51001L8.9501 7.89001L9.7701 9.49001Z" fill="black"/>
<path d="M20.5001 1.23C20.9401 1.67 21.2101 2.27 21.2101 2.94C21.2101 3.92 20.6301 4.76 19.8001 5.15C19.5801 5.25 19.3501 5.32 19.1101 5.34C19.0801 5.34 19.0601 5.34 19.0301 5.34V5.35H14.7301V9.48H13.1301V0.5H18.7901C19.4601 0.5 20.0601 0.769999 20.5001 1.21V1.23ZM19.1301 3.68C19.4301 3.55 19.6201 3.26 19.6201 2.94C19.6201 2.64 19.4701 2.44 19.3801 2.35C19.2801 2.25 19.0801 2.12 18.8001 2.12H14.7301V3.78H18.8001C18.9201 3.78 19.0301 3.75 19.1301 3.7V3.68Z" fill="black"/>
<path d="M32.4401 1.23C32.8801 1.67 33.1501 2.27 33.1501 2.94C33.1501 3.92 32.5701 4.76 31.7401 5.15C31.5201 5.25 31.2901 5.32 31.0501 5.34C31.0201 5.34 31.0001 5.34 30.9701 5.34V5.35H26.6701V9.48H25.0701V0.5H30.7301C31.4001 0.5 32.0001 0.769999 32.4401 1.21V1.23ZM31.0701 3.68C31.3701 3.55 31.5601 3.26 31.5601 2.94C31.5601 2.64 31.4101 2.44 31.3201 2.35C31.2201 2.25 31.0201 2.12 30.7401 2.12H26.6701V3.78H30.7401C30.8601 3.78 30.9701 3.75 31.0701 3.7V3.68Z" fill="black"/>
<path d="M45.97 6.62C45.97 8.2 44.69 9.48 43.11 9.48H36.99V0.5H42.65C43.99 0.5 45.08 1.59 45.08 2.93C45.08 3.42 44.94 3.87 44.69 4.24C45.46 4.75 45.97 5.62 45.97 6.62ZM38.59 3.75H42.66C43.11 3.75 43.48 3.38 43.48 2.93C43.48 2.48 43.11 2.11 42.66 2.11H38.59V3.75ZM43.11 7.87C43.8 7.87 44.37 7.31 44.37 6.61C44.37 5.92 43.81 5.35 43.11 5.35H38.59V7.88H43.11V7.87Z" fill="black"/>
<path d="M56.9102 7.90001V9.50001H52.3502C51.9002 9.50001 51.4802 9.40001 51.0902 9.20001C50.5302 8.92001 50.0602 8.46001 49.7902 7.89001C49.6002 7.50001 49.4902 7.08001 49.4902 6.63001V0.51001H51.0902V6.79001C51.1702 7.35001 51.6202 7.80001 52.1802 7.88001L56.9102 7.90001Z" fill="black"/>
<path d="M69.4202 4.99C69.4202 7.47 67.4002 9.48 64.9302 9.48C62.4502 9.48 60.4402 7.46 60.4402 4.99C60.4402 2.51 62.4602 0.5 64.9302 0.5C67.4102 0.5 69.4202 2.52 69.4202 4.99ZM67.8202 4.99C67.8202 3.4 66.5202 2.1 64.9302 2.1C63.3402 2.1 62.0402 3.4 62.0402 4.99C62.0402 6.58 63.3402 7.88 64.9302 7.88C66.5202 7.88 67.8202 6.59 67.8202 4.99Z" fill="black"/>
<path d="M74.4301 4.99C74.4301 6.58 75.7301 7.88 77.3201 7.88H81.8101V9.48H77.3201C74.8401 9.48 72.8301 7.46 72.8301 4.99C72.8301 2.51 74.8501 0.5 77.3201 0.5H81.8101V2.1H77.3201C75.7301 2.1 74.4301 3.4 74.4301 4.99Z" fill="black"/>
<path d="M90.7202 4.11L94.6102 9.49H92.6302L89.5202 5.2L87.2502 7.27V9.49H85.6501V0.5H87.2502V5.1L88.5702 3.89L89.7601 2.8L92.2601 0.5H94.6402L90.7202 4.11Z" fill="black"/>
<path d="M105.4 2.99V2.94C105.4 2.49 105.03 2.12 104.58 2.12H100.93C100.48 2.12 100.11 2.49 100.11 2.94V2.99C100.11 3.44 100.48 3.81 100.93 3.81H104.17C105 3.81 105.75 4.17 106.26 4.73C106.3 4.77 106.32 4.81 106.36 4.85C106.76 5.34 107 5.97 107 6.65C107 8.22 105.73 9.49 104.16 9.49H101.35C99.78 9.49 98.51 8.22 98.51 6.65H100.11C100.11 7.33 100.66 7.88 101.34 7.88H104.15C104.83 7.88 105.4 7.33 105.4 6.65C105.4 5.97 104.84 5.42 104.15 5.42H100.91C100.26 5.42 99.66 5.16 99.23 4.74C99.11 4.62 99.01 4.5 98.92 4.35C98.65 3.96 98.5 3.49 98.5 2.98V2.93C98.5 1.59 99.58 0.5 100.91 0.5H104.56C105.9 0.5 106.99 1.59 106.99 2.93V2.98L105.4 2.99Z" fill="black"/>
</svg>
