<svg width="36" height="36" viewBox="0 0 36 36" fill="none" xmlns="http://www.w3.org/2000/svg">
<path d="M36 18C36 22.3275 34.4775 26.2875 31.935 29.3925C31.47 29.9625 30.975 30.495 30.4425 31.005C29.385 32.0175 28.215 32.895 26.94 33.63C24.3075 35.1375 21.255 36 18 36C16.92 36 15.8625 35.9025 14.835 35.7225C14.0175 35.58 13.2225 35.3775 12.45 35.1225C10.0725 34.3575 7.9125 33.105 6.0825 31.485C2.3475 28.1925 0 23.37 0 18C0 8.0625 8.0625 0 18 0C27.9375 0 36 8.0625 36 18Z" fill="#FFD572"/>
<path d="M15.2625 8.36255C15.2625 8.36255 11.7975 6.01505 7.69504 8.28755C3.59254 10.5675 4.88254 14.79 4.88254 14.79C4.88254 14.79 1.66504 18.8175 3.17254 22.8225C4.67254 26.8275 11.355 27.9675 14.3175 23.4525C17.28 18.9375 12.5775 14.91 12.5775 14.91C12.5775 14.91 16.395 14.8875 15.2625 8.36255Z" fill="black"/>
<path d="M31.9349 29.3925C31.4699 29.9625 30.9749 30.495 30.4424 31.005C29.3849 32.0175 28.2149 32.895 26.9399 33.63C26.9774 28.365 29.0399 24.825 29.0399 24.825C29.1824 25.08 30.2549 27.0225 31.9349 29.3925Z" fill="#B55C4D"/>
<path d="M24.795 11.9175C24.795 11.9175 26.2725 7.33496 26.07 6.17996C25.8675 5.02496 21.0075 3.53246 17.1525 5.32496C13.29 7.12496 13.035 12.2025 13.905 14.295C16.1475 19.7025 20.805 17.2125 20.805 17.2125C20.805 17.2125 28.2225 14.955 24.795 11.9175Z" fill="black"/>
<path d="M30.4425 31.005C29.385 32.0175 28.2149 32.895 26.9399 33.63C24.3074 35.1375 21.255 36 18 36C16.92 36 15.8625 35.9025 14.835 35.7225C14.0175 35.58 13.2225 35.3775 12.45 35.1225C12.645 31.305 12.9075 27.3675 13.2225 24.72C13.425 23.025 13.6575 21.8625 13.92 21.585C14.1525 21.3375 14.6175 21.105 15.255 20.91C16.245 20.61 17.64 20.415 19.1775 20.4C20.7675 20.3775 22.5 20.565 24.1125 21.045C25.575 21.4875 26.94 22.1625 27.9825 23.1675C28.3875 23.55 28.7325 24.1125 29.0324 24.8175C29.715 26.3775 30.1575 28.5675 30.4425 31.005Z" fill="#ADA4F7"/>
<path d="M24.1199 17.91L24.1274 18.0225V20.1675L24.1349 21.8475C24.1349 21.8475 24.2849 22.23 22.4174 22.185C19.9124 22.11 19.0649 21.0225 19.0649 21.0225L18.7949 17.1L19.5599 17.22L24.1199 17.91Z" fill="#B55C4D"/>
<path d="M24.1274 18.135L24.1199 20.115C22.9424 20.025 20.7824 19.605 19.8449 17.79C19.7699 17.64 19.7249 17.5125 19.7024 17.4L24.1199 18.105L24.1274 18.135Z" fill="black"/>
<path d="M24.4949 8.65499C24.4949 8.65499 26.9549 13.7025 26.2649 16.62C25.5749 19.5375 22.9274 19.2 21.3299 18.705C19.7324 18.21 18.9599 17.28 18.9599 17.28C18.9599 17.28 17.5124 17.8425 16.4699 16.515C15.4274 15.1875 15.9674 13.59 16.7924 13.2C17.6174 12.8025 18.6374 13.3725 18.6374 13.3725L17.7899 11.91C17.8049 11.9025 20.7749 4.17749 24.4949 8.65499Z" fill="#B55C4D"/>
<path d="M18.6449 13.3649C18.6449 13.3649 20.8499 12.1349 21.5999 10.4924C22.3574 8.84995 22.3574 8.03995 22.3574 8.03995C22.3574 8.03995 22.7249 9.08995 23.5499 9.30745C24.3749 9.52495 24.8849 9.53995 24.8849 9.53995L25.4624 11.0249L24.9974 7.44745C24.9974 7.44745 22.7399 6.33745 22.4399 6.35245C22.1399 6.35995 18.4199 7.16245 18.2174 7.39495C18.0074 7.62745 16.9274 10.5749 16.9274 10.5749L16.8899 11.8949L18.6449 13.3649Z" fill="black"/>
<path d="M14.835 35.7225C14.0175 35.58 13.2225 35.3775 12.45 35.1225C10.0725 34.3575 7.91252 33.105 6.08252 31.485C7.01252 29.55 8.19002 27.8025 9.33752 26.34C11.6625 23.3925 13.92 21.5775 13.92 21.5775L14.13 22.5525C14.595 24.6975 14.8275 26.88 14.8275 29.0775C14.835 31.2825 14.835 33.3975 14.835 35.7225Z" fill="#B55C4D"/>
<path d="M22.3424 22.3649C20.1074 22.3649 18.6749 20.9999 18.6524 20.9849C18.5774 20.9099 18.5774 20.7899 18.6524 20.7149C18.7274 20.6399 18.8474 20.6399 18.9224 20.7074C19.0124 20.7974 21.2024 22.8674 24.4499 21.5549C24.5474 21.5174 24.6599 21.5624 24.7049 21.6599C24.7424 21.7574 24.6974 21.8699 24.5999 21.9149C23.7824 22.2374 23.0249 22.3649 22.3424 22.3649Z" fill="white"/>
</svg>
