<svg width="36" height="36" viewBox="0 0 36 36" fill="none" xmlns="http://www.w3.org/2000/svg">
<path d="M36 18C36 19.8825 35.715 21.6975 35.175 23.4C34.3575 26.0025 32.97 28.35 31.1475 30.2925C31.11 30.3375 31.0725 30.3825 31.0275 30.4275C30.975 30.4875 30.915 30.54 30.8625 30.6C30.1725 31.305 29.4225 31.95 28.6275 32.5275C28.5225 32.61 28.4175 32.685 28.3125 32.7525C25.395 34.8 21.84 36 18 36C17.22 36 16.4475 35.9475 15.69 35.8575C15.6825 35.85 15.675 35.85 15.6675 35.85C13.815 35.61 12.045 35.085 10.41 34.3275C10.275 34.2675 10.14 34.2 10.005 34.1325C7.3425 32.8125 5.0625 30.855 3.345 28.455C3.195 28.245 3.0525 28.035 2.91 27.825C2.565 27.3 2.2425 26.7525 1.9575 26.1975C0.7125 23.7375 0 20.955 0 18C0 8.055 8.055 0 18 0C27.945 0 36 8.055 36 18Z" fill="#EFEFF3"/>
<path d="M31.1474 30.2926C31.1099 30.3376 31.0724 30.3826 31.0274 30.4276C30.9749 30.4876 30.9149 30.5401 30.8624 30.6001C27.5999 33.9301 23.0399 36.0001 17.9999 36.0001C17.2199 36.0001 16.4474 35.9476 15.6899 35.8576C15.6824 35.8501 15.6749 35.8501 15.6674 35.8501C13.8149 35.6101 12.0449 35.0851 10.4099 34.3276C10.5674 27.8101 10.4999 22.1026 10.4999 21.9901C10.5599 21.8551 13.5824 21.0826 17.6024 20.9476C23.9324 20.7526 29.2724 24.3151 31.1474 30.2926Z" fill="#F74D76"/>
<path d="M15.69 35.8575C15.6825 35.85 15.675 35.85 15.6675 35.85C13.815 35.61 12.045 35.085 10.41 34.3275C10.275 34.2675 10.14 34.2 10.005 34.1325C7.34247 32.8125 5.06247 30.855 3.34497 28.455C6.80997 23.7 9.64497 22.32 10.4925 21.99C10.665 21.9225 10.755 21.9 10.755 21.9L15.69 35.8575Z" fill="#F74D76"/>
<path d="M18.0674 10.3725C18.0674 10.3725 22.2224 10.5675 22.4624 6.58498C22.7099 2.33998 18.7874 1.93498 17.1224 3.65248C15.4574 5.36998 15.7649 7.10998 15.7649 7.10998C15.7649 7.10998 14.6024 6.05998 13.3349 7.34998C12.4049 8.29498 12.8849 9.83998 12.8849 9.83998C12.8849 9.83998 10.7399 9.75748 10.9424 11.6325C11.1449 13.5075 12.4799 14.4525 12.4799 14.4525L18.0674 10.3725Z" fill="#FFAF45"/>
<path d="M14.2725 17.7075L14.7075 22.125C14.7075 22.125 15.63 23.3175 18.2325 23.2725C20.175 23.2425 20.805 22.74 20.805 22.74L20.3175 20.5275L19.8375 18.375L15.075 17.805L14.2725 17.7075Z" fill="#FC8165"/>
<path d="M15.0674 17.8051C15.0899 17.9251 15.1499 18.0601 15.2399 18.2176C16.4474 20.3251 19.1924 20.5351 20.3099 20.5276L19.8299 18.3751L15.0674 17.8051Z" fill="black"/>
<path d="M19.8375 8.21249C19.8375 8.21249 22.695 13.5225 22.0875 16.6875C21.4725 19.8525 18.615 19.5975 16.8825 19.14C15.15 18.6825 14.28 17.7075 14.28 17.7075C14.28 17.7075 12.75 18.3675 11.5725 16.995C10.395 15.615 10.905 13.8825 11.775 13.4175C12.645 12.96 13.77 13.5225 13.77 13.5225L12.8025 11.9925C12.7875 11.9925 15.645 3.56999 19.8375 8.21249Z" fill="#FC8165"/>
<path d="M20.4226 9.41249C20.4226 9.41249 19.8526 8.57249 18.7576 8.66999C17.6551 8.76749 17.0851 9.60749 17.0851 9.60749C17.0851 9.60749 17.7526 11.415 16.3501 12.5475C14.9476 13.68 13.7626 13.515 13.7626 13.515L12.6376 13.2375L11.6851 11.73L14.4976 8.03249L18.3526 5.48999L20.6101 7.16999L20.4226 9.41249Z" fill="#FFAF45"/>
<path d="M21.7725 10.6125C20.7525 10.6125 19.92 11.46 19.8975 12.5025L19.1925 12.5625C18.9975 11.7 18.225 11.0475 17.3025 11.0475C16.245 11.0475 15.39 11.895 15.3675 12.945C14.76 12.6975 13.3125 12.2325 12.4875 13.11C12.4125 13.185 12.42 13.3125 12.495 13.38C12.5325 13.4175 12.5775 13.4325 12.63 13.4325C12.6825 13.4325 12.735 13.41 12.7725 13.3725C13.53 12.57 15.0825 13.23 15.405 13.38C15.5925 14.2575 16.3725 14.9175 17.3025 14.9175C18.375 14.9175 19.245 14.0475 19.245 12.9825C19.245 12.9675 19.245 12.96 19.2375 12.945L19.92 12.8925C20.0775 13.8 20.8425 14.4975 21.765 14.4975C22.8 14.4975 23.6475 13.6275 23.6475 12.5625C23.655 11.4825 22.815 10.6125 21.7725 10.6125ZM17.3025 14.535C16.4475 14.535 15.75 13.8375 15.75 12.9825C15.75 12.1275 16.4475 11.43 17.3025 11.43C18.03 11.43 18.6375 11.9325 18.8025 12.6075C18.72 12.6375 18.66 12.705 18.6675 12.795C18.675 12.8925 18.7575 12.9675 18.855 12.9675C18.855 12.975 18.855 12.975 18.855 12.9825C18.855 13.8375 18.165 14.535 17.3025 14.535ZM21.7725 14.1075C21.0375 14.1075 20.43 13.56 20.3025 12.8325C20.37 12.795 20.4225 12.735 20.415 12.6525C20.4075 12.57 20.3475 12.525 20.28 12.5025C20.31 11.67 20.9625 11.0025 21.7725 11.0025C22.5975 11.0025 23.265 11.7 23.265 12.555C23.2725 13.41 22.5975 14.1075 21.7725 14.1075Z" fill="black"/>
<path d="M18.2776 23.31C17.0326 23.31 15.5776 22.995 14.1751 21.96C14.0926 21.9 14.0701 21.7725 14.1301 21.69C14.1901 21.6 14.3101 21.585 14.4001 21.645C17.8126 24.15 21.4876 22.2 21.5251 22.1775C21.6151 22.125 21.7351 22.1625 21.7876 22.2525C21.8401 22.3425 21.8026 22.4625 21.7126 22.515C21.6901 22.5375 20.2351 23.31 18.2776 23.31Z" fill="white"/>
<path d="M28.6351 32.52C28.5301 32.6025 28.4251 32.6775 28.3201 32.745L27.5626 31.2075C27.5176 31.1175 27.5551 30.9975 27.6526 30.9525C27.7501 30.9075 27.8626 30.945 27.9076 31.0425L28.6351 32.52Z" fill="white"/>
<path d="M17.2425 27.63C10.2225 27.63 6.32246 25.095 6.28496 25.0725C6.19496 25.0125 6.17246 24.8925 6.23246 24.8025C6.29246 24.7125 6.41246 24.69 6.50246 24.75C6.54746 24.78 10.9575 27.63 18.8625 27.2025C25.5525 26.835 27.21 24.2775 27.225 24.255C27.2775 24.165 27.3975 24.135 27.4875 24.195C27.5775 24.2475 27.6075 24.3675 27.555 24.4575C27.4875 24.57 25.8075 27.21 18.885 27.5925C18.315 27.615 17.7675 27.63 17.2425 27.63Z" fill="white"/>
<path d="M18.0825 32.04C9.83248 32.04 4.01997 27.9375 3.96747 27.9C3.87747 27.84 3.86247 27.72 3.92247 27.63C3.98247 27.54 4.10247 27.5249 4.19247 27.5849C4.25247 27.6299 10.2 31.8225 18.5925 31.65C26.9325 31.4775 29.8875 27.6675 29.9175 27.63C29.985 27.5475 30.105 27.525 30.1875 27.5925C30.27 27.6525 30.2925 27.78 30.225 27.8625C30.105 28.0275 27.1425 31.8675 18.6 32.04C18.42 32.04 18.2475 32.04 18.0825 32.04Z" fill="white"/>
</svg>
