<svg width="800" height="360" viewBox="0 0 800 360" fill="none" xmlns="http://www.w3.org/2000/svg">
<g clip-path="url(#clip0_5556_18671)">
<path d="M554.09 233C555.058 233.493 556.129 233.749 557.215 233.749C558.301 233.749 559.372 233.493 560.34 233C562.06 232 562.06 230.39 560.34 229.4C559.372 228.907 558.301 228.651 557.215 228.651C556.129 228.651 555.058 228.907 554.09 229.4C552.37 230.36 552.37 232 554.09 233ZM599.93 206.54C600.896 207.033 601.965 207.291 603.05 207.291C604.135 207.291 605.204 207.033 606.17 206.54C607.89 205.54 607.89 203.93 606.17 202.94C605.204 202.447 604.135 202.189 603.05 202.189C601.965 202.189 600.896 202.447 599.93 202.94C598.2 203.9 598.2 205.52 599.93 206.51V206.54ZM545.06 238.22C544.094 237.727 543.025 237.469 541.94 237.469C540.855 237.469 539.786 237.727 538.82 238.22C537.09 239.22 537.09 240.83 538.82 241.82C539.786 242.313 540.855 242.571 541.94 242.571C543.025 242.571 544.094 242.313 545.06 241.82C546.79 240.8 546.79 239.18 545.06 238.19V238.22ZM590.89 211.76C589.924 211.267 588.855 211.009 587.77 211.009C586.685 211.009 585.616 211.267 584.65 211.76C582.92 212.76 582.92 214.37 584.65 215.36C585.616 215.853 586.685 216.111 587.77 216.111C588.855 216.111 589.924 215.853 590.89 215.36C592.62 214.34 592.62 212.72 590.89 211.73V211.76ZM575.62 220.58C574.652 220.087 573.581 219.831 572.495 219.831C571.409 219.831 570.338 220.087 569.37 220.58C567.65 221.58 567.65 223.19 569.37 224.18C570.338 224.673 571.409 224.929 572.495 224.929C573.581 224.929 574.652 224.673 575.62 224.18C577.34 223.16 577.34 221.54 575.62 220.55V220.58ZM603.62 219.08C602.654 218.587 601.585 218.329 600.5 218.329C599.415 218.329 598.346 218.587 597.38 219.08C595.66 220.08 595.66 221.69 597.38 222.68C598.346 223.173 599.415 223.431 600.5 223.431C601.585 223.431 602.654 223.173 603.62 222.68C605.3 221.66 605.3 220 603.57 219.05L603.62 219.08ZM588.35 227.9C587.382 227.407 586.311 227.151 585.225 227.151C584.139 227.151 583.068 227.407 582.1 227.9C580.38 228.9 580.38 230.51 582.1 231.5C583.068 231.993 584.139 232.249 585.225 232.249C586.311 232.249 587.382 231.993 588.35 231.5C590 230.48 590 228.86 588.3 227.87L588.35 227.9ZM557.79 245.54C556.824 245.047 555.755 244.789 554.67 244.789C553.585 244.789 552.516 245.047 551.55 245.54C549.83 246.54 549.83 248.15 551.55 249.15C552.518 249.638 553.586 249.892 554.67 249.892C555.754 249.892 556.822 249.638 557.79 249.15C559.47 248.12 559.47 246.51 557.74 245.51L557.79 245.54ZM566.79 240.32C567.756 240.813 568.825 241.071 569.91 241.071C570.995 241.071 572.064 240.813 573.03 240.32C574.75 239.32 574.75 237.71 573.03 236.72C572.064 236.227 570.995 235.969 569.91 235.969C568.825 235.969 567.756 236.227 566.79 236.72C565.05 237.68 565.05 239.3 566.78 240.29L566.79 240.32ZM612.62 213.86C613.586 214.353 614.655 214.611 615.74 214.611C616.825 214.611 617.894 214.353 618.86 213.86C620.59 212.86 620.59 211.25 618.86 210.26C617.894 209.767 616.825 209.509 615.74 209.509C614.655 209.509 613.586 209.767 612.62 210.26C610.88 211.22 610.88 212.84 612.61 213.83L612.62 213.86ZM625.3 221.19C626.268 221.678 627.336 221.932 628.42 221.932C629.504 221.932 630.572 221.678 631.54 221.19C633.27 220.19 633.27 218.58 631.54 217.58C630.574 217.087 629.505 216.829 628.42 216.829C627.335 216.829 626.266 217.087 625.3 217.58C623.57 218.55 623.57 220.16 625.29 221.16L625.3 221.19ZM616.3 226.4C615.329 225.916 614.26 225.664 613.175 225.664C612.09 225.664 611.021 225.916 610.05 226.4C608.33 227.4 608.33 229.01 610.05 230.01C611.021 230.494 612.09 230.746 613.175 230.746C614.26 230.746 615.329 230.494 616.3 230.01C618 229 618 227.37 616.26 226.37L616.3 226.4ZM601 235.19C600.032 234.702 598.964 234.448 597.88 234.448C596.796 234.448 595.728 234.702 594.76 235.19C593.03 236.19 593.03 237.8 594.76 238.8C595.728 239.288 596.796 239.542 597.88 239.542C598.964 239.542 600.032 239.288 601 238.8C602.7 237.8 602.7 236.19 601 235.19ZM579.48 247.62C580.448 248.108 581.516 248.362 582.6 248.362C583.684 248.362 584.752 248.108 585.72 247.62C587.45 246.62 587.45 245.01 585.72 244.01C584.752 243.522 583.684 243.268 582.6 243.268C581.516 243.268 580.448 243.522 579.48 244.01C577.73 245 577.73 246.62 579.46 247.62H579.48ZM570.48 252.83C569.512 252.342 568.444 252.088 567.36 252.088C566.276 252.088 565.208 252.342 564.24 252.83C562.52 253.83 562.52 255.44 564.24 256.44C565.208 256.928 566.276 257.182 567.36 257.182C568.444 257.182 569.512 256.928 570.48 256.44C572.15 255.44 572.15 253.83 570.42 252.83H570.48Z" fill="#F1F1F6"/>
<path style="mix-blend-mode:multiply" d="M601.55 302.54L550.04 332.29H507.82L559.34 278.17L601.55 302.54Z" fill="url(#paint0_linear_5556_18671)"/>
<path d="M532.45 262.65L559.34 278.17L507.82 307.91L480.94 292.39L532.45 262.65Z" fill="#F6F6FB"/>
<path d="M480.94 292.39L507.82 307.91V332.29L480.94 316.76V292.39Z" fill="#CED3F8"/>
<path d="M559.34 278.17L507.82 307.91V332.29L559.34 302.54V278.17Z" fill="#BBC0E6"/>
<path style="mix-blend-mode:multiply" d="M575.38 316.64H553.87V321.14H575.38V316.64Z" fill="url(#paint1_linear_5556_18671)"/>
<path style="mix-blend-mode:multiply" d="M565.72 323.14H542.59V327.64H565.72V323.14Z" fill="url(#paint2_linear_5556_18671)"/>
<path d="M525.55 274.2C525.7 273.67 526.84 273.09 528.07 272.98C527.85 272.73 527.53 272.33 527.65 272.21C527.77 272.09 529.3 272.8 529.82 273.33C530.174 273.608 530.578 273.815 531.01 273.94L531.22 276.23C530.388 276.308 529.549 276.206 528.76 275.93C528.348 275.773 527.907 275.707 527.466 275.736C527.026 275.765 526.598 275.89 526.21 276.1C525.83 276.28 525.38 274.79 525.55 274.2Z" fill="#FCD1A9"/>
<path d="M530.83 276.39C530.83 276.39 529.51 275.5 531.01 273.94C535.89 273.48 539.48 270.41 540.46 265.09C540.83 262.83 543.24 262.86 543.24 265.93C543.24 271.06 539.33 276.86 530.83 276.39Z" fill="url(#paint3_linear_5556_18671)"/>
<path d="M556.46 319.75C556.46 316.22 554.22 316.12 554.22 316.12C553.105 316.139 551.998 315.924 550.97 315.49C548.45 314.54 546.34 314.8 547.87 317.63C547.886 317.665 547.906 317.699 547.93 317.73C548.054 317.915 548.223 318.066 548.42 318.17L553.32 321.04C554.07 321.47 556.44 320.48 556.46 319.75Z" fill="url(#paint4_linear_5556_18671)"/>
<path d="M556.44 319.44C556.44 320.16 554.06 321.13 553.32 320.71L548.42 317.83C548.175 317.685 547.944 317.518 547.73 317.33L547.87 317.63C547.886 317.666 547.906 317.699 547.93 317.73C548.054 317.915 548.223 318.066 548.42 318.17L553.32 321.04C554.02 321.44 556.15 320.6 556.43 319.89C556.434 319.844 556.434 319.797 556.43 319.75C556.443 319.647 556.447 319.544 556.44 319.44Z" fill="#131147"/>
<path d="M555.55 315.65C555.031 315.697 554.516 315.784 554.01 315.91C553.53 315.79 551.94 315.73 550.9 315.42C550.59 315.33 550.3 315.14 549.97 315.42C549.56 315.93 550.63 317.17 552.84 318.12C553.092 318.309 553.403 318.4 553.717 318.378C554.031 318.356 554.327 318.222 554.55 318C554.68 317.746 554.873 317.529 555.11 317.37C555.266 317.254 555.448 317.179 555.64 317.15C555.635 317.134 555.635 317.116 555.64 317.1C555.64 317.1 555.79 315.65 555.55 315.65Z" fill="#FCD1A9"/>
<path d="M554.44 292.39C555.44 289.39 556.31 285.91 555.58 282.39C553.37 282.39 547.83 281.17 545.58 281.21C546.4 287.87 548.26 293.72 549.36 300.21C550.55 306.48 551.97 311.08 553.14 316.3C553.57 317.3 555.65 316.83 555.65 316.3C556.043 310.957 555.598 305.585 554.33 300.38C554.47 297.8 554 294.89 554.44 292.39Z" fill="#3B3BA3"/>
<path d="M545.29 326.26C545.29 322.72 543.05 322.62 543.05 322.62C541.91 322.589 540.785 322.352 539.73 321.92C537.22 320.98 535.17 321.3 536.73 324.13L536.79 324.23C536.914 324.415 537.083 324.566 537.28 324.67L542.18 327.54C542.9 328 545.27 327 545.29 326.26Z" fill="url(#paint5_linear_5556_18671)"/>
<path d="M545.28 325.94C545.28 326.66 542.89 327.63 542.15 327.21L537.25 324.34C537.007 324.188 536.777 324.017 536.56 323.83L536.7 324.13L536.76 324.23C536.884 324.415 537.053 324.566 537.25 324.67L542.15 327.54C542.85 327.94 544.98 327.1 545.26 326.4C545.264 326.35 545.264 326.3 545.26 326.25C545.29 326.14 545.28 326 545.28 325.94Z" fill="#131147"/>
<path d="M544.38 322.15C543.864 322.196 543.352 322.283 542.85 322.41C542.36 322.29 540.77 322.23 539.73 321.92C539.42 321.83 539.13 321.64 538.81 321.92C538.39 322.43 539.46 323.67 541.67 324.62C541.922 324.809 542.233 324.9 542.547 324.878C542.861 324.856 543.157 324.722 543.38 324.5C543.51 324.246 543.703 324.029 543.94 323.87C544.097 323.756 544.278 323.68 544.47 323.65V323.6C544.47 323.6 544.62 322.15 544.38 322.15Z" fill="#FCD1A9"/>
<path d="M548.55 296.89C550.44 289.3 556.13 293.66 555.68 282.41C553.48 282.08 544.22 287.02 542.03 286.7C540.74 294.86 541.03 299.9 541.03 306.44C541.18 312.82 541.59 317.18 541.9 322.52C542.16 323.52 544.5 323.52 544.5 322.85C545.837 317.591 546.344 312.155 546 306.74C546.63 303.59 547.84 300.24 548.55 296.89Z" fill="url(#paint6_linear_5556_18671)"/>
<path d="M553.11 294.08C549.54 296.26 543.92 297.62 540.31 296.02C539.93 293.91 543.2 280.02 541.05 276.33C540.58 275.53 539.24 276.08 538.66 275.33C537.204 272.934 536.089 270.345 535.35 267.64C535.437 266.842 535.705 266.074 536.133 265.395C536.561 264.716 537.138 264.143 537.82 263.72C539.55 262.57 541.99 261.03 544.15 261.45C548.86 262.78 555.21 273.2 556.9 289.04C556.331 291.144 554.974 292.949 553.11 294.08Z" fill="url(#paint7_linear_5556_18671)"/>
<path d="M542.64 261.45C541.01 260.86 540.91 260.08 540.73 258.69C540.787 257.878 540.703 257.063 540.48 256.28C539.63 253.28 537.01 251.28 534.74 252.11C530.17 253.77 531.74 255.98 532.55 258.95C533.33 261.7 535.12 263.23 537.29 262.95C537.368 263.206 537.375 263.479 537.312 263.739C537.249 263.999 537.117 264.238 536.93 264.43C538.71 264.9 541.04 263.84 541.93 263.19C542.82 262.54 543.46 261.92 542.64 261.45Z" fill="#FCD1A9"/>
<path d="M528.29 284.86L533.56 278.67L530.83 271L525.56 277.2L528.29 284.86Z" fill="#BBC0E6"/>
<path d="M528.29 284.86L520.29 283.39L517.56 275.73L525.56 277.2L528.29 284.86Z" fill="#CED3F8"/>
<path d="M525.56 277.2L517.56 275.73L522.83 269.54L530.83 271L525.56 277.2Z" fill="white"/>
<path d="M524.66 281.8C524.25 281.92 523.76 280.97 523.06 281.01C522.36 281.05 520.87 281.09 520.97 281.51C521.07 281.93 522.29 281.56 522.16 281.78C521.77 282.39 520.51 282.08 520.16 281.69C519.81 281.3 519.39 281.33 519.51 281.78C519.63 282.23 520.27 284.21 522 284.37C523.212 284.425 524.424 284.266 525.58 283.9L524.66 281.8Z" fill="#FCD1A9"/>
<path d="M525 284.18C525 284.18 523.36 283.48 524.4 281.59C528.99 279.87 535.07 274.03 535.4 267.41C535.82 264.77 538.6 265.58 538.6 268.84C538.56 274 533.33 282.41 525 284.18Z" fill="url(#paint8_linear_5556_18671)"/>
<path d="M531.46 257.21C531.11 255.45 531.8 252.21 534.96 251.64C538.12 251.07 539.8 252.93 540.47 255.51C541 257.51 544.24 262.86 548.73 261.4C547.66 265.5 533.86 269.58 531.46 257.21Z" fill="#20196F"/>
<path d="M181.5 233C182.466 233.493 183.535 233.751 184.62 233.751C185.705 233.751 186.774 233.493 187.74 233C189.46 232 189.46 230.39 187.74 229.4C186.774 228.907 185.705 228.649 184.62 228.649C183.535 228.649 182.466 228.907 181.5 229.4C179.77 230.36 179.77 232 181.5 233ZM227.33 206.54C228.296 207.033 229.365 207.291 230.45 207.291C231.535 207.291 232.604 207.033 233.57 206.54C235.29 205.54 235.29 203.93 233.57 202.94C232.604 202.447 231.535 202.189 230.45 202.189C229.365 202.189 228.296 202.447 227.33 202.94C225.6 203.9 225.6 205.52 227.33 206.51V206.54ZM172.46 238.22C171.494 237.727 170.425 237.469 169.34 237.469C168.255 237.469 167.186 237.727 166.22 238.22C164.49 239.22 164.49 240.83 166.22 241.82C167.186 242.313 168.255 242.571 169.34 242.571C170.425 242.571 171.494 242.313 172.46 241.82C174.19 240.8 174.19 239.18 172.46 238.19V238.22ZM218.29 211.76C217.324 211.267 216.255 211.009 215.17 211.009C214.085 211.009 213.016 211.267 212.05 211.76C210.33 212.76 210.33 214.37 212.05 215.36C213.016 215.853 214.085 216.111 215.17 216.111C216.255 216.111 217.324 215.853 218.29 215.36C220 214.34 220 212.72 218.29 211.73V211.76ZM203 220.55C202.032 220.057 200.961 219.801 199.875 219.801C198.789 219.801 197.718 220.057 196.75 220.55C195.03 221.55 195.03 223.16 196.75 224.15C197.718 224.643 198.789 224.899 199.875 224.899C200.961 224.899 202.032 224.643 203 224.15C204.74 223.16 204.74 221.54 203 220.55ZM231 219.05C230.032 218.557 228.961 218.301 227.875 218.301C226.789 218.301 225.718 218.557 224.75 219.05C223.03 220.05 223.03 221.66 224.75 222.65C225.718 223.143 226.789 223.399 227.875 223.399C228.961 223.399 230.032 223.143 231 222.65C232.7 221.66 232.7 220 231 219.05ZM215.72 227.87C214.752 227.377 213.681 227.121 212.595 227.121C211.509 227.121 210.438 227.377 209.47 227.87C207.75 228.87 207.75 230.48 209.47 231.47C210.438 231.963 211.509 232.219 212.595 232.219C213.681 232.219 214.752 231.963 215.72 231.47C217.42 230.48 217.42 228.86 215.7 227.87H215.72ZM185.16 245.51C184.194 245.017 183.125 244.759 182.04 244.759C180.955 244.759 179.886 245.017 178.92 245.51C177.2 246.51 177.2 248.12 178.92 249.12C179.888 249.608 180.956 249.862 182.04 249.862C183.124 249.862 184.192 249.608 185.16 249.12C186.87 248.12 186.87 246.51 185.14 245.51H185.16ZM194.16 240.29C195.126 240.783 196.195 241.041 197.28 241.041C198.365 241.041 199.434 240.783 200.4 240.29C202.12 239.29 202.12 237.68 200.4 236.69C199.434 236.197 198.365 235.939 197.28 235.939C196.195 235.939 195.126 236.197 194.16 236.69C192.45 237.68 192.45 239.3 194.18 240.29H194.16ZM240 213.83C240.966 214.323 242.035 214.581 243.12 214.581C244.205 214.581 245.274 214.323 246.24 213.83C247.97 212.83 247.97 211.22 246.24 210.23C245.274 209.737 244.205 209.479 243.12 209.479C242.035 209.479 240.966 209.737 240 210.23C238.28 211.22 238.28 212.84 240 213.83ZM252.68 221.16C253.648 221.648 254.716 221.902 255.8 221.902C256.884 221.902 257.952 221.648 258.92 221.16C260.65 220.16 260.65 218.55 258.92 217.55C257.954 217.057 256.885 216.799 255.8 216.799C254.715 216.799 253.646 217.057 252.68 217.55C251 218.55 251 220.16 252.69 221.16H252.68ZM243.68 226.37C242.709 225.886 241.64 225.634 240.555 225.634C239.47 225.634 238.401 225.886 237.43 226.37C235.71 227.37 235.71 228.98 237.43 229.98C238.401 230.464 239.47 230.716 240.555 230.716C241.64 230.716 242.709 230.464 243.68 229.98C245.38 229 245.38 227.37 243.66 226.37H243.68ZM228.4 235.19C227.432 234.702 226.364 234.448 225.28 234.448C224.196 234.448 223.128 234.702 222.16 235.19C220.43 236.19 220.43 237.8 222.16 238.8C223.128 239.288 224.196 239.542 225.28 239.542C226.364 239.542 227.432 239.288 228.4 238.8C230.1 237.8 230.1 236.19 228.38 235.19H228.4ZM206.88 247.62C207.848 248.108 208.916 248.362 210 248.362C211.084 248.362 212.152 248.108 213.12 247.62C214.85 246.62 214.85 245.01 213.12 244.01C212.152 243.522 211.084 243.268 210 243.268C208.916 243.268 207.848 243.522 206.88 244.01C205.13 245 205.13 246.62 206.86 247.62H206.88ZM197.88 252.83C196.909 252.346 195.84 252.094 194.755 252.094C193.67 252.094 192.601 252.346 191.63 252.83C189.91 253.83 189.91 255.44 191.63 256.44C192.601 256.924 193.67 257.176 194.755 257.176C195.84 257.176 196.909 256.924 197.88 256.44C199.55 255.44 199.55 253.83 197.83 252.83H197.88Z" fill="#F1F1F6"/>
<path d="M548.68 222.84L409.9 142.71C408.367 141.94 406.676 141.538 404.96 141.538C403.245 141.538 401.553 141.94 400.02 142.71L261.24 222.84C258.51 224.41 258.51 226.97 261.24 228.54L395 305.79V309.79H404.47C404.77 309.81 405.07 309.81 405.37 309.79H405.67C407.134 309.726 408.565 309.337 409.86 308.65L548.64 228.52C551.41 227 551.41 224.41 548.68 222.84Z" fill="url(#paint9_linear_5556_18671)"/>
<path d="M538.76 222.91L400 303C398.467 303.77 396.775 304.172 395.06 304.172C393.344 304.172 391.653 303.77 390.12 303L251.32 222.91C250.764 222.654 250.287 222.256 249.935 221.755C249.584 221.254 249.372 220.669 249.32 220.06V225.69C249.372 226.299 249.584 226.884 249.935 227.385C250.287 227.886 250.764 228.284 251.32 228.54L390.1 308.67C391.633 309.44 393.325 309.842 395.04 309.842C396.756 309.842 398.447 309.44 399.98 308.67L538.76 228.54C539.316 228.284 539.793 227.886 540.145 227.385C540.496 226.884 540.708 226.299 540.76 225.69V220.06C540.708 220.669 540.496 221.254 540.145 221.755C539.793 222.256 539.316 222.654 538.76 222.91Z" fill="url(#paint10_linear_5556_18671)"/>
<path d="M400 137.08L538.78 217.21C541.51 218.78 541.51 221.34 538.78 222.91L400 303C398.467 303.77 396.776 304.172 395.06 304.172C393.345 304.172 391.653 303.77 390.12 303L251.32 222.91C248.59 221.34 248.59 218.78 251.32 217.21L390.1 137.08C391.635 136.306 393.331 135.903 395.05 135.903C396.769 135.903 398.465 136.306 400 137.08Z" fill="#F6F6FB"/>
<path d="M395 289.71H423L538.7 222.91C541.43 221.34 541.43 218.78 538.7 217.21L445.62 163.47H395V289.71Z" fill="url(#paint11_linear_5556_18671)"/>
<path d="M451.2 76.7301C452.5 76.9501 452.87 79.0401 452.2 80.3501C451.781 80.7234 451.301 81.0211 450.78 81.2301C449.153 81.9251 447.483 82.513 445.78 82.9901C444.85 83.0601 442.78 82.7101 442.64 81.1401C442.8 80.1401 443.64 79.9101 444.64 79.3201C445.93 78.5501 447.04 77.4401 448.08 76.9301C449.1 76.6784 450.156 76.6107 451.2 76.7301Z" fill="url(#paint12_linear_5556_18671)"/>
<path d="M445.81 82.5599C447.572 82.0787 449.3 81.4773 450.98 80.7599C451.492 80.5433 451.971 80.2536 452.4 79.8999C452.352 80.0545 452.292 80.205 452.22 80.3499C451.801 80.7232 451.321 81.0209 450.8 81.2299C449.173 81.9249 447.503 82.5128 445.8 82.9899C444.87 83.0599 442.8 82.7099 442.66 81.1399C442.66 81.1399 442.66 81.0799 442.66 81.0399C443.1 82.3399 444.94 82.6399 445.81 82.5599Z" fill="#121047"/>
<path d="M448.4 75.3401C449.347 75.6151 450.275 75.9491 451.18 76.3401C451.161 76.5486 451.195 76.7586 451.28 76.9501C451.299 76.9753 451.316 77.0021 451.33 77.0301C451.72 77.4101 452.13 78.0801 450.94 78.4501C448.63 79.1801 446.66 77.6301 447.57 77.1101C448.18 76.8001 448.32 75.8401 448.4 75.3401Z" fill="white"/>
<path d="M447.18 77.4599C447.35 77.2299 447.75 76.6199 448.45 77.1199C448.739 77.2889 448.97 77.5396 449.116 77.8405C449.262 78.1413 449.316 78.4787 449.27 78.8099C449.19 79.3299 447.67 78.9399 447.61 78.8099C447.55 78.6799 447.18 77.4599 447.18 77.4599Z" fill="url(#paint13_linear_5556_18671)"/>
<path d="M447.41 36.5901C447.31 45.3201 446.34 51.7901 446.77 59.5301C447.2 67.4401 447.28 71.2901 447.35 77.2401C448.49 78.6501 451.35 78.3001 452 77.2401C452.75 71.8501 454.27 66.5901 453.6 60.3301C455.32 51.8201 459.51 42.3901 458.77 36.3301C457.06 36.8101 449.13 36.0501 447.41 36.5901Z" fill="url(#paint14_linear_5556_18671)"/>
<path d="M462.42 83.2099C463.72 83.4199 464.09 85.5199 463.42 86.8299C462.998 87.1995 462.519 87.4968 462 87.7099C460.375 88.4053 458.704 88.99 457 89.4599C456.07 89.5399 454 89.1899 453.86 87.6199C454.01 86.6199 454.86 86.3899 455.86 85.7999C457.15 85.0299 458.26 83.9099 459.3 83.3999C460.32 83.1501 461.377 83.0857 462.42 83.2099Z" fill="url(#paint15_linear_5556_18671)"/>
<path d="M457 89.0001C458.766 88.5187 460.496 87.9173 462.18 87.2001C462.692 86.984 463.167 86.6906 463.59 86.3301C463.55 86.4891 463.493 86.6433 463.42 86.7901C462.998 87.1596 462.519 87.4569 462 87.6701C460.375 88.3655 458.704 88.9501 457 89.4201C456.07 89.5001 454 89.1501 453.86 87.5801C453.854 87.547 453.854 87.5132 453.86 87.4801C454.31 88.8201 456.16 89.1101 457 89.0001Z" fill="#121047"/>
<path d="M459.62 81.8201C460.564 82.0919 461.49 82.426 462.39 82.8201C462.377 83.0261 462.415 83.2321 462.5 83.4201L462.55 83.5101C462.94 83.8901 463.35 84.5101 462.16 84.9301C459.85 85.6601 457.88 84.1101 458.79 83.5801C459.4 83.2701 459.54 82.3101 459.62 81.8201Z" fill="white"/>
<path d="M458.4 83.9301C458.57 83.7101 458.97 83.1001 459.67 83.6001C459.958 83.7674 460.189 84.0164 460.335 84.3155C460.481 84.6146 460.535 84.9503 460.49 85.2801C460.4 85.8101 458.88 85.4201 458.83 85.3401C458.78 85.2601 458.4 83.9301 458.4 83.9301Z" fill="url(#paint16_linear_5556_18671)"/>
<path d="M452.68 41.53C452.58 50.26 454.9 58.31 456.11 65.26C457.48 73.06 458.49 77.77 458.57 83.71C459.71 85.13 462.57 84.77 463.22 83.71C463.97 78.32 464 69.71 462.94 66.05C463.87 56.34 464.78 47.32 464.04 41.23C462.33 41.75 454.4 41 452.68 41.53Z" fill="url(#paint17_linear_5556_18671)"/>
<path d="M424.27 17C423.75 17 423.08 19.77 423.85 20.2C424.62 20.63 424.73 19.2 424.78 18.81C424.83 18.42 424.69 17 424.27 17Z" fill="#E19100"/>
<path d="M424.47 19.7201C424.342 19.6232 424.189 19.5659 424.029 19.5552C423.869 19.5446 423.709 19.581 423.57 19.6601C422.689 19.8182 421.78 19.7103 420.96 19.3501C420.614 19.1667 420.233 19.057 419.843 19.0277C419.452 18.9984 419.06 19.0503 418.69 19.1801C417.89 19.5001 417.76 18.8001 417.76 18.8001C417.76 18.8001 417.21 18.6301 417.04 18.1801C416.81 18.0801 416.11 17.4101 416.71 17.1801C416.82 16.9301 416.78 16.6701 417.56 16.3601C418.393 16.0249 419.299 15.9078 420.19 16.0201C420.061 15.7615 419.984 15.4797 419.965 15.1912C419.947 14.9027 419.985 14.6133 420.08 14.3401C420.54 14.8801 420.69 15.3401 421.51 15.6801C422.33 16.0201 423.33 16.3401 423.51 16.8201C423.69 17.3001 424.93 17.8201 424.93 17.8201L424.47 19.7201Z" fill="#FCD1A9"/>
<path d="M447.55 15.1201C441.98 17.8701 438.68 19.7001 434.64 21.1201C432.57 20.5001 426.13 17.5201 424.27 16.9201C424.505 17.4397 424.59 18.0146 424.516 18.58C424.442 19.1454 424.211 19.6788 423.85 20.1201C425.64 21.1201 433.1 25.5101 434.18 25.7401C436.26 26.1801 441.63 24.7401 446.29 22.0701C450.27 19.8101 447.55 15.1201 447.55 15.1201Z" fill="url(#paint18_linear_5556_18671)"/>
<path d="M460.09 17.32C458.41 15.59 454.47 13.32 452.09 13.4C447.96 13.5 445.09 17.21 444.49 20.12C443.97 22.87 447.62 40.65 447.1 44.36C447.72 46.22 450.59 47.36 452.7 47.55C458.63 48 465.18 47.7 465.27 43.99C465.39 37.05 462.46 19.26 460.09 17.32Z" fill="url(#paint19_linear_5556_18671)"/>
<path d="M452 7.91007C452 6.57007 447.69 9.72007 448.05 11.4601C448.34 12.8701 448.88 14.0901 447.53 15.1201C447.07 15.5701 445.64 18.5101 448.26 18.2801C452.01 17.9601 452.91 16.8301 455.38 14.2801C453.7 13.4901 452 12.2601 452 7.91007Z" fill="#FCD1A9"/>
<path d="M453 7.00008L450.9 4.58008L442.78 5.38008L443.26 10.2601C443.53 12.9601 445.56 14.9701 447.8 14.7501C448.941 14.6022 449.981 14.0192 450.702 13.1229C451.423 12.2265 451.77 11.0862 451.67 9.94008L452.62 9.50008L453 7.00008Z" fill="#FCD1A9"/>
<path d="M448.12 15.9999C450.06 15.7999 452.12 12.4499 451.67 9.8999C451.716 11.0063 451.371 12.0934 450.694 12.9698C450.017 13.8461 449.052 14.4553 447.97 14.6899C447.838 14.8278 447.697 14.958 447.55 15.0799C447.505 15.1259 447.465 15.1762 447.43 15.2299C447.47 15.6699 447.77 16.0699 448.12 15.9999Z" fill="#F2C39D"/>
<path d="M443 3.13005C442.24 3.07005 442.11 2.46005 445 1.13005C446.66 0.130045 449.11 -0.409955 450.82 0.430045C453.12 1.56005 453.97 3.43005 453.82 5.99005C453.638 7.73601 453.129 9.43216 452.32 10.99C452.1 11.26 451.95 10.11 452.07 9.25004C452.196 9.01547 452.267 8.75584 452.28 8.49004C452.6 5.92004 451.1 6.49005 450.91 6.68005C450.45 6.92004 451.58 8.92004 450.16 8.85005C449.48 8.85005 449.38 6.92005 449.32 6.26005C449.22 6.2879 449.123 6.32472 449.03 6.37005C447.94 7.12005 444.03 7.97005 446.11 6.37005C444.59 6.52005 442.6 7.42005 441.81 6.53005C440.94 5.53005 442.14 4.15005 443 3.13005Z" fill="#20196F"/>
<path d="M485.51 167.83L515.67 185.24L485.51 202.65L455.36 185.24L485.51 167.83Z" fill="#F6F6FB"/>
<path d="M455.36 185.24L485.51 202.65V237.47L455.36 220.06V185.24Z" fill="#CED3F8"/>
<path d="M515.67 185.24L485.51 202.65V237.47L515.67 220.06V185.24Z" fill="#BBC0E6"/>
<path d="M455.36 185.24L485.51 202.65L455.36 220.06L425.2 202.65L455.36 185.24Z" fill="#F6F6FB"/>
<path d="M425.2 202.65L455.36 220.06V254.88L425.2 237.47V202.65Z" fill="#CED3F8"/>
<path d="M485.51 202.65L455.36 220.06V254.88L485.51 237.47V202.65Z" fill="#BBC0E6"/>
<path d="M425.2 202.65L455.36 220.06L425.2 237.47L395.04 220.06L425.2 202.65Z" fill="#F6F6FB"/>
<path d="M395.04 220.06L425.2 237.47V272.3L395.04 254.88V220.06Z" fill="#CED3F8"/>
<path d="M455.36 220.06L425.2 237.47V272.3L455.36 254.88V220.06Z" fill="#BBC0E6"/>
<path d="M485.51 133L515.67 150.41L485.51 167.83L455.36 150.41L485.51 133Z" fill="#F6F6FB"/>
<path d="M455.36 150.41L485.51 167.83V202.65L455.36 185.24V150.41Z" fill="#CED3F8"/>
<path d="M515.67 150.41L485.51 167.83V202.65L515.67 185.24V150.41Z" fill="#BBC0E6"/>
<path d="M485.51 98.1799L515.67 115.59L485.51 133L455.36 115.59L485.51 98.1799Z" fill="#F6F6FB"/>
<path d="M455.36 115.59L485.51 133V167.83L455.36 150.41V115.59Z" fill="#CED3F8"/>
<path d="M515.67 115.59L485.51 133V167.83L515.67 150.41V115.59Z" fill="#BBC0E6"/>
<path d="M395.04 150.41L425.2 167.83L395.04 185.24L364.88 167.83L395.04 150.41Z" fill="#F6F6FB"/>
<path d="M364.88 167.83L395.04 185.24V220.06L364.88 202.65V167.83Z" fill="#CED3F8"/>
<path d="M425.2 167.83L395.04 185.24V220.06L425.2 202.65V167.83Z" fill="#BBC0E6"/>
<path d="M304.56 167.83L334.72 185.24L304.56 202.65L274.4 185.24L304.56 167.83Z" fill="#F6F6FB"/>
<path d="M274.4 185.24L304.56 202.65V237.47L274.4 220.06V185.24Z" fill="#CED3F8"/>
<path d="M334.72 185.24L304.56 202.65V237.47L334.72 220.06V185.24Z" fill="#BBC0E6"/>
<path d="M334.72 185.24L364.88 202.65L334.72 220.06L304.56 202.65L334.72 185.24Z" fill="#F6F6FB"/>
<path d="M304.56 202.65L334.72 220.06V254.88L304.56 237.47V202.65Z" fill="#CED3F8"/>
<path d="M364.88 202.65L334.72 220.06V254.88L364.88 237.47V202.65Z" fill="#BBC0E6"/>
<path d="M364.88 202.65L395.04 220.06L364.88 237.47L334.72 220.06L364.88 202.65Z" fill="#F6F6FB"/>
<path d="M334.72 220.06L364.88 237.47V272.3L334.72 254.88V220.06Z" fill="#CED3F8"/>
<path d="M395.04 220.06L364.88 237.47V272.3L395.04 254.88V220.06Z" fill="#BBC0E6"/>
<path d="M395.04 220.06L425.2 237.47L395.04 254.88L364.88 237.47L395.04 220.06Z" fill="#F6F6FB"/>
<path d="M364.88 237.47L395.04 254.88V289.71L364.88 272.3V237.47Z" fill="#CED3F8"/>
<path d="M425.2 237.47L395.04 254.88V289.71L425.2 272.3V237.47Z" fill="#BBC0E6"/>
<path d="M455.35 150.41L485.51 167.83L455.36 185.24L425.2 167.83L455.35 150.41Z" fill="#F6F6FB"/>
<path d="M425.2 167.83L455.36 185.24V220.06L425.2 202.65V167.83Z" fill="#CED3F8"/>
<path d="M485.51 167.83L455.36 185.24V220.06L485.51 202.65V167.83Z" fill="#BBC0E6"/>
<path d="M304.56 133L334.72 150.41L304.56 167.83L274.4 150.41L304.56 133Z" fill="#F6F6FB"/>
<path d="M274.4 150.41L304.56 167.83V202.65L274.4 185.24V150.41Z" fill="#CED3F8"/>
<path d="M334.72 150.41L304.56 167.83V202.65L334.72 185.24V150.41Z" fill="#BBC0E6"/>
<path d="M364.88 98.1799L395.04 115.59L364.88 133L334.72 115.59L364.88 98.1799Z" fill="#F6F6FB"/>
<path d="M334.72 115.59L364.88 133V167.83L334.72 150.41V115.59Z" fill="#CED3F8"/>
<path d="M395.04 115.59L364.88 133V167.83L395.04 150.41V115.59Z" fill="#BBC0E6"/>
<path d="M304.56 98.1799L334.72 115.59L304.56 133L274.4 115.59L304.56 98.1799Z" fill="#F6F6FB"/>
<path d="M274.4 115.59L304.56 133V167.83L274.4 150.41V115.59Z" fill="#CED3F8"/>
<path d="M334.72 115.59L304.56 133V167.83L334.72 150.41V115.59Z" fill="#BBC0E6"/>
<path d="M364.88 28.53L395.04 45.94L364.88 63.35L334.72 45.94L364.88 28.53Z" fill="#F6F6FB"/>
<path d="M334.72 45.9399L364.88 63.3499V98.1799L334.72 80.7699V45.9399Z" fill="#CED3F8"/>
<path d="M395.04 45.9399L364.88 63.3499V98.1799L395.04 80.7699V45.9399Z" fill="#BBC0E6"/>
<path d="M334.72 45.9399L364.88 63.3499L334.72 80.7699L304.56 63.3499L334.72 45.9399Z" fill="#F6F6FB"/>
<path d="M304.56 63.3501L334.72 80.7701V115.59L304.56 98.1801V63.3501Z" fill="#CED3F8"/>
<path d="M364.88 63.3501L334.72 80.7701V115.59L364.88 98.1801V63.3501Z" fill="#BBC0E6"/>
<path d="M304.56 63.3501L334.72 80.7701L304.56 98.1801L274.4 80.7701L304.56 63.3501Z" fill="#F6F6FB"/>
<path d="M274.4 80.77L304.56 98.18V133L274.4 115.59V80.77Z" fill="#CED3F8"/>
<path d="M334.72 80.77L304.56 98.18V133L334.72 115.59V80.77Z" fill="#BBC0E6"/>
<path d="M425.2 28.53L455.36 45.94L425.2 63.35L395.04 45.94L425.2 28.53Z" fill="#F6F6FB"/>
<path d="M395.04 45.9399L425.2 63.3499V98.1799L395.04 80.7699V45.9399Z" fill="#CED3F8"/>
<path d="M455.36 45.9399L425.2 63.3499V98.1799L455.36 80.7699V45.9399Z" fill="#BBC0E6"/>
<path d="M395.04 45.9399L425.2 63.3499L395.04 80.7699L364.88 63.3499L395.04 45.9399Z" fill="#F6F6FB"/>
<path d="M364.88 63.3501L395.04 80.7701V115.59L364.88 98.1801V63.3501Z" fill="#CED3F8"/>
<path d="M425.2 63.3501L395.04 80.7701V115.59L425.2 98.1801V63.3501Z" fill="#BBC0E6"/>
<path d="M364.88 63.3501L395.04 80.7701L364.88 98.1801L334.72 80.7701L364.88 63.3501Z" fill="#F6F6FB"/>
<path d="M334.72 80.77L364.88 98.18V133L334.72 115.59V80.77Z" fill="#CED3F8"/>
<path d="M395.04 80.77L364.88 98.18V133L395.04 115.59V80.77Z" fill="#BBC0E6"/>
<path d="M425.2 98.1799L455.36 115.59L425.2 133L395.04 115.59L425.2 98.1799Z" fill="#F6F6FB"/>
<path d="M395.04 115.59L425.2 133V167.83L395.04 150.41V115.59Z" fill="#CED3F8"/>
<path d="M455.36 115.59L425.2 133V167.83L455.36 150.41V115.59Z" fill="#BBC0E6"/>
<path d="M395.04 115.59L425.2 133L395.04 150.41L364.88 133L395.04 115.59Z" fill="#F6F6FB"/>
<path d="M364.88 133L395.04 150.41V185.24L364.88 167.83V133Z" fill="#CED3F8"/>
<path d="M425.2 133L395.04 150.41V185.24L425.2 167.83V133Z" fill="#BBC0E6"/>
<path d="M334.72 150.41L364.88 167.83L334.72 185.24L304.56 167.83L334.72 150.41Z" fill="#F6F6FB"/>
<path d="M304.56 167.83L334.72 185.24V220.06L304.56 202.65V167.83Z" fill="#CED3F8"/>
<path d="M364.88 167.83L334.72 185.24V220.06L364.88 202.65V167.83Z" fill="#BBC0E6"/>
<path d="M455.36 45.9399L485.51 63.3499L455.36 80.7699L425.2 63.3499L455.36 45.9399Z" fill="#F6F6FB"/>
<path d="M425.2 63.3501L455.36 80.7701V115.59L425.2 98.1801V63.3501Z" fill="#CED3F8"/>
<path d="M485.51 63.3501L455.36 80.7701V115.59L485.51 98.1801V63.3501Z" fill="#BBC0E6"/>
<path d="M485.51 63.3501L515.67 80.7701L485.51 98.1801L455.36 80.7701L485.51 63.3501Z" fill="#F6F6FB"/>
<path d="M455.36 80.77L485.51 98.18V133L455.36 115.59V80.77Z" fill="#CED3F8"/>
<path d="M515.67 80.77L485.51 98.18V133L515.67 115.59V80.77Z" fill="#BBC0E6"/>
<path style="mix-blend-mode:multiply" d="M364.88 133H425.2L455.36 115.59L425.2 98.1799L364.88 133Z" fill="url(#paint20_linear_5556_18671)"/>
<path style="mix-blend-mode:multiply" d="M455.36 115.59L425.2 63.3501V98.1801L455.36 115.59Z" fill="url(#paint21_linear_5556_18671)"/>
<path style="mix-blend-mode:multiply" d="M395.04 220.06L364.88 167.83V202.65L395.04 220.06Z" fill="url(#paint22_linear_5556_18671)"/>
<path style="mix-blend-mode:multiply" d="M395.04 185.24L334.72 80.77V150.41L395.04 185.24Z" fill="url(#paint23_linear_5556_18671)"/>
<path style="mix-blend-mode:multiply" d="M485.51 167.83L455.36 115.59V150.41L485.51 167.83Z" fill="url(#paint24_linear_5556_18671)"/>
<path style="mix-blend-mode:multiply" d="M334.72 220.06H395.04L364.88 202.65L334.72 220.06Z" fill="url(#paint25_linear_5556_18671)"/>
<path style="mix-blend-mode:multiply" d="M395.04 220.06H455.36L425.2 202.65L395.04 220.06Z" fill="url(#paint26_linear_5556_18671)"/>
<path style="mix-blend-mode:multiply" d="M304.56 167.83H364.88L334.72 150.41L304.56 167.83Z" fill="url(#paint27_linear_5556_18671)"/>
<g style="mix-blend-mode:multiply">
<path d="M425.2 202.65V167.83L455.36 185.24V220.06L425.2 202.65Z" fill="#EFEFF3"/>
</g>
<path style="mix-blend-mode:multiply" d="M425.2 167.83L455.36 150.41L485.51 167.83L455.36 185.24L425.2 167.83Z" fill="url(#paint28_linear_5556_18671)"/>
<path d="M425.2 89.47L432.74 93.83L425.2 98.18L417.66 93.83L425.2 89.47Z" fill="#807DFB"/>
<path d="M417.66 93.8301L425.2 98.1801V106.89L417.66 102.53V93.8301Z" fill="#5652CC"/>
<path d="M432.74 93.8301L425.2 98.1801V106.89L432.74 102.53V93.8301Z" fill="#423EAF"/>
<path d="M455.36 141.71L462.89 146.06L455.36 150.41L447.81 146.06L455.36 141.71Z" fill="#807DFB"/>
<path d="M447.81 146.06L455.36 150.41V159.12L447.81 154.77V146.06Z" fill="#5652CC"/>
<path d="M462.89 146.06L455.36 150.41V159.12L462.89 154.77V146.06Z" fill="#423EAF"/>
<path d="M402.58 207L410.12 211.35L402.58 215.71L395.04 211.35L402.58 207Z" fill="#807DFB"/>
<path d="M395.04 211.35L402.58 215.71V224.41L395.04 220.06V211.35Z" fill="#5652CC"/>
<path d="M410.12 211.35L402.58 215.71V224.41L410.12 220.06V211.35Z" fill="#423EAF"/>
<path d="M334.72 141.71L342.26 146.06L334.72 150.41L327.18 146.06L334.72 141.71Z" fill="#E56EC9"/>
<path d="M327.18 146.06L334.72 150.41V159.12L327.18 154.77V146.06Z" fill="#FCBA06"/>
<path d="M342.26 146.06L334.72 150.41V159.12L342.26 154.77V146.06Z" fill="#B8429B"/>
<path d="M417.66 119.94L425.2 124.3L417.66 128.65L410.12 124.3L417.66 119.94Z" fill="#E56EC9"/>
<path d="M410.12 124.3L417.66 128.65V137.35L410.12 133V124.3Z" fill="#D453B5"/>
<path d="M425.2 124.3L417.66 128.65V137.35L425.2 133V124.3Z" fill="#B8429B"/>
<path style="mix-blend-mode:multiply" d="M402.58 224.41H422.02V220.06H410.12L402.58 224.41Z" fill="url(#paint29_linear_5556_18671)"/>
<g style="mix-blend-mode:multiply">
<path d="M395.04 211.35H410.12L402.58 207L395.04 211.35Z" fill="#DAE0F5"/>
</g>
<path d="M372.42 119.94L379.96 124.3L372.42 128.65L364.88 124.3L372.42 119.94Z" fill="#F6F6FB"/>
<path d="M364.88 124.3L372.42 128.65V137.35L364.88 133V124.3Z" fill="#CED3F8"/>
<path d="M379.96 124.3L372.42 128.65V137.35L379.96 133V124.3Z" fill="#BBC0E6"/>
<path style="mix-blend-mode:multiply" d="M372.42 137.35H391.86V133H379.96L372.42 137.35Z" fill="url(#paint30_linear_5556_18671)"/>
<path d="M372.42 224.41L379.96 228.77L372.42 233.12L364.88 228.77L372.42 224.41Z" fill="white"/>
<path d="M364.88 228.77L372.42 233.12V241.83L364.88 237.47V228.77Z" fill="#CED3F8"/>
<path d="M379.96 228.77L372.42 233.12V241.83L379.96 237.47V228.77Z" fill="#BBC0E6"/>
<path style="mix-blend-mode:multiply" d="M372.42 241.83H391.86V233.12H379.96V237.47L372.42 241.83Z" fill="url(#paint31_linear_5556_18671)"/>
<path d="M372.42 50.3L379.96 54.6501L372.42 59L364.88 54.6501L372.42 50.3Z" fill="white"/>
<path d="M364.88 54.6499L372.42 58.9999V67.7099L364.88 63.3499V54.6499Z" fill="#CED3F8"/>
<path d="M379.96 54.6499L372.42 58.9999V67.7099L379.96 63.3499V54.6499Z" fill="#BBC0E6"/>
<path style="mix-blend-mode:multiply" d="M372.42 67.71H391.86V59H379.96V63.35L372.42 67.71Z" fill="url(#paint32_linear_5556_18671)"/>
<path style="mix-blend-mode:multiply" d="M417.66 233.12H437.1V224.41H425.2V228.77L417.66 233.12Z" fill="url(#paint33_linear_5556_18671)"/>
<path d="M425.2 220.06L432.74 224.41L425.2 228.77L417.66 224.41L425.2 220.06Z" fill="white"/>
<path d="M417.66 224.41L425.2 228.77V237.47L417.66 233.12V224.41Z" fill="#CED3F8"/>
<path d="M432.74 224.41L425.2 228.77V237.47L432.74 233.12V224.41Z" fill="#BBC0E6"/>
<g style="mix-blend-mode:multiply">
<path d="M440.28 228.77H432.74V233.12L440.28 228.77Z" fill="#E8ECF7"/>
</g>
<g style="mix-blend-mode:multiply">
<path d="M364.88 124.3H379.96L372.42 119.94L364.88 124.3Z" fill="#DAE0F5"/>
</g>
<path style="mix-blend-mode:multiply" d="M425.2 106.89H440.28L432.74 93.8301V102.53L425.2 106.89Z" fill="url(#paint34_linear_5556_18671)"/>
<path style="mix-blend-mode:multiply" d="M455.36 159.12H470.44L462.89 146.06V154.77L455.36 159.12Z" fill="url(#paint35_linear_5556_18671)"/>
<path d="M417.66 224.41L425.2 228.77L417.66 233.12L410.12 228.77L417.66 224.41Z" fill="#E56EC9"/>
<path d="M410.12 228.77L417.66 233.12V241.83L410.12 237.47V228.77Z" fill="#D453B5"/>
<path d="M425.2 228.77L417.66 233.12V241.83L425.2 237.47V228.77Z" fill="#B8429B"/>
<path d="M327.18 146.06L334.72 150.41L327.18 154.77L319.64 150.41L327.18 146.06Z" fill="#807DFB"/>
<path d="M319.64 150.41L327.18 154.77V163.47L319.64 159.12V150.41Z" fill="#5652CC"/>
<path d="M334.72 150.41L327.18 154.77V163.47L334.72 159.12V150.41Z" fill="#423EAF"/>
<path style="mix-blend-mode:multiply" d="M342.26 146.06V154.77L334.72 159.12L327.18 163.47H342.26L349.8 159.12L342.26 146.06Z" fill="url(#paint36_linear_5556_18671)"/>
<path style="mix-blend-mode:multiply" d="M503.57 254.41L501.54 255.59L503.57 256.76H522.85V254.41H503.57Z" fill="url(#paint37_linear_5556_18671)"/>
<path style="mix-blend-mode:multiply" d="M483.21 266.17L481.18 267.34L483.21 268.52H502.49V266.17H483.21Z" fill="url(#paint38_linear_5556_18671)"/>
<path d="M481.18 267.34L483.15 267.99L463.54 176.85L461.58 176.2L481.18 267.34Z" fill="#2E2E8F"/>
<path d="M501.54 255.59L503.5 256.24L483.89 165.1L481.93 164.44L501.54 255.59Z" fill="#2E2E8F"/>
<path d="M481.93 164.44L483.89 165.1L486 163.88L484.04 163.23L481.93 164.44Z" fill="#9999FF"/>
<path d="M465.26 182.34L467.22 182.99L485.48 172.45L483.51 171.8L465.26 182.34Z" fill="#9999FF"/>
<path d="M467.49 192.71L469.45 193.36L487.71 182.83L485.75 182.17L467.49 192.71Z" fill="#9999FF"/>
<path d="M469.73 203.09L471.69 203.74L489.94 193.2L487.98 192.55L469.73 203.09Z" fill="#9999FF"/>
<path d="M471.96 213.46L473.92 214.11L492.17 203.57L490.21 202.92L471.96 213.46Z" fill="#9999FF"/>
<path d="M474.19 223.83L476.15 224.49L494.4 213.95L492.44 213.3L474.19 223.83Z" fill="#9999FF"/>
<path d="M476.42 234.21L478.38 234.86L496.63 224.32L494.67 223.67L476.42 234.21Z" fill="#9999FF"/>
<path d="M478.65 244.58L480.61 245.23L498.87 234.7L496.9 234.04L478.65 244.58Z" fill="#9999FF"/>
<path d="M480.88 254.96L482.85 255.61L501.1 245.07L499.14 244.42L480.88 254.96Z" fill="#9999FF"/>
<path d="M461.58 176.2L463.54 176.85L465.65 175.63L463.69 174.98L461.58 176.2Z" fill="#9999FF"/>
<path d="M501.1 245.07L482.85 255.61L481.19 247.89L499.44 237.35L501.1 245.07ZM498.87 234.7L480.61 245.23L479 237.51L497.21 227L498.87 234.72V234.7ZM496.63 224.32L478.38 234.86L476.72 227.14L495 216.6L496.66 224.32H496.63ZM494.4 214L476.15 224.54L474.49 216.82L492.74 206.29L494.4 214ZM492.17 203.62L473.92 214.16L472.26 206.45L490.51 195.91L492.17 203.62ZM489.94 193.25L471.69 203.79L470 196L488.25 185.46L489.91 193.17L489.94 193.25ZM487.71 182.88L469.46 193.41L467.8 185.7L486.05 175.17L487.71 182.88ZM463.54 176.88L483.15 268L485.25 266.79L483.42 258.27L501.67 247.74L503.5 256.25L505.61 255.03L486 163.88L483.89 165.1L485.48 172.45L467.22 183L465.64 175.65L463.54 176.86V176.88Z" fill="#5E5EDD"/>
<path d="M449.53 43.9999C449.47 44.2799 450.07 46.8599 452.06 46.4699C452.163 46.1211 452.169 45.7509 452.077 45.399C451.985 45.0472 451.799 44.727 451.539 44.473C451.279 44.2189 450.954 44.0407 450.6 43.9573C450.246 43.874 449.876 43.8887 449.53 43.9999Z" fill="#132E54"/>
<path d="M450.19 43.8999C448.56 45.3099 447.88 44.6299 447 45.0699C446.296 45.4498 445.626 45.8916 445 46.3899C444.7 46.6099 445.75 46.5299 446.19 46.3899C445.822 46.6814 445.548 47.075 445.402 47.5214C445.256 47.9678 445.245 48.4472 445.37 48.8999C445.61 49.4599 447.07 49.8999 447.37 49.6199C448.71 48.2199 448.45 47.6999 450.37 47.1299C451.1 46.7154 451.753 46.1774 452.3 45.5399L451.7 44.1199L450.19 43.8999Z" fill="#FCD1A9"/>
<path d="M457.89 16.9301C459.17 16.5801 461.36 17.3201 461.97 21.2801C462.55 25.0101 461.36 32.4301 460.77 34.4901C459.4 39.2801 456.4 41.4901 452.06 46.4901C452.049 45.8261 451.778 45.1928 451.305 44.7269C450.832 44.2611 450.194 44 449.53 44.0001C452.13 40.1001 454.46 36.0001 455.58 34.3301C455.78 32.5501 455.77 24.6601 455.58 22.0701C455.39 19.4801 456 17.4601 457.89 16.9301Z" fill="url(#paint39_linear_5556_18671)"/>
<path style="mix-blend-mode:multiply" d="M172.84 164.95H143.75L161.94 175.78L143.75 186.29H172.84L191.32 175.62L172.84 164.95Z" fill="url(#paint40_linear_5556_18671)"/>
<path style="mix-blend-mode:multiply" d="M232.57 146.75H178.12L203.13 161.64L178.12 176.09H232.57L257.97 161.43L232.57 146.75Z" fill="url(#paint41_linear_5556_18671)"/>
<path d="M178.12 176.09L203.13 161.64V108.93L178.12 123.37V176.09Z" fill="#BBC0E6"/>
<path d="M178.12 176.09L153.1 161.64V108.93L178.12 123.37V176.09Z" fill="#CED3F8"/>
<path d="M178.12 123.37L153.1 108.93L178.12 94.49L203.13 108.93L178.12 123.37Z" fill="#F4F4F9"/>
<path d="M143.75 186.29L161.94 175.78V154.45L143.75 164.95V186.29Z" fill="#B8429B"/>
<path d="M143.75 186.29L125.55 175.78V154.45L143.75 164.95V186.29Z" fill="#D453B5"/>
<path d="M143.75 164.95L125.55 154.45L143.75 143.95L161.94 154.45L143.75 164.95Z" fill="#E56EC9"/>
<path d="M642.02 138.68L652.2 144.56L642.02 150.43L631.85 144.56L642.02 138.68Z" fill="#8585FF"/>
<path d="M631.85 144.56L642.02 150.43V162.18L631.85 156.31V144.56Z" fill="#5E5EDD"/>
<path d="M652.2 144.56L642.02 150.43V162.18L652.2 156.31V144.56Z" fill="#4949B8"/>
<path style="mix-blend-mode:multiply" d="M642.02 162.18H683.05V150.43H652.2V156.31L642.02 162.18Z" fill="url(#paint42_linear_5556_18671)"/>
<path d="M642.02 124.14L652.2 130.01L642.02 135.89L631.85 130.01L642.02 124.14Z" fill="#E56EC9"/>
<path d="M631.85 130.01L642.02 135.89V147.63L631.85 141.76V130.01Z" fill="#D453B5"/>
<path d="M652.2 130.01L642.02 135.89V147.63L652.2 141.76V130.01Z" fill="#B8429B"/>
<path d="M642.02 109.63L652.2 115.5L642.02 121.38L631.85 115.5L642.02 109.63Z" fill="#8585FF"/>
<path d="M631.85 115.5L642.02 121.38V133.12L631.85 127.25V115.5Z" fill="#5E5EDD"/>
<path d="M652.2 115.5L642.02 121.38V133.12L652.2 127.25V115.5Z" fill="#4949B8"/>
<path d="M145.78 312.8L155.95 318.67L145.78 324.55L135.6 318.67L145.78 312.8Z" fill="#807DFB"/>
<path d="M135.6 318.67L145.78 324.55V336.29L135.6 330.42V318.67Z" fill="#5652CC"/>
<path d="M155.95 318.67L145.78 324.55V336.29L155.95 330.42V318.67Z" fill="#423EAF"/>
<path style="mix-blend-mode:multiply" d="M145.78 336.29H172.01V324.55H155.95V330.42L145.78 336.29Z" fill="url(#paint43_linear_5556_18671)"/>
<path style="mix-blend-mode:multiply" d="M300.63 285.02L303.88 289.86H292.53L295.78 295.14H317.95V289.86V285.02H300.63Z" fill="url(#paint44_linear_5556_18671)"/>
<path d="M297.25 284C296.8 284.2 296.16 285.81 296.25 286.94C296.841 287.397 297.478 287.793 298.15 288.12C299.599 288.747 301.081 289.295 302.59 289.76C304.39 290.09 306.11 289.76 306.21 288.63C306.21 288.18 305.03 287.06 303.99 286.52C302.702 285.858 301.516 285.012 300.47 284.01C299.76 283.3 297.25 284 297.25 284Z" fill="url(#paint45_linear_5556_18671)"/>
<path d="M300.93 247C301 253 301.11 262.21 301.17 267.46C301.23 273.46 300.72 279 300.71 284.04C299.76 285.24 297.3 284.97 296.77 284.04C295.993 279.218 295.715 274.329 295.94 269.45C294.35 262.89 292.38 252.64 292.94 247.45C294.4 248 299.47 246.59 300.93 247Z" fill="url(#paint46_linear_5556_18671)"/>
<path d="M289.18 288.87C288.72 289.05 287.99 290.62 288 291.75C288.567 292.239 289.179 292.671 289.83 293.04C291.243 293.745 292.691 294.376 294.17 294.93C295.95 295.36 297.68 295.17 297.85 294.01C297.91 293.56 296.76 292.38 295.75 291.78C294.504 291.041 293.369 290.128 292.38 289.07C291.73 288.35 289.18 288.87 289.18 288.87Z" fill="url(#paint47_linear_5556_18671)"/>
<path d="M296.48 252.44C296.2 258.44 294.96 266.8 294.48 272.22C293.92 278.37 293.56 284.05 292.65 289.08C291.65 290.23 289.19 289.81 288.71 288.86C288.29 284.27 287.71 278.62 288.26 273.66C288.26 267.01 286.26 257.59 287.14 252.46C288.56 253 295 251.91 296.48 252.44Z" fill="url(#paint48_linear_5556_18671)"/>
<path d="M297.85 227.22C299.85 227.6 302.18 229.28 302.43 234.15C302.675 236.776 302.15 239.417 300.92 241.75L297.85 227.22Z" fill="url(#paint49_linear_5556_18671)"/>
<path d="M306.79 238.33C307.07 238.27 307.64 238.48 307.69 238.91C307.79 239.91 307.03 242.28 301.15 245.31C299.58 242.65 303.78 238.89 306.79 238.33Z" fill="url(#paint50_linear_5556_18671)"/>
<path d="M287.67 230.88C289.382 228.944 291.625 227.553 294.12 226.88C299.12 226.11 300.72 229.43 301.12 231.88C301.79 236.55 301.12 269.82 301.91 272.88C301.54 274.5 298.56 275.38 297.42 275.63C292.51 276.71 286.9 276.52 286.51 273.4C285.75 267.65 285.83 232.72 287.67 230.88Z" fill="url(#paint51_linear_5556_18671)"/>
<path d="M294 222.47C293.94 221.34 298.19 223.86 298 225.34C297.81 226.55 296.92 227.57 298.1 228.34C298.51 228.7 298.91 231.05 297.6 231.04C294.42 231.04 293.6 230.04 291.43 227.91C292.67 227.26 294.23 226.15 294 222.47Z" fill="#FACFA7"/>
<path d="M297.48 227.52C297.42 228.02 296.28 228.46 293.41 226.08C292.906 226.86 292.219 227.505 291.41 227.96C293.6 230.05 296.49 233.22 298.25 233.22C299.57 233.22 298.49 228.75 298.08 228.39C297.921 228.299 297.785 228.174 297.681 228.023C297.577 227.873 297.508 227.701 297.48 227.52Z" fill="url(#paint52_linear_5556_18671)"/>
<path d="M292.69 222L293.94 219.57L300.77 218.57L300.92 223.11C300.69 226.26 299.83 227.2 298.53 227.28C297.567 227.358 296.61 227.076 295.843 226.488C295.077 225.901 294.555 225.05 294.38 224.1L293.51 223.93L292.69 222Z" fill="#FACFA7"/>
<path style="mix-blend-mode:multiply" d="M297.25 228.45C295.44 228.1 294.41 226.36 294.38 224.09C294.508 224.87 294.874 225.592 295.426 226.158C295.979 226.723 296.693 227.104 297.47 227.25C297.44 227.67 297.56 228.51 297.25 228.45Z" fill="url(#paint53_linear_5556_18671)"/>
<path d="M300.11 216.76C300.72 216.56 300.7 216.03 298.04 215.52C297.231 215.227 296.364 215.128 295.51 215.231C294.656 215.333 293.837 215.634 293.12 216.11C292.363 216.71 291.821 217.539 291.576 218.473C291.331 219.407 291.395 220.396 291.76 221.29C292.231 222.687 292.905 224.008 293.76 225.21C294 225.39 294.29 224.14 293.84 223.64C293.684 223.48 293.571 223.284 293.51 223.07C292.73 221.01 294.07 221.14 294.27 221.3C294.7 221.41 294.17 223.3 295.32 222.93C295.88 222.77 295.57 221.19 295.49 220.63H295.76C296.76 221.03 300.15 220.95 298.16 220.06C299.44 219.88 301.26 220.22 301.73 219.33C302.32 218.31 301.05 217.42 300.11 216.76Z" fill="#20196F"/>
<path d="M290.4 252.77C291.139 253.277 291.811 253.875 292.4 254.55C291.5 254.86 289.84 255.64 289.84 255.64C289.567 255.29 289.316 254.922 289.09 254.54L290.4 252.77Z" fill="#FACFA7"/>
<path d="M287.08 231.39C288.42 229.01 293.38 229.84 291.85 234.83C290.32 239.82 286.56 244.2 286.57 244.72C286.58 245.24 291.21 252.91 291.21 252.91C291.07 253.414 290.791 253.868 290.406 254.221C290.02 254.575 289.544 254.813 289.03 254.91C287.03 253.75 282.26 247.72 282.46 244.42C282.66 241.12 285.13 234.85 287.08 231.39Z" fill="url(#paint54_linear_5556_18671)"/>
<path d="M295.68 222C295.68 222.85 296.27 225 297.47 225C298.14 225 298.12 224.58 298.57 224.13C298.889 223.851 299.26 223.639 299.662 223.505C300.063 223.371 300.488 223.318 300.91 223.35C301.21 223.76 301.5 226.16 299.91 227.12C298.32 228.08 296.26 227.12 295.62 226.55C294.83 225.82 294.51 222.25 294.51 222.25L295.68 222Z" fill="#20196F"/>
<path d="M305.34 241.31L297.62 245.77L303.62 236.34L311.34 231.88L305.34 241.31Z" fill="#423EAF"/>
<path d="M297.62 245.77L297.34 245.56L303.34 236.13L303.62 236.34L297.62 245.77Z" fill="#6B67E9"/>
<path d="M303.62 236.34L303.34 236.13L311.06 231.67L311.34 231.88L303.62 236.34Z" fill="#807DFB"/>
<path d="M305.06 241.76C303.72 241.94 303.69 241.2 303.69 240.43C303.69 239.66 304.35 239.02 305.84 239.16C306.67 239.24 306.84 238.97 306.84 238.97L307.13 238.52C307.5 238.74 307.53 238.82 307.55 239.06C307.493 239.722 307.217 240.347 306.766 240.836C306.316 241.324 305.716 241.649 305.06 241.76Z" fill="#FACFA7"/>
<path style="mix-blend-mode:multiply" d="M684.82 190.65L670.95 182.65C669.227 181.782 667.324 181.33 665.395 181.33C663.466 181.33 661.563 181.782 659.84 182.65L647.24 189.93C644.24 191.69 644.24 194.58 647.24 196.34L659.64 203.5V205.67H667C668.828 205.664 670.627 205.211 672.24 204.35L684.84 197.08C687.88 195.3 687.88 192.42 684.82 190.65Z" fill="url(#paint55_linear_5556_18671)"/>
<path d="M652.85 178.58C654.572 177.708 656.475 177.253 658.405 177.253C660.335 177.253 662.238 177.708 663.96 178.58L677.84 186.58C680.84 188.35 680.84 191.24 677.84 193L665.24 200.28C663.517 201.148 661.614 201.6 659.685 201.6C657.756 201.6 655.853 201.148 654.13 200.28L640.25 192.28C637.25 190.51 637.25 187.63 640.25 185.86L652.85 178.58Z" fill="#F6F6FB"/>
<path d="M657.72 187.1C658.089 186.913 658.496 186.815 658.91 186.815C659.323 186.815 659.731 186.913 660.1 187.1L663.1 188.82C663.24 188.872 663.361 188.965 663.446 189.087C663.532 189.21 663.578 189.356 663.578 189.505C663.578 189.654 663.532 189.8 663.446 189.923C663.361 190.045 663.24 190.138 663.1 190.19L660.4 191.75C660.031 191.937 659.624 192.035 659.21 192.035C658.796 192.035 658.389 191.937 658.02 191.75L655 190C654.86 189.948 654.739 189.855 654.654 189.733C654.568 189.61 654.522 189.464 654.522 189.315C654.522 189.166 654.568 189.02 654.654 188.897C654.739 188.775 654.86 188.682 655 188.63L657.72 187.1Z" fill="#807DFB"/>
<path d="M677.84 193L665.24 200.28C663.517 201.148 661.614 201.6 659.685 201.6C657.756 201.6 655.853 201.148 654.13 200.28L640.25 192.28C639.658 192.002 639.144 191.583 638.752 191.06C638.359 190.537 638.101 189.926 638 189.28V192.92C637.91 194.15 638.64 195.4 640.27 196.34L654.15 204.34C655.872 205.212 657.775 205.667 659.705 205.667C661.635 205.667 663.538 205.212 665.26 204.34L677.86 197.07C679.48 196.13 680.22 194.87 680.11 193.63V190C680.003 190.646 679.74 191.257 679.344 191.78C678.949 192.302 678.433 192.721 677.84 193Z" fill="url(#paint56_linear_5556_18671)"/>
<g style="mix-blend-mode:multiply">
<path d="M339.27 303.92C332.59 300.07 321.77 300.07 315.1 303.92C308.43 307.77 308.42 314.02 315.1 317.92C321.78 321.82 332.59 321.77 339.27 317.92C345.95 314.07 345.94 307.78 339.27 303.92ZM318.86 315.7C314.26 313.05 314.26 308.75 318.86 306.09C323.46 303.43 330.91 303.44 335.5 306.09C340.09 308.74 340.1 313.09 335.5 315.7C330.9 318.31 323.46 318.36 318.86 315.7Z" fill="#F1F1F6"/>
</g>
<g style="mix-blend-mode:multiply">
<path d="M623.4 261.54C616.72 257.69 605.9 257.69 599.23 261.54C592.56 265.39 592.56 271.64 599.23 275.54C605.9 279.44 616.72 279.39 623.4 275.54C630.08 271.69 630.07 265.4 623.4 261.54ZM603 273.32C598.41 270.67 598.41 266.37 603 263.71C607.59 261.05 615 261.06 619.65 263.71C624.3 266.36 624.24 270.71 619.65 273.32C615.06 275.93 607.59 276 603 273.32Z" fill="#F1F1F6"/>
</g>
<g style="mix-blend-mode:multiply">
<path d="M562.45 186.3L573.74 192.81C575.46 193.81 575.25 195.54 573.26 196.69L562.93 202.69C561.911 203.258 560.774 203.579 559.608 203.628C558.443 203.676 557.282 203.451 556.22 202.97L544.93 196.45C543.21 195.45 543.43 193.72 545.41 192.58L555.74 186.58C556.758 186.011 557.896 185.69 559.062 185.641C560.227 185.592 561.388 185.818 562.45 186.3Z" fill="#F1F1F6"/>
</g>
<g style="mix-blend-mode:multiply">
<path d="M177.46 275.62L185.07 280.02C186.24 280.69 186.07 281.86 184.75 282.63L177.75 286.63C177.063 287.016 176.295 287.235 175.508 287.268C174.721 287.301 173.937 287.148 173.22 286.82L165.61 282.42C164.44 281.75 164.61 280.58 165.93 279.81L172.93 275.81C173.617 275.424 174.385 275.205 175.172 275.172C175.959 275.139 176.743 275.293 177.46 275.62Z" fill="#F1F1F6"/>
</g>
<path d="M163.98 195.55L174.15 201.43L163.98 207.3L153.8 201.43L163.98 195.55Z" fill="#807DFB"/>
<path d="M153.8 201.43L163.98 207.3V219.05L153.8 213.17V201.43Z" fill="#5652CC"/>
<path d="M174.15 201.43L163.98 207.3V219.05L174.15 213.17V201.43Z" fill="#423EAF"/>
<path style="mix-blend-mode:multiply" d="M163.98 219.05H190.21V207.3H174.15V213.17L163.98 219.05Z" fill="url(#paint57_linear_5556_18671)"/>
<path d="M180.37 205.01L190.54 210.89L180.37 216.76L170.19 210.89L180.37 205.01Z" fill="#807DFB"/>
<path d="M170.19 210.89L180.37 216.76V228.51L170.19 222.64V210.89Z" fill="#5652CC"/>
<path d="M190.54 210.89L180.37 216.76V228.51L190.54 222.64V210.89Z" fill="#423EAF"/>
<path style="mix-blend-mode:multiply" d="M180.37 228.51H206.6V216.76H190.54V222.64L180.37 228.51Z" fill="url(#paint58_linear_5556_18671)"/>
<path style="mix-blend-mode:multiply" d="M259.41 315.75H236.85L251.17 324.02L236.85 332.29H259.41L273.72 324.02L259.41 315.75Z" fill="url(#paint59_linear_5556_18671)"/>
<path style="mix-blend-mode:multiply" d="M265.23 287.78H228.68L251.88 301.17L228.68 314.57H265.23L288.43 301.17L265.23 287.78Z" fill="url(#paint60_linear_5556_18671)"/>
<path d="M228.68 314.57L251.88 301.17V274.39L228.68 287.78V314.57Z" fill="#BBC0E6"/>
<path d="M228.68 314.57L205.48 301.17V274.39L228.68 287.78V314.57Z" fill="#CED3F8"/>
<path d="M228.68 287.78L205.48 274.39L228.68 261L251.88 274.39L228.68 287.78Z" fill="#F6F6FB"/>
<path d="M236.85 332.29L251.17 324.02V307.49L236.85 315.75V332.29Z" fill="#4949B8"/>
<path d="M236.85 332.29L222.54 324.02V307.49L236.85 315.75V332.29Z" fill="#5E5EDD"/>
<path d="M236.85 315.75L222.54 307.49L236.85 299.23L251.17 307.49L236.85 315.75Z" fill="#F6F6FB"/>
<path d="M219.19 160C219.255 158.827 219.595 157.685 220.182 156.667C220.769 155.649 221.587 154.784 222.57 154.14L245.11 141.14C246.97 140.07 248.49 140.95 248.49 143.14V168.75C248.424 169.923 248.084 171.064 247.497 172.082C246.91 173.1 246.093 173.966 245.11 174.61L222.57 187.61C220.71 188.69 219.19 187.81 219.19 185.61V160Z" fill="#F1F1F6"/>
<path d="M246 140C245.615 139.798 245.181 139.709 244.748 139.742C244.314 139.776 243.899 139.931 243.55 140.19L221.01 153.19C220.027 153.834 219.209 154.699 218.622 155.717C218.035 156.735 217.695 157.877 217.63 159.05V184.66C217.578 185.096 217.653 185.538 217.844 185.933C218.035 186.328 218.336 186.66 218.71 186.89L220.11 187.7C219.794 187.448 219.546 187.121 219.387 186.749C219.229 186.378 219.164 185.973 219.2 185.57V160C219.265 158.827 219.605 157.685 220.192 156.667C220.779 155.649 221.597 154.784 222.58 154.14L245.12 141.14C245.46 140.896 245.857 140.746 246.273 140.704C246.689 140.662 247.108 140.729 247.49 140.9L246 140Z" fill="url(#paint61_linear_5556_18671)"/>
<path d="M240.91 151.86C240.848 151.875 240.79 151.903 240.74 151.943C240.69 151.983 240.649 152.033 240.62 152.09C239.906 153.615 238.81 154.931 237.44 155.91C236.96 156.204 236.402 156.346 235.84 156.318C235.278 156.289 234.738 156.091 234.29 155.75C234.264 155.74 234.236 155.74 234.21 155.75C234.177 155.742 234.143 155.742 234.11 155.75L234 155.83C233.968 155.862 233.941 155.899 233.92 155.94C233.208 157.453 232.125 158.76 230.77 159.74C230.285 160.033 229.725 160.176 229.159 160.151C228.593 160.126 228.047 159.935 227.59 159.6C227.51 159.6 227.4 159.6 227.3 159.7C227.201 159.802 227.144 159.938 227.14 160.08V168.63C227.084 169.532 227.227 170.435 227.558 171.275C227.889 172.116 228.401 172.873 229.057 173.494C229.714 174.115 230.498 174.584 231.356 174.869C232.213 175.153 233.123 175.246 234.02 175.14H234.11L234.19 175.08C236.66 172.67 241.08 165.79 241.08 160.63V152.07C241.08 151.92 241 151.85 240.91 151.86ZM240.55 160.86C240.55 165.43 236.71 171.66 234.37 174.17V167.28C234.37 167.11 234.25 167.04 234.11 167.13C234.031 167.179 233.965 167.246 233.918 167.327C233.871 167.407 233.844 167.497 233.84 167.59V174.47C233.02 174.505 232.201 174.37 231.436 174.073C230.671 173.775 229.976 173.322 229.395 172.742C228.814 172.162 228.36 171.468 228.061 170.703C227.763 169.939 227.626 169.12 227.66 168.3V160.46C228.144 160.717 228.687 160.84 229.234 160.815C229.781 160.79 230.312 160.62 230.77 160.32C232.064 159.451 233.12 158.272 233.84 156.89V159.03C233.84 159.2 233.96 159.26 234.11 159.18C234.186 159.129 234.249 159.061 234.294 158.981C234.34 158.901 234.365 158.812 234.37 158.72V156.58C234.843 156.842 235.378 156.97 235.919 156.953C236.459 156.935 236.985 156.772 237.44 156.48C238.743 155.598 239.811 154.41 240.55 153.02V160.86ZM234.11 164.27C234.032 164.32 233.967 164.388 233.92 164.468C233.873 164.548 233.846 164.638 233.84 164.73V166C233.84 166.16 233.96 166.23 234.11 166.15C234.185 166.098 234.247 166.029 234.292 165.95C234.337 165.87 234.364 165.781 234.37 165.69V164.47C234.37 164.31 234.25 164.24 234.11 164.32V164.27Z" fill="#C4CAE9"/>
<path d="M594.89 139.74C594.799 138.124 594.33 136.552 593.521 135.15C592.711 133.749 591.584 132.557 590.23 131.67L559.18 113.74C556.61 112.26 554.52 113.47 554.52 116.43V146.06C554.609 147.676 555.078 149.249 555.887 150.651C556.697 152.053 557.825 153.245 559.18 154.13L590.23 172.05C592.79 173.54 594.89 172.33 594.89 169.37V139.74Z" fill="#F6F6FB"/>
<path d="M594.89 169.37V139.74C594.799 138.124 594.33 136.552 593.521 135.15C592.711 133.749 591.584 132.557 590.23 131.67L559.18 113.74C558.713 113.405 558.167 113.198 557.595 113.138C557.023 113.079 556.446 113.169 555.92 113.4L557.14 112.69C557.671 112.411 558.27 112.288 558.867 112.334C559.465 112.38 560.038 112.593 560.52 112.95L591.57 130.88C592.924 131.767 594.051 132.959 594.861 134.36C595.67 135.762 596.139 137.334 596.23 138.95V168.57C596.298 169.17 596.194 169.778 595.93 170.321C595.666 170.864 595.254 171.322 594.74 171.64L593.63 172.29C594.067 171.947 594.411 171.5 594.631 170.99C594.851 170.48 594.94 169.923 594.89 169.37Z" fill="url(#paint62_linear_5556_18671)"/>
<path d="M563.91 138.12V135.68C564.218 135.858 564.558 135.973 564.91 136.02C565.021 136.018 565.13 135.991 565.228 135.941C565.327 135.891 565.413 135.819 565.48 135.73C565.658 135.46 565.768 135.152 565.8 134.83C565.861 134.282 565.885 133.731 565.87 133.18C565.838 132.29 565.891 131.4 566.03 130.52C566.058 130.336 566.122 130.16 566.22 130.001C566.318 129.843 566.447 129.707 566.6 129.6C566.99 129.453 567.42 129.453 567.81 129.6C568.405 129.79 568.973 130.056 569.5 130.39L569.96 130.66V133C569.572 132.745 569.152 132.543 568.71 132.4C568.634 132.385 568.556 132.391 568.484 132.418C568.412 132.444 568.348 132.49 568.3 132.55C568.186 132.807 568.141 133.09 568.17 133.37C568.17 133.79 568.17 134.59 568.09 135.75C568.082 136.258 568.004 136.763 567.86 137.25C567.772 137.54 567.61 137.802 567.39 138.01C567.131 138.197 566.828 138.314 566.51 138.35C566.838 138.749 567.123 139.181 567.36 139.64C567.585 140.092 567.756 140.568 567.87 141.06C568.001 141.686 568.078 142.321 568.1 142.96C568.14 144.113 568.16 144.843 568.16 145.15C568.148 145.489 568.196 145.827 568.3 146.15C568.4 146.389 568.546 146.607 568.73 146.79C569.102 147.128 569.515 147.417 569.96 147.65V150.08L569.5 149.82C568.85 149.459 568.24 149.03 567.68 148.54C567.254 148.154 566.892 147.701 566.61 147.2C566.324 146.708 566.125 146.17 566.02 145.61C565.903 144.802 565.853 143.986 565.87 143.17C565.895 142.331 565.848 141.491 565.73 140.66C565.636 140.127 565.439 139.618 565.15 139.16C564.807 138.737 564.386 138.384 563.91 138.12Z" fill="#CED3F8"/>
<path d="M584.21 149.84C583.903 149.661 583.563 149.545 583.21 149.5C583.1 149.503 582.992 149.532 582.895 149.584C582.797 149.636 582.714 149.71 582.65 149.8C582.473 150.067 582.36 150.372 582.32 150.69C582.265 151.235 582.241 151.783 582.25 152.33C582.278 153.223 582.228 154.116 582.1 155C582.077 155.187 582.014 155.366 581.916 155.527C581.817 155.687 581.686 155.825 581.53 155.93C581.14 156.078 580.71 156.078 580.32 155.93C579.725 155.74 579.157 155.475 578.63 155.14L578.16 154.87V152.43C578.54 152.682 578.954 152.877 579.39 153.01C579.469 153.027 579.55 153.022 579.626 152.995C579.702 152.969 579.769 152.922 579.82 152.86C579.938 152.611 579.987 152.335 579.96 152.06C579.96 151.65 579.96 150.87 580.04 149.73C580.037 149.205 580.114 148.682 580.27 148.18C580.367 147.877 580.547 147.606 580.79 147.4C581.028 147.221 581.313 147.117 581.61 147.1C581.245 146.629 580.927 146.123 580.66 145.59C580.375 144.955 580.186 144.281 580.1 143.59C580.03 143.08 579.99 142.01 579.96 140.38C579.968 140.013 579.928 139.647 579.84 139.29C579.749 139.059 579.613 138.848 579.44 138.67C579.049 138.331 578.619 138.039 578.16 137.8V135.37L578.63 135.64C579.279 135.995 579.889 136.418 580.45 136.9C580.871 137.289 581.229 137.741 581.51 138.24C581.797 138.736 581.996 139.277 582.1 139.84C582.217 140.648 582.267 141.464 582.25 142.28C582.225 143.119 582.272 143.959 582.39 144.79C582.48 145.324 582.677 145.835 582.97 146.29C583.295 146.734 583.707 147.108 584.18 147.39L584.21 149.84Z" fill="#CED3F8"/>
<path d="M570.2 140.3C570.2 139.66 570.65 139.4 571.2 139.72C571.493 139.91 571.736 140.167 571.91 140.469C572.084 140.772 572.183 141.111 572.2 141.46C572.2 142.09 571.76 142.35 571.2 142.03C570.909 141.84 570.667 141.585 570.493 141.284C570.32 140.984 570.219 140.647 570.2 140.3Z" fill="#CED3F8"/>
<path d="M573.7 142.32C573.7 141.68 574.15 141.42 574.7 141.74C574.992 141.931 575.235 142.187 575.409 142.49C575.583 142.792 575.682 143.132 575.7 143.48C575.7 144.12 575.25 144.38 574.7 144.06C574.409 143.868 574.167 143.611 573.993 143.309C573.82 143.007 573.719 142.668 573.7 142.32Z" fill="#CED3F8"/>
<path d="M577.2 144.34C577.2 143.7 577.65 143.44 578.2 143.76C578.492 143.951 578.735 144.208 578.909 144.51C579.083 144.812 579.182 145.152 579.2 145.5C579.2 146.14 578.75 146.4 578.2 146.08C577.909 145.888 577.667 145.631 577.493 145.329C577.32 145.027 577.219 144.688 577.2 144.34Z" fill="#CED3F8"/>
<path d="M654.18 313.09L664.36 318.96L654.18 324.83L644.01 318.96L654.18 313.09Z" fill="#E56EC9"/>
<path d="M644.01 318.96L654.18 324.83V336.58L644.01 330.71V318.96Z" fill="#D453B5"/>
<path d="M664.36 318.96L654.18 324.83V336.58L664.36 330.71V318.96Z" fill="#B8429B"/>
<path style="mix-blend-mode:multiply" d="M654.18 336.58H680.41V324.83H664.36V330.71L654.18 336.58Z" fill="url(#paint63_linear_5556_18671)"/>
<g style="mix-blend-mode:multiply">
<path d="M92.75 360H145.23V235.68L92.75 265.98V360Z" fill="url(#paint64_linear_5556_18671)"/>
<path d="M92.75 360H40.27V235.68L92.75 265.98V360Z" fill="url(#paint65_linear_5556_18671)"/>
<path d="M92.75 265.98L40.27 235.68L92.75 205.38L145.23 235.68L92.75 265.98Z" fill="#F1F3F9"/>
</g>
<g style="mix-blend-mode:multiply">
<path d="M707.48 360H759.96V235.68L707.48 265.98V360Z" fill="url(#paint66_linear_5556_18671)"/>
<path d="M707.48 360H655V235.68L707.48 265.98V360Z" fill="url(#paint67_linear_5556_18671)"/>
<path d="M707.48 265.98L655 235.68L707.48 205.38L759.96 235.68L707.48 265.98Z" fill="#F1F3F9"/>
</g>
</g>
<defs>
<linearGradient id="paint0_linear_5556_18671" x1="507.82" y1="305.23" x2="601.55" y2="305.23" gradientUnits="userSpaceOnUse">
<stop stop-color="#DAE0F5"/>
<stop offset="0.14" stop-color="#E1E6F7"/>
<stop offset="0.66" stop-color="#F7F8FD"/>
<stop offset="1" stop-color="white"/>
</linearGradient>
<linearGradient id="paint1_linear_5556_18671" x1="575.37" y1="318.89" x2="553.86" y2="318.89" gradientUnits="userSpaceOnUse">
<stop offset="0.01" stop-color="white"/>
<stop offset="0.25" stop-color="#FAFBFD"/>
<stop offset="0.53" stop-color="#ECEEF8"/>
<stop offset="0.83" stop-color="#D4D8EF"/>
<stop offset="1" stop-color="#C4CAE9"/>
</linearGradient>
<linearGradient id="paint2_linear_5556_18671" x1="565.71" y1="325.39" x2="542.59" y2="325.39" gradientUnits="userSpaceOnUse">
<stop offset="0.01" stop-color="white"/>
<stop offset="0.25" stop-color="#FAFBFD"/>
<stop offset="0.53" stop-color="#ECEEF8"/>
<stop offset="0.83" stop-color="#D4D8EF"/>
<stop offset="1" stop-color="#C4CAE9"/>
</linearGradient>
<linearGradient id="paint3_linear_5556_18671" x1="530.29" y1="269.96" x2="543.24" y2="269.96" gradientUnits="userSpaceOnUse">
<stop stop-color="#D453B5"/>
<stop offset="0.27" stop-color="#D759B8"/>
<stop offset="0.62" stop-color="#DF69C2"/>
<stop offset="1" stop-color="#EB83D2"/>
</linearGradient>
<linearGradient id="paint4_linear_5556_18671" x1="547.35" y1="318.07" x2="556.46" y2="318.07" gradientUnits="userSpaceOnUse">
<stop stop-color="#20196F"/>
<stop offset="0.11" stop-color="#241E77"/>
<stop offset="0.7" stop-color="#3A35A0"/>
<stop offset="1" stop-color="#423EAF"/>
</linearGradient>
<linearGradient id="paint5_linear_5556_18671" x1="536.17" y1="324.54" x2="545.29" y2="324.54" gradientUnits="userSpaceOnUse">
<stop stop-color="#20196F"/>
<stop offset="0.11" stop-color="#241E77"/>
<stop offset="0.7" stop-color="#3A35A0"/>
<stop offset="1" stop-color="#423EAF"/>
</linearGradient>
<linearGradient id="paint6_linear_5556_18671" x1="540.99" y1="302.85" x2="555.7" y2="302.85" gradientUnits="userSpaceOnUse">
<stop stop-color="#5E5EDD"/>
<stop offset="0.26" stop-color="#5252C8"/>
<stop offset="0.51" stop-color="#4949B8"/>
</linearGradient>
<linearGradient id="paint7_linear_5556_18671" x1="536.133" y1="281.462" x2="554.294" y2="276.265" gradientUnits="userSpaceOnUse">
<stop stop-color="#D453B5"/>
<stop offset="0.27" stop-color="#D759B8"/>
<stop offset="0.62" stop-color="#DF69C2"/>
<stop offset="1" stop-color="#EB83D2"/>
</linearGradient>
<linearGradient id="paint8_linear_5556_18671" x1="536.803" y1="273.68" x2="526.306" y2="292.925" gradientUnits="userSpaceOnUse">
<stop stop-color="#E56EC9"/>
<stop offset="0.35" stop-color="#E671CA"/>
<stop offset="0.62" stop-color="#E87BCE"/>
<stop offset="0.85" stop-color="#EC8BD5"/>
<stop offset="1" stop-color="#F099DB"/>
</linearGradient>
<linearGradient id="paint9_linear_5556_18671" x1="259.2" y1="225.68" x2="550.73" y2="225.68" gradientUnits="userSpaceOnUse">
<stop offset="0.46" stop-color="#DAE0F5"/>
<stop offset="0.64" stop-color="#E1E6F7"/>
<stop offset="0.88" stop-color="#F4F6FC"/>
<stop offset="1" stop-color="white"/>
</linearGradient>
<linearGradient id="paint10_linear_5556_18671" x1="249.27" y1="264.96" x2="540.8" y2="264.96" gradientUnits="userSpaceOnUse">
<stop offset="0.46" stop-color="#CED3F8"/>
<stop offset="0.49" stop-color="#C7CCF2"/>
<stop offset="0.52" stop-color="#BBC0E6"/>
</linearGradient>
<linearGradient id="paint11_linear_5556_18671" x1="395.04" y1="226.59" x2="540.8" y2="226.59" gradientUnits="userSpaceOnUse">
<stop stop-color="#DAE0F5"/>
<stop offset="0.47" stop-color="#E1E5F4"/>
<stop offset="1" stop-color="#EFEFF3"/>
</linearGradient>
<linearGradient id="paint12_linear_5556_18671" x1="449.66" y1="82.1801" x2="446.16" y2="78.0301" gradientUnits="userSpaceOnUse">
<stop stop-color="#423EAF"/>
<stop offset="0.49" stop-color="#302B8E"/>
<stop offset="1" stop-color="#1F196F"/>
</linearGradient>
<linearGradient id="paint13_linear_5556_18671" x1="451.02" y1="80.9799" x2="447.27" y2="77.1999" gradientUnits="userSpaceOnUse">
<stop stop-color="#423EAF"/>
<stop offset="0.49" stop-color="#302B8E"/>
<stop offset="1" stop-color="#1F196F"/>
</linearGradient>
<linearGradient id="paint14_linear_5556_18671" x1="444.57" y1="55.0001" x2="456.33" y2="57.7701" gradientUnits="userSpaceOnUse">
<stop stop-color="#5652CC"/>
<stop offset="0.18" stop-color="#524EC6"/>
<stop offset="0.42" stop-color="#4843B4"/>
<stop offset="0.69" stop-color="#373297"/>
<stop offset="1" stop-color="#1F196F"/>
</linearGradient>
<linearGradient id="paint15_linear_5556_18671" x1="460.87" y1="88.6599" x2="457.38" y2="84.4999" gradientUnits="userSpaceOnUse">
<stop stop-color="#423EAF"/>
<stop offset="0.49" stop-color="#302B8E"/>
<stop offset="1" stop-color="#1F196F"/>
</linearGradient>
<linearGradient id="paint16_linear_5556_18671" x1="462.24" y1="87.4601" x2="458.49" y2="83.6801" gradientUnits="userSpaceOnUse">
<stop stop-color="#423EAF"/>
<stop offset="0.49" stop-color="#302B8E"/>
<stop offset="1" stop-color="#1F196F"/>
</linearGradient>
<linearGradient id="paint17_linear_5556_18671" x1="450.45" y1="60.15" x2="467.46" y2="64.15" gradientUnits="userSpaceOnUse">
<stop stop-color="#6B67E9"/>
<stop offset="0.26" stop-color="#5B56CF"/>
<stop offset="0.75" stop-color="#4039A5"/>
<stop offset="1" stop-color="#362E94"/>
</linearGradient>
<linearGradient id="paint18_linear_5556_18671" x1="444.25" y1="21.9701" x2="410.83" y2="7.08012" gradientUnits="userSpaceOnUse">
<stop stop-color="#E56EC9"/>
<stop offset="0.35" stop-color="#E671CA"/>
<stop offset="0.62" stop-color="#E87BCE"/>
<stop offset="0.85" stop-color="#EC8BD5"/>
<stop offset="1" stop-color="#F099DB"/>
</linearGradient>
<linearGradient id="paint19_linear_5556_18671" x1="464.107" y1="29.657" x2="445.389" y2="31.5089" gradientUnits="userSpaceOnUse">
<stop stop-color="#D453B5"/>
<stop offset="0.27" stop-color="#D759B8"/>
<stop offset="0.62" stop-color="#DF69C2"/>
<stop offset="1" stop-color="#EB83D2"/>
</linearGradient>
<linearGradient id="paint20_linear_5556_18671" x1="364.88" y1="115.59" x2="455.35" y2="115.59" gradientUnits="userSpaceOnUse">
<stop stop-color="#DAE0F5"/>
<stop offset="0.32" stop-color="#E1E6F7"/>
<stop offset="0.78" stop-color="#F3F5FC"/>
<stop offset="1" stop-color="white"/>
</linearGradient>
<linearGradient id="paint21_linear_5556_18671" x1="425.2" y1="89.4701" x2="455.35" y2="89.4701" gradientUnits="userSpaceOnUse">
<stop stop-color="#E8ECF7"/>
<stop offset="0.16" stop-color="#F0F2FA"/>
<stop offset="0.56" stop-color="white"/>
</linearGradient>
<linearGradient id="paint22_linear_5556_18671" x1="364.88" y1="193.94" x2="395.04" y2="193.94" gradientUnits="userSpaceOnUse">
<stop stop-color="#E8ECF7"/>
<stop offset="0.16" stop-color="#F0F2FA"/>
<stop offset="0.56" stop-color="white"/>
</linearGradient>
<linearGradient id="paint23_linear_5556_18671" x1="334.72" y1="133" x2="395.04" y2="133" gradientUnits="userSpaceOnUse">
<stop stop-color="#E8ECF7"/>
<stop offset="0.16" stop-color="#F0F2FA"/>
<stop offset="0.56" stop-color="white"/>
</linearGradient>
<linearGradient id="paint24_linear_5556_18671" x1="455.35" y1="141.71" x2="485.51" y2="141.71" gradientUnits="userSpaceOnUse">
<stop stop-color="#E8ECF7"/>
<stop offset="0.16" stop-color="#F0F2FA"/>
<stop offset="0.56" stop-color="white"/>
</linearGradient>
<linearGradient id="paint25_linear_5556_18671" x1="334.72" y1="211.36" x2="395.04" y2="211.36" gradientUnits="userSpaceOnUse">
<stop stop-color="#DAE0F5"/>
<stop offset="0.32" stop-color="#E1E6F7"/>
<stop offset="0.78" stop-color="#F3F5FC"/>
<stop offset="1" stop-color="white"/>
</linearGradient>
<linearGradient id="paint26_linear_5556_18671" x1="395.04" y1="211.36" x2="455.35" y2="211.36" gradientUnits="userSpaceOnUse">
<stop stop-color="#DAE0F5"/>
<stop offset="0.32" stop-color="#E1E6F7"/>
<stop offset="0.78" stop-color="#F3F5FC"/>
<stop offset="1" stop-color="white"/>
</linearGradient>
<linearGradient id="paint27_linear_5556_18671" x1="304.56" y1="159.12" x2="364.88" y2="159.12" gradientUnits="userSpaceOnUse">
<stop stop-color="#DAE0F5"/>
<stop offset="0.32" stop-color="#E1E6F7"/>
<stop offset="0.78" stop-color="#F3F5FC"/>
<stop offset="1" stop-color="white"/>
</linearGradient>
<linearGradient id="paint28_linear_5556_18671" x1="425.2" y1="167.83" x2="485.51" y2="167.83" gradientUnits="userSpaceOnUse">
<stop stop-color="#DAE0F5"/>
<stop offset="0.32" stop-color="#E1E6F7"/>
<stop offset="0.78" stop-color="#F3F5FC"/>
<stop offset="1" stop-color="white"/>
</linearGradient>
<linearGradient id="paint29_linear_5556_18671" x1="402.58" y1="222.24" x2="422.02" y2="222.24" gradientUnits="userSpaceOnUse">
<stop stop-color="#DAE0F5"/>
<stop offset="0.31" stop-color="#DFE4F6"/>
<stop offset="0.7" stop-color="#EEF1FB"/>
<stop offset="1" stop-color="white"/>
</linearGradient>
<linearGradient id="paint30_linear_5556_18671" x1="372.42" y1="135.18" x2="391.86" y2="135.18" gradientUnits="userSpaceOnUse">
<stop stop-color="#DAE0F5"/>
<stop offset="0.31" stop-color="#DFE4F6"/>
<stop offset="0.7" stop-color="#EEF1FB"/>
<stop offset="1" stop-color="white"/>
</linearGradient>
<linearGradient id="paint31_linear_5556_18671" x1="372.42" y1="237.47" x2="391.86" y2="237.47" gradientUnits="userSpaceOnUse">
<stop stop-color="#DAE0F5"/>
<stop offset="0.31" stop-color="#DFE4F6"/>
<stop offset="0.7" stop-color="#EEF1FB"/>
<stop offset="1" stop-color="white"/>
</linearGradient>
<linearGradient id="paint32_linear_5556_18671" x1="372.42" y1="63.36" x2="391.86" y2="63.36" gradientUnits="userSpaceOnUse">
<stop stop-color="#DAE0F5"/>
<stop offset="0.31" stop-color="#DFE4F6"/>
<stop offset="0.7" stop-color="#EEF1FB"/>
<stop offset="1" stop-color="white"/>
</linearGradient>
<linearGradient id="paint33_linear_5556_18671" x1="417.66" y1="228.77" x2="437.1" y2="228.77" gradientUnits="userSpaceOnUse">
<stop stop-color="#DAE0F5"/>
<stop offset="0.31" stop-color="#DFE4F6"/>
<stop offset="0.7" stop-color="#EEF1FB"/>
<stop offset="1" stop-color="white"/>
</linearGradient>
<linearGradient id="paint34_linear_5556_18671" x1="425.2" y1="100.36" x2="440.28" y2="100.36" gradientUnits="userSpaceOnUse">
<stop stop-color="#DAE0F5"/>
<stop offset="0.32" stop-color="#E1E6F7"/>
<stop offset="0.79" stop-color="#F4F6FC"/>
<stop offset="1" stop-color="white"/>
</linearGradient>
<linearGradient id="paint35_linear_5556_18671" x1="455.35" y1="152.59" x2="470.43" y2="152.59" gradientUnits="userSpaceOnUse">
<stop stop-color="#DAE0F5"/>
<stop offset="0.32" stop-color="#E1E6F7"/>
<stop offset="0.79" stop-color="#F4F6FC"/>
<stop offset="1" stop-color="white"/>
</linearGradient>
<linearGradient id="paint36_linear_5556_18671" x1="327.18" y1="154.77" x2="349.8" y2="154.77" gradientUnits="userSpaceOnUse">
<stop stop-color="#DAE0F5"/>
<stop offset="0.32" stop-color="#E1E6F7"/>
<stop offset="0.79" stop-color="#F4F6FC"/>
<stop offset="1" stop-color="white"/>
</linearGradient>
<linearGradient id="paint37_linear_5556_18671" x1="501.54" y1="255.59" x2="522.86" y2="255.59" gradientUnits="userSpaceOnUse">
<stop stop-color="#C4CAE9"/>
<stop offset="0.09" stop-color="#CED3ED"/>
<stop offset="0.41" stop-color="#E9EBF7"/>
<stop offset="0.69" stop-color="#F9FAFD"/>
<stop offset="0.9" stop-color="white"/>
</linearGradient>
<linearGradient id="paint38_linear_5556_18671" x1="481.18" y1="267.34" x2="502.49" y2="267.34" gradientUnits="userSpaceOnUse">
<stop stop-color="#C4CAE9"/>
<stop offset="0.09" stop-color="#CED3ED"/>
<stop offset="0.41" stop-color="#E9EBF7"/>
<stop offset="0.69" stop-color="#F9FAFD"/>
<stop offset="0.9" stop-color="white"/>
</linearGradient>
<linearGradient id="paint39_linear_5556_18671" x1="464.11" y1="30.3925" x2="447.685" y2="33.7445" gradientUnits="userSpaceOnUse">
<stop stop-color="#E56EC9"/>
<stop offset="0.35" stop-color="#E671CA"/>
<stop offset="0.62" stop-color="#E87BCE"/>
<stop offset="0.85" stop-color="#EC8BD5"/>
<stop offset="1" stop-color="#F099DB"/>
</linearGradient>
<linearGradient id="paint40_linear_5556_18671" x1="143.74" y1="175.62" x2="191.32" y2="175.62" gradientUnits="userSpaceOnUse">
<stop stop-color="#CFD5F1"/>
<stop offset="0.28" stop-color="#E1E5F6"/>
<stop offset="0.72" stop-color="#F7F8FD"/>
<stop offset="1" stop-color="white"/>
</linearGradient>
<linearGradient id="paint41_linear_5556_18671" x1="178.12" y1="161.42" x2="257.97" y2="161.42" gradientUnits="userSpaceOnUse">
<stop stop-color="#CFD5F1"/>
<stop offset="0.2" stop-color="#DEE2F5"/>
<stop offset="0.57" stop-color="#F6F7FC"/>
<stop offset="0.8" stop-color="white"/>
<stop offset="1" stop-color="white"/>
</linearGradient>
<linearGradient id="paint42_linear_5556_18671" x1="642.02" y1="156.3" x2="683.05" y2="156.3" gradientUnits="userSpaceOnUse">
<stop stop-color="#DAE0F5"/>
<stop offset="1" stop-color="white"/>
</linearGradient>
<linearGradient id="paint43_linear_5556_18671" x1="145.77" y1="330.42" x2="172.01" y2="330.42" gradientUnits="userSpaceOnUse">
<stop stop-color="#DAE0F5"/>
<stop offset="0.31" stop-color="#DFE4F6"/>
<stop offset="0.7" stop-color="#EEF1FB"/>
<stop offset="1" stop-color="white"/>
</linearGradient>
<linearGradient id="paint44_linear_5556_18671" x1="292.53" y1="290.08" x2="317.95" y2="290.08" gradientUnits="userSpaceOnUse">
<stop stop-color="#DAE0F5"/>
<stop offset="0.58" stop-color="#F2F4FC"/>
<stop offset="1" stop-color="white"/>
</linearGradient>
<linearGradient id="paint45_linear_5556_18671" x1="304.345" y1="290.332" x2="297.526" y2="284.262" gradientUnits="userSpaceOnUse">
<stop stop-color="#20196F"/>
<stop offset="0.21" stop-color="#1D1766"/>
<stop offset="1" stop-color="#131147"/>
</linearGradient>
<linearGradient id="paint46_linear_5556_18671" x1="303.857" y1="265.333" x2="292.863" y2="268.043" gradientUnits="userSpaceOnUse">
<stop stop-color="#5652CA"/>
<stop offset="0.36" stop-color="#443FAC"/>
<stop offset="1" stop-color="#20196F"/>
</linearGradient>
<linearGradient id="paint47_linear_5556_18671" x1="295.89" y1="295.65" x2="289.43" y2="289.19" gradientUnits="userSpaceOnUse">
<stop stop-color="#20196F"/>
<stop offset="0.21" stop-color="#1D1766"/>
<stop offset="1" stop-color="#131147"/>
</linearGradient>
<linearGradient id="paint48_linear_5556_18671" x1="299.769" y1="277.134" x2="287.395" y2="279.403" gradientUnits="userSpaceOnUse">
<stop stop-color="#4241A8"/>
<stop offset="0.55" stop-color="#302C8A"/>
<stop offset="1" stop-color="#20196F"/>
</linearGradient>
<linearGradient id="paint49_linear_5556_18671" x1="297.85" y1="234.49" x2="302.46" y2="234.49" gradientUnits="userSpaceOnUse">
<stop stop-color="#F6F6FB"/>
<stop offset="0.68" stop-color="#DCDFF9"/>
<stop offset="1" stop-color="#CED3F8"/>
</linearGradient>
<linearGradient id="paint50_linear_5556_18671" x1="300.81" y1="241.81" x2="307.7" y2="241.81" gradientUnits="userSpaceOnUse">
<stop stop-color="#F6F6FB"/>
<stop offset="0.68" stop-color="#DCDFF9"/>
<stop offset="1" stop-color="#CED3F8"/>
</linearGradient>
<linearGradient id="paint51_linear_5556_18671" x1="286.05" y1="251.55" x2="301.87" y2="251.55" gradientUnits="userSpaceOnUse">
<stop stop-color="#F6F6FB"/>
<stop offset="1" stop-color="#CED3F8"/>
</linearGradient>
<linearGradient id="paint52_linear_5556_18671" x1="291.4" y1="229.65" x2="298.88" y2="229.65" gradientUnits="userSpaceOnUse">
<stop stop-color="#5652CC"/>
<stop offset="1" stop-color="#362E94"/>
</linearGradient>
<linearGradient id="paint53_linear_5556_18671" x1="294.38" y1="226.27" x2="297.47" y2="226.27" gradientUnits="userSpaceOnUse">
<stop stop-color="#DAE0F5"/>
<stop offset="1" stop-color="white"/>
</linearGradient>
<linearGradient id="paint54_linear_5556_18671" x1="282.45" y1="242.53" x2="292.14" y2="242.53" gradientUnits="userSpaceOnUse">
<stop stop-color="#F6F6FB"/>
<stop offset="0.68" stop-color="#DCDFF9"/>
<stop offset="1" stop-color="#CED3F8"/>
</linearGradient>
<linearGradient id="paint55_linear_5556_18671" x1="644.95" y1="193.49" x2="687.12" y2="193.49" gradientUnits="userSpaceOnUse">
<stop stop-color="#D1D7F3"/>
<stop offset="0.3" stop-color="#DADFF5"/>
<stop offset="0.8" stop-color="#F3F5FC"/>
<stop offset="1" stop-color="white"/>
</linearGradient>
<linearGradient id="paint56_linear_5556_18671" x1="637.97" y1="197.47" x2="680.11" y2="197.47" gradientUnits="userSpaceOnUse">
<stop offset="0.33" stop-color="#8585FF"/>
<stop offset="0.65" stop-color="#4949B8"/>
</linearGradient>
<linearGradient id="paint57_linear_5556_18671" x1="163.98" y1="213.17" x2="190.21" y2="213.17" gradientUnits="userSpaceOnUse">
<stop stop-color="#DAE0F5"/>
<stop offset="0.31" stop-color="#DFE4F6"/>
<stop offset="0.7" stop-color="#EEF1FB"/>
<stop offset="1" stop-color="white"/>
</linearGradient>
<linearGradient id="paint58_linear_5556_18671" x1="180.37" y1="222.64" x2="206.6" y2="222.64" gradientUnits="userSpaceOnUse">
<stop stop-color="#DAE0F5"/>
<stop offset="0.31" stop-color="#DFE4F6"/>
<stop offset="0.7" stop-color="#EEF1FB"/>
<stop offset="1" stop-color="white"/>
</linearGradient>
<linearGradient id="paint59_linear_5556_18671" x1="236.85" y1="324.02" x2="273.72" y2="324.02" gradientUnits="userSpaceOnUse">
<stop stop-color="#C4C9E4"/>
<stop offset="0.19" stop-color="#D7DAED"/>
<stop offset="0.48" stop-color="#EDEEF7"/>
<stop offset="0.75" stop-color="#FAFBFD"/>
<stop offset="1" stop-color="white"/>
</linearGradient>
<linearGradient id="paint60_linear_5556_18671" x1="228.68" y1="301.17" x2="288.43" y2="301.17" gradientUnits="userSpaceOnUse">
<stop stop-color="#C4C9E4"/>
<stop offset="0.19" stop-color="#D7DAED"/>
<stop offset="0.48" stop-color="#EDEEF7"/>
<stop offset="0.75" stop-color="#FAFBFD"/>
<stop offset="1" stop-color="white"/>
</linearGradient>
<linearGradient id="paint61_linear_5556_18671" x1="212.74" y1="183.48" x2="239.87" y2="136.48" gradientUnits="userSpaceOnUse">
<stop stop-color="#D453B5"/>
<stop offset="0.27" stop-color="#D759B8"/>
<stop offset="0.62" stop-color="#DF69C2"/>
<stop offset="1" stop-color="#EB83D2"/>
</linearGradient>
<linearGradient id="paint62_linear_5556_18671" x1="565.98" y1="107.59" x2="600.92" y2="168.09" gradientUnits="userSpaceOnUse">
<stop stop-color="#D453B5"/>
<stop offset="0.27" stop-color="#D759B8"/>
<stop offset="0.62" stop-color="#DF69C2"/>
<stop offset="1" stop-color="#EB83D2"/>
</linearGradient>
<linearGradient id="paint63_linear_5556_18671" x1="654.18" y1="330.71" x2="680.41" y2="330.71" gradientUnits="userSpaceOnUse">
<stop stop-color="#DAE0F5"/>
<stop offset="0.31" stop-color="#DFE4F6"/>
<stop offset="0.7" stop-color="#EEF1FB"/>
<stop offset="1" stop-color="white"/>
</linearGradient>
<linearGradient id="paint64_linear_5556_18671" x1="118.99" y1="360" x2="118.99" y2="235.68" gradientUnits="userSpaceOnUse">
<stop stop-color="white" stop-opacity="0"/>
<stop offset="0.635417" stop-color="#DFE4F4"/>
</linearGradient>
<linearGradient id="paint65_linear_5556_18671" x1="66.51" y1="360" x2="66.51" y2="235.68" gradientUnits="userSpaceOnUse">
<stop stop-color="white" stop-opacity="0"/>
<stop offset="0.796875" stop-color="#E9EDF7"/>
</linearGradient>
<linearGradient id="paint66_linear_5556_18671" x1="733.72" y1="360" x2="733.72" y2="235.68" gradientUnits="userSpaceOnUse">
<stop stop-color="white" stop-opacity="0"/>
<stop offset="0.635417" stop-color="#DFE4F4"/>
</linearGradient>
<linearGradient id="paint67_linear_5556_18671" x1="681.24" y1="360" x2="681.24" y2="235.68" gradientUnits="userSpaceOnUse">
<stop stop-color="white" stop-opacity="0"/>
<stop offset="0.8125" stop-color="#E9EDF7"/>
</linearGradient>
<clipPath id="clip0_5556_18671">
<rect width="800" height="360" fill="white"/>
</clipPath>
</defs>
</svg>
