<svg width="109" height="167" viewBox="0 0 109 167" fill="none" xmlns="http://www.w3.org/2000/svg">
<path d="M108.381 103.842V145.525L71.9202 165.595L71.9202 83L108.381 103.842Z" fill="url(#paint0_linear_5394_31124)"/>
<g filter="url(#filter0_b_5394_31124)">
<path d="M36.0001 104.079L72.2803 124.899L108.561 104.079L72.2803 83.2596L36.0001 104.079Z" fill="#797979" fill-opacity="0.2"/>
<path d="M72.2803 83.7046L36.7755 104.079L72.2803 124.454L107.785 104.079L72.2803 83.7046Z" stroke="url(#paint1_linear_5394_31124)" stroke-width="0.771919"/>
<path d="M72.2803 83.7046L36.7755 104.079L72.2803 124.454L107.785 104.079L72.2803 83.7046Z" stroke="url(#paint2_linear_5394_31124)" stroke-opacity="0.2" stroke-width="0.771919"/>
</g>
<g filter="url(#filter1_b_5394_31124)">
<path d="M72.281 124.899V166.538L108.561 145.719V104.079L72.281 124.899Z" fill="#797979" fill-opacity="0.2"/>
<path d="M108.175 104.746L72.667 125.123V165.872L108.175 145.495V104.746Z" stroke="url(#paint3_linear_5394_31124)" stroke-width="0.771919"/>
<path d="M108.175 104.746L72.667 125.123V165.872L108.175 145.495V104.746Z" stroke="url(#paint4_linear_5394_31124)" stroke-opacity="0.2" stroke-width="0.771919"/>
</g>
<g filter="url(#filter2_b_5394_31124)">
<path d="M36.0013 104.079L36.0013 145.719L72.2815 166.538V124.899L36.0013 104.079Z" fill="#797979" fill-opacity="0.2"/>
<path d="M71.8955 125.123L36.3872 104.746L36.3872 145.495L71.8955 165.872V125.123Z" stroke="url(#paint5_linear_5394_31124)" stroke-width="0.771919"/>
<path d="M71.8955 125.123L36.3872 104.746L36.3872 145.495L71.8955 165.872V125.123Z" stroke="url(#paint6_linear_5394_31124)" stroke-opacity="0.2" stroke-width="0.771919"/>
</g>
<path d="M108.307 63.0691V104.753L71.8462 124.051L71.8462 42.2274L108.307 63.0691Z" fill="url(#paint7_linear_5394_31124)"/>
<g filter="url(#filter3_b_5394_31124)">
<path d="M35.9996 62.8197L72.2798 83.6393L108.56 62.8197L72.2798 42L35.9996 62.8197Z" fill="#797979" fill-opacity="0.2"/>
<path d="M72.2798 42.445L36.775 62.8197L72.2798 83.1943L107.785 62.8197L72.2798 42.445Z" stroke="url(#paint8_linear_5394_31124)" stroke-width="0.771919"/>
<path d="M72.2798 42.445L36.775 62.8197L72.2798 83.1943L107.785 62.8197L72.2798 42.445Z" stroke="url(#paint9_linear_5394_31124)" stroke-opacity="0.2" stroke-width="0.771919"/>
</g>
<g filter="url(#filter4_b_5394_31124)">
<path d="M72.2801 83.6394V125.279L108.56 104.459V62.8197L72.2801 83.6394Z" fill="#797979" fill-opacity="0.2"/>
<path d="M108.174 63.4862L72.666 83.8629V124.612L108.174 104.236V63.4862Z" stroke="url(#paint10_linear_5394_31124)" stroke-width="0.771919"/>
<path d="M108.174 63.4862L72.666 83.8629V124.612L108.174 104.236V63.4862Z" stroke="url(#paint11_linear_5394_31124)" stroke-opacity="0.2" stroke-width="0.771919"/>
</g>
<g filter="url(#filter5_b_5394_31124)">
<path d="M36.0003 62.8197L36.0003 104.459L72.2805 125.279V83.6394L36.0003 62.8197Z" fill="#797979" fill-opacity="0.2"/>
<path d="M71.8946 83.8629L36.3862 63.4862L36.3862 104.236L71.8946 124.612V83.8629Z" stroke="url(#paint12_linear_5394_31124)" stroke-width="0.771919"/>
<path d="M71.8946 83.8629L36.3862 63.4862L36.3862 104.236L71.8946 124.612V83.8629Z" stroke="url(#paint13_linear_5394_31124)" stroke-opacity="0.2" stroke-width="0.771919"/>
</g>
<path d="M108.381 20.8417V62.5255L71.9202 82.5953L71.9202 0L108.381 20.8417Z" fill="url(#paint14_linear_5394_31124)"/>
<g filter="url(#filter6_b_5394_31124)">
<path d="M36.0001 21.0793L72.2803 41.8989L108.561 21.0793L72.2803 0.259644L36.0001 21.0793Z" fill="#797979" fill-opacity="0.2"/>
<path d="M72.2803 0.704638L36.7755 21.0793L72.2803 41.454L107.785 21.0793L72.2803 0.704638Z" stroke="url(#paint15_linear_5394_31124)" stroke-width="0.771919"/>
<path d="M72.2803 0.704638L36.7755 21.0793L72.2803 41.454L107.785 21.0793L72.2803 0.704638Z" stroke="url(#paint16_linear_5394_31124)" stroke-opacity="0.2" stroke-width="0.771919"/>
</g>
<g filter="url(#filter7_b_5394_31124)">
<path d="M72.281 41.8991V83.5384L108.561 62.7188V21.0795L72.281 41.8991Z" fill="#797979" fill-opacity="0.2"/>
<path d="M108.175 21.7459L72.667 42.1226V82.872L108.175 62.4953V21.7459Z" stroke="url(#paint17_linear_5394_31124)" stroke-width="0.771919"/>
<path d="M108.175 21.7459L72.667 42.1226V82.872L108.175 62.4953V21.7459Z" stroke="url(#paint18_linear_5394_31124)" stroke-opacity="0.2" stroke-width="0.771919"/>
</g>
<g filter="url(#filter8_b_5394_31124)">
<path d="M36.0013 21.0795L36.0013 62.7188L72.2815 83.5384V41.8991L36.0013 21.0795Z" fill="#797979" fill-opacity="0.2"/>
<path d="M71.8955 42.1226L36.3872 21.7459L36.3872 62.4953L71.8955 82.872V42.1226Z" stroke="url(#paint19_linear_5394_31124)" stroke-width="0.771919"/>
<path d="M71.8955 42.1226L36.3872 21.7459L36.3872 62.4953L71.8955 82.872V42.1226Z" stroke="url(#paint20_linear_5394_31124)" stroke-opacity="0.2" stroke-width="0.771919"/>
</g>
<path d="M72.3141 84.291V125.142L35.853 144.279L35.853 63.4493L72.3141 84.291Z" fill="url(#paint21_linear_5394_31124)"/>
<g filter="url(#filter9_b_5394_31124)">
<path d="M6.9685e-05 83.8197L36.2803 104.639L72.5605 83.8197L36.2803 63L6.9685e-05 83.8197Z" fill="#797979" fill-opacity="0.2"/>
<path d="M36.2803 63.445L0.775514 83.8197L36.2803 104.194L71.7851 83.8197L36.2803 63.445Z" stroke="url(#paint22_linear_5394_31124)" stroke-width="0.771919"/>
<path d="M36.2803 63.445L0.775514 83.8197L36.2803 104.194L71.7851 83.8197L36.2803 63.445Z" stroke="url(#paint23_linear_5394_31124)" stroke-opacity="0.2" stroke-width="0.771919"/>
</g>
<g filter="url(#filter10_b_5394_31124)">
<path d="M36.281 104.639L36.281 146.279L72.5613 125.459V83.8198L36.281 104.639Z" fill="#797979" fill-opacity="0.2"/>
<path d="M72.1753 84.4863L36.667 104.863L36.667 145.612L72.1753 125.236V84.4863Z" stroke="url(#paint24_linear_5394_31124)" stroke-width="0.771919"/>
<path d="M72.1753 84.4863L36.667 104.863L36.667 145.612L72.1753 125.236V84.4863Z" stroke="url(#paint25_linear_5394_31124)" stroke-opacity="0.2" stroke-width="0.771919"/>
</g>
<g filter="url(#filter11_b_5394_31124)">
<path d="M0.00125555 83.8198L0.00125555 125.459L36.2815 146.279L36.2815 104.639L0.00125555 83.8198Z" fill="#797979" fill-opacity="0.2"/>
<path d="M35.8955 104.863L0.387215 84.4863L0.387215 125.236L35.8955 145.612L35.8955 104.863Z" stroke="url(#paint26_linear_5394_31124)" stroke-width="0.771919"/>
<path d="M35.8955 104.863L0.387215 84.4863L0.387215 125.236L35.8955 145.612L35.8955 104.863Z" stroke="url(#paint27_linear_5394_31124)" stroke-opacity="0.2" stroke-width="0.771919"/>
</g>
<defs>
<filter id="filter0_b_5394_31124" x="14.3863" y="61.6459" width="115.788" height="84.8668" filterUnits="userSpaceOnUse" color-interpolation-filters="sRGB">
<feFlood flood-opacity="0" result="BackgroundImageFix"/>
<feGaussianBlur in="BackgroundImage" stdDeviation="10.8069"/>
<feComposite in2="SourceAlpha" operator="in" result="effect1_backgroundBlur_5394_31124"/>
<feBlend mode="normal" in="SourceGraphic" in2="effect1_backgroundBlur_5394_31124" result="shape"/>
</filter>
<filter id="filter1_b_5394_31124" x="50.6673" y="82.4657" width="79.5078" height="105.686" filterUnits="userSpaceOnUse" color-interpolation-filters="sRGB">
<feFlood flood-opacity="0" result="BackgroundImageFix"/>
<feGaussianBlur in="BackgroundImage" stdDeviation="10.8069"/>
<feComposite in2="SourceAlpha" operator="in" result="effect1_backgroundBlur_5394_31124"/>
<feBlend mode="normal" in="SourceGraphic" in2="effect1_backgroundBlur_5394_31124" result="shape"/>
</filter>
<filter id="filter2_b_5394_31124" x="14.3875" y="82.4657" width="79.5078" height="105.686" filterUnits="userSpaceOnUse" color-interpolation-filters="sRGB">
<feFlood flood-opacity="0" result="BackgroundImageFix"/>
<feGaussianBlur in="BackgroundImage" stdDeviation="10.8069"/>
<feComposite in2="SourceAlpha" operator="in" result="effect1_backgroundBlur_5394_31124"/>
<feBlend mode="normal" in="SourceGraphic" in2="effect1_backgroundBlur_5394_31124" result="shape"/>
</filter>
<filter id="filter3_b_5394_31124" x="14.3858" y="20.3863" width="115.788" height="84.8668" filterUnits="userSpaceOnUse" color-interpolation-filters="sRGB">
<feFlood flood-opacity="0" result="BackgroundImageFix"/>
<feGaussianBlur in="BackgroundImage" stdDeviation="10.8069"/>
<feComposite in2="SourceAlpha" operator="in" result="effect1_backgroundBlur_5394_31124"/>
<feBlend mode="normal" in="SourceGraphic" in2="effect1_backgroundBlur_5394_31124" result="shape"/>
</filter>
<filter id="filter4_b_5394_31124" x="50.6663" y="41.206" width="79.5078" height="105.686" filterUnits="userSpaceOnUse" color-interpolation-filters="sRGB">
<feFlood flood-opacity="0" result="BackgroundImageFix"/>
<feGaussianBlur in="BackgroundImage" stdDeviation="10.8069"/>
<feComposite in2="SourceAlpha" operator="in" result="effect1_backgroundBlur_5394_31124"/>
<feBlend mode="normal" in="SourceGraphic" in2="effect1_backgroundBlur_5394_31124" result="shape"/>
</filter>
<filter id="filter5_b_5394_31124" x="14.3865" y="41.206" width="79.5078" height="105.686" filterUnits="userSpaceOnUse" color-interpolation-filters="sRGB">
<feFlood flood-opacity="0" result="BackgroundImageFix"/>
<feGaussianBlur in="BackgroundImage" stdDeviation="10.8069"/>
<feComposite in2="SourceAlpha" operator="in" result="effect1_backgroundBlur_5394_31124"/>
<feBlend mode="normal" in="SourceGraphic" in2="effect1_backgroundBlur_5394_31124" result="shape"/>
</filter>
<filter id="filter6_b_5394_31124" x="14.3863" y="-21.3541" width="115.788" height="84.8668" filterUnits="userSpaceOnUse" color-interpolation-filters="sRGB">
<feFlood flood-opacity="0" result="BackgroundImageFix"/>
<feGaussianBlur in="BackgroundImage" stdDeviation="10.8069"/>
<feComposite in2="SourceAlpha" operator="in" result="effect1_backgroundBlur_5394_31124"/>
<feBlend mode="normal" in="SourceGraphic" in2="effect1_backgroundBlur_5394_31124" result="shape"/>
</filter>
<filter id="filter7_b_5394_31124" x="50.6673" y="-0.534271" width="79.5078" height="105.686" filterUnits="userSpaceOnUse" color-interpolation-filters="sRGB">
<feFlood flood-opacity="0" result="BackgroundImageFix"/>
<feGaussianBlur in="BackgroundImage" stdDeviation="10.8069"/>
<feComposite in2="SourceAlpha" operator="in" result="effect1_backgroundBlur_5394_31124"/>
<feBlend mode="normal" in="SourceGraphic" in2="effect1_backgroundBlur_5394_31124" result="shape"/>
</filter>
<filter id="filter8_b_5394_31124" x="14.3875" y="-0.534271" width="79.5078" height="105.686" filterUnits="userSpaceOnUse" color-interpolation-filters="sRGB">
<feFlood flood-opacity="0" result="BackgroundImageFix"/>
<feGaussianBlur in="BackgroundImage" stdDeviation="10.8069"/>
<feComposite in2="SourceAlpha" operator="in" result="effect1_backgroundBlur_5394_31124"/>
<feBlend mode="normal" in="SourceGraphic" in2="effect1_backgroundBlur_5394_31124" result="shape"/>
</filter>
<filter id="filter9_b_5394_31124" x="-21.6137" y="41.3863" width="115.788" height="84.8668" filterUnits="userSpaceOnUse" color-interpolation-filters="sRGB">
<feFlood flood-opacity="0" result="BackgroundImageFix"/>
<feGaussianBlur in="BackgroundImage" stdDeviation="10.8069"/>
<feComposite in2="SourceAlpha" operator="in" result="effect1_backgroundBlur_5394_31124"/>
<feBlend mode="normal" in="SourceGraphic" in2="effect1_backgroundBlur_5394_31124" result="shape"/>
</filter>
<filter id="filter10_b_5394_31124" x="14.6673" y="62.2061" width="79.5078" height="105.686" filterUnits="userSpaceOnUse" color-interpolation-filters="sRGB">
<feFlood flood-opacity="0" result="BackgroundImageFix"/>
<feGaussianBlur in="BackgroundImage" stdDeviation="10.8069"/>
<feComposite in2="SourceAlpha" operator="in" result="effect1_backgroundBlur_5394_31124"/>
<feBlend mode="normal" in="SourceGraphic" in2="effect1_backgroundBlur_5394_31124" result="shape"/>
</filter>
<filter id="filter11_b_5394_31124" x="-21.6125" y="62.2061" width="79.5078" height="105.686" filterUnits="userSpaceOnUse" color-interpolation-filters="sRGB">
<feFlood flood-opacity="0" result="BackgroundImageFix"/>
<feGaussianBlur in="BackgroundImage" stdDeviation="10.8069"/>
<feComposite in2="SourceAlpha" operator="in" result="effect1_backgroundBlur_5394_31124"/>
<feBlend mode="normal" in="SourceGraphic" in2="effect1_backgroundBlur_5394_31124" result="shape"/>
</filter>
<linearGradient id="paint0_linear_5394_31124" x1="108.381" y1="102.361" x2="-3.98761" y2="215.526" gradientUnits="userSpaceOnUse">
<stop stop-color="#6F42C1"/>
<stop offset="0.395053" stop-opacity="0"/>
</linearGradient>
<linearGradient id="paint1_linear_5394_31124" x1="215.889" y1="31.3527" x2="148.992" y2="163.68" gradientUnits="userSpaceOnUse">
<stop stop-color="white"/>
<stop offset="1" stop-color="white" stop-opacity="0"/>
</linearGradient>
<linearGradient id="paint2_linear_5394_31124" x1="160.131" y1="74.727" x2="116.499" y2="150.396" gradientUnits="userSpaceOnUse">
<stop stop-color="#777777"/>
<stop offset="1" stop-color="white" stop-opacity="0"/>
</linearGradient>
<linearGradient id="paint3_linear_5394_31124" x1="162.226" y1="26.2191" x2="47.6936" y2="101.736" gradientUnits="userSpaceOnUse">
<stop stop-color="white"/>
<stop offset="1" stop-color="white" stop-opacity="0"/>
</linearGradient>
<linearGradient id="paint4_linear_5394_31124" x1="134.346" y1="91.2805" x2="68.8151" y2="129.163" gradientUnits="userSpaceOnUse">
<stop stop-color="#777777"/>
<stop offset="1" stop-color="white" stop-opacity="0"/>
</linearGradient>
<linearGradient id="paint5_linear_5394_31124" x1="125.946" y1="26.2191" x2="11.4138" y2="101.736" gradientUnits="userSpaceOnUse">
<stop stop-color="white"/>
<stop offset="1" stop-color="white" stop-opacity="0"/>
</linearGradient>
<linearGradient id="paint6_linear_5394_31124" x1="98.0667" y1="91.2805" x2="32.5353" y2="129.163" gradientUnits="userSpaceOnUse">
<stop stop-color="#777777"/>
<stop offset="1" stop-color="white" stop-opacity="0"/>
</linearGradient>
<linearGradient id="paint7_linear_5394_31124" x1="108.307" y1="61.5889" x2="-4.06159" y2="174.753" gradientUnits="userSpaceOnUse">
<stop stop-color="#6F42C1"/>
<stop offset="0.395053" stop-opacity="0"/>
</linearGradient>
<linearGradient id="paint8_linear_5394_31124" x1="215.889" y1="-9.90692" x2="148.991" y2="122.421" gradientUnits="userSpaceOnUse">
<stop stop-color="white"/>
<stop offset="1" stop-color="white" stop-opacity="0"/>
</linearGradient>
<linearGradient id="paint9_linear_5394_31124" x1="160.13" y1="33.4674" x2="116.498" y2="109.136" gradientUnits="userSpaceOnUse">
<stop stop-color="#777777"/>
<stop offset="1" stop-color="white" stop-opacity="0"/>
</linearGradient>
<linearGradient id="paint10_linear_5394_31124" x1="162.225" y1="-15.0407" x2="47.6926" y2="60.4761" gradientUnits="userSpaceOnUse">
<stop stop-color="white"/>
<stop offset="1" stop-color="white" stop-opacity="0"/>
</linearGradient>
<linearGradient id="paint11_linear_5394_31124" x1="134.345" y1="50.0207" x2="68.8141" y2="87.9031" gradientUnits="userSpaceOnUse">
<stop stop-color="#777777"/>
<stop offset="1" stop-color="white" stop-opacity="0"/>
</linearGradient>
<linearGradient id="paint12_linear_5394_31124" x1="125.945" y1="-15.0407" x2="11.4128" y2="60.4761" gradientUnits="userSpaceOnUse">
<stop stop-color="white"/>
<stop offset="1" stop-color="white" stop-opacity="0"/>
</linearGradient>
<linearGradient id="paint13_linear_5394_31124" x1="98.0657" y1="50.0207" x2="32.5343" y2="87.9031" gradientUnits="userSpaceOnUse">
<stop stop-color="#777777"/>
<stop offset="1" stop-color="white" stop-opacity="0"/>
</linearGradient>
<linearGradient id="paint14_linear_5394_31124" x1="108.381" y1="19.3615" x2="-3.98761" y2="132.526" gradientUnits="userSpaceOnUse">
<stop stop-color="#6F42C1"/>
<stop offset="0.395053" stop-opacity="0"/>
</linearGradient>
<linearGradient id="paint15_linear_5394_31124" x1="215.889" y1="-51.6473" x2="148.992" y2="80.6802" gradientUnits="userSpaceOnUse">
<stop stop-color="white"/>
<stop offset="1" stop-color="white" stop-opacity="0"/>
</linearGradient>
<linearGradient id="paint16_linear_5394_31124" x1="160.131" y1="-8.273" x2="116.499" y2="67.3961" gradientUnits="userSpaceOnUse">
<stop stop-color="#777777"/>
<stop offset="1" stop-color="white" stop-opacity="0"/>
</linearGradient>
<linearGradient id="paint17_linear_5394_31124" x1="162.226" y1="-56.7809" x2="47.6936" y2="18.7359" gradientUnits="userSpaceOnUse">
<stop stop-color="white"/>
<stop offset="1" stop-color="white" stop-opacity="0"/>
</linearGradient>
<linearGradient id="paint18_linear_5394_31124" x1="134.346" y1="8.2805" x2="68.8151" y2="46.1629" gradientUnits="userSpaceOnUse">
<stop stop-color="#777777"/>
<stop offset="1" stop-color="white" stop-opacity="0"/>
</linearGradient>
<linearGradient id="paint19_linear_5394_31124" x1="125.946" y1="-56.7809" x2="11.4138" y2="18.7359" gradientUnits="userSpaceOnUse">
<stop stop-color="white"/>
<stop offset="1" stop-color="white" stop-opacity="0"/>
</linearGradient>
<linearGradient id="paint20_linear_5394_31124" x1="98.0667" y1="8.2805" x2="32.5353" y2="46.1629" gradientUnits="userSpaceOnUse">
<stop stop-color="#777777"/>
<stop offset="1" stop-color="white" stop-opacity="0"/>
</linearGradient>
<linearGradient id="paint21_linear_5394_31124" x1="73.4041" y1="82.8108" x2="-38.9646" y2="195.975" gradientUnits="userSpaceOnUse">
<stop stop-color="#6F42C1"/>
<stop offset="0.395053" stop-opacity="0"/>
</linearGradient>
<linearGradient id="paint22_linear_5394_31124" x1="179.889" y1="11.0931" x2="112.992" y2="143.421" gradientUnits="userSpaceOnUse">
<stop stop-color="white"/>
<stop offset="1" stop-color="white" stop-opacity="0"/>
</linearGradient>
<linearGradient id="paint23_linear_5394_31124" x1="124.131" y1="54.4674" x2="80.4985" y2="130.136" gradientUnits="userSpaceOnUse">
<stop stop-color="#777777"/>
<stop offset="1" stop-color="white" stop-opacity="0"/>
</linearGradient>
<linearGradient id="paint24_linear_5394_31124" x1="126.226" y1="5.95943" x2="11.6936" y2="81.4762" gradientUnits="userSpaceOnUse">
<stop stop-color="white"/>
<stop offset="1" stop-color="white" stop-opacity="0"/>
</linearGradient>
<linearGradient id="paint25_linear_5394_31124" x1="98.3464" y1="71.0209" x2="32.8151" y2="108.903" gradientUnits="userSpaceOnUse">
<stop stop-color="#777777"/>
<stop offset="1" stop-color="white" stop-opacity="0"/>
</linearGradient>
<linearGradient id="paint26_linear_5394_31124" x1="89.9459" y1="5.95943" x2="-24.5862" y2="81.4762" gradientUnits="userSpaceOnUse">
<stop stop-color="white"/>
<stop offset="1" stop-color="white" stop-opacity="0"/>
</linearGradient>
<linearGradient id="paint27_linear_5394_31124" x1="62.0667" y1="71.0209" x2="-3.4647" y2="108.903" gradientUnits="userSpaceOnUse">
<stop stop-color="#777777"/>
<stop offset="1" stop-color="white" stop-opacity="0"/>
</linearGradient>
</defs>
</svg>
