<svg width="25" height="25" viewBox="0 0 25 25" fill="none" xmlns="http://www.w3.org/2000/svg">
<path d="M7.83887 12.1912C7.24792 12.1912 6.66276 12.0748 6.11679 11.8486C5.57083 11.6225 5.07475 11.291 4.65689 10.8731C4.23902 10.4553 3.90756 9.9592 3.68141 9.41324C3.45526 8.86727 3.33887 8.28211 3.33887 7.69116C3.33887 7.10021 3.45526 6.51505 3.68141 5.96909C3.90756 5.42312 4.23902 4.92705 4.65689 4.50918C5.07475 4.09132 5.57083 3.75985 6.11679 3.5337C6.66276 3.30756 7.24792 3.19116 7.83887 3.19116C9.03234 3.19116 10.1769 3.66527 11.0208 4.50918C11.8648 5.3531 12.3389 6.49769 12.3389 7.69116C12.3389 8.88464 11.8648 10.0292 11.0208 10.8731C10.1769 11.7171 9.03234 12.1912 7.83887 12.1912ZM7.83887 22.1912C6.64539 22.1912 5.5008 21.7171 4.65689 20.8731C3.81297 20.0292 3.33887 18.8846 3.33887 17.6912C3.33887 16.4977 3.81297 15.3531 4.65689 14.5092C5.5008 13.6653 6.64539 13.1912 7.83887 13.1912C9.03234 13.1912 10.1769 13.6653 11.0208 14.5092C11.8648 15.3531 12.3389 16.4977 12.3389 17.6912C12.3389 18.8846 11.8648 20.0292 11.0208 20.8731C10.1769 21.7171 9.03234 22.1912 7.83887 22.1912ZM17.8389 12.1912C17.2479 12.1912 16.6628 12.0748 16.1168 11.8486C15.5708 11.6225 15.0748 11.291 14.6569 10.8731C14.239 10.4553 13.9076 9.9592 13.6814 9.41324C13.4553 8.86727 13.3389 8.28211 13.3389 7.69116C13.3389 7.10021 13.4553 6.51505 13.6814 5.96909C13.9076 5.42312 14.239 4.92705 14.6569 4.50918C15.0748 4.09132 15.5708 3.75985 16.1168 3.5337C16.6628 3.30756 17.2479 3.19116 17.8389 3.19116C19.0323 3.19116 20.1769 3.66527 21.0208 4.50918C21.8648 5.3531 22.3389 6.49769 22.3389 7.69116C22.3389 8.88464 21.8648 10.0292 21.0208 10.8731C20.1769 11.7171 19.0323 12.1912 17.8389 12.1912ZM17.8389 22.1912C16.6454 22.1912 15.5008 21.7171 14.6569 20.8731C13.813 20.0292 13.3389 18.8846 13.3389 17.6912C13.3389 16.4977 13.813 15.3531 14.6569 14.5092C15.5008 13.6653 16.6454 13.1912 17.8389 13.1912C19.0323 13.1912 20.1769 13.6653 21.0208 14.5092C21.8648 15.3531 22.3389 16.4977 22.3389 17.6912C22.3389 18.8846 21.8648 20.0292 21.0208 20.8731C20.1769 21.7171 19.0323 22.1912 17.8389 22.1912Z" fill="white"/>
</svg>
