<svg width="64" height="64" viewBox="0 0 64 64" fill="none" xmlns="http://www.w3.org/2000/svg">
<path d="M0 32C0 37.4933 1.38667 42.6667 3.84 47.1867C4.41333 48.2533 5.05333 49.2933 5.74667 50.2933C7.74667 53.1733 10.2133 55.7067 13.04 57.7733C13.0533 57.8 13.08 57.8 13.0933 57.8133C13.28 57.9467 13.4667 58.0933 13.6533 58.2133C17.12 60.6533 21.1067 62.4267 25.4 63.32C27.52 63.76 29.7333 64 32 64C37.2 64 42.0933 62.76 46.44 60.56C48.9467 59.2933 51.2533 57.7067 53.3333 55.8533C54.44 54.8533 55.4933 53.7867 56.4667 52.64C56.9067 52.12 57.32 51.6 57.72 51.0533C58.7867 49.6267 59.7333 48.1067 60.5467 46.5067C62.7467 42.16 64 37.2267 64 32C64 14.3333 49.6667 0 32 0C14.3333 0 0 14.3333 0 32Z" fill="#F7F5FF"/>
<path d="M22.3066 24.4133C22.8133 22.1733 24.4933 20.6533 26.08 20.9999L26.9066 21.1199C27 21.1333 27.1066 21.1466 27.2 21.1599C28.7866 21.5199 29.6533 23.6133 29.16 25.8533C28.6533 28.0933 26.9733 29.6133 25.3866 29.2666L24.56 29.1466C24.4666 29.1333 24.36 29.1199 24.2666 29.1066C22.68 28.7466 21.8133 26.6533 22.3066 24.4133Z" fill="#FFAF45"/>
<path d="M3.83997 47.1866C4.4133 48.2533 5.0533 49.2933 5.74663 50.2933C7.74663 53.1733 10.2133 55.7066 13.04 57.7733C13.0533 57.8 13.08 57.8 13.0933 57.8133C13.28 57.9466 13.4666 58.0933 13.6533 58.2133C17.12 60.6533 21.1066 62.4266 25.4 63.32C27.52 63.76 29.7333 64 32 64C37.2 64 42.0933 62.76 46.44 60.56C48.9466 59.2933 51.2533 57.7066 53.3333 55.8533C54.44 54.8533 55.4933 53.7866 56.4666 52.64C56.9066 52.12 57.32 51.6 57.72 51.0533C52.64 44.9333 48.16 43.6933 48.16 43.6933C48.3066 43.5333 49.88 41.68 48.16 38.3466C45.9066 33.9466 38.8933 31.2133 38.8933 31.2133L26.5066 30.48C26.5066 30.48 21.2933 30.8533 17.44 35.2933C14.2533 38.9466 14.8133 41.2666 15.12 41.9733C15.1733 42.12 15.2266 42.2 15.2266 42.2C15.2266 42.2 9.86663 43.96 3.83997 47.1866Z" fill="#8758E7"/>
<path d="M15.1067 41.9734C17.68 43.6001 21.7867 45.6267 27.6 46.9067C38.4533 49.3067 48.1467 43.6934 48.1467 43.6934C48.2933 43.5334 49.8666 41.6801 48.1467 38.3467C45.8933 33.9467 38.88 31.2267 38.88 31.2267L26.4933 30.4934C26.4933 30.4934 21.2933 30.8667 17.4266 35.3067C14.2266 38.9467 14.8 41.2667 15.1067 41.9734Z" fill="#ADA4F7"/>
<path d="M37.0799 39.3601C37.0799 39.3601 41.9866 36.8001 41.6933 35.3068C41.3999 33.8134 36.6399 32.8001 33.5866 33.3868C30.5333 33.9601 23.3199 34.0534 23.3199 36.6801C23.3199 39.0001 26.6266 41.2268 26.6266 41.2268L33.5733 39.2268L37.0799 39.3601Z" fill="#8758E7"/>
<path d="M37.24 31.6799L37.0667 39.3599C37.0667 39.3599 35.6267 41.5333 31.1334 41.7999C27.7867 41.9999 26.6267 41.2133 26.6267 41.2133L27.1867 37.3333L27.7334 33.5466L35.88 31.9466L37.24 31.6799Z" fill="#FC8165"/>
<path d="M35.88 31.9468C35.8533 32.1601 35.7733 32.4001 35.64 32.6801C33.84 36.4801 29.12 37.2001 27.1866 37.3334L27.7333 33.5468L35.88 31.9468Z" fill="black"/>
<path d="M26.4 16.0133C26.4 16.0133 22.16 25.5466 23.6267 30.9333C25.0934 36.32 30 35.5067 32.9334 34.48C35.8667 33.4667 37.24 31.68 37.24 31.68C37.24 31.68 39.9734 32.6266 41.8134 30.0933C43.6667 27.56 42.5467 24.6266 41 23.9466C39.44 23.2666 37.5734 24.3867 37.5734 24.3867L39.0534 21.6133C39.0534 21.6133 33.0267 7.45332 26.4 16.0133Z" fill="#FC8165"/>
<path d="M37.9867 28.8934C37.9067 28.8934 37.8267 28.8667 37.7601 28.8001C37.6267 28.6801 37.6267 28.4667 37.7467 28.3334L40.3467 25.5734C40.4667 25.4401 40.6801 25.4401 40.8134 25.5601C40.9467 25.6801 40.9467 25.8934 40.8267 26.0267L38.2267 28.7867C38.1601 28.8667 38.0801 28.8934 37.9867 28.8934Z" fill="black"/>
<path d="M40.7467 28.16C40.7333 28.16 40.7067 28.16 40.6933 28.16L38.8933 27.8934C38.7067 27.8667 38.5867 27.6934 38.6133 27.52C38.64 27.3334 38.8133 27.2134 38.9867 27.24L40.7867 27.5067C40.9733 27.5334 41.0933 27.7067 41.0667 27.88C41.04 28.04 40.9067 28.16 40.7467 28.16Z" fill="black"/>
<path d="M37.5867 24.3867C37.5867 24.3867 36.6 25.0401 35.88 23.9067C35.16 22.7867 36.7333 19.4667 36.7333 19.4667C36.7333 19.4667 33.7733 20.1334 31.9467 19.1601C30.12 18.1867 29.2134 15.4801 29.2134 15.4801C29.2134 15.4801 27.8667 18.2934 23.8267 17.0534C19.7867 15.8134 19.0134 10.3201 23.3334 9.18674C27.6534 8.06674 30.0134 9.9734 30.0134 9.9734C30.0134 9.9734 30.56 5.98674 35.8934 7.94674C40.76 9.74674 41.5734 15.8401 41.5734 15.8401C41.5734 15.8401 44.4934 15.9734 45.0534 19.1467C45.6133 22.3201 41.8934 24.6134 41.8934 24.6134C41.8934 24.6134 39.7867 23.4001 37.5867 24.3867Z" fill="black"/>
<path d="M35.48 27.2134C35.1867 29.4934 36.2534 31.4934 37.8667 31.7067C39.48 31.9067 41.0134 30.24 41.3067 27.96C41.6 25.68 40.5334 23.68 38.92 23.4667C37.3067 23.2667 35.76 24.9334 35.48 27.2134Z" fill="#FFAF45"/>
<path d="M38.92 23.4668L40.0267 23.6935L38.9733 31.9201L37.8533 31.7068L36.64 30.4001L36.2933 25.8268L38.92 23.4668Z" fill="#FFAF45"/>
<path d="M36.5867 27.44C36.2934 29.72 37.3601 31.72 38.9734 31.9333C40.5867 32.1333 42.1201 30.4666 42.4134 28.1866C42.7067 25.9066 41.6401 23.9066 40.0267 23.6933C38.4134 23.48 36.8801 25.16 36.5867 27.44Z" fill="#80BAFF"/>
<path d="M40.84 13.2666C40.84 13.2666 42.0667 14.7333 42.4134 16.0266C42.76 17.3199 40.7467 25.5066 40.7467 25.5066L38.2134 24.9333L40.84 13.2666Z" fill="#80BAFF"/>
</svg>
