<svg width="49" height="48" viewBox="0 0 49 48" fill="none" xmlns="http://www.w3.org/2000/svg">
<rect x="0.586914" width="48" height="48" rx="24" fill="#B08800" fill-opacity="0.2"/>
<path d="M17.5869 24.5C17.5869 24.813 18.0479 25.358 19.1169 25.893C20.5009 26.585 22.4639 27 24.5869 27C26.7099 27 28.6729 26.585 30.0569 25.893C31.1259 25.358 31.5869 24.813 31.5869 24.5V22.329C29.9369 23.349 27.4139 24 24.5869 24C21.7599 24 19.2369 23.348 17.5869 22.329V24.5ZM31.5869 27.329C29.9369 28.349 27.4139 29 24.5869 29C21.7599 29 19.2369 28.348 17.5869 27.329V29.5C17.5869 29.813 18.0479 30.358 19.1169 30.893C20.5009 31.585 22.4639 32 24.5869 32C26.7099 32 28.6729 31.585 30.0569 30.893C31.1259 30.358 31.5869 29.813 31.5869 29.5V27.329ZM15.5869 29.5V19.5C15.5869 17.015 19.6169 15 24.5869 15C29.5569 15 33.5869 17.015 33.5869 19.5V29.5C33.5869 31.985 29.5569 34 24.5869 34C19.6169 34 15.5869 31.985 15.5869 29.5ZM24.5869 22C26.7099 22 28.6729 21.585 30.0569 20.893C31.1259 20.358 31.5869 19.813 31.5869 19.5C31.5869 19.187 31.1259 18.642 30.0569 18.107C28.6729 17.415 26.7099 17 24.5869 17C22.4639 17 20.5009 17.415 19.1169 18.107C18.0479 18.642 17.5869 19.187 17.5869 19.5C17.5869 19.813 18.0479 20.358 19.1169 20.893C20.5009 21.585 22.4639 22 24.5869 22Z" fill="#B08800"/>
</svg>
