<svg width="48" height="49" viewBox="0 0 48 49" fill="none" xmlns="http://www.w3.org/2000/svg">
<rect y="0.5" width="48" height="48" rx="24" fill="#6F42C1" fill-opacity="0.2"/>
<path d="M30.6541 30.0951L33.5836 33.0231C33.7202 33.1646 33.7958 33.354 33.7941 33.5507C33.7924 33.7473 33.7135 33.9354 33.5745 34.0745C33.4354 34.2135 33.2473 34.2924 33.0507 34.2941C32.854 34.2958 32.6646 34.2202 32.5231 34.0836L29.5936 31.1541C27.6793 32.7943 25.204 33.6292 22.6873 33.4838C20.1706 33.3383 17.8081 32.2237 16.0955 30.3739C14.3829 28.524 13.4533 26.0828 13.5018 23.5624C13.5503 21.0419 14.5732 18.6383 16.3557 16.8557C18.1383 15.0732 20.5419 14.0503 23.0624 14.0018C25.5828 13.9533 28.024 14.8829 29.8739 16.5955C31.7237 18.3081 32.8383 20.6706 32.9838 23.1873C33.1292 25.704 32.2943 28.1793 30.6541 30.0936V30.0951ZM23.2501 32.0001C25.4382 32.0001 27.5366 31.1309 29.0838 29.5838C30.6309 28.0366 31.5001 25.9382 31.5001 23.7501C31.5001 21.5621 30.6309 19.4637 29.0838 17.9165C27.5366 16.3693 25.4382 15.5001 23.2501 15.5001C21.0621 15.5001 18.9637 16.3693 17.4165 17.9165C15.8693 19.4637 15.0001 21.5621 15.0001 23.7501C15.0001 25.9382 15.8693 28.0366 17.4165 29.5838C18.9637 31.1309 21.0621 32.0001 23.2501 32.0001Z" fill="white"/>
</svg>
