<svg width="20" height="20" viewBox="0 0 20 20" fill="none" xmlns="http://www.w3.org/2000/svg">
<path d="M5.89331 10.3026C5.89331 9.59063 6.40264 9.11597 6.92531 9.11597C7.45731 9.11597 7.96931 9.59997 7.95731 10.292V10.3026C7.95731 11.016 7.44664 11.4893 6.92531 11.4893C6.41598 11.4893 5.89331 11.0106 5.89331 10.3026ZM12.1426 10.3026C12.1426 9.92663 12.2573 9.66263 12.4013 9.50397C12.4838 9.4163 12.5843 9.34764 12.696 9.30274C12.8077 9.25784 12.9278 9.23778 13.048 9.24397C13.5693 9.24397 14.08 9.7173 14.08 10.4306C14.08 11.1426 13.5693 11.6173 13.048 11.6173C12.8346 11.6173 12.6266 11.5133 12.448 11.2773C12.2456 10.9934 12.1386 10.6526 12.1426 10.304V10.3026Z" fill="white"/>
<path fill-rule="evenodd" clip-rule="evenodd" d="M5.06667 16.1893C5.436 16.3333 5.844 16.4787 6.29067 16.612C5.504 17.428 4.28533 18.572 4.28533 18.572C0.501333 18.452 0 15.352 0 15.352C0 9.83998 2.46667 3.22665 2.46667 3.22665C4.93067 1.37732 7.276 1.42665 7.276 1.42665L7.49333 2.88798C6.35733 3.19065 5.192 3.68932 3.94267 4.37198L4.62667 5.62532C6.688 4.50132 8.36667 3.97732 10.0027 3.97598C11.6373 3.97598 13.3133 4.49732 15.3693 5.62532L16.056 4.37198C14.7453 3.65332 13.528 3.13865 12.3387 2.84265L12.7213 1.42665C12.7213 1.42665 15.068 1.37598 17.5333 3.22532C17.5333 3.22532 19.9987 9.83732 19.9987 15.3506C19.9987 15.3506 19.4973 18.4507 15.7133 18.5707C15.7133 18.5707 14.5747 17.448 13.8227 16.6387C14.2173 16.5187 14.6173 16.372 15.0227 16.204C15.7605 15.9244 16.4645 15.5625 17.1213 15.1253L16.3347 13.932C15.6787 14.3653 15.0587 14.6653 14.5107 14.8693L14.5013 14.8733L14.4947 14.876L14.4813 14.8813C13.7353 15.2001 12.9551 15.4319 12.156 15.572L12.144 15.5733C10.7653 15.827 9.35138 15.8216 7.97467 15.5573C7.15814 15.3972 6.35793 15.1629 5.584 14.8573C4.912 14.5947 4.33733 14.316 3.78133 13.9267L2.96267 15.0973C3.61612 15.545 4.32178 15.9113 5.064 16.188L5.06667 16.1893ZM6.92533 7.68798C5.49467 7.68798 4.464 8.92798 4.464 10.3027C4.464 11.684 5.51733 12.9187 6.92533 12.9187C8.35333 12.9187 9.38267 11.6827 9.38533 10.3093C9.40533 8.91465 8.34267 7.68798 6.92533 7.68798ZM13.048 7.81598C12.372 7.81598 11.7693 8.07332 11.3413 8.54532C10.9213 9.01198 10.7147 9.63598 10.7147 10.3027C10.7147 10.9693 10.9227 11.6293 11.3093 12.14C11.7 12.6573 12.3013 13.0466 13.048 13.0466C14.4787 13.0466 15.508 11.8067 15.508 10.4307C15.508 9.05465 14.4787 7.81598 13.048 7.81598Z" fill="white"/>
</svg>
