<svg width="25" height="25" viewBox="0 0 25 25" fill="none" xmlns="http://www.w3.org/2000/svg">
<path d="M12.5771 22.6912C7.05415 22.6912 2.57715 18.2142 2.57715 12.6912C2.57715 7.16816 7.05415 2.69116 12.5771 2.69116C18.1001 2.69116 22.5771 7.16816 22.5771 12.6912C22.5771 18.2142 18.1001 22.6912 12.5771 22.6912ZM17.3971 17.7672C18.6043 16.623 19.3646 15.0865 19.5418 13.4328C19.7191 11.7791 19.3018 10.1163 18.3646 8.74227C17.4274 7.36827 16.0316 6.37286 14.4273 5.93435C12.823 5.49584 11.1149 5.64289 9.60915 6.34916L10.5841 8.10416C11.3451 7.77345 12.1763 7.63729 13.003 7.70796C13.8297 7.77862 14.6258 8.05389 15.3195 8.50896C16.0133 8.96402 16.5829 9.58457 16.977 10.3147C17.3711 11.0448 17.5774 11.8615 17.5771 12.6912H14.5771L17.3971 17.7672ZM15.5451 19.0332L14.5701 17.2782C13.8092 17.6089 12.978 17.745 12.1513 17.6744C11.3246 17.6037 10.5285 17.3284 9.83477 16.8734C9.14101 16.4183 8.5714 15.7978 8.17728 15.0677C7.78316 14.3376 7.57692 13.5208 7.57715 12.6912H10.5771L7.75715 7.61516C6.55004 8.7593 5.78974 10.2959 5.61247 11.9496C5.4352 13.6033 5.85254 15.2661 6.78971 16.6401C7.72689 18.0141 9.12267 19.0095 10.727 19.448C12.3313 19.8865 14.0394 19.7394 15.5451 19.0332Z" fill="white"/>
</svg>
