<?xml version="1.0" encoding="utf-8"?>
<!-- Generator: Adobe Illustrator 24.3.0, SVG Export Plug-In . SVG Version: 6.00 Build 0)  -->
<svg version="1.1" id="Layer_1" xmlns="http://www.w3.org/2000/svg" xmlns:xlink="http://www.w3.org/1999/xlink" x="0px" y="0px"
	 viewBox="0 0 36 36" style="enable-background:new 0 0 36 36;" xml:space="preserve">
<style type="text/css">
	.st0{fill:none;stroke:#5E5EDD;stroke-width:1.3333;stroke-linecap:round;}
	.st1{fill:none;stroke:#5E5EDD;stroke-width:1.3333;}
	.st2{fill:none;}
</style>
<path class="st0" d="M28.65,21.63c0.26-0.76,0.97-1.28,1.77-1.28h1.64c0.52,0,0.94-0.42,0.94-0.94v-2.81c0-0.52-0.42-0.94-0.94-0.94
	h-1.64c-0.81,0-1.51-0.52-1.77-1.28c-0.16-0.46-0.34-0.9-0.55-1.32c-0.36-0.73-0.23-1.6,0.34-2.17l1.16-1.16
	c0.37-0.37,0.37-0.96,0-1.33L27.61,6.4c-0.37-0.37-0.96-0.37-1.33,0l-1.16,1.16c-0.57,0.57-1.44,0.7-2.17,0.34
	c-0.43-0.21-0.87-0.39-1.32-0.55c-0.76-0.26-1.28-0.97-1.28-1.77V3.94c0-0.52-0.42-0.94-0.94-0.94h-2.81
	c-0.52,0-0.94,0.42-0.94,0.94v1.64c0,0.81-0.52,1.51-1.28,1.77c-0.46,0.16-0.9,0.34-1.32,0.55c-0.73,0.36-1.6,0.23-2.17-0.34
	L9.71,6.4c-0.37-0.37-0.96-0.37-1.33,0L6.4,8.39c-0.37,0.37-0.37,0.96,0,1.33l1.16,1.16c0.57,0.57,0.7,1.44,0.34,2.17
	c-0.21,0.43-0.39,0.87-0.55,1.32c-0.26,0.76-0.97,1.28-1.77,1.28H3.94C3.42,15.66,3,16.08,3,16.59v2.81c0,0.52,0.42,0.94,0.94,0.94
	h1.64c0.81,0,1.51,0.52,1.77,1.28c0.3,0.88,0.71,1.72,1.21,2.49L6.4,26.29c-0.37,0.37-0.37,0.96,0,1.33l1.99,1.99
	c0.37,0.37,0.96,0.37,1.33,0l1.16-1.16c0.57-0.57,1.44-0.7,2.17-0.34c0.43,0.21,0.87,0.39,1.32,0.55c0.76,0.26,1.28,0.97,1.28,1.77
	v1.64c0,0.52,0.42,0.94,0.94,0.94h2.81c0.52,0,0.94-0.42,0.94-0.94v-1.64c0-0.81,0.52-1.51,1.28-1.77"/>
<path class="st1" d="M21.97,14.02c-1.11-1.11-2.58-1.66-4.04-1.64c-0.82,0.01-1.22,1.02-0.64,1.61l2.03,2.03
	c0.73,0.73,0.73,1.92,0,2.65l-0.66,0.66c-0.73,0.73-1.92,0.73-2.65,0l-2.03-2.03c-0.58-0.58-1.6-0.19-1.61,0.64
	c-0.02,1.46,0.53,2.93,1.64,4.04c1.6,1.6,3.94,2.03,5.93,1.29l5.76,5.76c0.01,1.04,0.51,2.07,1.49,2.72
	c1.04,0.69,2.44,0.71,3.5,0.04c1.86-1.17,2.06-3.66,0.6-5.12c-0.63-0.63-1.46-0.95-2.28-0.96l-5.76-5.76
	C24,17.95,23.58,15.62,21.97,14.02z"/>
<line class="st0" x1="28.66" y1="28.67" x2="28.99" y2="29"/>
<rect class="st2" width="36" height="36"/>
</svg>
