<svg width="25" height="25" viewBox="0 0 25 25" fill="none" xmlns="http://www.w3.org/2000/svg">
<path d="M12.8389 2.79858C7.31387 2.79858 2.83887 7.27358 2.83887 12.7986C2.83773 14.8979 3.49768 16.9442 4.72508 18.6473C5.95249 20.3503 7.68501 21.6237 9.67687 22.2866C10.1769 22.3736 10.3639 22.0736 10.3639 21.8106C10.3639 21.5736 10.3509 20.7866 10.3509 19.9486C7.83887 20.4116 7.18887 19.3366 6.98887 18.7736C6.87587 18.4856 6.38887 17.5986 5.96387 17.3606C5.61387 17.1736 5.11387 16.7106 5.95087 16.6986C6.73887 16.6856 7.30087 17.4236 7.48887 17.7236C8.38887 19.2356 9.82687 18.8106 10.4009 18.5486C10.4889 17.8986 10.7509 17.4616 11.0389 17.2116C8.81387 16.9616 6.48887 16.0986 6.48887 12.2736C6.48887 11.1856 6.87587 10.2866 7.51387 9.58558C7.41387 9.33558 7.06387 8.31058 7.61387 6.93558C7.61387 6.93558 8.45087 6.67358 10.3639 7.96158C11.1779 7.73564 12.019 7.62193 12.8639 7.62358C13.7139 7.62358 14.5639 7.73558 15.3639 7.96058C17.2759 6.66058 18.1139 6.93658 18.1139 6.93658C18.6639 8.31158 18.3139 9.33658 18.2139 9.58658C18.8509 10.2866 19.2389 11.1736 19.2389 12.2736C19.2389 16.1116 16.9019 16.9616 14.6769 17.2116C15.0389 17.5236 15.3519 18.1236 15.3519 19.0616C15.3519 20.3986 15.3389 21.4736 15.3389 21.8116C15.3389 22.0736 15.5269 22.3856 16.0269 22.2856C18.0119 21.6154 19.7368 20.3396 20.9588 18.6377C22.1808 16.9359 22.8383 14.8937 22.8389 12.7986C22.8389 7.27358 18.3639 2.79858 12.8389 2.79858Z" fill="#24292E"/>
</svg>
