<svg width="76" height="51" viewBox="0 0 76 51" fill="none" xmlns="http://www.w3.org/2000/svg">
<path d="M75.5 23.1C73.9 20.8 71.5 18.7 68.3 16.8C56.7 10.2 38.8999 9.49998 26 14.7L20.4 16C18.8 16.6 17.3 17.4 15.9 18.2C9.39995 21.9 6.19995 26.8 6.19995 31.7C6.19995 36.6 9.39995 41.5 15.9 45.2C28.7999 52.7 49.7999 52.7 62.7 45.2C68.7999 41.7 72 37.2 72.3 32.6C72.5 29.8 71.7 27.1 69.9 24.5L75.5 23.1Z" fill="url(#paint0_linear_6801_12065)"/>
<path d="M14.2 3.39997L33.0999 19.1L56.5 5.59997C44.9 -1.10003 27.1 -1.80003 14.2 3.39997Z" fill="#F6F6FB"/>
<path d="M56.5001 5.59985L33.1001 19.0999L63.7001 11.8999C62.1001 9.59985 59.7001 7.39985 56.5001 5.59985Z" fill="#E56EC9"/>
<path d="M33.1 24.9999L14.2 9.3999C12.6 9.9999 11.1 10.7999 9.7 11.5999C3.2 15.2999 0 20.0999 0 24.9999C0 29.8999 3.2 34.7999 9.7 38.4999C22.6 45.9999 43.6 45.9999 56.5 38.4999C62.6 34.9999 65.8 30.4999 66.1 25.8999C66.3 23.0999 65.5 20.3999 63.7 17.7999L33.1 24.9999Z" fill="#F6F6FB"/>
<path d="M66.1 25.8999C65.7 30.4999 62.5 34.9999 56.5 38.4999C43.5 45.9999 22.6 45.9999 9.7 38.4999C3.6 34.9999 0.4 30.4999 0 25.8999V31.6999C0 36.5999 3.2 41.4999 9.7 45.1999C22.6 52.6999 43.6 52.6999 56.5 45.1999C62.6 41.6999 65.8 37.1999 66.1 32.5999C66.1 32.0999 66.1 31.4999 66.1 30.9999V25.8999Z" fill="url(#paint1_linear_6801_12065)"/>
<path d="M63.7001 17.8L33.1001 25V19.1L63.7001 11.8V17.8Z" fill="#B8429B"/>
<path d="M33.0999 24.9999L14.2 9.3999V3.3999L33.0999 19.0999V24.9999Z" fill="#D5DAF9"/>
<path d="M64.8001 19.7001C64.5001 19.1001 64.1001 18.4 63.6001 17.8L33.1001 25H42.5001L64.8001 19.7001Z" fill="url(#paint2_linear_6801_12065)"/>
<defs>
<linearGradient id="paint0_linear_6801_12065" x1="6.28025" y1="31.0257" x2="75.4602" y2="31.0257" gradientUnits="userSpaceOnUse">
<stop offset="0.4164" stop-color="#C6CBE7"/>
<stop offset="0.5872" stop-color="#D2D6EC"/>
<stop offset="1" stop-color="#C6CBE7" stop-opacity="0"/>
</linearGradient>
<linearGradient id="paint1_linear_6801_12065" x1="66.0655" y1="38.4162" x2="0.00220596" y2="38.4169" gradientUnits="userSpaceOnUse">
<stop offset="0.4086" stop-color="#5652CC"/>
<stop offset="0.4957" stop-color="#706CE9"/>
<stop offset="0.5654" stop-color="#807DFB"/>
</linearGradient>
<linearGradient id="paint2_linear_6801_12065" x1="33.0672" y1="21.4095" x2="64.8251" y2="21.4095" gradientUnits="userSpaceOnUse">
<stop stop-color="#C4CAE9"/>
<stop offset="0.5641" stop-color="#D4DAF2"/>
<stop offset="1" stop-color="#DAE0F5"/>
</linearGradient>
</defs>
</svg>
