<svg width="97" height="57" viewBox="0 0 97 57" fill="none" xmlns="http://www.w3.org/2000/svg">
<path d="M94.7 31.1L62.4 12.5C59.7 11 55.4 11 52.7 12.5L21.1 30.8C18.4 32.3 18.4 34.8 21.1 36.4L38 46.1V56.1H58.2C59.9 56.1 61.7 55.7 63 54.9L94.7 36.6C97.2999 35.1 97.2999 32.6 94.7 31.1Z" fill="url(#paint0_linear_6801_12076)"/>
<path d="M43.9 43.5999C41.2 45.0999 36.9 45.0999 34.2 43.5999L1.99998 25C-0.700024 23.5 -0.700024 21 1.99998 19.4L33.7 1.19995C36.4 -0.300049 40.7 -0.300049 43.4 1.19995L75.6 19.7999C78.3 21.2999 78.3 23.7999 75.6 25.4L43.9 43.5999Z" fill="#F6F6FB"/>
<path d="M39 42.4999C37.6 42.4999 36.3 42.1999 35.3 41.6999L3.20002 22.9999C2.50002 22.5999 2.40002 22.2999 2.40002 22.1999C2.40002 22.0999 2.60002 21.7999 3.20002 21.3999L34.9 3.1999C35.8 2.6999 37.2 2.3999 38.6 2.3999C40 2.3999 41.3 2.6999 42.3 3.1999L74.5 21.7999C75.2 22.1999 75.3 22.4999 75.3 22.5999C75.3 22.6999 75.1 22.9999 74.5 23.3999L42.7 41.5999C41.8 42.0999 40.5 42.4999 39 42.4999Z" fill="white"/>
<path d="M0 33.5C0 34.5 0.6 35.6 2 36.4L34.2 55C36.9 56.5 41.2 56.5 43.9 55L75.6 36.7C77 35.9 77.6 34.7999 77.6 33.7999V22.7999C77.5 23.7999 76.9 24.7 75.6 25.5L43.9 43.5999C41.2 45.0999 36.9 45.0999 34.2 43.5999L2 25C0.7 24.2 0 23.2 0 22.2V33.5Z" fill="url(#paint1_linear_6801_12076)"/>
<path d="M0 29.4999C0 30.4999 0.6 31.5999 2 32.3999L34.2 50.9999C36.9 52.4999 41.2 52.4999 43.9 50.9999L75.6 32.6999C77 31.8999 77.6 30.7999 77.6 29.7999V27.5999C77.5 28.5999 76.9 29.4999 75.6 30.2999L43.9 48.4999C41.2 49.9999 36.9 49.9999 34.2 48.4999L2 29.8999C0.7 29.0999 0 28.0999 0 27.0999V29.4999Z" fill="url(#paint2_linear_6801_12076)"/>
<path d="M39.4999 9.89985C41.0999 8.99985 43.6999 8.99985 45.1999 9.89985C46.7999 10.7999 46.7999 12.2999 45.1999 13.1999C43.5999 14.0999 40.9999 14.0999 39.4999 13.1999C37.8999 12.2999 37.8999 10.7999 39.4999 9.89985Z" fill="#D453B5"/>
<path fill-rule="evenodd" clip-rule="evenodd" d="M19.1371 25.3925L19.1 25.4L41.8 38.5L52.4 21.2C53.1 20 51.1 18.8 49.1 19.3L32.0611 22.7646L34.7999 18.2999C35.4999 17.0999 33.4999 15.8999 31.4999 16.3999L10.7999 20.5999L19.1371 25.3925Z" fill="#DFE4F4"/>
<defs>
<linearGradient id="paint0_linear_6801_12076" x1="19.081" y1="33.7176" x2="96.6492" y2="33.7176" gradientUnits="userSpaceOnUse">
<stop stop-color="#C4C9E4"/>
<stop offset="0.2542" stop-color="#CED2E8"/>
<stop offset="0.807292" stop-color="#CED2E8" stop-opacity="0"/>
</linearGradient>
<linearGradient id="paint1_linear_6801_12076" x1="77.5594" y1="39.1941" x2="0.00272575" y2="39.1951" gradientUnits="userSpaceOnUse">
<stop offset="0.4086" stop-color="#BBC0E6"/>
<stop offset="0.4134" stop-color="#BCC1E7"/>
<stop offset="0.5654" stop-color="#CED3F8"/>
</linearGradient>
<linearGradient id="paint2_linear_6801_12076" x1="77.5595" y1="39.6664" x2="0.00258975" y2="39.6674" gradientUnits="userSpaceOnUse">
<stop offset="0.4086" stop-color="#5652CC"/>
<stop offset="0.4957" stop-color="#706CE9"/>
<stop offset="0.5654" stop-color="#807DFB"/>
</linearGradient>
</defs>
</svg>
