<svg width="49" height="73" viewBox="0 0 49 73" fill="none" xmlns="http://www.w3.org/2000/svg">
<path fill-rule="evenodd" clip-rule="evenodd" d="M10.6283 1.8306L11.2432 3.658L12.5299 2.78281L13.8165 1.90762L16.891 11.0446L19.9655 20.1817L22.5388 18.4313L25.1122 16.6809L25.7271 18.5083L26.342 20.3357L28.9153 18.5853L31.4887 16.835L32.1035 18.6624L32.7184 20.4898L35.2918 18.7394L37.8651 16.989L38.48 18.8164L39.0949 20.6438L40.3816 19.7686L41.6683 18.8934L44.7427 28.0305L47.8172 37.1675L46.5306 38.0427L45.2439 38.9179L46.4737 42.5727L47.7035 46.2275L46.4168 47.1027L45.1301 47.9779L46.9748 53.4601L48.8195 58.9423L47.5328 59.8175L46.2462 60.6927L44.4015 55.2105L42.5568 49.7283L43.8435 48.8531L45.1301 47.9779L43.9003 44.3231L42.6705 40.6683L43.9572 39.7931L45.2439 38.9179L42.1694 29.7808L39.0949 20.6438L36.5216 22.3942L33.9482 24.1446L33.3333 22.3172L32.7184 20.4898L30.1451 22.2402L27.5718 23.9905L26.9569 22.1631L26.342 20.3357L22.482 22.9613L18.6219 25.5869L14.9326 14.6224L11.2432 3.658L8.66984 5.40838L6.0965 7.15876L12.2455 25.4328L18.3944 43.7069L17.1078 44.5821L15.8211 45.4573L14.5913 41.8024L13.3615 38.1476L12.0748 39.0228L10.7882 39.898L10.1733 38.0706L9.55837 36.2432L6.98502 37.9936L4.41168 39.744L5.02658 41.5714L5.64147 43.3988L6.92814 42.5236L8.21482 41.6484L9.44461 45.3032L10.6744 48.958L11.9611 48.0828L13.2477 47.2076L15.0924 52.6899L16.9371 58.1721L18.2238 57.2969L19.5105 56.4217L20.7403 60.0765L21.97 63.7313L23.2567 62.8561L24.5434 61.9809L25.1583 63.8083L25.7732 65.6357L27.0599 64.7605L28.3465 63.8854L29.5763 67.5402L30.8061 71.195L29.5194 72.0702L28.2328 72.9454L27.003 69.2905L25.7732 65.6357L24.4865 66.5109L23.1998 67.3861L22.5849 65.5587L21.97 63.7313L20.6834 64.6065L19.3967 65.4817L18.1669 61.8269L16.9371 58.1721L15.6504 59.0473L14.3638 59.9224L12.5191 54.4402L10.6744 48.958L9.38773 49.8332L8.10106 50.7084L6.87127 47.0536L5.64147 43.3988L4.3548 44.274L3.06813 45.1492L1.83834 41.4943L0.608546 37.8395L4.46856 35.214L8.32857 32.5884L8.94347 34.4158L9.55837 36.2432L10.845 35.368L12.1317 34.4928L7.82743 21.701L3.52316 8.90915L4.80983 8.03395L6.0965 7.15876L5.48161 5.33136L4.86671 3.50395L7.44005 1.75357L10.0134 0.00319085L10.6283 1.8306Z" fill="black"/>
<path d="M46.2462 60.6927L44.4015 55.2105L42.5568 49.7283L43.8435 48.8531L45.1301 47.9779L43.9003 44.3231L42.6705 40.6683L43.9572 39.7931L45.2439 38.9179L42.1694 29.7808L39.0949 20.6438L36.5216 22.3942L33.9482 24.1446L33.3333 22.3172L32.7184 20.4898L30.1451 22.2402L27.5718 23.9905L26.9569 22.1631L26.342 20.3357L22.482 22.9613L18.6219 25.5869L14.9326 14.6224L11.2432 3.658L8.66984 5.40838L6.0965 7.15876L12.2455 25.4328L18.3944 43.7069L17.1078 44.5821L15.8211 45.4573L14.5913 41.8024L13.3615 38.1476L12.0748 39.0228L10.7882 39.898L10.1733 38.0706L9.55837 36.2432L6.98502 37.9936L4.41168 39.744L5.02658 41.5714L5.64147 43.3988L6.92814 42.5236L8.21482 41.6484L9.44461 45.3032L10.6744 48.958L11.9611 48.0828L13.2477 47.2076L15.0924 52.6899L16.9371 58.1721L18.2238 57.2969L19.5105 56.4217L20.7403 60.0765L21.97 63.7313L23.2567 62.8561L24.5434 61.9809L25.1583 63.8083L25.7732 65.6357L27.0599 64.7605L28.3465 63.8854L29.5763 67.5402L30.8061 71.195L46.2462 60.6927Z" fill="white"/>
</svg>
