<svg width="48" height="48" viewBox="0 0 48 48" fill="none" xmlns="http://www.w3.org/2000/svg">
<rect width="48" height="48" rx="24" fill="#005CC5" fill-opacity="0.2"/>
<g clip-path="url(#clip0_9767_45404)">
<path d="M15.3401 29.0001C14.9173 28.2691 14.5887 27.4875 14.3621 26.6741C14.8554 26.4232 15.2697 26.0407 15.5591 25.569C15.8485 25.0972 16.0018 24.5546 16.002 24.0012C16.0022 23.4477 15.8493 22.905 15.5603 22.4331C15.2712 21.9611 14.8572 21.5783 14.3641 21.3271C14.8161 19.6926 15.6768 18.2 16.8651 16.9901C17.3292 17.2918 17.8677 17.4592 18.421 17.4738C18.9744 17.4885 19.521 17.3497 20.0004 17.0729C20.4798 16.7961 20.8732 16.3921 21.1372 15.9055C21.4012 15.4189 21.5254 14.8688 21.4961 14.3161C23.1382 13.8917 24.8613 13.8924 26.5031 14.3181C26.474 14.8708 26.5985 15.4209 26.8626 15.9073C27.1268 16.3937 27.5204 16.7975 27.9999 17.0741C28.4794 17.3507 29.026 17.4893 29.5793 17.4744C30.1327 17.4596 30.6711 17.2919 31.1351 16.9901C31.7141 17.5801 32.2281 18.2511 32.6601 19.0001C33.0931 19.7491 33.4171 20.5301 33.6381 21.3261C33.1448 21.577 32.7305 21.9594 32.441 22.4312C32.1516 22.9029 31.9983 23.4455 31.9981 23.999C31.9979 24.5524 32.1508 25.0951 32.4399 25.5671C32.7289 26.039 33.1429 26.4218 33.6361 26.6731C33.184 28.3076 32.3233 29.8001 31.1351 31.0101C30.671 30.7083 30.1324 30.5409 29.5791 30.5263C29.0257 30.5117 28.4791 30.6504 27.9997 30.9272C27.5204 31.204 27.1269 31.6081 26.8629 32.0946C26.599 32.5812 26.4748 33.1313 26.5041 33.6841C24.862 34.1084 23.1388 34.1078 21.4971 33.6821C21.5261 33.1293 21.4017 32.5793 21.1375 32.0929C20.8733 31.6064 20.4797 31.2026 20.0002 30.926C19.5208 30.6494 18.9741 30.5109 18.4208 30.5257C17.8675 30.5406 17.329 30.7082 16.8651 31.0101C16.2741 30.407 15.7617 29.7317 15.3401 29.0001ZM21.0001 29.1961C22.0657 29.8107 22.8669 30.7971 23.2501 31.9661C23.7491 32.0131 24.2501 32.0141 24.7491 31.9671C25.1325 30.7979 25.9341 29.8115 27.0001 29.1971C28.0653 28.5808 29.3206 28.3795 30.5251 28.6321C30.8151 28.2241 31.0651 27.7891 31.2731 27.3341C30.4525 26.4175 29.9992 25.2303 30.0001 24.0001C30.0001 22.7401 30.4701 21.5631 31.2731 20.6661C31.0636 20.2112 30.8125 19.7767 30.5231 19.3681C29.3193 19.6204 28.0649 19.4195 27.0001 18.8041C25.9344 18.1894 25.1332 17.203 24.7501 16.0341C24.2511 15.9871 23.7501 15.9861 23.2511 16.0331C22.8677 17.2022 22.0661 18.1886 21.0001 18.8031C19.9348 19.4194 18.6795 19.6206 17.4751 19.3681C17.1856 19.7764 16.9352 20.2109 16.7271 20.6661C17.5476 21.5826 18.0009 22.7699 18.0001 24.0001C18.0001 25.2601 17.5301 26.4371 16.7271 27.3341C16.9365 27.7889 17.1876 28.2234 17.4771 28.6321C18.6808 28.3798 19.9353 28.5806 21.0001 29.1961ZM24.0001 27.0001C23.2044 27.0001 22.4413 26.684 21.8787 26.1214C21.3161 25.5588 21.0001 24.7957 21.0001 24.0001C21.0001 23.2044 21.3161 22.4414 21.8787 21.8787C22.4413 21.3161 23.2044 21.0001 24.0001 21.0001C24.7957 21.0001 25.5588 21.3161 26.1214 21.8787C26.684 22.4414 27.0001 23.2044 27.0001 24.0001C27.0001 24.7957 26.684 25.5588 26.1214 26.1214C25.5588 26.684 24.7957 27.0001 24.0001 27.0001ZM24.0001 25.0001C24.2653 25.0001 24.5196 24.8947 24.7072 24.7072C24.8947 24.5196 25.0001 24.2653 25.0001 24.0001C25.0001 23.7348 24.8947 23.4805 24.7072 23.293C24.5196 23.1054 24.2653 23.0001 24.0001 23.0001C23.7348 23.0001 23.4805 23.1054 23.293 23.293C23.1054 23.4805 23.0001 23.7348 23.0001 24.0001C23.0001 24.2653 23.1054 24.5196 23.293 24.7072C23.4805 24.8947 23.7348 25.0001 24.0001 25.0001Z" fill="#005CC5"/>
</g>
<defs>
<clipPath id="clip0_9767_45404">
<rect width="24" height="24" fill="white" transform="translate(12 12)"/>
</clipPath>
</defs>
</svg>
