<svg width="1110" height="289" viewBox="0 0 1110 289" fill="none" xmlns="http://www.w3.org/2000/svg">
<mask id="mask0_4929_30185" style="mask-type:alpha" maskUnits="userSpaceOnUse" x="0" y="0" width="1110" height="289">
<rect y="0.785156" width="1110" height="288" rx="16" fill="#C4C4C4"/>
</mask>
<g mask="url(#mask0_4929_30185)">
<rect y="0.785156" width="1110" height="288" rx="16" fill="#6F42C1"/>
<path opacity="0.15" d="M730.287 207.5C612.471 122.862 450.106 221.766 321.429 154.785C254.479 119.935 240.901 88.4873 192.858 36.4997C162.043 3.1546 159.105 -2.65041 129.858 -26.5003C100.61 -50.3502 47.5723 -77.9288 47.5723 -77.9288V-165.357H1432.29V417.071H1101.86C1101.86 417.071 925.373 419.821 840.858 347.643C789.455 303.743 790.597 250.826 730.287 207.5Z" fill="white"/>
<path opacity="0.15" d="M777.857 179.5C660.041 94.862 497.676 215.624 369 148.643C302.049 113.792 267 -9.7146 247.5 -46.2146C236.815 -66.2146 220.5 -84.2146 194 -98.2146C167.5 -112.215 95.1426 -105.929 95.1426 -105.929V-193.357H1479.86V352.5H1170C1170 352.5 952.714 359.5 882 309.357C820.285 265.596 838.168 222.826 777.857 179.5Z" fill="white"/>
</g>
</svg>
