<svg width="25" height="25" viewBox="0 0 25 25" fill="none" xmlns="http://www.w3.org/2000/svg">
<path d="M16.1006 2.69116L21.1006 7.69116V21.6992C21.1003 21.9623 20.9956 22.2147 20.8094 22.4007C20.6232 22.5867 20.3708 22.6912 20.1076 22.6912H4.09359C3.83096 22.6893 3.5796 22.5843 3.3938 22.3986C3.208 22.213 3.10268 21.9618 3.10059 21.6992V3.68316C3.10059 3.13516 3.54559 2.69116 4.09359 2.69116H16.1006ZM17.7576 12.6912L14.2206 9.15516L12.8076 10.5712L14.9286 12.6912L12.8086 14.8122L14.2216 16.2272L17.7576 12.6912ZM6.44359 12.6912L9.97959 16.2272L11.3936 14.8122L9.27259 12.6912L11.3926 10.5702L9.98059 9.15516L6.44359 12.6912Z" fill="white"/>
</svg>
