<svg width="25" height="25" viewBox="0 0 25 25" fill="none" xmlns="http://www.w3.org/2000/svg">
<path d="M18.3623 3.69116C20.0193 3.69116 21.3623 5.03416 21.3623 6.69116C21.3623 8.34816 20.0193 9.69116 18.3623 9.69116H15.3623C14.0563 9.69116 12.9453 8.85716 12.5333 7.69116H11.3623C10.2623 7.69116 9.3623 8.59116 9.3623 9.69116V9.86216C10.5283 10.2742 11.3623 11.3852 11.3623 12.6912C11.3623 13.9972 10.5283 15.1082 9.3623 15.5202V15.6912C9.3623 16.7912 10.2623 17.6912 11.3623 17.6912H12.5323C12.9443 16.5262 14.0563 15.6912 15.3623 15.6912H18.3623C20.0193 15.6912 21.3623 17.0342 21.3623 18.6912C21.3623 20.3482 20.0193 21.6912 18.3623 21.6912H15.3623C14.0563 21.6912 12.9453 20.8572 12.5333 19.6912H11.3623C9.1523 19.6912 7.3623 17.9012 7.3623 15.6912H5.3623C3.7053 15.6912 2.3623 14.3482 2.3623 12.6912C2.3623 11.0342 3.7053 9.69116 5.3623 9.69116H7.3623C7.3623 7.48116 9.1523 5.69116 11.3623 5.69116H12.5323C12.9443 4.52616 14.0563 3.69116 15.3623 3.69116H18.3623ZM18.3623 17.6912H15.3623C14.8103 17.6912 14.3623 18.1392 14.3623 18.6912C14.3623 19.2432 14.8103 19.6912 15.3623 19.6912H18.3623C18.9143 19.6912 19.3623 19.2432 19.3623 18.6912C19.3623 18.1392 18.9143 17.6912 18.3623 17.6912ZM8.3623 11.6912H5.3623C4.8103 11.6912 4.3623 12.1392 4.3623 12.6912C4.3623 13.2432 4.8103 13.6912 5.3623 13.6912H8.3623C8.9143 13.6912 9.3623 13.2432 9.3623 12.6912C9.3623 12.1392 8.9143 11.6912 8.3623 11.6912ZM18.3623 5.69116H15.3623C14.8103 5.69116 14.3623 6.13916 14.3623 6.69116C14.3623 7.24316 14.8103 7.69116 15.3623 7.69116H18.3623C18.9143 7.69116 19.3623 7.24316 19.3623 6.69116C19.3623 6.13916 18.9143 5.69116 18.3623 5.69116Z" fill="white"/>
</svg>
