<svg width="15" height="15" viewBox="0 0 15 15" fill="none" xmlns="http://www.w3.org/2000/svg">
<path d="M7.94802 0.278949C7.90666 0.195482 7.84279 0.12523 7.76364 0.0761157C7.68448 0.027001 7.59318 0.000976562 7.50002 0.000976562C7.40687 0.000976562 7.31556 0.027001 7.23641 0.0761157C7.15725 0.12523 7.09339 0.195482 7.05202 0.278949L5.00502 4.42595L0.428023 5.09095C0.335673 5.10436 0.248919 5.14335 0.177576 5.2035C0.106232 5.26365 0.0531464 5.34257 0.0243241 5.43133C-0.00449822 5.52009 -0.00790677 5.61514 0.014484 5.70573C0.0368748 5.79632 0.0841713 5.87884 0.151023 5.94395L3.46302 9.17195L2.68102 13.7309C2.66533 13.8228 2.67564 13.9173 2.71079 14.0036C2.74593 14.0899 2.80451 14.1647 2.8799 14.2195C2.9553 14.2743 3.04452 14.307 3.13749 14.3138C3.23045 14.3206 3.32346 14.3012 3.40602 14.2579L7.50002 12.1049L11.594 14.2579C11.6766 14.3012 11.7696 14.3206 11.8626 14.3138C11.9555 14.307 12.0447 14.2743 12.1201 14.2195C12.1955 14.1647 12.2541 14.0899 12.2893 14.0036C12.3244 13.9173 12.3347 13.8228 12.319 13.7309L11.537 9.17095L14.849 5.94395C14.9159 5.87884 14.9632 5.79632 14.9856 5.70573C15.008 5.61514 15.0045 5.52009 14.9757 5.43133C14.9469 5.34257 14.8938 5.26365 14.8225 5.2035C14.7511 5.14335 14.6644 5.10436 14.572 5.09095L9.99502 4.42595L7.94802 0.279949V0.278949Z" fill="#D453B6"/>
</svg>
