<svg width="24" height="24" viewBox="0 0 24 24" fill="none" xmlns="http://www.w3.org/2000/svg">
<path d="M12.7894 11.9975L18.8351 5.9475C19.055 5.7275 19.055 5.3775 18.8351 5.1575C18.6253 4.9475 18.2555 4.9475 18.0457 5.1575L12 11.2075L5.95432 5.1575C5.74447 4.9475 5.37473 4.9475 5.16488 5.1575C4.94504 5.3775 4.94504 5.7275 5.16488 5.9475L11.2106 11.9975L5.16488 18.0475C4.94504 18.2675 4.94504 18.6175 5.16488 18.8375C5.37473 19.0475 5.74447 19.0475 5.95432 18.8375L12 12.7875L18.0457 18.8375C18.1556 18.9475 18.2955 18.9975 18.4354 18.9975C18.5853 18.9975 18.7252 18.9375 18.8351 18.8375C19.055 18.6175 19.055 18.2675 18.8351 18.0475L12.7894 11.9975Z" fill="#484848" fill-opacity="0.5"/>
</svg>
