<svg width="32" height="32" viewBox="0 0 32 32" fill="none" xmlns="http://www.w3.org/2000/svg">
<path d="M24.0001 13V12.666C24.0001 11.194 22.8061 9.99998 21.334 9.99998H19C18.2043 9.99998 17.4413 10.3161 16.8786 10.8787C16.3161 11.4413 16 12.2043 16 13C16 13.7956 16.3161 14.5587 16.8786 15.1213C17.4413 15.6839 18.2043 16 19 16H21.0001C21.7956 16 22.5588 16.316 23.1213 16.8787C23.6839 17.4413 24.0001 18.2043 24.0001 19C24.0001 19.7956 23.6839 20.5587 23.1213 21.1214C22.5588 21.6839 21.7956 22 21.0001 22H19C18.2043 22 17.4413 21.6839 16.8786 21.1214C16.3161 20.5587 16 19.7956 16 19M12 8.99999V19.528C12 20.2709 11.793 20.9993 11.4023 21.6312C11.0116 22.2633 10.4526 22.7738 9.78799 23.1061L7.99999 23.9999M4 22V9.99998L16 3L28 9.99998V22L16 28.9999L4 22Z" stroke="#484848" stroke-width="1.5"/>
</svg>
