<svg width="283" height="56" viewBox="0 0 283 56" fill="none" xmlns="http://www.w3.org/2000/svg">
<path fill-rule="evenodd" clip-rule="evenodd" d="M24.687 24.5038C11.154 24.5038 0.183228 13.5331 0.183228 0H1.81682C1.81682 12.6309 12.0562 22.8702 24.687 22.8702H100.281C117.113 22.8702 132.832 31.2824 142.168 45.2874L140.809 46.1935C131.775 32.643 116.567 24.5038 100.281 24.5038H24.687Z" fill="white"/>
<path fill-rule="evenodd" clip-rule="evenodd" d="M258.29 22.8702C270.921 22.8702 281.16 12.6309 281.16 0H282.794C282.794 13.5331 271.823 24.5038 258.29 24.5038H182.696C166.41 24.5038 151.202 32.643 142.168 46.1935L140.809 45.2874C150.146 31.2824 165.864 22.8702 182.696 22.8702H258.29Z" fill="white"/>
<path fill-rule="evenodd" clip-rule="evenodd" d="M140.689 47.9526V0H142.288V47.9526H146.103L141.489 55.9447L136.874 47.9526H140.689Z" fill="white"/>
</svg>
